<?xml version="1.0" standalone="no"?>
<!DOCTYPE svg PUBLIC "-//W3C//DTD SVG 1.1//EN" "http://www.w3.org/Graphics/SVG/1.1/DTD/svg11.dtd" >
<svg xmlns="http://www.w3.org/2000/svg" xmlns:xlink="http://www.w3.org/1999/xlink" version="1.1">
<metadata>
Created by FontForge 20190801 at Sat Jun 27 00:13:59 2015
 By root
Copyright \(c\) 2015 by The Entente \(AS&#38;EH\). All rights reserved.
</metadata>
<defs>
<font id="BasisGrotesquePro-Italic" horiz-adv-x="787" >
  <font-face 
    font-family="Basis Grotesque Pro"
    font-weight="400"
    font-style="italic"
    font-stretch="normal"
    units-per-em="1000"
    panose-1="2 0 5 3 4 0 0 9 0 4"
    ascent="800"
    descent="-200"
    x-height="496"
    cap-height="700"
    bbox="-120 -218 1158 933.75"
    underline-thickness="50"
    underline-position="-295"
    slope="-11"
    unicode-range="U+000D-FB04"
  />
<missing-glyph horiz-adv-x="365" 
d="M299 0h-266v666h266v-666zM66 633v-600h200v600h-200z" />
    <glyph glyph-name="uniFB01" unicode="fi" horiz-adv-x="530" 
d="M397 0h-80l85 434h-195l-84 -434h-80l84 434h-78l12 62h78l20 105c17 92 78 149 171 149c20 0 36 -2 48 -7l-13 -68c-12 5 -25 7 -38 7c-41 0 -77 -31 -89 -88l-19 -98h275zM519 582h-96l19 98h96z" />
    <glyph glyph-name="uniFB02" unicode="fl" horiz-adv-x="531" 
d="M127 434h-78l12 62h78l20 105c17 92 78 149 171 149c20 0 36 -2 48 -7l-13 -68c-12 5 -25 7 -38 7c-41 0 -77 -31 -89 -88l-19 -98h112l-12 -62h-112l-84 -434h-80zM397 0h-80l137 700h80z" />
    <glyph glyph-name="uniFB03" unicode="ffi" horiz-adv-x="796" 
d="M391 434h-184l-84 -434h-80l84 434h-78l12 62h78l20 105c17 92 78 149 171 149c20 0 36 -2 48 -7l-13 -68c-12 5 -25 7 -38 7c-41 0 -77 -31 -89 -88l-19 -98h184l20 105c17 92 76 149 171 149c20 0 36 -2 48 -7l-13 -68c-13 5 -25 7 -38 7c-41 0 -77 -31 -89 -88
l-19 -98h275l-97 -496h-80l85 434h-195l-84 -434h-80zM783 582h-96l19 98h96z" />
    <glyph glyph-name="uniFB04" unicode="ffl" horiz-adv-x="795" 
d="M391 434h-184l-84 -434h-80l84 434h-78l12 62h78l20 105c17 92 78 149 171 149c20 0 36 -2 48 -7l-13 -68c-12 5 -25 7 -38 7c-41 0 -77 -31 -89 -88l-19 -98h184l20 105c17 92 76 149 171 149c20 0 36 -2 48 -7l-13 -68c-13 5 -25 7 -38 7c-41 0 -77 -31 -89 -88
l-19 -98h112l-12 -62h-112l-84 -434h-80zM661 0h-80l137 700h80z" />
    <glyph glyph-name=".notdef" horiz-adv-x="365" 
d="M299 0h-266v666h266v-666zM66 633v-600h200v600h-200z" />
    <glyph glyph-name="glyph1" horiz-adv-x="0" 
 />
    <glyph glyph-name="glyph2" horiz-adv-x="333" 
 />
    <glyph glyph-name="glyph3" horiz-adv-x="0" 
 />
    <glyph glyph-name="glyph3" horiz-adv-x="0" 
 />
    <glyph glyph-name="uni000D" unicode="&#xd;" horiz-adv-x="288" 
 />
    <glyph glyph-name="space" unicode=" " horiz-adv-x="275" 
 />
    <glyph glyph-name="exclam" unicode="!" horiz-adv-x="264" 
d="M78 188l45 289l44 223h84l-44 -223l-67 -289h-62zM118 0h-91l20 100h91z" />
    <glyph glyph-name="quotedbl" unicode="&#x22;" horiz-adv-x="344" 
d="M112 488l17 156l11 56h82l-11 -56l-43 -156h-56zM252 488l17 156l11 56h82l-11 -56l-43 -156h-56z" />
    <glyph glyph-name="numbersign" unicode="#" horiz-adv-x="658" 
d="M477 700h76l-41 -222h98v-62h-109l-25 -132h114v-62h-125l-42 -222h-76l42 222h-159l-41 -222h-76l41 222h-100v62h111l25 132h-116v62h127l42 222h76l-42 -222h159zM425 416h-159l-25 -132h159z" />
    <glyph glyph-name="dollar" unicode="$" horiz-adv-x="654" 
d="M290 -100h-72l17 91c-113 21 -177 104 -193 212l78 39c8 -101 51 -160 130 -177l52 270c-111 28 -167 89 -167 182c0 58 23 105 68 141s103 55 173 56l17 86h72l-18 -92c88 -17 144 -71 169 -161l-70 -43c-18 69 -56 113 -114 130l-47 -242c115 -31 172 -90 172 -176
c0 -65 -23 -119 -69 -162s-106 -65 -181 -68zM471 203c0 57 -33 91 -100 114l-50 -256c87 7 150 61 150 142zM216 523c0 -55 30 -85 101 -112l45 230c-80 -4 -146 -47 -146 -118z" />
    <glyph glyph-name="percent" unicode="%" horiz-adv-x="885" 
d="M100 519c0 54 18 100 55 138s82 57 137 57c97 0 156 -61 156 -152c0 -55 -18 -102 -55 -141c-36 -38 -82 -57 -137 -57c-46 0 -84 15 -113 44s-43 66 -43 111zM167 520c0 -57 38 -94 94 -94c68 0 120 56 120 129c0 61 -34 97 -93 97c-68 0 -121 -55 -121 -132zM468 141
c0 54 18 100 55 138s82 57 137 57c97 0 156 -61 156 -152c0 -55 -18 -101 -55 -140c-36 -39 -82 -58 -137 -58c-45 0 -83 15 -112 44s-44 66 -44 111zM535 142c0 -57 38 -94 94 -94c68 0 120 56 120 129c0 61 -34 97 -93 97c-68 0 -121 -55 -121 -132zM765 657l-567 -657
l-48 43l567 657z" />
    <glyph glyph-name="ampersand" unicode="&#x26;" horiz-adv-x="640" 
d="M490 107l68 -107h-86l-33 53c-53 -45 -115 -67 -184 -67c-62 0 -112 19 -149 57s-56 86 -56 143c0 100 57 176 170 228c-18 39 -27 78 -27 119c0 49 16 92 47 127c32 36 76 54 131 54c85 0 145 -48 145 -127c0 -90 -62 -157 -186 -201l-7 -3l129 -213
c33 47 57 100 74 159l58 -36c-23 -74 -55 -136 -94 -186zM261 56c53 0 100 18 142 55l-149 244c-87 -41 -124 -89 -124 -164c0 -81 56 -135 131 -135zM268 534c0 -30 7 -61 21 -93c107 39 153 70 153 137c0 41 -29 70 -74 70c-65 0 -100 -50 -100 -114z" />
    <glyph glyph-name="quotesingle" unicode="'" horiz-adv-x="203" 
d="M112 488l17 156l11 56h82l-11 -56l-43 -156h-56z" />
    <glyph glyph-name="parenleft" unicode="(" horiz-adv-x="340" 
d="M171 -148h-76c-27 78 -41 171 -41 280c0 108 19 212 58 313s89 186 148 255h76c-55 -73 -102 -162 -141 -265c-38 -103 -57 -207 -57 -312c0 -103 11 -193 33 -271z" />
    <glyph glyph-name="parenright" unicode=")" horiz-adv-x="340" 
d="M162 700h76c27 -78 41 -171 41 -280c0 -108 -20 -213 -59 -314s-88 -185 -147 -254h-76c55 73 102 161 140 264c39 103 58 208 58 313c0 103 -11 193 -33 271z" />
    <glyph glyph-name="asterisk" unicode="*" horiz-adv-x="434" 
d="M272 376h-78l40 124l-104 -71l-35 67l120 42l-99 40l43 70l90 -72l6 124h80l-40 -124l116 72l28 -69l-124 -41l97 -40l-44 -72l-87 78z" />
    <glyph glyph-name="plus" unicode="+" horiz-adv-x="506" 
d="M227 334h-173l13 62h173l33 174h64l-33 -174h173l-13 -62h-173l-33 -174h-64z" />
    <glyph glyph-name="comma" unicode="," horiz-adv-x="189" 
d="M27 0h-37l19 98h94l-19 -98l-94 -127l-22 15z" />
    <glyph glyph-name="hyphen" unicode="-" horiz-adv-x="455" 
d="M404 280h-360l13 62h360z" />
    <glyph glyph-name="period" unicode="." horiz-adv-x="189" 
d="M84 0h-94l19 98h94z" />
    <glyph glyph-name="slash" unicode="/" horiz-adv-x="495" 
d="M28 -30h-87l546 760h88z" />
    <glyph glyph-name="zero" unicode="0" horiz-adv-x="716" 
d="M676 417c0 -113 -31 -218 -90 -299c-57 -80 -153 -132 -265 -132c-79 0 -144 28 -195 83c-50 55 -75 127 -75 216c0 73 14 142 42 207s69 118 124 159c55 42 117 63 187 63c84 0 150 -26 199 -79c49 -52 73 -125 73 -218zM330 60c157 -2 265 163 262 344
c0 151 -70 236 -194 236c-53 0 -100 -18 -141 -53c-81 -69 -122 -182 -122 -301c0 -140 76 -226 195 -226z" />
    <glyph glyph-name="one" unicode="1" horiz-adv-x="361" 
d="M101 540l14 72c73 0 129 29 169 88h76l-137 -700h-84l115 587c-44 -37 -84 -47 -153 -47z" />
    <glyph glyph-name="two" unicode="2" horiz-adv-x="580" 
d="M4 0l11 55l316 265c85 72 120 130 120 201c0 79 -48 123 -129 123c-42 0 -77 -14 -106 -41c-28 -27 -42 -62 -42 -105c0 -13 1 -25 4 -36l-76 -12c-6 18 -9 36 -9 54c0 58 22 107 67 148s100 62 165 62c127 0 210 -71 210 -190c0 -85 -50 -170 -150 -255l-232 -195h317
l-14 -74h-452z" />
    <glyph glyph-name="three" unicode="3" horiz-adv-x="590" 
d="M78 244l74 -19c-5 -15 -8 -30 -8 -46c0 -71 53 -119 140 -119c96 0 158 60 158 151c0 87 -57 131 -171 131l13 68c107 0 182 47 182 136c0 60 -44 98 -123 98c-75 0 -132 -51 -132 -124c0 -9 0 -15 1 -20l-77 -11c-3 11 -4 21 -4 32c0 53 20 99 61 136
c41 38 94 57 159 57c60 0 108 -15 143 -46s53 -69 53 -116c0 -79 -50 -145 -133 -173c63 -23 112 -79 112 -159c0 -68 -22 -124 -66 -168s-105 -66 -182 -66c-64 0 -116 18 -156 54c-39 36 -59 79 -59 130c0 29 5 54 15 74z" />
    <glyph glyph-name="four" unicode="4" horiz-adv-x="578" 
d="M347 140h-323l14 74l418 486h84l-95 -486h79l-14 -74h-79l-28 -140h-84zM361 214l68 349l-300 -349h232z" />
    <glyph glyph-name="five" unicode="5" horiz-adv-x="594" 
d="M139 303l-69 19l107 378h400l-14 -74h-333l-68 -230c47 55 106 82 177 82c121 0 198 -78 198 -207c0 -82 -25 -150 -76 -204s-117 -81 -198 -81c-61 0 -111 17 -152 51c-40 35 -60 77 -60 128c0 25 4 47 13 67l73 -18c-4 -14 -6 -28 -6 -41c0 -69 54 -113 138 -113
c112 0 184 75 184 204c0 92 -58 144 -142 144c-72 0 -137 -46 -172 -105z" />
    <glyph glyph-name="six" unicode="6" horiz-adv-x="606" 
d="M565 496l-75 16c4 15 6 29 6 42c0 55 -47 86 -116 86c-56 0 -106 -25 -149 -76s-72 -120 -87 -208c47 68 111 102 193 102c59 0 110 -19 151 -57s62 -87 62 -147c0 -77 -25 -141 -75 -192s-112 -76 -187 -76c-69 0 -126 25 -170 74c-43 49 -65 115 -65 198
c0 188 110 456 335 456c55 0 100 -14 135 -42c36 -28 54 -65 54 -110c0 -21 -4 -43 -12 -66zM315 384c-51 0 -93 -17 -125 -51c-31 -33 -47 -75 -47 -125c0 -40 14 -75 42 -104s65 -44 111 -44c47 0 87 17 119 50c33 34 49 77 49 129c0 89 -62 145 -149 145z" />
    <glyph glyph-name="seven" unicode="7" horiz-adv-x="538" 
d="M577 700l-14 -68l-405 -632h-89l402 626h-361l15 74h452z" />
    <glyph glyph-name="eight" unicode="8" horiz-adv-x="579" 
d="M264 -14c-61 0 -112 18 -153 53c-41 36 -62 83 -62 140c0 92 60 170 155 205c-44 25 -76 75 -76 136c0 53 21 98 62 136c42 39 95 58 160 58c59 0 107 -16 144 -47s55 -70 55 -117c0 -85 -52 -149 -129 -184c55 -28 95 -81 95 -150c0 -71 -24 -128 -72 -169
s-108 -61 -179 -61zM271 54c45 0 83 14 115 42s48 66 48 114c0 79 -59 130 -139 130c-97 0 -162 -67 -162 -159c0 -76 58 -127 138 -127zM346 650c-41 0 -76 -13 -103 -38s-40 -57 -40 -95c0 -69 51 -113 119 -113c87 0 150 55 150 135c0 69 -53 111 -126 111z" />
    <glyph glyph-name="nine" unicode="9" horiz-adv-x="610" 
d="M73 204l75 -16c-4 -17 -6 -31 -6 -42c0 -56 42 -86 111 -86c117 0 203 103 234 287c-40 -65 -112 -105 -191 -105c-60 0 -112 20 -155 61s-65 93 -65 156c0 75 25 136 74 183c50 48 111 72 184 72c152 0 239 -101 239 -272c0 -50 -6 -101 -19 -152
c-24 -101 -70 -201 -157 -260c-43 -29 -92 -44 -147 -44s-100 14 -136 42c-35 28 -53 65 -53 110c0 19 4 41 12 66zM311 316c51 0 92 17 123 50c31 34 47 76 47 126c0 41 -14 76 -41 105s-63 43 -110 43s-87 -17 -120 -51c-32 -33 -48 -75 -48 -126c0 -93 61 -147 149 -147z
" />
    <glyph glyph-name="colon" unicode=":" horiz-adv-x="189" 
d="M84 0h-94l19 98h94zM158 378h-94l19 98h94z" />
    <glyph glyph-name="semicolon" unicode=";" horiz-adv-x="189" 
d="M158 378h-94l19 98h94zM27 0h-37l19 98h94l-19 -98l-94 -127l-22 15z" />
    <glyph glyph-name="less" unicode="&#x3c;" horiz-adv-x="517" 
d="M413 71l-371 201l15 76l449 201l-17 -83l-364 -159l303 -159z" />
    <glyph glyph-name="equal" unicode="=" horiz-adv-x="506" 
d="M443 224h-410l12 62h410zM480 414h-410l12 62h410z" />
    <glyph glyph-name="greater" unicode="&#x3e;" horiz-adv-x="517" 
d="M107 549l371 -201l-15 -76l-449 -201l16 85l364 159l-303 159z" />
    <glyph glyph-name="question" unicode="?" horiz-adv-x="535" 
d="M283 195h-86l4 22c5 29 17 55 34 76s46 47 86 76c41 29 59 44 84 72c27 28 37 60 37 96c0 64 -48 107 -120 107c-85 0 -144 -62 -144 -143c0 -10 1 -20 3 -29l-75 -13c-6 16 -9 32 -9 49c0 59 21 108 64 147s98 59 166 59c60 0 108 -16 144 -47s54 -71 54 -120
c0 -45 -13 -84 -38 -118s-67 -72 -124 -113c-49 -36 -71 -65 -80 -121zM249 0h-92l20 100h92z" />
    <glyph glyph-name="at" unicode="@" horiz-adv-x="946" 
d="M614 -30l27 -59c-71 -42 -154 -63 -249 -63c-88 0 -172 33 -237 93c-65 59 -108 158 -108 273c0 89 19 171 58 246s96 136 171 183s161 71 256 71c111 0 199 -31 264 -92c66 -61 99 -141 99 -240c0 -95 -24 -178 -73 -249c-48 -71 -109 -106 -183 -106
c-51 0 -81 29 -81 80c0 11 1 21 3 32c-36 -68 -104 -112 -172 -112c-50 0 -90 19 -120 57c-29 39 -44 88 -44 149c0 80 25 151 75 213c51 63 115 94 192 94c55 0 107 -30 120 -82l13 66h72l-75 -378c-1 -9 -2 -15 -2 -19c0 -23 12 -34 36 -34c48 0 88 29 120 87
c33 58 49 123 49 196c0 80 -26 145 -77 196s-125 76 -222 76c-228 5 -410 -204 -405 -429c0 -94 27 -168 81 -223s122 -82 204 -82c77 0 147 19 208 56zM402 93c54 0 99 26 135 79s54 110 54 171c0 89 -40 131 -101 131c-55 0 -101 -24 -138 -73c-36 -49 -54 -104 -54 -165
c0 -91 39 -143 104 -143z" />
    <glyph glyph-name="A" unicode="A" horiz-adv-x="655" 
d="M39 0h-91l414 700h88l141 -700h-81l-41 207h-309zM391 607l-32 -58l-159 -272h254l-53 272c-5 24 -8 43 -10 58z" />
    <glyph glyph-name="B" unicode="B" horiz-adv-x="641" 
d="M293 0h-264l137 700h248c120 0 193 -61 193 -153c0 -83 -59 -150 -146 -175c60 -21 108 -73 108 -150c0 -67 -27 -121 -80 -162c-53 -40 -118 -60 -196 -60zM338 336h-159l-52 -266h156c127 0 205 51 205 152c0 76 -50 114 -150 114zM397 630h-161l-44 -224h161
c47 0 88 12 121 35s50 55 50 94c0 63 -42 95 -127 95z" />
    <glyph glyph-name="C" unicode="C" horiz-adv-x="747" 
d="M602 216l63 -46c-78 -123 -183 -184 -316 -184c-89 0 -159 29 -212 86c-53 58 -79 133 -79 225c0 107 41 211 110 288c69 79 177 129 297 129c131 0 222 -68 262 -180l-70 -44c-35 100 -104 150 -205 150c-177 3 -313 -172 -308 -340c0 -72 19 -130 58 -174
s91 -66 156 -66c100 0 181 52 244 156z" />
    <glyph glyph-name="D" unicode="D" horiz-adv-x="692" 
d="M227 0h-198l137 700h181c187 0 304 -101 304 -289c0 -120 -39 -219 -117 -296c-77 -77 -180 -115 -307 -115zM128 74h103c105 0 187 31 246 93s88 142 88 239c0 147 -77 220 -230 220h-100z" />
    <glyph glyph-name="E" unicode="E" horiz-adv-x="593" 
d="M464 0h-435l137 700h432l-15 -74h-348l-44 -227h320l-14 -74h-320l-49 -251h351z" />
    <glyph glyph-name="F" unicode="F" horiz-adv-x="593" 
d="M113 0h-84l137 700h443l-15 -74h-359l-48 -247h329l-14 -74h-329z" />
    <glyph glyph-name="G" unicode="G" horiz-adv-x="766" 
d="M641 0h-58v115c-61 -86 -144 -129 -249 -129c-78 0 -144 28 -197 85s-79 128 -79 213c0 123 38 225 113 307c76 82 173 123 291 123c133 0 224 -57 272 -170l-70 -45c-38 94 -109 141 -212 141c-87 0 -160 -34 -219 -102c-59 -67 -88 -150 -88 -247
c0 -67 19 -123 56 -166c38 -43 87 -65 148 -65c63 0 119 23 168 68c49 46 81 97 96 153h-251l14 70h334z" />
    <glyph glyph-name="H" unicode="H" horiz-adv-x="689" 
d="M115 0h-84l137 700h84l-60 -306h341l60 306h84l-137 -700h-84l63 320h-341z" />
    <glyph glyph-name="I" unicode="I" horiz-adv-x="260" 
d="M113 0h-84l137 700h84z" />
    <glyph glyph-name="J" unicode="J" horiz-adv-x="536" 
d="M465 700h84l-98 -502c-27 -139 -115 -212 -243 -212c-50 0 -93 16 -129 47c-35 31 -53 71 -53 119c0 15 2 29 5 43l82 -9c-2 -11 -3 -21 -3 -30c0 -61 46 -96 107 -96c79 0 134 47 151 139z" />
    <glyph glyph-name="K" unicode="K" horiz-adv-x="618" 
d="M113 0h-84l137 700h84l-61 -315l70 64l285 251h109l-293 -260l177 -440h-91l-151 383l-129 -112z" />
    <glyph glyph-name="L" unicode="L" horiz-adv-x="572" 
d="M459 0h-430l137 700h84l-122 -626h346z" />
    <glyph glyph-name="M" unicode="M" horiz-adv-x="859" 
d="M111 0h-80l137 700h86l129 -623l373 623h92l-137 -700h-80l105 537l-55 -97l-267 -440h-86l-95 440c-10 53 -16 86 -17 97z" />
    <glyph glyph-name="N" unicode="N" horiz-adv-x="707" 
d="M111 0h-80l137 700h86l229 -525c11 -27 18 -45 20 -55l113 580h80l-137 -700h-86l-229 525c-11 27 -18 45 -20 55z" />
    <glyph glyph-name="O" unicode="O" 
d="M746 403c0 -72 -14 -139 -43 -202c-29 -62 -73 -113 -134 -154c-60 -41 -130 -61 -210 -61c-89 0 -162 28 -219 84c-57 57 -86 132 -86 227c0 71 15 137 46 200s76 115 136 156s128 61 205 61c191 0 305 -115 305 -311zM365 60c87 0 157 33 212 100s83 146 83 236
c0 157 -88 244 -227 244c-170 3 -298 -174 -293 -340c0 -75 21 -134 63 -177c43 -42 97 -63 162 -63z" />
    <glyph glyph-name="P" unicode="P" horiz-adv-x="678" 
d="M113 0h-84l137 700h271c141 0 222 -71 222 -198c0 -73 -27 -131 -80 -174s-121 -64 -206 -64h-208zM425 626h-190l-56 -288h201c124 0 195 61 195 162c0 84 -50 126 -150 126z" />
    <glyph glyph-name="Q" unicode="Q" 
d="M746 403c0 -93 -25 -177 -74 -253c-49 -75 -116 -125 -202 -150c13 -29 34 -60 61 -93l-68 -52c-34 41 -60 85 -78 132c-8 -1 -17 -1 -26 -1c-89 0 -162 28 -219 84c-57 57 -86 132 -86 227c0 71 15 137 46 200s76 115 136 156s128 61 205 61c191 0 305 -115 305 -311z
M365 60c87 0 157 33 212 100s83 146 83 236c0 157 -88 244 -227 244c-170 3 -298 -174 -293 -340c0 -75 21 -134 63 -177c43 -42 97 -63 162 -63z" />
    <glyph glyph-name="R" unicode="R" horiz-adv-x="640" 
d="M537 0h-89l-112 304h-163l-60 -304h-84l137 700h260c129 0 209 -66 209 -174c0 -59 -21 -109 -62 -148s-91 -63 -150 -71zM415 626h-180l-48 -248h180c52 0 96 12 131 36c35 25 53 59 53 103c0 77 -47 109 -136 109z" />
    <glyph glyph-name="S" unicode="S" horiz-adv-x="646" 
d="M367 642c-43 0 -80 -10 -112 -31s-48 -50 -48 -88c0 -64 53 -99 169 -127c123 -29 185 -89 185 -180c0 -67 -25 -123 -74 -166s-113 -64 -192 -64c-74 0 -132 20 -175 61s-69 93 -78 156l78 39c12 -111 72 -182 181 -182c48 0 89 13 123 38c34 26 51 61 51 105
c0 72 -51 104 -156 129c-120 28 -193 92 -193 185c0 58 23 105 70 142s107 55 178 55c123 0 204 -59 233 -167l-70 -43c-25 92 -81 138 -170 138z" />
    <glyph glyph-name="T" unicode="T" horiz-adv-x="558" 
d="M301 626h-216l15 74h516l-15 -74h-216l-122 -626h-84z" />
    <glyph glyph-name="U" unicode="U" horiz-adv-x="670" 
d="M588 700h84l-90 -465c-33 -166 -134 -249 -305 -249c-62 0 -114 19 -155 56s-61 87 -61 148c0 19 3 45 8 77l85 433h84l-90 -462c-4 -24 -6 -40 -6 -49c0 -75 53 -129 146 -129c113 0 189 63 209 170z" />
    <glyph glyph-name="V" unicode="V" horiz-adv-x="609" 
d="M293 0h-92l-119 700h84l86 -525l10 -82l41 82l290 525h93z" />
    <glyph glyph-name="W" unicode="W" horiz-adv-x="892" 
d="M876 700h86l-330 -700h-92l-40 592l-270 -592h-92l-58 700h83l36 -525c2 -32 3 -56 3 -73l32 74l237 524h97l34 -524c1 -33 2 -57 2 -74l31 73z" />
    <glyph glyph-name="X" unicode="X" horiz-adv-x="576" 
d="M123 700h91l105 -249l198 249h102l-266 -323l157 -377h-90l-126 309l-239 -309h-104l310 387z" />
    <glyph glyph-name="Y" unicode="Y" horiz-adv-x="552" 
d="M260 0h-84l56 287l-149 413h88l101 -296c5 -16 9 -32 12 -49l30 49l217 296h96l-311 -413z" />
    <glyph glyph-name="Z" unicode="Z" horiz-adv-x="584" 
d="M488 626h-374l15 74h474l-15 -74l-488 -552h404l-15 -74h-505l14 72z" />
    <glyph glyph-name="bracketleft" unicode="[" horiz-adv-x="322" 
d="M181 -150h-180l164 850h181l-13 -70h-103l-139 -710h103z" />
    <glyph glyph-name="backslash" unicode="\" horiz-adv-x="495" 
d="M92 730h78l253 -760h-78z" />
    <glyph glyph-name="bracketright" unicode="]" horiz-adv-x="322" 
d="M132 700h181l-165 -850h-180l13 70h102l139 710h-103z" />
    <glyph glyph-name="asciicircum" unicode="^" horiz-adv-x="455" 
d="M47 445l213 255h84l117 -255h-75l-90 197l-166 -197h-83z" />
    <glyph glyph-name="underscore" unicode="_" horiz-adv-x="437" 
d="M357 -69h-421l13 62h421z" />
    <glyph glyph-name="grave" unicode="`" horiz-adv-x="297" 
d="M136 700h105l37 -138h-69z" />
    <glyph glyph-name="a" unicode="a" horiz-adv-x="608" 
d="M491 496h80l-97 -496h-80l15 74c-37 -59 -92 -88 -167 -88c-63 0 -114 21 -151 64s-56 98 -56 164c0 84 26 154 77 211c52 57 119 85 200 85c77 0 137 -35 162 -99zM262 58c53 0 98 22 135 67s55 99 55 164c0 93 -57 149 -144 149c-53 0 -98 -21 -135 -63
s-55 -95 -55 -158c0 -96 56 -159 144 -159z" />
    <glyph glyph-name="b" unicode="b" horiz-adv-x="606" 
d="M98 0h-80l136 700h80l-53 -274c41 52 108 84 179 84c59 0 107 -20 145 -59c39 -39 58 -93 58 -162c0 -83 -27 -155 -80 -214s-122 -89 -205 -89c-76 0 -133 40 -164 100zM283 58c56 0 103 22 140 66c38 45 57 98 57 161c0 99 -55 153 -143 153c-58 0 -106 -23 -144 -69
c-38 -45 -57 -99 -57 -161c0 -91 63 -150 147 -150z" />
    <glyph glyph-name="c" unicode="c" horiz-adv-x="557" 
d="M446 170l56 -40c-60 -99 -133 -144 -242 -144c-66 0 -120 21 -162 63c-41 42 -62 99 -62 170c0 72 27 143 74 198c48 56 127 93 218 93c100 0 167 -45 202 -136l-64 -37c-28 69 -78 103 -149 103c-57 0 -105 -22 -142 -67s-56 -97 -56 -156c0 -104 59 -161 147 -161
c73 0 133 38 180 114z" />
    <glyph glyph-name="d" unicode="d" horiz-adv-x="606" 
d="M535 700h80l-136 -700h-80l14 71c-32 -51 -97 -85 -166 -85c-63 0 -114 21 -155 63c-41 43 -61 99 -61 168c0 86 25 156 76 211s117 82 198 82s139 -34 174 -102zM261 58c55 0 101 22 138 66c38 45 57 98 57 159c0 96 -65 155 -154 155c-55 0 -100 -21 -135 -62
s-53 -92 -53 -155c0 -101 59 -163 147 -163z" />
    <glyph glyph-name="e" unicode="e" horiz-adv-x="573" 
d="M527 256l-4 -21h-412c-1 -6 -1 -12 -1 -17c0 -96 55 -166 150 -166c80 0 132 39 179 119l57 -39c-55 -97 -135 -146 -241 -146c-65 0 -118 20 -161 61c-42 41 -63 100 -63 177c0 79 27 147 82 202c55 56 123 84 204 84c67 0 120 -19 158 -57c39 -37 58 -85 58 -142
c0 -13 -2 -32 -6 -55zM312 444c-89 0 -161 -54 -190 -145h335c1 7 1 12 1 16c-1 79 -57 129 -146 129z" />
    <glyph glyph-name="f" unicode="f" horiz-adv-x="316" 
d="M127 434h-78l12 62h78l20 105c17 92 78 149 171 149c20 0 36 -2 48 -7l-13 -68c-12 5 -25 7 -38 7c-41 0 -77 -31 -89 -88l-19 -98h112l-12 -62h-112l-84 -434h-80z" />
    <glyph glyph-name="g" unicode="g" horiz-adv-x="587" 
d="M28 -14l70 -21c-7 -14 -10 -28 -10 -41c0 -47 48 -72 121 -72c104 0 154 61 179 173l13 62c-35 -53 -90 -79 -164 -79c-57 0 -107 19 -148 58s-61 92 -61 161c0 78 24 145 72 200c49 55 115 83 198 83c79 0 142 -35 166 -90l15 76h80l-92 -470
c-33 -167 -117 -244 -270 -244c-117 0 -189 59 -189 138c0 23 7 45 20 66zM295 440c-54 0 -98 -21 -133 -64c-34 -42 -51 -92 -51 -149c0 -96 58 -149 143 -149c57 0 102 21 136 63c35 43 52 93 52 152c0 91 -59 147 -147 147z" />
    <glyph glyph-name="h" unicode="h" horiz-adv-x="576" 
d="M505 318l-63 -318h-80l62 315c3 14 4 26 4 35c0 57 -34 90 -99 90c-39 0 -76 -16 -111 -47s-58 -74 -69 -127l-52 -266h-80l137 700h80l-54 -280c49 60 109 90 180 90c92 0 152 -49 152 -138c0 -11 -2 -29 -7 -54z" />
    <glyph glyph-name="i" unicode="i" horiz-adv-x="229" 
d="M96 0h-80l97 496h80zM218 582h-96l19 98h96z" />
    <glyph glyph-name="j" unicode="j" horiz-adv-x="229" 
d="M-120 -204l19 71c12 -5 25 -8 38 -8c39 0 57 23 66 71l110 566h80l-111 -576c-16 -87 -65 -131 -148 -131c-19 0 -37 2 -54 7zM218 582h-96l19 98h96z" />
    <glyph glyph-name="k" unicode="k" horiz-adv-x="494" 
d="M154 700h80l-75 -384l211 180h102l-200 -170l140 -326h-83l-117 274l-74 -63l-41 -211h-80z" />
    <glyph glyph-name="l" unicode="l" horiz-adv-x="229" 
d="M96 0h-80l137 700h80z" />
    <glyph glyph-name="m" unicode="m" horiz-adv-x="815" 
d="M750 351l-68 -351h-80l66 337c2 11 3 22 3 31c0 47 -31 72 -83 72c-63 0 -124 -57 -147 -172l-52 -268h-80l66 340c2 10 3 20 3 29c0 47 -25 71 -76 71c-63 0 -129 -65 -152 -174l-52 -266h-80l96 496h80l-13 -71c40 57 93 85 158 85c59 0 102 -31 117 -84
c43 56 98 84 163 84c85 0 135 -45 135 -120c0 -13 -1 -26 -4 -39z" />
    <glyph glyph-name="n" unicode="n" horiz-adv-x="570" 
d="M500 326l-63 -326h-80l63 323c2 12 3 22 3 30c0 53 -41 87 -98 87c-40 0 -77 -15 -110 -45s-54 -70 -64 -120l-53 -275h-80l96 496h80l-14 -73c45 58 103 87 174 87c92 0 150 -48 150 -140c0 -13 -1 -28 -4 -44z" />
    <glyph glyph-name="o" unicode="o" horiz-adv-x="602" 
d="M557 289c0 -87 -27 -160 -82 -217c-54 -57 -123 -86 -207 -86c-65 0 -120 20 -166 60c-45 40 -68 95 -68 165c0 84 27 155 82 212c55 58 125 87 210 87c65 0 120 -19 164 -57c45 -38 67 -93 67 -164zM275 56c55 0 101 22 140 65s59 96 59 158c0 100 -59 161 -158 161
c-57 0 -105 -23 -143 -69c-37 -45 -56 -97 -56 -156c0 -97 62 -159 158 -159z" />
    <glyph glyph-name="p" unicode="p" horiz-adv-x="607" 
d="M58 -204h-80l136 700h80l-14 -73c37 52 106 87 178 87c61 0 111 -20 149 -60c38 -39 57 -94 57 -164c0 -81 -26 -151 -79 -211c-53 -59 -121 -89 -204 -89c-79 0 -139 39 -168 94zM333 438c-51 0 -97 -22 -137 -67c-39 -44 -59 -98 -59 -163c0 -92 62 -150 151 -150
c55 0 101 22 138 65s55 94 55 153c0 105 -57 162 -148 162z" />
    <glyph glyph-name="q" unicode="q" horiz-adv-x="617" 
d="M500 496h80l-136 -700h-80l51 267c-39 -51 -95 -77 -168 -77c-60 0 -111 20 -152 61s-61 98 -61 170c0 83 26 153 79 209s120 84 203 84c80 0 143 -40 167 -100zM311 438c-55 0 -101 -21 -138 -62s-56 -94 -56 -158c0 -101 56 -160 145 -160c56 0 103 21 141 62
c39 41 58 94 58 158c0 101 -58 160 -150 160z" />
    <glyph glyph-name="r" unicode="r" horiz-adv-x="348" 
d="M368 505l-24 -73c-13 4 -27 6 -41 6c-71 0 -131 -66 -154 -177l-51 -261h-80l96 496h80l-15 -77c38 61 90 91 156 91c13 0 24 -2 33 -5z" />
    <glyph glyph-name="s" unicode="s" horiz-adv-x="490" 
d="M262 446c-51 0 -101 -25 -101 -73c0 -41 30 -64 115 -84c93 -23 139 -64 139 -136c0 -50 -19 -90 -56 -121s-84 -46 -143 -46c-49 0 -91 14 -125 41c-34 28 -55 63 -64 106l68 37c16 -77 58 -116 127 -116c68 0 113 35 113 90c0 51 -27 68 -108 87
c-93 22 -140 68 -140 139c0 41 17 75 50 101s76 39 129 39c91 0 149 -40 174 -120l-62 -32c-21 59 -59 88 -116 88z" />
    <glyph glyph-name="t" unicode="t" horiz-adv-x="340" 
d="M137 434h-83l12 62h83l26 134h80l-26 -134h112l-12 -62h-112l-58 -300c-3 -13 -4 -23 -4 -28c0 -35 18 -52 53 -52c13 0 26 2 39 6l-5 -65c-18 -6 -38 -9 -61 -9c-68 0 -107 37 -107 106c0 11 1 22 3 34z" />
    <glyph glyph-name="u" unicode="u" horiz-adv-x="570" 
d="M53 181l61 315h80l-60 -307c-3 -15 -5 -31 -5 -46c0 -57 37 -87 100 -87c39 0 75 16 108 49s55 77 66 132l50 259h80l-96 -496h-80l15 76c-37 -60 -92 -90 -166 -90c-97 0 -157 58 -157 151c0 13 1 28 4 44z" />
    <glyph glyph-name="v" unicode="v" horiz-adv-x="493" 
d="M429 496h92l-291 -496h-81l-100 496h83l72 -399z" />
    <glyph glyph-name="w" unicode="w" horiz-adv-x="682" 
d="M327 496h93l33 -396l178 396h81l-230 -496h-90l-35 400l-180 -400h-91l-42 496h81l23 -396z" />
    <glyph glyph-name="x" unicode="x" horiz-adv-x="434" 
d="M66 496h84l69 -163l127 163h93l-186 -229l112 -267h-84l-83 203l-158 -203h-98l223 275z" />
    <glyph glyph-name="y" unicode="y" horiz-adv-x="493" 
d="M-40 -201l24 70c12 -7 25 -10 38 -10c31 0 46 14 69 50l55 95l-103 492h86l79 -387l227 387h93l-364 -612c-41 -71 -84 -95 -147 -95c-25 0 -44 3 -57 10z" />
    <glyph glyph-name="z" unicode="z" horiz-adv-x="483" 
d="M452 426l-357 -356h303l-14 -70h-397l13 70l355 356h-273l14 70h370z" />
    <glyph glyph-name="braceleft" unicode="{" horiz-adv-x="367" 
d="M47 240l13 70c50 0 80 26 90 79l31 157c23 113 72 154 176 154h35l-13 -70h-32c-48 0 -77 -25 -86 -75l-33 -168c-6 -33 -15 -57 -28 -72s-33 -28 -61 -40c33 -13 50 -39 50 -76c0 -8 -2 -22 -5 -41l-30 -151c-2 -11 -3 -21 -3 -31c0 -37 19 -56 57 -56h32l-13 -70h-31
c-81 0 -122 38 -122 115c0 15 2 34 6 57l26 137c2 11 3 21 3 28c0 39 -18 53 -62 53z" />
    <glyph glyph-name="bar" unicode="|" horiz-adv-x="256" 
d="M88 -110h-80l165 850h80z" />
    <glyph glyph-name="braceright" unicode="}" horiz-adv-x="367" 
d="M312 310l-13 -70c-49 0 -79 -26 -90 -79l-31 -157c-24 -113 -72 -154 -176 -154h-35l13 70h32c47 0 76 25 86 75l33 168c12 65 33 89 89 112c-33 14 -50 39 -50 76c0 11 2 24 5 41l30 151c2 11 3 21 3 31c0 37 -19 56 -57 56h-32l13 70h31c81 0 122 -38 122 -115
c0 -15 -2 -34 -6 -57l-26 -137c-2 -11 -3 -20 -3 -28c0 -39 18 -53 62 -53z" />
    <glyph glyph-name="asciitilde" unicode="~" horiz-adv-x="446" 
d="M151 332c-24 0 -36 -12 -36 -36c0 -5 1 -11 3 -17l-66 -12c-5 9 -8 19 -8 32c0 57 38 100 105 100c78 2 115 -70 154 -67c22 0 33 11 33 33c0 8 -1 15 -4 20l68 12c4 -8 6 -19 6 -33c0 -61 -41 -99 -106 -99c-80 -2 -114 70 -149 67z" />
    <glyph glyph-name="uni00A0" unicode="&#xa0;" horiz-adv-x="275" 
 />
    <glyph glyph-name="exclamdown" unicode="&#xa1;" horiz-adv-x="264" 
d="M164 308l-45 -289l-44 -223h-84l44 223l67 289h62zM124 496h91l-20 -100h-91z" />
    <glyph glyph-name="cent" unicode="&#xa2;" horiz-adv-x="568" 
d="M452 170l56 -40c-57 -95 -127 -139 -228 -143l-18 -97h-74l20 103c-101 24 -166 106 -166 226c0 73 24 138 71 195c48 57 113 89 194 95l22 111h74l-22 -114c75 -13 126 -57 155 -132l-64 -37c-23 55 -58 87 -105 98l-73 -378c63 7 116 44 158 113zM123 217
c0 -81 38 -135 98 -154l73 374c-50 -8 -91 -34 -123 -77s-48 -90 -48 -143z" />
    <glyph glyph-name="sterling" unicode="&#xa3;" horiz-adv-x="564" 
d="M125 316h-90l12 64h74c-3 39 -5 65 -5 78c0 72 22 133 67 182s107 74 186 74c57 0 103 -14 138 -43s53 -67 53 -114c0 -31 -7 -61 -21 -88l-78 17c10 23 15 45 15 65c0 55 -43 89 -115 89c-99 0 -161 -70 -161 -185c0 -14 2 -39 5 -75h192l-12 -64h-176
c0 -85 -32 -166 -97 -242h350l-14 -74h-434l11 58c37 51 63 94 77 130c15 37 22 79 23 128z" />
    <glyph glyph-name="currency" unicode="&#xa4;" horiz-adv-x="636" 
d="M540 350c0 -51 -13 -95 -40 -130l66 -66l-52 -52l-66 66c-38 -27 -81 -41 -130 -41c-48 0 -91 14 -130 41l-66 -66l-52 52l66 66c-27 35 -40 79 -40 130s13 95 40 130l-66 66l52 52l66 -66c38 27 81 41 130 41s92 -14 130 -41l66 66l52 -52l-66 -66
c27 -35 40 -79 40 -130zM211 238c28 -29 64 -43 107 -43c44 0 80 14 107 43s41 66 41 111c0 46 -14 83 -41 112s-63 44 -107 44c-43 0 -79 -15 -107 -44c-27 -29 -41 -66 -41 -112c0 -45 14 -82 41 -111z" />
    <glyph glyph-name="yen" unicode="&#xa5;" horiz-adv-x="552" 
d="M231 287h-149l12 62h116l-116 351h89l101 -336l234 336h96l-254 -351h116l-12 -62h-149l-16 -79h150l-12 -62h-150l-28 -146h-84l28 146h-148l12 62h148z" />
    <glyph glyph-name="brokenbar" unicode="&#xa6;" horiz-adv-x="256" 
d="M253 740l-69 -358h-80l69 358h80zM8 -110l69 358h80l-69 -358h-80z" />
    <glyph glyph-name="section" unicode="&#xa7;" horiz-adv-x="522" 
d="M64 325c0 53 25 94 74 124c-18 23 -27 51 -27 84c0 54 20 98 59 131c40 33 90 50 150 50c97 0 171 -56 198 -132l-70 -45c-19 70 -64 105 -137 105c-63 0 -117 -39 -117 -98c0 -52 32 -79 124 -104c96 -25 140 -69 140 -142c0 -53 -24 -95 -71 -126c16 -22 24 -49 24 -82
c0 -55 -20 -99 -61 -132c-41 -34 -91 -51 -150 -51c-97 0 -171 55 -196 132l70 45c19 -70 64 -105 133 -105s121 36 121 100c0 51 -32 77 -124 102c-88 23 -140 75 -140 144zM254 246c28 -8 54 -18 79 -30c29 19 44 43 44 74c0 39 -30 62 -109 85c-27 7 -53 18 -78 31
c-30 -19 -45 -42 -45 -71c0 -41 28 -65 109 -89z" />
    <glyph glyph-name="dieresis" unicode="&#xa8;" horiz-adv-x="390" 
d="M373 588h-92l17 92h92zM215 588h-92l17 92h92z" />
    <glyph glyph-name="copyright" unicode="&#xa9;" horiz-adv-x="848" 
d="M166 92c-71 71 -106 156 -106 257s35 187 106 258s157 107 257 107c101 0 187 -36 258 -107s107 -157 107 -258s-36 -186 -107 -257s-157 -106 -258 -106c-100 0 -186 35 -257 106zM209 566c-59 -59 -89 -131 -89 -216s29 -157 88 -217c59 -59 131 -89 216 -89
s156 30 215 89c59 60 89 132 89 217s-30 157 -89 216c-59 60 -131 90 -215 90s-156 -30 -215 -90zM556 285l43 -28c-38 -74 -96 -111 -173 -111c-57 0 -104 19 -142 57c-37 39 -56 88 -56 147c0 58 19 106 58 145s85 59 140 59c81 0 143 -39 171 -106l-46 -30
c-27 55 -68 82 -125 82c-79 0 -137 -60 -137 -151c0 -89 56 -148 137 -148c56 0 99 28 130 84z" />
    <glyph glyph-name="ordfeminine" unicode="&#xaa;" horiz-adv-x="385" 
d="M349 300h-62c-7 9 -11 21 -11 35c0 7 1 15 3 24c-27 -44 -66 -66 -118 -66c-57 0 -105 43 -105 103c0 67 43 105 130 116l124 15l2 10c0 1 2 13 2 17c0 35 -27 55 -74 55c-49 0 -82 -18 -82 -51c0 -3 0 -5 1 -8l-57 -18c-2 7 -3 14 -3 21c0 60 60 104 141 104
c85 0 134 -40 134 -100c0 -15 -1 -28 -4 -41l-25 -127c-3 -18 -5 -33 -5 -44c0 -19 3 -34 9 -45zM183 348c56 0 103 51 115 120l2 11l-109 -13c-44 -5 -73 -27 -73 -66c0 -32 25 -52 65 -52z" />
    <glyph glyph-name="guillemotleft" unicode="&#xab;" horiz-adv-x="503" 
d="M223 275l194 199h96l-197 -203l115 -195h-91zM48 275l194 199h96l-197 -203l115 -195h-91z" />
    <glyph glyph-name="logicalnot" unicode="&#xac;" horiz-adv-x="533" 
d="M478 396l-39 -196h-78l26 134h-332l13 62h410z" />
    <glyph glyph-name="uni00AD" unicode="&#xad;" horiz-adv-x="455" 
d="M404 280h-360l13 62h360z" />
    <glyph glyph-name="registered" unicode="&#xae;" horiz-adv-x="848" 
d="M166 92c-71 71 -106 156 -106 257s35 187 106 258s157 107 257 107c101 0 187 -36 258 -107s107 -157 107 -258s-36 -186 -107 -257s-157 -106 -258 -106c-100 0 -186 35 -257 106zM209 566c-59 -59 -89 -131 -89 -216s29 -157 88 -217c59 -59 131 -89 216 -89
s156 30 215 89c59 60 89 132 89 217s-30 157 -89 216c-59 60 -131 90 -215 90s-156 -30 -215 -90zM578 151h-68l-98 173h-66v-173h-60v398h162c80 0 128 -48 128 -113c0 -56 -41 -97 -97 -109zM439 496h-93v-121h93c52 0 78 20 78 60c0 41 -26 61 -78 61z" />
    <glyph glyph-name="overscore" unicode="&#xaf;" horiz-adv-x="315" 
d="M328 600h-220l13 70h220z" />
    <glyph glyph-name="degree" unicode="&#xb0;" horiz-adv-x="356" 
d="M135 483c-26 26 -39 58 -39 96s13 70 39 96s58 39 97 39s72 -13 97 -39c26 -26 39 -58 39 -96s-13 -70 -39 -96c-25 -26 -58 -39 -97 -39s-71 13 -97 39zM179 633c-28 -29 -28 -79 0 -108c28 -28 79 -28 106 0c28 29 28 79 0 107c-27 29 -78 29 -106 1z" />
    <glyph glyph-name="plusminus" unicode="&#xb1;" horiz-adv-x="506" 
d="M227 334h-173l13 62h173l33 174h64l-33 -174h173l-13 -62h-173l-33 -174h-64zM400 0h-410l13 62h410z" />
    <glyph glyph-name="uni00B2" unicode="&#xb2;" horiz-adv-x="339" 
d="M60 350l8 42l163 131c32 26 48 54 48 83c0 32 -21 51 -58 51c-40 0 -64 -26 -64 -59c0 -7 1 -14 3 -20l-56 -7c-3 8 -4 17 -4 26c0 63 50 110 126 110c67 0 113 -39 113 -95c0 -44 -24 -86 -72 -125l-104 -83h143l-10 -54h-236z" />
    <glyph glyph-name="uni00B3" unicode="&#xb3;" horiz-adv-x="346" 
d="M101 477l51 -12c-3 -9 -5 -16 -5 -23c0 -28 25 -47 61 -47c40 0 70 26 70 67c0 35 -28 53 -83 53l8 45c48 0 84 19 84 55c0 29 -17 44 -51 44c-32 0 -57 -17 -57 -49c0 -5 0 -9 1 -12l-52 -6c-2 7 -3 14 -3 22c0 49 47 93 115 93c65 0 105 -34 105 -78
c0 -42 -21 -71 -63 -87c37 -13 55 -38 55 -75c0 -72 -53 -124 -132 -124c-65 0 -114 40 -114 92c0 16 3 30 10 42z" />
    <glyph glyph-name="acute" unicode="&#xb4;" horiz-adv-x="297" 
d="M192 562h-73l88 138h110z" />
    <glyph glyph-name="mu" unicode="&#xb5;" horiz-adv-x="570" 
d="M56 -204h-78l136 700h80l-60 -307c-4 -19 -6 -34 -6 -46c0 -56 38 -87 101 -87c39 0 75 16 108 49s55 77 66 132l50 259h80l-96 -496h-80l15 76c-37 -60 -92 -90 -166 -90c-46 0 -83 12 -110 36c-5 -39 -8 -66 -11 -79z" />
    <glyph glyph-name="paragraph" unicode="&#xb6;" horiz-adv-x="622" 
d="M514 626h-76l-145 -746h-84l83 428h-28c-52 0 -96 16 -132 47c-35 31 -53 74 -53 128c0 64 24 116 72 156c48 41 111 61 189 61h323l-14 -74h-51l-145 -746h-84z" />
    <glyph glyph-name="middot" unicode="&#xb7;" horiz-adv-x="189" 
d="M147 310h-94l19 98h94z" />
    <glyph glyph-name="cedilla" unicode="&#xb8;" horiz-adv-x="304" 
d="M48 -104l-26 28l50 92h56l-51 -71c13 7 27 11 43 11c39 0 66 -25 66 -68c0 -56 -39 -92 -99 -92c-47 0 -76 24 -83 61l50 12c4 -18 16 -27 35 -27c23 0 40 15 40 40c0 21 -12 32 -35 32c-16 0 -31 -6 -46 -18z" />
    <glyph glyph-name="uni00B9" unicode="&#xb9;" horiz-adv-x="251" 
d="M103 604l10 53c42 0 71 14 88 43h56l-69 -350h-60l54 273c-19 -13 -46 -19 -79 -19z" />
    <glyph glyph-name="ordmasculine" unicode="&#xba;" horiz-adv-x="457" 
d="M434 502c0 -59 -20 -108 -60 -149c-39 -40 -89 -60 -148 -60c-45 0 -83 14 -114 43s-46 65 -46 110c0 59 19 109 56 150c38 41 90 61 157 61c92 0 155 -59 155 -155zM234 349c39 0 71 15 97 45c27 30 40 65 40 105c0 61 -43 102 -103 102c-41 0 -75 -15 -101 -45
c-25 -29 -38 -64 -38 -103c0 -64 42 -104 105 -104z" />
    <glyph glyph-name="guillemotright" unicode="&#xbb;" horiz-adv-x="503" 
d="M285 275l-194 -199h-96l197 203l-115 195h91zM460 275l-194 -199h-96l197 203l-115 195h91z" />
    <glyph glyph-name="onequarter" unicode="&#xbc;" horiz-adv-x="750" 
d="M109 604l10 53c42 0 71 14 88 43h56l-69 -350h-60l54 273c-19 -13 -45 -19 -79 -19zM686 657l-567 -657l-48 43l567 657zM547 66h-165l10 52l211 232h62l-46 -232h39l-10 -52h-39l-13 -66h-62zM557 118l27 138l-127 -138h100z" />
    <glyph glyph-name="onehalf" unicode="&#xbd;" horiz-adv-x="774" 
d="M111 604l10 53c42 0 71 14 88 43h56l-69 -350h-60l54 273c-19 -13 -45 -19 -79 -19zM689 657l-567 -657l-48 43l567 657zM436 0l8 42l163 131c32 25 48 53 48 83c0 31 -21 51 -58 51c-41 0 -64 -26 -64 -59c0 -8 1 -15 3 -20l-56 -7c-3 9 -4 18 -4 26
c0 63 50 110 126 110c67 0 113 -38 113 -95c0 -45 -24 -86 -72 -125l-104 -83h143l-10 -54h-236z" />
    <glyph glyph-name="threequarters" unicode="&#xbe;" horiz-adv-x="818" 
d="M743 657l-567 -657l-48 43l567 657zM617 66h-165l10 52l211 232h62l-46 -232h39l-10 -52h-39l-13 -66h-62zM627 118l27 138l-127 -138h100zM99 477l51 -12c-3 -11 -5 -18 -5 -23c0 -28 25 -47 61 -47c40 0 70 26 70 67c0 35 -28 53 -83 53l8 45c48 0 84 19 84 55
c0 29 -17 44 -51 44c-32 0 -57 -17 -57 -49c0 -5 0 -9 1 -12l-52 -6c-2 7 -3 14 -3 22c0 49 47 93 115 93c65 0 105 -34 105 -78c0 -42 -21 -71 -63 -87c37 -13 55 -38 55 -75c0 -72 -53 -124 -132 -124c-65 0 -114 40 -114 92c0 16 3 30 10 42z" />
    <glyph glyph-name="questiondown" unicode="&#xbf;" horiz-adv-x="535" 
d="M235 301h86l-4 -22c-5 -29 -16 -55 -33 -76s-46 -47 -87 -76c-40 -29 -57 -44 -84 -72c-25 -28 -37 -60 -37 -96c0 -64 49 -107 120 -107c43 0 77 14 104 41s40 61 40 102c0 10 -1 20 -3 29l75 13c6 -15 9 -31 9 -49c0 -59 -21 -108 -64 -147c-42 -39 -97 -59 -166 -59
c-59 0 -107 16 -144 47c-36 31 -54 71 -54 120c0 45 13 84 38 118s67 72 124 113c49 36 72 65 80 121zM269 496h92l-20 -100h-92z" />
    <glyph glyph-name="Agrave" unicode="&#xc0;" horiz-adv-x="655" 
d="M39 0h-91l414 700h88l141 -700h-81l-41 207h-309zM391 607l-32 -58l-159 -272h254l-53 272c-5 24 -8 43 -10 58zM301 904h105l37 -138h-69z" />
    <glyph glyph-name="Aacute" unicode="&#xc1;" horiz-adv-x="655" 
d="M39 0h-91l414 700h88l141 -700h-81l-41 207h-309zM391 607l-32 -58l-159 -272h254l-53 272c-5 24 -8 43 -10 58zM453 766h-73l88 138h110z" />
    <glyph glyph-name="Acircumflex" unicode="&#xc2;" horiz-adv-x="655" 
d="M39 0h-91l414 700h88l141 -700h-81l-41 207h-309zM391 607l-32 -58l-159 -272h254l-53 272c-5 24 -8 43 -10 58zM344 766h-71l127 138h68l73 -138h-65l-53 68z" />
    <glyph glyph-name="Atilde" unicode="&#xc3;" horiz-adv-x="655" 
d="M39 0h-91l414 700h88l141 -700h-81l-41 207h-309zM391 607l-32 -58l-159 -272h254l-53 272c-5 24 -8 43 -10 58zM342 832c-21 0 -34 -16 -34 -33c0 -7 2 -13 5 -19l-63 -12c-5 9 -8 20 -8 33c0 51 36 92 101 92c71 0 102 -67 138 -67c22 0 33 11 33 33c0 7 -1 14 -4 20
l63 12c5 -13 7 -26 7 -38c0 -55 -39 -88 -96 -88c-40 0 -72 17 -85 33c-13 17 -34 34 -57 34z" />
    <glyph glyph-name="Adieresis" unicode="&#xc4;" horiz-adv-x="655" 
d="M39 0h-91l414 700h88l141 -700h-81l-41 207h-309zM391 607l-32 -58l-159 -272h254l-53 272c-5 24 -8 43 -10 58zM548 792h-92l17 92h92zM390 792h-92l17 92h92z" />
    <glyph glyph-name="Aring" unicode="&#xc5;" horiz-adv-x="655" 
d="M39 0h-91l414 700h88l141 -700h-81l-41 207h-309zM391 607l-32 -58l-159 -272h254l-53 272c-5 24 -8 43 -10 58zM385 872c-17 -17 -17 -50 -1 -67c17 -17 50 -17 67 0s17 50 0 67c-17 19 -50 19 -66 0zM350 771c-37 37 -37 99 0 135c37 37 99 37 136 0
c37 -36 37 -98 0 -135c-18 -18 -41 -27 -68 -27s-50 9 -68 27z" />
    <glyph glyph-name="AE" unicode="&#xc6;" horiz-adv-x="928" 
d="M799 0h-435l40 207h-233l-131 -207h-92l444 700h541l-15 -74h-348l-44 -227h320l-14 -74h-320l-49 -251h351zM486 626h-50l-221 -349h203z" />
    <glyph glyph-name="Ccedilla" unicode="&#xc7;" horiz-adv-x="747" 
d="M286 -104l-26 28l36 66c-73 12 -131 45 -174 100s-64 124 -64 207c0 107 41 211 110 288c69 79 177 129 297 129c131 0 222 -68 262 -180l-70 -44c-35 100 -104 150 -205 150c-177 3 -313 -172 -308 -340c0 -72 19 -130 58 -174s91 -66 156 -66c100 0 181 52 244 156
l63 -46c-78 -123 -183 -184 -316 -184h-5l-29 -41c13 7 27 11 43 11c40 0 66 -25 66 -68c0 -56 -39 -92 -99 -92c-47 0 -76 24 -83 61l50 12c4 -18 16 -27 35 -27c24 0 40 15 40 40c0 21 -12 32 -35 32c-15 0 -31 -6 -46 -18z" />
    <glyph glyph-name="Egrave" unicode="&#xc8;" horiz-adv-x="593" 
d="M464 0h-435l137 700h432l-15 -74h-348l-44 -227h320l-14 -74h-320l-49 -251h351zM287 904h105l37 -138h-69z" />
    <glyph glyph-name="Eacute" unicode="&#xc9;" horiz-adv-x="593" 
d="M464 0h-435l137 700h432l-15 -74h-348l-44 -227h320l-14 -74h-320l-49 -251h351zM398 766h-73l88 138h110z" />
    <glyph glyph-name="Ecircumflex" unicode="&#xca;" horiz-adv-x="593" 
d="M464 0h-435l137 700h432l-15 -74h-348l-44 -227h320l-14 -74h-320l-49 -251h351zM329 766h-71l127 138h68l73 -138h-65l-53 68z" />
    <glyph glyph-name="Edieresis" unicode="&#xcb;" horiz-adv-x="593" 
d="M464 0h-435l137 700h432l-15 -74h-348l-44 -227h320l-14 -74h-320l-49 -251h351zM525 792h-92l17 92h92zM367 792h-92l17 92h92z" />
    <glyph glyph-name="Igrave" unicode="&#xcc;" horiz-adv-x="260" 
d="M113 0h-84l137 700h84zM112 904h105l37 -138h-69z" />
    <glyph glyph-name="Iacute" unicode="&#xcd;" horiz-adv-x="260" 
d="M113 0h-84l137 700h84zM250 766h-73l88 138h110z" />
    <glyph glyph-name="Icircumflex" unicode="&#xce;" horiz-adv-x="260" 
d="M113 0h-84l137 700h84zM155 766h-71l127 138h68l73 -138h-65l-53 68z" />
    <glyph glyph-name="Idieresis" unicode="&#xcf;" horiz-adv-x="260" 
d="M113 0h-84l137 700h84zM349 792h-92l17 92h92zM191 792h-92l17 92h92z" />
    <glyph glyph-name="Eth" unicode="&#xd0;" horiz-adv-x="715" 
d="M112 315h-71l13 70h72l62 315h181c187 0 304 -101 304 -289c0 -120 -39 -219 -117 -296s-180 -115 -307 -115h-198zM150 74h103c105 1 187 33 246 94c59 62 88 141 88 238c0 147 -77 220 -230 220h-100l-47 -241h154l-13 -70h-155z" />
    <glyph glyph-name="Ntilde" unicode="&#xd1;" horiz-adv-x="707" 
d="M111 0h-80l137 700h86l229 -525c11 -27 18 -45 20 -55l113 580h80l-137 -700h-86l-229 525c-11 27 -18 45 -20 55zM385 832c-21 0 -34 -16 -34 -33c0 -7 2 -13 5 -19l-63 -12c-5 9 -8 20 -8 33c0 51 36 92 101 92c71 0 102 -67 138 -67c22 0 33 11 33 33c0 7 -1 14 -4 20
l63 12c5 -13 7 -26 7 -38c0 -55 -39 -88 -96 -88c-40 0 -72 17 -85 33c-13 17 -34 34 -57 34z" />
    <glyph glyph-name="Ograve" unicode="&#xd2;" 
d="M746 403c0 -72 -14 -139 -43 -202c-29 -62 -73 -113 -134 -154c-60 -41 -130 -61 -210 -61c-89 0 -162 28 -219 84c-57 57 -86 132 -86 227c0 71 15 137 46 200s76 115 136 156s128 61 205 61c191 0 305 -115 305 -311zM365 60c87 0 157 33 212 100s83 146 83 236
c0 157 -88 244 -227 244c-170 3 -298 -174 -293 -340c0 -75 21 -134 63 -177c43 -42 97 -63 162 -63zM351 904h105l37 -138h-69z" />
    <glyph glyph-name="Oacute" unicode="&#xd3;" 
d="M746 403c0 -72 -14 -139 -43 -202c-29 -62 -73 -113 -134 -154c-60 -41 -130 -61 -210 -61c-89 0 -162 28 -219 84c-57 57 -86 132 -86 227c0 71 15 137 46 200s76 115 136 156s128 61 205 61c191 0 305 -115 305 -311zM365 60c87 0 157 33 212 100s83 146 83 236
c0 157 -88 244 -227 244c-170 3 -298 -174 -293 -340c0 -75 21 -134 63 -177c43 -42 97 -63 162 -63zM488 766h-73l88 138h110z" />
    <glyph glyph-name="Ocircumflex" unicode="&#xd4;" 
d="M746 403c0 -72 -14 -139 -43 -202c-29 -62 -73 -113 -134 -154c-60 -41 -130 -61 -210 -61c-89 0 -162 28 -219 84c-57 57 -86 132 -86 227c0 71 15 137 46 200s76 115 136 156s128 61 205 61c191 0 305 -115 305 -311zM365 60c87 0 157 33 212 100s83 146 83 236
c0 157 -88 244 -227 244c-170 3 -298 -174 -293 -340c0 -75 21 -134 63 -177c43 -42 97 -63 162 -63zM389 766h-71l127 138h68l73 -138h-65l-53 68z" />
    <glyph glyph-name="Otilde" unicode="&#xd5;" 
d="M746 403c0 -72 -14 -139 -43 -202c-29 -62 -73 -113 -134 -154c-60 -41 -130 -61 -210 -61c-89 0 -162 28 -219 84c-57 57 -86 132 -86 227c0 71 15 137 46 200s76 115 136 156s128 61 205 61c191 0 305 -115 305 -311zM365 60c87 0 157 33 212 100s83 146 83 236
c0 157 -88 244 -227 244c-170 3 -298 -174 -293 -340c0 -75 21 -134 63 -177c43 -42 97 -63 162 -63zM397 832c-20 0 -34 -16 -34 -33c0 -8 2 -14 5 -19l-63 -12c-5 9 -8 20 -8 33c0 51 37 92 101 92c82 0 91 -67 138 -67c22 0 33 11 33 33c0 7 -1 14 -4 20l63 12
c5 -13 7 -26 7 -38c0 -55 -39 -88 -96 -88c-40 0 -70 17 -85 33c-13 17 -33 34 -57 34z" />
    <glyph glyph-name="Odieresis" unicode="&#xd6;" 
d="M746 403c0 -72 -14 -139 -43 -202c-29 -62 -73 -113 -134 -154c-60 -41 -130 -61 -210 -61c-89 0 -162 28 -219 84c-57 57 -86 132 -86 227c0 71 15 137 46 200s76 115 136 156s128 61 205 61c191 0 305 -115 305 -311zM365 60c87 0 157 33 212 100s83 146 83 236
c0 157 -88 244 -227 244c-170 3 -298 -174 -293 -340c0 -75 21 -134 63 -177c43 -42 97 -63 162 -63zM584 792h-92l17 92h92zM426 792h-92l17 92h92z" />
    <glyph glyph-name="multiply" unicode="&#xd7;" horiz-adv-x="506" 
d="M262 320l-149 -125l-38 48l149 125l-99 122l51 42l98 -122l147 123l38 -48l-146 -123l97 -120l-51 -42z" />
    <glyph glyph-name="Oslash" unicode="&#xd8;" 
d="M746 403c0 -72 -14 -139 -43 -202c-29 -62 -73 -113 -134 -154c-60 -41 -130 -61 -210 -61c-58 0 -108 11 -150 34l-43 -60l-57 40l42 60c-65 57 -97 136 -97 237c0 71 15 137 46 200s76 115 136 156s128 61 205 61c58 0 109 -11 152 -32l42 58l57 -40l-40 -56
c63 -57 94 -137 94 -241zM365 60c87 0 157 33 212 100s83 146 83 236c0 75 -20 134 -59 177l-346 -488c33 -17 69 -25 110 -25zM140 300c0 -72 20 -129 59 -172l347 487c-32 17 -70 25 -113 25c-170 3 -298 -174 -293 -340z" />
    <glyph glyph-name="Ugrave" unicode="&#xd9;" horiz-adv-x="670" 
d="M588 700h84l-90 -465c-33 -166 -134 -249 -305 -249c-62 0 -114 19 -155 56s-61 87 -61 148c0 19 3 45 8 77l85 433h84l-90 -462c-4 -24 -6 -40 -6 -49c0 -75 53 -129 146 -129c113 0 189 63 209 170zM328 904h105l37 -138h-69z" />
    <glyph glyph-name="Uacute" unicode="&#xda;" horiz-adv-x="670" 
d="M588 700h84l-90 -465c-33 -166 -134 -249 -305 -249c-62 0 -114 19 -155 56s-61 87 -61 148c0 19 3 45 8 77l85 433h84l-90 -462c-4 -24 -6 -40 -6 -49c0 -75 53 -129 146 -129c113 0 189 63 209 170zM444 766h-73l88 138h110z" />
    <glyph glyph-name="Ucircumflex" unicode="&#xdb;" horiz-adv-x="670" 
d="M588 700h84l-90 -465c-33 -166 -134 -249 -305 -249c-62 0 -114 19 -155 56s-61 87 -61 148c0 19 3 45 8 77l85 433h84l-90 -462c-4 -24 -6 -40 -6 -49c0 -75 53 -129 146 -129c113 0 189 63 209 170zM365 766h-71l127 138h68l73 -138h-65l-53 68z" />
    <glyph glyph-name="Udieresis" unicode="&#xdc;" horiz-adv-x="670" 
d="M588 700h84l-90 -465c-33 -166 -134 -249 -305 -249c-62 0 -114 19 -155 56s-61 87 -61 148c0 19 3 45 8 77l85 433h84l-90 -462c-4 -24 -6 -40 -6 -49c0 -75 53 -129 146 -129c113 0 189 63 209 170zM555 792h-92l17 92h92zM397 792h-92l17 92h92z" />
    <glyph glyph-name="Yacute" unicode="&#xdd;" horiz-adv-x="552" 
d="M260 0h-84l56 287l-149 413h88l101 -296c5 -16 9 -32 12 -49l30 49l217 296h96l-311 -413zM390 766h-73l88 138h110z" />
    <glyph glyph-name="Thorn" unicode="&#xde;" horiz-adv-x="678" 
d="M113 0h-84l137 700h84l-26 -132h187c136 0 222 -71 222 -191c0 -77 -26 -137 -79 -180s-122 -65 -207 -65h-208zM399 494h-190l-56 -288h201c124 0 195 60 195 168c0 80 -50 120 -150 120z" />
    <glyph glyph-name="germandbls" unicode="&#xdf;" horiz-adv-x="594" 
d="M287 349h-24l13 66h16c111 0 182 52 182 137c0 60 -42 94 -107 94s-124 -44 -140 -132l-100 -514h-80l85 434h-76l12 62h76l3 14c29 136 106 204 229 204c105 0 178 -57 178 -158c0 -39 -13 -74 -40 -106c-26 -32 -59 -54 -98 -65c69 -31 116 -88 116 -169
c0 -69 -21 -125 -64 -167s-99 -63 -168 -63c-59 0 -106 17 -143 52l45 60c29 -29 65 -44 106 -44c84 0 143 60 143 152c0 87 -65 143 -164 143z" />
    <glyph glyph-name="agrave" unicode="&#xe0;" horiz-adv-x="608" 
d="M491 496h80l-97 -496h-80l15 74c-37 -59 -92 -88 -167 -88c-63 0 -114 21 -151 64s-56 98 -56 164c0 84 26 154 77 211c52 57 119 85 200 85c77 0 137 -35 162 -99zM262 58c53 0 98 22 135 67s55 99 55 164c0 93 -57 149 -144 149c-53 0 -98 -21 -135 -63
s-55 -95 -55 -158c0 -96 56 -159 144 -159zM236 700h105l37 -138h-69z" />
    <glyph glyph-name="aacute" unicode="&#xe1;" horiz-adv-x="608" 
d="M491 496h80l-97 -496h-80l15 74c-37 -59 -92 -88 -167 -88c-63 0 -114 21 -151 64s-56 98 -56 164c0 84 26 154 77 211c52 57 119 85 200 85c77 0 137 -35 162 -99zM262 58c53 0 98 22 135 67s55 99 55 164c0 93 -57 149 -144 149c-53 0 -98 -21 -135 -63
s-55 -95 -55 -158c0 -96 56 -159 144 -159zM363 562h-73l88 138h110z" />
    <glyph glyph-name="acircumflex" unicode="&#xe2;" horiz-adv-x="608" 
d="M491 496h80l-97 -496h-80l15 74c-37 -59 -92 -88 -167 -88c-63 0 -114 21 -151 64s-56 98 -56 164c0 84 26 154 77 211c52 57 119 85 200 85c77 0 137 -35 162 -99zM262 58c53 0 98 22 135 67s55 99 55 164c0 93 -57 149 -144 149c-53 0 -98 -21 -135 -63
s-55 -95 -55 -158c0 -96 56 -159 144 -159zM266 562h-71l127 138h68l73 -138h-65l-53 68z" />
    <glyph glyph-name="atilde" unicode="&#xe3;" horiz-adv-x="608" 
d="M491 496h80l-97 -496h-80l15 74c-37 -59 -92 -88 -167 -88c-63 0 -114 21 -151 64s-56 98 -56 164c0 84 26 154 77 211c52 57 119 85 200 85c77 0 137 -35 162 -99zM262 58c53 0 98 22 135 67s55 99 55 164c0 93 -57 149 -144 149c-53 0 -98 -21 -135 -63
s-55 -95 -55 -158c0 -96 56 -159 144 -159zM280 628c-20 0 -34 -16 -34 -33c0 -7 2 -14 5 -19l-63 -12c-5 11 -8 22 -8 33c0 51 36 92 101 92c83 0 90 -67 138 -67c22 0 33 11 33 33c0 7 -1 14 -4 20l63 12c5 -13 7 -26 7 -38c0 -53 -39 -88 -96 -88c-40 0 -70 17 -85 33
c-13 16 -33 34 -57 34z" />
    <glyph glyph-name="adieresis" unicode="&#xe4;" horiz-adv-x="608" 
d="M491 496h80l-97 -496h-80l15 74c-37 -59 -92 -88 -167 -88c-63 0 -114 21 -151 64s-56 98 -56 164c0 84 26 154 77 211c52 57 119 85 200 85c77 0 137 -35 162 -99zM262 58c53 0 98 22 135 67s55 99 55 164c0 93 -57 149 -144 149c-53 0 -98 -21 -135 -63
s-55 -95 -55 -158c0 -96 56 -159 144 -159zM466 588h-92l17 92h92zM308 588h-92l17 92h92z" />
    <glyph glyph-name="aring" unicode="&#xe5;" horiz-adv-x="608" 
d="M491 496h80l-97 -496h-80l15 74c-37 -59 -92 -88 -167 -88c-63 0 -114 21 -151 64s-56 98 -56 164c0 84 26 154 77 211c52 57 119 85 200 85c77 0 137 -35 162 -99zM262 58c53 0 98 22 135 67s55 99 55 164c0 93 -57 149 -144 149c-53 0 -98 -21 -135 -63
s-55 -95 -55 -158c0 -96 56 -159 144 -159zM300 668c-17 -17 -17 -50 -1 -67c17 -17 51 -17 67 0c17 17 17 50 0 67c-16 19 -50 19 -66 0zM265 567c-37 37 -37 99 0 135c37 37 99 37 136 0c37 -36 37 -98 0 -135c-18 -18 -41 -27 -68 -27s-50 9 -68 27z" />
    <glyph glyph-name="ae" unicode="&#xe6;" horiz-adv-x="985" 
d="M491 496h80l-14 -71c15 24 40 44 74 60c35 17 71 25 110 25c61 0 110 -19 147 -57c38 -38 57 -85 57 -142c0 -13 -2 -32 -6 -55l-4 -21h-412c-1 -6 -1 -12 -1 -17c0 -96 57 -166 150 -166c80 0 131 39 179 119l57 -39c-55 -97 -135 -146 -241 -146
c-81 0 -140 33 -176 100l-17 -86h-80l16 77c-37 -61 -93 -91 -168 -91c-63 0 -114 21 -151 64s-56 98 -56 164c0 84 26 154 77 211c52 57 119 85 200 85c77 0 137 -35 162 -99zM262 58c53 0 98 22 135 66c37 45 55 100 55 165c0 93 -57 149 -144 149c-53 0 -98 -21 -135 -63
s-55 -95 -55 -158c0 -96 56 -159 144 -159zM724 444c-89 0 -163 -54 -191 -145h336c1 7 1 12 1 16c-1 79 -57 129 -146 129z" />
    <glyph glyph-name="ccedilla" unicode="&#xe7;" horiz-adv-x="557" 
d="M203 -104l-26 28l36 66c-107 19 -177 105 -177 229c0 72 27 143 74 198c48 56 127 93 218 93c100 0 167 -45 202 -136l-64 -37c-28 69 -78 103 -149 103c-57 0 -105 -23 -143 -68s-57 -96 -57 -155c0 -103 61 -161 149 -161c73 0 133 38 180 114l56 -40
c-59 -99 -132 -143 -241 -144l-29 -41c13 7 27 11 43 11c40 0 66 -25 66 -68c0 -56 -39 -92 -99 -92c-47 0 -76 24 -83 61l50 12c4 -18 16 -27 35 -27c24 0 40 15 40 40c0 21 -12 32 -35 32c-16 0 -31 -6 -46 -18z" />
    <glyph glyph-name="egrave" unicode="&#xe8;" horiz-adv-x="573" 
d="M527 256l-4 -21h-412c-1 -6 -1 -12 -1 -17c0 -96 55 -166 150 -166c80 0 132 39 179 119l57 -39c-55 -97 -135 -146 -241 -146c-65 0 -118 20 -161 61c-42 41 -63 100 -63 177c0 79 27 147 82 202c55 56 123 84 204 84c67 0 120 -19 158 -57c39 -37 58 -85 58 -142
c0 -13 -2 -32 -6 -55zM312 444c-89 0 -161 -54 -190 -145h335c1 7 1 12 1 16c-1 79 -57 129 -146 129zM226 700h105l37 -138h-69z" />
    <glyph glyph-name="eacute" unicode="&#xe9;" horiz-adv-x="573" 
d="M527 256l-4 -21h-412c-1 -6 -1 -12 -1 -17c0 -96 55 -166 150 -166c80 0 132 39 179 119l57 -39c-55 -97 -135 -146 -241 -146c-65 0 -118 20 -161 61c-42 41 -63 100 -63 177c0 79 27 147 82 202c55 56 123 84 204 84c67 0 120 -19 158 -57c39 -37 58 -85 58 -142
c0 -13 -2 -32 -6 -55zM312 444c-89 0 -161 -54 -190 -145h335c1 7 1 12 1 16c-1 79 -57 129 -146 129zM351 562h-73l88 138h110z" />
    <glyph glyph-name="ecircumflex" unicode="&#xea;" horiz-adv-x="573" 
d="M527 256l-4 -21h-412c-1 -6 -1 -12 -1 -17c0 -96 55 -166 150 -166c80 0 132 39 179 119l57 -39c-55 -97 -135 -146 -241 -146c-65 0 -118 20 -161 61c-42 41 -63 100 -63 177c0 79 27 147 82 202c55 56 123 84 204 84c67 0 120 -19 158 -57c39 -37 58 -85 58 -142
c0 -13 -2 -32 -6 -55zM312 444c-89 0 -161 -54 -190 -145h335c1 7 1 12 1 16c-1 79 -57 129 -146 129zM264 562h-71l127 138h68l73 -138h-65l-53 68z" />
    <glyph glyph-name="edieresis" unicode="&#xeb;" horiz-adv-x="573" 
d="M527 256l-4 -21h-412c-1 -6 -1 -12 -1 -17c0 -96 55 -166 150 -166c80 0 132 39 179 119l57 -39c-55 -97 -135 -146 -241 -146c-65 0 -118 20 -161 61c-42 41 -63 100 -63 177c0 79 27 147 82 202c55 56 123 84 204 84c67 0 120 -19 158 -57c39 -37 58 -85 58 -142
c0 -13 -2 -32 -6 -55zM312 444c-89 0 -161 -54 -190 -145h335c1 7 1 12 1 16c-1 79 -57 129 -146 129zM453 588h-92l17 92h92zM295 588h-92l17 92h92z" />
    <glyph glyph-name="igrave" unicode="&#xec;" horiz-adv-x="229" 
d="M96 0h-80l97 496h80zM58 700h105l37 -138h-69z" />
    <glyph glyph-name="iacute" unicode="&#xed;" horiz-adv-x="229" 
d="M200 562h-73l88 138h110zM96 0h-80l97 496h80z" />
    <glyph glyph-name="icircumflex" unicode="&#xee;" horiz-adv-x="229" 
d="M98 562h-71l127 138h68l73 -138h-65l-53 68zM96 0h-80l97 496h80z" />
    <glyph glyph-name="idieresis" unicode="&#xef;" horiz-adv-x="229" 
d="M295 588h-92l17 92h92zM137 588h-92l17 92h92zM96 0h-80l97 496h80z" />
    <glyph glyph-name="eth" unicode="&#xf0;" horiz-adv-x="579" 
d="M397 556l-121 -43l-20 58l97 35c-31 29 -70 55 -117 78l41 58c65 -33 117 -69 156 -108l107 39l21 -58l-86 -31c43 -61 65 -139 65 -232c0 -109 -25 -198 -76 -265c-50 -67 -123 -101 -219 -101c-58 0 -108 19 -150 58s-63 89 -63 152c0 73 25 135 76 187
c51 53 117 79 197 79c72 0 136 -36 165 -92c-11 74 -36 136 -73 186zM253 56c53 0 97 19 134 57s56 86 56 144c0 84 -62 135 -146 135c-52 0 -96 -19 -131 -57s-53 -83 -53 -135c0 -89 61 -144 140 -144z" />
    <glyph glyph-name="ntilde" unicode="&#xf1;" horiz-adv-x="570" 
d="M500 326l-63 -326h-80l63 323c2 12 3 22 3 30c0 53 -41 87 -98 87c-40 0 -77 -15 -110 -45s-54 -70 -64 -120l-53 -275h-80l96 496h80l-14 -73c45 58 103 87 174 87c92 0 150 -48 150 -140c0 -13 -1 -28 -4 -44zM279 628c-20 0 -34 -16 -34 -33c0 -7 2 -14 5 -19l-63 -12
c-5 10 -8 21 -8 33c0 51 36 92 101 92c83 0 90 -67 138 -67c22 0 33 11 33 33c0 7 -1 14 -4 20l63 12c5 -13 7 -26 7 -38c0 -53 -39 -88 -96 -88c-40 0 -70 17 -85 33c-13 16 -33 34 -57 34z" />
    <glyph glyph-name="ograve" unicode="&#xf2;" horiz-adv-x="602" 
d="M557 289c0 -87 -27 -160 -82 -217c-54 -57 -123 -86 -207 -86c-65 0 -120 20 -166 60c-45 40 -68 95 -68 165c0 84 27 155 82 212c55 58 125 87 210 87c65 0 120 -19 164 -57c45 -38 67 -93 67 -164zM275 56c55 0 101 22 140 65s59 96 59 158c0 100 -59 161 -158 161
c-57 0 -105 -23 -143 -69c-37 -45 -56 -97 -56 -156c0 -97 62 -159 158 -159zM234 700h105l37 -138h-69z" />
    <glyph glyph-name="oacute" unicode="&#xf3;" horiz-adv-x="602" 
d="M557 289c0 -87 -27 -160 -82 -217c-54 -57 -123 -86 -207 -86c-65 0 -120 20 -166 60c-45 40 -68 95 -68 165c0 84 27 155 82 212c55 58 125 87 210 87c65 0 120 -19 164 -57c45 -38 67 -93 67 -164zM275 56c55 0 101 22 140 65s59 96 59 158c0 100 -59 161 -158 161
c-57 0 -105 -23 -143 -69c-37 -45 -56 -97 -56 -156c0 -97 62 -159 158 -159zM373 562h-73l88 138h110z" />
    <glyph glyph-name="ocircumflex" unicode="&#xf4;" horiz-adv-x="602" 
d="M557 289c0 -87 -27 -160 -82 -217c-54 -57 -123 -86 -207 -86c-65 0 -120 20 -166 60c-45 40 -68 95 -68 165c0 84 27 155 82 212c55 58 125 87 210 87c65 0 120 -19 164 -57c45 -38 67 -93 67 -164zM275 56c55 0 101 22 140 65s59 96 59 158c0 100 -59 161 -158 161
c-57 0 -105 -23 -143 -69c-37 -45 -56 -97 -56 -156c0 -97 62 -159 158 -159zM277 562h-71l127 138h68l73 -138h-65l-53 68z" />
    <glyph glyph-name="otilde" unicode="&#xf5;" horiz-adv-x="602" 
d="M557 289c0 -87 -27 -160 -82 -217c-54 -57 -123 -86 -207 -86c-65 0 -120 20 -166 60c-45 40 -68 95 -68 165c0 84 27 155 82 212c55 58 125 87 210 87c65 0 120 -19 164 -57c45 -38 67 -93 67 -164zM275 56c55 0 101 22 140 65s59 96 59 158c0 100 -59 161 -158 161
c-57 0 -105 -23 -143 -69c-37 -45 -56 -97 -56 -156c0 -97 62 -159 158 -159zM278 628c-20 0 -34 -16 -34 -33c0 -7 2 -14 5 -19l-63 -12c-5 10 -8 21 -8 33c0 51 36 92 101 92c83 0 90 -67 138 -67c22 0 33 11 33 33c0 7 -1 14 -4 20l63 12c5 -13 7 -26 7 -38
c0 -53 -39 -88 -96 -88c-40 0 -70 17 -85 33c-13 16 -33 34 -57 34z" />
    <glyph glyph-name="odieresis" unicode="&#xf6;" horiz-adv-x="602" 
d="M557 289c0 -87 -27 -160 -82 -217c-54 -57 -123 -86 -207 -86c-65 0 -120 20 -166 60c-45 40 -68 95 -68 165c0 84 27 155 82 212c55 58 125 87 210 87c65 0 120 -19 164 -57c45 -38 67 -93 67 -164zM275 56c55 0 101 22 140 65s59 96 59 158c0 100 -59 161 -158 161
c-57 0 -105 -23 -143 -69c-37 -45 -56 -97 -56 -156c0 -97 62 -159 158 -159zM469 588h-92l17 92h92zM311 588h-92l17 92h92z" />
    <glyph glyph-name="divide" unicode="&#xf7;" horiz-adv-x="506" 
d="M238 0h-94l19 98h94zM312 378h-94l19 98h94zM436 207h-410l13 62h410z" />
    <glyph glyph-name="oslash" unicode="&#xf8;" horiz-adv-x="602" 
d="M556 289c0 -87 -27 -160 -82 -217c-54 -57 -123 -86 -207 -86c-40 0 -77 8 -111 24l-39 -51l-55 41l37 48c-44 40 -66 94 -66 163c0 84 27 155 82 212c55 58 125 87 210 87c40 0 76 -7 109 -22l38 49l55 -41l-35 -46c43 -40 64 -94 64 -161zM274 56c55 0 101 22 140 65
s59 96 59 158c0 43 -11 78 -32 105l-240 -314c24 -9 48 -14 73 -14zM116 215c0 -40 10 -75 31 -104l240 315c-24 9 -48 14 -72 14c-57 0 -105 -23 -143 -69c-37 -45 -56 -97 -56 -156z" />
    <glyph glyph-name="ugrave" unicode="&#xf9;" horiz-adv-x="570" 
d="M53 181l61 315h80l-60 -307c-3 -15 -5 -31 -5 -46c0 -57 37 -87 100 -87c39 0 75 16 108 49s55 77 66 132l50 259h80l-96 -496h-80l15 76c-37 -60 -92 -90 -166 -90c-97 0 -157 58 -157 151c0 13 1 28 4 44zM240 700h105l37 -138h-69z" />
    <glyph glyph-name="uacute" unicode="&#xfa;" horiz-adv-x="570" 
d="M53 181l61 315h80l-60 -307c-3 -15 -5 -31 -5 -46c0 -57 37 -87 100 -87c39 0 75 16 108 49s55 77 66 132l50 259h80l-96 -496h-80l15 76c-37 -60 -92 -90 -166 -90c-97 0 -157 58 -157 151c0 13 1 28 4 44zM357 562h-73l88 138h110z" />
    <glyph glyph-name="ucircumflex" unicode="&#xfb;" horiz-adv-x="570" 
d="M53 181l61 315h80l-60 -307c-3 -15 -5 -31 -5 -46c0 -57 37 -87 100 -87c39 0 75 16 108 49s55 77 66 132l50 259h80l-96 -496h-80l15 76c-37 -60 -92 -90 -166 -90c-97 0 -157 58 -157 151c0 13 1 28 4 44zM273 562h-71l127 138h68l73 -138h-65l-53 68z" />
    <glyph glyph-name="udieresis" unicode="&#xfc;" horiz-adv-x="570" 
d="M53 181l61 315h80l-60 -307c-3 -15 -5 -31 -5 -46c0 -57 37 -87 100 -87c39 0 75 16 108 49s55 77 66 132l50 259h80l-96 -496h-80l15 76c-37 -60 -92 -90 -166 -90c-97 0 -157 58 -157 151c0 13 1 28 4 44zM464 588h-92l17 92h92zM306 588h-92l17 92h92z" />
    <glyph glyph-name="yacute" unicode="&#xfd;" horiz-adv-x="493" 
d="M-40 -201l24 70c12 -7 25 -10 38 -10c31 0 46 14 69 50l55 95l-103 492h86l79 -387l227 387h93l-364 -612c-41 -71 -84 -95 -147 -95c-25 0 -44 3 -57 10zM312 562h-73l88 138h110z" />
    <glyph glyph-name="thorn" unicode="&#xfe;" horiz-adv-x="607" 
d="M58 -204h-80l176 904h80l-54 -279c37 53 106 89 178 89c61 0 110 -20 148 -59c39 -39 58 -93 58 -161c5 -154 -111 -305 -285 -304c-83 0 -144 44 -165 99zM333 438c-53 0 -99 -22 -138 -67c-39 -44 -59 -99 -59 -165c0 -88 63 -148 147 -148c59 0 106 21 143 64
s55 95 55 154c0 107 -56 162 -148 162z" />
    <glyph glyph-name="ydieresis" unicode="&#xff;" horiz-adv-x="493" 
d="M-40 -201l24 70c12 -7 25 -10 38 -10c31 0 46 14 69 50l55 95l-103 492h86l79 -387l227 387h93l-364 -612c-41 -71 -84 -95 -147 -95c-25 0 -44 3 -57 10zM425 588h-92l17 92h92zM267 588h-92l17 92h92z" />
    <glyph glyph-name="OE" unicode="&#x152;" horiz-adv-x="1156" 
d="M1024 0h-435l20 102c-68 -77 -153 -116 -254 -116c-86 0 -158 28 -215 84s-86 129 -86 220c0 73 15 141 46 205c31 65 77 117 137 158s128 61 204 61c121 0 213 -58 258 -153l27 139h432l-15 -74h-348l-44 -227h320l-14 -74h-320l-49 -251h351zM365 60
c87 0 158 33 213 98s82 145 82 238c0 157 -88 244 -227 244c-85 0 -155 -34 -210 -103s-83 -150 -83 -244c0 -71 21 -128 64 -170s96 -63 161 -63z" />
    <glyph glyph-name="oe" unicode="&#x153;" horiz-adv-x="1016" 
d="M969 256l-4 -21h-412c-1 -6 -1 -12 -1 -17c0 -96 57 -166 150 -166c81 0 132 39 179 119l57 -39c-55 -97 -135 -146 -241 -146c-84 0 -161 43 -198 123c-56 -82 -133 -123 -231 -123c-65 0 -120 20 -166 60c-45 40 -68 95 -68 165c0 84 27 155 82 212
c55 58 125 87 210 87c95 0 168 -43 204 -119c61 79 137 119 229 119c66 0 118 -19 157 -57c39 -37 59 -85 59 -142c0 -13 -2 -32 -6 -55zM275 56c55 0 101 22 140 65s59 96 59 158c0 100 -59 161 -158 161c-57 0 -105 -23 -143 -69c-37 -45 -56 -97 -56 -156
c0 -97 62 -159 158 -159zM754 444c-89 0 -161 -54 -190 -145h335c1 7 1 12 1 16c-1 79 -57 129 -146 129z" />
    <glyph glyph-name="Ydieresis" unicode="&#x178;" horiz-adv-x="552" 
d="M260 0h-84l56 287l-149 413h88l101 -296c5 -16 9 -32 12 -49l30 49l217 296h96l-311 -413zM493 792h-92l17 92h92zM335 792h-92l17 92h92z" />
    <glyph glyph-name="circumflex" unicode="&#x2c6;" horiz-adv-x="378" 
d="M167 562h-71l127 138h68l73 -138h-65l-53 68z" />
    <glyph glyph-name="tilde" unicode="&#x2dc;" horiz-adv-x="472" 
d="M219 628c-21 0 -34 -16 -34 -33c0 -7 2 -13 5 -19l-63 -12c-5 10 -8 21 -8 33c0 51 36 92 101 92c81 0 91 -67 138 -67c22 0 33 11 33 33c0 7 -1 14 -4 20l63 12c5 -13 7 -26 7 -38c0 -53 -39 -88 -96 -88c-40 0 -72 17 -85 33s-34 34 -57 34z" />
    <glyph glyph-name="uni2000" unicode="&#x2000;" horiz-adv-x="467" 
 />
    <glyph glyph-name="uni2001" unicode="&#x2001;" horiz-adv-x="934" 
 />
    <glyph glyph-name="uni2002" unicode="&#x2002;" horiz-adv-x="467" 
 />
    <glyph glyph-name="uni2003" unicode="&#x2003;" horiz-adv-x="934" 
 />
    <glyph glyph-name="uni2004" unicode="&#x2004;" horiz-adv-x="311" 
 />
    <glyph glyph-name="uni2005" unicode="&#x2005;" horiz-adv-x="233" 
 />
    <glyph glyph-name="uni2006" unicode="&#x2006;" horiz-adv-x="155" 
 />
    <glyph glyph-name="uni2007" unicode="&#x2007;" horiz-adv-x="155" 
 />
    <glyph glyph-name="uni2008" unicode="&#x2008;" horiz-adv-x="116" 
 />
    <glyph glyph-name="uni2009" unicode="&#x2009;" horiz-adv-x="187" 
 />
    <glyph glyph-name="uni200A" unicode="&#x200a;" horiz-adv-x="52" 
 />
    <glyph glyph-name="uni2010" unicode="&#x2010;" horiz-adv-x="455" 
d="M404 280h-360l13 62h360z" />
    <glyph glyph-name="uni2011" unicode="&#x2011;" horiz-adv-x="455" 
d="M404 280h-360l13 62h360z" />
    <glyph glyph-name="figuredash" unicode="&#x2012;" horiz-adv-x="455" 
d="M404 280h-360l13 62h360z" />
    <glyph glyph-name="endash" unicode="&#x2013;" horiz-adv-x="517" 
d="M465 280h-421l13 62h421z" />
    <glyph glyph-name="emdash" unicode="&#x2014;" horiz-adv-x="797" 
d="M745 280h-701l13 62h701z" />
    <glyph glyph-name="quoteleft" unicode="&#x2018;" horiz-adv-x="195" 
d="M105 579l119 128l18 -18l-80 -110h37l-19 -98h-94z" />
    <glyph glyph-name="quoteright" unicode="&#x2019;" horiz-adv-x="195" 
d="M204 602l-119 -128l-18 18l80 110h-37l19 98h94z" />
    <glyph glyph-name="quotesinglbase" unicode="&#x201a;" horiz-adv-x="195" 
d="M88 0l-119 -128l-18 18l80 110h-37l19 98h94z" />
    <glyph glyph-name="quotedblleft" unicode="&#x201c;" horiz-adv-x="331" 
d="M105 579l119 128l18 -18l-80 -110h37l-19 -98h-94zM241 579l119 128l18 -18l-80 -110h37l-19 -98h-94z" />
    <glyph glyph-name="quotedblright" unicode="&#x201d;" horiz-adv-x="331" 
d="M340 602l-119 -128l-18 18l80 110h-37l19 98h94zM204 602l-119 -128l-18 18l80 110h-37l19 98h94z" />
    <glyph glyph-name="quotedblbase" unicode="&#x201e;" horiz-adv-x="331" 
d="M224 0l-119 -128l-18 18l80 110h-37l19 98h94zM88 0l-119 -128l-18 18l80 110h-37l19 98h94z" />
    <glyph glyph-name="bullet" unicode="&#x2022;" horiz-adv-x="285" 
d="M78 211c-35 36 -35 92 0 128c36 36 93 36 129 0s36 -92 0 -128s-93 -36 -129 0z" />
    <glyph glyph-name="ellipsis" unicode="&#x2026;" horiz-adv-x="550" 
d="M444 0h-94l19 98h94zM264 0h-94l19 98h94zM84 0h-94l19 98h94z" />
    <glyph glyph-name="uni202F" unicode="&#x202f;" horiz-adv-x="187" 
 />
    <glyph glyph-name="guilsinglleft" unicode="&#x2039;" horiz-adv-x="327" 
d="M48 275l194 199h96l-197 -203l115 -195h-91z" />
    <glyph glyph-name="guilsinglright" unicode="&#x203a;" horiz-adv-x="327" 
d="M285 275l-194 -199h-96l197 203l-115 195h91z" />
    <glyph glyph-name="uni205F" unicode="&#x205f;" horiz-adv-x="233" 
 />
    <glyph glyph-name="Euro" unicode="&#x20ac;" horiz-adv-x="759" 
d="M129 394h-69l39 62h47c28 75 72 137 133 185c61 49 134 73 221 73c133 0 214 -64 242 -192l-76 -26c-25 105 -73 144 -172 144c-121 0 -211 -75 -258 -184h293l-40 -62h-274c-7 -27 -11 -57 -13 -88h298l-40 -62h-256c12 -112 72 -184 181 -184c97 0 173 54 227 162
l70 -26c-70 -140 -171 -210 -302 -210c-156 0 -249 102 -262 258h-87l40 62h45c1 33 6 63 13 88z" />
    <glyph glyph-name="trademark" unicode="&#x2122;" horiz-adv-x="848" 
d="M226 650h-119l9 50h298l-9 -50h-119l-68 -350h-60zM444 300h-54l77 400h62l75 -339l208 339h61l-77 -400h-54l55 286l-175 -286h-58l-64 291z" />
    <glyph glyph-name="uni25FC" unicode="&#x25fc;" horiz-adv-x="494" 
d="M0 0v495h495v-495h-495z" />
    </font>
</defs>
</svg>
