<?xml version="1.0" standalone="no"?>
<!DOCTYPE svg PUBLIC "-//W3C//DTD SVG 1.1//EN" "http://www.w3.org/Graphics/SVG/1.1/DTD/svg11.dtd" >
<svg xmlns="http://www.w3.org/2000/svg" xmlns:xlink="http://www.w3.org/1999/xlink" version="1.1">
<metadata>
Created by FontForge 20170731 at Wed Oct 13 16:18:54 2021
 By Aleksey,,,
Copyright (c) 2019 by Mathieu Desjardins. All rights reserved.
</metadata>
<defs>
<font id="EditorialNew-Light" horiz-adv-x="1925" >
  <font-face 
    font-family="Editorial New Light"
    font-weight="300"
    font-stretch="normal"
    units-per-em="2048"
    panose-1="0 0 4 0 0 0 0 0 0 0"
    ascent="1638"
    descent="-410"
    x-height="1075"
    cap-height="1638"
    bbox="-717 -614 2787 2249"
    underline-thickness="61"
    underline-position="-234"
    unicode-range="U+0020-277F"
  />
<missing-glyph horiz-adv-x="1146" 
d="M940 1679v-2293h-727v2293h727zM764 1526h-379v-76h150v-84h-152v-76h381v76h-152v84h152v76zM612 1229h-229v-238h381v78h-152v160zM535 1151v-82h-76v82h76zM764 930h-381v-76h152v-86h-152v-76h229v162h152v76zM764 793h-76v-152h-305v-78h381v230zM764 512h-229v-129
h77v53h76v-108h-229v184h-76v-260h381v260zM764 115h-381v-258h381v258zM688 39v-107h-229v107h229zM764 -197h-381v-75h160l-160 -109v-76h381v76h-234l160 109h74v75z" />
    <glyph glyph-name="f_f" unicode="ff" horiz-adv-x="1179" 
d="M1094 1679q107 0 185.5 -63t78.5 -143q0 -48 -26 -73.5t-66 -25.5t-67 23t-30 71q-1 27 -4 45.5t-12.5 42t-31.5 36t-56 12.5q-49 0 -81.5 -23t-49.5 -68.5t-24 -101t-7 -133.5v-203h193v-76h-193v-794q0 -69 14 -100.5t55.5 -44.5t131.5 -13v-47h-494v47q91 0 115.5 29
t24.5 129v794h-385v-794q0 -70 14 -101t55 -44t131 -13v-47h-493v47q91 0 115 29t24 129v794h-139v76h139v60q0 246 81 374.5t243 128.5q107 0 175 -54t76 -128q80 223 308 223zM750 1075v115q0 104 14 178q-20 -20 -55 -20q-36 0 -58.5 22t-25.5 64q-1 22 -2.5 36t-7 33.5
t-15.5 31t-29 20t-45 8.5q-48 0 -81 -25.5t-50 -74t-23.5 -104.5t-6.5 -132v-152h385z" />
    <glyph glyph-name="f_f_i" unicode="ffi" horiz-adv-x="1665" 
d="M1485 205q0 -100 24.5 -129t114.5 -29v-47h-430v47q90 0 114.5 29t24.5 129v651q0 31 -0.5 45.5t-6 37.5t-16.5 33t-33 18.5t-54 8.5h-318v-794q0 -69 14 -100.5t55.5 -44.5t131.5 -13v-47h-494v47q91 0 115.5 29t24.5 129v794h-387v-794q0 -52 6.5 -80.5t29 -47.5
t60 -24.5t106.5 -5.5v-47h-495v47q91 0 115 29t24 129v794h-139v76h139v60q0 246 81.5 374.5t244.5 128.5q107 0 175 -54t76 -128q77 223 306 223q107 0 186.5 -63.5t79.5 -142.5q0 -47 -26.5 -73t-65.5 -26q-91 0 -97 94q-1 27 -4 45.5t-12.5 42t-31.5 36t-56 12.5
q-49 0 -82 -23t-50 -69t-23.5 -101t-6.5 -133v-203h357q98 0 198 41l25 -24v-887zM752 1075v115q0 106 14 180q-22 -22 -55 -22q-36 0 -59.5 22t-24.5 64q-1 22 -2.5 36t-7 33.5t-15.5 31t-29 20t-45 8.5q-49 0 -82 -25.5t-50 -74t-24 -104.5t-7 -132v-152h387z" />
    <glyph glyph-name="f_i" unicode="fi" horiz-adv-x="1124" 
d="M944 205q0 -100 24.5 -129t114.5 -29v-47h-430v47q90 0 115 29.5t25 128.5v651q0 31 -1 46t-6.5 37.5t-16.5 32.5t-33 18.5t-54 8.5h-317v-794q0 -70 14 -101t55 -44t131 -13v-47h-493v47q91 0 115 29t24 129v794h-139v76h139v115q0 242 87 365.5t255 123.5
q107 0 186.5 -63.5t79.5 -142.5q0 -47 -26.5 -73t-65.5 -26q-90 0 -96 94q-1 21 -2.5 35.5t-8 35.5t-17 33.5t-30.5 22t-47 9.5q-49 0 -82 -23t-49.5 -69t-23 -100.5t-6.5 -133.5v-203h356q99 0 199 41l24 -24v-887z" />
    <glyph glyph-name="f_l" unicode="fl" horiz-adv-x="1103" 
d="M924 205q0 -100 24.5 -129t114.5 -29v-47h-430v47q90 0 114.5 29t24.5 129v1179q-23 -10 -45 -10q-90 0 -96 94q-1 21 -2.5 35.5t-8 35.5t-17 33.5t-30.5 22t-47 9.5q-49 0 -82 -23t-49.5 -69t-23 -100.5t-6.5 -133.5v-203h192v-76h-192v-794q0 -70 14 -101t55 -44
t131 -13v-47h-493v47q91 0 115 29t24 129v794h-139v76h139v115q0 242 87 365.5t255 123.5q83 0 151.5 -39.5t98.5 -99.5l96 98l25 -24v-1409z" />
    <glyph glyph-name=".notdef" horiz-adv-x="1146" 
d="M940 1679v-2293h-727v2293h727zM764 1526h-379v-76h150v-84h-152v-76h381v76h-152v84h152v76zM612 1229h-229v-238h381v78h-152v160zM535 1151v-82h-76v82h76zM764 930h-381v-76h152v-86h-152v-76h229v162h152v76zM764 793h-76v-152h-305v-78h381v230zM764 512h-229v-129
h77v53h76v-108h-229v184h-76v-260h381v260zM764 115h-381v-258h381v258zM688 39v-107h-229v107h229zM764 -197h-381v-75h160l-160 -109v-76h381v76h-234l160 109h74v75z" />
    <glyph glyph-name=".null" horiz-adv-x="0" 
 />
    <glyph glyph-name="nonmarkingreturn" horiz-adv-x="682" 
 />
    <glyph glyph-name="space" unicode=" " horiz-adv-x="419" 
 />
    <glyph glyph-name="exclam" unicode="!" horiz-adv-x="425" 
d="M119 1513q0 89 24 127.5t70 38.5t70 -38.5t24 -127.5q0 -99 -16 -264t-33 -390.5t-20 -459.5h-45q-3 234 -21.5 459.5t-35.5 390.5t-17 264zM213 -41q-44 0 -76.5 32.5t-32.5 76.5t32 75t77 31q44 0 75 -31t31 -75q0 -45 -31 -77t-75 -32z" />
    <glyph glyph-name="quotedbl" unicode="&#x22;" horiz-adv-x="671" 
d="M102 1569q0 110 80 110t80 -110q0 -56 -7.5 -118t-23 -158.5t-24.5 -166.5h-45q-9 74 -25.5 167t-25.5 157t-9 119zM410 1569q0 110 79 110q80 0 80 -110q0 -56 -7.5 -118t-23 -158.5t-24.5 -166.5h-45q-9 74 -25 167t-25 157t-9 119z" />
    <glyph glyph-name="numbersign" unicode="#" horiz-adv-x="1744" 
d="M1612 1108h-320l-157 -547h333v-112h-366l-141 -490h-115l141 490h-442l-142 -490h-114l141 490h-297v112h330l158 547h-345v113h375l133 458h115l-133 -458h442l133 458h115l-133 -458h289v-113zM1020 561l158 547h-443l-157 -547h442z" />
    <glyph glyph-name="dollar" unicode="$" horiz-adv-x="1069" 
d="M967 365q0 -95 -32.5 -172t-88 -126.5t-127 -77.5t-152.5 -30v-143h-67v145q-215 13 -398 137v377h48q0 -420 350 -438v682l-76 63q-177 151 -242 250t-65 228q0 159 109 248t274 89v134h67v-138q187 -17 330 -133v-274h-47q0 168 -74 246t-209 88v-598l13 -11
q181 -152 234 -206q111 -112 139 -223q14 -54 14 -117zM260 1307q0 -48 16.5 -91t53.5 -85.5t73 -74.5t97 -81v547q-115 -6 -177.5 -66t-62.5 -149zM567 39q121 9 188.5 82.5t67.5 183.5q0 60 -36 122.5t-86.5 113.5t-133.5 121v-623z" />
    <glyph glyph-name="percent" unicode="%" horiz-adv-x="1544" 
d="M373 844q-115 0 -193 121t-78 297q0 175 78 296t193 121q114 0 191 -121t77 -296t-77 -296.5t-191 -121.5zM1241 1638h80l-1018 -1638h-80zM373 905q139 0 139 357q0 356 -139 356q-142 0 -142 -356q0 -357 142 -357zM1174 -41q-115 0 -192 121t-77 297t77 297t192 121
q114 0 191 -121.5t77 -296.5t-77 -296.5t-191 -121.5zM1174 20q51 0 83.5 50t45 126.5t12.5 180.5t-12.5 180t-45 126t-83.5 50q-142 0 -142 -356q0 -357 142 -357z" />
    <glyph glyph-name="ampersand" unicode="&#x26;" horiz-adv-x="1566" 
d="M1417 319h47q-62 -360 -293 -360q-138 0 -268 145q-161 -145 -391 -145q-178 0 -294 99t-116 278q0 84 25.5 157.5t79 140.5t110 119t144.5 121q-105 277 -105 447q0 177 104.5 278t266.5 101q141 0 214 -80t73 -201q0 -66 -23.5 -128t-72 -122t-105.5 -113.5
t-139 -117.5q-7 -6 -22.5 -17.5t-22.5 -17.5q57 -143 131 -280q121 -217 203 -328q108 165 182 424q27 94 9 122.5t-116 28.5v48h406v-48q-111 0 -153 -28t-70 -121q-91 -319 -207 -490q121 -143 219 -143q135 0 184 231zM520 1348q0 -140 80 -367l21 14q160 124 230.5 222
t70.5 200q0 85 -44.5 146t-136.5 61q-72 0 -124 -41.5t-74.5 -102t-22.5 -132.5zM565 37q158 0 289 125q-108 143 -250 403q-65 124 -106 221q-108 -103 -159.5 -206t-51.5 -228q0 -147 75.5 -231t202.5 -84z" />
    <glyph glyph-name="quotesingle" unicode="'" horiz-adv-x="395" 
d="M119 1569q0 110 78 110q79 0 79 -110q0 -55 -7.5 -118.5t-22.5 -157.5t-23 -167h-47q-8 67 -32.5 219.5t-24.5 223.5z" />
    <glyph glyph-name="parenleft" unicode="(" horiz-adv-x="747" 
d="M686 -569v-45q-270 193 -427 486.5t-157 659.5q0 377 147.5 678.5t401.5 468.5v-45q-181 -173 -272.5 -463t-91.5 -639q0 -324 103 -618t296 -483z" />
    <glyph glyph-name="parenright" unicode=")" horiz-adv-x="747" 
d="M61 -569q193 189 296.5 483t103.5 618q0 348 -92 638.5t-273 463.5v45q254 -167 401.5 -468.5t147.5 -678.5q0 -366 -157 -659.5t-427 -486.5v45z" />
    <glyph glyph-name="asterisk" unicode="*" horiz-adv-x="937" 
d="M786 1178q35 -20 45.5 -52t-8.5 -61q-18 -30 -49 -37.5t-67 12.5q-25 15 -48.5 39.5t-41 47.5t-53 55t-81.5 61q3 -86 34.5 -171t31.5 -124t-23 -63.5t-57 -24.5q-35 0 -57.5 24t-22.5 64q0 36 16 77t33.5 96.5t20.5 123.5q-47 -29 -83.5 -61.5t-54.5 -55.5t-41.5 -48
t-48.5 -40q-36 -20 -67.5 -12.5t-50.5 37.5q-18 29 -7 61t46 52q30 18 73 24.5t99.5 19.5t117.5 46q-80 43 -169 59t-121 35q-35 20 -46 52t7 61q19 30 50.5 37t67.5 -13q26 -15 49 -40t41 -49.5t54.5 -59t83.5 -64.5q-2 72 -19.5 128.5t-34 98t-16.5 78.5q0 41 22 64.5
t58 23.5q35 0 57.5 -24t22.5 -64q0 -36 -15.5 -77t-32 -97t-18.5 -127q46 30 82 63.5t53.5 57.5t40.5 48.5t48 39.5q36 20 67 13t49 -37q19 -29 8.5 -61t-45.5 -52q-33 -19 -122.5 -35t-169.5 -59q61 -32 117.5 -45t100 -20t74.5 -25z" />
    <glyph glyph-name="plus" unicode="+" horiz-adv-x="1024" 
d="M102 489v127h349v347h127v-347h344v-127h-344v-346h-127v346h-349z" />
    <glyph glyph-name="comma" unicode="," horiz-adv-x="452" 
d="M190 -41q-39 0 -63.5 30.5t-24.5 71.5q0 53 32 83t83 30q55 0 94 -45t39 -121q0 -227 -241 -352v47q73 40 123.5 101.5t50.5 134.5q0 45 -21 45q-6 0 -26.5 -12.5t-45.5 -12.5z" />
    <glyph glyph-name="hyphen" unicode="-" horiz-adv-x="880" 
d="M102 489v127h676v-127h-676z" />
    <glyph glyph-name="period" unicode="." horiz-adv-x="419" 
d="M211 -41q-44 0 -76.5 32.5t-32.5 76.5t32 75t77 31q44 0 75 -31t31 -75q0 -45 -31 -77t-75 -32z" />
    <glyph glyph-name="slash" unicode="/" horiz-adv-x="651" 
d="M537 1679h114l-536 -1679h-115z" />
    <glyph glyph-name="zero" unicode="0" horiz-adv-x="1132" 
d="M567 -41q-114 0 -203.5 67t-146 185t-86 272.5t-29.5 335.5t29.5 335.5t86 272.5t146 185t203.5 67q113 0 202.5 -67t145.5 -185t85.5 -273t29.5 -335t-29.5 -335t-85.5 -273t-145.5 -185t-202.5 -67zM567 37q73 0 128 58t87.5 165t48 246.5t15.5 312.5t-15.5 312.5
t-48 247.5t-87.5 166.5t-128 58.5q-74 0 -129 -58.5t-87.5 -166.5t-48 -247t-15.5 -313t15.5 -312.5t48 -246t87.5 -165.5t129 -58z" />
    <glyph glyph-name="one" unicode="1" horiz-adv-x="647" 
d="M406 205q0 -100 24.5 -129t114.5 -29v-47h-441v47q90 0 115 29.5t25 128.5v1179q0 39 -0.5 56t-5.5 36.5t-13 22t-25.5 1t-41.5 -13.5t-62 -34l-22 41l307 172l25 -27v-1433z" />
    <glyph glyph-name="two" unicode="2" horiz-adv-x="1030" 
d="M717 147q97 0 138.5 37t78.5 152l43 -14l-64 -199l-41 -123h-852v47q113 119 192.5 207t167.5 194t145.5 194t107 183.5t73 188t23.5 182.5q0 150 -64 243t-198 93q-159 0 -247.5 -127t-94.5 -342h-47q0 282 123 449t342 167q175 0 267.5 -114.5t92.5 -294.5
q0 -115 -43 -241t-108.5 -236t-162.5 -230.5t-184.5 -212.5t-195.5 -194v-6z" />
    <glyph glyph-name="three" unicode="3" horiz-adv-x="956" 
d="M61 106q0 32 23 50t59 18q26 0 47.5 -10t33 -21t28.5 -32q30 -36 66 -55t96 -19q54 0 104 23t91.5 68t66 119t24.5 167q0 115 -31 198.5t-87 131.5t-123 71.5t-150 28.5v47q307 112 307 401q0 111 -57 185.5t-164 74.5q-216 0 -276 -249h-45q24 180 126 278t257 98
q145 0 239.5 -98t94.5 -266q0 -264 -287 -404v-6q169 -26 269.5 -140.5t100.5 -307.5q0 -147 -69 -262t-181.5 -175.5t-246.5 -60.5q-122 0 -219 41t-97 106z" />
    <glyph glyph-name="four" unicode="4" horiz-adv-x="1075" 
d="M72 459v133l614 1046h131v-1046h170v-133h-170v-254q0 -100 24.5 -129t114.5 -29v-47h-440v47q90 0 114.5 29t24.5 129v254h-583zM164 592h491v866l-491 -860v-6z" />
    <glyph glyph-name="five" unicode="5" horiz-adv-x="956" 
d="M51 100q0 70 78 70q15 0 27 -3t23.5 -13t16.5 -15t17.5 -22t15.5 -21q48 -59 146 -59q42 0 83 20t79.5 63t67.5 104t47 151t18 196q0 232 -71.5 340.5t-197.5 108.5q-119 0 -204 -88l-64 47l139 659h549l-35 -147h-454l-99 -455l9 -6q96 86 233 86q167 0 273 -143
t106 -359q0 -156 -41.5 -282t-113 -206.5t-163.5 -123.5t-196 -43q-120 0 -204.5 39.5t-84.5 101.5z" />
    <glyph glyph-name="six" unicode="6" horiz-adv-x="1077" 
d="M635 1116q116 0 199 -74.5t122 -192t39 -261.5q0 -92 -16.5 -180.5t-52 -170t-86 -143t-123.5 -98.5t-160 -37q-143 0 -248 92.5t-157.5 255t-49.5 373.5q2 142 34.5 274t97.5 251.5t158 214t223.5 162.5t287.5 97v-45q-108 -30 -198 -84t-153 -121t-111.5 -150.5
t-77 -166.5t-46.5 -176h2q51 79 133 129.5t183 50.5zM559 37q124 0 188 135t64 381q0 98 -12.5 181t-40 154t-77 111.5t-116.5 40.5q-144 0 -260 -176q-14 -93 -18 -221q-3 -180 27.5 -316t93.5 -213t151 -77z" />
    <glyph glyph-name="seven" unicode="7" horiz-adv-x="1021" 
d="M436 -20l-112 28l432 1477v6h-486q-66 0 -100.5 -16.5t-58 -62.5t-43.5 -142l-45 8l47 231l26 129h834z" />
    <glyph glyph-name="eight" unicode="8" horiz-adv-x="1015" 
d="M602 920q156 -134 237 -265.5t81 -279.5q0 -186 -116 -301t-298 -115q-188 0 -301 114.5t-113 282.5q0 75 23.5 144t71 133t98.5 116.5t125 116.5q-145 133 -211 234t-66 223q0 156 108.5 256t272.5 100q167 0 266 -98t99 -244q0 -53 -15 -101.5t-34.5 -83.5t-62.5 -80.5
t-73.5 -72.5t-91.5 -79zM293 1352q0 -88 55 -170.5t191 -204.5q114 105 159 188t45 181q0 110 -60.5 184t-162.5 74t-164.5 -71t-62.5 -181zM512 37q115 0 181.5 81.5t66.5 225.5q0 65 -19 124t-60 117t-88.5 108t-119.5 116q-246 -228 -246 -453q0 -131 76 -225t209 -94z
" />
    <glyph glyph-name="nine" unicode="9" horiz-adv-x="1077" 
d="M520 1679q143 0 248 -92t157.5 -254t49.5 -372q-2 -143 -34.5 -275.5t-97.5 -252t-158 -214.5t-223.5 -163t-287.5 -97v47q108 29 198 83t153 120.5t111.5 150t77 166.5t46.5 176h-2q-51 -79 -133.5 -129.5t-182.5 -50.5q-115 0 -198.5 74.5t-122.5 192.5t-39 262
q0 92 16.5 181t52 170t86 142.5t123.5 98t160 36.5zM791 995q3 180 -28 317t-94.5 214.5t-150.5 77.5q-125 0 -188.5 -135t-63.5 -382q0 -98 12.5 -181.5t40 -154t77 -111t116.5 -40.5q146 0 262 178q14 104 17 217z" />
    <glyph glyph-name="colon" unicode=":" horiz-adv-x="419" 
d="M211 887q-45 0 -77 31t-32 75t32.5 76.5t76.5 32.5t75 -32t31 -77q0 -44 -31 -75t-75 -31zM211 -41q-44 0 -76.5 32.5t-32.5 76.5t32 75t77 31q44 0 75 -31t31 -75q0 -45 -31 -77t-75 -32z" />
    <glyph glyph-name="semicolon" unicode=";" horiz-adv-x="452" 
d="M227 887q-44 0 -75 31t-31 75q0 45 31 77t75 32t76.5 -32.5t32.5 -76.5t-32 -75t-77 -31zM190 -41q-39 0 -63.5 30.5t-24.5 71.5q0 53 32 83t83 30q55 0 94 -45t39 -121q0 -227 -241 -352v47q73 40 123.5 101.5t50.5 134.5q0 45 -21 45q-6 0 -26.5 -12.5t-45.5 -12.5z
" />
    <glyph glyph-name="less" unicode="&#x3c;" horiz-adv-x="901" 
d="M799 240l-707 227v184l707 226v-136l-596 -180v-6l596 -180v-135z" />
    <glyph glyph-name="equal" unicode="=" horiz-adv-x="880" 
d="M102 668v129h676v-129h-676zM102 309v129h676v-129h-676z" />
    <glyph glyph-name="greater" unicode="&#x3e;" horiz-adv-x="911" 
d="M102 240v135l598 180v6l-598 180v136l707 -226v-184z" />
    <glyph glyph-name="question" unicode="?" horiz-adv-x="911" 
d="M635 1362q0 110 -51.5 176t-147.5 66q-84 0 -132 -53.5t-48 -123.5q0 -41 15 -68.5t29.5 -51.5t14.5 -54q0 -38 -25 -58.5t-65 -20.5q-53 0 -88 53t-35 141q0 129 96 220t257 91t257.5 -86t96.5 -221q0 -71 -20 -133.5t-52 -112t-70.5 -99.5t-77.5 -109.5t-71 -128.5
t-52 -169.5t-20 -220.5h-45q0 133 13 242t33.5 181.5t45.5 132.5t50 106.5t45.5 90t33.5 96.5t13 114zM424 -41q-44 0 -75.5 32.5t-31.5 76.5t31.5 75t75.5 31t76 -31t32 -75t-32 -76.5t-76 -32.5z" />
    <glyph glyph-name="at" unicode="@" horiz-adv-x="2162" 
d="M129 696q39 202 138.5 370.5t236 281.5t303 175t340.5 62q110 0 208.5 -22.5t177 -63.5t146 -98.5t114 -127t82 -148.5t51 -164t19 -173t-13.5 -176q-25 -154 -84 -280t-136.5 -206t-165.5 -123.5t-177 -43.5q-213 0 -174 219l6 33h-8q-87 -129 -169.5 -190.5
t-191.5 -61.5q-105 0 -172.5 74t-82.5 193t16 268q40 170 122 309t195 221t234 82q150 0 200 -158h5l28 148l131 12l-170 -866q-24 -97 -8.5 -151t84.5 -54q59 0 126 36t132 103.5t118 181.5t77 254q12 70 13 141t-10 141.5t-32 138t-55 129.5t-78 116t-102.5 98
t-126.5 75.5t-151.5 49t-176.5 17.5q-231 0 -425.5 -107t-322 -292t-178.5 -423q-38 -163 -31 -311.5t45.5 -276.5t115 -231.5t178.5 -176.5t234.5 -113t283.5 -40q149 0 279.5 32t230.5 85.5t184.5 131t145 162.5t108.5 185h65q-48 -111 -113 -207t-156 -181t-199.5 -145
t-248 -95t-296.5 -35q-162 0 -306 42.5t-255 120t-196 187.5t-129.5 245t-56 292t24.5 329zM729 543q-27 -139 -19.5 -244t58.5 -166t139 -61q189 0 320 254l67 352q31 161 -9.5 256.5t-143.5 95.5q-77 0 -147 -42t-121 -112.5t-87.5 -155.5t-56.5 -177z" />
    <glyph glyph-name="A" unicode="A" horiz-adv-x="1472" 
d="M1249 195q29 -92 69 -120t134 -28v-47h-557v47q98 0 135.5 12t40 45t-19.5 91l-103 321h-549l-100 -321q-22 -58 -19.5 -91t40 -45t135.5 -12v-47h-435v47q94 0 133 28t68 120l467 1491h82zM424 594h500l-250 782h-6z" />
    <glyph glyph-name="B" unicode="B" horiz-adv-x="1239" 
d="M41 0v47q98 0 143.5 14.5t59.5 45t14 98.5v1231q0 51 -6 78t-29.5 47t-65 26t-116.5 6v45h590q220 0 349.5 -103.5t129.5 -309.5q0 -161 -93.5 -260.5t-250.5 -118.5v-6q187 -12 302.5 -125t115.5 -283q0 -96 -30.5 -171t-82.5 -123.5t-126.5 -80t-156.5 -44.5t-178 -13
h-569zM436 889q66 -10 164 -10q64 0 120.5 20.5t103.5 61.5t74.5 110t27.5 158q0 86 -27.5 152t-74.5 104.5t-103.5 58t-120.5 19.5q-94 0 -164 -21v-653zM436 98q76 -20 154 -20q63 0 118 9.5t110 34.5t94 64t63 103t24 147t-27 148.5t-68.5 105t-96.5 65.5t-106 36
t-101 10q-98 0 -164 -10v-693z" />
    <glyph glyph-name="C" unicode="C" horiz-adv-x="1323" 
d="M78 819q0 244 78.5 439t227 308t341.5 113q73 0 140 -18t105.5 -40t72.5 -40t49 -18q21 0 28.5 17.5t7.5 78.5h48l30 -563h-47q-51 508 -405 508q-148 0 -259 -105.5t-167 -282t-56 -397.5q0 -220 56 -394t165.5 -276t256.5 -102q193 0 321.5 165t165.5 450h45
q-20 -157 -63.5 -283.5t-112 -221.5t-168 -146.5t-223.5 -51.5q-193 0 -339 113.5t-222 308t-76 438.5z" />
    <glyph glyph-name="D" unicode="D" horiz-adv-x="1519" 
d="M41 0v47q98 0 143.5 14.5t59.5 45t14 98.5v1231q0 51 -6 78t-29.5 47t-65 26t-116.5 6v45h610q170 0 314 -53t251 -153.5t167.5 -257.5t60.5 -355q0 -197 -62.5 -354.5t-171 -258t-251.5 -153.5t-308 -53h-610zM651 78q280 0 439 199.5t159 541.5t-159.5 543t-438.5 201
q-137 0 -215 -37v-1411q78 -37 215 -37z" />
    <glyph glyph-name="E" unicode="E" horiz-adv-x="1243" 
d="M1090 1638l4 -49l36 -323l-45 -4q-16 134 -37.5 197t-54.5 83.5t-100 20.5h-457v-664h291q68 0 98.5 15.5t45 65t14.5 157.5h45v-553h-45q0 107 -14.5 157t-45 65t-98.5 15h-291v-626q0 -72 18 -94.5t78 -22.5l386 -2q66 0 104.5 26t73.5 101.5t80 234.5l45 -14
l-121 -424h-1059v47q98 0 143.5 14.5t59.5 45t14 98.5v1231q0 51 -6 78t-29.5 47t-65 26t-116.5 6v45h1049z" />
    <glyph glyph-name="F" unicode="F" horiz-adv-x="1232" 
d="M1176 1638l4 -49l30 -323l-45 -4q-13 134 -33 197t-53 83.5t-100 20.5h-543v-717h314q68 0 98 15t44.5 64.5t14.5 157.5h47v-260l-2 -30l2 -261h-47q0 66 -5 107t-14 68.5t-29 40.5t-44 17.5t-65 4.5h-314v-565q0 -51 6 -78t29 -47t64.5 -26.5t115.5 -6.5v-47h-610v47
q98 0 143.5 14.5t59.5 45t14 98.5v1231q0 51 -6 78t-29.5 47t-65 26t-116.5 6v45h1135z" />
    <glyph glyph-name="G" unicode="G" horiz-adv-x="1529" 
d="M78 815q0 180 48 337t136 274.5t221.5 185t296.5 67.5q91 0 167 -17.5t115 -38.5t72 -38.5t48 -17.5q21 0 28 17t7 75h45l30 -563h-45q-27 260 -131.5 384t-312.5 124q-106 0 -194 -40t-149.5 -111.5t-104.5 -170.5t-63 -216.5t-20 -250.5q0 -134 19 -249t61.5 -213.5
t106.5 -168t157.5 -108.5t210.5 -39q107 0 192 37t140 90v485q0 68 -25.5 98.5t-108 45t-261.5 14.5v47h719v-47q-90 0 -115 -29.5t-25 -128.5v-485q-112 -107 -240 -156t-286 -49q-178 0 -320 66t-233 182t-138.5 271t-47.5 337z" />
    <glyph glyph-name="H" unicode="H" horiz-adv-x="1492" 
d="M1452 1593q-74 0 -115.5 -6t-64.5 -26t-29 -47t-6 -78v-1231q0 -51 6 -78t29 -47t64.5 -26.5t115.5 -6.5v-47h-610v47q98 0 143.5 14.5t59.5 45t14 98.5v626h-623v-626q0 -51 6 -78t29 -47t64.5 -26.5t115.5 -6.5v-47h-610v47q98 0 143.5 14.5t59.5 45t14 98.5v1231
q0 51 -6 78t-29.5 47t-65 26t-116.5 6v45h610v-45q-74 0 -115.5 -6t-64.5 -26t-29 -47t-6 -78v-529h623v529q0 51 -6 78t-29.5 47t-65 26t-116.5 6v45h610v-45z" />
    <glyph glyph-name="I" unicode="I" horiz-adv-x="692" 
d="M258 1436q0 51 -6 78t-29.5 47t-65 26t-116.5 6v45h610v-45q-74 0 -115.5 -6t-64.5 -26t-29 -47t-6 -78v-1231q0 -51 6 -78t29 -47t64.5 -26.5t115.5 -6.5v-47h-610v47q98 0 143.5 14.5t59.5 45t14 98.5v1231z" />
    <glyph glyph-name="J" unicode="J" horiz-adv-x="837" 
d="M403 387v1049q0 51 -6 78t-29.5 47t-65 26t-116.5 6v45h611v-45q-74 0 -115.5 -6t-64.5 -26t-29 -47t-6 -78v-961q0 -188 -33.5 -303.5t-95 -164t-156.5 -48.5q-129 0 -192.5 63.5t-63.5 157.5q0 50 27 75.5t67 25.5q39 0 64.5 -22.5t25.5 -68.5q0 -10 -1 -33.5t-1 -36
t3 -31t9.5 -28t19.5 -17t32 -7.5q37 0 61 22t35.5 71t15.5 107t4 150z" />
    <glyph glyph-name="K" unicode="K" horiz-adv-x="1572" 
d="M252 1436q0 51 -6 78t-29 47t-64.5 26t-115.5 6v45h610v-45q-75 0 -116.5 -6t-65 -26t-29.5 -47t-6 -78v-1231q0 -68 14 -98.5t59.5 -45t143.5 -14.5v-47h-610v47q74 0 115.5 6.5t64.5 26.5t29 47t6 78v1231zM1268 162q57 -73 111 -94t153 -21v-47h-551v47
q110 0 120.5 15t-41.5 75q-12 15 -18 23l-542 692l526 631q55 64 61 76q11 23 -21 29q-25 5 -103 5v45h432v-45q-100 0 -156 -20.5t-115 -91.5l-448 -543z" />
    <glyph glyph-name="L" unicode="L" horiz-adv-x="1222" 
d="M651 1638v-45q-74 0 -115.5 -6t-64.5 -26t-29 -47t-6 -78v-1229q0 -81 22 -105t95 -24h340q67 0 104.5 26.5t71 106t74.5 246.5l45 -11l-98 -405l-11 -41h-1038v47q98 0 143.5 14.5t59.5 45t14 98.5v1231q0 51 -6 78t-29.5 47t-65 26t-116.5 6v45h610z" />
    <glyph glyph-name="M" unicode="M" horiz-adv-x="1878" 
d="M936 283h6l455 1355h440v-45q-75 0 -116.5 -6t-65 -26t-29.5 -47t-6 -78v-1231q0 -68 14 -98.5t59.5 -45t143.5 -14.5v-47h-610v47q74 0 115.5 6.5t64.5 26.5t29 47t6 78v1315h-6l-514 -1567h-82l-504 1546h-6l4 -1296q0 -67 14 -97.5t58.5 -44.5t142.5 -14v-47h-508v47
q98 0 143.5 14.5t59.5 45t14 98.5v1231q0 51 -6 78t-29.5 47t-65 26t-116.5 6v45h448z" />
    <glyph glyph-name="N" unicode="N" horiz-adv-x="1554" 
d="M1513 1638v-45q-75 0 -116.5 -6t-65 -26t-29.5 -47t-6 -78v-1483h-82l-880 1436v-1184q0 -68 14 -98.5t59.5 -45t143.5 -14.5v-47h-510v47q98 0 143.5 14.5t59.5 45t14 98.5v1302q-39 52 -86.5 69t-130.5 17v45h360l813 -1321h7v1119q0 51 -6 78t-29.5 47t-65 26
t-116.5 6v45h509z" />
    <glyph glyph-name="O" unicode="O" horiz-adv-x="1396" 
d="M698 -41q-143 0 -261 68t-196 185t-120.5 273t-42.5 334t42.5 334t120.5 273t196 185t261 68q144 0 262.5 -68t197 -185t121 -273t42.5 -334t-42.5 -334t-121 -273t-197 -185t-262.5 -68zM768 35q128 11 215.5 113t123.5 284t15 424q-32 367 -164 567t-327 183
q-196 -19 -293.5 -239.5t-65.5 -584.5q34 -366 166.5 -566t329.5 -181z" />
    <glyph glyph-name="P" unicode="P" horiz-adv-x="1257" 
d="M41 0v47q98 0 143.5 14.5t59.5 45t14 98.5v1231q0 51 -6 78t-29.5 47t-65 26t-116.5 6v45h592q260 0 406.5 -118t146.5 -351q0 -112 -38 -201t-104.5 -143.5t-151 -83t-181.5 -28.5q-134 0 -275 41v-549q0 -51 6 -78t29 -47t64.5 -26.5t115.5 -6.5v-47h-610zM668 788
q141 0 232 101.5t91 279.5q0 188 -103.5 291t-260.5 103q-99 0 -191 -37v-697q125 -41 232 -41z" />
    <glyph glyph-name="Q" unicode="Q" horiz-adv-x="1382" 
d="M1458 -154l31 -47q-85 -82 -163.5 -127t-170.5 -45q-66 0 -130.5 23t-109.5 50t-117 50t-151 23q-63 0 -125.5 -12.5t-179.5 -47.5l-31 123q246 70 373 123q-186 5 -325.5 123t-210 309.5t-70.5 427.5q0 178 42.5 334t120.5 273t196 185t261 68q144 0 262.5 -68t197 -185
t121 -273t42.5 -334q0 -215 -61.5 -397.5t-174.5 -298.5q-58 -59 -139 -110t-167.5 -86.5t-152 -57t-130.5 -37.5l2 -8q127 26 209 26q68 0 134.5 -19t110.5 -41t103 -41t114 -19q83 0 146 26.5t143 89.5zM272 782q34 -366 166.5 -566t329.5 -181q128 11 215.5 113
t123.5 284t15 424q-32 367 -164 567t-327 183q-196 -19 -293.5 -239.5t-65.5 -584.5z" />
    <glyph glyph-name="R" unicode="R" horiz-adv-x="1314" 
d="M1049 182q41 -85 88 -111t143 -26l-2 -45h-158q-50 0 -76.5 2t-55 9.5t-46 24t-36 43.5t-38.5 71l-329 651h-47h-56v-596q0 -51 6 -78t29 -47t64.5 -26.5t115.5 -6.5v-47h-610v47q98 0 143.5 14.5t59.5 45t14 98.5v1231q0 51 -6 78t-29.5 47t-65 26t-116.5 6v45h569
q237 0 365.5 -105t128.5 -304q0 -381 -477 -422h14v-6q117 -37 195 -197zM492 877q56 -1 108.5 6t112.5 30t104 60.5t73.5 104t29.5 153.5q0 161 -87 246.5t-229 85.5q-92 0 -168 -37v-649h56z" />
    <glyph glyph-name="S" unicode="S" horiz-adv-x="1122" 
d="M121 -6v588h45q2 -124 36 -227.5t89.5 -172.5t128 -107t153.5 -38q130 0 206.5 76.5t76.5 201.5q0 32 -6 62t-22 61t-30 56t-43.5 57.5t-48.5 53t-59 56.5t-60.5 53.5t-68 57.5t-67.5 57q-68 59 -104.5 92.5t-81 78.5t-66.5 77t-43.5 74t-29 84.5t-7.5 93.5
q0 163 108.5 256.5t276.5 93.5q76 0 142.5 -23t102 -50.5t66 -50.5t43.5 -23q18 0 24.5 21t6.5 92h45v-480h-45q-5 193 -108 316t-263 123q-124 0 -188 -65.5t-64 -158.5q0 -35 9 -68.5t29 -65.5t39.5 -58t53.5 -58.5t58 -53t66.5 -56t64.5 -55.5q187 -164 205 -182
q128 -120 173 -220q40 -89 40 -205q0 -93 -35 -170.5t-93 -126.5t-130.5 -75.5t-149.5 -26.5q-71 0 -131.5 16t-98.5 38.5t-67.5 45t-52 38.5t-37.5 16q-25 0 -34 -26t-9 -93h-45z" />
    <glyph glyph-name="T" unicode="T" horiz-adv-x="1304" 
d="M1214 1589l29 -329l-47 -5q-7 83 -16.5 136t-22 88t-34 52t-46.5 23.5t-65 6.5l-271 2v-1358q0 -68 14 -98.5t59.5 -45t143.5 -14.5v-47h-610v47q74 0 115.5 6.5t64.5 26.5t29 47t6 78v1358l-270 -2q-40 0 -65 -6.5t-46.5 -23.5t-34 -52t-22 -88t-16.5 -136l-48 5l29 329
l6 49h1114z" />
    <glyph glyph-name="U" unicode="U" horiz-adv-x="1576" 
d="M1243 1436q0 51 -6 78t-29.5 47t-65 26t-116.5 6v45h510v-45q-75 0 -116.5 -6t-65 -26t-29.5 -47t-6 -78v-947q0 -81 -13 -152.5t-47 -142.5t-87.5 -121.5t-141 -82t-201.5 -31.5q-151 0 -263 41.5t-178.5 116t-98 170.5t-31.5 213v936q0 51 -6 78t-29.5 47t-65 26
t-116.5 6v45h610v-45q-74 0 -115.5 -6t-64.5 -26t-29 -47t-6 -78v-947q0 -234 102 -343t308 -109q187 0 292 110t105 342v947z" />
    <glyph glyph-name="V" unicode="V" horiz-adv-x="1472" 
d="M799 262h6l369 1182q34 89 8 119t-164 30v45h434v-45q-94 0 -133 -28.5t-68 -120.5l-469 -1491h-82l-479 1491q-29 92 -68 120.5t-133 28.5v45h555v-45q-97 0 -134 -12t-39.5 -45.5t20.5 -91.5z" />
    <glyph glyph-name="W" unicode="W" horiz-adv-x="1908" 
d="M1888 1638v-45q-93 0 -129 -29t-61 -124l-371 -1487h-82l-264 1024l-303 -1024h-76l-391 1489q-25 93 -61.5 122t-129.5 29v45h553v-45q-98 0 -136.5 -12.5t-43 -46t14.5 -92.5l294 -1145h7l237 815l-84 330q-25 93 -61 122t-129 29v45h553v-45q-98 0 -136.5 -12.5
t-43.5 -46t14 -92.5l282 -1123h7l274 1121q29 92 0.5 122.5t-168.5 30.5v45h434z" />
    <glyph glyph-name="X" unicode="X" horiz-adv-x="1544" 
d="M1260 176q47 -81 96 -105t147 -24v-47h-575v47q134 0 151 21.5t-31 94.5q-5 9 -8 13l-313 533l-330 -535q-42 -70 -44 -87q-2 -24 32 -32q32 -8 123 -8v-47h-447v47q98 0 147.5 23.5t98.5 103.5l375 610l-399 678q-48 82 -96.5 106.5t-145.5 24.5v45h575v-45
q-134 0 -151.5 -22.5t30.5 -96.5q5 -8 7 -12l291 -495l305 497q43 70 45 88q3 24 -32 33q-34 8 -122 8v45h447v-45q-97 0 -147 -24.5t-99 -104.5l-352 -573z" />
    <glyph glyph-name="Y" unicode="Y" horiz-adv-x="1374" 
d="M797 205q0 -51 6 -78t29 -47t64.5 -26.5t115.5 -6.5v-47h-611v47q98 0 143.5 14.5t59.5 45t14 98.5v516l-368 735q-41 85 -87.5 111t-142.5 26v45h570v-45q-37 0 -63 -1t-45 -5.5t-31 -7.5t-16.5 -13.5t-5.5 -17t5.5 -24.5t12 -30t18.5 -38l299 -608h6l274 604
q12 27 17 39.5t10.5 30.5t4.5 25.5t-6.5 18t-17.5 13.5t-31.5 7.5t-45.5 5.5t-64 1v45h443v-45q-95 0 -140.5 -27t-85.5 -114l-331 -731v-516z" />
    <glyph glyph-name="Z" unicode="Z" horiz-adv-x="1134" 
d="M1059 1638l-772 -1560l528 -2q67 0 101 25t59 100t49 235l45 -6l-61 -430h-947v47l756 1516h-465q-41 0 -65.5 -5.5t-45 -21.5t-31.5 -48.5t-17.5 -81.5t-8.5 -126h-47l10 307l3 51h909z" />
    <glyph glyph-name="bracketleft" unicode="[" horiz-adv-x="555" 
d="M494 1604h-207v-2143h207v-75h-392v2293h392v-75z" />
    <glyph glyph-name="backslash" unicode="\" horiz-adv-x="600" 
d="M63 1679l537 -1679h-115l-536 1679h114z" />
    <glyph glyph-name="bracketright" unicode="]" horiz-adv-x="555" 
d="M453 1679v-2293h-392v75h207v2143h-207v75h392z" />
    <glyph glyph-name="asciicircum" unicode="^" horiz-adv-x="1142" 
d="M102 807l394 831h147l397 -831h-141l-326 700h-6l-323 -700h-142z" />
    <glyph glyph-name="underscore" unicode="_" horiz-adv-x="1433" 
d="M1434 -276h-1434v92h1434v-92z" />
    <glyph glyph-name="grave" unicode="`" horiz-adv-x="495" 
d="M399 1284h-71l-250 371h184z" />
    <glyph glyph-name="a" unicode="a" horiz-adv-x="919" 
d="M854 137h45q-26 -91 -59.5 -134.5t-104.5 -43.5q-149 0 -149 191v22h-4q-16 -28 -29 -47.5t-42.5 -54t-58.5 -56t-74 -38.5t-93 -17q-106 0 -165 69.5t-59 186.5q0 70 22.5 129t57 99.5t88.5 77.5t104 62t116 56q9 4 14 6t12.5 5.5t13.5 6.5l97 45v99q0 49 -3 83.5
t-13 68.5t-27.5 54.5t-48 33t-72.5 12.5q-65 0 -108.5 -29t-43.5 -76q0 -23 17.5 -61t17.5 -64q0 -32 -25 -51.5t-65 -19.5q-47 0 -72.5 34.5t-25.5 98.5q0 106 88.5 168.5t228.5 62.5q145 0 224 -78.5t79 -242.5v-662q0 -52 8.5 -74t34.5 -22q25 0 38.5 20t35.5 80zM352 82
q64 0 116.5 38t117.5 126v385l-92 -43q-134 -65 -206.5 -145.5t-72.5 -190.5q0 -83 37 -126.5t100 -43.5z" />
    <glyph glyph-name="b" unicode="b" horiz-adv-x="1013" 
d="M164 115v1300v13v40t-1.5 30t-4 23.5t-7.5 13.5t-12.5 7t-19 -2.5t-25.5 -7.5t-35 -16l-20 40l252 123l26 -24v-740h9q69 97 141 149t160 52q139 0 225 -135.5t86 -368.5q0 -177 -48.5 -325t-143 -238t-216.5 -90q-70 0 -141.5 26t-114 53t-110.5 77zM317 162
q50 -56 98.5 -90.5t104.5 -34.5q53 0 95 30.5t69.5 80t46 117.5t26 139.5t7.5 148.5q0 227 -51.5 339t-147.5 112q-40 0 -76.5 -13.5t-68.5 -41.5t-52.5 -50t-50.5 -59v-678z" />
    <glyph glyph-name="c" unicode="c" horiz-adv-x="847" 
d="M582 856q-5 88 -30 136t-81 48q-109 0 -164 -127.5t-55 -353.5q0 -224 71 -355.5t195 -131.5q85 0 144 81t100 271h45q-59 -465 -350 -465q-180 0 -279.5 152.5t-99.5 406.5q0 274 110.5 436t292.5 162q126 0 208.5 -83t82.5 -181q0 -100 -90 -100q-94 0 -100 104z" />
    <glyph glyph-name="d" unicode="d" horiz-adv-x="1028" 
d="M963 123l20 -41l-252 -123l-24 25v176h-9q-65 -102 -129 -151.5t-151 -49.5q-159 0 -249.5 145.5t-90.5 391.5q0 173 42 311t131 223.5t214 85.5q74 0 134.5 -37.5t102.5 -93.5h5v430v13v40t-1.5 30t-4 23.5t-8 13.5t-12.5 7t-19 -2.5t-26.5 -7.5t-35.5 -16l-20 40
l145 70l109 53l24 -24v-1432v-13q0 -37 0.5 -52t3.5 -33.5t9 -22t18.5 -5t29.5 5.5t44 20zM707 252v410q0 177 -58.5 277.5t-154.5 100.5q-68 0 -117 -41t-75 -113.5t-38 -155t-12 -181.5q0 -142 21.5 -247t72.5 -169.5t127 -64.5q42 0 76.5 14t64 45t48 56t45.5 69z" />
    <glyph glyph-name="e" unicode="e" horiz-adv-x="856" 
d="M731 434h47q-29 -234 -120.5 -354.5t-227.5 -120.5q-165 0 -258.5 155t-93.5 418q0 160 42.5 291t128.5 212t200 81q104 0 178 -66.5t110.5 -182t36.5 -267.5h-538v-27q0 -138 27.5 -246.5t83 -173.5t132.5 -65q83 0 149 81t103 265zM442 1040q-61 0 -105 -49.5
t-67 -128.5t-30 -186h376q0 76 -9 139t-28.5 115t-54.5 81t-82 29z" />
    <glyph glyph-name="f" unicode="f" horiz-adv-x="641" 
d="M553 1679q107 0 186.5 -63.5t79.5 -142.5q0 -47 -26.5 -73t-65.5 -26q-90 0 -96 94q-1 21 -2.5 35.5t-8 35.5t-17 33.5t-30.5 22t-47 9.5q-49 0 -82 -23t-49.5 -69t-23 -100.5t-6.5 -133.5v-203h192v-76h-192v-794q0 -70 14 -101t55 -44t131 -13v-47h-493v47q91 0 115 29
t24 129v794h-139v76h139v115q0 242 87 365.5t255 123.5z" />
    <glyph glyph-name="g" unicode="g" horiz-adv-x="972" 
d="M504 154q217 0 330.5 -59.5t113.5 -200.5q0 -102 -71 -190.5t-196.5 -142t-274.5 -53.5q-78 0 -145.5 14.5t-122.5 43.5t-86.5 78.5t-31.5 113.5q0 84 50 152.5t149 144.5q-106 39 -106 142q0 55 33.5 103.5t97.5 109.5q-63 52 -98 133t-35 182q0 174 99.5 282.5
t248.5 108.5q111 0 194 -59q115 59 232 59q67 0 67 -53q0 -49 -67 -49q-95 0 -164 -17l-12 11q100 -111 100 -283q0 -175 -100.5 -284t-249.5 -109q-97 0 -174 47q-80 -71 -80 -123q0 -53 67.5 -77.5t231.5 -24.5zM432 1042q-93 -7 -134.5 -92t-29.5 -241
q13 -156 69.5 -232.5t149.5 -70.5q92 7 134 93t28 240q-15 156 -70 234t-147 69zM465 -358q184 0 294.5 59.5t110.5 169.5q0 46 -24 76t-73.5 45.5t-111 21.5t-151.5 6q-141 0 -238 19q-78 -69 -108.5 -117t-30.5 -102q0 -83 86.5 -130.5t245.5 -47.5z" />
    <glyph glyph-name="h" unicode="h" horiz-adv-x="1042" 
d="M348 1655v-740h6q139 201 299 201q209 0 209 -285v-626q0 -100 24.5 -129t114.5 -29v-47h-423v47q85 0 109 29.5t24 128.5v626q0 175 -119 175q-110 0 -244 -166v-635q0 -100 23.5 -129t109.5 -29v-47h-424v47q90 0 115 29.5t25 128.5v1210q0 94 -9 112q-12 24 -60 4
q-16 -6 -40 -18l-20 43l147 70l109 53z" />
    <glyph glyph-name="i" unicode="i" horiz-adv-x="528" 
d="M260 1464q-44 0 -76 32.5t-32 76.5t32 75t76 31t75.5 -31t31.5 -75t-31.5 -76.5t-75.5 -32.5zM348 205q0 -100 24.5 -129t114.5 -29v-47h-430v47q90 0 115 29.5t25 128.5v647q0 94 -9 112q-12 24 -60 4q-16 -6 -40 -18l-20 43l147 70l109 53l24 -24v-887z" />
    <glyph glyph-name="j" unicode="j" horiz-adv-x="503" 
d="M268 1464q-44 0 -75 32t-31 77q0 44 31 75t75 31q45 0 77 -31t32 -75t-32.5 -76.5t-76.5 -32.5zM227 1053l109 53l24 -25v-1183q0 -190 -63 -290t-188 -100q-103 0 -162.5 49t-59.5 119q0 42 27 66.5t68 24.5q40 0 66 -25t30 -72q2 -56 11 -70q11 -16 38 -16t44.5 22
t25 69.5t10 95.5t2.5 127v944q0 94 -9 112q-12 24 -60 4q-16 -6 -40 -18l-20 43z" />
    <glyph glyph-name="k" unicode="k" horiz-adv-x="1048" 
d="M348 205q0 -100 24.5 -129t114.5 -29v-47h-430v47q90 0 115 29.5t25 128.5v1210q0 94 -9 112q-12 24 -60 4q-16 -6 -40 -18l-20 43l147 70l109 53l24 -24v-1450zM829 178q47 -82 88 -106.5t111 -24.5v-47h-450v47q97 0 105.5 20.5t-40.5 99.5q-4 7 -6 11l-248 443
l264 301q10 12 28 31q50 52 42 64.5t-102 12.5v45h366v-45q-73 0 -122 -20t-109 -88l-207 -244z" />
    <glyph glyph-name="l" unicode="l" horiz-adv-x="528" 
d="M348 205q0 -100 24.5 -129t114.5 -29v-47h-430v47q90 0 115 29.5t25 128.5v1210q0 94 -9 112q-12 24 -60 4q-16 -6 -40 -18l-20 43l147 70l109 53l24 -24v-1450z" />
    <glyph glyph-name="m" unicode="m" horiz-adv-x="1544" 
d="M1364 205q0 -100 24.5 -129t114.5 -29v-47h-420v47q83 0 106 29t23 129v633q0 87 -26 126.5t-86 39.5q-112 0 -242 -162v-11v-626q0 -100 22 -129t105 -29v-47h-410v47q84 0 107 29t23 129v633q0 87 -26.5 126.5t-84.5 39.5q-114 0 -246 -164v-635q0 -100 23 -129
t106 -29v-47h-420v47q90 0 115 29.5t25 128.5v647q0 94 -9 112q-12 24 -60 4q-16 -6 -40 -18l-20 43l147 70l109 53l24 -24v-177h6q65 95 136 148t157 53q180 0 205 -201h6q142 201 303 201q107 0 155 -73t48 -212v-626z" />
    <glyph glyph-name="n" unicode="n" horiz-adv-x="1042" 
d="M348 1092v-177h6q139 201 299 201q209 0 209 -285v-626q0 -100 24.5 -129t114.5 -29v-47h-423v47q85 0 109 29.5t24 128.5v626q0 175 -119 175q-110 0 -244 -166v-635q0 -100 23.5 -129t109.5 -29v-47h-424v47q90 0 115 29.5t25 128.5v647q0 94 -9 112q-12 24 -60 4
q-16 -6 -40 -18l-20 43l147 70l109 53z" />
    <glyph glyph-name="o" unicode="o" horiz-adv-x="1019" 
d="M510 -41q-132 0 -231 77.5t-150 208t-51 294.5t51 294t150 206.5t231 76.5t231.5 -76.5t151 -206.5t51.5 -294t-51.5 -294.5t-151 -208t-231.5 -77.5zM555 39q122 11 177.5 147t35.5 375q-22 239 -100 363t-201 114q-123 -12 -179 -147.5t-36 -376.5
q22 -238 100.5 -361.5t202.5 -113.5z" />
    <glyph glyph-name="p" unicode="p" horiz-adv-x="1030" 
d="M655 1116q77 0 136 -41t94 -113t52 -162.5t17 -197.5q0 -175 -44 -320.5t-128.5 -234t-191.5 -88.5q-161 0 -252 158h-4v-365q0 -99 24.5 -128.5t114.5 -29.5v-45h-432v45q90 0 114.5 29.5t24.5 128.5v1100v16v39t-1.5 29.5t-4 22.5t-7.5 12.5t-12 7t-18.5 -2.5t-26 -8
t-34.5 -16l-21 41l252 123l27 -24v-211h8q136 235 313 235zM563 37q60 0 104 43.5t68 118.5t34.5 160t10.5 184q0 232 -43 349.5t-143 117.5q-73 0 -142 -59t-118 -142v-410q0 -168 64 -265t165 -97z" />
    <glyph glyph-name="q" unicode="q" horiz-adv-x="1030" 
d="M737 1036l88 80l25 -24v-1340q0 -99 25 -128.5t114 -29.5v-45h-430v45q89 0 114 29.5t25 128.5v408h-8q-70 -100 -135 -150.5t-152 -50.5q-150 0 -237.5 136.5t-87.5 373.5q0 135 24.5 249.5t73 204.5t129.5 141.5t187 51.5q116 0 245 -80zM698 897q-73 143 -190 143
q-256 0 -256 -512q0 -456 219 -456q35 0 66 12t58 36.5t45 45.5t45 55q9 11 13 17v659z" />
    <glyph glyph-name="r" unicode="r" horiz-adv-x="786" 
d="M616 1116q59 0 97.5 -29.5t38.5 -78.5q0 -42 -25 -70.5t-68 -28.5q-63 0 -86 52q-16 30 -43 30q-44 0 -83.5 -42t-98.5 -142v-602q0 -69 15 -100.5t57.5 -44.5t136.5 -13v-47h-500v47q90 0 115 29.5t25 128.5v647q0 94 -9 112q-12 24 -60 4q-16 -6 -40 -18l-20 43l147 70
l109 53l24 -24v-179h6q114 203 262 203z" />
    <glyph glyph-name="s" unicode="s" horiz-adv-x="757" 
d="M104 -20v405h46q21 -157 93.5 -252.5t184.5 -95.5q135 0 135 149q0 60 -32.5 118t-66 93t-115.5 109q-10 9 -15 14q-53 46 -76.5 67.5t-60.5 61.5t-53 69t-29 69.5t-13 84.5q0 107 70 175.5t180 68.5q47 0 87.5 -13t62 -28t40.5 -28t29 -13q16 0 19.5 13t3.5 49h47v-332
h-47q-20 121 -81 198.5t-153 77.5q-63 0 -93.5 -37t-30.5 -83q0 -71 47.5 -130.5t154.5 -152.5q75 -65 118 -108.5t78 -92.5t48.5 -98t13.5 -111q0 -130 -75 -199t-185 -69q-53 0 -98.5 13t-71 28t-49 28t-35.5 13q-19 0 -25.5 -14t-6.5 -47h-46z" />
    <glyph glyph-name="t" unicode="t" horiz-adv-x="696" 
d="M608 451h47q-1 -101 -7 -174t-21 -136t-40 -101.5t-64.5 -59.5t-94.5 -21q-117 0 -177.5 88.5t-60.5 284.5v667h-163v76q135 3 193 68t67 225h55v-293h244v-76h-244v-596q0 -59 1.5 -97.5t5.5 -80.5t12.5 -67.5t22.5 -47.5t35 -32t50 -10q74 0 106 85t33 298z" />
    <glyph glyph-name="u" unicode="u" horiz-adv-x="1003" 
d="M686 -16v176h-6q-64 -94 -135 -147.5t-158 -53.5q-209 0 -209 285v618q0 37 -1 56.5t-5 39t-11.5 26t-22 10.5t-34.5 0t-51 -13l-14 45l266 76l25 -27v-831q0 -88 27.5 -131t88.5 -43q108 0 240 168v624q0 38 -0.5 56.5t-5 38.5t-11.5 26.5t-22 10.5t-35 0t-51 -13
l-12 45l264 76l27 -27l-2 -852v-16q0 -85 10 -100q13 -20 67 3l29 13l21 -41l-146 -70l-106 -53z" />
    <glyph glyph-name="v" unicode="v" horiz-adv-x="974" 
d="M723 879q31 94 15.5 122.5t-111.5 28.5v45h327v-45q-66 0 -96.5 -29.5t-56.5 -121.5l-264 -926h-93l-270 926q-26 92 -57 121.5t-97 29.5v45h418v-45q-90 0 -103.5 -28.5t17.5 -122.5l183 -641h6z" />
    <glyph glyph-name="w" unicode="w" horiz-adv-x="1468" 
d="M1448 1075v-45q-66 0 -97 -29.5t-57 -121.5l-264 -926h-92l-176 600l-184 -600h-93l-303 928q-30 91 -63 120t-99 29v45h431v-45q-97 0 -111.5 -27.5t20.5 -121.5l218 -668h6l143 465l-59 201q-26 92 -57 121.5t-97 29.5v45h418v-45q-90 0 -103.5 -28.5t17.5 -122.5
l182 -641h6l183 641q31 94 15 122.5t-112 28.5v45h328z" />
    <glyph glyph-name="x" unicode="x" horiz-adv-x="985" 
d="M762 182q41 -84 80 -109.5t108 -25.5v-47h-428v47q84 0 92.5 20.5t-31.5 94.5q-7 13 -10 20l-120 244l-127 -246q-42 -82 -45 -98q-3 -25 30 -31q21 -4 64 -4v-47h-326v47q68 0 108.5 25.5t82.5 107.5l172 330l-189 383q-41 84 -80.5 110.5t-107.5 26.5v45h428v-45
q-85 0 -93 -21.5t33 -97.5l3 -6t3 -5.5t3 -6.5l96 -197l104 199q42 82 45 99q3 26 -31 32q-21 4 -63 4v45h326v-45q-67 0 -108 -26.5t-83 -108.5l-147 -285z" />
    <glyph glyph-name="y" unicode="y" horiz-adv-x="976" 
d="M49 -354q0 42 28 69t68 27q62 0 93 -57q17 -24 28.5 -32.5t34.5 -8.5q54 0 94.5 80.5t79.5 257.5l-280 899q-28 91 -61 120t-99 29v45h434v-45q-97 0 -112.5 -28.5t16.5 -122.5l182 -627l158 627q28 94 11.5 122.5t-114.5 28.5v45h332v-45q-65 0 -95 -29t-54 -122
l-220 -842q-6 -21 -17 -63q-24 -93 -38 -140.5t-44 -121t-60.5 -110t-79.5 -65.5t-109 -29q-77 0 -126.5 38.5t-49.5 99.5z" />
    <glyph glyph-name="z" unicode="z" horiz-adv-x="854" 
d="M588 78q42 0 67 6t44.5 21t28.5 48t13 80t4 123h48v-356h-732v47l525 952h-275q-41 0 -66 -5t-44.5 -18.5t-28.5 -41t-13.5 -68t-4.5 -104.5h-45v313h684v-45l-525 -952h320z" />
    <glyph glyph-name="braceleft" unicode="{" horiz-adv-x="784" 
d="M723 1634q-63 -12 -112 -36t-78 -53t-47.5 -65t-25.5 -70t-7 -71q0 -83 46 -226t46 -241q0 -67 -19.5 -123t-51 -93t-73 -63.5t-83 -39.5t-82.5 -16v-7q53 -4 104.5 -25t98.5 -59t76.5 -103.5t29.5 -147.5q0 -80 -23 -161.5t-46 -159.5t-23 -148q0 -37 7 -71t25.5 -70
t47.5 -65t78 -53t112 -36v-45q-99 12 -174.5 44t-118 71t-68.5 90t-34.5 93t-8.5 87q0 100 34 253.5t34 231.5q0 124 -80.5 189t-204.5 65v45q124 0 204.5 65.5t80.5 188.5q0 80 -34 232.5t-34 252.5q0 45 8.5 87t34.5 93t68.5 90t118 71t174.5 44v-45z" />
    <glyph glyph-name="bar" unicode="|" horiz-adv-x="333" 
d="M102 1757h129v-2163h-129v2163z" />
    <glyph glyph-name="braceright" unicode="}" horiz-adv-x="784" 
d="M682 510q-124 0 -204.5 -65t-80.5 -189q0 -78 34 -231.5t34 -253.5q0 -45 -8.5 -87t-34.5 -93t-68.5 -90t-118 -71t-174.5 -44v45q78 15 134 47t84.5 74.5t40.5 84.5t12 89q0 70 -23 148t-46 159.5t-23 161.5q0 82 29.5 147.5t76.5 103.5t98.5 59t104.5 25v7
q-41 3 -82.5 16t-83 39.5t-73 63.5t-51 93t-19.5 123q0 98 46 241t46 226q0 47 -12 89t-40.5 84.5t-84.5 74.5t-134 47v45q99 -12 174.5 -44t118 -71t68.5 -90t34.5 -93t8.5 -87q0 -100 -34 -252.5t-34 -232.5q0 -123 80.5 -188.5t204.5 -65.5v-45z" />
    <glyph glyph-name="asciitilde" unicode="~" horiz-adv-x="1198" 
d="M1051 690h45q-3 -130 -70 -204t-176 -74q-64 0 -135.5 24t-124.5 52.5t-123 52.5t-133 24q-160 0 -184 -151h-48q4 130 71.5 204t176.5 74q63 0 134 -24t124 -52.5t124 -52.5t134 -24q158 0 185 151z" />
    <glyph glyph-name="exclamdown" unicode="&#xa1;" horiz-adv-x="425" 
d="M213 1116q44 0 75 -31t31 -75q0 -45 -31 -77t-75 -32t-76.5 32.5t-32.5 76.5t32 75t77 31zM119 -438q0 99 17 264t35.5 390.5t21.5 459.5h45q3 -234 20 -459.5t33 -390.5t16 -264q0 -89 -24 -127.5t-70 -38.5t-70 38.5t-24 127.5z" />
    <glyph glyph-name="cent" unicode="&#xa2;" horiz-adv-x="929" 
d="M776 424h47q-59 -465 -352 -465q-51 0 -94 12l-101 -422h-67l106 449q-107 58 -165 194t-58 326q0 273 111.5 435.5t292.5 162.5q37 0 82 -10l124 532h68l-131 -557q68 -36 107.5 -100t39.5 -129q0 -100 -90 -100q-92 0 -98 104q0 15 -4 39l-184 -780q52 -43 122 -43
q86 0 144 80.5t100 271.5zM266 559q0 -251 90 -387l199 840q-25 28 -70 28q-108 0 -163.5 -128.5t-55.5 -352.5z" />
    <glyph glyph-name="sterling" unicode="&#xa3;" horiz-adv-x="1110" 
d="M961 379h47q-3 -40 -6 -70t-11 -76.5t-19 -81t-30.5 -73t-44.5 -63t-62.5 -40.5t-82.5 -16q-39 0 -77 11.5t-82 39.5t-65 44t-71 55q-86 -150 -201 -150q-71 0 -112.5 44.5t-41.5 117.5q0 80 50.5 125t121.5 45q55 0 117 -27q17 119 17 287q0 83 -13 215h-215v65h205
q-5 30 -17.5 98.5t-18.5 106.5t-11.5 102t-5.5 128q0 189 88 301t260 112q122 0 199 -67.5t77 -159.5q0 -42 -27.5 -68t-66.5 -26t-67.5 24t-28.5 66v8q0 30 -0.5 45t-5.5 38t-15 35t-30 21t-49 9q-61 0 -102 -41.5t-58 -108.5t-17 -158q0 -107 30.5 -267t35.5 -198h258v-65
h-252q6 -68 6 -152q0 -230 -65 -409q44 -27 74.5 -42.5t77.5 -29.5t94 -14q97 0 148 64t65 196zM256 37q80 0 117 135q-59 43 -109 43q-38 0 -61 -25.5t-23 -66.5q0 -37 19.5 -61.5t56.5 -24.5z" />
    <glyph glyph-name="currency" unicode="&#xa4;" horiz-adv-x="1312" 
d="M1108 745q0 -155 -94 -276l196 -199l-80 -77l-196 196q-121 -94 -277 -94q-154 0 -278 94l-197 -196l-80 77l197 199q-94 121 -94 276t94 279l-197 197l80 79l197 -198q123 96 278 96q157 0 277 -96l196 198l80 -79l-196 -197q94 -124 94 -279zM317 745q0 -140 98 -238.5
t242 -98.5q142 0 240 98.5t98 238.5t-98 240t-240 100q-144 0 -242 -99.5t-98 -240.5z" />
    <glyph glyph-name="yen" unicode="&#xa5;" horiz-adv-x="1599" 
d="M1436 1593q-95 0 -140.5 -27t-85.5 -114l-286 -631h456v-67h-487l-14 -33v-141h501v-66h-501v-309q0 -51 6 -78t29 -47t64.5 -26.5t115.5 -6.5v-47h-611v47q98 0 143.5 14.5t59.5 45t14 98.5v309h-481v66h481v141l-16 33h-465v67h430l-317 635q-41 85 -87.5 111
t-142.5 26v45h570v-45q-37 0 -63 -1t-45 -5.5t-31 -7.5t-16.5 -13.5t-5.5 -17t5.5 -24.5t12 -30t18.5 -38l299 -608h6l274 604q12 27 17 39.5t10.5 30.5t4.5 25.5t-6.5 18t-17.5 13.5t-31.5 7.5t-45.5 5.5t-64 1v45h443v-45z" />
    <glyph glyph-name="brokenbar" unicode="&#xa6;" horiz-adv-x="333" 
d="M102 1634h129v-774h-129v774zM102 492h129v-775h-129v775z" />
    <glyph glyph-name="section" unicode="&#xa7;" horiz-adv-x="841" 
d="M739 717q0 -174 -200 -334q131 -143 131 -295q0 -135 -79 -209t-192 -74q-117 0 -188.5 63.5t-71.5 139.5q0 39 21 64.5t57 25.5q35 0 56.5 -22.5t23.5 -59.5q2 -28 6 -47t15.5 -44.5t37 -39.5t62.5 -14q81 0 125.5 52t44.5 136q0 74 -54 144.5t-190 185.5
q-137 109 -189.5 188t-52.5 193q0 55 17.5 105.5t50 92.5t63 72t70.5 62q-131 146 -131 295q0 135 78.5 208.5t191.5 73.5q116 0 188 -63.5t72 -138.5q0 -39 -20.5 -63.5t-56.5 -24.5q-35 0 -57 21t-25 58q-1 27 -5 47t-15 45.5t-37 39.5t-64 14q-79 0 -123.5 -52.5
t-44.5 -134.5q0 -75 54 -145t190 -184q137 -111 189 -189.5t52 -191.5zM442 477l66 -59q67 58 103 117.5t36 132.5q0 37 -10.5 70t-25 59t-51.5 64t-67 64.5t-94 82.5q-20 16 -65 61q-68 -60 -103.5 -118.5t-35.5 -131.5q0 -38 10.5 -71.5t25 -59.5t51 -63.5t66.5 -65
t94 -82.5z" />
    <glyph glyph-name="dieresis" unicode="&#xa8;" horiz-adv-x="798" 
d="M211 1362q-44 0 -76.5 32t-32.5 76t32.5 75.5t76.5 31.5t75 -31.5t31 -75.5t-31 -76t-75 -32zM590 1362q-44 0 -76.5 32t-32.5 76t32.5 75.5t76.5 31.5t75 -31.5t31 -75.5t-31 -76t-75 -32z" />
    <glyph glyph-name="copyright" unicode="&#xa9;" horiz-adv-x="1884" 
d="M944 1686q176 0 332.5 -67.5t268.5 -183t177.5 -277t65.5 -341.5q0 -176 -65.5 -335t-177 -275.5t-269 -185t-332.5 -68.5q-178 0 -335.5 68.5t-269 185t-176.5 275.5t-65 335q0 181 65 342t176.5 276.5t269 183t335.5 67.5zM944 1618q-166 0 -311.5 -63.5t-248 -171
t-161.5 -255t-59 -311.5t59 -311.5t161.5 -254t248 -169t311.5 -62.5q215 0 393.5 106t280.5 289t102 402q0 163 -60 311t-163 255.5t-247.5 171t-305.5 63.5zM424 815q0 231 145 382t361 151q76 0 141.5 -18.5t101 -41t65 -41t40.5 -18.5q12 0 16 14.5t4 63.5h45l31 -379
h-45q-21 164 -125.5 253t-259.5 89q-164 0 -273.5 -126.5t-109.5 -328.5q0 -204 113 -330.5t291 -126.5q158 0 272.5 97t161.5 274h45q-53 -212 -180 -329t-330 -117q-225 0 -367.5 149.5t-142.5 382.5z" />
    <glyph glyph-name="guillemotleft" unicode="&#xab;" horiz-adv-x="899" 
d="M262 600l225 -500h-45l-329 500l329 494h45zM580 600l227 -500h-47l-330 500l330 494h47z" />
    <glyph glyph-name="logicalnot" unicode="&#xac;" horiz-adv-x="1212" 
d="M102 885h1008v-555h-129v426h-879v129z" />
    <glyph glyph-name="registered" unicode="&#xae;" horiz-adv-x="1888" 
d="M944 1686q176 0 333 -67.5t269.5 -183t178 -276t65.5 -340.5q0 -176 -65.5 -336t-178 -276.5t-270 -185t-332.5 -68.5q-178 0 -335.5 68.5t-269 185t-176.5 276.5t-65 336q0 240 110 439t304.5 313.5t431.5 114.5zM944 20q215 0 394.5 106.5t282.5 290t103 402.5
q0 218 -103 401.5t-282.5 290.5t-394.5 107q-166 0 -311.5 -63t-248 -170.5t-161.5 -254.5t-59 -311t59 -311.5t161.5 -255t248 -170t311.5 -62.5zM1210 459q50 -76 92.5 -99.5t102.5 -23.5v-47h-223l-291 450h-33h-117v-245q0 -98 18.5 -128t88.5 -30v-47h-336v47
q70 0 89.5 30.5t19.5 127.5v657q0 97 -19.5 127.5t-89.5 30.5v45h342q426 0 426 -307q0 -243 -262 -293zM844 807q157 0 233 56t76 184q0 127 -73 184t-216 57q-73 0 -123 -16v-465h103z" />
    <glyph glyph-name="macron" unicode="&#xaf;" horiz-adv-x="757" 
d="M102 1497h553v-76h-553v76z" />
    <glyph glyph-name="degree" unicode="&#xb0;" horiz-adv-x="1050" 
d="M526 840q-180 0 -302 121.5t-122 300.5q0 180 122 302t302 122q179 0 300.5 -122t121.5 -302q0 -178 -122 -300t-300 -122zM526 946q132 0 224 91.5t92 224.5t-92 224t-224 91q-134 0 -224.5 -90.5t-90.5 -224.5t91 -225t224 -91z" />
    <glyph glyph-name="plusminus" unicode="&#xb1;" horiz-adv-x="1024" 
d="M102 637v129h349v346h127v-346h344v-129h-344v-344h-127v344h-349zM102 90v127h820v-127h-820z" />
    <glyph glyph-name="acute" unicode="&#xb4;" horiz-adv-x="495" 
d="M98 1284l138 371h184l-250 -371h-72z" />
    <glyph glyph-name="paragraph" unicode="&#xb6;" horiz-adv-x="1292" 
d="M1190 1679v-45q-74 0 -115.5 -6t-64.5 -26t-29 -47t-6 -78v-1825h-92v1952h-230v-1952h-92v1259q-209 0 -334 99t-125 286q0 185 125 284t334 99h629z" />
    <glyph glyph-name="periodcentered" unicode="&#xb7;" horiz-adv-x="419" 
d="M211 707q-44 0 -76.5 32t-32.5 76t32.5 75.5t76.5 31.5t75 -31.5t31 -75.5t-31 -76t-75 -32z" />
    <glyph glyph-name="cedilla" unicode="&#xb8;" horiz-adv-x="657" 
d="M221 -152l168 172h76l-105 -129q81 -7 138 -48.5t57 -114.5q0 -92 -68.5 -150.5t-169 -76t-215.5 -3.5l13 47q144 -11 227.5 30t83.5 134q0 77 -53 107t-152 32z" />
    <glyph glyph-name="guillemotright" unicode="&#xbb;" horiz-adv-x="899" 
d="M319 600l-227 494h47l328 -494l-328 -500h-47zM637 600l-227 494h47l329 -494l-329 -500h-47z" />
    <glyph glyph-name="onequarter" unicode="&#xbc;" horiz-adv-x="1527" 
d="M369 795q0 -60 17 -77.5t77 -17.5v-28h-297v28q60 0 76 17.5t16 77.5v706q0 28 -1.5 39.5t-5.5 22t-16.5 8.5t-30.5 -8.5t-50 -22.5l-13 25l135 67l76 39l17 -16v-860zM1223 1638h82l-1018 -1638h-82zM768 274v80l416 629h88v-629h114v-80h-114v-151q0 -59 16.5 -76.5
t77.5 -17.5v-29h-297v29q61 0 77.5 17.5t16.5 76.5v151h-395zM829 354h334v520l-334 -516v-4z" />
    <glyph glyph-name="onehalf" unicode="&#xbd;" horiz-adv-x="1746" 
d="M369 795q0 -60 17 -77.5t77 -17.5v-28h-297v28q60 0 76 17.5t16 77.5v706q0 28 -1.5 39.5t-5.5 22t-16.5 8.5t-30.5 -8.5t-50 -22.5l-13 25l135 67l76 39l17 -16v-860zM1249 1638h80l-1018 -1638h-80zM1446 88q57 0 83 24t54 101l27 -10l-49 -131l-27 -72h-573v29
q93 87 154 148t128 138t105.5 138t64 130.5t25.5 133.5q0 91 -42.5 147t-133.5 56q-108 0 -168.5 -77t-63.5 -206h-33q0 170 83.5 270.5t232.5 100.5q118 0 179.5 -69.5t61.5 -176.5q0 -86 -41 -178t-115 -181.5t-146.5 -160.5t-166.5 -150v-2z" />
    <glyph glyph-name="threequarters" unicode="&#xbe;" horiz-adv-x="1703" 
d="M152 719q0 20 15.5 30.5t39.5 10.5q41 0 72 -39q43 -43 110 -43q79 0 137 58.5t58 166.5q0 243 -265 258v29q207 68 207 240q0 67 -38.5 112t-110.5 45q-145 0 -187 -149h-30q17 108 85.5 166.5t172.5 58.5q98 0 161.5 -59.5t63.5 -159.5q0 -159 -194 -242v-4
q114 -14 182.5 -83t68.5 -185q0 -133 -98 -216t-237 -83q-82 0 -147.5 24.5t-65.5 63.5zM1407 1638h82l-1018 -1638h-82zM946 274v80l414 629h90v-629h115v-80h-115v-151q0 -60 16 -77t78 -17v-29h-299v29q61 0 77.5 17.5t16.5 76.5v151h-393zM1008 354h331v520l-331 -516
v-4z" />
    <glyph glyph-name="questiondown" unicode="&#xbf;" horiz-adv-x="870" 
d="M446 1106q44 0 75.5 -31.5t31.5 -75.5t-31.5 -76t-75.5 -32t-76 32t-32 76t32 75.5t76 31.5zM236 -297q0 -110 51 -176t147 -66q84 0 132 53.5t48 123.5q0 41 -15 68.5t-29.5 51.5t-14.5 54q0 38 25 58.5t65 20.5q53 0 88 -53t35 -141q0 -129 -95.5 -220t-256.5 -91
t-258 86t-97 221q0 72 20 134.5t52 112t70.5 99.5t77.5 109.5t71 128t52 169t20 220.5h45q0 -181 -24 -319t-58.5 -217t-68.5 -142t-58 -133t-24 -152z" />
    <glyph glyph-name="Agrave" unicode="&#xc0;" horiz-adv-x="1472" 
d="M834 1837h-72l-250 371h184zM1249 195q29 -92 69 -120t134 -28v-47h-557v47q98 0 135.5 12t40 45t-19.5 91l-103 321h-549l-100 -321q-22 -58 -19.5 -91t40 -45t135.5 -12v-47h-435v47q94 0 133 28t68 120l467 1491h82zM424 594h500l-250 782h-6z" />
    <glyph glyph-name="Aacute" unicode="&#xc1;" horiz-adv-x="1472" 
d="M973 2208l-250 -371h-72l137 371h185zM1249 195q29 -92 69 -120t134 -28v-47h-557v47q98 0 135.5 12t40 45t-19.5 91l-103 321h-549l-100 -321q-22 -58 -19.5 -91t40 -45t135.5 -12v-47h-435v47q94 0 133 28t68 120l467 1491h82zM424 594h500l-250 782h-6z" />
    <glyph glyph-name="Acircumflex" unicode="&#xc2;" horiz-adv-x="1472" 
d="M731 2095l-203 -264h-71l188 371h174l189 -371h-72zM1249 195q29 -92 69 -120t134 -28v-47h-557v47q98 0 135.5 12t40 45t-19.5 91l-103 321h-549l-100 -321q-22 -58 -19.5 -91t40 -45t135.5 -12v-47h-435v47q94 0 133 28t68 120l467 1491h82zM424 594h500l-250 782h-6z
" />
    <glyph glyph-name="Atilde" unicode="&#xc3;" horiz-adv-x="1472" 
d="M573 2054q-51 0 -73.5 -33.5t-28.5 -103.5h-47q19 260 164 260q43 0 85.5 -21.5t72 -47t68.5 -47t75 -21.5q51 0 73.5 33.5t30.5 103.5h45q-15 -260 -161 -260q-43 0 -86 21.5t-72.5 47t-69 47t-76.5 21.5zM1249 195q29 -92 69 -120t134 -28v-47h-557v47q98 0 135.5 12
t40 45t-19.5 91l-103 321h-549l-100 -321q-22 -58 -19.5 -91t40 -45t135.5 -12v-47h-435v47q94 0 133 28t68 120l467 1491h82zM424 594h500l-250 782h-6z" />
    <glyph glyph-name="Adieresis" unicode="&#xc4;" horiz-adv-x="1472" 
d="M543 1915q-44 0 -76.5 32t-32.5 76t32.5 75.5t76.5 31.5t75 -31.5t31 -75.5t-31 -76t-75 -32zM922 1915q-44 0 -76.5 32t-32.5 76t32.5 75.5t76.5 31.5t75 -31.5t31 -75.5t-31 -76t-75 -32zM1249 195q29 -92 69 -120t134 -28v-47h-557v47q98 0 135.5 12t40 45t-19.5 91
l-103 321h-549l-100 -321q-22 -58 -19.5 -91t40 -45t135.5 -12v-47h-435v47q94 0 133 28t68 120l467 1491h82zM424 594h500l-250 782h-6z" />
    <glyph glyph-name="Aring" unicode="&#xc5;" horiz-adv-x="1472" 
d="M731 1841q-88 0 -146.5 60.5t-58.5 144.5q0 82 59 142.5t146 60.5t145 -60.5t58 -142.5q0 -84 -58 -144.5t-145 -60.5zM731 2177q-63 0 -98 -39.5t-35 -91.5q0 -54 34.5 -93.5t98.5 -39.5q62 0 96.5 39.5t34.5 93.5q0 52 -34.5 91.5t-96.5 39.5zM1249 195q29 -92 69 -120
t134 -28v-47h-557v47q98 0 135.5 12t40 45t-19.5 91l-103 321h-549l-100 -321q-22 -58 -19.5 -91t40 -45t135.5 -12v-47h-435v47q94 0 133 28t68 120l467 1491h82zM424 594h500l-250 782h-6z" />
    <glyph glyph-name="AE" unicode="&#xc6;" horiz-adv-x="1804" 
d="M1739 438l43 -14l-121 -424h-965v47q74 0 115.5 6.5t64.5 26.5t29 47t6 78v332h-442l-147 -349q-11 -27 -16 -40t-10 -31t-3.5 -25.5t7 -17.5t17.5 -13.5t32 -7.5t46 -5t64 -1v-47h-439v47q95 0 139 26.5t81 114.5l536 1262q31 78 28 99q-4 32 -64 40q-36 4 -101 4v45
h1018l4 -49l37 -323l-45 -4q-16 134 -37.5 197t-55 83.5t-100.5 20.5h-370v-664h256q41 0 65 4.5t44 17.5t29 40.5t14 68.5t5 107h45v-553h-45q0 108 -14.5 157.5t-44.5 64.5t-98 15h-256v-626q0 -72 18 -94.5t78 -22.5l293 -2q66 0 104.5 26t74 101.5t81.5 234.5zM502 614
h409v949h-6z" />
    <glyph glyph-name="Ccedilla" unicode="&#xc7;" horiz-adv-x="1323" 
d="M1282 662q-24 -196 -84 -343t-166.5 -242.5t-249.5 -113.5l-65 -82q81 -7 137.5 -49t56.5 -115q0 -92 -68 -150t-168 -75.5t-216 -3.5l12 47q144 -11 227.5 30t83.5 134q0 77 -53 107t-151 32l118 121q-188 6 -330 121t-215 307t-73 432q0 244 78.5 439t227 308
t341.5 113q73 0 140 -18t105.5 -40t72.5 -40t49 -18q21 0 28.5 17.5t7.5 78.5h48l30 -563h-47q-51 508 -405 508q-148 0 -259 -105.5t-167 -282t-56 -397.5q0 -220 56 -394t165.5 -276t256.5 -102q193 0 321.5 165t165.5 450h45z" />
    <glyph glyph-name="Egrave" unicode="&#xc8;" horiz-adv-x="1243" 
d="M729 1792h-72l-249 371h184zM1090 1638l4 -49l36 -323l-45 -4q-16 134 -37.5 197t-54.5 83.5t-100 20.5h-457v-664h291q68 0 98.5 15.5t45 65t14.5 157.5h45v-553h-45q0 107 -14.5 157t-45 65t-98.5 15h-291v-626q0 -72 18 -94.5t78 -22.5l386 -2q66 0 104.5 26
t73.5 101.5t80 234.5l45 -14l-121 -424h-1059v47q98 0 143.5 14.5t59.5 45t14 98.5v1231q0 51 -6 78t-29.5 47t-65 26t-116.5 6v45h1049z" />
    <glyph glyph-name="Eacute" unicode="&#xc9;" horiz-adv-x="1243" 
d="M547 1792l137 371h184l-250 -371h-71zM1090 1638l4 -49l36 -323l-45 -4q-16 134 -37.5 197t-54.5 83.5t-100 20.5h-457v-664h291q68 0 98.5 15.5t45 65t14.5 157.5h45v-553h-45q0 107 -14.5 157t-45 65t-98.5 15h-291v-626q0 -72 18 -94.5t78 -22.5l386 -2q66 0 104.5 26
t73.5 101.5t80 234.5l45 -14l-121 -424h-1059v47q98 0 143.5 14.5t59.5 45t14 98.5v1231q0 51 -6 78t-29.5 47t-65 26t-116.5 6v45h1049z" />
    <glyph glyph-name="Ecircumflex" unicode="&#xca;" horiz-adv-x="1243" 
d="M627 2050l-203 -264h-72l189 371h174l188 -371h-72zM1176 438l45 -14l-121 -424h-1059v47q98 0 143.5 14.5t59.5 45t14 98.5v1231q0 51 -6 78t-29.5 47t-65 26t-116.5 6v45h1049l4 -49l36 -323l-45 -4q-16 134 -37.5 197t-54.5 83.5t-100 20.5h-457v-664h291
q68 0 98.5 15.5t45 65t14.5 157.5h45v-553h-45q0 107 -14.5 157t-45 65t-98.5 15h-291v-626q0 -72 18 -94.5t78 -22.5l386 -2q66 0 104.5 26t73.5 101.5t80 234.5z" />
    <glyph glyph-name="Edieresis" unicode="&#xcb;" horiz-adv-x="1243" 
d="M438 1870q-44 0 -76 32t-32 76t32 75.5t76 31.5t75.5 -31.5t31.5 -75.5t-31.5 -76t-75.5 -32zM817 1870q-44 0 -76 32t-32 76t32 75.5t76 31.5t75.5 -31.5t31.5 -75.5t-31.5 -76t-75.5 -32zM1090 1638l4 -49l36 -323l-45 -4q-16 134 -37.5 197t-54.5 83.5t-100 20.5h-457
v-664h291q68 0 98.5 15.5t45 65t14.5 157.5h45v-553h-45q0 107 -14.5 157t-45 65t-98.5 15h-291v-626q0 -72 18 -94.5t78 -22.5l386 -2q66 0 104.5 26t73.5 101.5t80 234.5l45 -14l-121 -424h-1059v47q98 0 143.5 14.5t59.5 45t14 98.5v1231q0 51 -6 78t-29.5 47t-65 26
t-116.5 6v45h1049z" />
    <glyph glyph-name="Igrave" unicode="&#xcc;" horiz-adv-x="692" 
d="M451 1792h-72l-250 371h184zM258 1436q0 51 -6 78t-29.5 47t-65 26t-116.5 6v45h610v-45q-74 0 -115.5 -6t-64.5 -26t-29 -47t-6 -78v-1231q0 -51 6 -78t29 -47t64.5 -26.5t115.5 -6.5v-47h-610v47q98 0 143.5 14.5t59.5 45t14 98.5v1231z" />
    <glyph glyph-name="Iacute" unicode="&#xcd;" horiz-adv-x="692" 
d="M268 1792l138 371h184l-250 -371h-72zM258 1436q0 51 -6 78t-29.5 47t-65 26t-116.5 6v45h610v-45q-74 0 -115.5 -6t-64.5 -26t-29 -47t-6 -78v-1231q0 -51 6 -78t29 -47t64.5 -26.5t115.5 -6.5v-47h-610v47q98 0 143.5 14.5t59.5 45t14 98.5v1231z" />
    <glyph glyph-name="Icircumflex" unicode="&#xce;" horiz-adv-x="692" 
d="M346 2050l-203 -264h-71l188 371h174l189 -371h-72zM651 1593q-74 0 -115.5 -6t-64.5 -26t-29 -47t-6 -78v-1231q0 -51 6 -78t29 -47t64.5 -26.5t115.5 -6.5v-47h-610v47q98 0 143.5 14.5t59.5 45t14 98.5v1231q0 51 -6 78t-29.5 47t-65 26t-116.5 6v45h610v-45z" />
    <glyph glyph-name="Idieresis" unicode="&#xcf;" horiz-adv-x="692" 
d="M158 1870q-44 0 -76.5 32t-32.5 76t32.5 75.5t76.5 31.5t75 -31.5t31 -75.5t-31 -76t-75 -32zM537 1870q-44 0 -76.5 32t-32.5 76t32.5 75.5t76.5 31.5t75 -31.5t31 -75.5t-31 -76t-75 -32zM258 1436q0 51 -6 78t-29.5 47t-65 26t-116.5 6v45h610v-45q-74 0 -115.5 -6
t-64.5 -26t-29 -47t-6 -78v-1231q0 -51 6 -78t29 -47t64.5 -26.5t115.5 -6.5v-47h-610v47q98 0 143.5 14.5t59.5 45t14 98.5v1231z" />
    <glyph glyph-name="Eth" unicode="&#xd0;" horiz-adv-x="1519" 
d="M651 1638q170 0 314 -53t251 -153.5t167.5 -257.5t60.5 -355q0 -197 -62.5 -354.5t-171 -258t-251.5 -153.5t-308 -53h-610v47q98 0 143.5 14.5t59.5 45t14 98.5v645h-176v61h176v525q0 51 -6 78t-29.5 47t-65 26t-116.5 6v45h610zM651 78q280 0 439 199.5t159 541.5
t-159.5 543t-438.5 201q-137 0 -215 -37v-615h385v-61h-385v-735q78 -37 215 -37z" />
    <glyph glyph-name="Ntilde" unicode="&#xd1;" horiz-adv-x="1554" 
d="M590 2009q-51 0 -74 -34t-29 -103h-47q19 260 164 260q43 0 85.5 -21.5t72 -47t68.5 -47t75 -21.5q51 0 74 33.5t31 103.5h45q-15 -260 -162 -260q-43 0 -86 21.5t-72.5 47t-68.5 47t-76 21.5zM1513 1638v-45q-75 0 -116.5 -6t-65 -26t-29.5 -47t-6 -78v-1483h-82
l-880 1436v-1184q0 -68 14 -98.5t59.5 -45t143.5 -14.5v-47h-510v47q98 0 143.5 14.5t59.5 45t14 98.5v1302q-39 52 -86.5 69t-130.5 17v45h360l813 -1321h7v1119q0 51 -6 78t-29.5 47t-65 26t-116.5 6v45h509z" />
    <glyph glyph-name="Ograve" unicode="&#xd2;" horiz-adv-x="1396" 
d="M803 1792h-72l-250 371h185zM698 -41q-143 0 -261 68t-196 185t-120.5 273t-42.5 334t42.5 334t120.5 273t196 185t261 68q144 0 262.5 -68t197 -185t121 -273t42.5 -334t-42.5 -334t-121 -273t-197 -185t-262.5 -68zM768 35q128 11 215.5 113t123.5 284t15 424
q-32 367 -164 567t-327 183q-196 -19 -293.5 -239.5t-65.5 -584.5q34 -366 166.5 -566t329.5 -181z" />
    <glyph glyph-name="Oacute" unicode="&#xd3;" horiz-adv-x="1396" 
d="M621 1792l137 371h184l-250 -371h-71zM698 -41q-143 0 -261 68t-196 185t-120.5 273t-42.5 334t42.5 334t120.5 273t196 185t261 68q144 0 262.5 -68t197 -185t121 -273t42.5 -334t-42.5 -334t-121 -273t-197 -185t-262.5 -68zM768 35q128 11 215.5 113t123.5 284t15 424
q-32 367 -164 567t-327 183q-196 -19 -293.5 -239.5t-65.5 -584.5q34 -366 166.5 -566t329.5 -181z" />
    <glyph glyph-name="Ocircumflex" unicode="&#xd4;" horiz-adv-x="1396" 
d="M698 2050l-202 -264h-72l188 371h174l189 -371h-72zM698 1679q144 0 262.5 -68t197 -185t121 -273t42.5 -334t-42.5 -334t-121 -273t-197 -185t-262.5 -68q-143 0 -261 68t-196 185t-120.5 273t-42.5 334t42.5 334t120.5 273t196 185t261 68zM768 35q128 11 215.5 113
t123.5 284t15 424q-32 367 -164 567t-327 183q-196 -19 -293.5 -239.5t-65.5 -584.5q34 -366 166.5 -566t329.5 -181z" />
    <glyph glyph-name="Otilde" unicode="&#xd5;" horiz-adv-x="1396" 
d="M844 1872q-43 0 -86 21.5t-72.5 47t-68.5 47t-76 21.5q-51 0 -74 -34t-29 -103h-47q19 260 164 260q43 0 85.5 -21.5t72 -47t68.5 -47t75 -21.5q51 0 74 33.5t31 103.5h45q-15 -260 -162 -260zM698 -41q-143 0 -261 68t-196 185t-120.5 273t-42.5 334t42.5 334t120.5 273
t196 185t261 68q144 0 262.5 -68t197 -185t121 -273t42.5 -334t-42.5 -334t-121 -273t-197 -185t-262.5 -68zM768 35q128 11 215.5 113t123.5 284t15 424q-32 367 -164 567t-327 183q-196 -19 -293.5 -239.5t-65.5 -584.5q34 -366 166.5 -566t329.5 -181z" />
    <glyph glyph-name="Odieresis" unicode="&#xd6;" horiz-adv-x="1396" 
d="M510 1870q-44 0 -76.5 32t-32.5 76t32.5 75.5t76.5 31.5t75 -31.5t31 -75.5t-31 -76t-75 -32zM889 1870q-44 0 -76.5 32t-32.5 76t32.5 75.5t76.5 31.5t75 -31.5t31 -75.5t-31 -76t-75 -32zM698 -41q-143 0 -261 68t-196 185t-120.5 273t-42.5 334t42.5 334t120.5 273
t196 185t261 68q144 0 262.5 -68t197 -185t121 -273t42.5 -334t-42.5 -334t-121 -273t-197 -185t-262.5 -68zM768 35q128 11 215.5 113t123.5 284t15 424q-32 367 -164 567t-327 183q-196 -19 -293.5 -239.5t-65.5 -584.5q34 -366 166.5 -566t329.5 -181z" />
    <glyph glyph-name="multiply" unicode="&#xd7;" horiz-adv-x="876" 
d="M102 795l91 92l245 -246l246 244l90 -90l-244 -246l242 -242l-90 -90l-244 242l-243 -244l-91 90l244 244z" />
    <glyph glyph-name="Oslash" unicode="&#xd8;" horiz-adv-x="1437" 
d="M1128 1466q93 -118 143 -285.5t50 -361.5q0 -178 -42.5 -334t-121 -273t-197 -185t-262.5 -68q-208 0 -360 139l-129 -225l-53 31l139 239q-105 118 -161 294t-56 382q0 178 42.5 334t120.5 273t196 185t261 68q227 0 387 -163l146 251l53 -30zM272 782q27 -288 115 -475
l608 1051q-66 130 -159 193.5t-205 54.5q-196 -19 -293.5 -239.5t-65.5 -584.5zM768 35q128 11 215.5 113t123.5 284t15 424q-21 254 -96 434l-604 -1048q137 -225 346 -207z" />
    <glyph glyph-name="Ugrave" unicode="&#xd9;" horiz-adv-x="1576" 
d="M942 1792h-72l-249 371h184zM1243 1436q0 51 -6 78t-29.5 47t-65 26t-116.5 6v45h510v-45q-75 0 -116.5 -6t-65 -26t-29.5 -47t-6 -78v-947q0 -81 -13 -152.5t-47 -142.5t-87.5 -121.5t-141 -82t-201.5 -31.5q-151 0 -263 41.5t-178.5 116t-98 170.5t-31.5 213v936
q0 51 -6 78t-29.5 47t-65 26t-116.5 6v45h610v-45q-74 0 -115.5 -6t-64.5 -26t-29 -47t-6 -78v-947q0 -234 102 -343t308 -109q187 0 292 110t105 342v947z" />
    <glyph glyph-name="Uacute" unicode="&#xda;" horiz-adv-x="1576" 
d="M760 1792l137 371h184l-250 -371h-71zM1243 1436q0 51 -6 78t-29.5 47t-65 26t-116.5 6v45h510v-45q-75 0 -116.5 -6t-65 -26t-29.5 -47t-6 -78v-947q0 -81 -13 -152.5t-47 -142.5t-87.5 -121.5t-141 -82t-201.5 -31.5q-151 0 -263 41.5t-178.5 116t-98 170.5t-31.5 213
v936q0 51 -6 78t-29.5 47t-65 26t-116.5 6v45h610v-45q-74 0 -115.5 -6t-64.5 -26t-29 -47t-6 -78v-947q0 -234 102 -343t308 -109q187 0 292 110t105 342v947z" />
    <glyph glyph-name="Ucircumflex" unicode="&#xdb;" horiz-adv-x="1576" 
d="M840 2050l-203 -264h-72l189 371h174l188 -371h-72zM1536 1638v-45q-75 0 -116.5 -6t-65 -26t-29.5 -47t-6 -78v-947q0 -81 -13 -152.5t-47 -142.5t-87.5 -121.5t-141 -82t-201.5 -31.5q-151 0 -263 41.5t-178.5 116t-98 170.5t-31.5 213v936q0 51 -6 78t-29.5 47t-65 26
t-116.5 6v45h610v-45q-74 0 -115.5 -6t-64.5 -26t-29 -47t-6 -78v-947q0 -234 102 -343t308 -109q187 0 292 110t105 342v947q0 51 -6 78t-29.5 47t-65 26t-116.5 6v45h510z" />
    <glyph glyph-name="Udieresis" unicode="&#xdc;" horiz-adv-x="1576" 
d="M651 1870q-44 0 -76 32t-32 76t32 75.5t76 31.5t75.5 -31.5t31.5 -75.5t-31.5 -76t-75.5 -32zM1030 1870q-44 0 -76 32t-32 76t32 75.5t76 31.5t75.5 -31.5t31.5 -75.5t-31.5 -76t-75.5 -32zM1243 1436q0 51 -6 78t-29.5 47t-65 26t-116.5 6v45h510v-45q-75 0 -116.5 -6
t-65 -26t-29.5 -47t-6 -78v-947q0 -81 -13 -152.5t-47 -142.5t-87.5 -121.5t-141 -82t-201.5 -31.5q-151 0 -263 41.5t-178.5 116t-98 170.5t-31.5 213v936q0 51 -6 78t-29.5 47t-65 26t-116.5 6v45h610v-45q-74 0 -115.5 -6t-64.5 -26t-29 -47t-6 -78v-947q0 -234 102 -343
t308 -109q187 0 292 110t105 342v947z" />
    <glyph glyph-name="Yacute" unicode="&#xdd;" horiz-adv-x="1374" 
d="M662 1792l137 371h184l-250 -371h-71zM797 205q0 -51 6 -78t29 -47t64.5 -26.5t115.5 -6.5v-47h-611v47q98 0 143.5 14.5t59.5 45t14 98.5v516l-368 735q-41 85 -87.5 111t-142.5 26v45h570v-45q-37 0 -63 -1t-45 -5.5t-31 -7.5t-16.5 -13.5t-5.5 -17t5.5 -24.5t12 -30
t18.5 -38l299 -608h6l274 604q12 27 17 39.5t10.5 30.5t4.5 25.5t-6.5 18t-17.5 13.5t-31.5 7.5t-45.5 5.5t-64 1v45h443v-45q-95 0 -140.5 -27t-85.5 -114l-331 -731v-516z" />
    <glyph glyph-name="Thorn" unicode="&#xde;" horiz-adv-x="1247" 
d="M41 0v47q98 0 143.5 14.5t59.5 45t14 98.5v1231q0 51 -6 78t-29.5 47t-65 26t-116.5 6v45h610v-45q-74 0 -115.5 -6t-64.5 -26t-29 -47t-6 -78v-150h197q259 0 406 -118.5t147 -350.5q0 -112 -38 -201.5t-104.5 -144.5t-151 -84t-181.5 -29q-107 0 -275 45v-198
q0 -51 6 -78t29 -47t64.5 -26.5t115.5 -6.5v-47h-610zM668 436q141 0 232 101.5t91 279.5q0 188 -103 289.5t-261 101.5q-107 0 -191 -37v-694q115 -41 232 -41z" />
    <glyph glyph-name="germandbls" unicode="&#xdf;" horiz-adv-x="1118" 
d="M92 0v47q91 0 115 29t24 129v870h-129v47q76 0 102.5 24.5t26.5 102.5q0 115 29 200t82 134.5t119.5 72.5t148.5 23q163 0 259 -86.5t96 -236.5q0 -118 -72.5 -219.5t-218.5 -169.5v-6q155 -34 269 -185t114 -358q0 -204 -79.5 -331.5t-219.5 -127.5q-105 0 -151 44.5
t-46 107.5q0 36 22.5 60t59.5 24t57 -25.5t17 -63.5q0 -8 -2 -27t-1.5 -25.5t4 -16.5t12.5 -13.5t24 -3.5q64 0 96.5 104t32.5 271q0 242 -104.5 379t-266.5 137v45q126 60 202.5 165t76.5 227q0 115 -49 185.5t-142 70.5q-215 0 -215 -344v-1055q0 -100 24 -129t115 -29
v-47h-432z" />
    <glyph glyph-name="agrave" unicode="&#xe0;" horiz-adv-x="919" 
d="M555 1284h-72l-250 371h185zM854 137h45q-26 -91 -59.5 -134.5t-104.5 -43.5q-149 0 -149 191v22h-4q-16 -28 -29 -47.5t-42.5 -54t-58.5 -56t-74 -38.5t-93 -17q-106 0 -165 69.5t-59 186.5q0 70 22.5 129t57 99.5t88.5 77.5t104 62t116 56q9 4 14 6t12.5 5.5t13.5 6.5
l97 45v99q0 49 -3 83.5t-13 68.5t-27.5 54.5t-48 33t-72.5 12.5q-65 0 -108.5 -29t-43.5 -76q0 -23 17.5 -61t17.5 -64q0 -32 -25 -51.5t-65 -19.5q-47 0 -72.5 34.5t-25.5 98.5q0 106 88.5 168.5t228.5 62.5q145 0 224 -78.5t79 -242.5v-662q0 -52 8.5 -74t34.5 -22
q25 0 38.5 20t35.5 80zM352 82q64 0 116.5 38t117.5 126v385l-92 -43q-134 -65 -206.5 -145.5t-72.5 -190.5q0 -83 37 -126.5t100 -43.5z" />
    <glyph glyph-name="aacute" unicode="&#xe1;" horiz-adv-x="919" 
d="M694 1655l-250 -371h-71l137 371h184zM854 137h45q-26 -91 -59.5 -134.5t-104.5 -43.5q-149 0 -149 191v22h-4q-16 -28 -29 -47.5t-42.5 -54t-58.5 -56t-74 -38.5t-93 -17q-106 0 -165 69.5t-59 186.5q0 70 22.5 129t57 99.5t88.5 77.5t104 62t116 56q9 4 14 6t12.5 5.5
t13.5 6.5l97 45v99q0 49 -3 83.5t-13 68.5t-27.5 54.5t-48 33t-72.5 12.5q-65 0 -108.5 -29t-43.5 -76q0 -23 17.5 -61t17.5 -64q0 -32 -25 -51.5t-65 -19.5q-47 0 -72.5 34.5t-25.5 98.5q0 106 88.5 168.5t228.5 62.5q145 0 224 -78.5t79 -242.5v-662q0 -52 8.5 -74
t34.5 -22q25 0 38.5 20t35.5 80zM352 82q64 0 116.5 38t117.5 126v385l-92 -43q-134 -65 -206.5 -145.5t-72.5 -190.5q0 -83 37 -126.5t100 -43.5z" />
    <glyph glyph-name="acircumflex" unicode="&#xe2;" horiz-adv-x="919" 
d="M453 1542l-203 -264h-72l189 371h174l188 -371h-72zM854 137h45q-26 -91 -59.5 -134.5t-104.5 -43.5q-149 0 -149 191v22h-4q-16 -28 -29 -47.5t-42.5 -54t-58.5 -56t-74 -38.5t-93 -17q-106 0 -165 69.5t-59 186.5q0 70 22.5 129t57 99.5t88.5 77.5t104 62t116 56
q9 4 14 6t12.5 5.5t13.5 6.5l97 45v99q0 49 -3 83.5t-13 68.5t-27.5 54.5t-48 33t-72.5 12.5q-65 0 -108.5 -29t-43.5 -76q0 -23 17.5 -61t17.5 -64q0 -32 -25 -51.5t-65 -19.5q-47 0 -72.5 34.5t-25.5 98.5q0 106 88.5 168.5t228.5 62.5q145 0 224 -78.5t79 -242.5v-662
q0 -52 8.5 -74t34.5 -22q25 0 38.5 20t35.5 80zM352 82q64 0 116.5 38t117.5 126v385l-92 -43q-134 -65 -206.5 -145.5t-72.5 -190.5q0 -83 37 -126.5t100 -43.5z" />
    <glyph glyph-name="atilde" unicode="&#xe3;" horiz-adv-x="919" 
d="M295 1501q-51 0 -73.5 -33.5t-28.5 -103.5h-48q19 260 164 260q43 0 85.5 -21.5t72 -47t68.5 -47t75 -21.5q51 0 74 33.5t31 103.5h45q-15 -260 -162 -260q-43 0 -86 21.5t-72.5 47t-68.5 47t-76 21.5zM854 137h45q-26 -91 -59.5 -134.5t-104.5 -43.5q-149 0 -149 191v22
h-4q-16 -28 -29 -47.5t-42.5 -54t-58.5 -56t-74 -38.5t-93 -17q-106 0 -165 69.5t-59 186.5q0 70 22.5 129t57 99.5t88.5 77.5t104 62t116 56q9 4 14 6t12.5 5.5t13.5 6.5l97 45v99q0 49 -3 83.5t-13 68.5t-27.5 54.5t-48 33t-72.5 12.5q-65 0 -108.5 -29t-43.5 -76
q0 -23 17.5 -61t17.5 -64q0 -32 -25 -51.5t-65 -19.5q-47 0 -72.5 34.5t-25.5 98.5q0 106 88.5 168.5t228.5 62.5q145 0 224 -78.5t79 -242.5v-662q0 -52 8.5 -74t34.5 -22q25 0 38.5 20t35.5 80zM352 82q64 0 116.5 38t117.5 126v385l-92 -43q-134 -65 -206.5 -145.5
t-72.5 -190.5q0 -83 37 -126.5t100 -43.5z" />
    <glyph glyph-name="adieresis" unicode="&#xe4;" horiz-adv-x="919" 
d="M264 1362q-44 0 -76 32t-32 76t32 75.5t76 31.5t75.5 -31.5t31.5 -75.5t-31.5 -76t-75.5 -32zM643 1362q-44 0 -76 32t-32 76t32 75.5t76 31.5t75.5 -31.5t31.5 -75.5t-31.5 -76t-75.5 -32zM854 137h45q-26 -91 -59.5 -134.5t-104.5 -43.5q-149 0 -149 191v22h-4
q-16 -28 -29 -47.5t-42.5 -54t-58.5 -56t-74 -38.5t-93 -17q-106 0 -165 69.5t-59 186.5q0 70 22.5 129t57 99.5t88.5 77.5t104 62t116 56q9 4 14 6t12.5 5.5t13.5 6.5l97 45v99q0 49 -3 83.5t-13 68.5t-27.5 54.5t-48 33t-72.5 12.5q-65 0 -108.5 -29t-43.5 -76
q0 -23 17.5 -61t17.5 -64q0 -32 -25 -51.5t-65 -19.5q-47 0 -72.5 34.5t-25.5 98.5q0 106 88.5 168.5t228.5 62.5q145 0 224 -78.5t79 -242.5v-662q0 -52 8.5 -74t34.5 -22q25 0 38.5 20t35.5 80zM352 82q64 0 116.5 38t117.5 126v385l-92 -43q-134 -65 -206.5 -145.5
t-72.5 -190.5q0 -83 37 -126.5t100 -43.5z" />
    <glyph glyph-name="aring" unicode="&#xe5;" horiz-adv-x="919" 
d="M453 1288q-88 0 -146.5 60.5t-58.5 144.5q0 82 59 142.5t146 60.5t144.5 -60.5t57.5 -142.5q0 -84 -57.5 -144.5t-144.5 -60.5zM453 1624q-63 0 -98.5 -39.5t-35.5 -91.5q0 -54 35 -93.5t99 -39.5q62 0 96.5 39.5t34.5 93.5q0 52 -34.5 91.5t-96.5 39.5zM854 137h45
q-26 -91 -59.5 -134.5t-104.5 -43.5q-149 0 -149 191v22h-4q-16 -28 -29 -47.5t-42.5 -54t-58.5 -56t-74 -38.5t-93 -17q-106 0 -165 69.5t-59 186.5q0 70 22.5 129t57 99.5t88.5 77.5t104 62t116 56q9 4 14 6t12.5 5.5t13.5 6.5l97 45v99q0 49 -3 83.5t-13 68.5t-27.5 54.5
t-48 33t-72.5 12.5q-65 0 -108.5 -29t-43.5 -76q0 -23 17.5 -61t17.5 -64q0 -32 -25 -51.5t-65 -19.5q-47 0 -72.5 34.5t-25.5 98.5q0 106 88.5 168.5t228.5 62.5q145 0 224 -78.5t79 -242.5v-662q0 -52 8.5 -74t34.5 -22q25 0 38.5 20t35.5 80zM352 82q64 0 116.5 38
t117.5 126v385l-92 -43q-134 -65 -206.5 -145.5t-72.5 -190.5q0 -83 37 -126.5t100 -43.5z" />
    <glyph glyph-name="ae" unicode="&#xe6;" horiz-adv-x="1363" 
d="M1241 434h45q-29 -234 -120.5 -354.5t-227.5 -120.5q-107 0 -185.5 67t-121.5 191q-31 -50 -60.5 -88.5t-73 -80.5t-98 -65.5t-114.5 -23.5q-105 0 -164.5 68.5t-59.5 179.5q0 52 13 98t34.5 82.5t53.5 69.5t67 58.5t79.5 51t85 45.5t88.5 42q5 2 7 3l97 45v99
q0 49 -3 83.5t-13 68.5t-27 54.5t-46.5 33t-70.5 12.5q-64 0 -108 -29.5t-44 -75.5q0 -23 18.5 -61t18.5 -64q0 -32 -25.5 -51.5t-66.5 -19.5q-46 0 -72 34.5t-26 98.5q0 106 88 168.5t227 62.5q197 0 266 -143q99 143 254 143q156 0 241 -142t85 -374h-539v-27
q0 -138 27.5 -246.5t83.5 -173.5t133 -65q181 0 254 346zM950 1040q-61 0 -105 -49.5t-67 -128.5t-30 -186h376q0 76 -9 139t-28.5 115t-54.5 81t-82 29zM352 82q65 0 127.5 42.5t136.5 143.5q-30 117 -30 264v99l-92 -43q-134 -65 -206.5 -145.5t-72.5 -190.5
q0 -84 36.5 -127t100.5 -43z" />
    <glyph glyph-name="ccedilla" unicode="&#xe7;" horiz-adv-x="847" 
d="M506 -109q81 -7 137.5 -48.5t56.5 -114.5q0 -70 -39.5 -121.5t-103.5 -76t-145 -35t-164 2.5l12 47q144 -11 227.5 30t83.5 134q0 77 -53 107t-151 32l108 111h-18q-180 0 -279.5 152.5t-99.5 406.5q0 274 110.5 436t292.5 162q126 0 208.5 -83t82.5 -181
q0 -100 -90 -100q-94 0 -100 104q-5 88 -30 136t-81 48q-109 0 -164 -127.5t-55 -353.5q0 -224 71 -355.5t195 -131.5q85 0 144 81t100 271h45q-43 -352 -225 -438z" />
    <glyph glyph-name="egrave" unicode="&#xe8;" horiz-adv-x="856" 
d="M553 1284h-72l-250 371h185zM731 434h47q-29 -234 -120.5 -354.5t-227.5 -120.5q-165 0 -258.5 155t-93.5 418q0 160 42.5 291t128.5 212t200 81q104 0 178 -66.5t110.5 -182t36.5 -267.5h-538v-27q0 -138 27.5 -246.5t83 -173.5t132.5 -65q83 0 149 81t103 265z
M442 1040q-61 0 -105 -49.5t-67 -128.5t-30 -186h376q0 76 -9 139t-28.5 115t-54.5 81t-82 29z" />
    <glyph glyph-name="eacute" unicode="&#xe9;" horiz-adv-x="856" 
d="M692 1655l-250 -371h-71l137 371h184zM731 434h47q-29 -234 -120.5 -354.5t-227.5 -120.5q-165 0 -258.5 155t-93.5 418q0 160 42.5 291t128.5 212t200 81q104 0 178 -66.5t110.5 -182t36.5 -267.5h-538v-27q0 -138 27.5 -246.5t83 -173.5t132.5 -65q83 0 149 81t103 265
zM442 1040q-61 0 -105 -49.5t-67 -128.5t-30 -186h376q0 76 -9 139t-28.5 115t-54.5 81t-82 29z" />
    <glyph glyph-name="ecircumflex" unicode="&#xea;" horiz-adv-x="856" 
d="M451 1542l-203 -264h-72l189 371h174l188 -371h-72zM731 434h47q-29 -234 -120.5 -354.5t-227.5 -120.5q-165 0 -258.5 155t-93.5 418q0 160 42.5 291t128.5 212t200 81q104 0 178 -66.5t110.5 -182t36.5 -267.5h-538v-27q0 -138 27.5 -246.5t83 -173.5t132.5 -65
q83 0 149 81t103 265zM442 1040q-61 0 -105 -49.5t-67 -128.5t-30 -186h376q0 76 -9 139t-28.5 115t-54.5 81t-82 29z" />
    <glyph glyph-name="edieresis" unicode="&#xeb;" horiz-adv-x="856" 
d="M262 1362q-44 0 -76 32t-32 76t32 75.5t76 31.5t75.5 -31.5t31.5 -75.5t-31.5 -76t-75.5 -32zM641 1362q-44 0 -76.5 32t-32.5 76t32.5 75.5t76.5 31.5t75.5 -31.5t31.5 -75.5t-31.5 -76t-75.5 -32zM731 434h47q-29 -234 -120.5 -354.5t-227.5 -120.5q-165 0 -258.5 155
t-93.5 418q0 160 42.5 291t128.5 212t200 81q104 0 178 -66.5t110.5 -182t36.5 -267.5h-538v-27q0 -138 27.5 -246.5t83 -173.5t132.5 -65q83 0 149 81t103 265zM442 1040q-61 0 -105 -49.5t-67 -128.5t-30 -186h376q0 76 -9 139t-28.5 115t-54.5 81t-82 29z" />
    <glyph glyph-name="igrave" unicode="&#xec;" horiz-adv-x="528" 
d="M338 1284h-72l-250 371h185zM348 205q0 -100 24.5 -129t114.5 -29v-47h-430v47q90 0 115 29.5t25 128.5v647q0 94 -9 112q-12 24 -60 4q-16 -6 -40 -18l-20 43l147 70l109 53l24 -24v-887z" />
    <glyph glyph-name="iacute" unicode="&#xed;" horiz-adv-x="528" 
d="M158 1284l137 371h184l-250 -371h-71zM348 205q0 -100 24.5 -129t114.5 -29v-47h-430v47q90 0 115 29.5t25 128.5v647q0 94 -9 112q-12 24 -60 4q-16 -6 -40 -18l-20 43l147 70l109 53l24 -24v-887z" />
    <glyph glyph-name="icircumflex" unicode="&#xee;" horiz-adv-x="528" 
d="M440 1278l-204 264l-203 -264h-74l191 371h174l188 -371h-72zM348 205q0 -100 24.5 -129t114.5 -29v-47h-430v47q90 0 115 29.5t25 128.5v647q0 94 -9 112q-12 24 -60 4q-16 -6 -40 -18l-20 43l147 70l109 53l24 -24v-887z" />
    <glyph glyph-name="idieresis" unicode="&#xef;" horiz-adv-x="528" 
d="M47 1362q-44 0 -76 32t-32 76t32 75.5t76 31.5t75.5 -31.5t31.5 -75.5t-31.5 -76t-75.5 -32zM426 1362q-44 0 -76.5 32t-32.5 76t32.5 75.5t76.5 31.5t75 -31.5t31 -75.5t-31 -76t-75 -32zM348 205q0 -100 24.5 -129t114.5 -29v-47h-430v47q90 0 115 29.5t25 128.5v647
q0 94 -9 112q-12 24 -60 4q-16 -6 -40 -18l-20 43l147 70l109 53l24 -24v-887z" />
    <glyph glyph-name="eth" unicode="&#xf0;" horiz-adv-x="1105" 
d="M1004 608q9 -282 -122 -465.5t-331 -183.5q-92 0 -167.5 35t-127 94.5t-87 140t-51.5 168t-16 181.5q0 103 26.5 196.5t77 168.5t131 119t179.5 44q69 0 130.5 -29.5t103.5 -81.5q-72 194 -203 363l-232 -135l-30 53l223 129q-107 126 -252 229v45q188 -100 330 -229
l235 137l31 -53l-221 -129q175 -174 271 -382.5t102 -414.5zM549 37q96 0 162 77t94.5 204t23.5 290q-3 128 -38 258q-51 89 -109 126.5t-135 37.5q-72 0 -126 -40.5t-84.5 -110t-45.5 -150.5t-15 -172q0 -157 27.5 -271t89.5 -181.5t156 -67.5z" />
    <glyph glyph-name="ntilde" unicode="&#xf1;" horiz-adv-x="1042" 
d="M668 1364q-43 0 -86 21.5t-72.5 47t-68.5 47t-76 21.5q-51 0 -74 -34t-29 -103h-47q19 260 164 260q43 0 85.5 -21.5t72 -47t68.5 -47t75 -21.5q51 0 73.5 33.5t30.5 103.5h45q-15 -260 -161 -260zM348 1092v-177h6q139 201 299 201q209 0 209 -285v-626
q0 -100 24.5 -129t114.5 -29v-47h-423v47q85 0 109 29.5t24 128.5v626q0 175 -119 175q-110 0 -244 -166v-635q0 -100 23.5 -129t109.5 -29v-47h-424v47q90 0 115 29.5t25 128.5v647q0 94 -9 112q-12 24 -60 4q-16 -6 -40 -18l-20 43l147 70l109 53z" />
    <glyph glyph-name="ograve" unicode="&#xf2;" horiz-adv-x="1019" 
d="M614 1284h-71l-250 371h184zM510 -41q-132 0 -231 77.5t-150 208t-51 294.5t51 294t150 206.5t231 76.5t231.5 -76.5t151 -206.5t51.5 -294t-51.5 -294.5t-151 -208t-231.5 -77.5zM555 39q122 11 177.5 147t35.5 375q-22 239 -100 363t-201 114q-123 -12 -179 -147.5
t-36 -376.5q22 -238 100.5 -361.5t202.5 -113.5z" />
    <glyph glyph-name="oacute" unicode="&#xf3;" horiz-adv-x="1019" 
d="M432 1284l137 371h185l-250 -371h-72zM510 -41q-132 0 -231 77.5t-150 208t-51 294.5t51 294t150 206.5t231 76.5t231.5 -76.5t151 -206.5t51.5 -294t-51.5 -294.5t-151 -208t-231.5 -77.5zM555 39q122 11 177.5 147t35.5 375q-22 239 -100 363t-201 114
q-123 -12 -179 -147.5t-36 -376.5q22 -238 100.5 -361.5t202.5 -113.5z" />
    <glyph glyph-name="ocircumflex" unicode="&#xf4;" horiz-adv-x="1019" 
d="M510 1542l-203 -264h-71l188 371h174l188 -371h-71zM510 1116q132 0 231.5 -76.5t151 -206.5t51.5 -294t-51.5 -294.5t-151 -208t-231.5 -77.5t-231 77.5t-150 208t-51 294.5t51 294t150 206.5t231 76.5zM555 39q122 11 177.5 147t35.5 375q-22 239 -100 363t-201 114
q-123 -12 -179 -147.5t-36 -376.5q22 -238 100.5 -361.5t202.5 -113.5z" />
    <glyph glyph-name="otilde" unicode="&#xf5;" horiz-adv-x="1019" 
d="M655 1364q-43 0 -86 21.5t-72.5 47t-68.5 47t-76 21.5q-51 0 -73.5 -33.5t-28.5 -103.5h-47q19 260 164 260q43 0 85.5 -21.5t72 -47t68.5 -47t75 -21.5q51 0 73.5 33.5t30.5 103.5h45q-15 -260 -162 -260zM510 -41q-132 0 -231 77.5t-150 208t-51 294.5t51 294
t150 206.5t231 76.5t231.5 -76.5t151 -206.5t51.5 -294t-51.5 -294.5t-151 -208t-231.5 -77.5zM555 39q122 11 177.5 147t35.5 375q-22 239 -100 363t-201 114q-123 -12 -179 -147.5t-36 -376.5q22 -238 100.5 -361.5t202.5 -113.5z" />
    <glyph glyph-name="odieresis" unicode="&#xf6;" horiz-adv-x="1019" 
d="M322 1362q-44 0 -76.5 32t-32.5 76t32.5 75.5t76.5 31.5t75 -31.5t31 -75.5t-31 -76t-75 -32zM700 1362q-44 0 -76 32t-32 76t32 75.5t76 31.5t75.5 -31.5t31.5 -75.5t-31.5 -76t-75.5 -32zM510 -41q-132 0 -231 77.5t-150 208t-51 294.5t51 294t150 206.5t231 76.5
t231.5 -76.5t151 -206.5t51.5 -294t-51.5 -294.5t-151 -208t-231.5 -77.5zM555 39q122 11 177.5 147t35.5 375q-22 239 -100 363t-201 114q-123 -12 -179 -147.5t-36 -376.5q22 -238 100.5 -361.5t202.5 -113.5z" />
    <glyph glyph-name="divide" unicode="&#xf7;" horiz-adv-x="880" 
d="M440 809q-35 0 -60.5 26.5t-25.5 61.5t25.5 60.5t60.5 25.5t61.5 -25.5t26.5 -60.5t-26.5 -61.5t-61.5 -26.5zM102 489v127h676v-127h-676zM440 123q-35 0 -60.5 26.5t-25.5 61.5t25.5 60.5t60.5 25.5t61.5 -25.5t26.5 -60.5t-26.5 -61.5t-61.5 -26.5z" />
    <glyph glyph-name="oslash" unicode="&#xf8;" horiz-adv-x="1019" 
d="M805 981q139 -164 139 -442q0 -164 -51.5 -294.5t-151 -208t-231.5 -77.5q-138 0 -244 88l-90 -156l-57 33l98 170q-139 164 -139 445q0 164 51 294t150 206.5t231 76.5q140 0 246 -88l90 156l57 -33zM252 514q15 -157 53 -266l377 653q-79 149 -215 137
q-123 -12 -179 -147.5t-36 -376.5zM555 39q122 11 177.5 147t35.5 375q-16 165 -53 264l-375 -651q78 -147 215 -135z" />
    <glyph glyph-name="ugrave" unicode="&#xf9;" horiz-adv-x="1003" 
d="M606 1284h-71l-250 371h184zM686 -16v176h-6q-64 -94 -135 -147.5t-158 -53.5q-209 0 -209 285v618q0 37 -1 56.5t-5 39t-11.5 26t-22 10.5t-34.5 0t-51 -13l-14 45l266 76l25 -27v-831q0 -88 27.5 -131t88.5 -43q108 0 240 168v624q0 38 -0.5 56.5t-5 38.5t-11.5 26.5
t-22 10.5t-35 0t-51 -13l-12 45l264 76l27 -27l-2 -852v-16q0 -85 10 -100q13 -20 67 3l29 13l21 -41l-146 -70l-106 -53z" />
    <glyph glyph-name="uacute" unicode="&#xfa;" horiz-adv-x="1003" 
d="M424 1284l137 371h184l-249 -371h-72zM686 -16v176h-6q-64 -94 -135 -147.5t-158 -53.5q-209 0 -209 285v618q0 37 -1 56.5t-5 39t-11.5 26t-22 10.5t-34.5 0t-51 -13l-14 45l266 76l25 -27v-831q0 -88 27.5 -131t88.5 -43q108 0 240 168v624q0 38 -0.5 56.5t-5 38.5
t-11.5 26.5t-22 10.5t-35 0t-51 -13l-12 45l264 76l27 -27l-2 -852v-16q0 -85 10 -100q13 -20 67 3l29 13l21 -41l-146 -70l-106 -53z" />
    <glyph glyph-name="ucircumflex" unicode="&#xfb;" horiz-adv-x="1003" 
d="M504 1542l-203 -264h-72l189 371h174l188 -371h-71zM944 123l21 -41l-146 -70l-106 -53l-27 25v176h-6q-64 -94 -135 -147.5t-158 -53.5q-209 0 -209 285v618q0 37 -1 56.5t-5 39t-11.5 26t-22 10.5t-34.5 0t-51 -13l-14 45l266 76l25 -27v-831q0 -88 27.5 -131t88.5 -43
q108 0 240 168v624q0 38 -0.5 56.5t-5 38.5t-11.5 26.5t-22 10.5t-35 0t-51 -13l-12 45l264 76l27 -27l-2 -852v-16q0 -85 10 -100q13 -20 67 3z" />
    <glyph glyph-name="udieresis" unicode="&#xfc;" horiz-adv-x="1003" 
d="M315 1362q-44 0 -76 32t-32 76t32 75.5t76 31.5t75.5 -31.5t31.5 -75.5t-31.5 -76t-75.5 -32zM694 1362q-44 0 -76 32t-32 76t32 75.5t76 31.5t75.5 -31.5t31.5 -75.5t-31.5 -76t-75.5 -32zM686 -16v176h-6q-64 -94 -135 -147.5t-158 -53.5q-209 0 -209 285v618
q0 37 -1 56.5t-5 39t-11.5 26t-22 10.5t-34.5 0t-51 -13l-14 45l266 76l25 -27v-831q0 -88 27.5 -131t88.5 -43q108 0 240 168v624q0 38 -0.5 56.5t-5 38.5t-11.5 26.5t-22 10.5t-35 0t-51 -13l-12 45l264 76l27 -27l-2 -852v-16q0 -85 10 -100q13 -20 67 3l29 13l21 -41
l-146 -70l-106 -53z" />
    <glyph glyph-name="yacute" unicode="&#xfd;" horiz-adv-x="976" 
d="M424 1284l137 371h184l-249 -371h-72zM49 -354q0 42 28 69t68 27q62 0 93 -57q17 -24 28.5 -32.5t34.5 -8.5q54 0 94.5 80.5t79.5 257.5l-280 899q-28 91 -61 120t-99 29v45h434v-45q-97 0 -112.5 -28.5t16.5 -122.5l182 -627l158 627q28 94 11.5 122.5t-114.5 28.5v45
h332v-45q-65 0 -95 -29t-54 -122l-220 -842q-6 -21 -17 -63q-24 -93 -38 -140.5t-44 -121t-60.5 -110t-79.5 -65.5t-109 -29q-77 0 -126.5 38.5t-49.5 99.5z" />
    <glyph glyph-name="thorn" unicode="&#xfe;" horiz-adv-x="1105" 
d="M686 1116q106 0 185 -71.5t118 -187t39 -255.5q0 -175 -51.5 -320.5t-150.5 -234t-226 -88.5q-168 0 -248 158h-4v-365q0 -99 25 -128.5t114 -29.5v-45h-430v45q89 0 114.5 30t25.5 128v1663v13v40t-1.5 30t-4 23.5t-8 13.5t-12.5 7t-19 -2.5t-26.5 -7.5t-35.5 -16
l-20 40l145 70l109 53l24 -24v-791h8q67 126 146.5 189t183.5 63zM569 37q78 0 135.5 43.5t89 118.5t46 160.5t14.5 183.5q0 223 -58.5 345t-170.5 122q-168 0 -277 -217v-394q0 -169 60.5 -265.5t160.5 -96.5z" />
    <glyph glyph-name="ydieresis" unicode="&#xff;" horiz-adv-x="976" 
d="M315 1362q-44 0 -76 32t-32 76t32 75.5t76 31.5t75.5 -31.5t31.5 -75.5t-31.5 -76t-75.5 -32zM694 1362q-44 0 -76 32t-32 76t32 75.5t76 31.5t75.5 -31.5t31.5 -75.5t-31.5 -76t-75.5 -32zM49 -354q0 42 28 69t68 27q62 0 93 -57q17 -24 28.5 -32.5t34.5 -8.5
q54 0 94.5 80.5t79.5 257.5l-280 899q-28 91 -61 120t-99 29v45h434v-45q-97 0 -112.5 -28.5t16.5 -122.5l182 -627l158 627q28 94 11.5 122.5t-114.5 28.5v45h332v-45q-65 0 -95 -29t-54 -122l-220 -842q-6 -21 -17 -63q-24 -93 -38 -140.5t-44 -121t-60.5 -110
t-79.5 -65.5t-109 -29q-77 0 -126.5 38.5t-49.5 99.5z" />
    <glyph glyph-name="Amacron" unicode="&#x100;" horiz-adv-x="1472" 
d="M1008 2050v-76h-553v76h553zM1249 195q29 -92 69 -120t134 -28v-47h-557v47q98 0 135.5 12t40 45t-19.5 91l-103 321h-549l-100 -321q-22 -58 -19.5 -91t40 -45t135.5 -12v-47h-435v47q94 0 133 28t68 120l467 1491h82zM424 594h500l-250 782h-6z" />
    <glyph glyph-name="amacron" unicode="&#x101;" horiz-adv-x="919" 
d="M729 1497v-76h-553v76h553zM854 137h45q-26 -91 -59.5 -134.5t-104.5 -43.5q-149 0 -149 191v22h-4q-16 -28 -29 -47.5t-42.5 -54t-58.5 -56t-74 -38.5t-93 -17q-106 0 -165 69.5t-59 186.5q0 70 22.5 129t57 99.5t88.5 77.5t104 62t116 56q9 4 14 6t12.5 5.5t13.5 6.5
l97 45v99q0 49 -3 83.5t-13 68.5t-27.5 54.5t-48 33t-72.5 12.5q-65 0 -108.5 -29t-43.5 -76q0 -23 17.5 -61t17.5 -64q0 -32 -25 -51.5t-65 -19.5q-47 0 -72.5 34.5t-25.5 98.5q0 106 88.5 168.5t228.5 62.5q145 0 224 -78.5t79 -242.5v-662q0 -52 8.5 -74t34.5 -22
q25 0 38.5 20t35.5 80zM352 82q64 0 116.5 38t117.5 126v385l-92 -43q-134 -65 -206.5 -145.5t-72.5 -190.5q0 -83 37 -126.5t100 -43.5z" />
    <glyph glyph-name="Abreve" unicode="&#x102;" horiz-adv-x="1472" 
d="M731 1894q-119 0 -189.5 70.5t-76.5 196.5h47q7 -67 64.5 -102.5t154.5 -35.5q98 0 156 35.5t65 102.5h45q-6 -126 -76 -196.5t-190 -70.5zM1249 195q29 -92 69 -120t134 -28v-47h-557v47q98 0 135.5 12t40 45t-19.5 91l-103 321h-549l-100 -321q-22 -58 -19.5 -91
t40 -45t135.5 -12v-47h-435v47q94 0 133 28t68 120l467 1491h82zM424 594h500l-250 782h-6z" />
    <glyph glyph-name="abreve" unicode="&#x103;" horiz-adv-x="919" 
d="M453 1341q-119 0 -190 70.5t-77 196.5h47q7 -67 64.5 -102.5t155.5 -35.5t156 35.5t65 102.5h45q-6 -126 -76 -196.5t-190 -70.5zM854 137h45q-26 -91 -59.5 -134.5t-104.5 -43.5q-149 0 -149 191v22h-4q-16 -28 -29 -47.5t-42.5 -54t-58.5 -56t-74 -38.5t-93 -17
q-106 0 -165 69.5t-59 186.5q0 70 22.5 129t57 99.5t88.5 77.5t104 62t116 56q9 4 14 6t12.5 5.5t13.5 6.5l97 45v99q0 49 -3 83.5t-13 68.5t-27.5 54.5t-48 33t-72.5 12.5q-65 0 -108.5 -29t-43.5 -76q0 -23 17.5 -61t17.5 -64q0 -32 -25 -51.5t-65 -19.5q-47 0 -72.5 34.5
t-25.5 98.5q0 106 88.5 168.5t228.5 62.5q145 0 224 -78.5t79 -242.5v-662q0 -52 8.5 -74t34.5 -22q25 0 38.5 20t35.5 80zM352 82q64 0 116.5 38t117.5 126v385l-92 -43q-134 -65 -206.5 -145.5t-72.5 -190.5q0 -83 37 -126.5t100 -43.5z" />
    <glyph glyph-name="Aogonek" unicode="&#x104;" horiz-adv-x="1472" 
d="M1278 0q-25 -27 -70 -59t-75 -53.5t-54 -62t-24 -93.5q0 -62 37 -100t104 -38q65 0 166 48l12 -45q-112 -84 -227 -84q-94 0 -156.5 53t-62.5 145q0 57 22.5 101t60 71t75 45.5t79.5 37.5t62 34h-332v47q98 0 135.5 12t40 45t-19.5 91l-103 321h-549l-100 -321
q-22 -58 -19.5 -91t40 -45t135.5 -12v-47h-435v47q94 0 133 28t68 120l467 1491h82l479 -1491q29 -92 69 -120t134 -28v-47h-174zM424 594h500l-250 782h-6z" />
    <glyph glyph-name="aogonek" unicode="&#x105;" horiz-adv-x="919" 
d="M897 -379l12 -45q-112 -84 -227 -84q-94 0 -156.5 53.5t-62.5 145.5q0 43 14 79t33 59t50.5 44.5t56 33t60 27.5t52.5 25q-143 3 -143 191v22h-4q-16 -28 -29 -47.5t-42.5 -54t-58.5 -56t-74 -38.5t-93 -17q-106 0 -165 69.5t-59 186.5q0 70 22.5 129t57 99.5t88.5 77.5
t104 62t116 56q9 4 14 6t12.5 5.5t13.5 6.5l97 45v99q0 49 -3 83.5t-13 68.5t-27.5 54.5t-48 33t-72.5 12.5q-65 0 -108.5 -29t-43.5 -76q0 -23 17.5 -61t17.5 -64q0 -32 -25 -51.5t-65 -19.5q-47 0 -72.5 34.5t-25.5 98.5q0 106 88.5 168.5t228.5 62.5q145 0 224 -78.5
t79 -242.5v-662q0 -52 8.5 -74t34.5 -22q25 0 38.5 20t35.5 80h45q-34 -124 -86 -157q-25 -27 -70 -59t-75 -53.5t-54 -62.5t-24 -94q0 -62 37 -99.5t104 -37.5t166 47zM352 82q64 0 116.5 38t117.5 126v385l-92 -43q-134 -65 -206.5 -145.5t-72.5 -190.5q0 -83 37 -126.5
t100 -43.5z" />
    <glyph glyph-name="Cacute" unicode="&#x106;" horiz-adv-x="1323" 
d="M645 1792l137 371h185l-250 -371h-72zM78 819q0 244 78.5 439t227 308t341.5 113q73 0 140 -18t105.5 -40t72.5 -40t49 -18q21 0 28.5 17.5t7.5 78.5h48l30 -563h-47q-51 508 -405 508q-148 0 -259 -105.5t-167 -282t-56 -397.5q0 -220 56 -394t165.5 -276t256.5 -102
q193 0 321.5 165t165.5 450h45q-20 -157 -63.5 -283.5t-112 -221.5t-168 -146.5t-223.5 -51.5q-193 0 -339 113.5t-222 308t-76 438.5z" />
    <glyph glyph-name="cacute" unicode="&#x107;" horiz-adv-x="847" 
d="M428 1284l137 371h185l-250 -371h-72zM582 856q-5 88 -30 136t-81 48q-109 0 -164 -127.5t-55 -353.5q0 -224 71 -355.5t195 -131.5q85 0 144 81t100 271h45q-59 -465 -350 -465q-180 0 -279.5 152.5t-99.5 406.5q0 274 110.5 436t292.5 162q126 0 208.5 -83t82.5 -181
q0 -100 -90 -100q-94 0 -100 104z" />
    <glyph glyph-name="Cdotaccent" unicode="&#x10a;" horiz-adv-x="1323" 
d="M725 1870q-44 0 -76.5 32t-32.5 76t32.5 75.5t76.5 31.5t75 -31.5t31 -75.5t-31 -76t-75 -32zM78 819q0 244 78.5 439t227 308t341.5 113q73 0 140 -18t105.5 -40t72.5 -40t49 -18q21 0 28.5 17.5t7.5 78.5h48l30 -563h-47q-51 508 -405 508q-148 0 -259 -105.5
t-167 -282t-56 -397.5q0 -220 56 -394t165.5 -276t256.5 -102q193 0 321.5 165t165.5 450h45q-20 -157 -63.5 -283.5t-112 -221.5t-168 -146.5t-223.5 -51.5q-193 0 -339 113.5t-222 308t-76 438.5z" />
    <glyph glyph-name="cdotaccent" unicode="&#x10b;" horiz-adv-x="847" 
d="M508 1362q-44 0 -76.5 32t-32.5 76t32.5 75.5t76.5 31.5t75 -31.5t31 -75.5t-31 -76t-75 -32zM582 856q-5 88 -30 136t-81 48q-109 0 -164 -127.5t-55 -353.5q0 -224 71 -355.5t195 -131.5q85 0 144 81t100 271h45q-59 -465 -350 -465q-180 0 -279.5 152.5t-99.5 406.5
q0 274 110.5 436t292.5 162q126 0 208.5 -83t82.5 -181q0 -100 -90 -100q-94 0 -100 104z" />
    <glyph glyph-name="Ccaron" unicode="&#x10c;" horiz-adv-x="1323" 
d="M637 1786l-188 371h71l205 -265l203 265h71l-188 -371h-174zM1237 662h45q-20 -157 -63.5 -283.5t-112 -221.5t-168 -146.5t-223.5 -51.5q-193 0 -339 113.5t-222 308t-76 438.5t78.5 439t227 308t341.5 113q73 0 140 -18t105.5 -40t72.5 -40t49 -18q21 0 28.5 17.5
t7.5 78.5h48l30 -563h-47q-51 508 -405 508q-148 0 -259 -105.5t-167 -282t-56 -397.5q0 -220 56 -394t165.5 -276t256.5 -102q193 0 321.5 165t165.5 450z" />
    <glyph glyph-name="ccaron" unicode="&#x10d;" horiz-adv-x="847" 
d="M420 1278l-189 371h72l205 -265l203 265h71l-188 -371h-174zM762 424h45q-59 -465 -350 -465q-180 0 -279.5 152.5t-99.5 406.5q0 274 110.5 436t292.5 162q126 0 208.5 -83t82.5 -181q0 -100 -90 -100q-94 0 -100 104q-5 88 -30 136t-81 48q-109 0 -164 -127.5
t-55 -353.5q0 -224 71 -355.5t195 -131.5q85 0 144 81t100 271z" />
    <glyph glyph-name="Dcaron" unicode="&#x10e;" horiz-adv-x="1519" 
d="M598 1786l-188 371h71l205 -265l203 265h72l-189 -371h-174zM651 1638q170 0 314 -53t251 -153.5t167.5 -257.5t60.5 -355q0 -197 -62.5 -354.5t-171 -258t-251.5 -153.5t-308 -53h-610v47q98 0 143.5 14.5t59.5 45t14 98.5v1231q0 51 -6 78t-29.5 47t-65 26t-116.5 6v45
h610zM651 78q280 0 439 199.5t159 541.5t-159.5 543t-438.5 201q-137 0 -215 -37v-1411q78 -37 215 -37z" />
    <glyph glyph-name="dcaron" unicode="&#x10f;" horiz-adv-x="1249" 
d="M858 223v-13q0 -37 0.5 -52t3.5 -33.5t9 -22t18.5 -5t29.5 5.5t44 20l20 -41l-252 -123l-24 25v176h-9q-65 -102 -129 -151.5t-151 -49.5q-159 0 -249.5 145.5t-90.5 391.5q0 173 42 311t131 223.5t214 85.5q74 0 134.5 -37.5t102.5 -93.5h5v430v13v40t-1.5 30t-4 23.5
t-8 13.5t-12.5 7t-19 -2.5t-26.5 -7.5t-35.5 -16l-20 40l145 70l109 53l24 -24v-1432zM1133 1679q79 0 79 -110q0 -55 -7.5 -118.5t-22.5 -157.5t-23 -167h-47q-8 67 -32.5 219.5t-24.5 223.5q0 110 78 110zM707 252v410q0 177 -58.5 277.5t-154.5 100.5q-68 0 -117 -41
t-75 -113.5t-38 -155t-12 -181.5q0 -142 21.5 -247t72.5 -169.5t127 -64.5q42 0 76.5 14t64 45t48 56t45.5 69z" />
    <glyph glyph-name="Dcroat" unicode="&#x110;" horiz-adv-x="1519" 
d="M651 1638q170 0 314 -53t251 -153.5t167.5 -257.5t60.5 -355q0 -197 -62.5 -354.5t-171 -258t-251.5 -153.5t-308 -53h-610v47q98 0 143.5 14.5t59.5 45t14 98.5v645h-176v61h176v525q0 51 -6 78t-29.5 47t-65 26t-116.5 6v45h610zM651 78q280 0 439 199.5t159 541.5
t-159.5 543t-438.5 201q-137 0 -215 -37v-615h385v-61h-385v-735q78 -37 215 -37z" />
    <glyph glyph-name="dcroat" unicode="&#x111;" horiz-adv-x="1187" 
d="M858 1290v-1067v-13q0 -37 0.5 -52t3.5 -33.5t9 -22t18.5 -5t29.5 5.5t44 20l20 -41l-252 -123l-24 25v176h-9q-65 -102 -129 -151.5t-151 -49.5q-159 0 -249.5 145.5t-90.5 391.5q0 173 42 311t131 223.5t214 85.5q74 0 134.5 -37.5t102.5 -93.5h5v305h-230v62h230v63
v13v40t-1.5 30t-4 23.5t-8 13.5t-12.5 7t-19 -2.5t-26.5 -7.5t-35.5 -16l-20 40l145 70l109 53l24 -24v-303h227v-62h-227zM707 252v410q0 177 -58.5 277.5t-154.5 100.5q-68 0 -117 -41t-75 -113.5t-38 -155t-12 -181.5q0 -142 21.5 -247t72.5 -169.5t127 -64.5
q42 0 76.5 14t64 45t48 56t45.5 69z" />
    <glyph glyph-name="Emacron" unicode="&#x112;" horiz-adv-x="1243" 
d="M350 2005h553v-76h-553v76zM1090 1638l4 -49l36 -323l-45 -4q-16 134 -37.5 197t-54.5 83.5t-100 20.5h-457v-664h291q68 0 98.5 15.5t45 65t14.5 157.5h45v-553h-45q0 107 -14.5 157t-45 65t-98.5 15h-291v-626q0 -72 18 -94.5t78 -22.5l386 -2q66 0 104.5 26
t73.5 101.5t80 234.5l45 -14l-121 -424h-1059v47q98 0 143.5 14.5t59.5 45t14 98.5v1231q0 51 -6 78t-29.5 47t-65 26t-116.5 6v45h1049z" />
    <glyph glyph-name="emacron" unicode="&#x113;" horiz-adv-x="856" 
d="M727 1497v-76h-553v76h553zM731 434h47q-29 -234 -120.5 -354.5t-227.5 -120.5q-165 0 -258.5 155t-93.5 418q0 160 42.5 291t128.5 212t200 81q104 0 178 -66.5t110.5 -182t36.5 -267.5h-538v-27q0 -138 27.5 -246.5t83 -173.5t132.5 -65q83 0 149 81t103 265zM442 1040
q-61 0 -105 -49.5t-67 -128.5t-30 -186h376q0 76 -9 139t-28.5 115t-54.5 81t-82 29z" />
    <glyph glyph-name="Edotaccent" unicode="&#x116;" horiz-adv-x="1243" 
d="M627 1870q-44 0 -76.5 32t-32.5 76t32.5 75.5t76.5 31.5t75 -31.5t31 -75.5t-31 -76t-75 -32zM1090 1638l4 -49l36 -323l-45 -4q-16 134 -37.5 197t-54.5 83.5t-100 20.5h-457v-664h291q68 0 98.5 15.5t45 65t14.5 157.5h45v-553h-45q0 107 -14.5 157t-45 65t-98.5 15
h-291v-626q0 -72 18 -94.5t78 -22.5l386 -2q66 0 104.5 26t73.5 101.5t80 234.5l45 -14l-121 -424h-1059v47q98 0 143.5 14.5t59.5 45t14 98.5v1231q0 51 -6 78t-29.5 47t-65 26t-116.5 6v45h1049z" />
    <glyph glyph-name="edotaccent" unicode="&#x117;" horiz-adv-x="856" 
d="M451 1362q-44 0 -76.5 32t-32.5 76t32.5 75.5t76.5 31.5t75 -31.5t31 -75.5t-31 -76t-75 -32zM731 434h47q-29 -234 -120.5 -354.5t-227.5 -120.5q-165 0 -258.5 155t-93.5 418q0 160 42.5 291t128.5 212t200 81q104 0 178 -66.5t110.5 -182t36.5 -267.5h-538v-27
q0 -138 27.5 -246.5t83 -173.5t132.5 -65q83 0 149 81t103 265zM442 1040q-61 0 -105 -49.5t-67 -128.5t-30 -186h376q0 76 -9 139t-28.5 115t-54.5 81t-82 29z" />
    <glyph glyph-name="Eogonek" unicode="&#x118;" horiz-adv-x="1243" 
d="M1018 -406q65 0 166 48l12 -45q-112 -84 -227 -84q-94 0 -156.5 53t-62.5 145q0 57 22.5 101t60 71t75 45.5t79.5 37.5t62 34h-1008v47q98 0 143.5 14.5t59.5 45t14 98.5v1231q0 51 -6 78t-29.5 47t-65 26t-116.5 6v45h1049l4 -49l36 -323l-45 -4q-16 134 -37.5 197
t-54.5 83.5t-100 20.5h-457v-664h291q68 0 98.5 15.5t45 65t14.5 157.5h45v-553h-45q0 107 -14.5 157t-45 65t-98.5 15h-291v-626q0 -72 18 -94.5t78 -22.5l386 -2q66 0 104.5 26t73.5 101.5t80 234.5l45 -14l-121 -424q-25 -27 -70 -59t-75 -53.5t-54 -62t-24 -93.5
q0 -62 37 -100t104 -38z" />
    <glyph glyph-name="eogonek" unicode="&#x119;" horiz-adv-x="856" 
d="M455 -426q67 0 166 47l12 -45q-112 -84 -227 -84q-94 0 -157 53.5t-63 145.5q0 43 14 79t33.5 59.5t51.5 45t56.5 33t61 27.5t52.5 24h-25q-165 0 -258.5 155t-93.5 418q0 160 42.5 291t128.5 212t200 81q104 0 178 -66.5t110.5 -182t36.5 -267.5h-538v-27
q0 -138 27.5 -246.5t83 -173.5t132.5 -65q83 0 149 81t103 265h47q-23 -185 -86 -300t-157 -154h2q-22 -23 -56 -48t-61 -43.5t-52.5 -43t-40 -58t-14.5 -76.5q0 -62 37.5 -99.5t104.5 -37.5zM442 1040q-61 0 -105 -49.5t-67 -128.5t-30 -186h376q0 76 -9 139t-28.5 115
t-54.5 81t-82 29z" />
    <glyph glyph-name="Ecaron" unicode="&#x11a;" horiz-adv-x="1243" 
d="M539 1786l-189 371h72l205 -265l202 265h72l-188 -371h-174zM1176 438l45 -14l-121 -424h-1059v47q98 0 143.5 14.5t59.5 45t14 98.5v1231q0 51 -6 78t-29.5 47t-65 26t-116.5 6v45h1049l4 -49l36 -323l-45 -4q-16 134 -37.5 197t-54.5 83.5t-100 20.5h-457v-664h291
q68 0 98.5 15.5t45 65t14.5 157.5h45v-553h-45q0 107 -14.5 157t-45 65t-98.5 15h-291v-626q0 -72 18 -94.5t78 -22.5l386 -2q66 0 104.5 26t73.5 101.5t80 234.5z" />
    <glyph glyph-name="ecaron" unicode="&#x11b;" horiz-adv-x="856" 
d="M362 1278l-188 371h72l205 -265l202 265h72l-188 -371h-175zM731 434h47q-29 -234 -120.5 -354.5t-227.5 -120.5q-165 0 -258.5 155t-93.5 418q0 160 42.5 291t128.5 212t200 81q104 0 178 -66.5t110.5 -182t36.5 -267.5h-538v-27q0 -138 27.5 -246.5t83 -173.5
t132.5 -65q83 0 149 81t103 265zM442 1040q-61 0 -105 -49.5t-67 -128.5t-30 -186h376q0 76 -9 139t-28.5 115t-54.5 81t-82 29z" />
    <glyph glyph-name="Gbreve" unicode="&#x11e;" horiz-adv-x="1529" 
d="M1053 2116q-6 -126 -76.5 -196.5t-190.5 -70.5q-119 0 -189.5 70.5t-76.5 196.5h47q7 -67 64.5 -102.5t154.5 -35.5q98 0 156.5 35.5t65.5 102.5h45zM78 815q0 180 48 337t136 274.5t221.5 185t296.5 67.5q91 0 167 -17.5t115 -38.5t72 -38.5t48 -17.5q21 0 28 17t7 75
h45l30 -563h-45q-27 260 -131.5 384t-312.5 124q-106 0 -194 -40t-149.5 -111.5t-104.5 -170.5t-63 -216.5t-20 -250.5q0 -134 19 -249t61.5 -213.5t106.5 -168t157.5 -108.5t210.5 -39q107 0 192 37t140 90v485q0 68 -25.5 98.5t-108 45t-261.5 14.5v47h719v-47
q-90 0 -115 -29.5t-25 -128.5v-485q-112 -107 -240 -156t-286 -49q-178 0 -320 66t-233 182t-138.5 271t-47.5 337z" />
    <glyph glyph-name="gbreve" unicode="&#x11f;" horiz-adv-x="972" 
d="M477 1341q-119 0 -189.5 70.5t-76.5 196.5h47q7 -67 64.5 -102.5t154.5 -35.5q98 0 156 35.5t65 102.5h45q-6 -126 -76 -196.5t-190 -70.5zM504 154q217 0 330.5 -59.5t113.5 -200.5q0 -102 -71 -190.5t-196.5 -142t-274.5 -53.5q-78 0 -145.5 14.5t-122.5 43.5
t-86.5 78.5t-31.5 113.5q0 84 50 152.5t149 144.5q-106 39 -106 142q0 55 33.5 103.5t97.5 109.5q-63 52 -98 133t-35 182q0 174 99.5 282.5t248.5 108.5q111 0 194 -59q115 59 232 59q67 0 67 -53q0 -49 -67 -49q-95 0 -164 -17l-12 11q100 -111 100 -283
q0 -175 -100.5 -284t-249.5 -109q-97 0 -174 47q-80 -71 -80 -123q0 -53 67.5 -77.5t231.5 -24.5zM432 1042q-93 -7 -134.5 -92t-29.5 -241q13 -156 69.5 -232.5t149.5 -70.5q92 7 134 93t28 240q-15 156 -70 234t-147 69zM465 -358q184 0 294.5 59.5t110.5 169.5
q0 46 -24 76t-73.5 45.5t-111 21.5t-151.5 6q-141 0 -238 19q-78 -69 -108.5 -117t-30.5 -102q0 -83 86.5 -130.5t245.5 -47.5z" />
    <glyph glyph-name="Gdotaccent" unicode="&#x120;" horiz-adv-x="1529" 
d="M788 1870q-44 0 -76 32t-32 76t32 75.5t76 31.5t75.5 -31.5t31.5 -75.5t-31.5 -76t-75.5 -32zM78 815q0 180 48 337t136 274.5t221.5 185t296.5 67.5q91 0 167 -17.5t115 -38.5t72 -38.5t48 -17.5q21 0 28 17t7 75h45l30 -563h-45q-27 260 -131.5 384t-312.5 124
q-106 0 -194 -40t-149.5 -111.5t-104.5 -170.5t-63 -216.5t-20 -250.5q0 -134 19 -249t61.5 -213.5t106.5 -168t157.5 -108.5t210.5 -39q107 0 192 37t140 90v485q0 68 -25.5 98.5t-108 45t-261.5 14.5v47h719v-47q-90 0 -115 -29.5t-25 -128.5v-485q-112 -107 -240 -156
t-286 -49q-178 0 -320 66t-233 182t-138.5 271t-47.5 337z" />
    <glyph glyph-name="gdotaccent" unicode="&#x121;" horiz-adv-x="972" 
d="M479 1362q-44 0 -76 32t-32 76t32 75.5t76 31.5t75.5 -31.5t31.5 -75.5t-31.5 -76t-75.5 -32zM504 154q217 0 330.5 -59.5t113.5 -200.5q0 -102 -71 -190.5t-196.5 -142t-274.5 -53.5q-78 0 -145.5 14.5t-122.5 43.5t-86.5 78.5t-31.5 113.5q0 84 50 152.5t149 144.5
q-106 39 -106 142q0 55 33.5 103.5t97.5 109.5q-63 52 -98 133t-35 182q0 174 99.5 282.5t248.5 108.5q111 0 194 -59q115 59 232 59q67 0 67 -53q0 -49 -67 -49q-95 0 -164 -17l-12 11q100 -111 100 -283q0 -175 -100.5 -284t-249.5 -109q-97 0 -174 47q-80 -71 -80 -123
q0 -53 67.5 -77.5t231.5 -24.5zM432 1042q-93 -7 -134.5 -92t-29.5 -241q13 -156 69.5 -232.5t149.5 -70.5q92 7 134 93t28 240q-15 156 -70 234t-147 69zM465 -358q184 0 294.5 59.5t110.5 169.5q0 46 -24 76t-73.5 45.5t-111 21.5t-151.5 6q-141 0 -238 19
q-78 -69 -108.5 -117t-30.5 -102q0 -83 86.5 -130.5t245.5 -47.5z" />
    <glyph glyph-name="uni0122" unicode="&#x122;" horiz-adv-x="1529" 
d="M78 815q0 180 48 337t136 274.5t221.5 185t296.5 67.5q91 0 167 -17.5t115 -38.5t72 -38.5t48 -17.5q21 0 28 17t7 75h45l30 -563h-45q-27 260 -131.5 384t-312.5 124q-106 0 -194 -40t-149.5 -111.5t-104.5 -170.5t-63 -216.5t-20 -250.5q0 -134 19 -249t61.5 -213.5
t106.5 -168t157.5 -108.5t210.5 -39q107 0 192 37t140 90v485q0 68 -25.5 98.5t-108 45t-261.5 14.5v47h719v-47q-90 0 -115 -29.5t-25 -128.5v-485q-112 -107 -240 -156t-286 -49q-178 0 -320 66t-233 182t-138.5 271t-47.5 337zM815 -332q-28 0 -46.5 23t-18.5 61
q0 43 28.5 67.5t71.5 24.5q55 0 88 -36t33 -101q0 -72 -49 -126.5t-154 -80.5v45q49 12 90 43.5t41 69.5q0 31 -20 31q-6 0 -25.5 -10.5t-38.5 -10.5z" />
    <glyph glyph-name="uni0123" unicode="&#x123;" horiz-adv-x="972" 
d="M489 1362q-55 0 -88.5 36t-33.5 101q0 157 204 207v-45q-50 -12 -90.5 -43.5t-40.5 -69.5q0 -30 21 -30q6 0 24.5 10t38.5 10q27 0 45.5 -23.5t18.5 -60.5q0 -43 -28.5 -67.5t-70.5 -24.5zM504 154q217 0 330.5 -59.5t113.5 -200.5q0 -102 -71 -190.5t-196.5 -142
t-274.5 -53.5q-78 0 -145.5 14.5t-122.5 43.5t-86.5 78.5t-31.5 113.5q0 84 50 152.5t149 144.5q-106 39 -106 142q0 55 33.5 103.5t97.5 109.5q-63 52 -98 133t-35 182q0 174 99.5 282.5t248.5 108.5q111 0 194 -59q115 59 232 59q67 0 67 -53q0 -49 -67 -49
q-95 0 -164 -17l-12 11q100 -111 100 -283q0 -175 -100.5 -284t-249.5 -109q-97 0 -174 47q-80 -71 -80 -123q0 -53 67.5 -77.5t231.5 -24.5zM432 1042q-93 -7 -134.5 -92t-29.5 -241q13 -156 69.5 -232.5t149.5 -70.5q92 7 134 93t28 240q-15 156 -70 234t-147 69z
M465 -358q184 0 294.5 59.5t110.5 169.5q0 46 -24 76t-73.5 45.5t-111 21.5t-151.5 6q-141 0 -238 19q-78 -69 -108.5 -117t-30.5 -102q0 -83 86.5 -130.5t245.5 -47.5z" />
    <glyph glyph-name="Hbar" unicode="&#x126;" horiz-adv-x="1556" 
d="M1489 1227h-242v-1022q0 -51 6 -78t29 -47t64.5 -26.5t115.5 -6.5v-47h-610v47q98 0 143.5 14.5t59.5 45t14 98.5v626h-623v-626q0 -67 14 -98t59.5 -45.5t142.5 -14.5v-47h-611v47q98 0 143.5 14.5t59.5 45t14 98.5v1022h-200v61h200v148q0 51 -6 78t-29.5 47t-65 26
t-116.5 6v45h611v-45q-59 0 -96.5 -5t-62.5 -14t-37 -29t-16 -44t-4 -65v-148h623v148q0 51 -6 78t-29.5 47t-65 26t-116.5 6v45h610v-45q-74 0 -115.5 -6t-64.5 -26t-29 -47t-6 -78v-148h242v-61zM1069 907v320h-623v-320h623z" />
    <glyph glyph-name="hbar" unicode="&#x127;" horiz-adv-x="1204" 
d="M872 205q0 -99 25 -128.5t115 -29.5v-47h-424v47q85 0 109 29.5t24 128.5v626q0 175 -119 175q-110 0 -244 -166v-635q0 -100 24 -129t110 -29v-47h-424v47q90 0 114.5 29t24.5 129v1085h-135v62h135v63q0 94 -9 112q-12 24 -60 4q-16 -6 -40 -18l-20 43l147 70l109 53
l24 -24v-303h324v-62h-324v-375h7q139 201 299 201q208 0 208 -285v-626z" />
    <glyph glyph-name="Imacron" unicode="&#x12a;" horiz-adv-x="692" 
d="M70 2005h553v-76h-553v76zM258 1436q0 51 -6 78t-29.5 47t-65 26t-116.5 6v45h610v-45q-74 0 -115.5 -6t-64.5 -26t-29 -47t-6 -78v-1231q0 -51 6 -78t29 -47t64.5 -26.5t115.5 -6.5v-47h-610v47q98 0 143.5 14.5t59.5 45t14 98.5v1231z" />
    <glyph glyph-name="imacron" unicode="&#x12b;" horiz-adv-x="528" 
d="M-41 1497h553v-76h-553v76zM348 205q0 -100 24.5 -129t114.5 -29v-47h-430v47q90 0 115 29.5t25 128.5v647q0 94 -9 112q-12 24 -60 4q-16 -6 -40 -18l-20 43l147 70l109 53l24 -24v-887z" />
    <glyph glyph-name="Iogonek" unicode="&#x12e;" horiz-adv-x="692" 
d="M651 1593q-74 0 -115.5 -6t-64.5 -26t-29 -47t-6 -78v-1231q0 -51 6 -78t29 -47t64.5 -26.5t115.5 -6.5v-47h-100q-25 -27 -70 -59t-75 -53.5t-54 -62t-24 -93.5q0 -62 37 -100t104 -38q65 0 166 48l12 -45q-112 -84 -227 -84q-94 0 -156.5 53t-62.5 145q0 57 22.5 101
t60 71t75 45.5t79.5 37.5t62 34h-459v47q98 0 143.5 14.5t59.5 45t14 98.5v1231q0 51 -6 78t-29.5 47t-65 26t-116.5 6v45h610v-45z" />
    <glyph glyph-name="iogonek" unicode="&#x12f;" horiz-adv-x="528" 
d="M238 1362q-44 0 -76.5 32t-32.5 76t32.5 75.5t76.5 31.5t75 -31.5t31 -75.5t-31 -76t-75 -32zM516 -358l12 -45q-112 -84 -227 -84q-94 0 -156.5 53t-62.5 145q0 57 22.5 101t60 71t75 45.5t79.5 37.5t62 34h-324v47q90 0 115 29.5t25 128.5v647q0 94 -9 112
q-12 24 -60 4q-16 -6 -40 -18l-20 43l147 70l109 53l24 -24v-887q0 -100 24.5 -129t114.5 -29v-47h-55q-25 -27 -70 -59t-75 -53.5t-54 -62t-24 -93.5q0 -62 37 -100t104 -38q65 0 166 48z" />
    <glyph glyph-name="Idotaccent" unicode="&#x130;" horiz-adv-x="692" 
d="M348 1870q-44 0 -76 32t-32 76t32 75.5t76 31.5t75.5 -31.5t31.5 -75.5t-31.5 -76t-75.5 -32zM258 1436q0 51 -6 78t-29.5 47t-65 26t-116.5 6v45h610v-45q-74 0 -115.5 -6t-64.5 -26t-29 -47t-6 -78v-1231q0 -51 6 -78t29 -47t64.5 -26.5t115.5 -6.5v-47h-610v47
q98 0 143.5 14.5t59.5 45t14 98.5v1231z" />
    <glyph glyph-name="dotlessi" unicode="&#x131;" horiz-adv-x="528" 
d="M348 205q0 -100 24.5 -129t114.5 -29v-47h-430v47q90 0 115 29.5t25 128.5v647q0 94 -9 112q-12 24 -60 4q-16 -6 -40 -18l-20 43l147 70l109 53l24 -24v-887z" />
    <glyph glyph-name="uni0136" unicode="&#x136;" horiz-adv-x="1572" 
d="M252 1436q0 51 -6 78t-29 47t-64.5 26t-115.5 6v45h610v-45q-75 0 -116.5 -6t-65 -26t-29.5 -47t-6 -78v-1231q0 -68 14 -98.5t59.5 -45t143.5 -14.5v-47h-610v47q74 0 115.5 6.5t64.5 26.5t29 47t6 78v1231zM1268 162q57 -73 111 -94t153 -21v-47h-551v47
q110 0 120.5 15t-41.5 75q-12 15 -18 23l-542 692l526 631q55 64 61 76q11 23 -21 29q-25 5 -103 5v45h432v-45q-100 0 -156 -20.5t-115 -91.5l-448 -543zM801 -332q-28 0 -47 23t-19 61q0 43 29 67.5t72 24.5q55 0 87.5 -36t32.5 -101q0 -156 -202 -207v45q49 12 90 43.5
t41 69.5q0 31 -21 31q-6 0 -25 -10.5t-38 -10.5z" />
    <glyph glyph-name="uni0137" unicode="&#x137;" horiz-adv-x="1048" 
d="M348 205q0 -100 24.5 -129t114.5 -29v-47h-430v47q90 0 115 29.5t25 128.5v1210q0 94 -9 112q-12 24 -60 4q-16 -6 -40 -18l-20 43l147 70l109 53l24 -24v-1450zM829 178q47 -82 88 -106.5t111 -24.5v-47h-450v47q97 0 105.5 20.5t-40.5 99.5q-4 7 -6 11l-248 443
l264 301q10 12 28 31q50 52 42 64.5t-102 12.5v45h366v-45q-73 0 -122 -20t-109 -88l-207 -244zM504 -332q-28 0 -47 23t-19 61q0 43 29 67.5t72 24.5q55 0 87.5 -36t32.5 -101q0 -156 -202 -207v45q49 12 90 43.5t41 69.5q0 31 -21 31q-6 0 -25 -10.5t-38 -10.5z" />
    <glyph glyph-name="Lacute" unicode="&#x139;" horiz-adv-x="1222" 
d="M342 1790l137 371h185l-250 -371h-72zM651 1638v-45q-74 0 -115.5 -6t-64.5 -26t-29 -47t-6 -78v-1229q0 -81 22 -105t95 -24h340q67 0 104.5 26.5t71 106t74.5 246.5l45 -11l-98 -405l-11 -41h-1038v47q98 0 143.5 14.5t59.5 45t14 98.5v1231q0 51 -6 78t-29.5 47
t-65 26t-116.5 6v45h610z" />
    <glyph glyph-name="lacute" unicode="&#x13a;" horiz-adv-x="528" 
d="M186 1817l138 370h184l-250 -370h-72zM348 205q0 -100 24.5 -129t114.5 -29v-47h-430v47q90 0 115 29.5t25 128.5v1210q0 94 -9 112q-12 24 -60 4q-16 -6 -40 -18l-20 43l147 70l109 53l24 -24v-1450z" />
    <glyph glyph-name="uni013B" unicode="&#x13b;" horiz-adv-x="1222" 
d="M651 1638v-45q-74 0 -115.5 -6t-64.5 -26t-29 -47t-6 -78v-1229q0 -81 22 -105t95 -24h340q67 0 104.5 26.5t71 106t74.5 246.5l45 -11l-98 -405l-11 -41h-1038v47q98 0 143.5 14.5t59.5 45t14 98.5v1231q0 51 -6 78t-29.5 47t-65 26t-116.5 6v45h610zM616 -332
q-28 0 -46.5 23t-18.5 61q0 43 28.5 67.5t71.5 24.5q55 0 88 -36t33 -101q0 -72 -49 -126.5t-154 -80.5v45q49 12 90 43.5t41 69.5q0 31 -20 31q-6 0 -25.5 -10.5t-38.5 -10.5z" />
    <glyph glyph-name="uni013C" unicode="&#x13c;" horiz-adv-x="528" 
d="M348 205q0 -100 24.5 -129t114.5 -29v-47h-430v47q90 0 115 29.5t25 128.5v1210q0 94 -9 112q-12 24 -60 4q-16 -6 -40 -18l-20 43l147 70l109 53l24 -24v-1450zM225 -332q-28 0 -46.5 23t-18.5 61q0 43 28.5 67.5t71.5 24.5q55 0 88 -36t33 -101q0 -72 -49 -126.5
t-154 -80.5v45q49 12 90 43.5t41 69.5q0 31 -20 31q-6 0 -25.5 -10.5t-38.5 -10.5z" />
    <glyph glyph-name="Lcaron" unicode="&#x13d;" horiz-adv-x="1263" 
d="M782 1309l138 370h184l-250 -370h-72zM651 1638v-45q-74 0 -115.5 -6t-64.5 -26t-29 -47t-6 -78v-1229q0 -81 22 -105t95 -24h340q67 0 104.5 26.5t71 106t74.5 246.5l45 -11l-98 -405l-11 -41h-1038v47q98 0 143.5 14.5t59.5 45t14 98.5v1231q0 51 -6 78t-29.5 47
t-65 26t-116.5 6v45h610z" />
    <glyph glyph-name="lcaron" unicode="&#x13e;" horiz-adv-x="743" 
d="M348 205q0 -100 24.5 -129t114.5 -29v-47h-430v47q90 0 115 29.5t25 128.5v1210q0 94 -9 112q-12 24 -60 4q-16 -6 -40 -18l-20 43l147 70l109 53l24 -24v-1450zM549 1569q0 110 80 110t80 -110q0 -56 -8 -118.5t-23.5 -158t-24.5 -166.5h-45q-9 74 -25 167t-25 157
t-9 119z" />
    <glyph glyph-name="Lslash" unicode="&#x141;" horiz-adv-x="1222" 
d="M1143 457l45 -11l-98 -405l-11 -41h-1038v47q98 0 143.5 14.5t59.5 45t14 98.5v489l-160 -92l-30 53l190 111v670q0 51 -6 78t-29.5 47t-65 26t-116.5 6v45h610v-45q-74 0 -115.5 -6t-64.5 -26t-29 -47t-6 -78v-568l471 275l31 -53l-502 -291v-592q0 -81 22 -105t95 -24
h340q67 0 104.5 26.5t71 106t74.5 246.5z" />
    <glyph glyph-name="lslash" unicode="&#x142;" horiz-adv-x="628" 
d="M377 205q0 -100 24 -129t115 -29v-47h-432v47q91 0 115 29t24 129v559l-147 -86l-31 53l178 105v579q0 93 -7 110q-10 25 -54 9q-18 -7 -47 -21l-21 43l148 70l108 53l27 -24v-731l176 102l31 -53l-207 -121v-647z" />
    <glyph glyph-name="Nacute" unicode="&#x143;" horiz-adv-x="1554" 
d="M989 2163l-250 -371h-71l137 371h184zM1513 1638v-45q-75 0 -116.5 -6t-65 -26t-29.5 -47t-6 -78v-1483h-82l-880 1436v-1184q0 -68 14 -98.5t59.5 -45t143.5 -14.5v-47h-510v47q98 0 143.5 14.5t59.5 45t14 98.5v1302q-39 52 -86.5 69t-130.5 17v45h360l813 -1321h7
v1119q0 51 -6 78t-29.5 47t-65 26t-116.5 6v45h509z" />
    <glyph glyph-name="nacute" unicode="&#x144;" horiz-adv-x="1042" 
d="M444 1284l138 371h184l-250 -371h-72zM348 1092v-177h6q139 201 299 201q209 0 209 -285v-626q0 -100 24.5 -129t114.5 -29v-47h-423v47q85 0 109 29.5t24 128.5v626q0 175 -119 175q-110 0 -244 -166v-635q0 -100 23.5 -129t109.5 -29v-47h-424v47q90 0 115 29.5
t25 128.5v647q0 94 -9 112q-12 24 -60 4q-16 -6 -40 -18l-20 43l147 70l109 53z" />
    <glyph glyph-name="uni0145" unicode="&#x145;" horiz-adv-x="1554" 
d="M1513 1638v-45q-75 0 -116.5 -6t-65 -26t-29.5 -47t-6 -78v-1483h-82l-880 1436v-1184q0 -68 14 -98.5t59.5 -45t143.5 -14.5v-47h-510v47q98 0 143.5 14.5t59.5 45t14 98.5v1302q-39 52 -86.5 69t-130.5 17v45h360l813 -1321h7v1119q0 51 -6 78t-29.5 47t-65 26
t-116.5 6v45h509zM846 -156q55 0 88 -36t33 -101q0 -72 -49 -126.5t-154 -80.5v45q49 12 90 43.5t41 69.5q0 31 -21 31q-6 0 -25 -10.5t-38 -10.5q-28 0 -47 23t-19 61q0 43 29 67.5t72 24.5z" />
    <glyph glyph-name="uni0146" unicode="&#x146;" horiz-adv-x="1042" 
d="M348 1092v-177h6q139 201 299 201q209 0 209 -285v-626q0 -100 24.5 -129t114.5 -29v-47h-423v47q85 0 109 29.5t24 128.5v626q0 175 -119 175q-110 0 -244 -166v-635q0 -100 23.5 -129t109.5 -29v-47h-424v47q90 0 115 29.5t25 128.5v647q0 94 -9 112q-12 24 -60 4
q-16 -6 -40 -18l-20 43l147 70l109 53zM492 -332q-28 0 -47 23t-19 61q0 43 28.5 67.5t71.5 24.5q55 0 88 -36t33 -101q0 -72 -49 -126.5t-154 -80.5v45q49 12 90 43.5t41 69.5q0 31 -20 31q-6 0 -25 -10.5t-38 -10.5z" />
    <glyph glyph-name="Ncaron" unicode="&#x147;" horiz-adv-x="1554" 
d="M659 1786l-188 371h72l205 -265l202 265h72l-188 -371h-175zM1513 1638v-45q-75 0 -116.5 -6t-65 -26t-29.5 -47t-6 -78v-1483h-82l-880 1436v-1184q0 -68 14 -98.5t59.5 -45t143.5 -14.5v-47h-510v47q98 0 143.5 14.5t59.5 45t14 98.5v1302q-39 52 -86.5 69t-130.5 17
v45h360l813 -1321h7v1119q0 51 -6 78t-29.5 47t-65 26t-116.5 6v45h509z" />
    <glyph glyph-name="ncaron" unicode="&#x148;" horiz-adv-x="1042" 
d="M436 1278l-188 371h71l205 -265l203 265h72l-189 -371h-174zM862 205q0 -100 24.5 -129t114.5 -29v-47h-423v47q85 0 109 29.5t24 128.5v626q0 175 -119 175q-110 0 -244 -166v-635q0 -100 23.5 -129t109.5 -29v-47h-424v47q90 0 115 29.5t25 128.5v647q0 94 -9 112
q-12 24 -60 4q-16 -6 -40 -18l-20 43l147 70l109 53l24 -24v-177h6q139 201 299 201q209 0 209 -285v-626z" />
    <glyph glyph-name="Eng" unicode="&#x14a;" horiz-adv-x="1554" 
d="M1513 1638v-45q-75 0 -116.5 -6t-65 -26t-29.5 -47t-6 -78v-1495q0 -93 -12 -166t-41.5 -136t-85 -97t-135.5 -34q-116 0 -180 54.5t-64 134.5q0 43 26 67.5t66 24.5q41 0 67 -24.5t26 -71.5q0 -30 2 -46.5t10.5 -33t28 -23t51.5 -6.5q45 0 78.5 29t52 79t27 108.5
t8.5 125.5v27h-7l-880 1436v-1184q0 -68 14 -98.5t59.5 -45t143.5 -14.5v-47h-510v47q98 0 143.5 14.5t59.5 45t14 98.5v1302q-39 52 -86.5 69t-130.5 17v45h360l813 -1321h7v1119q0 51 -6 78t-29.5 47t-65 26t-116.5 6v45h509z" />
    <glyph glyph-name="eng" unicode="&#x14b;" horiz-adv-x="1003" 
d="M721 1116q242 0 242 -315v-856q0 -222 -65 -329.5t-224 -107.5q-118 0 -183 52t-65 133q0 40 26.5 64t67.5 24t67 -24t29 -72q1 -26 1.5 -35t4 -26t9.5 -23t18.5 -11.5t30.5 -5.5q25 0 44.5 8.5t32.5 21t22 38t13.5 46.5t7 59.5t3 65.5t0.5 75v923q0 199 -152 199
q-71 0 -148.5 -57.5t-148.5 -153.5v-604q0 -100 23 -129t106 -29v-47h-426v47q90 0 115 29.5t25 128.5l-2 647q0 93 -7 111q-11 24 -57 8q-17 -6 -45 -19l-20 43l149 68l115 53l24 -24v-207h6q75 103 168 167t193 64z" />
    <glyph glyph-name="Omacron" unicode="&#x14c;" horiz-adv-x="1396" 
d="M422 2005h553v-76h-553v76zM698 -41q-143 0 -261 68t-196 185t-120.5 273t-42.5 334t42.5 334t120.5 273t196 185t261 68q144 0 262.5 -68t197 -185t121 -273t42.5 -334t-42.5 -334t-121 -273t-197 -185t-262.5 -68zM768 35q128 11 215.5 113t123.5 284t15 424
q-32 367 -164 567t-327 183q-196 -19 -293.5 -239.5t-65.5 -584.5q34 -366 166.5 -566t329.5 -181z" />
    <glyph glyph-name="omacron" unicode="&#x14d;" horiz-adv-x="1019" 
d="M233 1497h553v-76h-553v76zM510 -41q-132 0 -231 77.5t-150 208t-51 294.5t51 294t150 206.5t231 76.5t231.5 -76.5t151 -206.5t51.5 -294t-51.5 -294.5t-151 -208t-231.5 -77.5zM555 39q122 11 177.5 147t35.5 375q-22 239 -100 363t-201 114q-123 -12 -179 -147.5
t-36 -376.5q22 -238 100.5 -361.5t202.5 -113.5z" />
    <glyph glyph-name="Ohungarumlaut" unicode="&#x150;" horiz-adv-x="1396" 
d="M502 1792l112 371h138l-189 -371h-61zM713 1792l121 371h139l-199 -371h-61zM698 -41q-143 0 -261 68t-196 185t-120.5 273t-42.5 334t42.5 334t120.5 273t196 185t261 68q144 0 262.5 -68t197 -185t121 -273t42.5 -334t-42.5 -334t-121 -273t-197 -185t-262.5 -68z
M768 35q128 11 215.5 113t123.5 284t15 424q-32 367 -164 567t-327 183q-196 -19 -293.5 -239.5t-65.5 -584.5q34 -366 166.5 -566t329.5 -181z" />
    <glyph glyph-name="ohungarumlaut" unicode="&#x151;" horiz-adv-x="1019" 
d="M313 1284l113 371h137l-188 -371h-62zM524 1284l121 371h139l-198 -371h-62zM510 -41q-132 0 -231 77.5t-150 208t-51 294.5t51 294t150 206.5t231 76.5t231.5 -76.5t151 -206.5t51.5 -294t-51.5 -294.5t-151 -208t-231.5 -77.5zM555 39q122 11 177.5 147t35.5 375
q-22 239 -100 363t-201 114q-123 -12 -179 -147.5t-36 -376.5q22 -238 100.5 -361.5t202.5 -113.5z" />
    <glyph glyph-name="OE" unicode="&#x152;" horiz-adv-x="1865" 
d="M1800 438l43 -14l-121 -424h-678q-55 0 -159 -10t-187 -10q-146 0 -264.5 64.5t-195.5 178t-118.5 266t-41.5 330.5t41.5 331t118.5 266.5t195.5 178t264.5 64.5q83 0 187 -10.5t159 -10.5h674l4 -49l37 -323l-45 -4q-16 134 -37.5 197t-54.5 83.5t-100 20.5h-432v-664
h276q68 0 98.5 15.5t45 65t14.5 157.5h45v-553h-45q0 107 -14.5 157t-45 65t-98.5 15h-276v-626q0 -72 18 -94.5t78 -22.5l354 -2q66 0 104.5 26t74 101.5t81.5 234.5zM678 57q64 0 114.5 16t112.5 60v1372q-64 47 -114.5 64.5t-112.5 15.5q-130 -4 -222.5 -104.5t-138 -270
t-45.5 -391.5t45 -392t138 -270t223 -100z" />
    <glyph glyph-name="oe" unicode="&#x153;" horiz-adv-x="1622" 
d="M1497 434h47q-29 -234 -120.5 -354.5t-227.5 -120.5q-111 0 -190 70t-121 200q-54 -127 -150 -198.5t-225 -71.5q-132 0 -231 77.5t-150 208t-51 294.5t51 294t150 206.5t231 76.5t230.5 -75t150.5 -207q46 131 128.5 206.5t194.5 75.5q156 0 241 -142t85 -374h-539v-27
q0 -138 27.5 -246.5t83.5 -173.5t133 -65q83 0 149 81t103 265zM555 39q122 11 177.5 147t35.5 375q-22 239 -100 363t-201 114q-123 -12 -179 -147.5t-36 -376.5q22 -238 100.5 -361.5t202.5 -113.5zM1208 1040q-61 0 -105 -49.5t-67 -128.5t-30 -186h376q0 76 -9 139
t-28.5 115t-54.5 81t-82 29z" />
    <glyph glyph-name="Racute" unicode="&#x154;" horiz-adv-x="1314" 
d="M856 2161l-250 -371h-71l137 371h184zM1049 182q41 -85 88 -111t143 -26l-2 -45h-158q-50 0 -76.5 2t-55 9.5t-46 24t-36 43.5t-38.5 71l-329 651h-47h-56v-596q0 -51 6 -78t29 -47t64.5 -26.5t115.5 -6.5v-47h-610v47q98 0 143.5 14.5t59.5 45t14 98.5v1231q0 51 -6 78
t-29.5 47t-65 26t-116.5 6v45h569q237 0 365.5 -105t128.5 -304q0 -381 -477 -422h14v-6q117 -37 195 -197zM492 877q56 -1 108.5 6t112.5 30t104 60.5t73.5 104t29.5 153.5q0 161 -87 246.5t-229 85.5q-92 0 -168 -37v-649h56z" />
    <glyph glyph-name="racute" unicode="&#x155;" horiz-adv-x="786" 
d="M688 1655l-250 -371h-71l137 371h184zM616 1116q59 0 97.5 -29.5t38.5 -78.5q0 -42 -25 -70.5t-68 -28.5q-63 0 -86 52q-16 30 -43 30q-44 0 -83.5 -42t-98.5 -142v-602q0 -69 15 -100.5t57.5 -44.5t136.5 -13v-47h-500v47q90 0 115 29.5t25 128.5v647q0 94 -9 112
q-12 24 -60 4q-16 -6 -40 -18l-20 43l147 70l109 53l24 -24v-179h6q114 203 262 203z" />
    <glyph glyph-name="uni0156" unicode="&#x156;" horiz-adv-x="1314" 
d="M1049 182q41 -85 88 -111t143 -26l-2 -45h-158q-50 0 -76.5 2t-55 9.5t-46 24t-36 43.5t-38.5 71l-329 651h-47h-56v-596q0 -51 6 -78t29 -47t64.5 -26.5t115.5 -6.5v-47h-610v47q98 0 143.5 14.5t59.5 45t14 98.5v1231q0 51 -6 78t-29.5 47t-65 26t-116.5 6v45h569
q237 0 365.5 -105t128.5 -304q0 -381 -477 -422h14v-6q117 -37 195 -197zM492 877q56 -1 108.5 6t112.5 30t104 60.5t73.5 104t29.5 153.5q0 161 -87 246.5t-229 85.5q-92 0 -168 -37v-649h56zM791 -156q55 0 87.5 -36t32.5 -101q0 -156 -202 -207v45q49 12 90 43.5t41 69.5
q0 31 -21 31q-6 0 -25.5 -10.5t-39.5 -10.5q-27 0 -45.5 23.5t-18.5 60.5q0 43 29 67.5t72 24.5z" />
    <glyph glyph-name="uni0157" unicode="&#x157;" horiz-adv-x="786" 
d="M616 1116q59 0 97.5 -29.5t38.5 -78.5q0 -42 -25 -70.5t-68 -28.5q-63 0 -86 52q-16 30 -43 30q-44 0 -83.5 -42t-98.5 -142v-602q0 -69 15 -100.5t57.5 -44.5t136.5 -13v-47h-500v47q90 0 115 29.5t25 128.5v647q0 94 -9 112q-12 24 -60 4q-16 -6 -40 -18l-20 43l147 70
l109 53l24 -24v-179h6q114 203 262 203zM293 -156q55 0 88 -36t33 -101q0 -72 -49 -126.5t-154 -80.5v45q49 12 90 43.5t41 69.5q0 31 -20 31q-6 0 -25.5 -10.5t-38.5 -10.5q-28 0 -46.5 23t-18.5 61q0 43 28.5 67.5t71.5 24.5z" />
    <glyph glyph-name="Rcaron" unicode="&#x158;" horiz-adv-x="1314" 
d="M532 1786l-188 371h72l202 -265l205 265h72l-188 -371h-175zM1049 182q41 -85 88 -111t143 -26l-2 -45h-158q-50 0 -76.5 2t-55 9.5t-46 24t-36 43.5t-38.5 71l-329 651h-47h-56v-596q0 -51 6 -78t29 -47t64.5 -26.5t115.5 -6.5v-47h-610v47q98 0 143.5 14.5t59.5 45
t14 98.5v1231q0 51 -6 78t-29.5 47t-65 26t-116.5 6v45h569q237 0 365.5 -105t128.5 -304q0 -381 -477 -422h14v-6q117 -37 195 -197zM492 877q56 -1 108.5 6t112.5 30t104 60.5t73.5 104t29.5 153.5q0 161 -87 246.5t-229 85.5q-92 0 -168 -37v-649h56z" />
    <glyph glyph-name="rcaron" unicode="&#x159;" horiz-adv-x="786" 
d="M358 1278l-188 371h72l204 -265l203 265h72l-189 -371h-174zM616 1116q59 0 97.5 -29.5t38.5 -78.5q0 -42 -25 -70.5t-68 -28.5q-63 0 -86 52q-16 30 -43 30q-44 0 -83.5 -42t-98.5 -142v-602q0 -69 15 -100.5t57.5 -44.5t136.5 -13v-47h-500v47q90 0 115 29.5t25 128.5
v647q0 94 -9 112q-12 24 -60 4q-16 -6 -40 -18l-20 43l147 70l109 53l24 -24v-179h6q114 203 262 203z" />
    <glyph glyph-name="Sacute" unicode="&#x15a;" horiz-adv-x="1122" 
d="M475 1792l137 371h185l-250 -371h-72zM121 -6v588h45q2 -124 36 -227.5t89.5 -172.5t128 -107t153.5 -38q130 0 206.5 76.5t76.5 201.5q0 32 -6 62t-22 61t-30 56t-43.5 57.5t-48.5 53t-59 56.5t-60.5 53.5t-68 57.5t-67.5 57q-68 59 -104.5 92.5t-81 78.5t-66.5 77
t-43.5 74t-29 84.5t-7.5 93.5q0 163 108.5 256.5t276.5 93.5q76 0 142.5 -23t102 -50.5t66 -50.5t43.5 -23q18 0 24.5 21t6.5 92h45v-480h-45q-5 193 -108 316t-263 123q-124 0 -188 -65.5t-64 -158.5q0 -35 9 -68.5t29 -65.5t39.5 -58t53.5 -58.5t58 -53t66.5 -56
t64.5 -55.5q187 -164 205 -182q128 -120 173 -220q40 -89 40 -205q0 -93 -35 -170.5t-93 -126.5t-130.5 -75.5t-149.5 -26.5q-71 0 -131.5 16t-98.5 38.5t-67.5 45t-52 38.5t-37.5 16q-25 0 -34 -26t-9 -93h-45z" />
    <glyph glyph-name="sacute" unicode="&#x15b;" horiz-adv-x="757" 
d="M334 1284l137 371h184l-249 -371h-72zM104 -20v405h46q21 -157 93.5 -252.5t184.5 -95.5q135 0 135 149q0 60 -32.5 118t-66 93t-115.5 109q-10 9 -15 14q-53 46 -76.5 67.5t-60.5 61.5t-53 69t-29 69.5t-13 84.5q0 107 70 175.5t180 68.5q47 0 87.5 -13t62 -28t40.5 -28
t29 -13q16 0 19.5 13t3.5 49h47v-332h-47q-20 121 -81 198.5t-153 77.5q-63 0 -93.5 -37t-30.5 -83q0 -71 47.5 -130.5t154.5 -152.5q75 -65 118 -108.5t78 -92.5t48.5 -98t13.5 -111q0 -130 -75 -199t-185 -69q-53 0 -98.5 13t-71 28t-49 28t-35.5 13q-19 0 -25.5 -14
t-6.5 -47h-46z" />
    <glyph glyph-name="Scedilla" unicode="&#x15e;" horiz-adv-x="1122" 
d="M1004 358q0 -159 -93 -262t-231 -129l-62 -76q81 -7 138 -48.5t57 -114.5q0 -92 -68.5 -150.5t-169 -76t-215.5 -3.5l13 47q144 -11 227.5 30t83.5 134q0 77 -53 107t-152 32l109 111q-85 1 -155 25.5t-106 53t-68 52t-50 23.5q-25 0 -34 -26t-9 -93h-45v588h45
q2 -124 36 -227.5t89.5 -172.5t128 -107t153.5 -38q130 0 206.5 76.5t76.5 201.5q0 32 -6 62t-22 61t-30 56t-43.5 57.5t-48.5 53t-59 56.5t-60.5 53.5t-68 57.5t-67.5 57q-68 59 -104.5 92.5t-81 78.5t-66.5 77t-43.5 74t-29 84.5t-7.5 93.5q0 163 108.5 256.5t276.5 93.5
q76 0 142.5 -23t102 -50.5t66 -50.5t43.5 -23q18 0 24.5 21t6.5 92h45v-480h-45q-5 193 -108 316t-263 123q-124 0 -188 -65.5t-64 -158.5q0 -35 9 -68.5t29 -65.5t39.5 -58t53.5 -58.5t58 -53t66.5 -56t64.5 -55.5q187 -164 205 -182q128 -120 173 -220q40 -89 40 -205z
" />
    <glyph glyph-name="scedilla" unicode="&#x15f;" horiz-adv-x="757" 
d="M475 -109q81 -7 138 -48.5t57 -114.5q0 -92 -68.5 -150.5t-169 -76t-215.5 -3.5l12 47q144 -11 228 30t84 134q0 77 -53 107t-152 32l108 111h-8q-53 0 -98.5 13t-71 28t-49 28t-35.5 13q-19 0 -25.5 -14t-6.5 -47h-46v405h46q21 -157 93.5 -252.5t184.5 -95.5
q135 0 135 149q0 60 -32.5 118t-66 93t-115.5 109q-10 9 -15 14q-53 46 -76.5 67.5t-60.5 61.5t-53 69t-29 69.5t-13 84.5q0 107 70 175.5t180 68.5q47 0 87.5 -13t62 -28t40.5 -28t29 -13q16 0 19.5 13t3.5 49h47v-332h-47q-20 121 -81 198.5t-153 77.5q-63 0 -93.5 -37
t-30.5 -83q0 -71 47.5 -130.5t154.5 -152.5q75 -65 118 -108.5t78 -92.5t48.5 -98t13.5 -111q0 -94 -40 -156t-109 -91z" />
    <glyph glyph-name="Scaron" unicode="&#x160;" horiz-adv-x="1122" 
d="M467 1786l-188 371h71l205 -265l203 265h71l-188 -371h-174zM586 965q187 -164 205 -182q128 -120 173 -220q40 -89 40 -205q0 -93 -35 -170.5t-93 -126.5t-130.5 -75.5t-149.5 -26.5q-71 0 -131.5 16t-98.5 38.5t-67.5 45t-52 38.5t-37.5 16q-25 0 -34 -26t-9 -93h-45
v588h45q2 -124 36 -227.5t89.5 -172.5t128 -107t153.5 -38q130 0 206.5 76.5t76.5 201.5q0 32 -6 62t-22 61t-30 56t-43.5 57.5t-48.5 53t-59 56.5t-60.5 53.5t-68 57.5t-67.5 57q-68 59 -104.5 92.5t-81 78.5t-66.5 77t-43.5 74t-29 84.5t-7.5 93.5q0 163 108.5 256.5
t276.5 93.5q76 0 142.5 -23t102 -50.5t66 -50.5t43.5 -23q18 0 24.5 21t6.5 92h45v-480h-45q-5 193 -108 316t-263 123q-124 0 -188 -65.5t-64 -158.5q0 -35 9 -68.5t29 -65.5t39.5 -58t53.5 -58.5t58 -53t66.5 -56t64.5 -55.5z" />
    <glyph glyph-name="scaron" unicode="&#x161;" horiz-adv-x="757" 
d="M326 1278l-189 371h72l205 -265l202 265h72l-188 -371h-174zM438 637q75 -65 118 -108.5t78 -92.5t48.5 -98t13.5 -111q0 -130 -75 -199t-185 -69q-53 0 -98.5 13t-71 28t-49 28t-35.5 13q-19 0 -25.5 -14t-6.5 -47h-46v405h46q21 -157 93.5 -252.5t184.5 -95.5
q135 0 135 149q0 60 -32.5 118t-66 93t-115.5 109q-10 9 -15 14q-53 46 -76.5 67.5t-60.5 61.5t-53 69t-29 69.5t-13 84.5q0 107 70 175.5t180 68.5q47 0 87.5 -13t62 -28t40.5 -28t29 -13q16 0 19.5 13t3.5 49h47v-332h-47q-20 121 -81 198.5t-153 77.5q-63 0 -93.5 -37
t-30.5 -83q0 -71 47.5 -130.5t154.5 -152.5z" />
    <glyph glyph-name="uni0162" unicode="&#x162;" horiz-adv-x="1304" 
d="M1214 1589l29 -329l-47 -5q-7 83 -16.5 136t-22 88t-34 52t-46.5 23.5t-65 6.5l-271 2v-1358q0 -68 14 -98.5t59.5 -45t143.5 -14.5v-47h-233l-88 -109q81 -7 137.5 -48.5t56.5 -114.5q0 -70 -39.5 -121.5t-103.5 -76t-145 -35t-164 2.5l12 47q144 -11 227.5 30t83.5 134
q0 77 -53 107t-151 32l147 152h-297v47q74 0 115.5 6.5t64.5 26.5t29 47t6 78v1358l-270 -2q-40 0 -65 -6.5t-46.5 -23.5t-34 -52t-22 -88t-16.5 -136l-48 5l29 329l6 49h1114z" />
    <glyph glyph-name="uni0163" unicode="&#x163;" horiz-adv-x="696" 
d="M446 -109q81 -7 138 -48.5t57 -114.5q0 -92 -68.5 -150.5t-169 -76t-215.5 -3.5l13 47q144 -11 227.5 30t83.5 134q0 77 -53 107t-152 32l109 111q-110 5 -168 94t-58 279v667h-163v76q135 3 193 68t67 225h55v-293h244v-76h-244v-596q0 -59 1.5 -97.5t5.5 -80.5
t12.5 -67.5t22.5 -47.5t35 -32t50 -10q74 0 106 85t33 298h47q-2 -213 -31.5 -326.5t-109.5 -149.5z" />
    <glyph glyph-name="Tcaron" unicode="&#x164;" horiz-adv-x="1304" 
d="M565 1786l-188 371h72l204 -265l203 265h72l-189 -371h-174zM1214 1589l29 -329l-47 -5q-7 83 -16.5 136t-22 88t-34 52t-46.5 23.5t-65 6.5l-271 2v-1358q0 -68 14 -98.5t59.5 -45t143.5 -14.5v-47h-610v47q74 0 115.5 6.5t64.5 26.5t29 47t6 78v1358l-270 -2
q-40 0 -65 -6.5t-46.5 -23.5t-34 -52t-22 -88t-16.5 -136l-48 5l29 329l6 49h1114z" />
    <glyph glyph-name="tcaron" unicode="&#x165;" horiz-adv-x="729" 
d="M469 1202l137 371h185l-250 -371h-72zM608 451h47q-1 -101 -7 -174t-21 -136t-40 -101.5t-64.5 -59.5t-94.5 -21q-117 0 -177.5 88.5t-60.5 284.5v667h-163v76q135 3 193 68t67 225h55v-293h244v-76h-244v-596q0 -59 1.5 -97.5t5.5 -80.5t12.5 -67.5t22.5 -47.5t35 -32
t50 -10q74 0 106 85t33 298z" />
    <glyph glyph-name="Tbar" unicode="&#x166;" horiz-adv-x="1345" 
d="M1214 1589l29 -329l-47 -5q-7 83 -16.5 136t-22 88t-34 52t-46.5 23.5t-65 6.5l-271 2v-725h342v-62h-342v-571q0 -68 14 -98.5t59.5 -45t143.5 -14.5v-47h-610v47q74 0 115.5 6.5t64.5 26.5t29 47t6 78v571h-299v62h299v725l-270 -2q-40 0 -65 -6.5t-46.5 -23.5t-34 -52
t-22 -88t-16.5 -136l-48 5l29 329l6 49h1114z" />
    <glyph glyph-name="tbar" unicode="&#x167;" horiz-adv-x="710" 
d="M608 451h47q-1 -101 -7 -174t-21 -136t-40 -101.5t-64.5 -59.5t-94.5 -21q-117 0 -177.5 88.5t-60.5 284.5v370h-170v62h170v235h-163v76q135 3 193 68t67 225h55v-293h244v-76h-244v-235h240v-62h-240v-299q0 -59 1.5 -97.5t5.5 -80.5t12.5 -67.5t22.5 -47.5t35 -32
t50 -10q74 0 106 85t33 298z" />
    <glyph glyph-name="Umacron" unicode="&#x16a;" horiz-adv-x="1576" 
d="M563 2005h553v-76h-553v76zM1243 1436q0 51 -6 78t-29.5 47t-65 26t-116.5 6v45h510v-45q-75 0 -116.5 -6t-65 -26t-29.5 -47t-6 -78v-947q0 -81 -13 -152.5t-47 -142.5t-87.5 -121.5t-141 -82t-201.5 -31.5q-151 0 -263 41.5t-178.5 116t-98 170.5t-31.5 213v936
q0 51 -6 78t-29.5 47t-65 26t-116.5 6v45h610v-45q-74 0 -115.5 -6t-64.5 -26t-29 -47t-6 -78v-947q0 -234 102 -343t308 -109q187 0 292 110t105 342v947z" />
    <glyph glyph-name="umacron" unicode="&#x16b;" horiz-adv-x="1003" 
d="M227 1497h553v-76h-553v76zM686 -16v176h-6q-64 -94 -135 -147.5t-158 -53.5q-209 0 -209 285v618q0 37 -1 56.5t-5 39t-11.5 26t-22 10.5t-34.5 0t-51 -13l-14 45l266 76l25 -27v-831q0 -88 27.5 -131t88.5 -43q108 0 240 168v624q0 38 -0.5 56.5t-5 38.5t-11.5 26.5
t-22 10.5t-35 0t-51 -13l-12 45l264 76l27 -27l-2 -852v-16q0 -85 10 -100q13 -20 67 3l29 13l21 -41l-146 -70l-106 -53z" />
    <glyph glyph-name="Uring" unicode="&#x16e;" horiz-adv-x="1576" 
d="M840 1796q-88 0 -146.5 60.5t-58.5 144.5q0 82 59 142.5t146 60.5t144.5 -60.5t57.5 -142.5q0 -84 -57.5 -144.5t-144.5 -60.5zM840 1868q62 0 96.5 39.5t34.5 93.5q0 52 -34.5 91.5t-96.5 39.5q-63 0 -98 -39.5t-35 -91.5q0 -54 34.5 -93.5t98.5 -39.5zM1243 1436
q0 51 -6 78t-29.5 47t-65 26t-116.5 6v45h510v-45q-75 0 -116.5 -6t-65 -26t-29.5 -47t-6 -78v-947q0 -81 -13 -152.5t-47 -142.5t-87.5 -121.5t-141 -82t-201.5 -31.5q-151 0 -263 41.5t-178.5 116t-98 170.5t-31.5 213v936q0 51 -6 78t-29.5 47t-65 26t-116.5 6v45h610
v-45q-74 0 -115.5 -6t-64.5 -26t-29 -47t-6 -78v-947q0 -234 102 -343t308 -109q187 0 292 110t105 342v947z" />
    <glyph glyph-name="uring" unicode="&#x16f;" horiz-adv-x="1003" 
d="M504 1288q-88 0 -146.5 60.5t-58.5 144.5q0 82 59 142.5t146 60.5t145 -60.5t58 -142.5q0 -84 -58 -144.5t-145 -60.5zM504 1360q62 0 96.5 39.5t34.5 93.5q0 52 -34.5 91.5t-96.5 39.5q-63 0 -98 -39.5t-35 -91.5q0 -54 34.5 -93.5t98.5 -39.5zM686 -16v176h-6
q-64 -94 -135 -147.5t-158 -53.5q-209 0 -209 285v618q0 37 -1 56.5t-5 39t-11.5 26t-22 10.5t-34.5 0t-51 -13l-14 45l266 76l25 -27v-831q0 -88 27.5 -131t88.5 -43q108 0 240 168v624q0 38 -0.5 56.5t-5 38.5t-11.5 26.5t-22 10.5t-35 0t-51 -13l-12 45l264 76l27 -27
l-2 -852v-16q0 -85 10 -100q13 -20 67 3l29 13l21 -41l-146 -70l-106 -53z" />
    <glyph glyph-name="Uhungarumlaut" unicode="&#x170;" horiz-adv-x="1576" 
d="M641 1792l113 371h137l-189 -371h-61zM852 1792l121 371h139l-199 -371h-61zM1243 1436q0 51 -6 78t-29.5 47t-65 26t-116.5 6v45h510v-45q-75 0 -116.5 -6t-65 -26t-29.5 -47t-6 -78v-947q0 -81 -13 -152.5t-47 -142.5t-87.5 -121.5t-141 -82t-201.5 -31.5
q-151 0 -263 41.5t-178.5 116t-98 170.5t-31.5 213v936q0 51 -6 78t-29.5 47t-65 26t-116.5 6v45h610v-45q-74 0 -115.5 -6t-64.5 -26t-29 -47t-6 -78v-947q0 -234 102 -343t308 -109q187 0 292 110t105 342v947z" />
    <glyph glyph-name="uhungarumlaut" unicode="&#x171;" horiz-adv-x="1003" 
d="M305 1284l113 371h137l-188 -371h-62zM516 1284l121 371h139l-198 -371h-62zM686 -16v176h-6q-64 -94 -135 -147.5t-158 -53.5q-209 0 -209 285v618q0 37 -1 56.5t-5 39t-11.5 26t-22 10.5t-34.5 0t-51 -13l-14 45l266 76l25 -27v-831q0 -88 27.5 -131t88.5 -43
q108 0 240 168v624q0 38 -0.5 56.5t-5 38.5t-11.5 26.5t-22 10.5t-35 0t-51 -13l-12 45l264 76l27 -27l-2 -852v-16q0 -85 10 -100q13 -20 67 3l29 13l21 -41l-146 -70l-106 -53z" />
    <glyph glyph-name="Uogonek" unicode="&#x172;" horiz-adv-x="1576" 
d="M1536 1638v-45q-75 0 -116.5 -6t-65 -26t-29.5 -47t-6 -78v-947q0 -86 -15.5 -162t-51 -148t-103 -125t-160.5 -77q-25 -26 -69.5 -58t-74.5 -53.5t-53.5 -62t-23.5 -92.5q0 -62 37 -99.5t104 -37.5t166 47l12 -45q-112 -84 -227 -84q-94 0 -156.5 53.5t-62.5 145.5
q0 53 18.5 94t53 68t65.5 44t74.5 36t62.5 30q-54 -4 -86 -4q-151 0 -263 41.5t-178.5 116t-98 170.5t-31.5 213v936q0 51 -6 78t-29.5 47t-65 26t-116.5 6v45h610v-45q-74 0 -115.5 -6t-64.5 -26t-29 -47t-6 -78v-947q0 -234 102 -343t308 -109q187 0 292 110t105 342v947
q0 51 -6 78t-29.5 47t-65 26t-116.5 6v45h510z" />
    <glyph glyph-name="uogonek" unicode="&#x173;" horiz-adv-x="1003" 
d="M659 -418q67 0 166 47l13 -45q-112 -84 -228 -84q-94 0 -156.5 53.5t-62.5 145.5q0 56 22 99.5t58.5 71t73.5 46t79 37.5t62 33v174h-6q-64 -94 -135 -147.5t-158 -53.5q-209 0 -209 285v618q0 37 -1 56.5t-5 39t-11.5 26t-22 10.5t-34.5 0t-51 -13l-14 45l266 76l25 -27
v-831q0 -88 27.5 -131t88.5 -43q108 0 240 168v624q0 38 -0.5 56.5t-5 38.5t-11.5 26.5t-22 10.5t-35 0t-51 -13l-12 45l264 76l27 -27l-2 -852v-16q0 -85 10 -100q13 -20 67 3l29 13l21 -41l-146 -70l-106 -53q-19 -15 -52.5 -38t-54.5 -39t-43.5 -39.5t-33.5 -54
t-11 -69.5q0 -62 37 -99.5t104 -37.5z" />
    <glyph glyph-name="Wcircumflex" unicode="&#x174;" horiz-adv-x="1908" 
d="M1006 2050l-203 -264h-72l189 371h174l188 -371h-72zM1888 1638v-45q-93 0 -129 -29t-61 -124l-371 -1487h-82l-264 1024l-303 -1024h-76l-391 1489q-25 93 -61.5 122t-129.5 29v45h553v-45q-98 0 -136.5 -12.5t-43 -46t14.5 -92.5l294 -1145h7l237 815l-84 330
q-25 93 -61 122t-129 29v45h553v-45q-98 0 -136.5 -12.5t-43.5 -46t14 -92.5l282 -1123h7l274 1121q29 92 0.5 122.5t-168.5 30.5v45h434z" />
    <glyph glyph-name="wcircumflex" unicode="&#x175;" horiz-adv-x="1468" 
d="M729 1542l-203 -264h-71l188 371h174l189 -371h-72zM1448 1075v-45q-66 0 -97 -29.5t-57 -121.5l-264 -926h-92l-176 600l-184 -600h-93l-303 928q-30 91 -63 120t-99 29v45h431v-45q-97 0 -111.5 -27.5t20.5 -121.5l218 -668h6l143 465l-59 201q-26 92 -57 121.5
t-97 29.5v45h418v-45q-90 0 -103.5 -28.5t17.5 -122.5l182 -641h6l183 641q31 94 15 122.5t-112 28.5v45h328z" />
    <glyph glyph-name="Ycircumflex" unicode="&#x176;" horiz-adv-x="1374" 
d="M739 2050l-202 -264h-72l188 371h174l189 -371h-72zM1354 1638v-45q-95 0 -140.5 -27t-85.5 -114l-331 -731v-516q0 -51 6 -78t29 -47t64.5 -26.5t115.5 -6.5v-47h-611v47q98 0 143.5 14.5t59.5 45t14 98.5v516l-368 735q-41 85 -87.5 111t-142.5 26v45h570v-45
q-37 0 -63 -1t-45 -5.5t-31 -7.5t-16.5 -13.5t-5.5 -17t5.5 -24.5t12 -30t18.5 -38l299 -608h6l274 604q12 27 17 39.5t10.5 30.5t4.5 25.5t-6.5 18t-17.5 13.5t-31.5 7.5t-45.5 5.5t-64 1v45h443z" />
    <glyph glyph-name="ycircumflex" unicode="&#x177;" horiz-adv-x="976" 
d="M504 1542l-203 -264h-72l189 371h174l188 -371h-71zM942 1075v-45q-65 0 -95 -29t-54 -122l-220 -842q-6 -21 -17 -63q-24 -93 -38 -140.5t-44 -121t-60.5 -110t-79.5 -65.5t-109 -29q-77 0 -126.5 38.5t-49.5 99.5q0 42 28 69t68 27q62 0 93 -57q17 -24 28.5 -32.5
t34.5 -8.5q54 0 94.5 80.5t79.5 257.5l-280 899q-28 91 -61 120t-99 29v45h434v-45q-97 0 -112.5 -28.5t16.5 -122.5l182 -627l158 627q28 94 11.5 122.5t-114.5 28.5v45h332z" />
    <glyph glyph-name="Ydieresis" unicode="&#x178;" horiz-adv-x="1374" 
d="M551 1870q-44 0 -76.5 32t-32.5 76t32.5 75.5t76.5 31.5t75 -31.5t31 -75.5t-31 -76t-75 -32zM930 1870q-44 0 -76.5 32t-32.5 76t32.5 75.5t76.5 31.5t75 -31.5t31 -75.5t-31 -76t-75 -32zM797 205q0 -51 6 -78t29 -47t64.5 -26.5t115.5 -6.5v-47h-611v47
q98 0 143.5 14.5t59.5 45t14 98.5v516l-368 735q-41 85 -87.5 111t-142.5 26v45h570v-45q-37 0 -63 -1t-45 -5.5t-31 -7.5t-16.5 -13.5t-5.5 -17t5.5 -24.5t12 -30t18.5 -38l299 -608h6l274 604q12 27 17 39.5t10.5 30.5t4.5 25.5t-6.5 18t-17.5 13.5t-31.5 7.5t-45.5 5.5
t-64 1v45h443v-45q-95 0 -140.5 -27t-85.5 -114l-331 -731v-516z" />
    <glyph glyph-name="Zacute" unicode="&#x179;" horiz-adv-x="1134" 
d="M524 1792l138 371h184l-250 -371h-72zM1059 1638l-772 -1560l528 -2q67 0 101 25t59 100t49 235l45 -6l-61 -430h-947v47l756 1516h-465q-41 0 -65.5 -5.5t-45 -21.5t-31.5 -48.5t-17.5 -81.5t-8.5 -126h-47l10 307l3 51h909z" />
    <glyph glyph-name="zacute" unicode="&#x17a;" horiz-adv-x="854" 
d="M381 1284l137 371h184l-249 -371h-72zM588 78q42 0 67 6t44.5 21t28.5 48t13 80t4 123h48v-356h-732v47l525 952h-275q-41 0 -66 -5t-44.5 -18.5t-28.5 -41t-13.5 -68t-4.5 -104.5h-45v313h684v-45l-525 -952h320z" />
    <glyph glyph-name="Zdotaccent" unicode="&#x17b;" horiz-adv-x="1134" 
d="M604 1870q-44 0 -76 32t-32 76t32 75.5t76 31.5t75.5 -31.5t31.5 -75.5t-31.5 -76t-75.5 -32zM1059 1638l-772 -1560l528 -2q67 0 101 25t59 100t49 235l45 -6l-61 -430h-947v47l756 1516h-465q-41 0 -65.5 -5.5t-45 -21.5t-31.5 -48.5t-17.5 -81.5t-8.5 -126h-47l10 307
l3 51h909z" />
    <glyph glyph-name="zdotaccent" unicode="&#x17c;" horiz-adv-x="854" 
d="M461 1362q-44 0 -76.5 32t-32.5 76t32.5 75.5t76.5 31.5t75 -31.5t31 -75.5t-31 -76t-75 -32zM588 78q42 0 67 6t44.5 21t28.5 48t13 80t4 123h48v-356h-732v47l525 952h-275q-41 0 -66 -5t-44.5 -18.5t-28.5 -41t-13.5 -68t-4.5 -104.5h-45v313h684v-45l-525 -952h320z
" />
    <glyph glyph-name="Zcaron" unicode="&#x17d;" horiz-adv-x="1134" 
d="M516 1786l-188 371h71l205 -265l203 265h72l-189 -371h-174zM1024 436l45 -6l-61 -430h-947v47l756 1516h-465q-41 0 -65.5 -5.5t-45 -21.5t-31.5 -48.5t-17.5 -81.5t-8.5 -126h-47l10 307l3 51h909l-772 -1560l528 -2q67 0 101 25t59 100t49 235z" />
    <glyph glyph-name="zcaron" unicode="&#x17e;" horiz-adv-x="854" 
d="M373 1278l-189 371h72l205 -265l203 265h71l-188 -371h-174zM793 1075v-45l-525 -952h320q42 0 67 6t44.5 21t28.5 48t13 80t4 123h48v-356h-732v47l525 952h-275q-41 0 -66 -5t-44.5 -18.5t-28.5 -41t-13.5 -68t-4.5 -104.5h-45v313h684z" />
    <glyph glyph-name="uni0218" unicode="&#x218;" horiz-adv-x="1122" 
d="M121 -6v588h45q2 -124 36 -227.5t89.5 -172.5t128 -107t153.5 -38q130 0 206.5 76.5t76.5 201.5q0 32 -6 62t-22 61t-30 56t-43.5 57.5t-48.5 53t-59 56.5t-60.5 53.5t-68 57.5t-67.5 57q-68 59 -104.5 92.5t-81 78.5t-66.5 77t-43.5 74t-29 84.5t-7.5 93.5
q0 163 108.5 256.5t276.5 93.5q76 0 142.5 -23t102 -50.5t66 -50.5t43.5 -23q18 0 24.5 21t6.5 92h45v-480h-45q-5 193 -108 316t-263 123q-124 0 -188 -65.5t-64 -158.5q0 -35 9 -68.5t29 -65.5t39.5 -58t53.5 -58.5t58 -53t66.5 -56t64.5 -55.5q187 -164 205 -182
q128 -120 173 -220q40 -89 40 -205q0 -93 -35 -170.5t-93 -126.5t-130.5 -75.5t-149.5 -26.5q-71 0 -131.5 16t-98.5 38.5t-67.5 45t-52 38.5t-37.5 16q-25 0 -34 -26t-9 -93h-45zM518 -332q-28 0 -46.5 23t-18.5 61q0 43 28.5 67.5t71.5 24.5q55 0 88 -36t33 -101
q0 -72 -49 -126.5t-154 -80.5v45q49 12 90 43.5t41 69.5q0 31 -20 31q-6 0 -25.5 -10.5t-38.5 -10.5z" />
    <glyph glyph-name="uni0219" unicode="&#x219;" horiz-adv-x="757" 
d="M104 -20v405h46q21 -157 93.5 -252.5t184.5 -95.5q135 0 135 149q0 60 -32.5 118t-66 93t-115.5 109q-10 9 -15 14q-53 46 -76.5 67.5t-60.5 61.5t-53 69t-29 69.5t-13 84.5q0 107 70 175.5t180 68.5q47 0 87.5 -13t62 -28t40.5 -28t29 -13q16 0 19.5 13t3.5 49h47v-332
h-47q-20 121 -81 198.5t-153 77.5q-63 0 -93.5 -37t-30.5 -83q0 -71 47.5 -130.5t154.5 -152.5q75 -65 118 -108.5t78 -92.5t48.5 -98t13.5 -111q0 -130 -75 -199t-185 -69q-53 0 -98.5 13t-71 28t-49 28t-35.5 13q-19 0 -25.5 -14t-6.5 -47h-46zM373 -332q-28 0 -47 23
t-19 61q0 43 29 67.5t72 24.5q55 0 87.5 -36t32.5 -101q0 -156 -202 -207v45q49 12 90 43.5t41 69.5q0 31 -21 31q-6 0 -25 -10.5t-38 -10.5z" />
    <glyph glyph-name="uni021A" unicode="&#x21a;" horiz-adv-x="1304" 
d="M1214 1589l29 -329l-47 -5q-7 83 -16.5 136t-22 88t-34 52t-46.5 23.5t-65 6.5l-271 2v-1358q0 -68 14 -98.5t59.5 -45t143.5 -14.5v-47h-610v47q74 0 115.5 6.5t64.5 26.5t29 47t6 78v1358l-270 -2q-40 0 -65 -6.5t-46.5 -23.5t-34 -52t-22 -88t-16.5 -136l-48 5l29 329
l6 49h1114zM651 -156q55 0 88 -36t33 -101q0 -72 -49 -126.5t-154 -80.5v45q49 12 90 43.5t41 69.5q0 31 -20 31q-6 0 -25.5 -10.5t-38.5 -10.5q-28 0 -46.5 23t-18.5 61q0 43 28.5 67.5t71.5 24.5z" />
    <glyph glyph-name="uni021B" unicode="&#x21b;" horiz-adv-x="696" 
d="M608 451h47q-1 -101 -7 -174t-21 -136t-40 -101.5t-64.5 -59.5t-94.5 -21q-117 0 -177.5 88.5t-60.5 284.5v667h-163v76q135 3 193 68t67 225h55v-293h244v-76h-244v-596q0 -59 1.5 -97.5t5.5 -80.5t12.5 -67.5t22.5 -47.5t35 -32t50 -10q74 0 106 85t33 298zM344 -332
q-28 0 -46.5 23t-18.5 61q0 43 28.5 67.5t71.5 24.5q55 0 88 -36t33 -101q0 -72 -49 -126.5t-154 -80.5v45q49 12 90 43.5t41 69.5q0 31 -20 31q-6 0 -25.5 -10.5t-38.5 -10.5z" />
    <glyph glyph-name="circumflex" unicode="&#x2c6;" horiz-adv-x="714" 
d="M633 1278h-72l-203 264l-204 -264h-72l188 371h174z" />
    <glyph glyph-name="caron" unicode="&#x2c7;" horiz-adv-x="714" 
d="M561 1649h72l-189 -371h-174l-188 371h72l204 -265z" />
    <glyph glyph-name="breve" unicode="&#x2d8;" horiz-adv-x="737" 
d="M635 1608q-6 -126 -76 -196.5t-190 -70.5q-119 0 -190 70.5t-77 196.5h48q7 -67 64.5 -102.5t154.5 -35.5q98 0 156 35.5t65 102.5h45z" />
    <glyph glyph-name="dotaccent" unicode="&#x2d9;" horiz-adv-x="419" 
d="M211 1362q-44 0 -76.5 32t-32.5 76t32.5 75.5t76.5 31.5t75 -31.5t31 -75.5t-31 -76t-75 -32z" />
    <glyph glyph-name="ring" unicode="&#x2da;" horiz-adv-x="612" 
d="M307 1288q-88 0 -146.5 60.5t-58.5 144.5q0 82 59 142.5t146 60.5t145 -60.5t58 -142.5q0 -84 -58 -144.5t-145 -60.5zM307 1360q62 0 96.5 39.5t34.5 93.5q0 52 -34.5 91.5t-96.5 39.5q-63 0 -98 -39.5t-35 -91.5q0 -54 34.5 -93.5t98.5 -39.5z" />
    <glyph glyph-name="ogonek" unicode="&#x2db;" horiz-adv-x="651" 
d="M469 -20q-25 -27 -70 -59t-75 -53.5t-54 -62.5t-24 -94q0 -62 37 -99.5t104 -37.5t166 47l12 -45q-112 -84 -227 -84q-94 0 -156.5 53.5t-62.5 145.5q0 57 22.5 101t60 71t75 45.5t79.5 37.5t62 34h51z" />
    <glyph glyph-name="tilde" unicode="&#x2dc;" horiz-adv-x="819" 
d="M555 1364q-43 0 -86 21.5t-72.5 47t-68.5 47t-76 21.5q-51 0 -73.5 -33.5t-28.5 -103.5h-48q19 260 164 260q43 0 85.5 -21.5t72 -47t68.5 -47t75 -21.5q51 0 74 33.5t31 103.5h45q-15 -260 -162 -260z" />
    <glyph glyph-name="hungarumlaut" unicode="&#x2dd;" horiz-adv-x="675" 
d="M102 1284l113 371h137l-188 -371h-62zM313 1284l121 371h139l-198 -371h-62z" />
    <glyph glyph-name="gravecomb" unicode="&#x300;" horiz-adv-x="0" 
d="M-82 1284h-72l-249 371h184z" />
    <glyph glyph-name="acutecomb" unicode="&#x301;" horiz-adv-x="0" 
d="M-397 1284l137 371h184l-250 -371h-71z" />
    <glyph glyph-name="uni0302" unicode="&#x302;" horiz-adv-x="0" 
d="M-96 1278h-72l-205 264l-202 -264h-72l188 371h174z" />
    <glyph glyph-name="tildecomb" unicode="&#x303;" horiz-adv-x="0" 
d="M-264 1364q-43 0 -86 21.5t-72.5 47t-68.5 47t-76 21.5q-51 0 -74 -34t-29 -103h-47q19 260 164 260q43 0 85.5 -21.5t72 -47t68.5 -47t75 -21.5q51 0 74 33.5t31 103.5h45q-15 -260 -162 -260z" />
    <glyph glyph-name="uni0304" unicode="&#x304;" horiz-adv-x="0" 
d="M-655 1497h553v-76h-553v76z" />
    <glyph glyph-name="uni0306" unicode="&#x306;" horiz-adv-x="0" 
d="M-102 1608q-6 -126 -76.5 -196.5t-190.5 -70.5q-119 0 -189.5 70.5t-76.5 196.5h47q7 -67 64.5 -102.5t154.5 -35.5q98 0 156.5 35.5t65.5 102.5h45z" />
    <glyph glyph-name="uni0307" unicode="&#x307;" horiz-adv-x="0" 
d="M-209 1362q-44 0 -76 32t-32 76t32 75.5t76 31.5t75.5 -31.5t31.5 -75.5t-31.5 -76t-75.5 -32z" />
    <glyph glyph-name="uni0308" unicode="&#x308;" horiz-adv-x="0" 
d="M-588 1362q-44 0 -76 32t-32 76t32 75.5t76 31.5t75.5 -31.5t31.5 -75.5t-31.5 -76t-75.5 -32zM-209 1362q-44 0 -76 32t-32 76t32 75.5t76 31.5t75.5 -31.5t31.5 -75.5t-31.5 -76t-75.5 -32z" />
    <glyph glyph-name="uni030A" unicode="&#x30a;" horiz-adv-x="0" 
d="M-305 1288q-88 0 -146.5 60.5t-58.5 144.5q0 82 59 142.5t146 60.5t145 -60.5t58 -142.5q0 -84 -58 -144.5t-145 -60.5zM-305 1360q62 0 96.5 39.5t34.5 93.5q0 52 -34.5 91.5t-96.5 39.5q-63 0 -98 -39.5t-35 -91.5q0 -54 34.5 -93.5t98.5 -39.5z" />
    <glyph glyph-name="uni030B" unicode="&#x30b;" horiz-adv-x="0" 
d="M-526 1284l112 371h138l-189 -371h-61zM-315 1284l120 371h140l-199 -371h-61z" />
    <glyph glyph-name="uni030C" unicode="&#x30c;" horiz-adv-x="0" 
d="M-154 1649h72l-188 -371h-174l-189 371h72l205 -265z" />
    <glyph glyph-name="uni0312" unicode="&#x312;" horiz-adv-x="0" 
d="M-166 1538q27 0 45.5 -23.5t18.5 -60.5q0 -43 -28.5 -67.5t-70.5 -24.5q-55 0 -89 36t-34 101q0 156 205 207v-45q-50 -12 -90.5 -43.5t-40.5 -69.5q0 -30 21 -30q6 0 24.5 10t38.5 10z" />
    <glyph glyph-name="uni0326" unicode="&#x326;" horiz-adv-x="0" 
d="M-258 -332q-28 0 -47 23t-19 61q0 43 29 67.5t72 24.5q55 0 88 -36t33 -101q0 -72 -49 -126.5t-154 -80.5v45q49 12 90 43.5t41 69.5q0 31 -21 31q-6 0 -25 -10.5t-38 -10.5z" />
    <glyph glyph-name="uni0327" unicode="&#x327;" horiz-adv-x="0" 
d="M-436 -152l168 172h75l-104 -129q81 -7 138 -48.5t57 -114.5q0 -92 -68.5 -150.5t-169 -76t-215.5 -3.5l12 47q144 -11 228 30t84 134q0 77 -53 107t-152 32z" />
    <glyph glyph-name="uni0328" unicode="&#x328;" horiz-adv-x="0" 
d="M-182 -20q-22 -23 -56 -48t-61 -43.5t-52.5 -43t-40 -58t-14.5 -76.5q0 -62 37.5 -99.5t104.5 -37.5t166 47l12 -45q-112 -84 -227 -84q-94 0 -156.5 53.5t-62.5 145.5q0 57 22.5 101t60 71t75 45.5t79.5 37.5t62 34h51z" />
    <glyph glyph-name="Wgrave" unicode="&#x1e80;" horiz-adv-x="1908" 
d="M1108 1792h-72l-250 371h185zM1888 1638v-45q-93 0 -129 -29t-61 -124l-371 -1487h-82l-264 1024l-303 -1024h-76l-391 1489q-25 93 -61.5 122t-129.5 29v45h553v-45q-98 0 -136.5 -12.5t-43 -46t14.5 -92.5l294 -1145h7l237 815l-84 330q-25 93 -61 122t-129 29v45h553
v-45q-98 0 -136.5 -12.5t-43.5 -46t14 -92.5l282 -1123h7l274 1121q29 92 0.5 122.5t-168.5 30.5v45h434z" />
    <glyph glyph-name="wgrave" unicode="&#x1e81;" horiz-adv-x="1468" 
d="M831 1284h-71l-250 371h184zM1448 1075v-45q-66 0 -97 -29.5t-57 -121.5l-264 -926h-92l-176 600l-184 -600h-93l-303 928q-30 91 -63 120t-99 29v45h431v-45q-97 0 -111.5 -27.5t20.5 -121.5l218 -668h6l143 465l-59 201q-26 92 -57 121.5t-97 29.5v45h418v-45
q-90 0 -103.5 -28.5t17.5 -122.5l182 -641h6l183 641q31 94 15 122.5t-112 28.5v45h328z" />
    <glyph glyph-name="Wacute" unicode="&#x1e82;" horiz-adv-x="1908" 
d="M1247 2163l-250 -371h-71l137 371h184zM1888 1638v-45q-93 0 -129 -29t-61 -124l-371 -1487h-82l-264 1024l-303 -1024h-76l-391 1489q-25 93 -61.5 122t-129.5 29v45h553v-45q-98 0 -136.5 -12.5t-43 -46t14.5 -92.5l294 -1145h7l237 815l-84 330q-25 93 -61 122
t-129 29v45h553v-45q-98 0 -136.5 -12.5t-43.5 -46t14 -92.5l282 -1123h7l274 1121q29 92 0.5 122.5t-168.5 30.5v45h434z" />
    <glyph glyph-name="wacute" unicode="&#x1e83;" horiz-adv-x="1468" 
d="M971 1655l-250 -371h-72l137 371h185zM1448 1075v-45q-66 0 -97 -29.5t-57 -121.5l-264 -926h-92l-176 600l-184 -600h-93l-303 928q-30 91 -63 120t-99 29v45h431v-45q-97 0 -111.5 -27.5t20.5 -121.5l218 -668h6l143 465l-59 201q-26 92 -57 121.5t-97 29.5v45h418v-45
q-90 0 -103.5 -28.5t17.5 -122.5l182 -641h6l183 641q31 94 15 122.5t-112 28.5v45h328z" />
    <glyph glyph-name="Wdieresis" unicode="&#x1e84;" horiz-adv-x="1908" 
d="M817 1870q-44 0 -76 32t-32 76t32 75.5t76 31.5t75.5 -31.5t31.5 -75.5t-31.5 -76t-75.5 -32zM1196 1870q-44 0 -76.5 32t-32.5 76t32.5 75.5t76.5 31.5t75.5 -31.5t31.5 -75.5t-31.5 -76t-75.5 -32zM1888 1638v-45q-93 0 -129 -29t-61 -124l-371 -1487h-82l-264 1024
l-303 -1024h-76l-391 1489q-25 93 -61.5 122t-129.5 29v45h553v-45q-98 0 -136.5 -12.5t-43 -46t14.5 -92.5l294 -1145h7l237 815l-84 330q-25 93 -61 122t-129 29v45h553v-45q-98 0 -136.5 -12.5t-43.5 -46t14 -92.5l282 -1123h7l274 1121q29 92 0.5 122.5t-168.5 30.5v45
h434z" />
    <glyph glyph-name="wdieresis" unicode="&#x1e85;" horiz-adv-x="1468" 
d="M541 1362q-44 0 -76.5 32t-32.5 76t32.5 75.5t76.5 31.5t75 -31.5t31 -75.5t-31 -76t-75 -32zM920 1362q-44 0 -76.5 32t-32.5 76t32.5 75.5t76.5 31.5t75 -31.5t31 -75.5t-31 -76t-75 -32zM1448 1075v-45q-66 0 -97 -29.5t-57 -121.5l-264 -926h-92l-176 600l-184 -600
h-93l-303 928q-30 91 -63 120t-99 29v45h431v-45q-97 0 -111.5 -27.5t20.5 -121.5l218 -668h6l143 465l-59 201q-26 92 -57 121.5t-97 29.5v45h418v-45q-90 0 -103.5 -28.5t17.5 -122.5l182 -641h6l183 641q31 94 15 122.5t-112 28.5v45h328z" />
    <glyph glyph-name="Ygrave" unicode="&#x1ef2;" horiz-adv-x="1374" 
d="M844 1792h-72l-250 371h185zM797 205q0 -51 6 -78t29 -47t64.5 -26.5t115.5 -6.5v-47h-611v47q98 0 143.5 14.5t59.5 45t14 98.5v516l-368 735q-41 85 -87.5 111t-142.5 26v45h570v-45q-37 0 -63 -1t-45 -5.5t-31 -7.5t-16.5 -13.5t-5.5 -17t5.5 -24.5t12 -30t18.5 -38
l299 -608h6l274 604q12 27 17 39.5t10.5 30.5t4.5 25.5t-6.5 18t-17.5 13.5t-31.5 7.5t-45.5 5.5t-64 1v45h443v-45q-95 0 -140.5 -27t-85.5 -114l-331 -731v-516z" />
    <glyph glyph-name="ygrave" unicode="&#x1ef3;" horiz-adv-x="976" 
d="M606 1284h-71l-250 371h184zM49 -354q0 42 28 69t68 27q62 0 93 -57q17 -24 28.5 -32.5t34.5 -8.5q54 0 94.5 80.5t79.5 257.5l-280 899q-28 91 -61 120t-99 29v45h434v-45q-97 0 -112.5 -28.5t16.5 -122.5l182 -627l158 627q28 94 11.5 122.5t-114.5 28.5v45h332v-45
q-65 0 -95 -29t-54 -122l-220 -842q-6 -21 -17 -63q-24 -93 -38 -140.5t-44 -121t-60.5 -110t-79.5 -65.5t-109 -29q-77 0 -126.5 38.5t-49.5 99.5z" />
    <glyph glyph-name="endash" unicode="&#x2013;" horiz-adv-x="1228" 
d="M0 489v127h1229v-127h-1229z" />
    <glyph glyph-name="emdash" unicode="&#x2014;" horiz-adv-x="2457" 
d="M0 489v127h2458v-127h-2458z" />
    <glyph glyph-name="quoteleft" unicode="&#x2018;" horiz-adv-x="452" 
d="M262 1423q40 0 64 -29.5t24 -72.5q0 -52 -32.5 -82.5t-84.5 -30.5q-54 0 -92.5 42t-38.5 110q0 89 60 172.5t184 146.5v-45q-72 -39 -123 -93.5t-51 -108.5q0 -33 21 -33q5 0 25 12t44 12z" />
    <glyph glyph-name="quoteright" unicode="&#x2019;" horiz-adv-x="452" 
d="M190 1464q-38 0 -63 31t-25 72q0 53 32.5 82.5t86.5 29.5q55 0 92 -40.5t37 -110.5q0 -89 -58.5 -172.5t-182.5 -147.5v47q70 37 122 93t52 108q0 35 -21 35q-6 0 -26.5 -13.5t-45.5 -13.5z" />
    <glyph glyph-name="quotesinglbase" unicode="&#x201a;" horiz-adv-x="452" 
d="M190 -41q-39 0 -63.5 30.5t-24.5 71.5q0 53 32.5 83t86.5 30q55 0 92 -40.5t37 -110.5q0 -90 -58.5 -173.5t-182.5 -146.5v45q72 39 123 94.5t51 108.5q0 33 -21 33q-6 0 -26.5 -12.5t-45.5 -12.5z" />
    <glyph glyph-name="quotedblleft" unicode="&#x201c;" horiz-adv-x="811" 
d="M258 1423q39 0 63.5 -30t24.5 -72q0 -52 -33 -82.5t-86 -30.5q-54 0 -91.5 41.5t-37.5 110.5q0 89 59 172.5t183 146.5v-45q-72 -39 -123 -94t-51 -108q0 -33 20 -33q6 0 26.5 12t45.5 12zM621 1423q39 0 63.5 -30t24.5 -72q0 -52 -33.5 -82.5t-85.5 -30.5
q-54 0 -92.5 42t-38.5 110q0 89 59.5 172.5t183.5 146.5v-45q-72 -39 -123 -94t-51 -108q0 -33 21 -33q5 0 26 12t46 12z" />
    <glyph glyph-name="quotedblright" unicode="&#x201d;" horiz-adv-x="811" 
d="M190 1464q-38 0 -63 31t-25 72q0 53 32.5 82.5t86.5 29.5q55 0 92 -40.5t37 -110.5q0 -89 -58.5 -172.5t-182.5 -147.5v47q70 37 122 93t52 108q0 35 -21 35q-6 0 -26.5 -13.5t-45.5 -13.5zM553 1464q-40 0 -64 30.5t-24 72.5q0 53 32.5 82.5t84.5 29.5q56 0 93.5 -40.5
t37.5 -110.5q0 -89 -59.5 -172.5t-184.5 -147.5v47q71 37 123.5 93t52.5 108q0 35 -22 35q-5 0 -25.5 -13.5t-44.5 -13.5z" />
    <glyph glyph-name="quotedblbase" unicode="&#x201e;" horiz-adv-x="811" 
d="M190 -41q-39 0 -63.5 30.5t-24.5 71.5q0 53 32.5 83t86.5 30q55 0 92 -40.5t37 -110.5q0 -90 -58.5 -173.5t-182.5 -146.5v45q72 39 123 94.5t51 108.5q0 33 -21 33q-6 0 -26.5 -12.5t-45.5 -12.5zM553 -41q-40 0 -64 30t-24 72q0 53 32.5 83t84.5 30q56 0 93.5 -40.5
t37.5 -110.5q0 -89 -59.5 -173t-184.5 -147v45q73 39 124.5 94.5t51.5 108.5q0 33 -22 33q-5 0 -25.5 -12.5t-44.5 -12.5z" />
    <glyph glyph-name="dagger" unicode="&#x2020;" horiz-adv-x="972" 
d="M774 1364q43 0 69.5 -25t26.5 -69t-26.5 -69t-69.5 -25q-32 0 -70 18t-88.5 37t-111.5 22q1 -88 22.5 -145.5t69.5 -122.5q-47 -107 -66 -266t-20 -471v-770h-47v770q-1 312 -20 471t-66 266q50 67 72.5 124t23.5 144q-62 -2 -113.5 -21t-89.5 -37.5t-69 -18.5
q-43 0 -71 25t-28 69t28 69t71 25q31 0 69 -19t89.5 -39t113.5 -22q-2 65 -22.5 119.5t-40 99.5t-19.5 88q0 49 26.5 77t69.5 28q42 0 68.5 -28t26.5 -77q0 -43 -18.5 -88t-38 -99.5t-21.5 -119.5q61 3 111.5 23t88.5 38.5t70 18.5z" />
    <glyph glyph-name="daggerdbl" unicode="&#x2021;" horiz-adv-x="972" 
d="M774 -4q42 0 69 -25.5t27 -70.5t-27 -70t-69 -25q-32 0 -70 19t-88.5 39.5t-111.5 23.5q2 -66 21.5 -120.5t38 -99.5t18.5 -89q0 -47 -26.5 -74.5t-68.5 -27.5q-43 0 -69.5 27.5t-26.5 74.5q0 44 19.5 89t40 99.5t22.5 120.5q-62 -2 -113.5 -22.5t-89.5 -40t-69 -19.5
q-43 0 -71 25.5t-28 69.5t28 70t71 26q31 0 69 -18.5t89.5 -38t113.5 -21.5q-3 74 -19.5 126.5t-52.5 125.5q37 94 53.5 188.5t16.5 227.5t-16.5 227t-53.5 188q25 52 36.5 79t23 74.5t12.5 98.5q-62 -2 -113.5 -21t-89.5 -37.5t-69 -18.5q-43 0 -71 25t-28 69t28 69t71 25
q31 0 69 -19t89.5 -39t113.5 -22q-2 65 -22.5 119.5t-40 99.5t-19.5 88q0 49 26.5 77t69.5 28q42 0 68.5 -28t26.5 -77q0 -43 -18.5 -88t-38 -99.5t-21.5 -119.5q61 3 111.5 23t88.5 38.5t70 18.5q43 0 69.5 -25t26.5 -69t-26.5 -69t-69.5 -25q-32 0 -70 18t-88.5 37
t-111.5 22q1 -75 17 -128.5t50 -123.5q-37 -93 -53 -187.5t-16 -227.5q0 -134 16 -228.5t53 -187.5q-34 -70 -50 -123.5t-17 -128.5q61 3 111.5 22.5t88.5 37.5t70 18z" />
    <glyph glyph-name="bullet" unicode="&#x2022;" horiz-adv-x="743" 
d="M371 520q-110 0 -189.5 79t-79.5 189q0 112 79 190.5t190 78.5q113 0 191.5 -78.5t78.5 -190.5q0 -111 -79 -189.5t-191 -78.5z" />
    <glyph glyph-name="ellipsis" unicode="&#x2026;" horiz-adv-x="1351" 
d="M211 -41q-44 0 -76.5 32.5t-32.5 76.5t32 75t77 31q44 0 75 -31t31 -75q0 -45 -31 -77t-75 -32zM676 -41q-44 0 -75.5 32.5t-31.5 76.5t31.5 75t75.5 31t76 -31t32 -75t-32 -76.5t-76 -32.5zM1143 -41q-44 0 -76.5 32.5t-32.5 76.5t32 75t77 31q44 0 75 -31t31 -75
q0 -45 -31 -77t-75 -32z" />
    <glyph glyph-name="perthousand" unicode="&#x2030;" horiz-adv-x="2093" 
d="M373 844q-115 0 -193 121t-78 297q0 175 78 296t193 121q114 0 191 -121t77 -296t-77 -296.5t-191 -121.5zM1188 1638h82l-1018 -1638h-82zM373 905q139 0 139 357q0 356 -139 356q-142 0 -142 -356q0 -357 142 -357zM1067 -41q-115 0 -191.5 121t-76.5 297t76.5 297
t191.5 121q114 0 191 -121.5t77 -296.5t-77 -296.5t-191 -121.5zM1722 -41q-115 0 -191.5 121t-76.5 297t76.5 297t191.5 121q114 0 191.5 -121.5t77.5 -296.5t-77.5 -296.5t-191.5 -121.5zM1067 20q51 0 83.5 50t45 126.5t12.5 180.5t-12.5 180t-45 126t-83.5 50
q-141 0 -141 -356q0 -357 141 -357zM1722 20q51 0 83.5 50t45.5 127t13 180q0 76 -7.5 138t-23.5 112.5t-44.5 78t-66.5 27.5q-141 0 -141 -356q0 -357 141 -357z" />
    <glyph glyph-name="guilsinglleft" unicode="&#x2039;" horiz-adv-x="579" 
d="M262 600l225 -500h-45l-329 500l329 494h45z" />
    <glyph glyph-name="guilsinglright" unicode="&#x203a;" horiz-adv-x="579" 
d="M319 600l-227 494h47l328 -494l-328 -500h-47z" />
    <glyph glyph-name="fraction" unicode="&#x2044;" horiz-adv-x="894" 
d="M915 1638h82l-1020 -1638h-79z" />
    <glyph glyph-name="Euro" unicode="&#x20ac;" horiz-adv-x="1320" 
d="M1174 600h45q-11 -117 -33 -212.5t-58 -176.5t-86 -136t-119 -85.5t-155 -30.5q-150 0 -265 97t-179.5 262.5t-79.5 379.5h-142l23 68h115v53q0 49 2 74h-140l23 68h121q27 321 169.5 519.5t364.5 198.5q210 0 375 -194v-379h-45q-9 250 -91 374t-208 124
q-108 0 -189.5 -85t-126 -227t-57.5 -331h498l-23 -68h-477q-2 -25 -2 -74v-53h438l-22 -68h-412q16 -294 112 -472.5t259 -178.5q152 0 246 145.5t119 407.5z" />
    <glyph glyph-name="trademark" unicode="&#x2122;" horiz-adv-x="2289" 
d="M289 1563q-50 0 -79 -7.5t-51.5 -31.5t-33.5 -66.5t-19 -116.5l-47 7l27 233l8 57h807l6 -57l27 -233l-47 -7q-10 98 -29.5 144.5t-52.5 62t-100 15.5h-144v-621q0 -51 4.5 -78t20.5 -47t45.5 -26.5t81.5 -6.5v-47h-432v47q52 0 81.5 6.5t45.5 26.5t20 46.5t4 78.5v621
h-143zM1610 924h6l303 714h309v-45q-52 0 -81 -6.5t-45 -26t-20.5 -46.5t-4.5 -78v-494q0 -51 4.5 -78t20.5 -47t45 -26.5t81 -6.5v-47h-430v47q52 0 81 6.5t45.5 26.5t21 47t4.5 78v557h-6l-340 -803h-41l-320 803h-6l2 -559q1 -51 5.5 -77.5t21 -46.5t45 -26t80.5 -6
l2 -47h-381v47q52 0 81.5 6.5t45.5 26.5t20 46.5t4 78.5v494q0 51 -4 78t-20 47t-45 26t-82 6v45h315z" />
    <glyph glyph-name="oneeighth" unicode="&#x215b;" horiz-adv-x="1693" 
d="M166 700q60 0 76 17.5t16 77.5v706q0 28 -1.5 39.5t-5.5 22t-16.5 8.5t-30.5 -8.5t-50 -22.5l-13 25l135 67l76 39l17 -16v-860q0 -60 17 -77.5t77 -17.5v-28h-297v28zM1235 1638h82l-1018 -1638h-82zM1341 557q104 -80 158.5 -159.5t54.5 -168.5q0 -113 -77.5 -181
t-200.5 -68q-127 0 -203 68.5t-76 168.5q0 86 54 155t159 150q-97 81 -141.5 142t-44.5 133q0 94 73.5 154.5t184.5 60.5q112 0 179 -58.5t67 -146.5q0 -39 -12.5 -72t-42 -65t-56 -54t-76.5 -59zM1130 815q0 -53 37.5 -102t130.5 -123q77 65 107.5 114t30.5 107
q0 66 -41.5 111t-108.5 45q-70 0 -113 -43.5t-43 -108.5zM1280 27q77 0 122.5 49t45.5 135q0 74 -47.5 136t-147.5 142q-166 -137 -166 -272q0 -78 52 -134t141 -56z" />
    <glyph glyph-name="threeeighths" unicode="&#x215c;" horiz-adv-x="1855" 
d="M700 930q0 -133 -98 -216t-237 -83q-82 0 -147.5 24.5t-65.5 63.5q0 20 15.5 30.5t39.5 10.5q41 0 72 -39q43 -43 110 -43q79 0 137 58.5t58 166.5q0 243 -265 258v29q207 68 207 240q0 67 -38.5 112t-110.5 45q-145 0 -187 -149h-30q17 108 85.5 166.5t172.5 58.5
q98 0 161.5 -59.5t63.5 -159.5q0 -159 -194 -242v-4q114 -14 182.5 -83t68.5 -185zM1407 1638h82l-1018 -1638h-82zM1513 557q104 -80 158.5 -159.5t54.5 -168.5q0 -113 -77.5 -181t-200.5 -68q-127 0 -203 68.5t-76 168.5q0 86 54 155t159 150q-97 81 -141.5 142t-44.5 133
q0 94 73.5 154.5t184.5 60.5q112 0 179 -58.5t67 -146.5q0 -39 -12.5 -72t-42 -65t-56 -54t-76.5 -59zM1303 815q0 -53 37 -102.5t130 -122.5q77 65 107.5 114t30.5 107q0 66 -41.5 111t-108.5 45q-69 0 -112 -43t-43 -109zM1452 27q77 0 122.5 49t45.5 135q0 74 -47.5 136
t-147.5 142q-165 -136 -165 -272q0 -78 51.5 -134t140.5 -56z" />
    <glyph glyph-name="fiveeighths" unicode="&#x215d;" horiz-adv-x="1789" 
d="M684 1024q0 -184 -100.5 -288.5t-247.5 -104.5q-80 0 -137.5 24t-57.5 60q0 43 52 43q17 0 31.5 -8t19 -13.5t18.5 -23.5q28 -35 98 -35q76 0 137.5 83.5t61.5 235.5q0 139 -48 205t-134 66q-80 0 -137 -54l-43 29l94 395h371l-25 -88h-307l-66 -272l6 -4q63 51 158 51
q113 0 184.5 -86t71.5 -215zM1341 1638h80l-1018 -1638h-79zM1446 555q104 -79 159.5 -158t55.5 -168q0 -113 -79 -181t-202 -68q-127 0 -202.5 68.5t-75.5 168.5q0 86 55 156.5t160 150.5q-97 78 -142 139.5t-45 133.5q0 95 72.5 155t183.5 60q113 0 179.5 -58.5
t66.5 -146.5q0 -39 -12 -72t-41.5 -65.5t-56 -54.5t-76.5 -60zM1237 815q0 -53 37 -102.5t129 -122.5q77 65 107 114t30 107q0 67 -40.5 111.5t-108.5 44.5t-111 -43.5t-43 -108.5zM1386 27q76 0 121 49t45 135q0 74 -47 136.5t-145 141.5q-166 -137 -166 -272
q0 -79 50.5 -134.5t141.5 -55.5z" />
    <glyph glyph-name="seveneighths" unicode="&#x215e;" horiz-adv-x="1689" 
d="M602 1550h-344q-58 0 -82 -27.5t-45 -121.5l-27 6l35 156l17 75h563l-332 -995l-78 19l293 884v4zM1241 1638h82l-1018 -1638h-82zM1348 557q104 -80 158.5 -159.5t54.5 -168.5q0 -113 -78 -181t-201 -68q-127 0 -202.5 68.5t-75.5 168.5q0 86 54 155t159 150
q-65 54 -102 93t-61 86t-24 96q0 94 73.5 154.5t184.5 60.5q112 0 179 -58.5t67 -146.5q0 -52 -26.5 -97.5t-60 -74.5t-99.5 -78zM1137 815q0 -53 37.5 -102t130.5 -123q77 65 107 114t30 107q0 66 -41.5 111t-108.5 45q-69 0 -112 -43t-43 -109zM1286 27q77 0 122.5 49
t45.5 135q0 74 -47.5 136t-146.5 142q-166 -137 -166 -272q0 -78 51.5 -134t140.5 -56z" />
    <glyph glyph-name="arrowleft" unicode="&#x2190;" horiz-adv-x="1716" 
d="M1614 500h-1043q-64 0 -159.5 16t-149.5 16v-6q79 -38 140.5 -80t106 -88.5t73 -84t61.5 -89.5l-96 -86q-87 154 -188 252.5t-257 171.5v62q156 73 257.5 172t187.5 254l96 -88q-33 -52 -61.5 -89.5t-73 -84t-106 -88.5t-140.5 -80v-7q54 0 149.5 16.5t159.5 16.5h1043
v-106z" />
    <glyph glyph-name="arrowup" unicode="&#x2191;" horiz-adv-x="1126" 
d="M616 -113h-106v1043q0 64 16.5 159.5t16.5 149.5h-6q-38 -79 -80 -140.5t-89 -106.5t-83.5 -73t-89.5 -61l-86 96q153 86 251.5 187.5t171.5 257.5h62q73 -156 172 -257.5t254 -187.5l-88 -96q-53 33 -89.5 61t-83.5 73t-89 106.5t-80 140.5h-6q0 -54 16 -150t16 -159
v-1043z" />
    <glyph glyph-name="arrowright" unicode="&#x2192;" horiz-adv-x="1716" 
d="M102 500v106h1043q64 0 159.5 -16.5t149.5 -16.5v7q-79 38 -140.5 80t-106.5 89t-73 83.5t-61 89.5l96 88q86 -155 187.5 -254t257.5 -172v-62q-156 -73 -257 -171.5t-188 -252.5l-96 86q33 53 61 89.5t73 83.5t106.5 89t140.5 80v6q-54 0 -150 -16t-159 -16h-1043z" />
    <glyph glyph-name="arrowdown" unicode="&#x2193;" horiz-adv-x="1126" 
d="M616 1270v-1043q0 -63 -16 -159t-16 -150h6q38 79 80 141t88.5 107t84 73.5t89.5 61.5l88 -98q-154 -84 -253.5 -186t-172.5 -259h-62q-73 157 -172 259t-251 186l86 98q52 -33 89.5 -61.5t84 -73.5t88.5 -107t80 -141h6q0 54 -16.5 150t-16.5 159v1043h106z" />
    <glyph glyph-name="arrowboth" unicode="&#x2194;" horiz-adv-x="2289" 
d="M1743 1010q87 -155 187.5 -254t256.5 -172v-62q-156 -72 -256.5 -171t-187.5 -253l-96 86q33 53 61 89.5t73 83.5t106.5 89t140.5 80v6q-54 0 -150.5 -16t-159.5 -16h-1147q-64 0 -159.5 16t-149.5 16v-6q79 -38 140.5 -80t106 -88.5t73 -84t61.5 -89.5l-96 -86
q-87 154 -188 252.5t-257 171.5v62q156 73 257.5 172t187.5 254l96 -88q-33 -52 -61.5 -89.5t-73 -84t-106 -88.5t-140.5 -80v-7q54 0 149.5 16.5t159.5 16.5h1147q64 0 160 -16.5t150 -16.5v7q-79 38 -140.5 80t-106.5 89t-73 83.5t-61 89.5z" />
    <glyph glyph-name="arrowupdn" unicode="&#x2195;" horiz-adv-x="1116" 
d="M586 -336q38 79 80 141t88.5 107t84 73.5t89.5 61.5l86 -98q-153 -84 -252 -186t-172 -257h-62q-73 156 -172.5 257.5t-253.5 185.5l88 98q52 -33 89.5 -61.5t84 -73.5t88.5 -107t80 -141h7q0 55 -17.5 150.5t-17.5 158.5v1149q0 63 17.5 159.5t17.5 150.5h-7
q-38 -79 -80 -140.5t-89 -106.5t-83.5 -73t-89.5 -61l-88 96q155 87 254 187.5t172 256.5h62q72 -156 171 -256.5t253 -187.5l-86 -96q-53 33 -89.5 61t-83.5 73t-89 106.5t-80 140.5h-6q0 -54 16 -150t16 -160v-1149q0 -63 -16 -158.5t-16 -150.5h6z" />
    <glyph glyph-name="uni2196" unicode="&#x2196;" horiz-adv-x="1339" 
d="M1153 -4l-737 737q-45 45 -101 124.5t-94 117.5l-6 -4q39 -109 50 -208t4.5 -160.5t-25.5 -143.5l-129 8q47 158 45 304.5t-60 309.5l43 43q163 -58 310 -59.5t305 47.5l8 -131q-82 -19 -143.5 -25.5t-160.5 4.5t-208 50l-4 -4q39 -40 118.5 -96.5t123.5 -100.5l737 -737
z" />
    <glyph glyph-name="uni2197" unicode="&#x2197;" horiz-adv-x="1339" 
d="M186 -4l-75 76l737 737q44 44 123.5 100.5t118.5 96.5l-5 4q-109 -39 -208 -50t-160.5 -4.5t-143.5 25.5l9 131q158 -49 304.5 -47.5t307.5 59.5l45 -43q-59 -161 -60.5 -309t46.5 -305l-129 -8q-19 82 -26 143.5t3.5 161t48.5 207.5l-4 4q-38 -38 -93.5 -117.5
t-100.5 -124.5z" />
    <glyph glyph-name="uni2198" unicode="&#x2198;" horiz-adv-x="1339" 
d="M186 1110l738 -737q45 -45 100.5 -124.5t93.5 -117.5l4 4q-38 108 -48.5 207.5t-3.5 161t26 143.5l129 -8q-48 -157 -46.5 -305t60.5 -309l-45 -43q-161 58 -307.5 59.5t-304.5 -47.5l-9 131q82 19 143.5 25.5t160.5 -4.5t208 -50l5 4q-39 40 -118.5 96.5t-123.5 100.5
l-737 737z" />
    <glyph glyph-name="uni2199" unicode="&#x2199;" horiz-adv-x="1339" 
d="M1153 1110l76 -76l-737 -737q-44 -44 -123.5 -100.5t-118.5 -96.5l4 -4q109 39 208 50t160.5 4.5t143.5 -25.5l-8 -131q-158 49 -305 47.5t-310 -59.5l-43 43q58 163 60 309.5t-45 304.5l129 8q19 -82 25.5 -143.5t-4.5 -160.5t-50 -208l6 -4q38 38 94 117.5t101 124.5z
" />
    <glyph glyph-name="partialdiff" unicode="&#x2202;" horiz-adv-x="1323" 
d="M768 1679q253 0 369 -230.5t71 -662.5q-44 -434 -216 -671.5t-427 -237.5q-246 0 -370.5 176t-79.5 475q38 239 196 383t371 144q305 0 451 -252q18 165 2.5 289t-49 210t-89 139t-118 77t-136.5 24q-243 0 -391 -213h-47q64 155 184 252.5t279 97.5zM571 -47
q223 0 365 208t188 568q-130 250 -405 250q-158 0 -284.5 -127.5t-162.5 -347.5q-22 -119 -11 -220t47 -174.5t103.5 -115t159.5 -41.5z" />
    <glyph glyph-name="emptyset" unicode="&#x2205;" horiz-adv-x="1308" 
d="M1206 1128l-162 -161q125 -144 125 -336q0 -140 -68.5 -259t-187 -188t-258.5 -69q-195 0 -338 127l-161 -162l-54 53l162 162q-125 144 -125 336q0 140 69 259t188 188t259 69q192 0 336 -125l162 162zM215 631q0 -161 104 -281l617 617q-123 102 -281 102
q-182 0 -311 -128.5t-129 -309.5zM1094 631q0 158 -103 282l-618 -618q123 -102 282 -102q182 0 310.5 128.5t128.5 309.5z" />
    <glyph glyph-name="product" unicode="&#x220f;" horiz-adv-x="1703" 
d="M1602 1634q-59 0 -96.5 -5t-62.5 -14t-37 -29t-16 -44t-4 -65v-1602q0 -67 14 -98t59.5 -45.5t142.5 -14.5v-45h-590v45q74 0 115.5 6.5t64.5 26.5t29 47t6 78v1729h-750v-1729q0 -68 14 -98.5t59.5 -45t143.5 -14.5v-45h-592v45q98 0 143.5 14.5t59.5 45t14 98.5v1602
q0 51 -6 78t-29.5 47t-65 26t-116.5 6v45h1500v-45z" />
    <glyph glyph-name="summation" unicode="&#x2211;" horiz-adv-x="1443" 
d="M1247 1679l4 -49l33 -317l-47 -4q-13 131 -33 192t-53 81t-100 20l-732 2l580 -811l-631 -963l801 2q51 0 80 11t54.5 50t42.5 107.5t36 189.5l47 -8l-61 -385l-21 -125h-1145v45l654 996v6l-654 915v45h1145z" />
    <glyph glyph-name="minus" unicode="&#x2212;" horiz-adv-x="880" 
d="M102 489v127h676v-127h-676z" />
    <glyph glyph-name="radical" unicode="&#x221a;" horiz-adv-x="1306" 
d="M1282 1796l-317 -1894h-62l-518 1079l-246 -119l-37 66l392 192l438 -934h6l266 1610h78z" />
    <glyph glyph-name="infinity" unicode="&#x221e;" horiz-adv-x="1771" 
d="M1333 1182q144 0 240 -95t96 -260q0 -171 -99.5 -268.5t-240.5 -97.5q-54 0 -104 14t-87 33t-83.5 58.5t-77 70t-84.5 87.5q-11 11 -16 17q-140 -130 -248.5 -184.5t-229.5 -54.5q-128 0 -212.5 85t-84.5 232q0 140 92 231t234 91q47 0 93 -14t82 -33t80 -56t73.5 -65.5
t77.5 -77.5q84 80 137.5 125.5t116 86.5t120.5 58t125 17zM1329 553q106 0 185 76t79 207q0 106 -67.5 174.5t-171.5 68.5q-33 0 -62.5 -6t-59 -21.5t-52 -29t-55.5 -43t-53 -48.5t-61 -60t-65 -64l-14 -14q64 -65 103.5 -101t90.5 -72.5t99.5 -51.5t103.5 -15zM381 604
q87 0 168 49t227 189q-113 111 -192.5 159t-161.5 48q-107 0 -174.5 -68t-67.5 -168q0 -91 57.5 -150t143.5 -59z" />
    <glyph glyph-name="integral" unicode="&#x222b;" horiz-adv-x="880" 
d="M639 35q0 -187 -72 -295.5t-221 -108.5q-105 0 -174.5 63t-69.5 148q0 41 20.5 65.5t57.5 24.5t58 -22.5t24 -63.5q1 -28 2 -42t6 -36t13.5 -33t25.5 -19.5t41 -8.5q139 0 139 311q0 123 -25 260t-61 261.5t-72.5 249.5t-61.5 264.5t-25 265.5q0 184 74 292.5t223 108.5
q102 0 169.5 -62.5t67.5 -148.5q0 -41 -20.5 -65.5t-57.5 -24.5q-36 0 -56.5 23t-22.5 63q-1 33 -3.5 52.5t-11 42.5t-27.5 34t-49 11q-139 0 -139 -322q0 -119 25.5 -254t62 -258.5t73 -248t62 -263.5t25.5 -264z" />
    <glyph glyph-name="approxequal" unicode="&#x2248;" horiz-adv-x="1198" 
d="M1051 874h45q-3 -130 -70 -204t-176 -74q-64 0 -135.5 24t-124.5 53t-123 53t-133 24q-159 0 -184 -152h-48q4 130 71.5 204.5t176.5 74.5q63 0 134 -24t124 -53t124 -53t134 -24q158 0 185 151zM1051 506h45q-3 -130 -70 -204.5t-176 -74.5q-64 0 -135.5 24t-124.5 53
t-123 53t-133 24q-159 0 -184 -152h-48q4 130 71.5 204.5t176.5 74.5q63 0 134 -24t124 -53t124 -53t134 -24q158 0 185 152z" />
    <glyph glyph-name="notequal" unicode="&#x2260;" horiz-adv-x="880" 
d="M778 668h-256l-90 -230h346v-129h-399l-111 -278h-71l110 278h-205v129h258l91 230h-349v129h402l110 278h72l-111 -278h203v-129z" />
    <glyph glyph-name="lessequal" unicode="&#x2264;" horiz-adv-x="911" 
d="M809 342l-707 227v185l707 225v-135l-596 -180v-7l596 -180v-135zM809 152h-707v127h707v-127z" />
    <glyph glyph-name="greaterequal" unicode="&#x2265;" horiz-adv-x="911" 
d="M102 342v135l598 180v7l-598 180v135l707 -225v-185zM102 152v127h707v-127h-707z" />
    <glyph glyph-name="uni2460" unicode="&#x2460;" 
d="M965 1679q140 0 271 -42.5t236.5 -121.5t185 -184.5t122.5 -238t43 -275.5q0 -174 -68 -333t-182.5 -274t-273.5 -183t-334 -68q-177 0 -337 68t-275 183t-183 274t-68 333q0 179 67.5 339t183 274.5t275 181.5t337.5 67zM965 1618q-221 0 -405.5 -107.5t-290 -291.5
t-105.5 -402q0 -164 62 -311.5t168.5 -254t255.5 -169t315 -62.5q216 0 399 106t290 289.5t107 401.5q0 163 -63.5 311t-170 255.5t-254 171t-308.5 63.5zM1016 444q0 -59 16.5 -76.5t77.5 -17.5v-28h-297v28q60 0 76 17t16 77v707q0 28 -1.5 39.5t-5.5 22t-16.5 8.5
t-30.5 -8.5t-50 -22.5l-13 24l136 68l75 39l17 -16v-861z" />
    <glyph glyph-name="uni2461" unicode="&#x2461;" 
d="M965 1679q140 0 271 -42.5t236.5 -121.5t185 -184.5t122.5 -238t43 -275.5q0 -174 -68 -333t-182.5 -274t-273.5 -183t-334 -68q-177 0 -337 68t-275 183t-183 274t-68 333q0 179 67.5 339t183 274.5t275 181.5t337.5 67zM965 1618q-221 0 -405.5 -107.5t-290 -291.5
t-105.5 -402q0 -164 62 -311.5t168.5 -254t255.5 -169t315 -62.5q216 0 399 106t290 289.5t107 401.5q0 163 -63.5 311t-170 255.5t-254 171t-308.5 63.5zM1130 434q57 0 83.5 24.5t56.5 100.5l24 -10l-47 -131l-26 -72h-576v29q93 87 154 148t128 138t105.5 138t64 130.5
t25.5 133.5q0 91 -42.5 147t-133.5 56q-107 0 -166.5 -76.5t-64.5 -206.5h-31q0 170 83 270.5t230 100.5q118 0 180 -69.5t62 -176.5q0 -85 -41 -177.5t-115 -182t-146 -160t-165 -150.5v-2z" />
    <glyph glyph-name="uni2462" unicode="&#x2462;" 
d="M965 1679q140 0 271 -42.5t236.5 -121.5t185 -184.5t122.5 -238t43 -275.5q0 -174 -68 -333t-182.5 -274t-273.5 -183t-334 -68q-177 0 -337 68t-275 183t-183 274t-68 333q0 179 67.5 339t183 274.5t275 181.5t337.5 67zM965 1618q-221 0 -405.5 -107.5t-290 -291.5
t-105.5 -402q0 -164 62 -311.5t168.5 -254t255.5 -169t315 -62.5q216 0 399 106t290 289.5t107 401.5q0 163 -63.5 311t-170 255.5t-254 171t-308.5 63.5zM694 391q0 41 56 41q36 0 71 -39q43 -43 109 -43q79 0 136.5 58.5t57.5 166.5q0 244 -264 259v28q207 67 207 240
q0 68 -38 113t-111 45q-145 0 -187 -150h-31q17 107 87 166t174 59q98 0 161.5 -59.5t63.5 -159.5q0 -158 -195 -242v-4q115 -14 183.5 -83t68.5 -185q0 -132 -99 -215.5t-237 -83.5q-82 0 -147.5 24.5t-65.5 63.5z" />
    <glyph glyph-name="uni2463" unicode="&#x2463;" 
d="M965 1679q140 0 271 -42.5t236.5 -121.5t185 -184.5t122.5 -238t43 -275.5q0 -174 -68 -333t-182.5 -274t-273.5 -183t-334 -68q-177 0 -337 68t-275 183t-183 274t-68 333q0 179 67.5 339t183 274.5t275 181.5t337.5 67zM965 1618q-221 0 -405.5 -107.5t-290 -291.5
t-105.5 -402q0 -164 62 -311.5t168.5 -254t255.5 -169t315 -62.5q216 0 399 106t290 289.5t107 401.5q0 163 -63.5 311t-170 255.5t-254 171t-308.5 63.5zM621 602v80l415 629h88v-629h115v-80h-115v-151q0 -59 17 -77t78 -18v-28h-297v28q60 0 77 17.5t17 77.5v151h-395z
M682 682h334v520l-334 -516v-4z" />
    <glyph glyph-name="uni2464" unicode="&#x2464;" 
d="M965 1679q140 0 271 -42.5t236.5 -121.5t185 -184.5t122.5 -238t43 -275.5q0 -174 -68 -333t-182.5 -274t-273.5 -183t-334 -68q-177 0 -337 68t-275 183t-183 274t-68 333q0 179 67.5 339t183 274.5t275 181.5t337.5 67zM965 1618q-221 0 -405.5 -107.5t-290 -291.5
t-105.5 -402q0 -164 62 -311.5t168.5 -254t255.5 -169t315 -62.5q216 0 399 106t290 289.5t107 401.5q0 163 -63.5 311t-170 255.5t-254 171t-308.5 63.5zM696 399q0 43 52 43q8 0 16 -2t12.5 -4t12 -8.5t9 -8t10 -11.5t9.5 -11q28 -35 96 -35q77 0 138 83.5t61 236.5
q0 270 -180 270q-80 0 -139 -53l-43 29l96 395h371l-25 -88h-307l-68 -272l6 -5q67 52 158 52q113 0 184.5 -86t71.5 -215q0 -184 -100 -289t-246 -105q-80 0 -137.5 24t-57.5 60z" />
    <glyph glyph-name="uni2465" unicode="&#x2465;" 
d="M965 1679q140 0 271 -42.5t236.5 -121.5t185 -184.5t122.5 -238t43 -275.5q0 -174 -68 -333t-182.5 -274t-273.5 -183t-334 -68q-177 0 -337 68t-275 183t-183 274t-68 333q0 179 67.5 339t183 274.5t275 181.5t337.5 67zM965 20q216 0 399 106t290 289.5t107 401.5
q0 163 -63.5 311t-170 255.5t-254 171t-308.5 63.5q-221 0 -405.5 -107.5t-290 -291.5t-105.5 -402q0 -164 62 -311.5t168.5 -254t255.5 -169t315 -62.5zM1006 997q116 0 178.5 -91.5t62.5 -225.5q0 -70 -18 -135.5t-53 -120.5t-93 -88t-131 -33q-144 0 -227 120t-78 312
q1 86 22.5 165.5t65.5 151t106.5 128.5t150.5 97.5t194 57.5v-26q-73 -18 -134 -50.5t-103 -72.5t-74.5 -91t-52 -100.5t-31.5 -105.5h2q35 48 90 78t123 30zM954 350q85 0 127.5 80.5t42.5 228.5q0 79 -14.5 142t-53.5 107t-98 44q-104 0 -176 -108q-12 -67 -12 -131
q-3 -164 46 -263.5t138 -99.5z" />
    <glyph glyph-name="uni2466" unicode="&#x2466;" 
d="M965 1679q140 0 271 -42.5t236.5 -121.5t185 -184.5t122.5 -238t43 -275.5q0 -174 -68 -333t-182.5 -274t-273.5 -183t-334 -68q-177 0 -337 68t-275 183t-183 274t-68 333q0 179 67.5 339t183 274.5t275 181.5t337.5 67zM965 1618q-221 0 -405.5 -107.5t-290 -291.5
t-105.5 -402q0 -164 62 -311.5t168.5 -254t255.5 -169t315 -62.5q216 0 399 106t290 289.5t107 401.5q0 163 -63.5 311t-170 255.5t-254 171t-308.5 63.5zM915 291l-75 18l290 885v4h-342q-58 0 -83 -27.5t-46 -121.5l-26 6l35 155l18 76h563z" />
    <glyph glyph-name="uni2467" unicode="&#x2467;" 
d="M965 1679q140 0 271 -42.5t236.5 -121.5t185 -184.5t122.5 -238t43 -275.5q0 -174 -68 -333t-182.5 -274t-273.5 -183t-334 -68q-177 0 -337 68t-275 183t-183 274t-68 333q0 179 67.5 339t183 274.5t275 181.5t337.5 67zM965 20q216 0 399 106t290 289.5t107 401.5
q0 163 -63.5 311t-170 255.5t-254 171t-308.5 63.5q-221 0 -405.5 -107.5t-290 -291.5t-105.5 -402q0 -164 62 -311.5t168.5 -254t255.5 -169t315 -62.5zM1026 879q105 -78 160 -157.5t55 -168.5q0 -113 -78 -181.5t-200 -68.5q-127 0 -204 69t-77 169q0 45 15.5 86.5
t47.5 79.5t66.5 69t85.5 70q-65 54 -102 93t-60.5 85.5t-23.5 95.5q0 94 73.5 154.5t184.5 60.5q112 0 177.5 -58.5t65.5 -146.5q0 -39 -12 -72t-42 -65t-55.5 -54t-76.5 -60zM817 1139q0 -53 37 -103t129 -123q77 64 108 114t31 108q0 66 -41 110.5t-110 44.5
q-68 0 -111 -43t-43 -108zM967 350q77 0 122.5 49.5t45.5 135.5q0 74 -47.5 136t-147.5 142q-166 -137 -166 -272q0 -79 51 -135t142 -56z" />
    <glyph glyph-name="uni2468" unicode="&#x2468;" 
d="M961 1679q177 0 337 -68t275 -183t182.5 -274t67.5 -333q0 -179 -67.5 -339t-182.5 -274.5t-274.5 -181.5t-337.5 -67q-175 0 -334 67t-274 181.5t-183 274.5t-68 339q0 174 68 333t183 274t274 183t334 68zM961 20q166 0 315 63.5t255 171t168 255.5t62 311
q0 164 -62 311.5t-168.5 254t-255 169t-314.5 62.5q-162 0 -309 -62.5t-254 -169t-170.5 -254.5t-63.5 -311t63.5 -311.5t170.5 -255.5t254.5 -170.5t308.5 -63.5zM973 1335q145 0 227.5 -120t79.5 -312q-2 -86 -24 -165.5t-66 -151t-106.5 -128.5t-150.5 -97.5t-194 -57.5
v29q91 22 162 65.5t116.5 101.5t73.5 119t44 132h-2q-35 -48 -90 -78.5t-123 -30.5q-116 0 -179 91.5t-63 225.5q0 70 18 135.5t53 120.5t93 88t131 33zM1155 926q3 164 -46 264t-138 100q-85 0 -127.5 -81t-42.5 -230q0 -79 14.5 -141.5t53.5 -106t98 -43.5q104 0 176 107
q12 68 12 131z" />
    <glyph glyph-name="uni2469" unicode="&#x2469;" 
d="M965 1679q140 0 271 -42.5t236.5 -121.5t185 -184.5t122.5 -238t43 -275.5q0 -174 -68 -333t-182.5 -274t-273.5 -183t-334 -68q-177 0 -337 68t-275 183t-183 274t-68 333q0 179 67.5 339t183 274.5t275 181.5t337.5 67zM965 1618q-221 0 -405.5 -107.5t-290 -291.5
t-105.5 -402q0 -164 62 -311.5t168.5 -254t255.5 -169t315 -62.5q216 0 399 106t290 289.5t107 401.5q0 163 -63.5 311t-170 255.5t-254 171t-308.5 63.5zM1190 303q-101 0 -173 70.5t-106 185t-34 260.5t34 260.5t106 185t173 70.5t173 -70.5t106 -185t34 -260.5
t-34 -260.5t-106 -185t-173 -70.5zM721 444q0 -59 16.5 -76.5t77.5 -17.5v-28h-299v28q61 0 77.5 17.5t16.5 76.5v707q0 28 -1.5 39.5t-5.5 22t-16.5 8.5t-30.5 -8.5t-50 -22.5l-12 24l135 68l73 39l19 -16v-861zM1190 350q96 0 142 127.5t46 341.5q0 103 -10.5 187
t-32.5 148.5t-59 100t-86 35.5q-66 0 -109.5 -63.5t-61.5 -165.5t-18 -242q0 -104 10.5 -187t32.5 -147.5t59 -99.5t87 -35z" />
    <glyph glyph-name="uni246A" unicode="&#x246a;" 
d="M965 1679q140 0 271 -42.5t236.5 -121.5t185 -184.5t122.5 -238t43 -275.5q0 -174 -68 -333t-182.5 -274t-273.5 -183t-334 -68q-177 0 -337 68t-275 183t-183 274t-68 333q0 179 67.5 339t183 274.5t275 181.5t337.5 67zM965 1618q-221 0 -405.5 -107.5t-290 -291.5
t-105.5 -402q0 -164 62 -311.5t168.5 -254t255.5 -169t315 -62.5q216 0 399 106t290 289.5t107 401.5q0 163 -63.5 311t-170 255.5t-254 171t-308.5 63.5zM786 444q0 -59 17 -76.5t78 -17.5v-28h-297v28q60 0 76 17t16 77v707q0 44 -5.5 57.5t-26.5 10.5t-73 -29l-12 24
l135 68l76 39l16 -16v-861zM1257 444q0 -59 17 -76.5t78 -17.5v-28h-297v28q60 0 76 17t16 77v707q0 44 -5.5 57.5t-26.5 10.5t-73 -29l-12 24l135 68l76 39l16 -16v-861z" />
    <glyph glyph-name="uni246B" unicode="&#x246b;" 
d="M965 1679q140 0 271 -42.5t236.5 -121.5t185 -184.5t122.5 -238t43 -275.5q0 -174 -68 -333t-182.5 -274t-273.5 -183t-334 -68q-177 0 -337 68t-275 183t-183 274t-68 333q0 179 67.5 339t183 274.5t275 181.5t337.5 67zM965 1618q-221 0 -405.5 -107.5t-290 -291.5
t-105.5 -402q0 -164 62 -311.5t168.5 -254t255.5 -169t315 -62.5q216 0 399 106t290 289.5t107 401.5q0 163 -63.5 311t-170 255.5t-254 171t-308.5 63.5zM1341 410q57 0 83.5 24.5t56.5 100.5l24 -11l-47 -131l-26 -71h-576v28q93 87 154 148t128 138t105.5 138t64 130.5
t25.5 133.5q0 91 -42.5 147t-133.5 56q-107 0 -166.5 -76.5t-64.5 -206.5h-31q0 170 83 270.5t230 100.5q118 0 180 -69.5t62 -176.5q0 -69 -29 -145t-73 -141.5t-109.5 -138.5t-124 -127t-131.5 -117v-2zM690 444q0 -59 16.5 -76.5t77.5 -17.5v-28h-299v28q61 0 78 17.5
t17 76.5v707q0 44 -5.5 57.5t-26.5 10.5t-73 -29l-12 24l135 68l74 39l18 -16v-861z" />
    <glyph glyph-name="uni246C" unicode="&#x246c;" 
d="M965 1679q140 0 271 -42.5t236.5 -121.5t185 -184.5t122.5 -238t43 -275.5q0 -174 -68 -333t-182.5 -274t-273.5 -183t-334 -68q-177 0 -337 68t-275 183t-183 274t-68 333q0 179 67.5 339t183 274.5t275 181.5t337.5 67zM965 1618q-221 0 -405.5 -107.5t-290 -291.5
t-105.5 -402q0 -164 62 -311.5t168.5 -254t255.5 -169t315 -62.5q216 0 399 106t290 289.5t107 401.5q0 163 -63.5 311t-170 255.5t-254 171t-308.5 63.5zM899 391q0 41 55 41q37 0 72 -39q43 -43 109 -43q79 0 136.5 58.5t57.5 166.5q0 244 -264 259v28q207 67 207 240
q0 67 -38.5 112.5t-111.5 45.5q-144 0 -186 -150h-31q17 107 86.5 166t173.5 59q98 0 162 -59.5t64 -159.5q0 -158 -195 -242v-4q115 -14 183.5 -83t68.5 -185q0 -132 -99 -215.5t-237 -83.5q-82 0 -147.5 24.5t-65.5 63.5zM727 444q0 -60 16 -77t76 -17v-28h-297v28
q61 0 77.5 17.5t16.5 76.5v707q0 28 -1.5 39.5t-6 22t-16.5 8.5t-30.5 -8.5t-51.5 -22.5l-12 24l135 68l76 39l18 -16v-861z" />
    <glyph glyph-name="uni246D" unicode="&#x246d;" 
d="M965 1679q140 0 271 -42.5t236.5 -121.5t185 -184.5t122.5 -238t43 -275.5q0 -174 -68 -333t-182.5 -274t-273.5 -183t-334 -68q-177 0 -337 68t-275 183t-183 274t-68 333q0 179 67.5 339t183 274.5t275 181.5t337.5 67zM965 1618q-221 0 -405.5 -107.5t-290 -291.5
t-105.5 -402q0 -164 62 -311.5t168.5 -254t255.5 -169t315 -62.5q216 0 399 106t290 289.5t107 401.5q0 163 -63.5 311t-170 255.5t-254 171t-308.5 63.5zM692 444q0 -59 16.5 -76.5t77.5 -17.5v-28h-299v28q61 0 78 17.5t17 76.5v707q0 44 -5.5 57.5t-26.5 10.5t-73 -29
l-12 24l135 68l74 39l18 -16v-861zM829 596v80l414 629h90v-629h115v-80h-115v-152q0 -59 16.5 -76.5t77.5 -17.5v-28h-299v28q62 0 78.5 17t16.5 77v152h-394zM891 676h332v520l-332 -516v-4z" />
    <glyph glyph-name="uni246E" unicode="&#x246e;" 
d="M965 1679q140 0 271 -42.5t236.5 -121.5t185 -184.5t122.5 -238t43 -275.5q0 -174 -68 -333t-182.5 -274t-273.5 -183t-334 -68q-177 0 -337 68t-275 183t-183 274t-68 333q0 179 67.5 339t183 274.5t275 181.5t337.5 67zM965 1618q-221 0 -405.5 -107.5t-290 -291.5
t-105.5 -402q0 -164 62 -311.5t168.5 -254t255.5 -169t315 -62.5q216 0 399 106t290 289.5t107 401.5q0 163 -63.5 311t-170 255.5t-254 171t-308.5 63.5zM918 399q0 43 51 43q8 0 16 -2t12.5 -4t12 -8.5t9 -8t10 -11.5t9.5 -11q28 -35 97 -35q77 0 137.5 83.5t60.5 236.5
q0 270 -180 270q-80 0 -139 -53l-43 29l96 395h371l-25 -88h-307l-68 -272l6 -5q67 52 158 52q113 0 184.5 -86t71.5 -215q0 -184 -100 -289t-246 -105q-80 0 -137 24t-57 60zM729 444q0 -59 16.5 -76.5t77.5 -17.5v-28h-299v28q61 0 77.5 17.5t16.5 76.5v707
q0 28 -1.5 39.5t-5.5 22t-16.5 8.5t-30.5 -8.5t-50 -22.5l-12 24l135 68l74 39l18 -16v-861z" />
    <glyph glyph-name="uni246F" unicode="&#x246f;" 
d="M965 1679q140 0 271 -42.5t236.5 -121.5t185 -184.5t122.5 -238t43 -275.5q0 -174 -68 -333t-182.5 -274t-273.5 -183t-334 -68q-177 0 -337 68t-275 183t-183 274t-68 333q0 179 67.5 339t183 274.5t275 181.5t337.5 67zM965 20q216 0 399 106t290 289.5t107 401.5
q0 163 -63.5 311t-170 255.5t-254 171t-308.5 63.5q-221 0 -405.5 -107.5t-290 -291.5t-105.5 -402q0 -164 62 -311.5t168.5 -254t255.5 -169t315 -62.5zM1235 997q116 0 179 -91.5t63 -225.5q0 -70 -18 -135.5t-53 -120.5t-93 -88t-131 -33q-144 0 -227 120t-78 312
q2 145 60 268t181 213.5t297 118.5v-26q-73 -18 -134 -50.5t-103 -72.5t-74.5 -91t-52 -100.5t-31.5 -105.5h2q35 48 90 78t123 30zM696 444q0 -59 17 -76.5t78 -17.5v-28h-297v28q60 0 76 17t16 77v707q0 44 -5.5 57.5t-26.5 10.5t-73 -29l-12 24l135 68l76 39l16 -16v-861
zM1184 350q85 0 127.5 80.5t42.5 228.5q0 79 -14.5 142t-53.5 107t-98 44q-104 0 -176 -108q-13 -73 -13 -131q-3 -164 46.5 -263.5t138.5 -99.5z" />
    <glyph glyph-name="uni2470" unicode="&#x2470;" 
d="M965 1679q140 0 271 -42.5t236.5 -121.5t185 -184.5t122.5 -238t43 -275.5q0 -174 -68 -333t-182.5 -274t-273.5 -183t-334 -68q-177 0 -337 68t-275 183t-183 274t-68 333q0 179 67.5 339t183 274.5t275 181.5t337.5 67zM965 1618q-221 0 -405.5 -107.5t-290 -291.5
t-105.5 -402q0 -164 62 -311.5t168.5 -254t255.5 -169t315 -62.5q216 0 399 106t290 289.5t107 401.5q0 163 -63.5 311t-170 255.5t-254 171t-308.5 63.5zM700 444q0 -60 16.5 -77t76.5 -17v-28h-297v28q61 0 77.5 17.5t16.5 76.5v707q0 44 -5.5 57.5t-27 10.5t-74.5 -29
l-12 24l135 68l76 39l18 -16v-861zM1126 319l-75 19l290 885v4h-342q-58 0 -83 -28t-46 -122l-26 6l35 156l18 76h563z" />
    <glyph glyph-name="uni2471" unicode="&#x2471;" 
d="M965 1679q140 0 271 -42.5t236.5 -121.5t185 -184.5t122.5 -238t43 -275.5q0 -174 -68 -333t-182.5 -274t-273.5 -183t-334 -68q-177 0 -337 68t-275 183t-183 274t-68 333q0 179 67.5 339t183 274.5t275 181.5t337.5 67zM965 20q216 0 399 106t290 289.5t107 401.5
q0 163 -63.5 311t-170 255.5t-254 171t-308.5 63.5q-221 0 -405.5 -107.5t-290 -291.5t-105.5 -402q0 -164 62 -311.5t168.5 -254t255.5 -169t315 -62.5zM1233 879q105 -78 160 -157.5t55 -168.5q0 -112 -78.5 -181t-200.5 -69q-127 0 -203.5 69t-76.5 169q0 45 15.5 86.5
t47.5 79.5t66.5 69t85.5 70q-65 54 -102 93t-60.5 85.5t-23.5 95.5q0 94 73.5 154.5t184.5 60.5q112 0 177.5 -58.5t65.5 -146.5q0 -39 -12 -72t-42 -65t-55.5 -54t-76.5 -60zM702 444q0 -59 17 -76.5t78 -17.5v-28h-297v28q61 0 77.5 17.5t16.5 76.5v707q0 27 -1.5 39.5
t-6.5 22.5t-17.5 8t-31 -8.5t-50.5 -22.5l-12 24l135 68l76 39l16 -16v-861zM1024 1139q0 -53 37 -103t129 -123q77 64 108 114t31 108q0 66 -41 110.5t-110 44.5q-68 0 -111 -43t-43 -108zM1174 350q77 0 122 49.5t45 135.5q0 74 -47.5 136t-146.5 142q-166 -137 -166 -272
q0 -79 51 -135t142 -56z" />
    <glyph glyph-name="uni2472" unicode="&#x2472;" 
d="M965 1679q140 0 271 -42.5t236.5 -121.5t185 -184.5t122.5 -238t43 -275.5q0 -174 -68 -333t-182.5 -274t-273.5 -183t-334 -68q-177 0 -337 68t-275 183t-183 274t-68 333q0 179 67.5 339t183 274.5t275 181.5t337.5 67zM965 20q216 0 399 106t290 289.5t107 401.5
q0 163 -63.5 311t-170 255.5t-254 171t-308.5 63.5q-221 0 -405.5 -107.5t-290 -291.5t-105.5 -402q0 -164 62 -311.5t168.5 -254t255.5 -169t315 -62.5zM1184 1335q145 0 227.5 -120t79.5 -312q-2 -86 -24 -165.5t-66 -151t-106.5 -128.5t-150.5 -97.5t-194 -57.5v29
q91 22 162 65.5t116.5 101.5t73.5 119t44 132h-3q-33 -48 -88 -78.5t-122 -30.5q-117 0 -180.5 91.5t-63.5 225.5q0 70 18 135.5t53 120.5t93 88t131 33zM713 444q0 -59 16.5 -76.5t77.5 -17.5v-28h-297v28q60 0 76 17t16 77v707q0 28 -1.5 39.5t-5.5 22t-16.5 8.5
t-30.5 -8.5t-50 -22.5l-13 24l136 68l75 39l17 -16v-861zM1366 926q3 164 -46 264t-138 100q-83 0 -125.5 -81t-42.5 -230q0 -80 14 -142t52.5 -105.5t97.5 -43.5q104 0 176 107q12 67 12 131z" />
    <glyph glyph-name="uni2473" unicode="&#x2473;" 
d="M965 1679q140 0 271 -42.5t236.5 -121.5t185 -184.5t122.5 -238t43 -275.5q0 -174 -68 -333t-182.5 -274t-273.5 -183t-334 -68q-177 0 -337 68t-275 183t-183 274t-68 333q0 179 67.5 339t183 274.5t275 181.5t337.5 67zM965 1618q-221 0 -405.5 -107.5t-290 -291.5
t-105.5 -402q0 -164 62 -311.5t168.5 -254t255.5 -169t315 -62.5q216 0 399 106t290 289.5t107 401.5q0 163 -63.5 311t-170 255.5t-254 171t-308.5 63.5zM1348 303q-101 0 -173 70.5t-105.5 185t-33.5 260.5t33.5 260.5t105.5 185t173 70.5q102 0 174 -70.5t105.5 -185
t33.5 -260.5t-33.5 -260.5t-105.5 -185t-174 -70.5zM834 403q58 0 84.5 24.5t54.5 100.5l26 -10l-49 -131l-26 -72h-576v29q92 86 154.5 148t128.5 138t105 138t64 131t25 133q0 91 -42 147t-132 56q-108 0 -168 -77t-65 -206h-31q0 170 83 270.5t232 100.5q116 0 179 -69.5
t63 -176.5q0 -69 -29 -144.5t-73 -141.5t-110 -138.5t-125 -127.5t-132 -117v-2zM1348 350q50 0 87 35t59.5 99.5t33 148t10.5 186.5q0 104 -10.5 187.5t-32.5 148t-59.5 100t-87.5 35.5q-96 0 -142.5 -128.5t-46.5 -342.5q0 -139 18.5 -241.5t62 -165t108.5 -62.5z" />
    <glyph glyph-name="uni24EA" unicode="&#x24ea;" 
d="M965 1679q140 0 271 -42.5t236.5 -121.5t185 -184.5t122.5 -238t43 -275.5q0 -174 -68 -333t-182.5 -274t-273.5 -183t-334 -68q-177 0 -337 68t-275 183t-183 274t-68 333q0 179 67.5 339t183 274.5t275 181.5t337.5 67zM965 1618q-221 0 -405.5 -107.5t-290 -291.5
t-105.5 -402q0 -164 62 -311.5t168.5 -254t255.5 -169t315 -62.5q216 0 399 106t290 289.5t107 401.5q0 163 -63.5 311t-170 255.5t-254 171t-308.5 63.5zM956 303q-101 0 -173 70.5t-106 185t-34 260.5t34 260.5t106 185t173 70.5t173.5 -70.5t106.5 -185t34 -260.5
t-34 -260.5t-106.5 -185t-173.5 -70.5zM956 350q50 0 87 35t59 99.5t32.5 147.5t10.5 187t-10.5 187.5t-32.5 148t-59 100t-87 35.5q-49 0 -86 -35.5t-59 -100t-32.5 -148.5t-10.5 -187q0 -214 46 -341.5t142 -127.5z" />
    <glyph glyph-name="uni24EB" unicode="&#x24eb;" 
d="M965 1679q-178 0 -337.5 -67t-275 -181.5t-183 -274.5t-67.5 -339q0 -174 68 -333t183 -274t275 -183t337 -68q175 0 334 68t273.5 183t182.5 274t68 333q0 143 -43 275.5t-122.5 238t-185 184.5t-236.5 121.5t-271 42.5zM788 461q0 -59 17 -76.5t78 -17.5v-27h-297v27
q60 0 76 17t16 77v708q0 44 -5.5 57.5t-26.5 10.5t-73 -29l-12 25l135 67l76 37l16 -14v-862zM1253 461q0 -59 17 -76.5t78 -17.5v-27h-297v27q61 0 77.5 17.5t16.5 76.5v708q0 27 -1.5 39.5t-6.5 22.5t-17.5 8t-31 -8.5t-50.5 -22.5l-12 25l135 67l76 37l16 -14v-862z" />
    <glyph glyph-name="uni24EC" unicode="&#x24ec;" 
d="M965 1679q-178 0 -337.5 -67t-275 -181.5t-183 -274.5t-67.5 -339q0 -174 68 -333t183 -274t275 -183t337 -68q175 0 334 68t273.5 183t182.5 274t68 333q0 143 -43 275.5t-122.5 238t-185 184.5t-236.5 121.5t-271 42.5zM1335 424q58 0 84 24.5t54 100.5l26 -10
l-49 -131l-27 -72h-573v26q92 86 154 148.5t128.5 139t105.5 138.5t64 131.5t25 133.5q0 90 -42.5 145t-133.5 55q-108 0 -168 -75.5t-63 -204.5h-33q0 170 83 270t232 100q118 0 180 -69t62 -176q0 -69 -29 -145t-73.5 -142.5t-109.5 -138.5t-125 -127.5t-132 -116.5v-4
h360zM674 457q0 -60 16 -77.5t76 -17.5v-26h-297v26q60 0 77 17.5t17 77.5v708q0 28 -1.5 39.5t-6 22t-16.5 8.5t-30.5 -8.5t-51.5 -22.5l-13 25l136 67l75 37l19 -14v-862z" />
    <glyph glyph-name="uni24ED" unicode="&#x24ed;" 
d="M965 1679q-178 0 -337.5 -67t-275 -181.5t-183 -274.5t-67.5 -339q0 -174 68 -333t183 -274t275 -183t337 -68q175 0 334 68t273.5 183t182.5 274t68 333q0 143 -43 275.5t-122.5 238t-185 184.5t-236.5 121.5t-271 42.5zM897 391q0 41 55 41q37 0 72 -39q43 -43 109 -43
q79 0 136.5 58.5t57.5 166.5q0 244 -264 259v28q207 67 207 240q0 67 -38.5 112.5t-111.5 45.5q-144 0 -186 -150h-31q17 107 86.5 166t173.5 59q98 0 162 -59.5t64 -159.5q0 -158 -195 -242v-4q115 -14 183.5 -83t68.5 -185q0 -132 -99 -215.5t-237 -83.5
q-82 0 -147.5 24.5t-65.5 63.5zM694 444q0 -59 16.5 -76.5t77.5 -17.5v-28h-296v28q61 0 77.5 17.5t16.5 76.5v707q0 27 -1.5 39.5t-6.5 22.5t-17.5 8t-31 -8.5t-50.5 -22.5l-12 24l135 68l76 39l16 -16v-861z" />
    <glyph glyph-name="uni24EE" unicode="&#x24ee;" 
d="M965 1679q-178 0 -337.5 -67t-275 -181.5t-183 -274.5t-67.5 -339q0 -174 68 -333t183 -274t275 -183t337 -68q175 0 334 68t273.5 183t182.5 274t68 333q0 143 -43 275.5t-122.5 238t-185 184.5t-236.5 121.5t-271 42.5zM684 457q0 -60 17 -77.5t77 -17.5v-26h-297v26
q60 0 77 17.5t17 77.5v708q0 44 -5.5 57.5t-27 10.5t-73.5 -29l-12 25l135 67l76 37l16 -14v-862zM834 610v80l413 629h88v-629h117v-80h-117v-153q0 -59 17 -77t78 -18v-26h-297v26q60 0 77 17.5t17 77.5v153h-393zM895 690h332v520l-332 -516v-4z" />
    <glyph glyph-name="uni24EF" unicode="&#x24ef;" 
d="M965 1679q-178 0 -337.5 -67t-275 -181.5t-183 -274.5t-67.5 -339q0 -174 68 -333t183 -274t275 -183t337 -68q175 0 334 68t273.5 183t182.5 274t68 333q0 143 -43 275.5t-122.5 238t-185 184.5t-236.5 121.5t-271 42.5zM889 399q0 43 53 43q16 0 30 -8t19.5 -14
t18.5 -23q32 -35 98 -35q77 0 138 83.5t61 236.5q0 139 -48.5 204.5t-132.5 65.5q-80 0 -139 -53l-43 29l94 395h371l-23 -88h-307l-67 -272l6 -5q67 52 158 52q113 0 184.5 -86t71.5 -215q0 -184 -100.5 -289t-246.5 -105q-81 0 -138.5 24t-57.5 60zM713 444
q0 -59 16.5 -76.5t77.5 -17.5v-28h-299v28q61 0 77.5 17.5t16.5 76.5v707q0 28 -1.5 39.5t-5.5 22t-16.5 8.5t-30.5 -8.5t-50 -22.5l-13 24l136 68l73 39l19 -16v-861z" />
    <glyph glyph-name="uni24F0" unicode="&#x24f0;" 
d="M965 1679q-178 0 -337.5 -67t-275 -181.5t-183 -274.5t-67.5 -339q0 -174 68 -333t183 -274t275 -183t337 -68q175 0 334 68t273.5 183t182.5 274t68 333q0 143 -43 275.5t-122.5 238t-185 184.5t-236.5 121.5t-271 42.5zM864 735q2 108 36 205t98.5 178.5t166.5 138
t232 78.5v-26q-170 -43 -267 -156t-131 -264h5q33 47 89 77.5t124 30.5q114 0 176.5 -91.5t62.5 -225.5q0 -69 -17.5 -134.5t-52 -120.5t-92 -88.5t-129.5 -33.5q-142 0 -223 120t-78 312zM686 444q0 -59 16.5 -76.5t77.5 -17.5v-28h-297v28q61 0 78 17.5t17 76.5v707
q0 27 -1.5 39.5t-6.5 22.5t-17.5 8t-31 -8.5t-50.5 -22.5l-12 24l135 68l76 39l16 -16v-861zM981 715q-3 -164 47 -264.5t139 -100.5q86 0 129 80.5t43 228.5q0 80 -14.5 142.5t-54 106.5t-99.5 44q-100 0 -180 -110q-10 -59 -10 -127z" />
    <glyph glyph-name="uni24F1" unicode="&#x24f1;" 
d="M965 1679q-178 0 -337.5 -67t-275 -181.5t-183 -274.5t-67.5 -339q0 -174 68 -333t183 -274t275 -183t337 -68q175 0 334 68t273.5 183t182.5 274t68 333q0 143 -43 275.5t-122.5 238t-185 184.5t-236.5 121.5t-271 42.5zM698 444q0 -59 17 -76.5t78 -17.5v-28h-297v28
q60 0 76 17t16 77v707q0 44 -5.5 57.5t-26.5 10.5t-73 -29l-12 24l135 68l76 39l16 -16v-861zM1110 319l-76 19l291 885v4h-342q-58 0 -83 -28t-46 -122l-27 6l35 156l19 76h563z" />
    <glyph glyph-name="uni24F2" unicode="&#x24f2;" 
d="M965 1679q-178 0 -337.5 -67t-275 -181.5t-183 -274.5t-67.5 -339q0 -174 68 -333t183 -274t275 -183t337 -68q175 0 334 68t273.5 183t182.5 274t68 333q0 143 -43 275.5t-122.5 238t-185 184.5t-236.5 121.5t-271 42.5zM856 537q0 85 62.5 160.5t181.5 150.5
q-105 74 -154 139.5t-49 138.5q0 91 75.5 150t194.5 59q120 0 194.5 -58t74.5 -142q0 -73 -47.5 -130.5t-153.5 -125.5q126 -89 186 -168t60 -164q0 -109 -87 -176.5t-227 -67.5q-144 0 -227.5 68t-83.5 166zM666 444q0 -59 16.5 -76.5t77.5 -17.5v-28h-297v28
q61 0 77.5 17.5t16.5 76.5v707q0 44 -5.5 57.5t-27 10.5t-73.5 -29l-13 24l135 68l76 39l17 -16v-861zM999 1143q0 -53 40.5 -106.5t144.5 -123.5q91 64 121 114.5t30 113.5t-45.5 106t-122.5 43t-122.5 -41.5t-45.5 -105.5zM956 537q0 -77 60 -132t170 -55q92 0 142 47.5
t50 132.5q0 74 -55 140.5t-172 144.5q-195 -136 -195 -278z" />
    <glyph glyph-name="uni24F3" unicode="&#x24f3;" 
d="M965 1679q-178 0 -337.5 -67t-275 -181.5t-183 -274.5t-67.5 -339q0 -174 68 -333t183 -274t275 -183t337 -68q175 0 334 68t273.5 183t182.5 274t68 333q0 143 -43 275.5t-122.5 238t-185 184.5t-236.5 121.5t-271 42.5zM1497 905q-2 -109 -36 -206.5t-98 -179
t-166 -138t-232 -78.5v29q88 21 158.5 64t117 100.5t76 120t45.5 133.5h-4q-33 -48 -89 -78.5t-124 -30.5q-114 0 -177 91.5t-63 225.5q0 55 10.5 108t34 102t57 86t82.5 59t107 22q142 0 223 -119.5t78 -310.5zM713 444q0 -60 16 -77t76 -17v-28h-297v28q61 0 77.5 17.5
t16.5 76.5v707q0 28 -1.5 39.5t-6 22t-16.5 8.5t-30.5 -8.5t-51.5 -22.5l-13 24l135 68l76 39l19 -16v-861zM1380 926q0 165 -48.5 264.5t-137.5 99.5q-86 0 -129 -81.5t-43 -227.5q0 -81 14.5 -143.5t54 -106t99.5 -43.5q101 0 180 109q10 59 10 129z" />
    <glyph glyph-name="uni24F4" unicode="&#x24f4;" 
d="M965 1679q-178 0 -337.5 -67t-275 -181.5t-183 -274.5t-67.5 -339q0 -174 68 -333t183 -274t275 -183t337 -68q175 0 334 68t273.5 183t182.5 274t68 333q0 143 -43 275.5t-122.5 238t-185 184.5t-236.5 121.5t-271 42.5zM1354 303q-101 0 -173 70.5t-105.5 185
t-33.5 260.5t33.5 260.5t105.5 185t173 70.5q102 0 174 -70.5t105.5 -185t33.5 -260.5t-33.5 -260.5t-105.5 -185t-174 -70.5zM821 403q57 0 83.5 24.5t56.5 100.5l24 -10l-47 -131l-27 -72h-575v29q93 87 154 148t128 138t105.5 138t64 130.5t25.5 133.5q0 91 -42.5 147
t-133.5 56q-107 0 -166.5 -76.5t-64.5 -206.5h-31q0 170 83 270.5t230 100.5q118 0 180 -69.5t62 -176.5q0 -69 -29 -145t-73 -141.5t-109.5 -138.5t-124 -127t-131.5 -117v-2zM1354 350q50 0 87 35t59.5 99.5t33 148t10.5 186.5q0 104 -10.5 187.5t-32.5 148t-59.5 100
t-87.5 35.5q-96 0 -142.5 -128.5t-46.5 -342.5q0 -139 18.5 -241.5t62 -165t108.5 -62.5z" />
    <glyph glyph-name="uni24FF" unicode="&#x24ff;" 
d="M965 1679q-178 0 -337.5 -67t-275 -181.5t-183 -274.5t-67.5 -339q0 -174 68 -333t183 -274t275 -183t337 -68q175 0 334 68t273.5 183t182.5 274t68 333q0 143 -43 275.5t-122.5 238t-185 184.5t-236.5 121.5t-271 42.5zM956 303q-101 0 -173 70.5t-106 185t-34 260.5
t34 260.5t106 185t173 70.5t173.5 -70.5t106.5 -185t34 -260.5t-34 -260.5t-106.5 -185t-173.5 -70.5zM956 350q50 0 87 35t59 99.5t32.5 147.5t10.5 187t-10.5 187.5t-32.5 148t-59 100t-87 35.5q-49 0 -86 -35.5t-59 -100t-32.5 -148.5t-10.5 -187q0 -214 46 -341.5
t142 -127.5z" />
    <glyph glyph-name="lozenge" unicode="&#x25ca;" horiz-adv-x="1142" 
d="M643 1638l397 -831l-397 -832h-147l-394 832l394 831h147zM573 106l326 701l-326 700h-6l-323 -700l323 -701h6z" />
    <glyph glyph-name="uni2776" unicode="&#x2776;" 
d="M965 1679q-178 0 -337.5 -67t-275 -181.5t-183 -274.5t-67.5 -339q0 -174 68 -333t183 -274t275 -183t337 -68q175 0 334 68t273.5 183t182.5 274t68 333q0 143 -43 275.5t-122.5 238t-185 184.5t-236.5 121.5t-271 42.5zM1016 442q0 -59 16.5 -76.5t77.5 -17.5v-29h-297
v29q60 0 76 17t16 77v709q0 28 -1.5 39.5t-5.5 22t-16.5 8.5t-30.5 -8.5t-50 -22.5l-13 24l136 66l75 39l17 -16v-861z" />
    <glyph glyph-name="uni2777" unicode="&#x2777;" 
d="M965 1679q-178 0 -337.5 -67t-275 -181.5t-183 -274.5t-67.5 -339q0 -174 68 -333t183 -274t275 -183t337 -68q175 0 334 68t273.5 183t182.5 274t68 333q0 143 -43 275.5t-122.5 238t-185 184.5t-236.5 121.5t-271 42.5zM1130 424q57 0 83.5 24.5t56.5 100.5l24 -10
l-47 -131l-26 -72h-576v29q93 87 154 148t128 138t105.5 138t64 130.5t25.5 133.5q0 91 -42.5 146.5t-133.5 55.5q-108 0 -167 -76t-64 -206h-31q0 169 83 269.5t230 100.5q118 0 180 -69t62 -176q0 -85 -41 -177.5t-115 -182t-146 -160t-165 -150.5v-2z" />
    <glyph glyph-name="uni2778" unicode="&#x2778;" 
d="M965 1679q-178 0 -337.5 -67t-275 -181.5t-183 -274.5t-67.5 -339q0 -174 68 -333t183 -274t275 -183t337 -68q175 0 334 68t273.5 183t182.5 274t68 333q0 143 -43 275.5t-122.5 238t-185 184.5t-236.5 121.5t-271 42.5zM694 391q0 41 56 41q36 0 71 -39q43 -43 109 -43
q79 0 136.5 58.5t57.5 166.5q0 244 -264 259v28q207 67 207 240q0 68 -38 113t-111 45q-145 0 -187 -150h-31q17 107 87 166t174 59q98 0 161.5 -59.5t63.5 -159.5q0 -158 -195 -242v-4q115 -14 183.5 -83t68.5 -185q0 -132 -99 -215.5t-237 -83.5q-82 0 -147.5 24.5
t-65.5 63.5z" />
    <glyph glyph-name="uni2779" unicode="&#x2779;" 
d="M965 1679q-178 0 -337.5 -67t-275 -181.5t-183 -274.5t-67.5 -339q0 -174 68 -333t183 -274t275 -183t337 -68q175 0 334 68t273.5 183t182.5 274t68 333q0 143 -43 275.5t-122.5 238t-185 184.5t-236.5 121.5t-271 42.5zM616 602v80l414 629h90v-629h115v-80h-115v-151
q0 -60 17 -77.5t77 -17.5v-28h-299v28q62 0 78.5 17.5t16.5 77.5v151h-394zM678 682h332v520l-332 -516v-4z" />
    <glyph glyph-name="uni277A" unicode="&#x277a;" 
d="M965 1679q-178 0 -337.5 -67t-275 -181.5t-183 -274.5t-67.5 -339q0 -174 68 -333t183 -274t275 -183t337 -68q175 0 334 68t273.5 183t182.5 274t68 333q0 143 -43 275.5t-122.5 238t-185 184.5t-236.5 121.5t-271 42.5zM690 399q0 43 51 43q6 0 12 -1t10.5 -2.5t10 -5
t8 -5.5t8 -7t7 -7t7.5 -8.5t7 -8.5q28 -35 96 -35q77 0 138 83.5t61 236.5q0 270 -180 270q-81 0 -140 -53l-43 29l97 395h370l-24 -88h-307l-68 -272l6 -5q67 52 158 52q113 0 184.5 -86t71.5 -215q0 -184 -100 -289t-246 -105q-80 0 -137.5 24t-57.5 60z" />
    <glyph glyph-name="uni277B" unicode="&#x277b;" 
d="M965 1679q-178 0 -337.5 -67t-275 -181.5t-183 -274.5t-67.5 -339q0 -174 68 -333t183 -274t275 -183t337 -68q175 0 334 68t273.5 183t182.5 274t68 333q0 143 -43 275.5t-122.5 238t-185 184.5t-236.5 121.5t-271 42.5zM647 735q1 86 22 165.5t64.5 151t105 128.5
t149 97.5t192.5 57.5v-26q-89 -22 -160 -65.5t-117.5 -101t-76.5 -120t-46 -133.5h4q35 48 90 78t123 30q114 0 177 -91.5t63 -225.5q0 -69 -17.5 -134.5t-52 -120.5t-92 -88.5t-129.5 -33.5q-143 0 -223.5 120t-75.5 312zM764 715q-5 -164 45 -264.5t141 -100.5
q85 0 127.5 80.5t42.5 228.5q0 59 -8.5 108.5t-27 92.5t-52.5 67.5t-80 24.5q-100 0 -180 -110q-8 -63 -8 -127z" />
    <glyph glyph-name="uni277C" unicode="&#x277c;" 
d="M965 1679q-178 0 -337.5 -67t-275 -181.5t-183 -274.5t-67.5 -339q0 -174 68 -333t183 -274t275 -183t337 -68q175 0 334 68t273.5 183t182.5 274t68 333q0 143 -43 275.5t-122.5 238t-185 184.5t-236.5 121.5t-271 42.5zM913 281l-75 18l290 885v4h-342q-58 0 -83 -28
t-46 -122l-26 6l35 156l18 76h563z" />
    <glyph glyph-name="uni277D" unicode="&#x277d;" 
d="M965 1679q-178 0 -337.5 -67t-275 -181.5t-183 -274.5t-67.5 -339q0 -174 68 -333t183 -274t275 -183t337 -68q175 0 334 68t273.5 183t182.5 274t68 333q0 143 -43 275.5t-122.5 238t-185 184.5t-236.5 121.5t-271 42.5zM690 541q0 87 54 160.5t155 148.5
q-95 76 -138.5 137t-43.5 135q0 94 71 153.5t181 59.5q108 0 173.5 -59t65.5 -146q0 -75 -41.5 -126.5t-140.5 -124.5q106 -82 158.5 -160.5t52.5 -165.5q0 -113 -76 -181.5t-198 -68.5q-123 0 -198 69t-75 169zM813 1139q0 -54 36.5 -104t127.5 -122q81 65 111 114.5
t30 107.5q0 67 -40 111t-109 44q-70 0 -113 -42t-43 -109zM780 541q0 -78 52 -134.5t141 -56.5q79 0 124.5 49t45.5 136q0 74 -48 138t-147 142q-168 -142 -168 -274z" />
    <glyph glyph-name="uni277E" unicode="&#x277e;" 
d="M961 -41q178 0 337.5 67t274.5 181.5t182.5 274.5t67.5 339q0 174 -67.5 333t-182.5 274t-275 183t-337 68q-175 0 -334 -68t-274 -183t-183 -274t-68 -333q0 -179 68 -339t183 -274.5t274 -181.5t334 -67zM1280 905q-2 -109 -36 -206.5t-98 -179t-166 -138t-232 -78.5
v29q88 21 158.5 64t117 100.5t76 120t45.5 133.5h-4q-33 -48 -89 -78.5t-124 -30.5q-114 0 -177 91.5t-63 225.5q0 55 10.5 108t34 102t57 86t82.5 59t107 22q142 0 223 -119.5t78 -310.5zM1163 926q3 164 -47 264t-139 100q-86 0 -129 -81.5t-43 -227.5q0 -81 14.5 -143.5
t54 -106t99.5 -43.5q101 0 180 109q10 59 10 129z" />
    <glyph glyph-name="uni277F" unicode="&#x277f;" 
d="M965 1679q-178 0 -337.5 -67t-275 -181.5t-183 -274.5t-67.5 -339q0 -174 68 -333t183 -274t275 -183t337 -68q175 0 334 68t273.5 183t182.5 274t68 333q0 143 -43 275.5t-122.5 238t-185 184.5t-236.5 121.5t-271 42.5zM1161 303q-102 0 -174 70.5t-105.5 185
t-33.5 260.5t33.5 260.5t105.5 185t174 70.5q101 0 173.5 -70.5t106.5 -185t34 -260.5t-34 -260.5t-106.5 -185t-173.5 -70.5zM692 442q0 -60 16 -77t76 -17v-29h-297v29q61 0 78 17.5t17 76.5v709q0 44 -5.5 57.5t-27 10.5t-74.5 -29l-12 24l135 66l76 39l18 -16v-861z
M1161 350q65 0 108.5 62.5t62 165t18.5 241.5q0 214 -46.5 342.5t-142.5 128.5q-50 0 -87 -35.5t-58.5 -100t-32 -148t-10.5 -187.5t10.5 -187t32 -147.5t58.5 -99.5t87 -35z" />
    <glyph glyph-name="i.loclTRK" horiz-adv-x="528" 
d="M238 1362q-44 0 -76.5 32t-32.5 76t32.5 75.5t76.5 31.5t75 -31.5t31 -75.5t-31 -76t-75 -32zM348 205q0 -100 24.5 -129t114.5 -29v-47h-430v47q90 0 115 29.5t25 128.5v647q0 94 -9 112q-12 24 -60 4q-16 -6 -40 -18l-20 43l147 70l109 53l24 -24v-887z" />
    <glyph glyph-name="C_O" horiz-adv-x="2324" 
d="M78 819q0 244 78.5 439t227 308t341.5 113q73 0 140 -18t105.5 -40t72.5 -40t49 -18q21 0 28.5 17.5t7.5 78.5h48l30 -563h-47q-51 508 -405 508q-148 0 -259 -105.5t-167 -282t-56 -397.5q0 -220 56 -394t165.5 -276t256.5 -102q193 0 321.5 165t165.5 450h45
q-20 -157 -63.5 -283.5t-112 -221.5t-168 -146.5t-223.5 -51.5q-193 0 -339 113.5t-222 308t-76 438.5zM1839 696q-170 0 -277.5 140t-107.5 352q0 213 107.5 352t277.5 139t278.5 -139.5t108.5 -351.5q0 -211 -108.5 -351.5t-278.5 -140.5zM1878 776q127 10 181 126.5
t38 307.5q-16 190 -90 296t-203 96q-128 -12 -183 -130.5t-36 -306.5q12 -125 46.5 -213t97 -136t149.5 -40zM1833 -41q-44 0 -76.5 32.5t-32.5 76.5t32 75t77 31q44 0 75 -31t31 -75q0 -45 -31 -77t-75 -32z" />
    <glyph glyph-name="L_L" horiz-adv-x="1943" 
d="M651 1638v-45q-74 0 -115.5 -6t-64.5 -26t-29 -47t-6 -78v-1229q0 -81 22 -105t95 -24h340q67 0 104.5 26.5t71 106t74.5 246.5l45 -11l-98 -405l-11 -41h-1038v47q98 0 143.5 14.5t59.5 45t14 98.5v1231q0 51 -6 78t-29.5 47t-65 26t-116.5 6v45h610zM1475 1638v-45
q-71 0 -110 -6t-61 -26t-28 -47t-6 -78v-613q0 -72 18 -94t78 -22h242q50 0 80 11.5t57.5 50.5t48 106.5t45.5 187.5l45 -10l-80 -379l-10 -43h-907v45q92 0 135 14.5t56.5 45.5t13.5 98v602q0 51 -6 78t-28.5 46.5t-61.5 26t-109 6.5v45h588z" />
    <glyph glyph-name="L_T_D" horiz-adv-x="2865" 
d="M651 1638v-45q-74 0 -115.5 -6t-64.5 -26t-29 -47t-6 -78v-1229q0 -81 22 -105t95 -24h340q67 0 104.5 26.5t71 106t74.5 246.5l45 -11l-98 -405l-11 -41h-1038v47q98 0 143.5 14.5t59.5 45t14 98.5v1231q0 51 -6 78t-29.5 47t-65 26t-116.5 6v45h610zM1260 1563
q-67 0 -100 -15.5t-53.5 -62t-33.5 -144.5l-45 7l31 233l6 57h801l6 -57l31 -233l-48 -7q-12 98 -31.5 144.5t-53 62t-99.5 15.5h-145v-621q0 -52 4 -78.5t20 -46.5t45.5 -26.5t81.5 -6.5v-47h-426v47q52 0 81.5 6.5t45.5 26.5t20.5 47t4.5 78v621h-143zM1980 737v47
q52 0 81 6.5t45.5 26.5t21 47t4.5 78v494q0 51 -4.5 78t-21 46.5t-45.5 26t-81 6.5v45h392q195 0 305 -122t110 -328t-110.5 -328.5t-304.5 -122.5h-392zM2376 815q139 0 211.5 96t72.5 277t-72.5 278t-211.5 97q-76 0 -123 -21v-706q47 -21 123 -21zM1917 -41
q-44 0 -75.5 32.5t-31.5 76.5t31.5 75t75.5 31t76 -31t32 -75t-32 -76.5t-76 -32.5z" />
    <glyph glyph-name="O_O" horiz-adv-x="2170" 
d="M1458 1679q144 0 265 -68t201.5 -184.5t125.5 -273.5t45 -334t-45 -334t-125.5 -273.5t-201.5 -184.5t-265 -68q-217 0 -371 145q-158 -145 -372 -145q-144 0 -265 68t-201.5 184.5t-125.5 273.5t-45 334t45 334t125.5 273.5t201.5 184.5t265 68q214 0 372 -145
q154 145 371 145zM1511 35q142 13 242 123.5t142 293t22 408.5q-20 227 -93.5 400.5t-190.5 266t-259 79.5q-141 -12 -239 -121q104 -118 160.5 -291.5t56.5 -374.5q0 -184 -48 -345.5t-137 -278.5q145 -178 344 -160zM799 35q135 11 239 119q-104 120 -160.5 293t-56.5 372
q0 183 47.5 344.5t135.5 278.5q-145 182 -342 164q-143 -13 -243.5 -124t-142.5 -294t-22 -410q19 -227 92 -400t191 -264.5t262 -78.5zM1055 1370q-119 -228 -88 -592q28 -314 149 -510q118 229 88 592q-27 305 -149 510z" />
    <glyph glyph-name="S_T" horiz-adv-x="2011" 
d="M121 -6v588h45q2 -124 36 -227.5t89.5 -172.5t128 -107t153.5 -38q130 0 206.5 76.5t76.5 201.5q0 32 -6 62t-22 61t-30 56t-43.5 57.5t-48.5 53t-59 56.5t-60.5 53.5t-68 57.5t-67.5 57q-68 59 -104.5 92.5t-81 78.5t-66.5 77t-43.5 74t-29 84.5t-7.5 93.5
q0 163 108.5 256.5t276.5 93.5q76 0 142.5 -23t102 -50.5t66 -50.5t43.5 -23q18 0 24.5 21t6.5 92h45v-480h-45q-5 193 -108 316t-263 123q-124 0 -188 -65.5t-64 -158.5q0 -35 9 -68.5t29 -65.5t39.5 -58t53.5 -58.5t58 -53t66.5 -56t64.5 -55.5q187 -164 205 -182
q128 -120 173 -220q40 -89 40 -205q0 -93 -35 -170.5t-93 -126.5t-130.5 -75.5t-149.5 -26.5q-71 0 -131.5 16t-98.5 38.5t-67.5 45t-52 38.5t-37.5 16q-25 0 -34 -26t-9 -93h-45zM1311 1563q-67 0 -100 -15.5t-53.5 -62t-33.5 -144.5l-45 7l31 233l6 57h799l6 -57l31 -233
l-45 -7q-13 98 -33.5 144.5t-53.5 62t-100 15.5h-143v-621q0 -51 4.5 -78t20.5 -47t45.5 -26.5t81.5 -6.5v-47h-426v47q52 0 81.5 6.5t45.5 26.5t20 46.5t4 78.5v621h-143zM1516 -41q-44 0 -75.5 32.5t-31.5 76.5t31.5 75t75.5 31t76 -31t32 -75t-32 -76.5t-76 -32.5z" />
    <glyph glyph-name="s_t" horiz-adv-x="1445" 
d="M1358 451h47q-1 -102 -6.5 -174.5t-20.5 -135.5t-40.5 -101t-65 -59.5t-94.5 -21.5q-117 0 -177.5 88.5t-60.5 284.5v667h-164v76q135 3 193 68t67 225q9 121 -49 185.5t-160 64.5q-118 0 -177.5 -77.5t-59.5 -219.5q0 -45 4 -88.5t15.5 -89t18.5 -75t26.5 -78.5
t26.5 -66t30.5 -70t27.5 -61l-43 -27q-85 136 -127 182q-87 99 -188 99q-64 0 -104.5 -39t-40.5 -93q0 -21 5 -40.5t18.5 -40.5t23.5 -35t36 -38t38 -35t47 -39.5t47 -39.5q144 -126 179 -162q89 -92 106 -183q5 -30 5 -62q0 -130 -86 -205.5t-213 -75.5q-55 0 -102 13
t-73 28t-49.5 28t-35.5 13q-19 0 -25.5 -14t-6.5 -47h-46v405h46q8 -157 86.5 -255.5t199.5 -98.5q87 0 129.5 45.5t42.5 122.5q0 25 -5 47.5t-21 47t-26.5 40t-41 44t-44.5 41t-57 48t-59 49.5q-128 110 -159 143q-82 86 -91 176q-2 15 -2 31q0 112 74.5 181t192.5 69
q79 0 136.5 -35.5t92.5 -83.5l4 2q-90 156 -90 349q0 157 85.5 259.5t227.5 102.5q124 0 196.5 -84t72.5 -258v-293h241v-76h-241v-596q0 -60 1 -97.5t5 -80.5t12.5 -68t22.5 -47.5t35.5 -32t50.5 -9.5q73 0 104.5 85t32.5 298z" />
    <glyph glyph-name="zero.dnom" horiz-adv-x="657" 
d="M324 -20q-102 0 -174.5 70.5t-106 185t-33.5 260.5t33.5 260.5t106 185t174.5 70.5q101 0 173 -70.5t106 -185t34 -260.5t-34 -260.5t-106 -185t-173 -70.5zM324 27q96 0 142 127.5t46 341.5q0 103 -10.5 187t-32.5 148.5t-59 100t-86 35.5q-50 0 -87.5 -35.5t-59.5 -100
t-33 -148.5t-11 -187t11 -186.5t33 -148t59.5 -99.5t87.5 -35z" />
    <glyph glyph-name="one.dnom" horiz-adv-x="344" 
d="M225 123q0 -59 16.5 -76.5t77.5 -17.5v-29h-296v29q60 0 76 17t16 77v706q0 44 -5.5 57.5t-26.5 10.5t-73 -29l-12 25l135 68l76 38l16 -16v-860z" />
    <glyph glyph-name="two.dnom" horiz-adv-x="679" 
d="M451 88q58 0 84.5 24.5t54.5 100.5l24 -10l-47 -131l-26 -72h-576v29q92 86 154.5 148t128.5 138t105 138t64 131t25 133q0 91 -42.5 147t-133.5 56q-106 0 -166 -77t-65 -206h-31q0 170 83 270.5t230 100.5q118 0 181 -69.5t63 -176.5q0 -86 -41 -178t-115 -181.5
t-146.5 -160.5t-166.5 -150v-2z" />
    <glyph glyph-name="three.dnom" horiz-adv-x="585" 
d="M-8 68q0 20 15.5 30.5t41.5 10.5q37 0 72 -39q43 -43 108 -43q79 0 137 58.5t58 166.5q0 243 -264 258v29q207 67 207 239q0 67 -38.5 112.5t-111.5 45.5q-144 0 -186 -150h-31q17 108 86.5 167t173.5 59q98 0 161.5 -59.5t63.5 -159.5q0 -158 -194 -242v-4
q115 -14 183.5 -83t68.5 -185q0 -132 -99 -215.5t-237 -83.5q-82 0 -148.5 24.5t-66.5 63.5z" />
    <glyph glyph-name="four.dnom" horiz-adv-x="651" 
d="M20 274v80l416 629h88v-629h115v-80h-115v-151q0 -59 16.5 -76.5t77.5 -17.5v-29h-296v29q61 0 77.5 17.5t16.5 76.5v151h-396zM82 354h334v520l-334 -516v-4z" />
    <glyph glyph-name="five.dnom" horiz-adv-x="575" 
d="M14 63q0 43 52 43q8 0 16 -2t12.5 -4t12 -8.5t9 -8t10 -11.5t9.5 -11q27 -34 96 -34q77 0 138 83t61 236q0 270 -180 270q-80 0 -139 -53l-43 29l96 395h371l-25 -88h-307l-68 -272l6 -4q66 51 158 51q113 0 184.5 -86t71.5 -215q0 -184 -100 -288.5t-246 -104.5
q-80 0 -137.5 23.5t-57.5 59.5z" />
    <glyph glyph-name="six.dnom" horiz-adv-x="632" 
d="M379 674q116 0 180 -92t64 -226q0 -70 -18.5 -135.5t-53.5 -120t-93 -87.5t-130 -33q-145 0 -228 120t-80 312q2 86 24 165.5t66 151t106.5 128.5t150.5 97.5t194 57.5v-27q-73 -18 -134 -50.5t-103 -72.5t-74.5 -91t-52 -100.5t-31.5 -105.5q35 48 90 78.5t123 30.5z
M328 27q85 0 127.5 80.5t42.5 228.5q0 80 -14 142.5t-52.5 106.5t-97.5 44q-99 0 -176 -105q-13 -76 -13 -135q-3 -164 45.5 -263t137.5 -99z" />
    <glyph glyph-name="seven.dnom" horiz-adv-x="643" 
d="M274 -10l-77 18l292 885v4h-344q-58 0 -82 -27.5t-45 -121.5l-26 6l35 155l16 76h563z" />
    <glyph glyph-name="eight.dnom" horiz-adv-x="587" 
d="M358 557q104 -80 158.5 -159.5t54.5 -168.5q0 -113 -77.5 -181t-200.5 -68q-127 0 -203 68.5t-76 168.5q0 86 54 155t159 150q-97 81 -141.5 142t-44.5 133q0 94 73.5 154.5t184.5 60.5q112 0 179 -58.5t67 -146.5q0 -39 -12.5 -72t-42 -65t-56 -54t-76.5 -59zM147 815
q0 -53 37.5 -102t130.5 -123q77 65 107.5 114t30.5 107q0 66 -41.5 111t-108.5 45q-69 0 -112.5 -43.5t-43.5 -108.5zM297 27q77 0 122.5 49t45.5 135q0 74 -47.5 136t-147.5 142q-166 -137 -166 -272q0 -78 52 -134t141 -56z" />
    <glyph glyph-name="nine.dnom" horiz-adv-x="632" 
d="M305 1012q145 0 227.5 -120t79.5 -312q-2 -108 -37 -205.5t-100 -178.5t-168.5 -137.5t-234.5 -78.5v28q91 22 162 65.5t116.5 101.5t73 119t43.5 132h-2q-33 -47 -88.5 -78t-122.5 -31q-117 0 -180.5 91.5t-63.5 226.5q0 70 18 135.5t53 120.5t93 88t131 33zM487 602
q3 164 -46 264.5t-138 100.5q-83 0 -125.5 -81.5t-42.5 -230.5q0 -58 8.5 -107.5t26.5 -92t51 -66.5t78 -24q105 0 176 106q12 68 12 131z" />
    <glyph glyph-name="zero.numr" horiz-adv-x="657" 
d="M324 647q-102 0 -174.5 70.5t-106 185t-33.5 260.5t33.5 260.5t106 185t174.5 70.5q101 0 173 -70.5t106 -185t34 -260.5t-34 -260.5t-106 -185t-173 -70.5zM324 694q96 0 142 127.5t46 341.5q0 103 -10.5 187t-32.5 148.5t-59 100t-86 35.5q-50 0 -87.5 -35.5
t-59.5 -100t-33 -148.5t-11 -187t11 -186.5t33 -148t59.5 -99.5t87.5 -35z" />
    <glyph glyph-name="one.numr" horiz-adv-x="344" 
d="M225 795q0 -60 17 -77.5t77 -17.5v-28h-296v28q60 0 76 17.5t16 77.5v706q0 44 -5.5 57.5t-26.5 10.5t-73 -29l-12 25l135 67l76 39l16 -16v-860z" />
    <glyph glyph-name="two.numr" horiz-adv-x="679" 
d="M451 760q58 0 84.5 24.5t54.5 100.5l24 -11l-47 -131l-26 -71h-576v28q92 86 154.5 148.5t128.5 138.5t105 138t64 131t25 133q0 91 -42.5 146.5t-133.5 55.5q-106 0 -166 -76.5t-65 -205.5h-31q0 169 83 269.5t230 100.5q118 0 181 -69t63 -176q0 -86 -41 -178
t-115 -181.5t-146.5 -160.5t-166.5 -150v-2z" />
    <glyph glyph-name="three.numr" horiz-adv-x="585" 
d="M-8 719q0 20 15.5 30.5t41.5 10.5q37 0 72 -39q43 -43 108 -43q79 0 137 58.5t58 166.5q0 243 -264 258v29q207 67 207 240q0 67 -38.5 112t-111.5 45q-144 0 -186 -149h-31q17 107 86.5 166t173.5 59q98 0 161.5 -59.5t63.5 -159.5q0 -158 -194 -242v-4
q115 -14 183.5 -83t68.5 -185q0 -132 -99 -215.5t-237 -83.5q-82 0 -148.5 24.5t-66.5 63.5z" />
    <glyph glyph-name="four.numr" horiz-adv-x="651" 
d="M20 946v80l416 629h88v-629h115v-80h-115v-151q0 -60 17 -77.5t77 -17.5v-28h-296v28q60 0 77 17.5t17 77.5v151h-396zM82 1026h334v520l-334 -516v-4z" />
    <glyph glyph-name="five.numr" horiz-adv-x="575" 
d="M14 715q0 43 52 43q8 0 16 -2t12.5 -4t12 -8.5t9 -8t10 -11.5t9.5 -11q28 -35 96 -35q77 0 138 83t61 236q0 271 -180 271q-79 0 -139 -54l-43 29l96 395h371l-25 -88h-307l-68 -272l6 -4q66 51 158 51q113 0 184.5 -86t71.5 -215q0 -184 -100 -288.5t-246 -104.5
q-80 0 -137.5 24t-57.5 60z" />
    <glyph glyph-name="six.numr" horiz-adv-x="632" 
d="M379 1325q116 0 180 -91.5t64 -225.5q0 -70 -18.5 -135.5t-53.5 -120t-93 -88t-130 -33.5q-145 0 -228 120t-80 312q2 86 24 165.5t66 151t106.5 128.5t150.5 97.5t194 57.5v-27q-319 -77 -395 -419q35 48 90 78t123 30zM328 678q85 0 127.5 80.5t42.5 228.5
q0 80 -14 142.5t-52.5 106.5t-97.5 44q-99 0 -176 -104q-13 -76 -13 -136q-3 -164 45.5 -263t137.5 -99z" />
    <glyph glyph-name="seven.numr" horiz-adv-x="643" 
d="M274 643l-77 19l292 884v4h-344q-58 0 -82 -27.5t-45 -121.5l-26 6l35 156l16 75h563z" />
    <glyph glyph-name="eight.numr" horiz-adv-x="587" 
d="M358 1208q104 -81 158.5 -159.5t54.5 -167.5q0 -113 -77.5 -181.5t-200.5 -68.5q-127 0 -203 68.5t-76 168.5q0 86 54 155.5t159 150.5q-65 54 -102 93t-60.5 85.5t-23.5 95.5q0 94 73.5 154.5t184.5 60.5q112 0 179 -58.5t67 -146.5q0 -39 -12.5 -72t-42 -65t-56 -54
t-76.5 -59zM147 1466q0 -53 37.5 -102t130.5 -123q77 65 107.5 114t30.5 107q0 66 -41.5 111t-108.5 45q-69 0 -112.5 -43t-43.5 -109zM297 678q77 0 122.5 49t45.5 135q0 74 -48 136.5t-147 142.5q-166 -137 -166 -273q0 -78 52 -134t141 -56z" />
    <glyph glyph-name="nine.numr" horiz-adv-x="632" 
d="M305 1663q145 0 227.5 -120t79.5 -312q-2 -108 -37 -205.5t-100 -178.5t-168.5 -137.5t-234.5 -78.5v28q91 22 162 65.5t116.5 101.5t73 119t43.5 132h-2q-33 -47 -88.5 -77.5t-122.5 -30.5q-117 0 -180.5 91.5t-63.5 225.5q0 70 18 135.5t53 120.5t93 88t131 33z
M487 1253q3 164 -46 264.5t-138 100.5q-83 0 -125.5 -81t-42.5 -230q0 -80 14 -142t52.5 -105.5t97.5 -43.5q105 0 176 106q12 68 12 131z" />
    <glyph glyph-name="colon.case" horiz-adv-x="419" 
d="M211 1208q-44 0 -76.5 32.5t-32.5 76.5t32 75t77 31q44 0 75 -31t31 -75q0 -45 -31 -77t-75 -32zM211 246q-44 0 -76.5 32t-32.5 76t32.5 75.5t76.5 31.5t75 -31.5t31 -75.5t-31 -76t-75 -32z" />
    <glyph glyph-name="periodcentered.case" horiz-adv-x="419" 
d="M211 727q-44 0 -76.5 32.5t-32.5 76.5t32 75t77 31q44 0 75 -31t31 -75q0 -45 -31 -77t-75 -32z" />
    <glyph glyph-name="bullet.case" horiz-adv-x="743" 
d="M371 569q-110 0 -189.5 79.5t-79.5 189.5q0 112 79 191t190 79q113 0 191.5 -79t78.5 -191q0 -111 -79 -190t-191 -79z" />
    <glyph glyph-name="parenleft.case" horiz-adv-x="747" 
d="M686 -283v-45q-270 193 -427 487t-157 660q0 377 147.5 678.5t401.5 468.5v-45q-181 -173 -272.5 -463t-91.5 -639q0 -325 103 -619t296 -483z" />
    <glyph glyph-name="parenright.case" horiz-adv-x="747" 
d="M61 -283q193 189 296.5 483.5t103.5 618.5q0 348 -92 638.5t-273 463.5v45q254 -167 401.5 -468.5t147.5 -678.5q0 -366 -157 -660t-427 -487v45z" />
    </font>
</defs>
</svg>
