<?xml version="1.0" standalone="no"?>
<!DOCTYPE svg PUBLIC "-//W3C//DTD SVG 1.1//EN" "http://www.w3.org/Graphics/SVG/1.1/DTD/svg11.dtd" >
<svg xmlns="http://www.w3.org/2000/svg" xmlns:xlink="http://www.w3.org/1999/xlink" version="1.1">
<metadata>
Created by FontForge 20170731 at Wed Oct 13 16:18:56 2021
 By Aleksey,,,
Copyright 2018 Production Systems SAS - All rights reserved - End-User License Agreement:  http://www.productiontype.com/license
</metadata>
<defs>
<font id="MediaSansExtended-Ultra" horiz-adv-x="866" >
  <font-face 
    font-family="Media Sans Extended Ultra"
    font-weight="950"
    font-stretch="expanded"
    units-per-em="2048"
    panose-1="2 0 0 0 0 0 0 0 0 0"
    ascent="1843"
    descent="-205"
    x-height="1475"
    cap-height="1669"
    bbox="-809 -231 3482 2034"
    underline-thickness="217"
    underline-position="-339"
    unicode-range="U+0020-FB02"
  />
<missing-glyph horiz-adv-x="1024" 
d="M113 0v1536h798v-1536h-798zM512 831l307 639h-614zM174 127l307 641l-307 641v-1282zM850 127v1282l-307 -641zM205 66h614l-307 639z" />
    <glyph glyph-name="fi" unicode="fi" horiz-adv-x="2281" 
d="M1487 1536v199h723v-199h-723zM20 713v475h279v14q0 227 130.5 347t367.5 120h598v-373h-265q-108 0 -108 -94v-14h373v-475h-373v-713h-723v713h-279zM1487 0v1475h723v-1475h-723z" />
    <glyph glyph-name="fl" unicode="fl" horiz-adv-x="2281" 
d="M20 713v475h279v14q0 227 130.5 347t367.5 120h598v-373h-265q-108 0 -108 -94v-14h373v-475h-373v-713h-723v713h-279zM1487 0v1669h723v-1669h-723z" />
    <glyph glyph-name=".notdef" horiz-adv-x="1024" 
d="M113 0v1536h798v-1536h-798zM512 831l307 639h-614zM174 127l307 641l-307 641v-1282zM850 127v1282l-307 -641zM205 66h614l-307 639z" />
    <glyph glyph-name=".null" horiz-adv-x="0" 
 />
    <glyph glyph-name="nonmarkingreturn" horiz-adv-x="682" 
 />
    <glyph glyph-name="space" unicode=" " horiz-adv-x="438" 
 />
    <glyph glyph-name="exclam" unicode="!" horiz-adv-x="753" 
d="M121 766l-49 903h610l-49 -903h-512zM657 0h-557v541h557v-541z" />
    <glyph glyph-name="quotedbl" unicode="&#x22;" horiz-adv-x="1198" 
d="M475 1063h-348l-76 367v239h494v-239zM1077 1063h-348l-76 367v239h494v-239z" />
    <glyph glyph-name="numbersign" unicode="#" horiz-adv-x="2070" 
d="M672 1669h430l-111 -465h293l109 465h428l-111 -465h232v-286h-300l-55 -234h252v-291h-321l-95 -393h-424l93 393h-293l-92 -393h-426l92 393h-244v291h311l56 234h-256v286h323zM868 684h293l56 234h-293z" />
    <glyph glyph-name="dollar" unicode="$" horiz-adv-x="1937" 
d="M877 1772h184v-95q407 -15 612 -151t205 -373v-16h-580v10q0 66 -53.5 97.5t-183.5 37.5v-197q319 -21 505 -81t268.5 -168.5t82.5 -284.5v-16q0 -187 -84 -302t-271.5 -174.5t-500.5 -66.5v-94h-184v92q-422 11 -630 130t-208 365v27h588v-10q0 -62 52 -89.5t198 -31.5
v199q-331 22 -518 84t-263 167.5t-76 278.5v16q0 531 857 551v95zM680 1186q0 -38 39.5 -57.5t157.5 -30.5v184q-112 -6 -154.5 -28t-42.5 -66v-2zM1257 465v4q0 28 -13.5 44.5t-57 29.5t-125.5 22v-184q111 4 153.5 23.5t42.5 60.5z" />
    <glyph glyph-name="percent" unicode="%" horiz-adv-x="2244" 
d="M41 1298v45q0 336 526 336q527 0 527 -336v-45q0 -335 -527 -335q-526 0 -526 335zM1827 1669h194l-1603 -1669h-195zM375 1317q0 -66 43.5 -92.5t148.5 -26.5t149 26.5t44 92.5v8q0 66 -44 92.5t-149 26.5t-148.5 -26.5t-43.5 -92.5v-8zM1151 330v45q0 336 526 336
q527 0 527 -336v-45q0 -336 -527 -336q-526 0 -526 336zM1485 348q0 -66 43.5 -92.5t148.5 -26.5t149 26.5t44 92.5v8q0 66 -44 92.5t-149 26.5t-148.5 -26.5t-43.5 -92.5v-8z" />
    <glyph glyph-name="ampersand" unicode="&#x26;" horiz-adv-x="2447" 
d="M1040 1679q370 0 560 -101t190 -273v-21q0 -73 -19 -129t-66.5 -110t-130 -103t-208.5 -100l231 -183q66 81 66 207v13h614v-35q0 -292 -260 -514l420 -330h-704l-129 98q-298 -108 -691 -108q-323 0 -508 46.5t-264.5 144t-79.5 265.5v29q0 153 120 273.5t331 183.5
q-124 101 -168.5 169t-44.5 161v24q0 178 189 285.5t552 107.5zM920 1247q0 -32 20 -58.5t104 -94.5q156 64 156 147v12q0 88 -141 88q-64 0 -101.5 -23t-37.5 -63v-8zM754 549q0 -48 68 -72t231 -24q30 0 80 4l-275 209q-62 -26 -83 -50t-21 -57v-10z" />
    <glyph glyph-name="quotesingle" unicode="'" horiz-adv-x="595" 
d="M475 1063h-348l-76 367v239h494v-239z" />
    <glyph glyph-name="parenleft" unicode="(" horiz-adv-x="772" 
d="M360 1669h392q-246 -416 -246 -887q0 -468 246 -884h-392q-125 207 -191.5 415t-66.5 469t66.5 471t191.5 416z" />
    <glyph glyph-name="parenright" unicode=")" horiz-adv-x="772" 
d="M412 1669q125 -207 191.5 -415.5t66.5 -469.5t-66.5 -470t-191.5 -416h-392q246 416 246 886q0 469 -246 885h392z" />
    <glyph glyph-name="asterisk" unicode="*" horiz-adv-x="978" 
d="M641 799l-152 254l-151 -254l-215 153l199 215l-291 70l84 254l264 -107l-21 285h260l-14 -293l262 115l82 -254l-291 -70l199 -215z" />
    <glyph glyph-name="plus" unicode="+" horiz-adv-x="1507" 
d="M909 84h-301v567h-551v301h551v566h301v-566h539v-301h-539v-567z" />
    <glyph glyph-name="comma" unicode="," horiz-adv-x="616" 
d="M504 -102h-479l90 157h-84v486h555v-486z" />
    <glyph glyph-name="hyphen" unicode="-" horiz-adv-x="684" 
d="M674 604h-664v389h664v-389z" />
    <glyph glyph-name="period" unicode="." horiz-adv-x="616" 
d="M586 0h-555v541h555v-541z" />
    <glyph glyph-name="slash" unicode="/" horiz-adv-x="837" 
d="M600 1669h225l-587 -1669h-226z" />
    <glyph glyph-name="zero" unicode="0" horiz-adv-x="2285" 
d="M1143 1679q1112 0 1112 -792v-105q0 -792 -1112 -792t-1112 792v105q0 792 1112 792zM1143 1073q-212 0 -298.5 -52.5t-86.5 -176.5v-19q0 -124 86.5 -176.5t298.5 -52.5t298.5 52.5t86.5 176.5v19q0 124 -86.5 176.5t-298.5 52.5z" />
    <glyph glyph-name="one" unicode="1" horiz-adv-x="1165" 
d="M1094 0h-723v926l-340 -146v658l524 231h539v-1669z" />
    <glyph glyph-name="two" unicode="2" horiz-adv-x="2297" 
d="M1444 975v4q0 63 -68.5 90t-210.5 27q-193 0 -278.5 -51.5t-85.5 -157.5v-8h-729v16q0 385 278 584.5t836 199.5q267 0 468.5 -38t325.5 -108.5t185 -165.5t61 -214v-14q0 -113 -56.5 -196.5t-191 -152t-362.5 -117.5t-565 -83h1163v-590h-2130v506q240 61 409 104
t317 83t241 67.5t169 54t115.5 45t66.5 39t34.5 37.5t7.5 39z" />
    <glyph glyph-name="three" unicode="3" horiz-adv-x="2428" 
d="M1260 -10q-618 0 -903 157.5t-285 497.5v21h729v-23q0 -84 92 -124t283 -40q256 0 351 19t95 71v4q0 39 -45.5 56.5t-159.5 17.5h-407v391h264q160 0 230.5 18.5t70.5 63.5v4q0 43 -76 63.5t-239 20.5t-255.5 -19t-129.5 -56.5t-37 -102.5v-8h-727v16q0 318 293.5 479.5
t914.5 161.5q498 0 740.5 -107t242.5 -304v-17q0 -129 -101.5 -215t-320.5 -110q477 -68 477 -416v-16q0 -504 -1097 -504z" />
    <glyph glyph-name="four" unicode="4" horiz-adv-x="2113" 
d="M1204 0v305h-1184v418l787 946h1114v-977h172v-387h-172v-305h-717zM772 692h432v582z" />
    <glyph glyph-name="five" unicode="5" horiz-adv-x="2344" 
d="M2273 580v-19q0 -142 -57.5 -245.5t-183.5 -177.5t-334.5 -111t-501.5 -37q-581 0 -852.5 142t-271.5 452v20h729v-8q0 -117 375 -117q197 0 284.5 29.5t87.5 99.5v4q0 50 -29.5 76t-108 38.5t-230.5 12.5q-377 0 -377 -88h-617v1018h1958v-487h-1341v-527q0 207 193 331
t548 124q190 0 322.5 -26.5t225.5 -88t137 -163.5t44 -252z" />
    <glyph glyph-name="six" unicode="6" horiz-adv-x="2344" 
d="M1184 -10q-552 0 -832 195t-280 601v37q0 147 45.5 276t140.5 236t233.5 183t332.5 118.5t429 42.5q239 0 430.5 -43.5t314.5 -120.5t188 -181t65 -226v-4h-709v4q0 115 -285 115q-255 0 -359.5 -104t-104.5 -337v-45q65 336 671 336q410 0 609.5 -127.5t199.5 -370.5
v-14q0 -181 -139.5 -311t-383.5 -195t-566 -65zM793 653q0 -198 383 -198q204 0 288 45.5t84 134.5v12q0 98 -84 144.5t-290 46.5q-172 0 -265 -35.5t-116 -114.5v-35z" />
    <glyph glyph-name="seven" unicode="7" horiz-adv-x="2125" 
d="M1143 0h-893q99 210 367 511.5t610 567.5h-1196v590h2064v-430q-197 -196 -369 -398t-286 -365t-185 -277.5t-112 -198.5z" />
    <glyph glyph-name="eight" unicode="8" horiz-adv-x="2310" 
d="M1155 1679q356 0 580 -46t325 -134t101 -223v-23q0 -138 -110.5 -224t-338.5 -126q280 -46 418.5 -157.5t138.5 -274.5v-27q0 -247 -265 -350.5t-849 -103.5t-849 103.5t-265 350.5v27q0 163 138.5 274.5t418.5 157.5q-227 40 -337.5 126t-110.5 224v23
q0 136 100.5 223.5t324.5 133.5t580 46zM1155 1018q193 0 270.5 23t77.5 83v9q0 58 -79 82t-269 24t-269 -24t-79 -82v-9q0 -60 77.5 -83t270.5 -23zM1155 393q153 0 235 10t117 33t35 66v8q0 63 -88 88t-299 25t-299 -25t-88 -88v-8q0 -43 35 -66t117 -33t235 -10z" />
    <glyph glyph-name="nine" unicode="9" horiz-adv-x="2344" 
d="M1161 1679q552 0 832 -195t280 -601v-37q0 -147 -45.5 -276t-140.5 -236t-233.5 -183t-332.5 -118.5t-429 -42.5q-239 0 -430.5 43.5t-314.5 120.5t-188 181t-65 226v4h709v-4q0 -115 284 -115q256 0 360.5 104t104.5 337v45q-65 -336 -671 -336q-410 0 -609.5 127.5
t-199.5 370.5v14q0 181 139.5 311t383.5 195t566 65zM797 1022q0 -98 84 -144.5t290 -46.5q172 0 265 35.5t116 114.5v35q0 198 -383 198q-204 0 -288 -45.5t-84 -134.5v-12z" />
    <glyph glyph-name="colon" unicode=":" horiz-adv-x="616" 
d="M586 604h-555v541h555v-541zM586 0h-555v541h555v-541z" />
    <glyph glyph-name="semicolon" unicode=";" horiz-adv-x="616" 
d="M586 604h-555v541h555v-541zM504 -102h-479l90 157h-84v486h555v-486z" />
    <glyph glyph-name="less" unicode="&#x3c;" horiz-adv-x="1507" 
d="M57 651v301l815 404h576l-1051 -553l1051 -555h-580z" />
    <glyph glyph-name="equal" unicode="=" horiz-adv-x="1507" 
d="M1448 1051h-1391v305h1391v-305zM1448 248h-1391v303h1391v-303z" />
    <glyph glyph-name="greater" unicode="&#x3e;" horiz-adv-x="1507" 
d="M1448 651l-811 -403h-580l1051 555l-1051 553h576l815 -404v-301z" />
    <glyph glyph-name="question" unicode="?" horiz-adv-x="2000" 
d="M51 1079q0 600 1008 600q470 0 680.5 -120t210.5 -363v-6q0 -103 -41 -178.5t-106 -117t-144 -69.5t-158 -44t-144 -31.5t-106 -41.5t-41 -65v-4h-526v10q0 90 26 159t68 109t96 69t110 42t110 24t96 18t68 22t26 38v7q0 38 -55.5 54.5t-210.5 16.5q-179 0 -254.5 -32.5
t-75.5 -110.5v-16h-637v30zM1229 0h-555v541h555v-541z" />
    <glyph glyph-name="at" unicode="@" horiz-adv-x="2183" 
d="M1313 827v347h389v-541q0 -120 18.5 -157.5t79.5 -37.5q79 0 110.5 63.5t31.5 229.5v31q0 155 -48 259.5t-154.5 168.5t-264 91.5t-390.5 27.5q-240 0 -400.5 -31t-257.5 -101t-138 -173t-41 -256v-46q0 -158 46 -264t149 -172t258 -94.5t384 -28.5q300 0 448 23t214 76
h250q-197 -252 -905 -252q-235 0 -410 27.5t-298 81.5t-198.5 140t-110 198t-34.5 261v47q0 740 1051 740q1050 0 1050 -697v-43q0 -235 -95.5 -348.5t-324.5 -113.5q-210 0 -309.5 70t-99.5 227q0 -160 -89 -244t-296 -84q-260 0 -374 113.5t-114 355.5v16q0 235 114.5 346
t373.5 111q208 0 296.5 -93.5t88.5 -273.5zM1313 707v12q0 174 -246 174q-238 0 -238 -176v-8q0 -92 57.5 -134.5t180.5 -42.5q115 0 180.5 43t65.5 132z" />
    <glyph glyph-name="A" unicode="A" horiz-adv-x="2252" 
d="M1546 0l-86 260h-669l-86 -260h-685l553 1669h1102l557 -1669h-686zM926 670h399l-199 604z" />
    <glyph glyph-name="B" unicode="B" horiz-adv-x="2144" 
d="M72 0v1669h1413q270 0 392 -95t122 -286v-16q0 -297 -455 -346q295 -14 438.5 -125.5t143.5 -290.5v-16q0 -119 -31.5 -203t-94.5 -141t-171.5 -90t-247.5 -46.5t-338 -13.5h-1171zM1130 1239h-335v-211h335q82 0 120 24t38 78v11q0 52 -38 75t-120 23zM1212 662h-417
v-211h417q82 0 120 24t38 78v10q0 52 -38 75.5t-120 23.5z" />
    <glyph glyph-name="C" unicode="C" horiz-adv-x="2306" 
d="M1536 791h729v-17q0 -385 -275.5 -584.5t-832.5 -199.5q-1116 0 -1116 792v105q0 792 1116 792q554 0 831 -199.5t277 -584.5v-16h-729v8q0 186 -385 186q-213 0 -298 -52t-85 -177v-19q0 -125 85 -177t298 -52q385 0 385 186v9z" />
    <glyph glyph-name="D" unicode="D" horiz-adv-x="2263" 
d="M72 0v1669h1022q408 0 656.5 -87t360 -262t111.5 -458v-80q0 -275 -111.5 -444.5t-360 -253.5t-656.5 -84h-1022zM1145 1079h-350v-495h350q186 0 266 47.5t80 173.5v26q0 144 -79.5 196t-266.5 52z" />
    <glyph glyph-name="E" unicode="E" horiz-adv-x="1841" 
d="M1790 524v-524h-1718v1669h1718v-524h-995v-70h903v-485h-903v-66h995z" />
    <glyph glyph-name="F" unicode="F" horiz-adv-x="1810" 
d="M1698 489h-903v-489h-723v1669h1718v-522h-995v-172h903v-486z" />
    <glyph glyph-name="G" unicode="G" horiz-adv-x="2326" 
d="M1106 -10q-555 0 -810 196t-255 633v58q0 802 1114 802q543 0 826.5 -189.5t283.5 -520.5v-6h-719v4q0 72 -104.5 117.5t-290.5 45.5q-204 0 -293.5 -68t-89.5 -243v-20q0 -155 90 -222t293 -67q142 0 240.5 17.5t162.5 66.5h-403v297h1114v-891h-356l-68 287
q-23 -49 -84 -99.5t-152 -95.5t-222.5 -73.5t-276.5 -28.5z" />
    <glyph glyph-name="H" unicode="H" horiz-adv-x="2265" 
d="M1470 0v549h-675v-549h-723v1669h723v-514h675v514h723v-1669h-723z" />
    <glyph glyph-name="I" unicode="I" 
d="M72 0v1669h723v-1669h-723z" />
    <glyph glyph-name="J" unicode="J" horiz-adv-x="1378" 
d="M20 0v625h185q193 0 286 109.5t93 334.5v600h723v-694q0 -510 -229 -742.5t-705 -232.5h-353z" />
    <glyph glyph-name="K" unicode="K" horiz-adv-x="2357" 
d="M72 0v1669h723v-622l657 622h870l-864 -799l879 -870h-910l-632 631v-631h-723z" />
    <glyph glyph-name="L" unicode="L" horiz-adv-x="1818" 
d="M72 0v1669h723v-1024h1003v-645h-1726z" />
    <glyph glyph-name="M" unicode="M" horiz-adv-x="3127" 
d="M1221 0l-426 797v-797h-723v1669h1042l461 -870l463 870h1018v-1669h-723v786l-426 -786h-686z" />
    <glyph glyph-name="N" unicode="N" horiz-adv-x="2267" 
d="M1567 0l-830 737v-737h-665v1669h628l830 -725v725h665v-1669h-628z" />
    <glyph glyph-name="O" unicode="O" horiz-adv-x="2301" 
d="M2261 782q0 -386 -271 -589t-833 -203q-1116 0 -1116 792v105q0 792 1116 792q562 0 833 -203t271 -589v-105zM1534 844q0 125 -85 177t-298 52t-298 -52t-85 -177v-19q0 -125 85 -177t298 -52t298 52t85 177v19z" />
    <glyph glyph-name="P" unicode="P" horiz-adv-x="2154" 
d="M1153 322h-358v-322h-723v1669h1118q342 0 551.5 -74.5t301 -218t91.5 -370.5v-52q0 -161 -52.5 -276.5t-168.5 -196.5t-304.5 -120t-455.5 -39zM1208 1104h-413v-297h413q103 0 151 34t48 111v9q0 79 -47 111t-152 32z" />
    <glyph glyph-name="Q" unicode="Q" horiz-adv-x="2310" 
d="M1409 -102v120q-121 -28 -252 -28q-1116 0 -1116 792v105q0 792 1116 792q562 0 833 -203t271 -589v-45q0 -131 -39.5 -231.5t-118.5 -184.5h162v-528h-856zM1534 844q0 125 -85 177t-298 52t-298 -52t-85 -177v-19q0 -125 85 -177t298 -52t298 52t85 177v19z" />
    <glyph glyph-name="R" unicode="R" horiz-adv-x="2146" 
d="M1354 0l-197 410h-45h-317v-410h-723v1669h1077q342 0 551.5 -69.5t301 -204t91.5 -348.5v-43q0 -323 -254 -463l287 -541h-772zM1167 1157h-372v-268h372q102 0 150.5 31.5t48.5 101.5v8q0 71 -47 99t-152 28z" />
    <glyph glyph-name="S" unicode="S" horiz-adv-x="2265" 
d="M643 526q0 -20 17 -34t59.5 -25.5t122.5 -17t198 -5.5t201 3.5t129 9t71 14.5t31.5 17t6.5 20v4q0 17 -12.5 25.5t-59.5 16t-142.5 10.5t-258.5 3q-370 0 -586.5 56.5t-308 170t-91.5 302.5v16q0 286 265.5 426.5t836.5 140.5q537 0 809.5 -145.5t272.5 -411.5v-16h-602
v2q0 111 -439 111q-111 0 -189 -4t-119 -9.5t-62.5 -15.5t-26 -18t-4.5 -21v-2q0 -19 31.5 -29t138 -16t313.5 -6q521 0 760.5 -129t239.5 -400v-16q0 -143 -60 -246t-192.5 -175t-348 -107t-522.5 -35q-545 0 -813 123t-268 389v26h602v-2z" />
    <glyph glyph-name="T" unicode="T" horiz-adv-x="1921" 
d="M1890 1067h-567v-1067h-723v1067h-569v602h1859v-602z" />
    <glyph glyph-name="U" unicode="U" horiz-adv-x="2265" 
d="M1470 1669h723v-573q0 -213 -23 -372.5t-75.5 -285t-132.5 -209t-200.5 -138t-273 -78t-355.5 -23.5t-355.5 23.5t-273 78t-201 138t-133 208.5t-75.5 285t-23 373v573h723v-543q0 -203 36.5 -318t107.5 -159.5t194 -44.5q92 0 153 24t103.5 83.5t61.5 160t19 254.5v543z
" />
    <glyph glyph-name="V" unicode="V" horiz-adv-x="2164" 
d="M723 1669l373 -964l370 964h688l-651 -1669h-844l-649 1669h713z" />
    <glyph glyph-name="W" unicode="W" horiz-adv-x="3315" 
d="M451 0l-435 1669h764l191 -825l291 825h868l268 -751l168 751h733l-440 -1669h-858l-340 985l-352 -985h-858z" />
    <glyph glyph-name="X" unicode="X" horiz-adv-x="2344" 
d="M1487 0l-313 481l-316 -481h-858l645 834l-633 835h858l304 -469l301 469h858l-631 -835l643 -834h-858z" />
    <glyph glyph-name="Y" unicode="Y" horiz-adv-x="2185" 
d="M727 623l-727 1046h793l297 -465l299 465h796l-735 -1051v-618h-723v623z" />
    <glyph glyph-name="Z" unicode="Z" horiz-adv-x="2113" 
d="M45 0v510l924 635h-887v524h1966v-510l-864 -631h884v-528h-2023z" />
    <glyph glyph-name="bracketleft" unicode="[" horiz-adv-x="772" 
d="M123 -102v1771h618v-184h-217v-1403h217v-184h-618z" />
    <glyph glyph-name="backslash" unicode="\" horiz-adv-x="837" 
d="M238 1669l587 -1669h-225l-588 1669h226z" />
    <glyph glyph-name="bracketright" unicode="]" horiz-adv-x="772" 
d="M31 -102v184h217v1403h-217v184h618v-1771h-618z" />
    <glyph glyph-name="asciicircum" unicode="^" horiz-adv-x="1507" 
d="M602 1669h301l404 -815v-575l-553 1050l-555 -1050v579z" />
    <glyph glyph-name="underscore" unicode="_" horiz-adv-x="1273" 
d="M1253 -231h-1233v217h1233v-217z" />
    <glyph glyph-name="grave" unicode="`" horiz-adv-x="512" 
d="M137 1542l-155 127h458l82 -127h-385z" />
    <glyph glyph-name="a" unicode="a" horiz-adv-x="2134" 
d="M838 895v-14h-738v20q0 584 975 584q516 0 751.5 -139.5t235.5 -454.5v-891h-723v422q0 -432 -604 -432q-352 0 -528 93t-176 292v24q0 86 35.5 154t93.5 112t146.5 77.5t179 51.5t208 32.5t216.5 22t221.5 19t207.5 23.5v16q0 82 -256 82q-138 0 -191.5 -22.5
t-53.5 -71.5zM752 397q0 -43 47.5 -62.5t161.5 -19.5q85 0 147.5 7.5t118 26.5t84 57t28.5 94v49h-1h-1h-1h-1h-1h-1l-1 -1h-1h-1h-1h-1h-1h-1h-1h-1h-1h-1h-1h-1h-1l-2 -1q-331 -24 -428 -44q-132 -33 -137 -91v-15z" />
    <glyph glyph-name="b" unicode="b" horiz-adv-x="2213" 
d="M795 1669v-829q0 154 33 270t104.5 201.5t191.5 129.5t287 44q200 0 342 -46.5t230 -141t128.5 -229.5t40.5 -320v-21q0 -185 -40.5 -320t-128.5 -229.5t-230 -141t-342 -46.5q-167 0 -287 44t-191.5 129.5t-104.5 201.5t-33 270v-635h-723v1669h723zM795 748v-21
q0 -105 76 -152t237 -47q164 0 241.5 47t77.5 152v21q0 105 -77 151.5t-242 46.5q-162 0 -237.5 -46.5t-75.5 -151.5z" />
    <glyph glyph-name="c" unicode="c" horiz-adv-x="2189" 
d="M1411 694h727v-30q0 -337 -257.5 -505.5t-784.5 -168.5q-1045 0 -1045 741v12q0 742 1045 742q527 0 784.5 -168.5t257.5 -505.5v-31h-727v2q0 138 -307 138q-171 0 -248.5 -38.5t-77.5 -136.5v-16q0 -98 77.5 -136t248.5 -38q307 0 307 137v2z" />
    <glyph glyph-name="d" unicode="d" horiz-adv-x="2213" 
d="M1419 840v829h723v-1669h-723v635q0 -154 -33 -270t-104.5 -201.5t-191.5 -129.5t-287 -44q-200 0 -342.5 46.5t-230.5 141t-128.5 229.5t-40.5 320v21q0 185 40.5 320t128.5 229.5t230.5 141t342.5 46.5q167 0 287 -44t191.5 -129.5t104.5 -201.5t33 -270zM1419 748
q0 105 -75.5 151.5t-237.5 46.5q-165 0 -242.5 -47t-77.5 -151v-21q0 -105 77.5 -152t242.5 -47q161 0 237 47t76 152v21z" />
    <glyph glyph-name="e" unicode="e" horiz-adv-x="2191" 
d="M2140 655h-1360q17 -206 332 -206q287 0 287 116v2h741v-12q0 -123 -67 -225.5t-195.5 -178.5t-328.5 -118.5t-453 -42.5q-1045 0 -1045 727v22q0 746 1053 746q503 0 769.5 -191.5t266.5 -545.5v-93zM1100 1059q-289 0 -318 -182h633v14q0 74 -77 121t-238 47z" />
    <glyph glyph-name="f" unicode="f" horiz-adv-x="1415" 
d="M20 713v475h279v14q0 227 130.5 347t367.5 120h598v-373h-265q-108 0 -108 -94v-14h373v-475h-373v-713h-723v713h-279z" />
    <glyph glyph-name="g" unicode="g" horiz-adv-x="2215" 
d="M1419 1475h725v-1035q0 -292 -257 -422.5t-808 -130.5q-455 0 -700.5 92.5t-245.5 282.5v17h668v-5q0 -66 65.5 -91t220.5 -25q178 0 255 44t77 140v492q0 -119 -33.5 -209t-105.5 -156.5t-192 -100.5t-287 -34q-265 0 -430.5 65.5t-238.5 189t-73 314.5v12
q0 143 40.5 247t128.5 177.5t230.5 109.5t342.5 36q167 0 287 -34t192 -100.5t105.5 -156.5t33.5 -209v490zM1419 915q0 81 -76.5 117.5t-238.5 36.5q-165 0 -242.5 -36.5t-77.5 -117.5v-12q0 -81 77.5 -117t242.5 -36q162 0 238.5 36t76.5 117v12z" />
    <glyph glyph-name="h" unicode="h" horiz-adv-x="2177" 
d="M795 1669v-1042q0 234 34 394.5t110 265t195 151.5t293 47q185 0 311 -39t209.5 -128.5t120.5 -232t37 -352.5v-733h-723v567q0 153 -67.5 218t-231.5 65q-148 0 -218 -68.5t-70 -232.5v-549h-723v1669h723z" />
    <glyph glyph-name="i" unicode="i" 
d="M72 1536v199h723v-199h-723zM72 0v1475h723v-1475h-723z" />
    <glyph glyph-name="j" unicode="j" horiz-adv-x="954" 
d="M160 1536v199h723v-199h-723zM883 434q0 -264 -143.5 -400t-407.5 -136h-301v579h24q105 0 105 109v889h723v-1041z" />
    <glyph glyph-name="k" unicode="k" horiz-adv-x="2234" 
d="M72 0v1669h723v-913l526 719h905l-620 -742l628 -733h-913l-526 700v-700h-723z" />
    <glyph glyph-name="l" unicode="l" 
d="M72 0v1669h723v-1669h-723z" />
    <glyph glyph-name="m" unicode="m" horiz-adv-x="3487" 
d="M795 1475v-848q0 234 34 394.5t110 265t195 151.5t293 47q185 0 311 -39t209.5 -128.5t120.5 -232t37 -352.5v-106q0 463 144.5 660.5t486.5 197.5q248 0 394.5 -72.5t216 -236t69.5 -443.5v-733h-723v567q0 153 -67.5 218t-231.5 65q-68 0 -116 -12t-89.5 -43.5
t-62.5 -92.5t-21 -153v-549h-723v567q0 153 -67.5 218t-231.5 65q-54 0 -94.5 -7t-78.5 -26.5t-62 -52.5t-38.5 -87t-14.5 -128v-549h-723v1475h723z" />
    <glyph glyph-name="n" unicode="n" horiz-adv-x="2177" 
d="M795 1475v-848q0 234 34 394.5t110 265t195 151.5t293 47q185 0 311 -39t209.5 -128.5t120.5 -232t37 -352.5v-733h-723v567q0 153 -67.5 218t-231.5 65q-148 0 -218 -68.5t-70 -232.5v-549h-723v1475h723z" />
    <glyph glyph-name="o" unicode="o" horiz-adv-x="2170" 
d="M1085 1485q521 0 778 -190.5t257 -549.5v-16q0 -359 -257 -549t-778 -190t-777.5 190t-256.5 549v16q0 359 256.5 549.5t777.5 190.5zM1085 555q163 0 235.5 40t72.5 138v8q0 98 -72.5 138.5t-235.5 40.5t-235 -40.5t-72 -138.5v-8q0 -98 72 -138t235 -40z" />
    <glyph glyph-name="p" unicode="p" horiz-adv-x="2213" 
d="M793 1475v-605q0 146 33.5 256.5t105.5 192.5t192 124t287 42q200 0 342 -44.5t230 -134.5t128.5 -219t40.5 -305v-16q0 -176 -40.5 -305t-128.5 -219t-230 -134.5t-342 -44.5q-167 0 -287 42t-192 124t-105.5 192.5t-33.5 256.5v-780h-721v1577h721zM793 782v-16
q0 -100 76.5 -144t238.5 -44q165 0 242 44t77 144v16q0 100 -77 144.5t-242 44.5q-162 0 -238.5 -44.5t-76.5 -144.5z" />
    <glyph glyph-name="q" unicode="q" horiz-adv-x="2215" 
d="M1423 1376q205 -4 384.5 24.5t293.5 78.5h43v-1581h-721v780q0 -146 -33.5 -256.5t-105.5 -192.5t-192 -124t-287 -42q-200 0 -342.5 44.5t-230.5 134.5t-128.5 219t-40.5 305v16q0 176 40.5 305t128.5 219t230.5 134.5t342.5 44.5q167 0 287 -42t192 -124t105.5 -192.5
t33.5 -256.5v506zM1423 782q0 100 -76.5 144.5t-238.5 44.5q-165 0 -242.5 -44.5t-77.5 -144.5v-16q0 -100 77.5 -144t242.5 -44q162 0 238.5 44t76.5 144v16z" />
    <glyph glyph-name="r" unicode="r" horiz-adv-x="1574" 
d="M795 565q0 336 62.5 536t197.5 292t362 92q80 0 127 -12v-660q-112 21 -219 23t-203 -18.5t-169 -62t-115.5 -112t-42.5 -162.5v-481h-723v1475h723v-910z" />
    <glyph glyph-name="s" unicode="s" horiz-adv-x="2037" 
d="M1997 469q0 -93 -30.5 -165.5t-101.5 -132.5t-183 -99.5t-278.5 -60.5t-385.5 -21q-199 0 -350.5 16t-271.5 52t-197 93.5t-117 141t-41 194.5v13h682v-17q0 -104 307 -104q110 0 173 8t85.5 22t22.5 37v5q0 24 -19 37.5t-90 22.5t-205 9q-179 0 -311 8t-243 27.5
t-183.5 52t-123 82t-73 116t-22.5 155.5v20q0 504 977 504q496 0 737.5 -124t241.5 -384v-12h-686v24q0 96 -305 96q-287 0 -287 -67v-6q0 -24 19.5 -37t93.5 -22t217 -9q196 0 339 -10t250.5 -34t175 -58.5t109.5 -88.5t58 -119t16 -155v-10z" />
    <glyph glyph-name="t" unicode="t" horiz-adv-x="1296" 
d="M20 897v578h207v167h725v-167h324v-578h-324v-897h-725v897h-207z" />
    <glyph glyph-name="u" unicode="u" horiz-adv-x="2177" 
d="M1382 0v848q0 -234 -34 -394.5t-110 -265t-195 -151.5t-293 -47q-247 0 -393 72t-215.5 235.5t-69.5 443.5v734h723v-568q0 -153 67 -217.5t232 -64.5q54 0 94.5 7t78.5 26.5t62 52.5t38.5 87t14.5 128v549h723v-1475h-723z" />
    <glyph glyph-name="v" unicode="v" horiz-adv-x="2078" 
d="M1305 1475h763l-462 -1475h-1133l-463 1475h764l266 -1047z" />
    <glyph glyph-name="w" unicode="w" horiz-adv-x="2887" 
d="M403 0l-387 1475h725l154 -637l178 637h742l178 -633l145 633h733l-389 -1475h-878l-156 690l-166 -690h-879z" />
    <glyph glyph-name="x" unicode="x" horiz-adv-x="2187" 
d="M1325 0l-233 483l-232 -483h-850l451 737l-441 738h848l224 -474l223 474h852l-443 -738l453 -737h-852z" />
    <glyph glyph-name="y" unicode="y" horiz-adv-x="2158" 
d="M1659 463q-49 -99 -89.5 -168.5t-92 -131t-99.5 -100t-121 -70.5t-146.5 -48.5t-185.5 -28t-229.5 -15t-287.5 -3.5v536h378q57 0 87.5 14.5t58.5 53.5l10 14h-383l-559 959h815l293 -607l285 607h766z" />
    <glyph glyph-name="z" unicode="z" horiz-adv-x="1896" 
d="M51 0v451l807 503h-756v521h1743v-451l-725 -504h725v-520h-1794z" />
    <glyph glyph-name="braceleft" unicode="{" horiz-adv-x="772" 
d="M61 692v185q62 4 82.5 24.5t20.5 73.5v522q0 102 38 137t156 35h375v-184h-102q-36 0 -50 -21.5t-14 -77.5v-438q0 -43 -33 -91t-98 -73q65 -25 98 -72.5t33 -90.5v-441q0 -56 14 -77t50 -21h102v-184h-375q-118 0 -156 35t-38 137v524q0 53 -20.5 73.5t-82.5 24.5z" />
    <glyph glyph-name="bar" unicode="|" horiz-adv-x="380" 
d="M82 1772h217v-1874h-217v1874z" />
    <glyph glyph-name="braceright" unicode="}" horiz-adv-x="772" 
d="M711 690q-62 -4 -82.5 -24.5t-20.5 -73.5v-522q0 -102 -38 -137t-156 -35h-375v184h102q36 0 50 21t14 77v438q0 43 33 91t98 73q-65 25 -98 73t-33 91v440q0 56 -14 77.5t-50 21.5h-102v184h375q118 0 156 -35t38 -137v-524q0 -53 20.5 -74t82.5 -25v-184z" />
    <glyph glyph-name="asciitilde" unicode="~" horiz-adv-x="1507" 
d="M1044 629q-94 0 -174.5 14.5t-127 31.5t-109.5 31.5t-125 14.5q-66 0 -89.5 -24t-23.5 -79h-338q0 103 31 174.5t89 109.5t127.5 54.5t160.5 16.5q93 0 173.5 -14.5t128.5 -31.5t113.5 -31.5t131.5 -14.5q60 0 81 23.5t21 78.5h338q0 -83 -21 -145.5t-57 -101.5
t-89 -63.5t-111 -34t-130 -9.5z" />
    <glyph glyph-name="nbspace" unicode="&#xa0;" horiz-adv-x="438" 
 />
    <glyph glyph-name="exclamdown" unicode="&#xa1;" horiz-adv-x="753" 
d="M657 1475v-480h-557v480h557zM121 770h512l49 -872h-610z" />
    <glyph glyph-name="cent" unicode="&#xa2;" horiz-adv-x="2000" 
d="M1288 713h662v-15q0 -307 -203 -454.5t-651 -159.5v-84h-185v84q-434 15 -647 181t-213 466v19q0 612 860 641v84h185v-84q433 -13 643.5 -158.5t210.5 -423.5v-27h-662v2q0 94 -192 115v-303q192 17 192 115v2zM713 739q0 -71 47.5 -104t150.5 -41v307q-104 -9 -151 -43
t-47 -106v-13z" />
    <glyph glyph-name="sterling" unicode="&#xa3;" horiz-adv-x="2314" 
d="M936 967v-39h522v-160h-522v-178h1333v-590h-2070v768h-183v160h183v28q0 353 265.5 538t780.5 185q318 0 551.5 -74.5t360.5 -219t127 -345.5v-59h-742v16q0 62 -71 91.5t-224 29.5q-162 0 -236.5 -41t-74.5 -110z" />
    <glyph glyph-name="currency" unicode="&#xa4;" horiz-adv-x="1507" 
d="M754 291q-145 0 -252 55l-230 -231l-217 217l230 229q-54 111 -54 252t54 252l-230 229l217 217l230 -231q107 55 252 55t252 -55l229 231l217 -217l-229 -229q53 -109 53 -252t-53 -252l229 -229l-217 -217l-229 231q-107 -55 -252 -55zM754 547q126 0 196 70t70 196
t-70 196t-196 70t-196.5 -70t-70.5 -196t70.5 -196t196.5 -70z" />
    <glyph glyph-name="yen" unicode="&#xa5;" horiz-adv-x="2111" 
d="M1784 604h-369v-604h-723v604h-368v160h368v166h-368v160h335l-659 579h791l294 -283l295 283h731l-663 -579h336v-160h-369v-166h369v-160z" />
    <glyph glyph-name="brokenbar" unicode="&#xa6;" horiz-adv-x="380" 
d="M82 1772h217v-850h-217v850zM82 748h217v-850h-217v850z" />
    <glyph glyph-name="section" unicode="&#xa7;" horiz-adv-x="1730" 
d="M1692 313q0 -103 -42 -178t-137 -131.5t-257.5 -84.5t-393.5 -28q-424 0 -625 100t-202 337v12h577v-14q0 -93 260 -93q93 0 147 7.5t72.5 20t18.5 32.5v4q0 21 -15.5 33t-75.5 20t-173 8q-184 0 -310.5 9t-227 31.5t-158 62t-86.5 98.5t-29 143v19q0 161 104 237
q-104 85 -104 261v18q0 442 827 442q422 0 626 -108.5t204 -337.5v-10h-582v22q0 84 -258 84q-242 0 -242 -59v-6q0 -21 16 -32.5t79 -19.5t184 -8q199 0 335.5 -11.5t229.5 -35.5t144.5 -66.5t72.5 -98t21 -136.5v-6q0 -175 -105 -248q105 -85 105 -283v-6zM889 729
q83 0 209 -4q12 10 12 43v4q0 22 -15.5 34t-75 20t-173.5 8q-85 0 -211 4q-25 -12 -25 -43v-7q0 -21 16 -32.5t79 -19t184 -7.5z" />
    <glyph glyph-name="dieresis" unicode="&#xa8;" horiz-adv-x="512" 
d="M-129 1522v170h340v-170h-340zM641 1522h-340v170h340v-170z" />
    <glyph glyph-name="copyright" unicode="&#xa9;" horiz-adv-x="2048" 
d="M2007 844v-19q0 -409 -255.5 -622t-727.5 -213t-727.5 213t-255.5 622v19q0 409 255.5 622t727.5 213t727.5 -213t255.5 -622zM1821 825v19q0 337 -191 492t-606 155t-605 -155t-190 -492v-19q0 -337 190 -492t605 -155t606 155t191 492zM1229 807v4h450v-18
q0 -250 -159.5 -377t-501.5 -127q-317 0 -480 130t-163 412v21q0 283 163 414t480 131q342 0 501.5 -126t159.5 -376v-21h-450v5q0 106 -205 106q-119 0 -170 -32t-51 -105v-10q0 -74 51.5 -106t169.5 -32q205 0 205 107z" />
    <glyph glyph-name="ordfeminine" unicode="&#xaa;" horiz-adv-x="1032" 
d="M653 1397v8q0 37 -118 37q-68 0 -93.5 -10.5t-25.5 -36.5v-4h-353v10q0 278 453 278q253 0 369 -66.5t116 -217.5v-424h-348v200q0 -208 -286 -208q-169 0 -253.5 45t-84.5 141v16q0 42 20 74.5t59 54t83 36t107.5 24.5t115 16t123.5 13.5t116 13.5zM473 1120
q86 0 133 18.5t47 69.5v25q-191 -18 -233 -30q-46 -14 -47 -38v-8q0 -20 22.5 -28.5t77.5 -8.5zM954 762h-874v139h874v-139z" />
    <glyph glyph-name="guillemotleft" unicode="&#xab;" horiz-adv-x="1017" 
d="M20 799l173 518h362l-176 -518l176 -518h-362zM463 799l172 518h362l-176 -518l176 -518h-362z" />
    <glyph glyph-name="logicalnot" unicode="&#xac;" horiz-adv-x="1507" 
d="M1448 84h-301v567h-1090v301h1391v-868z" />
    <glyph glyph-name="registered" unicode="&#xae;" horiz-adv-x="1114" 
d="M557 705q-249 0 -390.5 123.5t-141.5 357.5v12q0 234 141.5 357.5t390.5 123.5t391 -123.5t142 -357.5v-12q0 -234 -142 -357.5t-391 -123.5zM557 1546q-199 0 -289 -89.5t-90 -258.5v-12q0 -169 90 -258.5t289 -89.5q201 0 290 89.5t89 258.5v12q0 169 -89 258.5
t-290 89.5zM637 930l-82 186h-57v-186h-158v524h252q117 0 171 -38.5t54 -123.5v-14q0 -116 -108 -150l96 -198h-168zM584 1323h-86v-80h86q44 0 61 8t17 31v2q0 25 -16 32t-62 7z" />
    <glyph glyph-name="macron" unicode="&#xaf;" horiz-adv-x="512" 
d="M-94 1538v137h700v-137h-700z" />
    <glyph glyph-name="degree" unicode="&#xb0;" horiz-adv-x="954" 
d="M483 788q-205 0 -328.5 122.5t-123.5 316.5q0 205 123 328.5t329 123.5q202 0 321.5 -123.5t119.5 -328.5q0 -194 -120.5 -316.5t-320.5 -122.5zM483 1495q-129 0 -198.5 -69.5t-69.5 -198.5q0 -118 70 -186t198 -68q119 0 187.5 68.5t68.5 185.5q0 128 -67.5 198
t-188.5 70z" />
    <glyph glyph-name="plusminus" unicode="&#xb1;" horiz-adv-x="1507" 
d="M1448 82h-1391v301h551v399h-551v301h551v435h301v-435h539v-301h-539v-399h539v-301z" />
    <glyph glyph-name="twosuperior" unicode="&#xb2;" horiz-adv-x="987" 
d="M616 1376v2q0 56 -124 56q-83 0 -113.5 -20t-30.5 -68v-5h-307v9q0 329 494 329q204 0 307.5 -57t103.5 -156v-2q0 -49 -16.5 -79t-70.5 -58.5t-151 -51t-262 -48.5h494v-258h-893v223q219 54 322 80.5t165.5 47.5t72 30t9.5 26z" />
    <glyph glyph-name="threesuperior" unicode="&#xb3;" horiz-adv-x="1042" 
d="M551 963q-262 0 -386 68t-124 210v10h307v-10q0 -36 41 -53t135 -17q90 0 129 9t39 30v2q0 16 -18.5 23.5t-67.5 7.5h-172v166h113q68 0 96.5 7t28.5 26v2q0 37 -142 37q-168 0 -168 -76v-2h-305v6q0 270 490 270q430 0 430 -178v-8q0 -51 -36.5 -86.5t-109.5 -48.5
q170 -22 170 -160v-8q0 -227 -450 -227z" />
    <glyph glyph-name="acute" unicode="&#xb4;" horiz-adv-x="512" 
d="M375 1542h-385l82 127h458z" />
    <glyph glyph-name="mu" unicode="&#xb5;" horiz-adv-x="2177" 
d="M72 -102v1577h723v-568q0 -153 67 -217.5t232 -64.5q54 0 94.5 7t78.5 26.5t62 52.5t38.5 87t14.5 128v549h723v-1475h-723v848q0 -435 -120.5 -646.5t-366.5 -211.5q-48 0 -100 10v-102h-723z" />
    <glyph glyph-name="paragraph" unicode="&#xb6;" horiz-adv-x="1705" 
d="M1286 1669h328v-1771h-328v1771zM750 688h-7q-193 0 -322.5 25.5t-205.5 82t-107.5 136t-31.5 196.5v41q0 109 20 188t65.5 140.5t123 98t190 55t268.5 18.5h334v-1771h-327v790z" />
    <glyph glyph-name="periodcentered" unicode="&#xb7;" horiz-adv-x="616" 
d="M586 528h-555v541h555v-541z" />
    <glyph glyph-name="cedilla" unicode="&#xb8;" horiz-adv-x="512" 
d="M266 -205q-211 0 -293 17t-82 61v2h322v-2q0 -14 23 -14q24 0 24 24q0 27 -24 27q-17 0 -23 -14h-301l299 104h221l-162 -61q78 18 152 18q109 0 155 -18t46 -62q0 -34 -30.5 -51t-104.5 -24t-222 -7z" />
    <glyph glyph-name="onesuperior" unicode="&#xb9;" horiz-adv-x="559" 
d="M518 969h-323v374l-164 -75v288l237 113h250v-700z" />
    <glyph glyph-name="ordmasculine" unicode="&#xba;" horiz-adv-x="1024" 
d="M512 1679q249 0 370.5 -91t121.5 -263v-8q0 -172 -121.5 -263t-370.5 -91t-370.5 91t-121.5 263v8q0 172 121.5 263t370.5 91zM512 1233q78 0 110.5 18t32.5 66v8q0 48 -32.5 66t-110.5 18t-110.5 -18t-32.5 -66v-8q0 -48 32.5 -66t110.5 -18zM950 762h-874v139h874v-139
z" />
    <glyph glyph-name="guillemotright" unicode="&#xbb;" horiz-adv-x="1017" 
d="M555 799l-172 -518h-363l175 518l-175 518h363zM997 799l-172 -518h-362l174 518l-174 518h362z" />
    <glyph glyph-name="onequarter" unicode="&#xbc;" horiz-adv-x="1859" 
d="M676 969h-324v374l-164 -75v288l238 113h250v-700zM1634 1669h195l-1604 -1669h-194zM897 131v174l332 395h487v-387h47v-182h-47v-131h-317v131h-502zM1212 313h187v254z" />
    <glyph glyph-name="onehalf" unicode="&#xbd;" horiz-adv-x="1966" 
d="M676 969h-324v374l-164 -75v288l238 113h250v-700zM1634 1669h195l-1604 -1669h-194zM1595 408v2q0 55 -125 55q-83 0 -113 -19.5t-30 -68.5v-4h-307v8q0 330 493 330q204 0 308 -57t104 -156v-2q0 -65 -34 -102t-141 -69.5t-325 -66.5h494v-258h-893v223
q216 53 321.5 80.5t166.5 48t71 30t10 26.5z" />
    <glyph glyph-name="threequarters" unicode="&#xbe;" horiz-adv-x="2000" 
d="M551 963q-262 0 -386 68t-124 210v10h307v-10q0 -36 41 -53t135 -17q90 0 129 9t39 30v2q0 16 -18.5 23.5t-67.5 7.5h-172v166h113q68 0 96.5 7t28.5 26v2q0 37 -142 37q-168 0 -168 -76v-2h-305v6q0 270 490 270q430 0 430 -178v-8q0 -51 -36.5 -86.5t-109.5 -48.5
q170 -22 170 -160v-8q0 -227 -450 -227zM1776 1669h194l-1603 -1669h-195zM1038 131v174l332 395h488v-387h47v-182h-47v-131h-318v131h-502zM1354 313h186v254z" />
    <glyph glyph-name="questiondown" unicode="&#xbf;" horiz-adv-x="2000" 
d="M772 1475h555v-480h-555v480zM1950 471q0 -584 -1008 -584q-317 0 -515.5 54t-287 156.5t-88.5 260.5v7q0 100 41 173.5t106 114t144 67.5t158 42t144 30t106 40t41 63v4h526v-10q0 -87 -26 -154t-68 -106t-96 -67.5t-110 -40.5t-110 -23t-96 -18t-68 -21.5t-26 -36.5v-8
q0 -23 20.5 -37.5t80.5 -23.5t165 -9q179 0 254.5 32.5t75.5 108.5v17h637v-31z" />
    <glyph glyph-name="Agrave" unicode="&#xc0;" horiz-adv-x="2252" 
d="M932 1737l-156 127h459l82 -127h-385zM1546 0l-86 260h-669l-86 -260h-685l553 1669h1102l557 -1669h-686zM926 670h399l-199 604z" />
    <glyph glyph-name="Aacute" unicode="&#xc1;" horiz-adv-x="2252" 
d="M1323 1737h-385l82 127h459zM1546 0l-86 260h-669l-86 -260h-685l553 1669h1102l557 -1669h-686zM926 670h399l-199 604z" />
    <glyph glyph-name="Acircumflex" unicode="&#xc2;" horiz-adv-x="2252" 
d="M1206 1737l-80 47l-79 -47h-291l121 127h499l121 -127h-291zM1546 0l-86 260h-669l-86 -260h-685l553 1669h1102l557 -1669h-686zM926 670h399l-199 604z" />
    <glyph glyph-name="Atilde" unicode="&#xc3;" horiz-adv-x="2252" 
d="M1483 1864q0 -73 -42.5 -102t-127.5 -29q-69 0 -144.5 20.5t-101.5 20.5q-24 0 -33.5 -9t-9.5 -28h-258q0 72 43 101.5t135 29.5q73 0 149 -18.5t91 -18.5q24 0 31.5 7t7.5 26h260zM1546 0l-86 260h-669l-86 -260h-685l553 1669h1102l557 -1669h-686zM926 670h399
l-199 604z" />
    <glyph glyph-name="Adieresis" unicode="&#xc4;" horiz-adv-x="2252" 
d="M741 1716v170h340v-170h-340zM1511 1716h-340v170h340v-170zM1546 0l-86 260h-669l-86 -260h-685l553 1669h1102l557 -1669h-686zM926 670h399l-199 604z" />
    <glyph glyph-name="Aring" unicode="&#xc5;" horiz-adv-x="2252" 
d="M1546 0l-86 260h-669l-86 -260h-685l553 1669h351q-50 27 -50 80q0 119 252 119t252 -119q0 -53 -49 -80h346l557 -1669h-686zM1126 1679q84 0 84 66q0 41 -20.5 58.5t-63.5 17.5t-63.5 -17.5t-20.5 -58.5q0 -66 84 -66zM926 670h399l-199 604z" />
    <glyph glyph-name="AE" unicode="&#xc6;" horiz-adv-x="3194" 
d="M0 0l993 1669h2151v-524h-996v-70h904v-485h-904v-66h996v-524h-1719v461h-471l-262 -461h-692zM1184 866h241v424z" />
    <glyph glyph-name="Ccedilla" unicode="&#xc7;" horiz-adv-x="2306" 
d="M1174 -205q-211 0 -293 17t-82 61v2h321v-2q0 -14 23 -14q24 0 24 24q0 27 -24 27q-17 0 -23 -14h-301l273 94q-1051 23 -1051 792v105q0 792 1116 792q554 0 831 -199.5t277 -584.5v-16h-729v8q0 186 -385 186q-213 0 -298 -52t-85 -177v-19q0 -125 85 -177t298 -52
q385 0 385 186v9h729v-17q0 -355 -234 -552.5t-706 -227.5l-147 -55q78 18 151 18q109 0 155 -18t46 -62q0 -34 -30 -51t-104 -24t-222 -7z" />
    <glyph glyph-name="Egrave" unicode="&#xc8;" horiz-adv-x="1841" 
d="M737 1737l-155 127h458l82 -127h-385zM1790 524v-524h-1718v1669h1718v-524h-995v-70h903v-485h-903v-66h995z" />
    <glyph glyph-name="Eacute" unicode="&#xc9;" horiz-adv-x="1841" 
d="M1128 1737h-385l82 127h459zM1790 524v-524h-1718v1669h1718v-524h-995v-70h903v-485h-903v-66h995z" />
    <glyph glyph-name="Ecircumflex" unicode="&#xca;" horiz-adv-x="1841" 
d="M1012 1737l-80 47l-80 -47h-291l121 127h500l121 -127h-291zM1790 524v-524h-1718v1669h1718v-524h-995v-70h903v-485h-903v-66h995z" />
    <glyph glyph-name="Edieresis" unicode="&#xcb;" horiz-adv-x="1841" 
d="M547 1716v170h340v-170h-340zM1317 1716h-340v170h340v-170zM1790 524v-524h-1718v1669h1718v-524h-995v-70h903v-485h-903v-66h995z" />
    <glyph glyph-name="Igrave" unicode="&#xcc;" 
d="M240 1737l-156 127h459l82 -127h-385zM72 0v1669h723v-1669h-723z" />
    <glyph glyph-name="Iacute" unicode="&#xcd;" 
d="M631 1737h-385l82 127h458zM72 0v1669h723v-1669h-723z" />
    <glyph glyph-name="Icircumflex" unicode="&#xce;" 
d="M514 1737l-80 47l-80 -47h-291l121 127h500l121 -127h-291zM72 0v1669h723v-1669h-723z" />
    <glyph glyph-name="Idieresis" unicode="&#xcf;" 
d="M49 1716v170h340v-170h-340zM819 1716h-340v170h340v-170zM72 0v1669h723v-1669h-723z" />
    <glyph glyph-name="Eth" unicode="&#xd0;" horiz-adv-x="2263" 
d="M72 0v1669h1022q408 0 656.5 -87t360 -262t111.5 -458v-80q0 -275 -111.5 -444.5t-360 -253.5t-656.5 -84h-1022zM1106 696h-311v-112h350q186 0 266 47.5t80 173.5v26q0 144 -79.5 196t-266.5 52h-350v-108h311v-275z" />
    <glyph glyph-name="Ntilde" unicode="&#xd1;" horiz-adv-x="2267" 
d="M1495 1864q0 -73 -42.5 -102t-127.5 -29q-69 0 -144.5 20.5t-101.5 20.5q-24 0 -33.5 -9t-9.5 -28h-258q0 72 43 101.5t135 29.5q73 0 149 -18.5t91 -18.5q24 0 31.5 7t7.5 26h260zM1567 0l-830 737v-737h-665v1669h628l830 -725v725h665v-1669h-628z" />
    <glyph glyph-name="Ograve" unicode="&#xd2;" horiz-adv-x="2301" 
d="M963 1737l-156 127h459l82 -127h-385zM2261 782q0 -386 -271 -589t-833 -203q-1116 0 -1116 792v105q0 792 1116 792q562 0 833 -203t271 -589v-105zM1534 844q0 125 -85 177t-298 52t-298 -52t-85 -177v-19q0 -125 85 -177t298 -52t298 52t85 177v19z" />
    <glyph glyph-name="Oacute" unicode="&#xd3;" horiz-adv-x="2301" 
d="M1354 1737h-385l82 127h458zM2261 782q0 -386 -271 -589t-833 -203q-1116 0 -1116 792v105q0 792 1116 792q562 0 833 -203t271 -589v-105zM1534 844q0 125 -85 177t-298 52t-298 -52t-85 -177v-19q0 -125 85 -177t298 -52t298 52t85 177v19z" />
    <glyph glyph-name="Ocircumflex" unicode="&#xd4;" horiz-adv-x="2301" 
d="M1237 1737l-80 47l-80 -47h-291l121 127h500l121 -127h-291zM2261 782q0 -386 -271 -589t-833 -203q-1116 0 -1116 792v105q0 792 1116 792q562 0 833 -203t271 -589v-105zM1534 844q0 125 -85 177t-298 52t-298 -52t-85 -177v-19q0 -125 85 -177t298 -52t298 52t85 177
v19z" />
    <glyph glyph-name="Otilde" unicode="&#xd5;" horiz-adv-x="2301" 
d="M1513 1864q0 -73 -42.5 -102t-127.5 -29q-69 0 -144 20.5t-101 20.5q-24 0 -33.5 -9t-9.5 -28h-258q0 72 43 101.5t135 29.5q73 0 148.5 -18.5t90.5 -18.5q24 0 31.5 7t7.5 26h260zM2261 782q0 -386 -271 -589t-833 -203q-1116 0 -1116 792v105q0 792 1116 792
q562 0 833 -203t271 -589v-105zM1534 844q0 125 -85 177t-298 52t-298 -52t-85 -177v-19q0 -125 85 -177t298 -52t298 52t85 177v19z" />
    <glyph glyph-name="Odieresis" unicode="&#xd6;" horiz-adv-x="2301" 
d="M772 1716v170h340v-170h-340zM1542 1716h-340v170h340v-170zM2261 782q0 -386 -271 -589t-833 -203q-1116 0 -1116 792v105q0 792 1116 792q562 0 833 -203t271 -589v-105zM1534 844q0 125 -85 177t-298 52t-298 -52t-85 -177v-19q0 -125 85 -177t298 -52t298 52t85 177
v19z" />
    <glyph glyph-name="multiply" unicode="&#xd7;" horiz-adv-x="1507" 
d="M295 125l-213 219l463 461l-484 481l218 217l481 -483l457 455l213 -213l-455 -457l477 -479l-213 -213l-479 477z" />
    <glyph glyph-name="Oslash" unicode="&#xd8;" horiz-adv-x="2310" 
d="M41 0l256 203q-256 204 -256 637v47q0 792 1116 792q461 0 737 -141l168 131h176l-243 -194q274 -198 274 -588v-47q0 -436 -276 -643t-836 -207q-499 0 -764 147l-178 -137h-174zM1151 1073q-203 0 -293 -50t-90 -179v-19q0 -107 70 -159l499 395q-76 12 -186 12z
M1542 844q0 121 -80 174l-506 -400q74 -14 195 -14q204 0 297.5 49.5t93.5 171.5v19z" />
    <glyph glyph-name="Ugrave" unicode="&#xd9;" horiz-adv-x="2265" 
d="M938 1737l-156 127h459l82 -127h-385zM1470 1669h723v-573q0 -213 -23 -372.5t-75.5 -285t-132.5 -209t-200.5 -138t-273 -78t-355.5 -23.5t-355.5 23.5t-273 78t-201 138t-133 208.5t-75.5 285t-23 373v573h723v-543q0 -203 36.5 -318t107.5 -159.5t194 -44.5
q92 0 153 24t103.5 83.5t61.5 160t19 254.5v543z" />
    <glyph glyph-name="Uacute" unicode="&#xda;" horiz-adv-x="2265" 
d="M1329 1737h-385l82 127h459zM1470 1669h723v-573q0 -213 -23 -372.5t-75.5 -285t-132.5 -209t-200.5 -138t-273 -78t-355.5 -23.5t-355.5 23.5t-273 78t-201 138t-133 208.5t-75.5 285t-23 373v573h723v-543q0 -203 36.5 -318t107.5 -159.5t194 -44.5q92 0 153 24
t103.5 83.5t61.5 160t19 254.5v543z" />
    <glyph glyph-name="Ucircumflex" unicode="&#xdb;" horiz-adv-x="2265" 
d="M1212 1737l-79 47l-80 -47h-291l121 127h499l121 -127h-291zM1470 1669h723v-573q0 -213 -23 -372.5t-75.5 -285t-132.5 -209t-200.5 -138t-273 -78t-355.5 -23.5t-355.5 23.5t-273 78t-201 138t-133 208.5t-75.5 285t-23 373v573h723v-543q0 -203 36.5 -318
t107.5 -159.5t194 -44.5q92 0 153 24t103.5 83.5t61.5 160t19 254.5v543z" />
    <glyph glyph-name="Udieresis" unicode="&#xdc;" horiz-adv-x="2265" 
d="M748 1716v170h339v-170h-339zM1518 1716h-340v170h340v-170zM1470 1669h723v-573q0 -213 -23 -372.5t-75.5 -285t-132.5 -209t-200.5 -138t-273 -78t-355.5 -23.5t-355.5 23.5t-273 78t-201 138t-133 208.5t-75.5 285t-23 373v573h723v-543q0 -203 36.5 -318
t107.5 -159.5t194 -44.5q92 0 153 24t103.5 83.5t61.5 160t19 254.5v543z" />
    <glyph glyph-name="Yacute" unicode="&#xdd;" horiz-adv-x="2185" 
d="M1290 1737h-385l82 127h459zM727 623l-727 1046h793l297 -465l299 465h796l-735 -1051v-618h-723v623z" />
    <glyph glyph-name="Thorn" unicode="&#xde;" horiz-adv-x="2154" 
d="M72 1669h723v-153h395q257 0 438 -40.5t293 -125.5t162.5 -206.5t50.5 -291.5v-51q0 -215 -95 -352t-313 -209t-573 -72h-358v-168h-723v1669zM1208 950h-413v-297h413q103 0 151 34.5t48 111.5v8q0 79 -47 111t-152 32z" />
    <glyph glyph-name="germandbls" unicode="&#xdf;" horiz-adv-x="2142" 
d="M2003 1321v-8q0 -130 -113 -209.5t-346 -99.5q292 -25 419.5 -143.5t127.5 -332.5v-20q0 -108 -25 -187t-83.5 -137.5t-141.5 -95.5t-213 -59t-282.5 -30.5t-364.5 -8.5v442q158 0 239 12.5t115.5 43t34.5 90.5v6q0 72 -48 105.5t-171 33.5h-160v373h96q108 0 149.5 18.5
t41.5 63.5v4q0 51 -47 69.5t-176 18.5q-145 0 -202.5 -48.5t-57.5 -177.5v-1044h-723v1042q0 134 30.5 232.5t102.5 177.5t191.5 127.5t296.5 74t419 25.5q330 0 524.5 -37t280.5 -114.5t86 -206.5z" />
    <glyph glyph-name="agrave" unicode="&#xe0;" horiz-adv-x="2134" 
d="M901 1542l-156 127h459l82 -127h-385zM838 895v-14h-738v20q0 584 975 584q516 0 751.5 -139.5t235.5 -454.5v-891h-723v422q0 -432 -604 -432q-352 0 -528 93t-176 292v24q0 86 35.5 154t93.5 112t146.5 77.5t179 51.5t208 32.5t216.5 22t221.5 19t207.5 23.5v16
q0 82 -256 82q-138 0 -191.5 -22.5t-53.5 -71.5zM752 397q0 -43 47.5 -62.5t161.5 -19.5q85 0 147.5 7.5t118 26.5t84 57t28.5 94v49h-1h-1h-1h-1h-1h-1l-1 -1h-1h-1h-1h-1h-1h-1h-1h-1h-1h-1h-1h-1h-1l-2 -1q-331 -24 -428 -44q-132 -33 -137 -91v-15z" />
    <glyph glyph-name="aacute" unicode="&#xe1;" horiz-adv-x="2134" 
d="M1292 1542h-385l82 127h459zM838 895v-14h-738v20q0 584 975 584q516 0 751.5 -139.5t235.5 -454.5v-891h-723v422q0 -432 -604 -432q-352 0 -528 93t-176 292v24q0 86 35.5 154t93.5 112t146.5 77.5t179 51.5t208 32.5t216.5 22t221.5 19t207.5 23.5v16q0 82 -256 82
q-138 0 -191.5 -22.5t-53.5 -71.5zM752 397q0 -43 47.5 -62.5t161.5 -19.5q85 0 147.5 7.5t118 26.5t84 57t28.5 94v49h-1h-1h-1h-1h-1h-1l-1 -1h-1h-1h-1h-1h-1h-1h-1h-1h-1h-1h-1h-1h-1l-2 -1q-331 -24 -428 -44q-132 -33 -137 -91v-15z" />
    <glyph glyph-name="acircumflex" unicode="&#xe2;" horiz-adv-x="2134" 
d="M1176 1542l-80 47l-80 -47h-291l121 127h500l120 -127h-290zM838 895v-14h-738v20q0 584 975 584q516 0 751.5 -139.5t235.5 -454.5v-891h-723v422q0 -432 -604 -432q-352 0 -528 93t-176 292v24q0 86 35.5 154t93.5 112t146.5 77.5t179 51.5t208 32.5t216.5 22t221.5 19
t207.5 23.5v16q0 82 -256 82q-138 0 -191.5 -22.5t-53.5 -71.5zM752 397q0 -43 47.5 -62.5t161.5 -19.5q85 0 147.5 7.5t118 26.5t84 57t28.5 94v49h-1h-1h-1h-1h-1h-1l-1 -1h-1h-1h-1h-1h-1h-1h-1h-1h-1h-1h-1h-1h-1l-2 -1q-331 -24 -428 -44q-132 -33 -137 -91v-15z" />
    <glyph glyph-name="atilde" unicode="&#xe3;" horiz-adv-x="2134" 
d="M1452 1669q0 -73 -42.5 -102t-127.5 -29q-69 0 -144.5 20.5t-101.5 20.5q-24 0 -33.5 -9t-9.5 -28h-258q0 72 43 101.5t135 29.5q73 0 149 -18.5t91 -18.5q24 0 31.5 7t7.5 26h260zM838 895v-14h-738v20q0 584 975 584q516 0 751.5 -139.5t235.5 -454.5v-891h-723v422
q0 -432 -604 -432q-352 0 -528 93t-176 292v24q0 86 35.5 154t93.5 112t146.5 77.5t179 51.5t208 32.5t216.5 22t221.5 19t207.5 23.5v16q0 82 -256 82q-138 0 -191.5 -22.5t-53.5 -71.5zM752 397q0 -43 47.5 -62.5t161.5 -19.5q85 0 147.5 7.5t118 26.5t84 57t28.5 94v49
h-1h-1h-1h-1h-1h-1l-1 -1h-1h-1h-1h-1h-1h-1h-1h-1h-1h-1h-1h-1h-1l-2 -1q-331 -24 -428 -44q-132 -33 -137 -91v-15z" />
    <glyph glyph-name="adieresis" unicode="&#xe4;" horiz-adv-x="2134" 
d="M711 1522v170h340v-170h-340zM1481 1522h-340v170h340v-170zM838 895v-14h-738v20q0 584 975 584q516 0 751.5 -139.5t235.5 -454.5v-891h-723v422q0 -432 -604 -432q-352 0 -528 93t-176 292v24q0 86 35.5 154t93.5 112t146.5 77.5t179 51.5t208 32.5t216.5 22t221.5 19
t207.5 23.5v16q0 82 -256 82q-138 0 -191.5 -22.5t-53.5 -71.5zM752 397q0 -43 47.5 -62.5t161.5 -19.5q85 0 147.5 7.5t118 26.5t84 57t28.5 94v49h-1h-1h-1h-1h-1h-1l-1 -1h-1h-1h-1h-1h-1h-1h-1h-1h-1h-1h-1h-1h-1l-2 -1q-331 -24 -428 -44q-132 -33 -137 -91v-15z" />
    <glyph glyph-name="aring" unicode="&#xe5;" horiz-adv-x="2134" 
d="M838 895v-14h-738v20q0 523 785 578q-41 27 -41 75q0 119 252 119t252 -119q0 -50 -43 -77q393 -28 575 -168t182 -418v-891h-723v422q0 -432 -604 -432q-352 0 -528 93t-176 292v24q0 86 35.5 154t93.5 112t146.5 77.5t179 51.5t208 32.5t216.5 22t221.5 19t207.5 23.5
v16q0 82 -256 82q-138 0 -191.5 -22.5t-53.5 -71.5zM1096 1485q84 0 84 65q0 41 -20.5 58.5t-63.5 17.5t-63.5 -17.5t-20.5 -58.5q0 -65 84 -65zM752 397q0 -43 47.5 -62.5t161.5 -19.5q85 0 147.5 7.5t118 26.5t84 57t28.5 94v49h-1h-1h-1h-1h-1h-1l-1 -1h-1h-1h-1h-1h-1
h-1h-1h-1h-1h-1h-1h-1h-1l-2 -1q-331 -24 -428 -44q-132 -33 -137 -91v-15z" />
    <glyph glyph-name="ae" unicode="&#xe6;" horiz-adv-x="3479" 
d="M3428 555q0 -123 -67 -225.5t-195.5 -178.5t-328.5 -118.5t-453 -42.5q-298 0 -507.5 58t-327.5 163.5t-169 261.5q-9 -137 -51.5 -230.5t-125 -149t-195.5 -79.5t-273 -24q-352 0 -528 93t-176 292v24q0 86 35.5 154t93.5 112t146.5 77.5t179 51.5t208 32.5t216.5 22
t221.5 19t207.5 23.5v16q0 82 -256 82q-138 0 -191.5 -22.5t-53.5 -71.5v-14h-738v20q0 584 944 584q427 0 707 -125q295 125 641 125q503 0 769.5 -191.5t266.5 -545.5v-93h-1360q17 -206 332 -206q287 0 287 116v2h741v-12zM2388 1059q-288 0 -317 -182h632v14
q0 74 -77 121t-238 47zM752 397q0 -43 47.5 -62.5t161.5 -19.5q214 0 305.5 40.5t105.5 140.5q-2 9 -6 27.5t-6 27.5q-345 -26 -435 -42q-155 -26 -171 -81q-2 -8 -2 -16v-15z" />
    <glyph glyph-name="ccedilla" unicode="&#xe7;" horiz-adv-x="2189" 
d="M1114 -205q-211 0 -293 17t-82 61v2h322v-2q0 -14 22 -14q25 0 25 24q0 27 -25 27q-16 0 -22 -14h-301l272 94q-981 23 -981 741v12q0 742 1045 742q527 0 784.5 -168.5t257.5 -505.5v-31h-727v2q0 138 -307 138q-171 0 -248.5 -38.5t-77.5 -136.5v-16q0 -98 77.5 -136
t248.5 -38q307 0 307 137v2h727v-30q0 -309 -216 -476.5t-656 -193.5l-148 -55q78 18 152 18q109 0 154.5 -18t45.5 -62q0 -34 -30 -51t-104 -24t-222 -7z" />
    <glyph glyph-name="egrave" unicode="&#xe8;" horiz-adv-x="2191" 
d="M901 1542l-156 127h459l82 -127h-385zM2140 655h-1360q17 -206 332 -206q287 0 287 116v2h741v-12q0 -123 -67 -225.5t-195.5 -178.5t-328.5 -118.5t-453 -42.5q-1045 0 -1045 727v22q0 746 1053 746q503 0 769.5 -191.5t266.5 -545.5v-93zM1100 1059q-289 0 -318 -182
h633v14q0 74 -77 121t-238 47z" />
    <glyph glyph-name="eacute" unicode="&#xe9;" horiz-adv-x="2191" 
d="M1292 1542h-385l82 127h459zM2140 655h-1360q17 -206 332 -206q287 0 287 116v2h741v-12q0 -123 -67 -225.5t-195.5 -178.5t-328.5 -118.5t-453 -42.5q-1045 0 -1045 727v22q0 746 1053 746q503 0 769.5 -191.5t266.5 -545.5v-93zM1100 1059q-289 0 -318 -182h633v14
q0 74 -77 121t-238 47z" />
    <glyph glyph-name="ecircumflex" unicode="&#xea;" horiz-adv-x="2191" 
d="M1176 1542l-80 47l-80 -47h-291l121 127h500l120 -127h-290zM2140 655h-1360q17 -206 332 -206q287 0 287 116v2h741v-12q0 -123 -67 -225.5t-195.5 -178.5t-328.5 -118.5t-453 -42.5q-1045 0 -1045 727v22q0 746 1053 746q503 0 769.5 -191.5t266.5 -545.5v-93z
M1100 1059q-289 0 -318 -182h633v14q0 74 -77 121t-238 47z" />
    <glyph glyph-name="edieresis" unicode="&#xeb;" horiz-adv-x="2191" 
d="M711 1522v170h340v-170h-340zM1481 1522h-340v170h340v-170zM2140 655h-1360q17 -206 332 -206q287 0 287 116v2h741v-12q0 -123 -67 -225.5t-195.5 -178.5t-328.5 -118.5t-453 -42.5q-1045 0 -1045 727v22q0 746 1053 746q503 0 769.5 -191.5t266.5 -545.5v-93z
M1100 1059q-289 0 -318 -182h633v14q0 74 -77 121t-238 47z" />
    <glyph glyph-name="igrave" unicode="&#xec;" 
d="M238 1542l-156 127h459l82 -127h-385zM72 0v1475h723v-1475h-723z" />
    <glyph glyph-name="iacute" unicode="&#xed;" 
d="M629 1542h-385l82 127h458zM72 0v1475h723v-1475h-723z" />
    <glyph glyph-name="icircumflex" unicode="&#xee;" 
d="M512 1542l-80 47l-80 -47h-291l121 127h500l121 -127h-291zM72 0v1475h723v-1475h-723z" />
    <glyph glyph-name="idieresis" unicode="&#xef;" 
d="M47 1522v170h340v-170h-340zM817 1522h-340v170h340v-170zM72 0v1475h723v-1475h-723z" />
    <glyph glyph-name="eth" unicode="&#xf0;" horiz-adv-x="2211" 
d="M1421 647q0 239 -77.5 373t-247.5 178l-209 -119h-264l245 140h-409l256 450h317q283 0 502 -72l127 72h266l-237 -135q220 -112 335 -301t115 -430v-29q0 -415 -256 -599.5t-803 -184.5q-209 0 -368 14.5t-271 44.5t-186.5 71t-117 101t-60 126.5t-17.5 154.5v18
q0 486 742 486q322 0 470 -108t148 -323v72zM1106 360q164 0 239.5 33t75.5 107v12q0 73 -76.5 106t-238.5 33q-164 0 -242 -33t-78 -106v-12q0 -74 76.5 -107t243.5 -33z" />
    <glyph glyph-name="ntilde" unicode="&#xf1;" horiz-adv-x="2177" 
d="M1446 1669q0 -73 -42.5 -102t-127.5 -29q-69 0 -144.5 20.5t-101.5 20.5q-24 0 -33.5 -9t-9.5 -28h-258q0 72 43 101.5t135 29.5q73 0 149 -18.5t91 -18.5q24 0 31.5 7t7.5 26h260zM795 1475v-848q0 234 34 394.5t110 265t195 151.5t293 47q185 0 311 -39t209.5 -128.5
t120.5 -232t37 -352.5v-733h-723v567q0 153 -67.5 218t-231.5 65q-148 0 -218 -68.5t-70 -232.5v-549h-723v1475h723z" />
    <glyph glyph-name="ograve" unicode="&#xf2;" horiz-adv-x="2170" 
d="M891 1542l-156 127h459l82 -127h-385zM1085 1485q521 0 778 -190.5t257 -549.5v-16q0 -359 -257 -549t-778 -190t-777.5 190t-256.5 549v16q0 359 256.5 549.5t777.5 190.5zM1085 555q163 0 235.5 40t72.5 138v8q0 98 -72.5 138.5t-235.5 40.5t-235 -40.5t-72 -138.5v-8
q0 -98 72 -138t235 -40z" />
    <glyph glyph-name="oacute" unicode="&#xf3;" horiz-adv-x="2170" 
d="M1282 1542h-385l82 127h459zM1085 1485q521 0 778 -190.5t257 -549.5v-16q0 -359 -257 -549t-778 -190t-777.5 190t-256.5 549v16q0 359 256.5 549.5t777.5 190.5zM1085 555q163 0 235.5 40t72.5 138v8q0 98 -72.5 138.5t-235.5 40.5t-235 -40.5t-72 -138.5v-8
q0 -98 72 -138t235 -40z" />
    <glyph glyph-name="ocircumflex" unicode="&#xf4;" horiz-adv-x="2170" 
d="M1165 1542l-80 47l-79 -47h-291l121 127h499l121 -127h-291zM1085 1485q521 0 778 -190.5t257 -549.5v-16q0 -359 -257 -549t-778 -190t-777.5 190t-256.5 549v16q0 359 256.5 549.5t777.5 190.5zM1085 555q163 0 235.5 40t72.5 138v8q0 98 -72.5 138.5t-235.5 40.5
t-235 -40.5t-72 -138.5v-8q0 -98 72 -138t235 -40z" />
    <glyph glyph-name="otilde" unicode="&#xf5;" horiz-adv-x="2170" 
d="M1442 1669q0 -73 -42.5 -102t-127.5 -29q-69 0 -144.5 20.5t-101.5 20.5q-24 0 -33.5 -9t-9.5 -28h-258q0 72 43 101.5t135 29.5q73 0 149 -18.5t91 -18.5q24 0 31.5 7t7.5 26h260zM1085 1485q521 0 778 -190.5t257 -549.5v-16q0 -359 -257 -549t-778 -190t-777.5 190
t-256.5 549v16q0 359 256.5 549.5t777.5 190.5zM1085 555q163 0 235.5 40t72.5 138v8q0 98 -72.5 138.5t-235.5 40.5t-235 -40.5t-72 -138.5v-8q0 -98 72 -138t235 -40z" />
    <glyph glyph-name="odieresis" unicode="&#xf6;" horiz-adv-x="2170" 
d="M700 1522v170h340v-170h-340zM1470 1522h-340v170h340v-170zM1085 1485q521 0 778 -190.5t257 -549.5v-16q0 -359 -257 -549t-778 -190t-777.5 190t-256.5 549v16q0 359 256.5 549.5t777.5 190.5zM1085 555q163 0 235.5 40t72.5 138v8q0 98 -72.5 138.5t-235.5 40.5
t-235 -40.5t-72 -138.5v-8q0 -98 72 -138t235 -40z" />
    <glyph glyph-name="divide" unicode="&#xf7;" horiz-adv-x="1507" 
d="M920 1171h-314v338h314v-338zM1448 651h-1391v301h1391v-301zM920 92h-314v336h314v-336z" />
    <glyph glyph-name="oslash" unicode="&#xf8;" horiz-adv-x="2170" 
d="M51 0l250 184q-250 189 -250 545v16q0 359 256.5 549.5t777.5 190.5q439 0 695 -137l174 127h166l-250 -185q250 -189 250 -545v-16q0 -359 -257 -549t-778 -190q-438 0 -694 137l-176 -127h-164zM778 733q0 -80 49 -123l408 299q-75 11 -150 11q-163 0 -235 -40.5
t-72 -138.5v-8zM1085 555q163 0 235.5 40t72.5 138v8q0 79 -50 123l-405 -299q68 -10 147 -10z" />
    <glyph glyph-name="ugrave" unicode="&#xf9;" horiz-adv-x="2177" 
d="M893 1542l-156 127h459l82 -127h-385zM1382 0v848q0 -234 -34 -394.5t-110 -265t-195 -151.5t-293 -47q-247 0 -393 72t-215.5 235.5t-69.5 443.5v734h723v-568q0 -153 67 -217.5t232 -64.5q54 0 94.5 7t78.5 26.5t62 52.5t38.5 87t14.5 128v549h723v-1475h-723z" />
    <glyph glyph-name="uacute" unicode="&#xfa;" horiz-adv-x="2177" 
d="M1284 1542h-385l82 127h459zM1382 0v848q0 -234 -34 -394.5t-110 -265t-195 -151.5t-293 -47q-247 0 -393 72t-215.5 235.5t-69.5 443.5v734h723v-568q0 -153 67 -217.5t232 -64.5q54 0 94.5 7t78.5 26.5t62 52.5t38.5 87t14.5 128v549h723v-1475h-723z" />
    <glyph glyph-name="ucircumflex" unicode="&#xfb;" horiz-adv-x="2177" 
d="M1167 1542l-80 47l-79 -47h-291l121 127h499l121 -127h-291zM1382 0v848q0 -234 -34 -394.5t-110 -265t-195 -151.5t-293 -47q-247 0 -393 72t-215.5 235.5t-69.5 443.5v734h723v-568q0 -153 67 -217.5t232 -64.5q54 0 94.5 7t78.5 26.5t62 52.5t38.5 87t14.5 128v549
h723v-1475h-723z" />
    <glyph glyph-name="udieresis" unicode="&#xfc;" horiz-adv-x="2177" 
d="M702 1522v170h340v-170h-340zM1473 1522h-340v170h340v-170zM1382 0v848q0 -234 -34 -394.5t-110 -265t-195 -151.5t-293 -47q-247 0 -393 72t-215.5 235.5t-69.5 443.5v734h723v-568q0 -153 67 -217.5t232 -64.5q54 0 94.5 7t78.5 26.5t62 52.5t38.5 87t14.5 128v549
h723v-1475h-723z" />
    <glyph glyph-name="yacute" unicode="&#xfd;" horiz-adv-x="2158" 
d="M1294 1542h-385l82 127h459zM1659 463q-49 -99 -89.5 -168.5t-92 -131t-99.5 -100t-121 -70.5t-146.5 -48.5t-185.5 -28t-229.5 -15t-287.5 -3.5v536h378q57 0 87.5 14.5t58.5 53.5l10 14h-383l-559 959h815l293 -607l285 607h766z" />
    <glyph glyph-name="thorn" unicode="&#xfe;" horiz-adv-x="2213" 
d="M793 870q0 146 33.5 256.5t105.5 192.5t192 124t287 42q200 0 342 -44.5t230 -134.5t128.5 -219t40.5 -305v-16q0 -176 -40.5 -305t-128.5 -219t-230 -134.5t-342 -44.5q-167 0 -287 42t-192 124t-105.5 192.5t-33.5 256.5v-780h-721v1771h721v-799zM793 766
q0 -100 76.5 -144t238.5 -44q165 0 242 44t77 144v16q0 100 -77 144.5t-242 44.5q-162 0 -238.5 -44.5t-76.5 -144.5v-16z" />
    <glyph glyph-name="ydieresis" unicode="&#xff;" horiz-adv-x="2158" 
d="M713 1522v170h340v-170h-340zM1483 1522h-340v170h340v-170zM1659 463q-49 -99 -89.5 -168.5t-92 -131t-99.5 -100t-121 -70.5t-146.5 -48.5t-185.5 -28t-229.5 -15t-287.5 -3.5v536h378q57 0 87.5 14.5t58.5 53.5l10 14h-383l-559 959h815l293 -607l285 607h766z" />
    <glyph glyph-name="Amacron" unicode="&#x100;" horiz-adv-x="2252" 
d="M776 1733v137h701v-137h-701zM1546 0l-86 260h-669l-86 -260h-685l553 1669h1102l557 -1669h-686zM926 670h399l-199 604z" />
    <glyph glyph-name="amacron" unicode="&#x101;" horiz-adv-x="2134" 
d="M745 1538v137h701v-137h-701zM838 895v-14h-738v20q0 584 975 584q516 0 751.5 -139.5t235.5 -454.5v-891h-723v422q0 -432 -604 -432q-352 0 -528 93t-176 292v24q0 86 35.5 154t93.5 112t146.5 77.5t179 51.5t208 32.5t216.5 22t221.5 19t207.5 23.5v16q0 82 -256 82
q-138 0 -191.5 -22.5t-53.5 -71.5zM752 397q0 -43 47.5 -62.5t161.5 -19.5q85 0 147.5 7.5t118 26.5t84 57t28.5 94v49h-1h-1h-1h-1h-1h-1l-1 -1h-1h-1h-1h-1h-1h-1h-1h-1h-1h-1h-1h-1h-1l-2 -1q-331 -24 -428 -44q-132 -33 -137 -91v-15z" />
    <glyph glyph-name="Abreve" unicode="&#x102;" horiz-adv-x="2252" 
d="M1126 1823q54 0 54 41h288q-7 -45 -33 -71.5t-101.5 -43t-207.5 -16.5q-135 0 -211 16.5t-102 43t-33 71.5h289q0 -41 57 -41zM1546 0l-86 260h-669l-86 -260h-685l553 1669h1102l557 -1669h-686zM926 670h399l-199 604z" />
    <glyph glyph-name="abreve" unicode="&#x103;" horiz-adv-x="2134" 
d="M1096 1628q53 0 53 41h289q-7 -45 -33 -71.5t-101.5 -43t-207.5 -16.5q-135 0 -211 16.5t-102 43t-33 71.5h288q0 -41 58 -41zM838 895v-14h-738v20q0 584 975 584q516 0 751.5 -139.5t235.5 -454.5v-891h-723v422q0 -432 -604 -432q-352 0 -528 93t-176 292v24
q0 86 35.5 154t93.5 112t146.5 77.5t179 51.5t208 32.5t216.5 22t221.5 19t207.5 23.5v16q0 82 -256 82q-138 0 -191.5 -22.5t-53.5 -71.5zM752 397q0 -43 47.5 -62.5t161.5 -19.5q85 0 147.5 7.5t118 26.5t84 57t28.5 94v49h-1h-1h-1h-1h-1h-1l-1 -1h-1h-1h-1h-1h-1h-1h-1
h-1h-1h-1h-1h-1h-1l-2 -1q-331 -24 -428 -44q-132 -33 -137 -91v-15z" />
    <glyph glyph-name="Aogonek" unicode="&#x104;" horiz-adv-x="2252" 
d="M1546 0l-86 260h-669l-86 -260h-685l553 1669h1102l557 -1669h-204q-113 -62 -137.5 -80t-24.5 -39q0 -22 24 -22q17 0 23 8.5t6 28.5v4h315v-4q0 -33 -33 -54.5t-120 -34t-232 -12.5q-112 0 -174.5 2.5t-103.5 11t-54.5 22.5t-13.5 38q0 47 66 73t237 58h-260zM926 670
h399l-199 604z" />
    <glyph glyph-name="aogonek" unicode="&#x105;" horiz-adv-x="2134" 
d="M838 895v-14h-738v20q0 584 975 584q516 0 751.5 -139.5t235.5 -454.5v-891h-211q-112 -61 -136.5 -79.5t-24.5 -39.5q0 -22 24 -22q17 0 23 8.5t6 28.5v4h315v-4q0 -33 -33 -54.5t-120 -34t-232 -12.5q-112 0 -174.5 2.5t-103.5 11t-54.5 22.5t-13.5 38q0 47 66 73
t237 58h-291v422q0 -432 -604 -432q-352 0 -528 93t-176 292v24q0 86 35.5 154t93.5 112t146.5 77.5t179 51.5t208 32.5t216.5 22t221.5 19t207.5 23.5v16q0 82 -256 82q-138 0 -191.5 -22.5t-53.5 -71.5zM752 397q0 -43 47.5 -62.5t161.5 -19.5q85 0 147.5 7.5t118 26.5
t84 57t28.5 94v49h-1h-1h-1h-1h-1h-1l-1 -1h-1h-1h-1h-1h-1h-1h-1h-1h-1h-1h-1h-1h-1l-2 -1q-331 -24 -428 -44q-132 -33 -137 -91v-15z" />
    <glyph glyph-name="Cacute" unicode="&#x106;" horiz-adv-x="2306" 
d="M1352 1737h-385l82 127h458zM1536 791h729v-17q0 -385 -275.5 -584.5t-832.5 -199.5q-1116 0 -1116 792v105q0 792 1116 792q554 0 831 -199.5t277 -584.5v-16h-729v8q0 186 -385 186q-213 0 -298 -52t-85 -177v-19q0 -125 85 -177t298 -52q385 0 385 186v9z" />
    <glyph glyph-name="cacute" unicode="&#x107;" horiz-adv-x="2189" 
d="M1292 1542h-385l82 127h459zM1411 694h727v-30q0 -337 -257.5 -505.5t-784.5 -168.5q-1045 0 -1045 741v12q0 742 1045 742q527 0 784.5 -168.5t257.5 -505.5v-31h-727v2q0 138 -307 138q-171 0 -248.5 -38.5t-77.5 -136.5v-16q0 -98 77.5 -136t248.5 -38q307 0 307 137
v2z" />
    <glyph glyph-name="Ccircumflex" unicode="&#x108;" horiz-adv-x="2306" 
d="M1235 1737l-80 47l-80 -47h-291l121 127h500l121 -127h-291zM1536 791h729v-17q0 -385 -275.5 -584.5t-832.5 -199.5q-1116 0 -1116 792v105q0 792 1116 792q554 0 831 -199.5t277 -584.5v-16h-729v8q0 186 -385 186q-213 0 -298 -52t-85 -177v-19q0 -125 85 -177
t298 -52q385 0 385 186v9z" />
    <glyph glyph-name="ccircumflex" unicode="&#x109;" horiz-adv-x="2189" 
d="M1176 1542l-80 47l-80 -47h-291l121 127h500l120 -127h-290zM1411 694h727v-30q0 -337 -257.5 -505.5t-784.5 -168.5q-1045 0 -1045 741v12q0 742 1045 742q527 0 784.5 -168.5t257.5 -505.5v-31h-727v2q0 138 -307 138q-171 0 -248.5 -38.5t-77.5 -136.5v-16
q0 -98 77.5 -136t248.5 -38q307 0 307 137v2z" />
    <glyph glyph-name="Cdotaccent" unicode="&#x10a;" horiz-adv-x="2306" 
d="M1155 1708q-94 0 -132 21.5t-38 70.5t38 70.5t132 21.5t132 -21.5t38 -70.5t-38 -70.5t-132 -21.5zM1536 791h729v-17q0 -385 -275.5 -584.5t-832.5 -199.5q-1116 0 -1116 792v105q0 792 1116 792q554 0 831 -199.5t277 -584.5v-16h-729v8q0 186 -385 186
q-213 0 -298 -52t-85 -177v-19q0 -125 85 -177t298 -52q385 0 385 186v9z" />
    <glyph glyph-name="cdotaccent" unicode="&#x10b;" horiz-adv-x="2189" 
d="M1096 1513q-94 0 -132 22t-38 71t38 70.5t132 21.5t132 -21.5t38 -70.5t-38 -71t-132 -22zM1411 694h727v-30q0 -337 -257.5 -505.5t-784.5 -168.5q-1045 0 -1045 741v12q0 742 1045 742q527 0 784.5 -168.5t257.5 -505.5v-31h-727v2q0 138 -307 138q-171 0 -248.5 -38.5
t-77.5 -136.5v-16q0 -98 77.5 -136t248.5 -38q307 0 307 137v2z" />
    <glyph glyph-name="Ccaron" unicode="&#x10c;" horiz-adv-x="2306" 
d="M1204 1864h293l-92 -127h-500l-92 127h293l49 -45zM1536 791h729v-17q0 -385 -275.5 -584.5t-832.5 -199.5q-1116 0 -1116 792v105q0 792 1116 792q554 0 831 -199.5t277 -584.5v-16h-729v8q0 186 -385 186q-213 0 -298 -52t-85 -177v-19q0 -125 85 -177t298 -52
q385 0 385 186v9z" />
    <glyph glyph-name="ccaron" unicode="&#x10d;" horiz-adv-x="2189" 
d="M1145 1669h293l-92 -127h-500l-92 127h293l49 -45zM1411 694h727v-30q0 -337 -257.5 -505.5t-784.5 -168.5q-1045 0 -1045 741v12q0 742 1045 742q527 0 784.5 -168.5t257.5 -505.5v-31h-727v2q0 138 -307 138q-171 0 -248.5 -38.5t-77.5 -136.5v-16q0 -98 77.5 -136
t248.5 -38q307 0 307 137v2z" />
    <glyph glyph-name="Dcaron" unicode="&#x10e;" horiz-adv-x="2263" 
d="M1194 1864h293l-92 -127h-500l-92 127h293l49 -45zM72 0v1669h1022q408 0 656.5 -87t360 -262t111.5 -458v-80q0 -275 -111.5 -444.5t-360 -253.5t-656.5 -84h-1022zM1145 1079h-350v-495h350q186 0 266 47.5t80 173.5v26q0 144 -79.5 196t-266.5 52z" />
    <glyph glyph-name="dcaron" unicode="&#x10f;" horiz-adv-x="2213" 
d="M1419 840v829h723v-1669h-723v635q0 -154 -33 -270t-104.5 -201.5t-191.5 -129.5t-287 -44q-200 0 -342.5 46.5t-230.5 141t-128.5 229.5t-40.5 320v21q0 185 40.5 320t128.5 229.5t230.5 141t342.5 46.5q167 0 287 -44t191.5 -129.5t104.5 -201.5t33 -270zM2417 1505
h-234v164h326zM1419 748q0 105 -75.5 151.5t-237.5 46.5q-165 0 -242.5 -47t-77.5 -151v-21q0 -105 77.5 -152t242.5 -47q161 0 237 47t76 152v21z" />
    <glyph glyph-name="Dcroat" unicode="&#x110;" horiz-adv-x="2263" 
d="M72 0v1669h1022q408 0 656.5 -87t360 -262t111.5 -458v-80q0 -275 -111.5 -444.5t-360 -253.5t-656.5 -84h-1022zM1106 696h-311v-112h350q186 0 266 47.5t80 173.5v26q0 144 -79.5 196t-266.5 52h-350v-108h311v-275z" />
    <glyph glyph-name="dcroat" unicode="&#x111;" horiz-adv-x="2213" 
d="M1419 840v590h-260v208h260v31h723v-1669h-723v635q0 -154 -33 -270t-104.5 -201.5t-191.5 -129.5t-287 -44q-200 0 -342.5 46.5t-230.5 141t-128.5 229.5t-40.5 320v21q0 185 40.5 320t128.5 229.5t230.5 141t342.5 46.5q167 0 287 -44t191.5 -129.5t104.5 -201.5
t33 -270zM1419 748q0 105 -75.5 151.5t-237.5 46.5q-165 0 -242.5 -47t-77.5 -151v-21q0 -105 77.5 -152t242.5 -47q161 0 237 47t76 152v21z" />
    <glyph glyph-name="Emacron" unicode="&#x112;" horiz-adv-x="1841" 
d="M582 1733v137h700v-137h-700zM1790 524v-524h-1718v1669h1718v-524h-995v-70h903v-485h-903v-66h995z" />
    <glyph glyph-name="emacron" unicode="&#x113;" horiz-adv-x="2191" 
d="M745 1538v137h701v-137h-701zM2140 655h-1360q17 -206 332 -206q287 0 287 116v2h741v-12q0 -123 -67 -225.5t-195.5 -178.5t-328.5 -118.5t-453 -42.5q-1045 0 -1045 727v22q0 746 1053 746q503 0 769.5 -191.5t266.5 -545.5v-93zM1100 1059q-289 0 -318 -182h633v14
q0 74 -77 121t-238 47z" />
    <glyph glyph-name="Ebreve" unicode="&#x114;" horiz-adv-x="1841" 
d="M932 1823q53 0 53 41h289q-7 -45 -33 -71.5t-101.5 -43t-207.5 -16.5q-135 0 -211 16.5t-102 43t-33 71.5h288q0 -41 58 -41zM1790 524v-524h-1718v1669h1718v-524h-995v-70h903v-485h-903v-66h995z" />
    <glyph glyph-name="ebreve" unicode="&#x115;" horiz-adv-x="2191" 
d="M1096 1628q53 0 53 41h289q-7 -45 -33 -71.5t-101.5 -43t-207.5 -16.5q-135 0 -211 16.5t-102 43t-33 71.5h288q0 -41 58 -41zM2140 655h-1360q17 -206 332 -206q287 0 287 116v2h741v-12q0 -123 -67 -225.5t-195.5 -178.5t-328.5 -118.5t-453 -42.5q-1045 0 -1045 727
v22q0 746 1053 746q503 0 769.5 -191.5t266.5 -545.5v-93zM1100 1059q-289 0 -318 -182h633v14q0 74 -77 121t-238 47z" />
    <glyph glyph-name="Edotaccent" unicode="&#x116;" horiz-adv-x="1841" 
d="M932 1708q-94 0 -132 21.5t-38 70.5t38 70.5t132 21.5t132 -21.5t38 -70.5t-38 -70.5t-132 -21.5zM1790 524v-524h-1718v1669h1718v-524h-995v-70h903v-485h-903v-66h995z" />
    <glyph glyph-name="edotaccent" unicode="&#x117;" horiz-adv-x="2191" 
d="M1096 1513q-94 0 -132 22t-38 71t38 70.5t132 21.5t132 -21.5t38 -70.5t-38 -71t-132 -22zM2140 655h-1360q17 -206 332 -206q287 0 287 116v2h741v-12q0 -123 -67 -225.5t-195.5 -178.5t-328.5 -118.5t-453 -42.5q-1045 0 -1045 727v22q0 746 1053 746
q503 0 769.5 -191.5t266.5 -545.5v-93zM1100 1059q-289 0 -318 -182h633v14q0 74 -77 121t-238 47z" />
    <glyph glyph-name="Eogonek" unicode="&#x118;" horiz-adv-x="1841" 
d="M1583 0q-113 -62 -137.5 -80t-24.5 -39q0 -22 25 -22q17 0 23 8.5t6 28.5v4h315v-4q0 -33 -33 -54.5t-120 -34t-232 -12.5q-112 0 -174.5 2.5t-103.5 11t-54.5 22.5t-13.5 38q0 47 66 73t237 58h-1290v1669h1718v-524h-995v-70h903v-485h-903v-66h995v-524h-207z" />
    <glyph glyph-name="eogonek" unicode="&#x119;" horiz-adv-x="2191" 
d="M2140 535q0 -69 -20.5 -128t-53 -100.5t-71.5 -79t-78 -71.5t-71.5 -69t-53 -81.5t-20.5 -99.5q0 -27 6 -37t20 -10q17 0 22 11.5t5 51.5v21h315v-9q0 -85 -73.5 -112t-292.5 -27q-81 0 -132 1t-96 4.5t-68 9.5t-40.5 16.5t-23 24t-5.5 34.5t12 39.5t30 33t49 31.5
t59 29.5t71.5 33t75.5 36.5q-276 -98 -610 -98q-1045 0 -1045 727v22q0 746 1053 746q503 0 769.5 -191.5t266.5 -545.5v-93h-1360q17 -206 332 -206q287 0 287 116v2h741v-32zM1100 1059q-289 0 -318 -182h633v14q0 74 -77 121t-238 47z" />
    <glyph glyph-name="Ecaron" unicode="&#x11a;" horiz-adv-x="1841" 
d="M981 1864h293l-92 -127h-500l-92 127h293l49 -45zM1790 524v-524h-1718v1669h1718v-524h-995v-70h903v-485h-903v-66h995z" />
    <glyph glyph-name="ecaron" unicode="&#x11b;" horiz-adv-x="2191" 
d="M1145 1669h293l-92 -127h-500l-92 127h293l49 -45zM2140 655h-1360q17 -206 332 -206q287 0 287 116v2h741v-12q0 -123 -67 -225.5t-195.5 -178.5t-328.5 -118.5t-453 -42.5q-1045 0 -1045 727v22q0 746 1053 746q503 0 769.5 -191.5t266.5 -545.5v-93zM1100 1059
q-289 0 -318 -182h633v14q0 74 -77 121t-238 47z" />
    <glyph glyph-name="Gcircumflex" unicode="&#x11c;" horiz-adv-x="2326" 
d="M1235 1737l-80 47l-80 -47h-291l121 127h500l121 -127h-291zM1106 -10q-555 0 -810 196t-255 633v58q0 802 1114 802q543 0 826.5 -189.5t283.5 -520.5v-6h-719v4q0 72 -104.5 117.5t-290.5 45.5q-204 0 -293.5 -68t-89.5 -243v-20q0 -155 90 -222t293 -67
q142 0 240.5 17.5t162.5 66.5h-403v297h1114v-891h-356l-68 287q-23 -49 -84 -99.5t-152 -95.5t-222.5 -73.5t-276.5 -28.5z" />
    <glyph glyph-name="gcircumflex" unicode="&#x11d;" horiz-adv-x="2215" 
d="M1182 1542l-80 47l-80 -47h-291l121 127h500l121 -127h-291zM1419 1475h725v-1035q0 -292 -257 -422.5t-808 -130.5q-455 0 -700.5 92.5t-245.5 282.5v17h668v-5q0 -66 65.5 -91t220.5 -25q178 0 255 44t77 140v492q0 -119 -33.5 -209t-105.5 -156.5t-192 -100.5
t-287 -34q-265 0 -430.5 65.5t-238.5 189t-73 314.5v12q0 143 40.5 247t128.5 177.5t230.5 109.5t342.5 36q167 0 287 -34t192 -100.5t105.5 -156.5t33.5 -209v490zM1419 915q0 81 -76.5 117.5t-238.5 36.5q-165 0 -242.5 -36.5t-77.5 -117.5v-12q0 -81 77.5 -117t242.5 -36
q162 0 238.5 36t76.5 117v12z" />
    <glyph glyph-name="Gbreve" unicode="&#x11e;" horiz-adv-x="2326" 
d="M1155 1823q53 0 53 41h289q-7 -45 -33 -71.5t-101.5 -43t-207.5 -16.5q-135 0 -211 16.5t-102 43t-33 71.5h289q0 -41 57 -41zM1106 -10q-555 0 -810 196t-255 633v58q0 802 1114 802q543 0 826.5 -189.5t283.5 -520.5v-6h-719v4q0 72 -104.5 117.5t-290.5 45.5
q-204 0 -293.5 -68t-89.5 -243v-20q0 -155 90 -222t293 -67q142 0 240.5 17.5t162.5 66.5h-403v297h1114v-891h-356l-68 287q-23 -49 -84 -99.5t-152 -95.5t-222.5 -73.5t-276.5 -28.5z" />
    <glyph glyph-name="gbreve" unicode="&#x11f;" horiz-adv-x="2215" 
d="M1102 1628q53 0 53 41h289q-7 -45 -33 -71.5t-101.5 -43t-207.5 -16.5q-135 0 -211 16.5t-102 43t-33 71.5h288q0 -41 58 -41zM1419 1475h725v-1035q0 -292 -257 -422.5t-808 -130.5q-455 0 -700.5 92.5t-245.5 282.5v17h668v-5q0 -66 65.5 -91t220.5 -25q178 0 255 44
t77 140v492q0 -119 -33.5 -209t-105.5 -156.5t-192 -100.5t-287 -34q-265 0 -430.5 65.5t-238.5 189t-73 314.5v12q0 143 40.5 247t128.5 177.5t230.5 109.5t342.5 36q167 0 287 -34t192 -100.5t105.5 -156.5t33.5 -209v490zM1419 915q0 81 -76.5 117.5t-238.5 36.5
q-165 0 -242.5 -36.5t-77.5 -117.5v-12q0 -81 77.5 -117t242.5 -36q162 0 238.5 36t76.5 117v12z" />
    <glyph glyph-name="Gdotaccent" unicode="&#x120;" horiz-adv-x="2326" 
d="M1155 1708q-94 0 -132 21.5t-38 70.5t38 70.5t132 21.5t132 -21.5t38 -70.5t-38 -70.5t-132 -21.5zM1106 -10q-555 0 -810 196t-255 633v58q0 802 1114 802q543 0 826.5 -189.5t283.5 -520.5v-6h-719v4q0 72 -104.5 117.5t-290.5 45.5q-204 0 -293.5 -68t-89.5 -243v-20
q0 -155 90 -222t293 -67q142 0 240.5 17.5t162.5 66.5h-403v297h1114v-891h-356l-68 287q-23 -49 -84 -99.5t-152 -95.5t-222.5 -73.5t-276.5 -28.5z" />
    <glyph glyph-name="gdotaccent" unicode="&#x121;" horiz-adv-x="2215" 
d="M1102 1513q-94 0 -132 22t-38 71t38 70.5t132 21.5t132 -21.5t38 -70.5t-38 -71t-132 -22zM1419 1475h725v-1035q0 -292 -257 -422.5t-808 -130.5q-455 0 -700.5 92.5t-245.5 282.5v17h668v-5q0 -66 65.5 -91t220.5 -25q178 0 255 44t77 140v492q0 -119 -33.5 -209
t-105.5 -156.5t-192 -100.5t-287 -34q-265 0 -430.5 65.5t-238.5 189t-73 314.5v12q0 143 40.5 247t128.5 177.5t230.5 109.5t342.5 36q167 0 287 -34t192 -100.5t105.5 -156.5t33.5 -209v490zM1419 915q0 81 -76.5 117.5t-238.5 36.5q-165 0 -242.5 -36.5t-77.5 -117.5v-12
q0 -81 77.5 -117t242.5 -36q162 0 238.5 36t76.5 117v12z" />
    <glyph glyph-name="Gcommaaccent" unicode="&#x122;" horiz-adv-x="2326" 
d="M1106 -10q-555 0 -810 196t-255 633v58q0 802 1114 802q543 0 826.5 -189.5t283.5 -520.5v-6h-719v4q0 72 -104.5 117.5t-290.5 45.5q-204 0 -293.5 -68t-89.5 -243v-20q0 -155 90 -222t293 -67q142 0 240.5 17.5t162.5 66.5h-403v297h1114v-891h-356l-68 287
q-23 -49 -84 -99.5t-152 -95.5t-222.5 -73.5t-276.5 -28.5zM1251 -205h-293l158 53h-172v115h463v-117z" />
    <glyph glyph-name="gcommaaccent" unicode="&#x123;" horiz-adv-x="2215" 
d="M1067 1688h289l-219 -60h213v-108h-465v108zM1419 1475h725v-1035q0 -292 -257 -422.5t-808 -130.5q-455 0 -700.5 92.5t-245.5 282.5v17h668v-5q0 -66 65.5 -91t220.5 -25q178 0 255 44t77 140v492q0 -119 -33.5 -209t-105.5 -156.5t-192 -100.5t-287 -34
q-265 0 -430.5 65.5t-238.5 189t-73 314.5v12q0 143 40.5 247t128.5 177.5t230.5 109.5t342.5 36q167 0 287 -34t192 -100.5t105.5 -156.5t33.5 -209v490zM1419 915q0 81 -76.5 117.5t-238.5 36.5q-165 0 -242.5 -36.5t-77.5 -117.5v-12q0 -81 77.5 -117t242.5 -36
q162 0 238.5 36t76.5 117v12z" />
    <glyph glyph-name="Hcircumflex" unicode="&#x124;" horiz-adv-x="2265" 
d="M1212 1737l-79 47l-80 -47h-291l121 127h499l121 -127h-291zM1470 0v549h-675v-549h-723v1669h723v-514h675v514h723v-1669h-723z" />
    <glyph glyph-name="hcircumflex" unicode="&#x125;" horiz-adv-x="2177" 
d="M1202 1737l-80 47l-80 -47h-290l120 127h500l121 -127h-291zM795 1669v-1042q0 234 34 394.5t110 265t195 151.5t293 47q185 0 311 -39t209.5 -128.5t120.5 -232t37 -352.5v-733h-723v567q0 153 -67.5 218t-231.5 65q-148 0 -218 -68.5t-70 -232.5v-549h-723v1669h723z
" />
    <glyph glyph-name="Hbar" unicode="&#x126;" horiz-adv-x="2265" 
d="M1470 0v549h-675v-549h-723v1282h-70v274h70v113h723v-113h675v113h723v-113h70v-274h-70v-1282h-723zM795 1155h675v127h-675v-127z" />
    <glyph glyph-name="hbar" unicode="&#x127;" horiz-adv-x="2177" 
d="M795 1669v-31h245v-208h-245v-803q0 234 34 394.5t110 265t195 151.5t293 47q185 0 311 -39t209.5 -128.5t120.5 -232t37 -352.5v-733h-723v567q0 153 -67.5 218t-231.5 65q-148 0 -218 -68.5t-70 -232.5v-549h-723v1669h723z" />
    <glyph glyph-name="Itilde" unicode="&#x128;" 
d="M791 1864q0 -73 -42.5 -102t-127.5 -29q-69 0 -144.5 20.5t-101.5 20.5q-24 0 -33.5 -9t-9.5 -28h-258q0 72 43 101.5t135 29.5q73 0 149 -18.5t91 -18.5q24 0 31 6.5t7 26.5h261zM72 0v1669h723v-1669h-723z" />
    <glyph glyph-name="itilde" unicode="&#x129;" 
d="M788 1669q0 -73 -42.5 -102t-127.5 -29q-69 0 -144 20.5t-101 20.5q-24 0 -33.5 -9t-9.5 -28h-258q0 72 43 101.5t135 29.5q73 0 148.5 -18.5t90.5 -18.5q24 0 31.5 7t7.5 26h260zM72 0v1475h723v-1475h-723z" />
    <glyph glyph-name="Imacron" unicode="&#x12a;" 
d="M84 1733v137h700v-137h-700zM72 0v1669h723v-1669h-723z" />
    <glyph glyph-name="imacron" unicode="&#x12b;" 
d="M82 1538v137h700v-137h-700zM72 0v1475h723v-1475h-723z" />
    <glyph glyph-name="Ibreve" unicode="&#x12c;" 
d="M434 1823q53 0 53 41h289q-7 -45 -33 -71.5t-101.5 -43t-207.5 -16.5q-135 0 -211 16.5t-102 43t-33 71.5h289q0 -41 57 -41zM72 0v1669h723v-1669h-723z" />
    <glyph glyph-name="ibreve" unicode="&#x12d;" 
d="M432 1628q53 0 53 41h289q-7 -45 -33 -71.5t-101.5 -43t-207.5 -16.5q-135 0 -211 16.5t-102 43t-33 71.5h289q0 -41 57 -41zM72 0v1475h723v-1475h-723z" />
    <glyph glyph-name="Iogonek" unicode="&#x12e;" 
d="M72 0v1669h723v-1669h-197q-113 -62 -137.5 -80t-24.5 -39q0 -22 25 -22q16 0 22 8.5t6 28.5v4h316v-4q0 -33 -33 -54.5t-120 -34t-232 -12.5q-112 0 -174.5 2.5t-103.5 11t-54.5 22.5t-13.5 38q0 47 66 73t237 58h-305z" />
    <glyph glyph-name="iogonek" unicode="&#x12f;" 
d="M72 1536v199h723v-199h-723zM72 0v1475h723v-1475h-197q-113 -62 -137.5 -80t-24.5 -39q0 -22 25 -22q16 0 22 8.5t6 28.5v4h316v-4q0 -33 -33 -54.5t-120 -34t-232 -12.5q-112 0 -174.5 2.5t-103.5 11t-54.5 22.5t-13.5 38q0 47 66 73t237 58h-305z" />
    <glyph glyph-name="Idotaccent" unicode="&#x130;" 
d="M434 1708q-94 0 -132 21.5t-38 70.5t38 70.5t132 21.5t132 -21.5t38 -70.5t-38 -70.5t-132 -21.5zM72 0v1669h723v-1669h-723z" />
    <glyph glyph-name="dotlessi" unicode="&#x131;" 
d="M72 0v1475h723v-1475h-723z" />
    <glyph glyph-name="IJ" unicode="&#x132;" horiz-adv-x="2244" 
d="M72 0v1669h723v-1669h-723zM887 0v625h184q193 0 286 109.5t93 334.5v600h723v-694q0 -510 -229 -742.5t-705 -232.5h-352z" />
    <glyph glyph-name="ij" unicode="&#x133;" horiz-adv-x="1820" 
d="M72 1536v199h723v-199h-723zM1026 1536v199h723v-199h-723zM72 0v1475h723v-1475h-723zM1749 434q0 -264 -143.5 -400t-407.5 -136h-301v579h25q104 0 104 109v889h723v-1041z" />
    <glyph glyph-name="Jcircumflex" unicode="&#x134;" horiz-adv-x="1378" 
d="M1024 1737l-80 47l-80 -47h-291l121 127h500l121 -127h-291zM20 0v625h185q193 0 286 109.5t93 334.5v600h723v-694q0 -510 -229 -742.5t-705 -232.5h-353z" />
    <glyph glyph-name="jcircumflex" unicode="&#x135;" horiz-adv-x="954" 
d="M600 1542l-80 47l-80 -47h-290l120 127h500l121 -127h-291zM883 434q0 -264 -143.5 -400t-407.5 -136h-301v579h24q105 0 105 109v889h723v-1041z" />
    <glyph glyph-name="Kcommaaccent" unicode="&#x136;" horiz-adv-x="2357" 
d="M72 0v1669h723v-622l657 622h870l-864 -799l879 -870h-910l-632 631v-631h-723zM1130 -205h-292l157 53h-172v115h463v-117z" />
    <glyph glyph-name="kcommaaccent" unicode="&#x137;" horiz-adv-x="2234" 
d="M72 0v1669h723v-913l526 719h905l-620 -742l628 -733h-913l-526 700v-700h-723zM1135 -205h-293l157 53h-172v115h463v-117z" />
    <glyph glyph-name="Lacute" unicode="&#x139;" horiz-adv-x="1818" 
d="M635 1737h-385l82 127h459zM72 0v1669h723v-1024h1003v-645h-1726z" />
    <glyph glyph-name="lacute" unicode="&#x13a;" 
d="M635 1737h-385l82 127h459zM72 0v1669h723v-1669h-723z" />
    <glyph glyph-name="Lcommaaccent" unicode="&#x13b;" horiz-adv-x="1818" 
d="M72 0v1669h723v-1024h1003v-645h-1726zM1030 -205h-293l158 53h-172v115h463v-117z" />
    <glyph glyph-name="lcommaaccent" unicode="&#x13c;" 
d="M72 0v1669h723v-1669h-723zM530 -205h-292l157 53h-172v115h463v-117z" />
    <glyph glyph-name="Lcaron" unicode="&#x13d;" horiz-adv-x="1818" 
d="M72 0v1669h723v-1024h1003v-645h-1726zM1100 1505h-234v164h326z" />
    <glyph glyph-name="lcaron" unicode="&#x13e;" 
d="M72 0v1669h723v-1669h-723zM1069 1505h-233v164h325z" />
    <glyph glyph-name="Ldot" unicode="&#x13f;" horiz-adv-x="1818" 
d="M72 0v1669h723v-1024h1003v-645h-1726zM1337 1040q-94 0 -132 22t-38 71t38 70.5t132 21.5t132 -21.5t38 -70.5t-38 -71t-132 -22z" />
    <glyph glyph-name="ldot" unicode="&#x140;" 
d="M72 0v1669h723v-1669h-723zM1004 727q-94 0 -132 21.5t-38 70.5t38 70.5t132 21.5t132 -21.5t38 -70.5t-38 -70.5t-132 -21.5z" />
    <glyph glyph-name="Lslash" unicode="&#x141;" horiz-adv-x="1818" 
d="M72 0v1669h723v-459l489 113v-231l-489 -115v-332h1003v-645h-1726z" />
    <glyph glyph-name="lslash" unicode="&#x142;" 
d="M72 0v979l-84 -21v203l84 21v487h723v-315l96 22v-198l-96 -23v-1155h-723z" />
    <glyph glyph-name="Nacute" unicode="&#x143;" horiz-adv-x="2267" 
d="M1335 1737h-385l82 127h459zM1567 0l-830 737v-737h-665v1669h628l830 -725v725h665v-1669h-628z" />
    <glyph glyph-name="nacute" unicode="&#x144;" horiz-adv-x="2177" 
d="M1286 1542h-385l82 127h459zM795 1475v-848q0 234 34 394.5t110 265t195 151.5t293 47q185 0 311 -39t209.5 -128.5t120.5 -232t37 -352.5v-733h-723v567q0 153 -67.5 218t-231.5 65q-148 0 -218 -68.5t-70 -232.5v-549h-723v1475h723z" />
    <glyph glyph-name="Ncommaaccent" unicode="&#x145;" horiz-adv-x="2267" 
d="M1567 0l-830 737v-737h-665v1669h628l830 -725v725h665v-1669h-628zM1235 -205h-293l158 53h-172v115h463v-117z" />
    <glyph glyph-name="ncommaaccent" unicode="&#x146;" horiz-adv-x="2177" 
d="M795 1475v-848q0 234 34 394.5t110 265t195 151.5t293 47q185 0 311 -39t209.5 -128.5t120.5 -232t37 -352.5v-733h-723v567q0 153 -67.5 218t-231.5 65q-148 0 -218 -68.5t-70 -232.5v-549h-723v1475h723zM1186 -205h-293l158 53h-172v115h462v-117z" />
    <glyph glyph-name="Ncaron" unicode="&#x147;" horiz-adv-x="2267" 
d="M1188 1864h293l-92 -127h-500l-92 127h293l49 -45zM1567 0l-830 737v-737h-665v1669h628l830 -725v725h665v-1669h-628z" />
    <glyph glyph-name="ncaron" unicode="&#x148;" horiz-adv-x="2177" 
d="M1139 1669h293l-93 -127h-499l-92 127h292l50 -45zM795 1475v-848q0 234 34 394.5t110 265t195 151.5t293 47q185 0 311 -39t209.5 -128.5t120.5 -232t37 -352.5v-733h-723v567q0 153 -67.5 218t-231.5 65q-148 0 -218 -68.5t-70 -232.5v-549h-723v1475h723z" />
    <glyph glyph-name="Eng" unicode="&#x14a;" horiz-adv-x="2267" 
d="M2195 455q0 -292 -159 -424.5t-490 -132.5h-383v508h342q19 0 28 6t9 24v4l-805 457v-897h-665v1669h628l830 -498v498h665v-1214z" />
    <glyph glyph-name="eng" unicode="&#x14b;" horiz-adv-x="2177" 
d="M1069 -113v580h27q286 0 286 176v10q0 107 -67.5 152t-231.5 45q-54 0 -94.5 -7t-78.5 -26.5t-62 -52.5t-38.5 -87t-14.5 -128v-549h-723v1475h723v-848q0 234 34 394.5t110 265t195 151.5t293 47q185 0 311 -39t209.5 -128.5t120.5 -232t37 -352.5v-207
q0 -314 -191 -476.5t-544 -162.5h-301z" />
    <glyph glyph-name="Omacron" unicode="&#x14c;" horiz-adv-x="2301" 
d="M807 1733v137h700v-137h-700zM2261 782q0 -386 -271 -589t-833 -203q-1116 0 -1116 792v105q0 792 1116 792q562 0 833 -203t271 -589v-105zM1534 844q0 125 -85 177t-298 52t-298 -52t-85 -177v-19q0 -125 85 -177t298 -52t298 52t85 177v19z" />
    <glyph glyph-name="omacron" unicode="&#x14d;" horiz-adv-x="2170" 
d="M735 1538v137h701v-137h-701zM1085 1485q521 0 778 -190.5t257 -549.5v-16q0 -359 -257 -549t-778 -190t-777.5 190t-256.5 549v16q0 359 256.5 549.5t777.5 190.5zM1085 555q163 0 235.5 40t72.5 138v8q0 98 -72.5 138.5t-235.5 40.5t-235 -40.5t-72 -138.5v-8
q0 -98 72 -138t235 -40z" />
    <glyph glyph-name="Obreve" unicode="&#x14e;" horiz-adv-x="2301" 
d="M1157 1823q53 0 53 41h289q-7 -45 -33 -71.5t-101.5 -43t-207.5 -16.5q-135 0 -211 16.5t-102 43t-33 71.5h289q0 -41 57 -41zM2261 782q0 -386 -271 -589t-833 -203q-1116 0 -1116 792v105q0 792 1116 792q562 0 833 -203t271 -589v-105zM1534 844q0 125 -85 177
t-298 52t-298 -52t-85 -177v-19q0 -125 85 -177t298 -52t298 52t85 177v19z" />
    <glyph glyph-name="obreve" unicode="&#x14f;" horiz-adv-x="2170" 
d="M1085 1628q54 0 54 41h288q-7 -45 -33 -71.5t-101.5 -43t-207.5 -16.5q-135 0 -211 16.5t-102 43t-33 71.5h289q0 -41 57 -41zM1085 1485q521 0 778 -190.5t257 -549.5v-16q0 -359 -257 -549t-778 -190t-777.5 190t-256.5 549v16q0 359 256.5 549.5t777.5 190.5z
M1085 555q163 0 235.5 40t72.5 138v8q0 98 -72.5 138.5t-235.5 40.5t-235 -40.5t-72 -138.5v-8q0 -98 72 -138t235 -40z" />
    <glyph glyph-name="Ohungarumlaut" unicode="&#x150;" horiz-adv-x="2301" 
d="M1094 1737h-293l127 127h338zM1477 1737h-293l127 127h338zM2261 782q0 -386 -271 -589t-833 -203q-1116 0 -1116 792v105q0 792 1116 792q562 0 833 -203t271 -589v-105zM1534 844q0 125 -85 177t-298 52t-298 -52t-85 -177v-19q0 -125 85 -177t298 -52t298 52t85 177
v19z" />
    <glyph glyph-name="ohungarumlaut" unicode="&#x151;" horiz-adv-x="2170" 
d="M1022 1542h-293l127 127h338zM1405 1542h-293l127 127h338zM1085 1485q521 0 778 -190.5t257 -549.5v-16q0 -359 -257 -549t-778 -190t-777.5 190t-256.5 549v16q0 359 256.5 549.5t777.5 190.5zM1085 555q163 0 235.5 40t72.5 138v8q0 98 -72.5 138.5t-235.5 40.5
t-235 -40.5t-72 -138.5v-8q0 -98 72 -138t235 -40z" />
    <glyph glyph-name="OE" unicode="&#x152;" horiz-adv-x="3258" 
d="M1169 0q-408 0 -656.5 87t-360 262t-111.5 458v80q0 275 111.5 444.5t360 253.5t656.5 84h2018v-524h-996v-70h904v-485h-904v-66h996v-524h-2018zM1118 590h412v495h-412q-186 0 -266 -47.5t-80 -173.5v-26q0 -144 79.5 -196t266.5 -52z" />
    <glyph glyph-name="oe" unicode="&#x153;" horiz-adv-x="3532" 
d="M3482 655h-1360q17 -206 332 -206q286 0 286 116v2h742v-12q0 -122 -67 -225t-195.5 -179t-329 -118.5t-453.5 -42.5q-381 0 -686 137q-293 -137 -661 -137q-519 0 -779 191t-260 548v16q0 359 256.5 549.5t777.5 190.5q199 0 359.5 -33.5t312.5 -103.5q305 137 688 137
q503 0 770 -191.5t267 -545.5v-93zM2441 1059q-288 0 -317 -182h633v14q0 74 -77 121t-239 47zM1085 555q163 0 235.5 40t72.5 138v8q0 98 -72.5 138.5t-235.5 40.5t-235 -40.5t-72 -138.5v-8q0 -98 72 -138t235 -40z" />
    <glyph glyph-name="Racute" unicode="&#x154;" horiz-adv-x="2146" 
d="M1290 1737h-385l82 127h459zM1354 0l-197 410h-45h-317v-410h-723v1669h1077q342 0 551.5 -69.5t301 -204t91.5 -348.5v-43q0 -323 -254 -463l287 -541h-772zM1167 1157h-372v-268h372q102 0 150.5 31.5t48.5 101.5v8q0 71 -47 99t-152 28z" />
    <glyph glyph-name="racute" unicode="&#x155;" horiz-adv-x="1574" 
d="M1159 1542h-385l82 127h459zM795 565q0 336 62.5 536t197.5 292t362 92q80 0 127 -12v-660q-112 21 -219 23t-203 -18.5t-169 -62t-115.5 -112t-42.5 -162.5v-481h-723v1475h723v-910z" />
    <glyph glyph-name="Rcommaaccent" unicode="&#x156;" horiz-adv-x="2146" 
d="M1354 0l-197 410h-45h-317v-410h-723v1669h1077q342 0 551.5 -69.5t301 -204t91.5 -348.5v-43q0 -323 -254 -463l287 -541h-772zM1167 1157h-372v-268h372q102 0 150.5 31.5t48.5 101.5v8q0 71 -47 99t-152 28zM1190 -205h-293l158 53h-172v115h463v-117z" />
    <glyph glyph-name="rcommaaccent" unicode="&#x157;" horiz-adv-x="1574" 
d="M795 565q0 336 62.5 536t197.5 292t362 92q80 0 127 -12v-660q-112 21 -219 23t-203 -18.5t-169 -62t-115.5 -112t-42.5 -162.5v-481h-723v1475h723v-910zM512 -205h-293l158 53h-172v115h463v-117z" />
    <glyph glyph-name="Rcaron" unicode="&#x158;" horiz-adv-x="2146" 
d="M1143 1864h293l-93 -127h-499l-92 127h292l50 -45zM1354 0l-197 410h-45h-317v-410h-723v1669h1077q342 0 551.5 -69.5t301 -204t91.5 -348.5v-43q0 -323 -254 -463l287 -541h-772zM1167 1157h-372v-268h372q102 0 150.5 31.5t48.5 101.5v8q0 71 -47 99t-152 28z" />
    <glyph glyph-name="rcaron" unicode="&#x159;" horiz-adv-x="1574" 
d="M1012 1669h293l-93 -127h-499l-92 127h292l50 -45zM795 565q0 336 62.5 536t197.5 292t362 92q80 0 127 -12v-660q-112 21 -219 23t-203 -18.5t-169 -62t-115.5 -112t-42.5 -162.5v-481h-723v1475h723v-910z" />
    <glyph glyph-name="Sacute" unicode="&#x15a;" horiz-adv-x="2265" 
d="M1319 1737h-385l82 127h459zM643 526q0 -20 17 -34t59.5 -25.5t122.5 -17t198 -5.5t201 3.5t129 9t71 14.5t31.5 17t6.5 20v4q0 17 -12.5 25.5t-59.5 16t-142.5 10.5t-258.5 3q-370 0 -586.5 56.5t-308 170t-91.5 302.5v16q0 286 265.5 426.5t836.5 140.5
q537 0 809.5 -145.5t272.5 -411.5v-16h-602v2q0 111 -439 111q-111 0 -189 -4t-119 -9.5t-62.5 -15.5t-26 -18t-4.5 -21v-2q0 -19 31.5 -29t138 -16t313.5 -6q521 0 760.5 -129t239.5 -400v-16q0 -143 -60 -246t-192.5 -175t-348 -107t-522.5 -35q-545 0 -813 123t-268 389
v26h602v-2z" />
    <glyph glyph-name="sacute" unicode="&#x15b;" horiz-adv-x="2037" 
d="M1221 1542h-385l82 127h458zM1997 469q0 -93 -30.5 -165.5t-101.5 -132.5t-183 -99.5t-278.5 -60.5t-385.5 -21q-199 0 -350.5 16t-271.5 52t-197 93.5t-117 141t-41 194.5v13h682v-17q0 -104 307 -104q110 0 173 8t85.5 22t22.5 37v5q0 24 -19 37.5t-90 22.5t-205 9
q-179 0 -311 8t-243 27.5t-183.5 52t-123 82t-73 116t-22.5 155.5v20q0 504 977 504q496 0 737.5 -124t241.5 -384v-12h-686v24q0 96 -305 96q-287 0 -287 -67v-6q0 -24 19.5 -37t93.5 -22t217 -9q196 0 339 -10t250.5 -34t175 -58.5t109.5 -88.5t58 -119t16 -155v-10z" />
    <glyph glyph-name="Scircumflex" unicode="&#x15c;" horiz-adv-x="2265" 
d="M1202 1737l-80 47l-80 -47h-290l120 127h500l121 -127h-291zM643 526q0 -20 17 -34t59.5 -25.5t122.5 -17t198 -5.5t201 3.5t129 9t71 14.5t31.5 17t6.5 20v4q0 17 -12.5 25.5t-59.5 16t-142.5 10.5t-258.5 3q-370 0 -586.5 56.5t-308 170t-91.5 302.5v16
q0 286 265.5 426.5t836.5 140.5q537 0 809.5 -145.5t272.5 -411.5v-16h-602v2q0 111 -439 111q-111 0 -189 -4t-119 -9.5t-62.5 -15.5t-26 -18t-4.5 -21v-2q0 -19 31.5 -29t138 -16t313.5 -6q521 0 760.5 -129t239.5 -400v-16q0 -143 -60 -246t-192.5 -175t-348 -107
t-522.5 -35q-545 0 -813 123t-268 389v26h602v-2z" />
    <glyph glyph-name="scircumflex" unicode="&#x15d;" horiz-adv-x="2037" 
d="M1104 1542l-80 47l-80 -47h-291l121 127h500l121 -127h-291zM1997 469q0 -93 -30.5 -165.5t-101.5 -132.5t-183 -99.5t-278.5 -60.5t-385.5 -21q-199 0 -350.5 16t-271.5 52t-197 93.5t-117 141t-41 194.5v13h682v-17q0 -104 307 -104q110 0 173 8t85.5 22t22.5 37v5
q0 24 -19 37.5t-90 22.5t-205 9q-179 0 -311 8t-243 27.5t-183.5 52t-123 82t-73 116t-22.5 155.5v20q0 504 977 504q496 0 737.5 -124t241.5 -384v-12h-686v24q0 96 -305 96q-287 0 -287 -67v-6q0 -24 19.5 -37t93.5 -22t217 -9q196 0 339 -10t250.5 -34t175 -58.5
t109.5 -88.5t58 -119t16 -155v-10z" />
    <glyph glyph-name="Scedilla" unicode="&#x15e;" horiz-adv-x="2265" 
d="M643 526q0 -20 17 -34t59.5 -25.5t122.5 -17t198 -5.5t201 3.5t129 9t71 14.5t31.5 17t6.5 20v4q0 17 -12.5 25.5t-59.5 16t-142.5 10.5t-258.5 3q-370 0 -586.5 56.5t-308 170t-91.5 302.5v16q0 286 265.5 426.5t836.5 140.5q537 0 809.5 -145.5t272.5 -411.5v-16h-602
v2q0 111 -439 111q-111 0 -189 -4t-119 -9.5t-62.5 -15.5t-26 -18t-4.5 -21v-2q0 -19 31.5 -29t138 -16t313.5 -6q521 0 760.5 -129t239.5 -400v-16q0 -177 -93 -294.5t-306.5 -186t-559.5 -80.5l-141 -53q78 18 151 18q109 0 155 -18t46 -62q0 -34 -30 -51t-104 -24
t-222 -7q-211 0 -293 17t-82 61v2h321v-2q0 -14 23 -14q25 0 25 24q0 27 -25 27q-17 0 -23 -14h-301l271 94q-512 8 -764 130.5t-252 381.5v26h602v-2z" />
    <glyph glyph-name="scedilla" unicode="&#x15f;" horiz-adv-x="2037" 
d="M1042 -205q-211 0 -292.5 17t-81.5 61v2h321v-2q0 -14 23 -14q24 0 24 24q0 27 -24 27q-17 0 -23 -14h-301l270 94q-469 6 -692.5 120.5t-224.5 376.5v13h682v-17q0 -104 307 -104q110 0 173 8t85.5 22t22.5 37v5q0 24 -19 37.5t-90 22.5t-205 9q-179 0 -311 8t-243 27.5
t-183.5 52t-123 82t-73 116t-22.5 155.5v20q0 504 977 504q496 0 737.5 -124t241.5 -384v-12h-686v24q0 96 -305 96q-287 0 -287 -67v-6q0 -24 19.5 -37t93.5 -22t217 -9q196 0 339 -10t250.5 -34t175 -58.5t109.5 -88.5t58 -119t16 -155v-10q0 -107 -41.5 -187.5t-134 -143
t-250 -98.5t-381.5 -46l-143 -55q78 18 151 18q109 0 155 -18t46 -62q0 -34 -30.5 -51t-104.5 -24t-222 -7z" />
    <glyph glyph-name="Scaron" unicode="&#x160;" horiz-adv-x="2265" 
d="M1171 1864h293l-92 -127h-500l-92 127h293l49 -45zM643 526q0 -20 17 -34t59.5 -25.5t122.5 -17t198 -5.5t201 3.5t129 9t71 14.5t31.5 17t6.5 20v4q0 17 -12.5 25.5t-59.5 16t-142.5 10.5t-258.5 3q-370 0 -586.5 56.5t-308 170t-91.5 302.5v16q0 286 265.5 426.5
t836.5 140.5q537 0 809.5 -145.5t272.5 -411.5v-16h-602v2q0 111 -439 111q-111 0 -189 -4t-119 -9.5t-62.5 -15.5t-26 -18t-4.5 -21v-2q0 -19 31.5 -29t138 -16t313.5 -6q521 0 760.5 -129t239.5 -400v-16q0 -143 -60 -246t-192.5 -175t-348 -107t-522.5 -35
q-545 0 -813 123t-268 389v26h602v-2z" />
    <glyph glyph-name="scaron" unicode="&#x161;" horiz-adv-x="2037" 
d="M1073 1669h293l-92 -127h-500l-92 127h293l49 -45zM1997 469q0 -93 -30.5 -165.5t-101.5 -132.5t-183 -99.5t-278.5 -60.5t-385.5 -21q-199 0 -350.5 16t-271.5 52t-197 93.5t-117 141t-41 194.5v13h682v-17q0 -104 307 -104q110 0 173 8t85.5 22t22.5 37v5
q0 24 -19 37.5t-90 22.5t-205 9q-179 0 -311 8t-243 27.5t-183.5 52t-123 82t-73 116t-22.5 155.5v20q0 504 977 504q496 0 737.5 -124t241.5 -384v-12h-686v24q0 96 -305 96q-287 0 -287 -67v-6q0 -24 19.5 -37t93.5 -22t217 -9q196 0 339 -10t250.5 -34t175 -58.5
t109.5 -88.5t58 -119t16 -155v-10z" />
    <glyph glyph-name="Tcaron" unicode="&#x164;" horiz-adv-x="1921" 
d="M1010 1864h293l-93 -127h-499l-93 127h293l50 -45zM1890 1067h-567v-1067h-723v1067h-569v602h1859v-602z" />
    <glyph glyph-name="tcaron" unicode="&#x165;" horiz-adv-x="1296" 
d="M1225 1507h-234v164h326zM20 897v578h207v167h725v-167h324v-578h-324v-897h-725v897h-207z" />
    <glyph glyph-name="Tbar" unicode="&#x166;" horiz-adv-x="1921" 
d="M1686 565h-363v-565h-723v565h-362v191h362v311h-569v602h1859v-602h-567v-311h363v-191z" />
    <glyph glyph-name="tbar" unicode="&#x167;" horiz-adv-x="1296" 
d="M47 479v209h180v209h-207v578h207v167h725v-167h324v-578h-324v-209h242v-209h-242v-479h-725v479h-180z" />
    <glyph glyph-name="Utilde" unicode="&#x168;" horiz-adv-x="2265" 
d="M1489 1864q0 -73 -42.5 -102t-127.5 -29q-69 0 -144.5 20.5t-101.5 20.5q-24 0 -33.5 -9t-9.5 -28h-258q0 72 43 101.5t135 29.5q73 0 149 -18.5t91 -18.5q24 0 31.5 7t7.5 26h260zM1470 1669h723v-573q0 -213 -23 -372.5t-75.5 -285t-132.5 -209t-200.5 -138t-273 -78
t-355.5 -23.5t-355.5 23.5t-273 78t-201 138t-133 208.5t-75.5 285t-23 373v573h723v-543q0 -203 36.5 -318t107.5 -159.5t194 -44.5q92 0 153 24t103.5 83.5t61.5 160t19 254.5v543z" />
    <glyph glyph-name="utilde" unicode="&#x169;" horiz-adv-x="2177" 
d="M1444 1669q0 -73 -42.5 -102t-127.5 -29q-69 0 -144.5 20.5t-101.5 20.5q-24 0 -33.5 -9t-9.5 -28h-258q0 72 43 101.5t135 29.5q73 0 149 -18.5t91 -18.5q24 0 31.5 7t7.5 26h260zM1382 0v848q0 -234 -34 -394.5t-110 -265t-195 -151.5t-293 -47q-247 0 -393 72
t-215.5 235.5t-69.5 443.5v734h723v-568q0 -153 67 -217.5t232 -64.5q54 0 94.5 7t78.5 26.5t62 52.5t38.5 87t14.5 128v549h723v-1475h-723z" />
    <glyph glyph-name="Umacron" unicode="&#x16a;" horiz-adv-x="2265" 
d="M782 1733v137h701v-137h-701zM1470 1669h723v-573q0 -213 -23 -372.5t-75.5 -285t-132.5 -209t-200.5 -138t-273 -78t-355.5 -23.5t-355.5 23.5t-273 78t-201 138t-133 208.5t-75.5 285t-23 373v573h723v-543q0 -203 36.5 -318t107.5 -159.5t194 -44.5q92 0 153 24
t103.5 83.5t61.5 160t19 254.5v543z" />
    <glyph glyph-name="umacron" unicode="&#x16b;" horiz-adv-x="2177" 
d="M737 1538v137h701v-137h-701zM1382 0v848q0 -234 -34 -394.5t-110 -265t-195 -151.5t-293 -47q-247 0 -393 72t-215.5 235.5t-69.5 443.5v734h723v-568q0 -153 67 -217.5t232 -64.5q54 0 94.5 7t78.5 26.5t62 52.5t38.5 87t14.5 128v549h723v-1475h-723z" />
    <glyph glyph-name="Ubreve" unicode="&#x16c;" horiz-adv-x="2265" 
d="M1133 1823q53 0 53 41h289q-7 -45 -33 -71.5t-101.5 -43t-207.5 -16.5q-135 0 -211 16.5t-102.5 43t-33.5 71.5h289q0 -41 58 -41zM1470 1669h723v-573q0 -213 -23 -372.5t-75.5 -285t-132.5 -209t-200.5 -138t-273 -78t-355.5 -23.5t-355.5 23.5t-273 78t-201 138
t-133 208.5t-75.5 285t-23 373v573h723v-543q0 -203 36.5 -318t107.5 -159.5t194 -44.5q92 0 153 24t103.5 83.5t61.5 160t19 254.5v543z" />
    <glyph glyph-name="ubreve" unicode="&#x16d;" horiz-adv-x="2177" 
d="M1087 1628q54 0 54 41h289q-7 -45 -33.5 -71.5t-102 -43t-207.5 -16.5q-135 0 -211 16.5t-102 43t-33 71.5h289q0 -41 57 -41zM1382 0v848q0 -234 -34 -394.5t-110 -265t-195 -151.5t-293 -47q-247 0 -393 72t-215.5 235.5t-69.5 443.5v734h723v-568q0 -153 67 -217.5
t232 -64.5q54 0 94.5 7t78.5 26.5t62 52.5t38.5 87t14.5 128v549h723v-1475h-723z" />
    <glyph glyph-name="Uring" unicode="&#x16e;" horiz-adv-x="2265" 
d="M1133 1634q-252 0 -252 115q0 119 252 119q251 0 251 -119q0 -59 -61 -87t-190 -28zM1133 1679q84 0 84 66q0 41 -20.5 58.5t-63.5 17.5t-63.5 -17.5t-20.5 -58.5q0 -66 84 -66zM1470 1669h723v-573q0 -213 -23 -372.5t-75.5 -285t-132.5 -209t-200.5 -138t-273 -78
t-355.5 -23.5t-355.5 23.5t-273 78t-201 138t-133 208.5t-75.5 285t-23 373v573h723v-543q0 -203 36.5 -318t107.5 -159.5t194 -44.5q92 0 153 24t103.5 83.5t61.5 160t19 254.5v543z" />
    <glyph glyph-name="uring" unicode="&#x16f;" horiz-adv-x="2177" 
d="M1087 1440q-129 0 -190 27.5t-61 86.5q0 119 251 119q252 0 252 -119q0 -58 -61.5 -86t-190.5 -28zM1087 1485q84 0 84 65q0 41 -20.5 58.5t-63.5 17.5t-63 -17t-20 -59q0 -65 83 -65zM1382 0v848q0 -234 -34 -394.5t-110 -265t-195 -151.5t-293 -47q-247 0 -393 72
t-215.5 235.5t-69.5 443.5v734h723v-568q0 -153 67 -217.5t232 -64.5q54 0 94.5 7t78.5 26.5t62 52.5t38.5 87t14.5 128v549h723v-1475h-723z" />
    <glyph glyph-name="Uhungarumlaut" unicode="&#x170;" horiz-adv-x="2265" 
d="M1069 1737h-293l127 127h338zM1452 1737h-293l127 127h338zM1470 1669h723v-573q0 -213 -23 -372.5t-75.5 -285t-132.5 -209t-200.5 -138t-273 -78t-355.5 -23.5t-355.5 23.5t-273 78t-201 138t-133 208.5t-75.5 285t-23 373v573h723v-543q0 -203 36.5 -318t107.5 -159.5
t194 -44.5q92 0 153 24t103.5 83.5t61.5 160t19 254.5v543z" />
    <glyph glyph-name="uhungarumlaut" unicode="&#x171;" horiz-adv-x="2177" 
d="M1024 1542h-293l127 127h338zM1407 1542h-293l127 127h338zM1382 0v848q0 -234 -34 -394.5t-110 -265t-195 -151.5t-293 -47q-247 0 -393 72t-215.5 235.5t-69.5 443.5v734h723v-568q0 -153 67 -217.5t232 -64.5q54 0 94.5 7t78.5 26.5t62 52.5t38.5 87t14.5 128v549h723
v-1475h-723z" />
    <glyph glyph-name="Uogonek" unicode="&#x172;" horiz-adv-x="2265" 
d="M1470 1669h723v-573q0 -198 -20 -350t-65 -274t-114.5 -206.5t-172 -143t-234 -89t-303.5 -39.5q-104 -57 -126.5 -74.5t-22.5 -38.5q0 -22 24 -22q17 0 23 8.5t6 28.5v4h315v-4q0 -33 -33 -54.5t-120 -34t-232 -12.5q-112 0 -174.5 2.5t-103.5 11t-54.5 22.5t-13.5 38
q0 44 57.5 69.5t200.5 53.5q-182 6 -320 34t-246.5 85t-181.5 141.5t-120.5 207.5t-68.5 278t-21 358v573h723v-543q0 -203 36.5 -318t107.5 -159.5t194 -44.5q92 0 153 24t103.5 83.5t61.5 160t19 254.5v543z" />
    <glyph glyph-name="uogonek" unicode="&#x173;" horiz-adv-x="2177" 
d="M1382 0v848q0 -234 -34 -394.5t-110 -265t-195 -151.5t-293 -47q-247 0 -393 72t-215.5 235.5t-69.5 443.5v734h723v-568q0 -153 67 -217.5t232 -64.5q54 0 94.5 7t78.5 26.5t62 52.5t38.5 87t14.5 128v549h723v-1475h-217q-113 -62 -137.5 -80t-24.5 -39q0 -22 25 -22
q17 0 23 8.5t6 28.5v4h315v-4q0 -33 -33 -54.5t-120 -34t-232 -12.5q-112 0 -174.5 2.5t-103.5 11t-54.5 22.5t-13.5 38q0 47 66 73t237 58h-285z" />
    <glyph glyph-name="Wcircumflex" unicode="&#x174;" horiz-adv-x="3315" 
d="M1739 1737l-80 47l-80 -47h-291l121 127h500l121 -127h-291zM451 0l-435 1669h764l191 -825l291 825h868l268 -751l168 751h733l-440 -1669h-858l-340 985l-352 -985h-858z" />
    <glyph glyph-name="wcircumflex" unicode="&#x175;" horiz-adv-x="2887" 
d="M1526 1542l-80 47l-80 -47h-291l121 127h500l121 -127h-291zM403 0l-387 1475h725l154 -637l178 637h742l178 -633l145 633h733l-389 -1475h-878l-156 690l-166 -690h-879z" />
    <glyph glyph-name="Ycircumflex" unicode="&#x176;" horiz-adv-x="2185" 
d="M1174 1737l-80 47l-80 -47h-291l121 127h499l121 -127h-290zM727 623l-727 1046h793l297 -465l299 465h796l-735 -1051v-618h-723v623z" />
    <glyph glyph-name="ycircumflex" unicode="&#x177;" horiz-adv-x="2158" 
d="M1178 1542l-80 47l-80 -47h-291l121 127h500l120 -127h-290zM1659 463q-49 -99 -89.5 -168.5t-92 -131t-99.5 -100t-121 -70.5t-146.5 -48.5t-185.5 -28t-229.5 -15t-287.5 -3.5v536h378q57 0 87.5 14.5t58.5 53.5l10 14h-383l-559 959h815l293 -607l285 607h766z" />
    <glyph glyph-name="Ydieresis" unicode="&#x178;" horiz-adv-x="2185" 
d="M709 1716v170h340v-170h-340zM1479 1716h-340v170h340v-170zM727 623l-727 1046h793l297 -465l299 465h796l-735 -1051v-618h-723v623z" />
    <glyph glyph-name="Zacute" unicode="&#x179;" horiz-adv-x="2113" 
d="M1253 1737h-385l82 127h459zM45 0v510l924 635h-887v524h1966v-510l-864 -631h884v-528h-2023z" />
    <glyph glyph-name="zacute" unicode="&#x17a;" horiz-adv-x="1896" 
d="M1141 1542h-385l82 127h458zM51 0v451l807 503h-756v521h1743v-451l-725 -504h725v-520h-1794z" />
    <glyph glyph-name="Zdotaccent" unicode="&#x17b;" horiz-adv-x="2113" 
d="M1057 1708q-94 0 -132 21.5t-38 70.5t38 70.5t132 21.5t132 -21.5t38 -70.5t-38 -70.5t-132 -21.5zM45 0v510l924 635h-887v524h1966v-510l-864 -631h884v-528h-2023z" />
    <glyph glyph-name="zdotaccent" unicode="&#x17c;" horiz-adv-x="1896" 
d="M944 1513q-94 0 -132 22t-38 71t38 70.5t132 21.5t132 -21.5t38 -70.5t-38 -71t-132 -22zM51 0v451l807 503h-756v521h1743v-451l-725 -504h725v-520h-1794z" />
    <glyph glyph-name="Zcaron" unicode="&#x17d;" horiz-adv-x="2113" 
d="M1106 1864h293l-92 -127h-500l-92 127h293l49 -45zM45 0v510l924 635h-887v524h1966v-510l-864 -631h884v-528h-2023z" />
    <glyph glyph-name="zcaron" unicode="&#x17e;" horiz-adv-x="1896" 
d="M993 1669h293l-92 -127h-500l-92 127h293l49 -45zM51 0v451l807 503h-756v521h1743v-451l-725 -504h725v-520h-1794z" />
    <glyph glyph-name="Schwa" unicode="&#x18f;" horiz-adv-x="2312" 
d="M2271 840q0 -850 -1124 -850q-537 0 -821.5 218t-284.5 621v107h1479q-9 113 -104 167t-279 54q-163 0 -244.5 -34.5t-81.5 -96.5v-2h-770v14q0 139 71.5 256t208.5 203t350.5 134t483.5 48q569 0 842.5 -204t273.5 -611v-24zM793 668q0 -89 90 -141t268 -52
q330 0 367 209h-725v-16z" />
    <glyph glyph-name="florin" unicode="&#x192;" horiz-adv-x="2314" 
d="M936 967v-39h522v-160h-522v-870h-737v870h-183v160h183v28q0 353 265.5 538t780.5 185q318 0 551.5 -74.5t360.5 -219t127 -345.5v-59h-742v16q0 62 -71 91.5t-224 29.5q-162 0 -236.5 -41t-74.5 -110z" />
    <glyph glyph-name="Aringacute" unicode="&#x1fa;" horiz-adv-x="2252" 
d="M1313 1907h-385l82 127h458zM1546 0l-86 260h-669l-86 -260h-685l553 1669h351q-50 27 -50 80q0 119 252 119t252 -119q0 -53 -49 -80h346l557 -1669h-686zM1126 1679q84 0 84 66q0 41 -20.5 58.5t-63.5 17.5t-63.5 -17.5t-20.5 -58.5q0 -66 84 -66zM926 670h399
l-199 604z" />
    <glyph glyph-name="aringacute" unicode="&#x1fb;" horiz-adv-x="2134" 
d="M1276 1716h-385l82 127h459zM838 895v-14h-738v20q0 523 785 578q-41 27 -41 75q0 119 252 119t252 -119q0 -50 -43 -77q393 -28 575 -168t182 -418v-891h-723v422q0 -432 -604 -432q-352 0 -528 93t-176 292v24q0 86 35.5 154t93.5 112t146.5 77.5t179 51.5t208 32.5
t216.5 22t221.5 19t207.5 23.5v16q0 82 -256 82q-138 0 -191.5 -22.5t-53.5 -71.5zM1096 1485q84 0 84 65q0 41 -20.5 58.5t-63.5 17.5t-63.5 -17.5t-20.5 -58.5q0 -65 84 -65zM752 397q0 -43 47.5 -62.5t161.5 -19.5q85 0 147.5 7.5t118 26.5t84 57t28.5 94v49h-1h-1h-1h-1
h-1h-1l-1 -1h-1h-1h-1h-1h-1h-1h-1h-1h-1h-1h-1h-1h-1l-2 -1q-331 -24 -428 -44q-132 -33 -137 -91v-15z" />
    <glyph glyph-name="AEacute" unicode="&#x1fc;" horiz-adv-x="3194" 
d="M1982 1737h-385l82 127h459zM0 0l993 1669h2151v-524h-996v-70h904v-485h-904v-66h996v-524h-1719v461h-471l-262 -461h-692zM1184 866h241v424z" />
    <glyph glyph-name="aeacute" unicode="&#x1fd;" horiz-adv-x="3479" 
d="M1948 1542h-385l82 127h458zM3428 555q0 -123 -67 -225.5t-195.5 -178.5t-328.5 -118.5t-453 -42.5q-298 0 -507.5 58t-327.5 163.5t-169 261.5q-9 -137 -51.5 -230.5t-125 -149t-195.5 -79.5t-273 -24q-352 0 -528 93t-176 292v24q0 86 35.5 154t93.5 112t146.5 77.5
t179 51.5t208 32.5t216.5 22t221.5 19t207.5 23.5v16q0 82 -256 82q-138 0 -191.5 -22.5t-53.5 -71.5v-14h-738v20q0 584 944 584q427 0 707 -125q295 125 641 125q503 0 769.5 -191.5t266.5 -545.5v-93h-1360q17 -206 332 -206q287 0 287 116v2h741v-12zM2388 1059
q-288 0 -317 -182h632v14q0 74 -77 121t-238 47zM752 397q0 -43 47.5 -62.5t161.5 -19.5q214 0 305.5 40.5t105.5 140.5q-2 9 -6 27.5t-6 27.5q-345 -26 -435 -42q-155 -26 -171 -81q-2 -8 -2 -16v-15z" />
    <glyph glyph-name="Oslashacute" unicode="&#x1fe;" horiz-adv-x="2310" 
d="M1354 1737h-385l82 127h458zM41 0l256 203q-256 204 -256 637v47q0 792 1116 792q461 0 737 -141l168 131h176l-243 -194q274 -198 274 -588v-47q0 -436 -276 -643t-836 -207q-499 0 -764 147l-178 -137h-174zM1151 1073q-203 0 -293 -50t-90 -179v-19q0 -107 70 -159
l499 395q-76 12 -186 12zM1542 844q0 121 -80 174l-506 -400q74 -14 195 -14q204 0 297.5 49.5t93.5 171.5v19z" />
    <glyph glyph-name="oslashacute" unicode="&#x1ff;" horiz-adv-x="2170" 
d="M1282 1542h-385l82 127h459zM51 0l250 184q-250 189 -250 545v16q0 359 256.5 549.5t777.5 190.5q439 0 695 -137l174 127h166l-250 -185q250 -189 250 -545v-16q0 -359 -257 -549t-778 -190q-438 0 -694 137l-176 -127h-164zM778 733q0 -80 49 -123l408 299
q-75 11 -150 11q-163 0 -235 -40.5t-72 -138.5v-8zM1085 555q163 0 235.5 40t72.5 138v8q0 79 -50 123l-405 -299q68 -10 147 -10z" />
    <glyph glyph-name="Scommaaccent" unicode="&#x218;" horiz-adv-x="2265" 
d="M643 526q0 -20 17 -34t59.5 -25.5t122.5 -17t198 -5.5t201 3.5t129 9t71 14.5t31.5 17t6.5 20v4q0 17 -12.5 25.5t-59.5 16t-142.5 10.5t-258.5 3q-370 0 -586.5 56.5t-308 170t-91.5 302.5v16q0 286 265.5 426.5t836.5 140.5q537 0 809.5 -145.5t272.5 -411.5v-16h-602
v2q0 111 -439 111q-111 0 -189 -4t-119 -9.5t-62.5 -15.5t-26 -18t-4.5 -21v-2q0 -19 31.5 -29t138 -16t313.5 -6q521 0 760.5 -129t239.5 -400v-16q0 -143 -60 -246t-192.5 -175t-348 -107t-522.5 -35q-545 0 -813 123t-268 389v26h602v-2zM1219 -205h-293l157 53h-172v115
h463v-117z" />
    <glyph glyph-name="scommaaccent" unicode="&#x219;" horiz-adv-x="2037" 
d="M1997 469q0 -93 -30.5 -165.5t-101.5 -132.5t-183 -99.5t-278.5 -60.5t-385.5 -21q-199 0 -350.5 16t-271.5 52t-197 93.5t-117 141t-41 194.5v13h682v-17q0 -104 307 -104q110 0 173 8t85.5 22t22.5 37v5q0 24 -19 37.5t-90 22.5t-205 9q-179 0 -311 8t-243 27.5
t-183.5 52t-123 82t-73 116t-22.5 155.5v20q0 504 977 504q496 0 737.5 -124t241.5 -384v-12h-686v24q0 96 -305 96q-287 0 -287 -67v-6q0 -24 19.5 -37t93.5 -22t217 -9q196 0 339 -10t250.5 -34t175 -58.5t109.5 -88.5t58 -119t16 -155v-10zM1120 -205h-293l158 53h-172
v115h463v-117z" />
    <glyph glyph-name="Tcommaaccent" unicode="&#x21a;" horiz-adv-x="1921" 
d="M1890 1067h-567v-1067h-723v1067h-569v602h1859v-602zM1057 -205h-293l158 53h-172v115h462v-117z" />
    <glyph glyph-name="tcommaaccent" unicode="&#x21b;" horiz-adv-x="1296" 
d="M20 897v578h207v167h725v-167h324v-578h-324v-897h-725v897h-207zM662 -205h-293l157 53h-172v115h463v-117z" />
    <glyph glyph-name="dotlessj" unicode="&#x237;" horiz-adv-x="954" 
d="M883 434q0 -264 -143.5 -400t-407.5 -136h-301v579h24q105 0 105 109v889h723v-1041z" />
    <glyph glyph-name="schwa" unicode="&#x259;" horiz-adv-x="2191" 
d="M51 819h1360q-17 207 -332 207q-286 0 -286 -117v-2h-742v13q0 122 67 225t195.5 179t329 118.5t453.5 42.5q1044 0 1044 -727v-23q0 -745 -1053 -745q-503 0 -769.5 191.5t-266.5 545.5v92zM776 584q0 -74 77 -121t239 -47q288 0 317 182h-633v-14z" />
    <glyph glyph-name="circumflex" unicode="&#x2c6;" horiz-adv-x="512" 
d="M336 1542l-80 47l-80 -47h-291l121 127h500l121 -127h-291z" />
    <glyph glyph-name="caron" unicode="&#x2c7;" horiz-adv-x="512" 
d="M305 1669h293l-92 -127h-500l-92 127h293l49 -45z" />
    <glyph glyph-name="breve" unicode="&#x2d8;" horiz-adv-x="512" 
d="M256 1628q53 0 53 41h289q-7 -45 -33 -71.5t-101.5 -43t-207.5 -16.5q-135 0 -211 16.5t-102 43t-33 71.5h289q0 -41 57 -41z" />
    <glyph glyph-name="dotaccent" unicode="&#x2d9;" horiz-adv-x="512" 
d="M258 1513q-94 0 -132 22t-38 71t38 70.5t132 21.5t132 -21.5t38 -70.5t-38 -71t-132 -22z" />
    <glyph glyph-name="ring" unicode="&#x2da;" horiz-adv-x="512" 
d="M256 1440q-129 0 -190.5 28t-61.5 86q0 119 252 119t252 -119q0 -58 -61.5 -86t-190.5 -28zM256 1485q84 0 84 65q0 41 -20.5 58.5t-63.5 17.5t-63.5 -17.5t-20.5 -58.5q0 -65 84 -65z" />
    <glyph glyph-name="ogonek" unicode="&#x2db;" horiz-adv-x="512" 
d="M416 0q-113 -62 -137.5 -80t-24.5 -39q0 -22 25 -22q16 0 22 8.5t6 28.5v4h316v-4q0 -33 -33 -54.5t-120 -34t-232 -12.5q-112 0 -174.5 2.5t-104 11t-55 22.5t-13.5 38q0 47 66.5 73t237.5 58h221z" />
    <glyph glyph-name="tilde" unicode="&#x2dc;" horiz-adv-x="512" 
d="M612 1669q0 -73 -42.5 -102t-127.5 -29q-69 0 -144 20.5t-101 20.5q-24 0 -33.5 -9t-9.5 -28h-258q0 72 43 101.5t135 29.5q73 0 148.5 -18.5t90.5 -18.5q24 0 31.5 7t7.5 26h260z" />
    <glyph glyph-name="hungarumlaut" unicode="&#x2dd;" horiz-adv-x="512" 
d="M164 1542h-293l127 127h338zM547 1542h-293l127 127h338z" />
    <glyph glyph-name="pi" unicode="&#x3c0;" horiz-adv-x="2097" 
d="M150 0l104 997q-94 -13 -197 -34v450q227 62 539 62h1446v-459h-146l-34 -436q-6 -56 25 -88.5t83 -32.5h72v-459h-332q-139 0 -251.5 38t-191.5 111t-117 187.5t-26 259.5l35 420h-186l-86 -1016h-737z" />
    <glyph glyph-name="Wgrave" unicode="&#x1e80;" horiz-adv-x="3315" 
d="M1464 1737l-155 127h458l82 -127h-385zM451 0l-435 1669h764l191 -825l291 825h868l268 -751l168 751h733l-440 -1669h-858l-340 985l-352 -985h-858z" />
    <glyph glyph-name="wgrave" unicode="&#x1e81;" horiz-adv-x="2887" 
d="M1251 1542l-155 127h458l82 -127h-385zM403 0l-387 1475h725l154 -637l178 637h742l178 -633l145 633h733l-389 -1475h-878l-156 690l-166 -690h-879z" />
    <glyph glyph-name="Wacute" unicode="&#x1e82;" horiz-adv-x="3315" 
d="M1855 1737h-385l82 127h459zM451 0l-435 1669h764l191 -825l291 825h868l268 -751l168 751h733l-440 -1669h-858l-340 985l-352 -985h-858z" />
    <glyph glyph-name="wacute" unicode="&#x1e83;" horiz-adv-x="2887" 
d="M1642 1542h-385l82 127h459zM403 0l-387 1475h725l154 -637l178 637h742l178 -633l145 633h733l-389 -1475h-878l-156 690l-166 -690h-879z" />
    <glyph glyph-name="Wdieresis" unicode="&#x1e84;" horiz-adv-x="3315" 
d="M1274 1716v170h340v-170h-340zM2044 1716h-340v170h340v-170zM451 0l-435 1669h764l191 -825l291 825h868l268 -751l168 751h733l-440 -1669h-858l-340 985l-352 -985h-858z" />
    <glyph glyph-name="wdieresis" unicode="&#x1e85;" horiz-adv-x="2887" 
d="M1061 1522v170h340v-170h-340zM1831 1522h-340v170h340v-170zM403 0l-387 1475h725l154 -637l178 637h742l178 -633l145 633h733l-389 -1475h-878l-156 690l-166 -690h-879z" />
    <glyph glyph-name="Ygrave" unicode="&#x1ef2;" horiz-adv-x="2185" 
d="M899 1737l-156 127h459l82 -127h-385zM727 623l-727 1046h793l297 -465l299 465h796l-735 -1051v-618h-723v623z" />
    <glyph glyph-name="ygrave" unicode="&#x1ef3;" horiz-adv-x="2158" 
d="M903 1542l-155 127h458l82 -127h-385zM1659 463q-49 -99 -89.5 -168.5t-92 -131t-99.5 -100t-121 -70.5t-146.5 -48.5t-185.5 -28t-229.5 -15t-287.5 -3.5v536h378q57 0 87.5 14.5t58.5 53.5l10 14h-383l-559 959h815l293 -607l285 607h766z" />
    <glyph glyph-name="thinspace" unicode="&#x2009;" horiz-adv-x="219" 
 />
    <glyph glyph-name="endash" unicode="&#x2013;" horiz-adv-x="1273" 
d="M1253 690h-1233v217h1233v-217z" />
    <glyph glyph-name="emdash" unicode="&#x2014;" horiz-adv-x="2564" 
d="M2544 690h-2524v217h2524v-217z" />
    <glyph glyph-name="quoteleft" unicode="&#x2018;" horiz-adv-x="618" 
d="M111 1669h391l-88 -233h174v-426h-557v426z" />
    <glyph glyph-name="quoteright" unicode="&#x2019;" horiz-adv-x="618" 
d="M508 1010h-387l84 233h-174v426h557v-426z" />
    <glyph glyph-name="quotesinglbase" unicode="&#x201a;" horiz-adv-x="618" 
d="M516 -205h-387l76 205h-174v426h557v-426z" />
    <glyph glyph-name="quotedblleft" unicode="&#x201c;" horiz-adv-x="1224" 
d="M111 1669h391l-88 -233h174v-426h-557v426zM717 1669h391l-88 -233h174v-426h-557v426z" />
    <glyph glyph-name="quotedblright" unicode="&#x201d;" horiz-adv-x="1224" 
d="M508 1010h-387l84 233h-174v426h557v-426zM1114 1010h-387l84 233h-174v426h557v-426z" />
    <glyph glyph-name="quotedblbase" unicode="&#x201e;" horiz-adv-x="1224" 
d="M516 -205h-387l76 205h-174v426h557v-426zM1122 -205h-387l76 205h-174v426h557v-426z" />
    <glyph glyph-name="dagger" unicode="&#x2020;" horiz-adv-x="786" 
d="M184 1669h418v-90h154v-221h-154v-477h-418v477h-153v221h153v90z" />
    <glyph glyph-name="daggerdbl" unicode="&#x2021;" horiz-adv-x="786" 
d="M756 1192v-221h-154v-90h-418v90h-153v221h153v166h-153v221h153v90h418v-90h154v-221h-154v-166h154z" />
    <glyph glyph-name="bullet" unicode="&#x2022;" horiz-adv-x="983" 
d="M492 307q-169 0 -267 44t-146 151.5t-48 296.5t48 296.5t146 151t267 43.5q127 0 211 -23.5t141.5 -80t82.5 -150.5t25 -237t-25 -237t-82.5 -151t-141.5 -80.5t-211 -23.5z" />
    <glyph glyph-name="ellipsis" unicode="&#x2026;" horiz-adv-x="1859" 
d="M586 0h-555v541h555v-541zM1208 0h-555v541h555v-541zM1829 0h-555v541h555v-541z" />
    <glyph glyph-name="perthousand" unicode="&#x2030;" horiz-adv-x="3379" 
d="M41 1298v45q0 336 526 336q527 0 527 -336v-45q0 -335 -527 -335q-526 0 -526 335zM1827 1669h194l-1603 -1669h-195zM375 1317q0 -66 43.5 -92.5t148.5 -26.5t149 26.5t44 92.5v8q0 66 -44 92.5t-149 26.5t-148.5 -26.5t-43.5 -92.5v-8zM1151 330v45q0 336 526 336
q527 0 527 -336v-45q0 -336 -527 -336q-526 0 -526 336zM2286 330v45q0 336 526 336t526 -336v-45q0 -336 -526 -336t-526 336zM1485 348q0 -66 43.5 -92.5t148.5 -26.5t149 26.5t44 92.5v8q0 66 -44 92.5t-149 26.5t-148.5 -26.5t-43.5 -92.5v-8zM2619 348q0 -66 44 -92.5
t149 -26.5t148.5 26.5t43.5 92.5v8q0 66 -43.5 92.5t-148.5 26.5t-149 -26.5t-44 -92.5v-8z" />
    <glyph glyph-name="guilsinglleft" unicode="&#x2039;" horiz-adv-x="575" 
d="M20 799l173 518h362l-176 -518l176 -518h-362z" />
    <glyph glyph-name="guilsinglright" unicode="&#x203a;" horiz-adv-x="575" 
d="M555 799l-172 -518h-363l175 518l-175 518h363z" />
    <glyph glyph-name="fraction" unicode="&#x2044;" horiz-adv-x="180" 
d="M795 1669h194l-1603 -1669h-195z" />
    <glyph glyph-name="zerosuperior" unicode="&#x2070;" horiz-adv-x="1134" 
d="M41 1298v45q0 336 526 336q527 0 527 -336v-45q0 -335 -527 -335q-526 0 -526 335zM375 1317q0 -66 43.5 -92.5t148.5 -26.5t149 26.5t44 92.5v8q0 66 -44 92.5t-149 26.5t-148.5 -26.5t-43.5 -92.5v-8z" />
    <glyph glyph-name="foursuperior" unicode="&#x2074;" horiz-adv-x="927" 
d="M31 1100v174l331 395h488v-387h47v-182h-47v-131h-318v131h-501zM346 1282h186v254z" />
    <glyph glyph-name="fivesuperior" unicode="&#x2075;" horiz-adv-x="1013" 
d="M973 1210v-8q0 -120 -107 -179.5t-350 -59.5t-359 62t-116 187v9h307v-2q0 -26 38.5 -37t121.5 -11q85 0 121.5 15t36.5 51v2q0 41 -31.5 55.5t-126.5 14.5q-160 0 -160 -47h-260v407h832v-205h-572v-200q0 80 73 116.5t224 36.5q174 0 251 -49t77 -158z" />
    <glyph glyph-name="sixsuperior" unicode="&#x2076;" horiz-adv-x="1122" 
d="M565 963q-260 0 -392 82.5t-132 254.5v17q0 162 142 262t415 100q225 0 349 -67t124 -174v-2h-336v2q0 47 -135 47q-121 0 -170 -44t-49 -143v-65q0 77 74.5 111t242.5 34q204 0 293.5 -44.5t89.5 -147.5v-6q0 -105 -139 -161t-377 -56zM561 1292q-95 0 -137.5 -15.5
t-42.5 -51.5v-2q0 -38 42.5 -56t139.5 -18q176 0 176 68v4q0 37 -40 54t-138 17z" />
    <glyph glyph-name="sevensuperior" unicode="&#x2077;" horiz-adv-x="1017" 
d="M547 969h-422q45 86 171 209.5t290 240.5h-566v250h977v-182q-177 -157 -291.5 -296.5t-158.5 -221.5z" />
    <glyph glyph-name="eightsuperior" unicode="&#x2078;" horiz-adv-x="1118" 
d="M559 1679q251 0 363 -42t112 -130v-8q0 -59 -48.5 -95.5t-160.5 -53.5q131 -20 196.5 -67.5t65.5 -115.5v-12q0 -68 -44.5 -108t-161.5 -62t-322 -22t-322 22t-161.5 62t-44.5 108v12q0 68 65.5 115.5t196.5 67.5q-112 17 -160.5 53.5t-48.5 95.5v8q0 88 112 130t363 42z
M559 1378q86 0 120 12t34 44v4q0 31 -34.5 43t-119.5 12t-119 -12t-34 -43v-4q0 -32 33.5 -44t119.5 -12zM559 1135q98 0 135 11.5t37 43.5v4q0 32 -37.5 44.5t-134.5 12.5t-134.5 -12.5t-37.5 -44.5v-4q0 -32 37 -43.5t135 -11.5z" />
    <glyph glyph-name="ninesuperior" unicode="&#x2079;" horiz-adv-x="1122" 
d="M557 1679q524 0 524 -338v-16q0 -162 -142 -262t-415 -100q-225 0 -349 67t-124 174v2h336v-2q0 -47 135 -47q121 0 170 43.5t49 142.5v66q0 -77 -74.5 -111t-242.5 -34q-204 0 -293.5 44.5t-89.5 147.5v6q0 105 139 161t377 56zM561 1350q95 0 137.5 15.5t42.5 51.5v2
q0 38 -42.5 56t-139.5 18q-176 0 -176 -68v-4q0 -37 40 -54t138 -17z" />
    <glyph glyph-name="zeroinferior" unicode="&#x2080;" horiz-adv-x="1134" 
d="M41 330v45q0 336 526 336q527 0 527 -336v-45q0 -336 -527 -336q-526 0 -526 336zM375 348q0 -66 43.5 -92.5t148.5 -26.5t149 26.5t44 92.5v8q0 66 -44 92.5t-149 26.5t-148.5 -26.5t-43.5 -92.5v-8z" />
    <glyph glyph-name="oneinferior" unicode="&#x2081;" horiz-adv-x="559" 
d="M518 0h-323v375l-164 -76v289l237 112h250v-700z" />
    <glyph glyph-name="twoinferior" unicode="&#x2082;" horiz-adv-x="987" 
d="M616 408v2q0 55 -124 55q-83 0 -113.5 -20t-30.5 -68v-4h-307v8q0 330 494 330q204 0 307.5 -57t103.5 -156v-2q0 -65 -34 -102t-141 -69.5t-325 -66.5h494v-258h-893v223q216 53 321.5 80.5t166.5 48t71 30t10 26.5z" />
    <glyph glyph-name="threeinferior" unicode="&#x2083;" horiz-adv-x="1042" 
d="M551 -6q-262 0 -386 68t-124 210v11h307v-11q0 -36 41 -52.5t135 -16.5q90 0 129 9t39 30v2q0 16 -18.5 23t-67.5 7h-172v166h113q68 0 96.5 7t28.5 26v2q0 37 -142 37q-168 0 -168 -76v-2h-305v6q0 271 490 271q430 0 430 -179v-8q0 -51 -36.5 -86.5t-109.5 -48.5
q170 -22 170 -160v-8q0 -227 -450 -227z" />
    <glyph glyph-name="fourinferior" unicode="&#x2084;" horiz-adv-x="927" 
d="M31 131v174l331 395h488v-387h47v-182h-47v-131h-318v131h-501zM346 313h186v254z" />
    <glyph glyph-name="fiveinferior" unicode="&#x2085;" horiz-adv-x="1013" 
d="M973 242v-9q0 -120 -107 -179.5t-350 -59.5t-359 62t-116 188v8h307v-2q0 -26 38 -36.5t122 -10.5q85 0 121.5 14.5t36.5 50.5v2q0 41 -31.5 55.5t-126.5 14.5q-160 0 -160 -47h-260v407h832v-204h-572v-201q0 80 73.5 117t223.5 37q174 0 251 -49t77 -158z" />
    <glyph glyph-name="sixinferior" unicode="&#x2086;" horiz-adv-x="1122" 
d="M565 -6q-524 0 -524 338v16q0 163 142.5 263t414.5 100q225 0 349 -67.5t124 -174.5v-2h-336v2q0 47 -135 47q-121 0 -170 -43.5t-49 -142.5v-66q0 77 74.5 111.5t242.5 34.5q204 0 293.5 -45t89.5 -148v-6q0 -105 -139 -161t-377 -56zM561 324q-95 0 -137.5 -16
t-42.5 -52v-2q0 -38 42.5 -56t139.5 -18q176 0 176 68v4q0 37 -40 54.5t-138 17.5z" />
    <glyph glyph-name="seveninferior" unicode="&#x2087;" horiz-adv-x="1017" 
d="M547 0h-422q45 87 171 211t290 240h-566v249h977v-182q-177 -157 -291.5 -296.5t-158.5 -221.5z" />
    <glyph glyph-name="eightinferior" unicode="&#x2088;" horiz-adv-x="1118" 
d="M559 711q251 0 363 -42t112 -130v-9q0 -59 -48.5 -95.5t-160.5 -53.5q132 -20 197 -67t65 -115v-13q0 -68 -44.5 -108t-161.5 -62t-322 -22t-322 22t-161.5 62t-44.5 108v13q0 68 65 115t197 67q-112 17 -160.5 53.5t-48.5 95.5v9q0 88 112 130t363 42zM559 410
q86 0 120 11.5t34 43.5v4q0 31 -34.5 43t-119.5 12t-119 -12t-34 -43v-4q0 -32 33.5 -43.5t119.5 -11.5zM559 166q98 0 135 11.5t37 43.5v4q0 32 -38 45t-134 13t-134 -13t-38 -45v-4q0 -32 37 -43.5t135 -11.5z" />
    <glyph glyph-name="nineinferior" unicode="&#x2089;" horiz-adv-x="1122" 
d="M557 711q524 0 524 -338v-17q0 -162 -142 -262t-415 -100q-225 0 -349 67.5t-124 174.5v2h336v-2q0 -48 135 -48q121 0 170 44t49 143v65q0 -77 -74.5 -111t-242.5 -34q-204 0 -293.5 44.5t-89.5 147.5v7q0 105 139 161t377 56zM561 381q95 0 137.5 16t42.5 52v2
q0 38 -42 55.5t-140 17.5q-96 0 -136 -17t-40 -50v-4q0 -37 40 -54.5t138 -17.5z" />
    <glyph glyph-name="lira" unicode="&#x20a4;" horiz-adv-x="2314" 
d="M199 1669h737v-326l573 134v-174l-573 -134v-147l573 133v-174l-573 -133v-258h297q166 0 230.5 63.5t64.5 202.5v21h741v-76q0 -252 -132.5 -433.5t-375.5 -274.5t-575 -93h-987v674l-103 -25v176l103 25v145l-103 -24v176l103 24v498z" />
    <glyph glyph-name="Euro" unicode="&#x20ac;" horiz-adv-x="2152" 
d="M1356 604h-576q46 -176 355 -176q183 0 275.5 77.5t92.5 221.5v43h608v-16q0 -376 -248.5 -570t-750.5 -194q-856 0 -977 614h-121v160h105q-2 18 -2 55v31q0 53 2 80h-105v160h127q131 589 971 589q502 0 750.5 -194t248.5 -570v-16h-608v43q0 144 -92.5 221.5
t-275.5 77.5q-289 0 -347 -151h568v-160h-586v-166h586v-160z" />
    <glyph glyph-name="indianrupee" unicode="&#x20b9;" horiz-adv-x="2105" 
d="M893 0l-842 555v311h838q104 0 157 32t66 112h-1061v143h1061q-13 80 -66 111.5t-157 31.5h-838v373h2024v-143h-531q154 -48 221 -137.5t76 -235.5h234v-143h-234q-12 -230 -191 -346.5t-542 -116.5h-55l823 -547h-983z" />
    <glyph glyph-name="litre" unicode="&#x2113;" horiz-adv-x="985" 
d="M784 580q0 -57 29 -89t80 -32h72v-459h-318q-280 0 -433 151.5t-153 444.5v1073h723v-1089z" />
    <glyph glyph-name="numero" unicode="&#x2116;" horiz-adv-x="3256" 
d="M2744 1679q249 0 370.5 -91t121.5 -263v-8q0 -172 -121.5 -263t-370.5 -91q-491 0 -491 354v8q0 354 491 354zM1567 0l-830 721v-721h-665v1475h628l830 -639v639h665v-1475h-628zM2744 1233q78 0 111 18t33 66v8q0 48 -33 66t-111 18t-110.5 -18t-32.5 -66v-8
q0 -48 32.5 -66t110.5 -18zM3183 762h-875v139h875v-139z" />
    <glyph glyph-name="uni2117" unicode="&#x2117;" horiz-adv-x="2048" 
d="M2007 844v-19q0 -409 -255.5 -622t-727.5 -213t-727.5 213t-255.5 622v19q0 409 255.5 622t727.5 213t727.5 -213t255.5 -622zM1821 825v19q0 338 -191 492.5t-606 154.5t-605 -154.5t-190 -492.5v-19q0 -338 190 -492.5t605 -154.5t606 154.5t191 492.5zM1124 483h-120
v-190h-429v1100h549q208 0 331 -50t175.5 -148t52.5 -259v-27q0 -149 -52 -240t-176 -138.5t-331 -47.5zM1098 1004h-94v-207h94q83 0 118 19.5t35 78.5v10q0 54 -36.5 76.5t-116.5 22.5z" />
    <glyph glyph-name="servicemark" unicode="&#x2120;" horiz-adv-x="755" 
d="M322 1356q0 -127 -136 -127q-75 0 -107 36t-32 115v2h82v-2q0 -37 12.5 -53t44.5 -16q52 0 52 45v4q0 27 -21 40.5t-63 26.5q-53 16 -80 42t-27 81v9q0 57 34 88.5t103 31.5q138 0 138 -135v-8h-82v10q0 51 -56 51q-29 0 -41 -10t-12 -33v-2q0 -19 16.5 -29.5t61.5 -25.5
q57 -19 85 -49.5t28 -87.5v-4zM510 1239l-72 299v-299h-82v430h115l64 -248l65 248h109v-430h-80v299l-74 -299h-45z" />
    <glyph glyph-name="trademark" unicode="&#x2122;" horiz-adv-x="679" 
d="M178 1239h-88v350h-76v80h238v-80h-74v-350zM434 1239l-72 299v-299h-81v430h114l64 -248l59 248h115v-430h-82v299l-72 -299h-45z" />
    <glyph glyph-name="Omega" unicode="&#x2126;" horiz-adv-x="2306" 
d="M1153 1114q-196 0 -290.5 -67.5t-94.5 -204.5v-19q0 -151 76 -249.5t272 -192.5v-381h-1075v410h903q-200 22 -352.5 61t-256.5 92t-170 125t-95 155.5t-29 186.5v47q0 135 68 244t202 189.5t348.5 124.5t493.5 44t493.5 -44t348.5 -124.5t202 -189.5t68 -244v-47
q0 -103 -29 -186.5t-95 -155.5t-170 -125t-256.5 -92t-352.5 -61h903v-410h-1075v381q196 94 272 192.5t76 249.5v19q0 137 -94.5 204.5t-290.5 67.5z" />
    <glyph glyph-name="estimated" unicode="&#x212e;" horiz-adv-x="1708" 
d="M324 788v-520q84 -92 222 -148.5t308 -56.5q121 0 233 36.5t199 99t152.5 142t105.5 169.5h80q-92 -227 -300.5 -373.5t-469.5 -146.5q-245 0 -434.5 104.5t-294.5 296.5t-105 443q0 186 65 345t177.5 268t265.5 170.5t326 61.5q181 0 337.5 -67t264.5 -181t170 -269
t62 -328q0 -8 -1 -22.5t-1 -23.5h-1362zM324 862h1077v508q-80 101 -224.5 166.5t-322.5 65.5q-159 0 -304 -61.5t-226 -154.5v-524z" />
    <glyph glyph-name="arrowleft" unicode="&#x2190;" horiz-adv-x="1884" 
d="M20 717v41l635 635h637l-452 -422h1024v-467h-1024l452 -422h-637z" />
    <glyph glyph-name="arrowup" unicode="&#x2191;" horiz-adv-x="1884" 
d="M1597 449l-421 452v-901h-467v901l-422 -452v595l635 635h41l634 -635v-595z" />
    <glyph glyph-name="arrowright" unicode="&#x2192;" horiz-adv-x="1884" 
d="M1864 717l-635 -635h-637l452 422h-1024v467h1024l-452 422h637l635 -635v-41z" />
    <glyph glyph-name="arrowdown" unicode="&#x2193;" horiz-adv-x="1884" 
d="M1597 625l-634 -635h-41l-635 635v596l422 -453v901h467v-901l421 453v-596z" />
    <glyph glyph-name="arrowleftright" unicode="&#x2194;" horiz-adv-x="2723" 
d="M20 717v41l594 635h637l-428 -422h1078l-428 422h636l594 -635v-41l-594 -635h-636l428 422h-1078l428 -422h-637z" />
    <glyph glyph-name="uni21A9" unicode="&#x21a9;" horiz-adv-x="1884" 
d="M20 717v41l594 635h637l-428 -422h574v698h467v-1165h-1041l428 -422h-637z" />
    <glyph glyph-name="uni21AA" unicode="&#x21aa;" horiz-adv-x="1884" 
d="M487 1669v-698h574l-428 422h637l594 -635v-41l-594 -635h-637l428 422h-1041v1165h467z" />
    <glyph glyph-name="partialdiff" unicode="&#x2202;" horiz-adv-x="2170" 
d="M1421 657v138q0 245 -75.5 339.5t-260.5 94.5h-362v440h369q528 0 778 -220t250 -646v-115q0 -343 -250 -520.5t-778 -177.5q-1031 0 -1031 559v39q0 190 73 312t238 186.5t431 64.5q167 0 287 -34t192 -99.5t105.5 -154t33.5 -206.5zM1421 561v27q0 80 -76 115.5
t-239 35.5q-164 0 -241 -35.5t-77 -115.5v-35q0 -72 69.5 -101.5t227.5 -29.5q184 0 260 30.5t76 108.5z" />
    <glyph glyph-name="Delta" unicode="&#x2206;" horiz-adv-x="2252" 
d="M1675 1669l557 -1669h-2212l553 1669h1102zM840 410h571l-285 864z" />
    <glyph glyph-name="product" unicode="&#x220f;" horiz-adv-x="2269" 
d="M1473 -102v1165h-678v-1165h-723v1771h2126v-1771h-725z" />
    <glyph glyph-name="summation" unicode="&#x2211;" horiz-adv-x="1841" 
d="M72 -102v772l878 112l-878 148v739h1718v-522h-995l903 -121v-485l-901 -117h993v-526h-1718z" />
    <glyph glyph-name="minus" unicode="&#x2212;" horiz-adv-x="1507" 
d="M1448 651h-1391v301h1391v-301z" />
    <glyph glyph-name="radical" unicode="&#x221a;" horiz-adv-x="1730" 
d="M1161 1669h559l-463 -1669h-784l-463 1270h621l252 -850z" />
    <glyph glyph-name="infinity" unicode="&#x221e;" horiz-adv-x="1507" 
d="M422 1194q113 0 197.5 -46t132.5 -130q87 100 243 100q140 0 222.5 -86t82.5 -229q0 -134 -83 -218.5t-222 -84.5q-155 0 -243 98q-47 -81 -132.5 -127.5t-197.5 -46.5q-178 0 -284.5 105.5t-106.5 273.5q0 178 106 284.5t285 106.5zM422 997q-195 0 -195 -194
q0 -89 49 -135.5t146 -46.5q89 0 136.5 47t47.5 135q0 96 -47 145t-137 49zM995 950q-76 0 -110.5 -35.5t-34.5 -111.5q0 -135 145 -135q67 0 102.5 34.5t35.5 100.5q0 147 -138 147z" />
    <glyph glyph-name="integral" unicode="&#x222b;" horiz-adv-x="956" 
d="M883 434q0 -264 -143.5 -400t-407.5 -136h-301v579h26q105 0 105 109v547q0 264 143.5 400t407.5 136h301v-579h-27q-104 0 -104 -109v-547z" />
    <glyph glyph-name="approxequal" unicode="&#x2248;" horiz-adv-x="1507" 
d="M1044 1016q-94 0 -174.5 14.5t-127 31.5t-109.5 31.5t-125 14.5q-66 0 -89.5 -23.5t-23.5 -78.5h-338q0 83 21 145.5t57 101.5t89 63.5t111 34t130 9.5q93 0 173.5 -14.5t128.5 -31.5t113.5 -31.5t131.5 -14.5q60 0 81 23.5t21 78.5h338q0 -83 -21 -145.5t-57 -101.5
t-89 -63.5t-111 -34t-130 -9.5zM1044 244q-94 0 -174.5 14.5t-127 31.5t-109.5 31.5t-125 14.5q-66 0 -89.5 -24t-23.5 -79h-338q0 103 31 174.5t89 109.5t127.5 54.5t160.5 16.5q93 0 173.5 -14.5t128.5 -31.5t113.5 -31.5t131.5 -14.5q60 0 81 23.5t21 78.5h338
q0 -83 -21 -145.5t-57 -101.5t-89 -63.5t-111 -34t-130 -9.5z" />
    <glyph glyph-name="notequal" unicode="&#x2260;" horiz-adv-x="1507" 
d="M57 248v303h349l385 500h-734v305h967l119 153h305l-119 -153h119v-305h-352l-385 -500h737v-303h-971l-117 -152h-305l117 152h-115z" />
    <glyph glyph-name="lessequal" unicode="&#x2264;" horiz-adv-x="1507" 
d="M57 889v198l688 269h703l-948 -369l948 -364h-698zM1448 248h-1391v303h1391v-303z" />
    <glyph glyph-name="greaterequal" unicode="&#x2265;" horiz-adv-x="1507" 
d="M1448 889l-692 -266h-699l949 364l-949 369h703l688 -269v-198zM57 248v303h1391v-303h-1391z" />
    <glyph glyph-name="uni2295" unicode="&#x2295;" horiz-adv-x="1615" 
d="M807 -23q-205 0 -370.5 93.5t-259 259.5t-93.5 372q0 205 93.5 370.5t259 259t370.5 93.5q206 0 372 -93.5t259.5 -259t93.5 -370.5q0 -206 -93.5 -372t-259.5 -259.5t-372 -93.5zM807 1300q-254 0 -417 -164t-163 -434q0 -271 163 -435.5t417 -164.5t418 164.5
t164 435.5q0 134 -44 247t-121.5 189.5t-184.5 119t-232 42.5zM412 639v125h327v344h135v-344h330v-125h-330v-344h-135v344h-327z" />
    <glyph glyph-name="uni2296" unicode="&#x2296;" horiz-adv-x="1615" 
d="M807 -23q-205 0 -370.5 93.5t-259 259.5t-93.5 372q0 205 93.5 370.5t259 259t370.5 93.5q206 0 372 -93.5t259.5 -259t93.5 -370.5q0 -206 -93.5 -372t-259.5 -259.5t-372 -93.5zM807 1300q-254 0 -417 -164t-163 -434q0 -271 163 -435.5t417 -164.5t418 164.5
t164 435.5q0 134 -44 247t-121.5 189.5t-184.5 119t-232 42.5zM412 639v125h792v-125h-792z" />
    <glyph glyph-name="uni2297" unicode="&#x2297;" horiz-adv-x="1615" 
d="M807 -23q-205 0 -370.5 93.5t-259 259.5t-93.5 372q0 205 93.5 370.5t259 259t370.5 93.5q206 0 372 -93.5t259.5 -259t93.5 -370.5q0 -206 -93.5 -372t-259.5 -259.5t-372 -93.5zM807 1300q-254 0 -417 -164t-163 -434q0 -271 163 -435.5t417 -164.5t418 164.5
t164 435.5q0 134 -44 247t-121.5 189.5t-184.5 119t-232 42.5zM569 377l-86 88l236 235l-242 244l88 90l244 -243l235 235l89 -86l-236 -235l242 -244l-90 -90l-242 243z" />
    <glyph glyph-name="uni2298" unicode="&#x2298;" horiz-adv-x="1615" 
d="M807 -23q-205 0 -370.5 93.5t-259 259.5t-93.5 372q0 205 93.5 370.5t259 259t370.5 93.5q206 0 372 -93.5t259.5 -259t93.5 -370.5q0 -206 -93.5 -372t-259.5 -259.5t-372 -93.5zM227 702q0 -219 109 -372l846 846q-155 124 -375 124q-254 0 -417 -164t-163 -434z
M807 102q254 0 418 164.5t164 435.5q0 218 -111 373l-846 -846q152 -127 375 -127z" />
    <glyph glyph-name="uni23CF" unicode="&#x23cf;" horiz-adv-x="2004" 
d="M1004 1323l704 -705h-1409zM299 412h1409v-293h-1409v293z" />
    <glyph glyph-name="uni23E9" unicode="&#x23e9;" horiz-adv-x="2004" 
d="M1806 705l-704 -705v1409zM1049 705l-705 -705v1409z" />
    <glyph glyph-name="uni23EA" unicode="&#x23ea;" horiz-adv-x="2004" 
d="M199 705l704 704v-1409zM958 705l705 704v-1409z" />
    <glyph glyph-name="uni23EB" unicode="&#x23eb;" horiz-adv-x="2004" 
d="M1004 1464l704 -704h-1409zM1004 705l704 -705h-1409z" />
    <glyph glyph-name="uni23EC" unicode="&#x23ec;" horiz-adv-x="2004" 
d="M1001 715l-704 704h1409zM1001 -43l-704 702h1409z" />
    <glyph glyph-name="uni23ED" unicode="&#x23ed;" horiz-adv-x="2004" 
d="M1907 0h-295v1409h295v-1409zM803 705l-705 -705v1409zM1563 705l-705 -705v1409z" />
    <glyph glyph-name="uni23EE" unicode="&#x23ee;" horiz-adv-x="2004" 
d="M98 0v1409h295v-1409h-295zM1202 705l705 704v-1409zM442 705l705 704v-1409z" />
    <glyph glyph-name="uni23EF" unicode="&#x23ef;" horiz-adv-x="2004" 
d="M971 705l-705 -705v1409zM1020 0v1409h295v-1409h-295zM1448 0v1409h295v-1409h-295z" />
    <glyph glyph-name="uni23F8" unicode="&#x23f8;" horiz-adv-x="2004" 
d="M492 0v1409h380v-1409h-380zM1137 0v1409h381v-1409h-381z" />
    <glyph glyph-name="uni23F9" unicode="&#x23f9;" horiz-adv-x="2004" 
d="M1706 0h-1409v1409h1409v-1409z" />
    <glyph glyph-name="uni23FA" unicode="&#x23fa;" horiz-adv-x="2004" 
d="M1001 115q-125 0 -234.5 47t-186 126.5t-120.5 188t-44 228.5q0 122 44 230.5t120.5 187.5t186 125t234.5 46q167 0 301.5 -78.5t209.5 -213t75 -297.5q0 -120 -44 -228.5t-121 -188t-186.5 -126.5t-234.5 -47z" />
    <glyph glyph-name="lozenge" unicode="&#x25ca;" horiz-adv-x="1392" 
d="M23 834l419 835h508l420 -835l-420 -834h-508zM440 834l256 -494l256 494l-256 493z" />
    <glyph glyph-name="uni25D0" unicode="&#x25d0;" horiz-adv-x="2084" 
d="M1042 -23q-206 0 -372 93.5t-259.5 259.5t-93.5 372q0 205 93.5 370.5t259.5 259t372 93.5q205 0 370.5 -93.5t259 -259t93.5 -370.5q0 -206 -93.5 -372t-259 -259.5t-370.5 -93.5zM1042 102q252 0 416 168t164 432q0 173 -75 310.5t-207.5 214t-297.5 76.5v-1201z" />
    <glyph glyph-name="uni25D1" unicode="&#x25d1;" horiz-adv-x="2084" 
d="M1042 1425q205 0 370.5 -93.5t259 -259t93.5 -370.5q0 -206 -93.5 -372t-259 -259.5t-370.5 -93.5q-206 0 -372 93.5t-259.5 259.5t-93.5 372q0 205 93.5 370.5t259.5 259t372 93.5zM1042 1303q-124 0 -231.5 -45t-184.5 -123.5t-121 -190.5t-44 -242q0 -174 75.5 -311.5
t207.5 -213t298 -75.5v1201z" />
    <glyph glyph-name="uni25D2" unicode="&#x25d2;" horiz-adv-x="2084" 
d="M1765 702q0 -206 -93.5 -372t-259 -259.5t-370.5 -93.5q-206 0 -372 93.5t-259.5 259.5t-93.5 372q0 205 93.5 370.5t259.5 259t372 93.5q205 0 370.5 -93.5t259 -259t93.5 -370.5zM1628 705q0 131 -45 242.5t-123.5 188t-186 119.5t-231.5 43q-166 0 -299 -73.5
t-209.5 -209t-76.5 -310.5h1171z" />
    <glyph glyph-name="uni25D3" unicode="&#x25d3;" horiz-adv-x="2084" 
d="M1765 702q0 -206 -93.5 -372t-259 -259.5t-370.5 -93.5q-206 0 -372 93.5t-259.5 259.5t-93.5 372q0 205 93.5 370.5t259.5 259t372 93.5q205 0 370.5 -93.5t259 -259t93.5 -370.5zM1628 700h-1171q0 -176 76.5 -312t209.5 -209t299 -73q165 0 298.5 73t210.5 209.5
t77 311.5z" />
    <glyph glyph-name="uni25D4" unicode="&#x25d4;" horiz-adv-x="2084" 
d="M1765 702q0 -206 -93.5 -372t-259 -259.5t-370.5 -93.5q-206 0 -372 93.5t-259.5 259.5t-93.5 372q0 205 93.5 370.5t259.5 259t372 93.5q205 0 370.5 -93.5t259 -259t93.5 -370.5zM1042 1298v-596h584q0 171 -76.5 307.5t-210 212.5t-297.5 76z" />
    <glyph glyph-name="uni25D5" unicode="&#x25d5;" horiz-adv-x="2084" 
d="M317 702q0 205 93.5 370.5t259.5 259t372 93.5q205 0 370.5 -93.5t259 -259t93.5 -370.5q0 -206 -93.5 -372t-259 -259.5t-370.5 -93.5q-206 0 -372 93.5t-259.5 259.5t-93.5 372zM1042 1298q-250 0 -416.5 -168.5t-166.5 -427.5h583v596z" />
    <glyph glyph-name="uni25E7" unicode="&#x25e7;" horiz-adv-x="2084" 
d="M338 0v1409h1409v-1409h-1409zM1042 127h570v1155h-570v-1155z" />
    <glyph glyph-name="uni25E8" unicode="&#x25e8;" horiz-adv-x="2084" 
d="M1747 0h-1409v1409h1409v-1409zM1042 127v1155h-569v-1155h569z" />
    <glyph glyph-name="uni2610" unicode="&#x2610;" horiz-adv-x="1536" 
d="M154 0v1229h1228v-1229h-1228zM281 123h974v983h-974v-983z" />
    <glyph glyph-name="uni2611" unicode="&#x2611;" horiz-adv-x="1536" 
d="M154 0v1229h1228v-1229h-1228zM281 123h974v983h-974v-983zM821 283h-125l-266 481h131l195 -358l229 567h125z" />
    <glyph glyph-name="uni2612" unicode="&#x2612;" horiz-adv-x="1536" 
d="M154 0v1229h1228v-1229h-1228zM281 123h974v983h-974v-983zM535 938l233 -240l233 240l82 -80l-235 -242l235 -243l-82 -80l-233 239l-233 -239l-82 80l235 243l-235 242z" />
    <glyph glyph-name="heart" unicode="&#x2665;" horiz-adv-x="2142" 
d="M1071 1427q130 252 463 252q143 0 252.5 -42t177.5 -118.5t102.5 -179t34.5 -227.5v-35q0 -127 -27 -230.5t-73.5 -174.5t-107.5 -127.5t-131.5 -97.5t-143 -76.5t-144.5 -72t-133 -76t-111 -96t-77 -126.5h-164q-27 70 -77 126.5t-111 96t-133 76t-144.5 72t-143 76.5
t-131.5 97.5t-107.5 127.5t-73.5 174.5t-27 230.5v35q0 125 34.5 227.5t102.5 179t177.5 118.5t252.5 42q333 0 463 -252zM1071 393q34 54 87.5 101.5t110 81.5t118 68t115 70.5t97 81t68.5 107.5t25 141v23q0 115 -61.5 179.5t-190.5 64.5q-72 0 -125 -23t-88.5 -68.5
t-57 -99t-39.5 -127.5h-118q-18 74 -39.5 127.5t-57 99t-88.5 68.5t-125 23q-129 0 -190 -64.5t-61 -179.5v-23q0 -78 25 -141t68.5 -107.5t97 -81t114.5 -70.5t117.5 -68t110 -81.5t87.5 -101.5z" />
    <glyph glyph-name="uni2690" unicode="&#x2690;" horiz-adv-x="1134" 
d="M158 1409h129v-90h30q82 0 144.5 -15t103 -37t82 -44t104.5 -37t146 -15h135v-663h-129q-97 0 -171.5 15t-121 36t-89.5 42.5t-101 36.5t-131 15h-2v-653h-129v1409zM874 637h29v407h-29q-85 0 -148.5 15t-103.5 36.5t-79 43t-97 36.5t-135 15h-24v-408h24q72 0 128 -15
t96 -36t81.5 -42.5t107 -36.5t150.5 -15z" />
    <glyph glyph-name="uni2691" unicode="&#x2691;" horiz-adv-x="1134" 
d="M158 1409h129v-90h30q82 0 144.5 -15t103 -37t82 -44t104.5 -37t146 -15h135v-663h-147q-92 0 -162.5 15t-114.5 36t-84.5 42.5t-95 36.5t-123.5 15h-18v-653h-129v1409z" />
    <glyph glyph-name="uni26AA" unicode="&#x26aa;" horiz-adv-x="1961" 
d="M25 831v7q0 201 54.5 354.5t168.5 263.5t298 166.5t435 56.5t435 -56.5t298 -166.5t168.5 -263.5t54.5 -354.5v-7q0 -201 -54.5 -354.5t-168.5 -263.5t-298 -166.5t-435 -56.5t-435 56.5t-298 166.5t-168.5 263.5t-54.5 354.5zM137 831q0 -377 202.5 -553t641.5 -176
q437 0 640.5 176t203.5 553v7q0 377 -203.5 553t-640.5 176q-439 0 -641.5 -176t-202.5 -553v-7z" />
    <glyph glyph-name="uni26AB" unicode="&#x26ab;" horiz-adv-x="1961" 
d="M25 831v7q0 201 54.5 354.5t168.5 263.5t298 166.5t435 56.5t435 -56.5t298 -166.5t168.5 -263.5t54.5 -354.5v-7q0 -201 -54.5 -354.5t-168.5 -263.5t-298 -166.5t-435 -56.5t-435 56.5t-298 166.5t-168.5 263.5t-54.5 354.5z" />
    <glyph glyph-name="uni2713" unicode="&#x2713;" horiz-adv-x="1536" 
d="M821 246h-125l-303 545h133l230 -420l264 649h125z" />
    <glyph glyph-name="uni2717" unicode="&#x2717;" horiz-adv-x="1536" 
d="M498 973l268 -275l268 275l84 -80l-270 -277l270 -276l-84 -80l-268 275l-268 -275l-82 80l270 276l-270 277z" />
    <glyph glyph-name="uni2780" unicode="&#x2780;" horiz-adv-x="1961" 
d="M25 831v7q0 201 54.5 354.5t168.5 263.5t298 166.5t435 56.5t435 -56.5t298 -166.5t168.5 -263.5t54.5 -354.5v-7q0 -201 -54.5 -354.5t-168.5 -263.5t-298 -166.5t-435 -56.5t-435 56.5t-298 166.5t-168.5 263.5t-54.5 354.5zM137 831q0 -377 202.5 -553t641.5 -176
q437 0 640.5 176t203.5 553v7q0 377 -203.5 553t-640.5 176q-439 0 -641.5 -176t-202.5 -553v-7zM1204 397h-323v525l-205 -76v315l278 113h250v-877z" />
    <glyph glyph-name="uni2781" unicode="&#x2781;" horiz-adv-x="1961" 
d="M25 831v7q0 201 54.5 354.5t168.5 263.5t298 166.5t435 56.5t435 -56.5t298 -166.5t168.5 -263.5t54.5 -354.5v-7q0 -201 -54.5 -354.5t-168.5 -263.5t-298 -166.5t-435 -56.5t-435 56.5t-298 166.5t-168.5 263.5t-54.5 354.5zM137 831q0 -377 202.5 -553t641.5 -176
q437 0 640.5 176t203.5 553v7q0 377 -203.5 553t-640.5 176q-439 0 -641.5 -176t-202.5 -553v-7zM1104 905v4q0 68 -125 68q-87 0 -115 -20t-28 -74v-6h-308v10q0 197 116.5 297t367.5 100q206 0 314 -71.5t108 -194.5v-2q0 -49 -10.5 -83t-40 -67t-85.5 -58.5t-144.5 -50.5
t-219.5 -50h493v-310h-892v267q200 58 319 97.5t171.5 66t65.5 41.5t13 36z" />
    <glyph glyph-name="uni2782" unicode="&#x2782;" horiz-adv-x="1961" 
d="M25 831v7q0 201 54.5 354.5t168.5 263.5t298 166.5t435 56.5t435 -56.5t298 -166.5t168.5 -263.5t54.5 -354.5v-7q0 -201 -54.5 -354.5t-168.5 -263.5t-298 -166.5t-435 -56.5t-435 56.5t-298 166.5t-168.5 263.5t-54.5 354.5zM137 831q0 -377 202.5 -553t641.5 -176
q437 0 640.5 176t203.5 553v7q0 377 -203.5 553t-640.5 176q-439 0 -641.5 -176t-202.5 -553v-7zM1012 387q-273 0 -391.5 87.5t-118.5 260.5v15h307v-15q0 -44 37 -65t139 -21q91 0 129.5 11t38.5 38v2q0 20 -18.5 29.5t-67.5 9.5h-172v207h113q68 0 96.5 8.5t28.5 32.5v2
q0 26 -35 36.5t-107 10.5q-92 0 -130 -24t-38 -72v-2h-305v8q0 338 490 338q220 0 325 -58.5t105 -164.5v-10q0 -134 -146 -168q170 -27 170 -201v-10q0 -137 -110 -211t-340 -74z" />
    <glyph glyph-name="uni2783" unicode="&#x2783;" horiz-adv-x="1961" 
d="M25 831v7q0 201 54.5 354.5t168.5 263.5t298 166.5t435 56.5t435 -56.5t298 -166.5t168.5 -263.5t54.5 -354.5v-7q0 -201 -54.5 -354.5t-168.5 -263.5t-298 -166.5t-435 -56.5t-435 56.5t-298 166.5t-168.5 263.5t-54.5 354.5zM137 831q0 -377 202.5 -553t641.5 -176
q437 0 640.5 176t203.5 553v7q0 377 -203.5 553t-640.5 176q-439 0 -641.5 -176t-202.5 -553v-7zM1012 397v164h-527v219l332 494h543v-483h67v-230h-67v-164h-348zM838 791h198v299z" />
    <glyph glyph-name="uni2784" unicode="&#x2784;" horiz-adv-x="1961" 
d="M25 831v7q0 201 54.5 354.5t168.5 263.5t298 166.5t435 56.5t435 -56.5t298 -166.5t168.5 -263.5t54.5 -354.5v-7q0 -201 -54.5 -354.5t-168.5 -263.5t-298 -166.5t-435 -56.5t-435 56.5t-298 166.5t-168.5 263.5t-54.5 354.5zM137 831q0 -377 202.5 -553t641.5 -176
q437 0 640.5 176t203.5 553v7q0 377 -203.5 553t-640.5 176q-439 0 -641.5 -176t-202.5 -553v-7zM1452 688v-10q0 -149 -106 -220t-351 -71q-259 0 -367 67.5t-108 227.5v10h307v-2q0 -32 38.5 -45.5t121.5 -13.5q84 0 121 18t37 60v4q0 47 -32 64.5t-126 17.5
q-160 0 -160 -52h-260v531h832v-260h-572v-266q0 108 73 157t224 49q173 0 250.5 -64t77.5 -202z" />
    <glyph glyph-name="uni2785" unicode="&#x2785;" horiz-adv-x="1961" 
d="M25 831v7q0 201 54.5 354.5t168.5 263.5t298 166.5t435 56.5t435 -56.5t298 -166.5t168.5 -263.5t54.5 -354.5v-7q0 -201 -54.5 -354.5t-168.5 -263.5t-298 -166.5t-435 -56.5t-435 56.5t-298 166.5t-168.5 263.5t-54.5 354.5zM137 831q0 -377 202.5 -553t641.5 -176
q437 0 640.5 176t203.5 553v7q0 377 -203.5 553t-640.5 176q-439 0 -641.5 -176t-202.5 -553v-7zM985 387q-260 0 -392 103.5t-132 320.5v20q0 203 142.5 328t414.5 125q225 0 349 -84.5t124 -218.5v-2h-336v2q0 59 -135 59q-121 0 -170 -54.5t-49 -178.5v-82q0 97 74 139.5
t243 42.5q204 0 293.5 -56t89.5 -183v-9q0 -132 -139 -202t-377 -70zM983 801q-94 0 -137 -20t-43 -66v-2q0 -47 42.5 -69.5t139.5 -22.5q96 0 136 21.5t40 62.5v6q0 46 -40 68t-138 22z" />
    <glyph glyph-name="uni2786" unicode="&#x2786;" horiz-adv-x="1961" 
d="M25 831v7q0 201 54.5 354.5t168.5 263.5t298 166.5t435 56.5t435 -56.5t298 -166.5t168.5 -263.5t54.5 -354.5v-7q0 -201 -54.5 -354.5t-168.5 -263.5t-298 -166.5t-435 -56.5t-435 56.5t-298 166.5t-168.5 263.5t-54.5 354.5zM137 831q0 -377 202.5 -553t641.5 -176
q437 0 640.5 176t203.5 553v7q0 377 -203.5 553t-640.5 176q-439 0 -641.5 -176t-202.5 -553v-7zM1020 397h-422q45 108 171 263.5t290 300.5h-565v313h976v-227q-176 -196 -290.5 -371t-159.5 -279z" />
    <glyph glyph-name="uni2787" unicode="&#x2787;" horiz-adv-x="1961" 
d="M25 831v7q0 201 54.5 354.5t168.5 263.5t298 166.5t435 56.5t435 -56.5t298 -166.5t168.5 -263.5t54.5 -354.5v-7q0 -201 -54.5 -354.5t-168.5 -263.5t-298 -166.5t-435 -56.5t-435 56.5t-298 166.5t-168.5 263.5t-54.5 354.5zM137 831q0 -377 202.5 -553t641.5 -176
q437 0 640.5 176t203.5 553v7q0 377 -203.5 553t-640.5 176q-439 0 -641.5 -176t-202.5 -553v-7zM981 1284q475 0 475 -215v-10q0 -74 -49 -120.5t-160 -66.5q132 -26 197 -85t65 -144v-14q0 -84 -48.5 -135.5t-165.5 -79t-314 -27.5t-314 27.5t-165.5 79t-48.5 135.5v14
q0 85 65 144t197 85q-111 20 -160 66.5t-49 120.5v10q0 215 475 215zM981 907q85 0 119.5 15.5t34.5 54.5v4q0 38 -34.5 54t-119.5 16t-119.5 -16t-34.5 -54v-4q0 -39 34.5 -54.5t119.5 -15.5zM981 602q97 0 134.5 15t37.5 55v6q0 40 -38 56t-134 16t-134 -16t-38 -56v-6
q0 -40 37.5 -55t134.5 -15z" />
    <glyph glyph-name="uni2788" unicode="&#x2788;" horiz-adv-x="1961" 
d="M25 831v7q0 201 54.5 354.5t168.5 263.5t298 166.5t435 56.5t435 -56.5t298 -166.5t168.5 -263.5t54.5 -354.5v-7q0 -201 -54.5 -354.5t-168.5 -263.5t-298 -166.5t-435 -56.5t-435 56.5t-298 166.5t-168.5 263.5t-54.5 354.5zM137 831q0 -377 202.5 -553t641.5 -176
q437 0 640.5 176t203.5 553v7q0 377 -203.5 553t-640.5 176q-439 0 -641.5 -176t-202.5 -553v-7zM977 1284q260 0 392 -103.5t132 -320.5v-20q0 -203 -142.5 -328t-414.5 -125q-225 0 -349 84.5t-124 218.5v2h336v-2q0 -59 135 -59q121 0 170 54.5t49 178.5v82
q0 -97 -74 -139.5t-243 -42.5q-204 0 -293.5 56t-89.5 184v8q0 132 139 202t377 70zM979 870q94 0 137 20t43 66v2q0 47 -42.5 70t-139.5 23q-96 0 -136 -21.5t-40 -62.5v-6q0 -46 40 -68.5t138 -22.5z" />
    <glyph glyph-name="uni2789" unicode="&#x2789;" horiz-adv-x="1961" 
d="M25 831v7q0 201 54.5 354.5t168.5 263.5t298 166.5t435 56.5t435 -56.5t298 -166.5t168.5 -263.5t54.5 -354.5v-7q0 -201 -54.5 -354.5t-168.5 -263.5t-298 -166.5t-435 -56.5t-435 56.5t-298 166.5t-168.5 263.5t-54.5 354.5zM137 831q0 -377 202.5 -553t641.5 -176
q437 0 640.5 176t203.5 553v7q0 377 -203.5 553t-640.5 176q-439 0 -641.5 -176t-202.5 -553v-7zM774 807v57q0 420 449 420q446 0 446 -420v-57q0 -420 -446 -420q-449 0 -449 420zM733 397h-323v525l-97 -31v315l170 68h250v-877zM1096 831q0 -83 28.5 -116t98.5 -33
t98.5 33t28.5 116v11q0 81 -29 114t-98 33t-98 -33t-29 -114v-11z" />
    <glyph glyph-name="uni278A" unicode="&#x278a;" horiz-adv-x="1961" 
d="M25 831v7q0 201 54.5 354.5t168.5 263.5t298 166.5t435 56.5t435 -56.5t298 -166.5t168.5 -263.5t54.5 -354.5v-7q0 -201 -54.5 -354.5t-168.5 -263.5t-298 -166.5t-435 -56.5t-435 56.5t-298 166.5t-168.5 263.5t-54.5 354.5zM1204 397v877h-250l-278 -113v-315l205 76
v-525h323z" />
    <glyph glyph-name="uni278B" unicode="&#x278b;" horiz-adv-x="1961" 
d="M25 831v7q0 201 54.5 354.5t168.5 263.5t298 166.5t435 56.5t435 -56.5t298 -166.5t168.5 -263.5t54.5 -354.5v-7q0 -201 -54.5 -354.5t-168.5 -263.5t-298 -166.5t-435 -56.5t-435 56.5t-298 166.5t-168.5 263.5t-54.5 354.5zM1104 905q0 -21 -13 -36t-65.5 -41.5
t-171.5 -66t-319 -97.5v-267h892v310h-493q131 25 219.5 50t144.5 50.5t85.5 58.5t40 67t10.5 83v2q0 123 -108 194.5t-314 71.5q-251 0 -367.5 -100t-116.5 -297v-10h308v6q0 54 28 74t115 20q125 0 125 -68v-4z" />
    <glyph glyph-name="uni278C" unicode="&#x278c;" horiz-adv-x="1961" 
d="M25 831v7q0 201 54.5 354.5t168.5 263.5t298 166.5t435 56.5t435 -56.5t298 -166.5t168.5 -263.5t54.5 -354.5v-7q0 -201 -54.5 -354.5t-168.5 -263.5t-298 -166.5t-435 -56.5t-435 56.5t-298 166.5t-168.5 263.5t-54.5 354.5zM1012 387q230 0 340 74t110 211v10
q0 174 -170 201q146 34 146 168v10q0 106 -105 164.5t-325 58.5q-490 0 -490 -338v-8h305v2q0 48 38 72t130 24q72 0 107 -10.5t35 -36.5v-2q0 -24 -28.5 -32.5t-96.5 -8.5h-113v-207h172q49 0 67.5 -9.5t18.5 -29.5v-2q0 -27 -38.5 -38t-129.5 -11q-102 0 -139 21t-37 65
v15h-307v-15q0 -173 118.5 -260.5t391.5 -87.5z" />
    <glyph glyph-name="uni278D" unicode="&#x278d;" horiz-adv-x="1961" 
d="M25 831v7q0 201 54.5 354.5t168.5 263.5t298 166.5t435 56.5t435 -56.5t298 -166.5t168.5 -263.5t54.5 -354.5v-7q0 -201 -54.5 -354.5t-168.5 -263.5t-298 -166.5t-435 -56.5t-435 56.5t-298 166.5t-168.5 263.5t-54.5 354.5zM1012 397h348v164h67v230h-67v483h-543
l-332 -494v-219h527v-164zM838 791l198 299v-299h-198z" />
    <glyph glyph-name="uni278E" unicode="&#x278e;" horiz-adv-x="1961" 
d="M25 831v7q0 201 54.5 354.5t168.5 263.5t298 166.5t435 56.5t435 -56.5t298 -166.5t168.5 -263.5t54.5 -354.5v-7q0 -201 -54.5 -354.5t-168.5 -263.5t-298 -166.5t-435 -56.5t-435 56.5t-298 166.5t-168.5 263.5t-54.5 354.5zM1452 688q0 138 -77.5 202t-250.5 64
q-151 0 -224 -49t-73 -157v266h572v260h-832v-531h260q0 52 160 52q94 0 126 -17.5t32 -64.5v-4q0 -42 -37 -60t-121 -18q-83 0 -121.5 13.5t-38.5 45.5v2h-307v-10q0 -160 108 -227.5t367 -67.5q245 0 351 71t106 220v10z" />
    <glyph glyph-name="uni278F" unicode="&#x278f;" horiz-adv-x="1961" 
d="M25 831v7q0 201 54.5 354.5t168.5 263.5t298 166.5t435 56.5t435 -56.5t298 -166.5t168.5 -263.5t54.5 -354.5v-7q0 -201 -54.5 -354.5t-168.5 -263.5t-298 -166.5t-435 -56.5t-435 56.5t-298 166.5t-168.5 263.5t-54.5 354.5zM985 387q238 0 377 70t139 202v9
q0 127 -89.5 183t-293.5 56q-169 0 -243 -42.5t-74 -139.5v82q0 124 49 178.5t170 54.5q135 0 135 -59v-2h336v2q0 134 -124 218.5t-349 84.5q-272 0 -414.5 -125t-142.5 -328v-20q0 -217 132 -320.5t392 -103.5zM983 801q98 0 138 -22t40 -68v-6q0 -41 -40 -62.5
t-136 -21.5q-97 0 -139.5 22.5t-42.5 69.5v2q0 46 43 66t137 20z" />
    <glyph glyph-name="uni2790" unicode="&#x2790;" horiz-adv-x="1961" 
d="M25 831v7q0 201 54.5 354.5t168.5 263.5t298 166.5t435 56.5t435 -56.5t298 -166.5t168.5 -263.5t54.5 -354.5v-7q0 -201 -54.5 -354.5t-168.5 -263.5t-298 -166.5t-435 -56.5t-435 56.5t-298 166.5t-168.5 263.5t-54.5 354.5zM1020 397q45 104 159.5 279t290.5 371v227
h-976v-313h565q-164 -145 -290 -300.5t-171 -263.5h422z" />
    <glyph glyph-name="uni2791" unicode="&#x2791;" horiz-adv-x="1961" 
d="M25 831v7q0 201 54.5 354.5t168.5 263.5t298 166.5t435 56.5t435 -56.5t298 -166.5t168.5 -263.5t54.5 -354.5v-7q0 -201 -54.5 -354.5t-168.5 -263.5t-298 -166.5t-435 -56.5t-435 56.5t-298 166.5t-168.5 263.5t-54.5 354.5zM981 1284q-475 0 -475 -215v-10
q0 -74 49 -120.5t160 -66.5q-132 -26 -197 -85t-65 -144v-14q0 -84 48.5 -135.5t165.5 -79t314 -27.5t314 27.5t165.5 79t48.5 135.5v14q0 85 -65 144t-197 85q111 20 160 66.5t49 120.5v10q0 215 -475 215zM981 907q-85 0 -119.5 15.5t-34.5 54.5v4q0 38 34.5 54t119.5 16
t119.5 -16t34.5 -54v-4q0 -39 -34.5 -54.5t-119.5 -15.5zM981 602q-97 0 -134.5 15t-37.5 55v6q0 40 38 56t134 16t134 -16t38 -56v-6q0 -40 -37.5 -55t-134.5 -15z" />
    <glyph glyph-name="uni2792" unicode="&#x2792;" horiz-adv-x="1961" 
d="M25 831v7q0 201 54.5 354.5t168.5 263.5t298 166.5t435 56.5t435 -56.5t298 -166.5t168.5 -263.5t54.5 -354.5v-7q0 -201 -54.5 -354.5t-168.5 -263.5t-298 -166.5t-435 -56.5t-435 56.5t-298 166.5t-168.5 263.5t-54.5 354.5zM977 1284q-238 0 -377 -70t-139 -202v-8
q0 -128 89.5 -184t293.5 -56q169 0 243 42.5t74 139.5v-82q0 -124 -49 -178.5t-170 -54.5q-135 0 -135 59v2h-336v-2q0 -134 124 -218.5t349 -84.5q272 0 414.5 125t142.5 328v20q0 217 -132 320.5t-392 103.5zM979 870q-98 0 -138 22.5t-40 68.5v6q0 41 40 62.5t136 21.5
q97 0 139.5 -23t42.5 -70v-2q0 -46 -43 -66t-137 -20z" />
    <glyph glyph-name="uni2793" unicode="&#x2793;" horiz-adv-x="1961" 
d="M25 831v7q0 201 54.5 354.5t168.5 263.5t298 166.5t435 56.5t435 -56.5t298 -166.5t168.5 -263.5t54.5 -354.5v-7q0 -201 -54.5 -354.5t-168.5 -263.5t-298 -166.5t-435 -56.5t-435 56.5t-298 166.5t-168.5 263.5t-54.5 354.5zM774 807q0 -420 449 -420q446 0 446 420v57
q0 420 -446 420q-449 0 -449 -420v-57zM733 397v877h-250l-170 -68v-315l97 31v-525h323zM1096 831v11q0 81 29 114t98 33t98 -33t29 -114v-11q0 -83 -28.5 -116t-98.5 -33t-98.5 33t-28.5 116z" />
    <glyph glyph-name="uni2913" unicode="&#x2913;" horiz-adv-x="1579" 
d="M1237 733l-446 -524l-449 524h172l209 -268v944h133v-946l209 270h172zM340 0v127h899v-127h-899z" />
    <glyph glyph-name="uni29B6" unicode="&#x29b6;" horiz-adv-x="1615" 
d="M807 -23q-205 0 -370.5 93.5t-259 259.5t-93.5 372q0 205 93.5 370.5t259 259t370.5 93.5q206 0 372 -93.5t259.5 -259t93.5 -370.5q0 -206 -93.5 -372t-259.5 -259.5t-372 -93.5zM1389 702q0 251 -143.5 411.5t-371.5 182.5v-1190q229 22 372 183t143 413zM227 702
q0 -252 142 -413t370 -183v1190q-228 -22 -370 -182.5t-142 -411.5z" />
    <glyph glyph-name="uni29B8" unicode="&#x29b8;" horiz-adv-x="1615" 
d="M807 -23q-205 0 -370.5 93.5t-259 259.5t-93.5 372q0 205 93.5 370.5t259 259t370.5 93.5q206 0 372 -93.5t259.5 -259t93.5 -370.5q0 -206 -93.5 -372t-259.5 -259.5t-372 -93.5zM807 1300q-221 0 -373 -124l844 -846q111 155 111 372q0 134 -44 247t-121.5 189.5
t-184.5 119t-232 42.5zM227 702q0 -271 163 -435.5t417 -164.5q222 0 377 127l-846 844q-111 -152 -111 -371z" />
    <glyph glyph-name="uni29BF" unicode="&#x29bf;" horiz-adv-x="1615" 
d="M807 -23q-205 0 -370.5 93.5t-259 259.5t-93.5 372q0 205 93.5 370.5t259 259t370.5 93.5q206 0 372 -93.5t259.5 -259t93.5 -370.5q0 -206 -93.5 -372t-259.5 -259.5t-372 -93.5zM807 1300q-254 0 -417 -164t-163 -434q0 -271 163 -435.5t417 -164.5t418 164.5
t164 435.5q0 134 -44 247t-121.5 189.5t-184.5 119t-232 42.5zM807 424q-120 0 -199.5 79t-79.5 199t79.5 199.5t199.5 79.5t199 -79.5t79 -199.5t-79 -199t-199 -79z" />
    <glyph glyph-name="uni2B12" unicode="&#x2b12;" horiz-adv-x="2084" 
d="M338 1409h1409v-1409h-1409v1409zM473 705v-578h1139v578h-1139z" />
    <glyph glyph-name="uni2B13" unicode="&#x2b13;" horiz-adv-x="2084" 
d="M338 0v1409h1409v-1409h-1409zM473 705h1139v577h-1139v-577z" />
    <glyph glyph-name="uni2B14" unicode="&#x2b14;" horiz-adv-x="2084" 
d="M338 0v1409h1409v-1409h-1409zM504 1282l1108 -1110v1110h-1108z" />
    <glyph glyph-name="uni2B15" unicode="&#x2b15;" horiz-adv-x="2084" 
d="M1747 1409v-1409h-1409v1409h1409zM473 1237v-1110h1108z" />
    <glyph glyph-name="uni2B16" unicode="&#x2b16;" horiz-adv-x="2084" 
d="M154 705l888 888l889 -888l-889 -889zM1761 705l-702 706v-1415z" />
    <glyph glyph-name="uni2B17" unicode="&#x2b17;" horiz-adv-x="2084" 
d="M1931 705l-889 -889l-888 889l888 888zM324 705l702 -709v1415z" />
    <glyph glyph-name="uni2B18" unicode="&#x2b18;" horiz-adv-x="2084" 
d="M1042 1593l889 -888l-889 -889l-888 889zM1042 -14l707 702h-1415z" />
    <glyph glyph-name="uni2B19" unicode="&#x2b19;" horiz-adv-x="2084" 
d="M1042 -184l-888 889l888 888l889 -888zM1042 1423l-708 -702h1415z" />
    <glyph glyph-name="J.ss01" unicode="&#xe000;" horiz-adv-x="2357" 
d="M1559 1669h722v-668q0 -517 -277 -764t-833 -247q-527 0 -817.5 230.5t-290.5 678.5v102h719v-77q0 -178 94 -249t298 -71q207 0 296 92t89 324v649z" />
    <glyph glyph-name="R.ss02" unicode="&#xe001;" horiz-adv-x="2148" 
d="M72 1669h1073q342 0 551.5 -63.5t301 -186.5t91.5 -319v-39q0 -149 -62 -255.5t-208 -178.5q74 -23 125.5 -62.5t80 -93t40.5 -111t12 -127.5v-233h-723v219q0 103 -60 146t-204 43h-295v-408h-723v1669zM1163 1200h-368v-315h368q103 0 151 36.5t48 118.5v13
q0 83 -47 115t-152 32z" />
    <glyph glyph-name="R.ss03" unicode="&#xe002;" horiz-adv-x="2150" 
d="M72 1669h1073q342 0 551.5 -63.5t301 -186.5t91.5 -319v-39q0 -145 -62.5 -252t-209.5 -182q74 -24 125.5 -62.5t80 -89t40.5 -105.5t12 -122v-23q0 -88 11 -133t54 -92h-723q-29 26 -47 73.5t-18 104.5v23q0 124 -59.5 165.5t-205.5 41.5h-292v-408h-723v1669z
M1163 1200h-368v-315h368q103 0 151 36.5t48 118.5v13q0 83 -47 115t-152 32z" />
    <glyph glyph-name="caronSlovak" unicode="&#xe003;" horiz-adv-x="512" 
d="M369 1505h-234v164h326z" />
    <glyph glyph-name="commaaccent" unicode="&#xe004;" horiz-adv-x="512" 
d="M352 -205h-293l158 53h-172v115h463v-117z" />
    <glyph glyph-name="commaaccent.alt" unicode="&#xe005;" horiz-adv-x="512" 
d="M221 1688h289l-219 -60h213v-108h-465v108z" />
    <glyph glyph-name="idotaccent" unicode="&#xe009;" 
d="M432 1513q-94 0 -132 22t-38 71t38 70.5t132 21.5t132 -21.5t38 -70.5t-38 -71t-132 -22zM72 0v1475h723v-1475h-723z" />
    <glyph glyph-name="two.ss05" unicode="&#xe00a;" horiz-adv-x="2299" 
d="M82 246q0 196 35 325t120.5 215.5t217.5 129t336 59.5l495 41q150 12 201 25.5t51 39.5v2q0 24 -27.5 36.5t-107.5 19t-236 6.5q-254 0 -361.5 -30.5t-107.5 -88.5v-2h-602v16q0 308 283 473.5t866 165.5q507 0 770.5 -133t263.5 -393v-16q0 -99 -22.5 -173t-76.5 -136
t-144.5 -104t-224 -70.5t-318.5 -43.5l-481 -39q-91 -8 -132 -20.5t-53 -38.5h1364v-512h-2109v246z" />
    <glyph glyph-name="y.ss05" unicode="&#xe00b;" horiz-adv-x="2252" 
d="M969 -102l57 272h-549l-371 1305h725l240 -1102l4 12l342 1090h746l-557 -1577h-637z" />
    <glyph glyph-name="zero.slash" unicode="&#xe00c;" horiz-adv-x="2285" 
d="M31 0l260 203q-260 197 -260 579v105q0 792 1112 792q481 0 755 -149l179 139h178l-258 -203q258 -198 258 -579v-105q0 -792 -1112 -792q-483 0 -754 149l-182 -139h-176zM1143 1073q-212 0 -298.5 -52.5t-86.5 -176.5v-19q0 -114 69 -166l512 398q-71 16 -196 16z
M1528 844q0 113 -70 166l-510 -398q68 -16 195 -16q212 0 298.5 52.5t86.5 176.5v19z" />
    <glyph glyph-name="CR" horiz-adv-x="512" 
 />
    <glyph glyph-name="Q.stack" horiz-adv-x="2310" 
d="M1409 0v74q-127 -13 -252 -13q-1116 0 -1116 760v99q0 759 1116 759q1104 0 1104 -759v-99q0 -168 -78 -293h82v-528h-856zM1534 879q0 120 -85 170.5t-298 50.5t-298 -50.5t-85 -170.5v-17q0 -120 85 -170.5t298 -50.5t298 50.5t85 170.5v17z" />
    <glyph glyph-name="Agrave.stack" horiz-adv-x="2252" 
d="M573 1618v61l1102 -24v-37h-1102zM1546 0l-84 244h-674l-83 -244h-685l553 1608h1102l557 -1608h-686zM928 653h395l-197 576z" />
    <glyph glyph-name="Aacute.stack" horiz-adv-x="2252" 
d="M1675 1618h-1102v37l1102 24v-61zM1546 0l-84 244h-674l-83 -244h-685l553 1608h1102l557 -1608h-686zM928 653h395l-197 576z" />
    <glyph glyph-name="Acircumflex.stack" horiz-adv-x="2252" 
d="M1237 1618l-111 37l-110 -37h-436l125 51h843l125 -51h-436zM1546 0l-84 244h-674l-83 -244h-685l553 1608h1102l557 -1608h-686zM928 653h395l-197 576z" />
    <glyph glyph-name="Atilde.stack" horiz-adv-x="2252" 
d="M1673 1669q0 -51 -276 -51q-113 0 -249.5 5t-203.5 5q-76 0 -76 -10h-295q0 51 277 51q113 0 249.5 -5t203.5 -5q75 0 75 10h295zM2232 0h-686l-84 244h-674l-83 -244h-685l553 1608h1102zM928 653h395l-197 576z" />
    <glyph glyph-name="Adieresis.stack" horiz-adv-x="2252" 
d="M573 1622v41h510v-41h-510zM1675 1622h-510v41h510v-41zM1546 0l-84 244h-674l-83 -244h-685l553 1608h1102l557 -1608h-686zM928 653h395l-197 576z" />
    <glyph glyph-name="Amacron.stack" horiz-adv-x="2252" 
d="M471 1622v41h1311v-41h-1311zM1546 0l-84 244h-674l-83 -244h-685l553 1608h1102l557 -1608h-686zM928 653h395l-197 576z" />
    <glyph glyph-name="Abreve.stack" horiz-adv-x="2252" 
d="M1124 1645q248 0 258 24h293q0 -17 -45.5 -27.5t-170.5 -17t-335 -6.5t-335 6.5t-170.5 17t-45.5 27.5h293q10 -24 258 -24zM1546 0l-84 244h-674l-83 -244h-685l553 1608h1102l557 -1608h-686zM928 653h395l-197 576z" />
    <glyph glyph-name="Aring.stack" horiz-adv-x="2252" 
d="M1546 0l-84 244h-674l-83 -244h-685l553 1608h484v6q0 26 18.5 41.5t50.5 15.5t51 -15.5t19 -41.5v-6h479l557 -1608h-686zM1126 1649q-20 0 -30.5 -9.5t-10.5 -25.5v-6h82v6q0 16 -10.5 25.5t-30.5 9.5zM928 653h395l-197 576z" />
    <glyph glyph-name="Aringacute.stack" horiz-adv-x="2252" 
d="M573 1618v37l1102 24v-61h-1102zM1546 0l-88 244h-665l-88 -244h-685l553 1546h484v6q0 26 18.5 42t50.5 16t51 -16t19 -42v-6h479l557 -1546h-686zM1126 1587q-20 0 -30.5 -9.5t-10.5 -25.5v-6h82v6q0 16 -10.5 25.5t-30.5 9.5zM938 653h375l-187 523z" />
    <glyph glyph-name="Aogonek.stack" horiz-adv-x="2252" 
d="M1546 61l-84 244h-674l-83 -244h-685l553 1608h1102l557 -1608h-508q-72 -17 -88 -23t-16 -15q0 -11 22 -11q25 0 25 8v5h197v-5q0 -26 -262 -26q-135 0 -177.5 4.5t-42.5 21.5q0 29 201 41h-37zM928 715h395l-197 575z" />
    <glyph glyph-name="AEacute.stack" horiz-adv-x="3194" 
d="M2253 1618h-934v37l934 24v-61zM0 0l993 1608h2151v-506h-996v-66h904v-469h-904v-61h996v-506h-1719v426h-481l-252 -426h-692zM1184 834h241v409z" />
    <glyph glyph-name="Cacute.stack" horiz-adv-x="2306" 
d="M1622 1618h-934v37l934 24v-61zM1536 758h729v-17q0 -369 -275.5 -560t-832.5 -191q-1116 0 -1116 760v98q0 760 1116 760q554 0 831 -191.5t277 -560.5v-16h-729v8q0 153 -385 153q-213 0 -298 -44t-85 -150v-16q0 -106 85 -150.5t298 -44.5q385 0 385 154v8z" />
    <glyph glyph-name="Ccircumflex.stack" horiz-adv-x="2306" 
d="M1266 1618l-111 37l-111 -37h-358l125 51h688l125 -51h-358zM1536 758h729v-17q0 -369 -275.5 -560t-832.5 -191q-1116 0 -1116 760v98q0 760 1116 760q554 0 831 -191.5t277 -560.5v-16h-729v8q0 153 -385 153q-213 0 -298 -44t-85 -150v-16q0 -106 85 -150.5t298 -44.5
q385 0 385 154v8z" />
    <glyph glyph-name="Ccaron.stack" horiz-adv-x="2306" 
d="M1266 1669h358l-125 -51h-688l-125 51h358l111 -37zM1536 758h729v-17q0 -369 -275.5 -560t-832.5 -191q-1116 0 -1116 760v98q0 760 1116 760q554 0 831 -191.5t277 -560.5v-16h-729v8q0 153 -385 153q-213 0 -298 -44t-85 -150v-16q0 -106 85 -150.5t298 -44.5
q385 0 385 154v8z" />
    <glyph glyph-name="Cdotaccent.stack" horiz-adv-x="2306" 
d="M1536 758h729v-17q0 -369 -275.5 -560t-832.5 -191q-1116 0 -1116 760v98q0 716 993 758q5 33 32.5 49t88.5 16q60 0 88 -16t33 -49q495 -20 742 -210.5t247 -539.5v-16h-729v8q0 153 -385 153q-213 0 -298 -44t-85 -150v-16q0 -106 85 -150.5t298 -44.5q385 0 385 154v8
z" />
    <glyph glyph-name="Ccedilla.stack" horiz-adv-x="2306" 
d="M1536 823h729v-16q0 -336 -226.5 -526.5t-684.5 -223.5l-8 -57h-342l26 53q-989 45 -989 762v100q0 764 1116 764q554 0 831 -192.5t277 -562.5v-17h-729v8q0 154 -385 154q-213 0 -298 -44.5t-85 -150.5v-16q0 -107 85 -151.5t298 -44.5q385 0 385 153v8z" />
    <glyph glyph-name="Dcaron.stack" horiz-adv-x="2263" 
d="M1255 1669h359l-125 -51h-688l-125 51h358l111 -37zM72 0v1608h1022q408 0 656.5 -84t360 -252.5t111.5 -440.5v-77q0 -264 -111.5 -428t-360 -245t-656.5 -81h-1022zM1145 1020h-350v-436h350q186 0 266 41t80 153v23q0 126 -80 172.5t-266 46.5z" />
    <glyph glyph-name="Egrave.stack" horiz-adv-x="1841" 
d="M358 1618v61l1147 -24v-37h-1147zM1790 506v-506h-1718v1608h1718v-506h-995v-66h903v-469h-903v-61h995z" />
    <glyph glyph-name="Eacute.stack" horiz-adv-x="1841" 
d="M1505 1618h-1147v37l1147 24v-61zM1790 506v-506h-1718v1608h1718v-506h-995v-66h903v-469h-903v-61h995z" />
    <glyph glyph-name="Ecircumflex.stack" horiz-adv-x="1841" 
d="M1042 1618l-110 37l-111 -37h-358l125 51h688l125 -51h-359zM1790 506v-506h-1718v1608h1718v-506h-995v-66h903v-469h-903v-61h995z" />
    <glyph glyph-name="Ecaron.stack" horiz-adv-x="1841" 
d="M1042 1669h359l-125 -51h-688l-125 51h358l111 -37zM1790 506v-506h-1718v1608h1718v-506h-995v-66h903v-469h-903v-61h995z" />
    <glyph glyph-name="Edieresis.stack" horiz-adv-x="1841" 
d="M465 1622v41h424v-41h-424zM1399 1622h-424v41h424v-41zM1790 506v-506h-1718v1608h1718v-506h-995v-66h903v-469h-903v-61h995z" />
    <glyph glyph-name="Emacron.stack" horiz-adv-x="1841" 
d="M465 1622v41h934v-41h-934zM1790 506v-506h-1718v1608h1718v-506h-995v-66h903v-469h-903v-61h995z" />
    <glyph glyph-name="Ebreve.stack" horiz-adv-x="1841" 
d="M932 1645q212 0 219 24h250q0 -16 -39 -27t-145 -17.5t-285 -6.5t-285 6.5t-145 17.5t-39 27h250q7 -24 219 -24zM1790 506v-506h-1718v1608h1718v-506h-995v-66h903v-469h-903v-61h995z" />
    <glyph glyph-name="Edotaccent.stack" horiz-adv-x="1841" 
d="M932 1671q60 0 87 -15.5t32 -47.5h739v-506h-995v-66h903v-469h-903v-61h995v-506h-1718v1608h741q5 32 32 47.5t87 15.5z" />
    <glyph glyph-name="Eogonek.stack" horiz-adv-x="1841" 
d="M1651 61q-72 -17 -88.5 -23t-16.5 -15q0 -11 23 -11q24 0 24 8v5h197v-5q0 -26 -262 -26q-135 0 -177 4.5t-42 21.5q0 29 200 41h-1437v1608h1718v-506h-995v-65h903v-467h-903v-64h995v-506h-139z" />
    <glyph glyph-name="Gcircumflex.stack" horiz-adv-x="2326" 
d="M1266 1618l-111 37l-111 -37h-358l125 51h688l125 -51h-358zM1106 -10q-555 0 -810 188t-255 606v54q0 770 1114 770q543 0 826.5 -181.5t283.5 -498.5v-6h-719v4q0 63 -100.5 99t-288.5 36q-208 0 -298.5 -61t-90.5 -216v-16q0 -140 90 -199t293 -59q288 0 401 74h-401
v268h1114v-852h-356l-68 274q-23 -47 -84 -95.5t-152 -91.5t-222.5 -70t-276.5 -27z" />
    <glyph glyph-name="Gbreve.stack" horiz-adv-x="2326" 
d="M1155 1645q212 0 219 24h250q0 -16 -39 -27t-145 -17.5t-285 -6.5t-285 6.5t-145 17.5t-39 27h250q7 -24 219 -24zM1106 -10q-555 0 -810 188t-255 606v54q0 770 1114 770q543 0 826.5 -181.5t283.5 -498.5v-6h-719v4q0 63 -100.5 99t-288.5 36q-208 0 -298.5 -61
t-90.5 -216v-16q0 -140 90 -199t293 -59q288 0 401 74h-401v268h1114v-852h-356l-68 274q-23 -47 -84 -95.5t-152 -91.5t-222.5 -70t-276.5 -27z" />
    <glyph glyph-name="Gdotaccent.stack" horiz-adv-x="2326" 
d="M1106 -10q-555 0 -810 188t-255 606v54q0 726 993 768q5 33 32.5 49t88.5 16q60 0 88 -16t33 -49q485 -21 737 -200.5t252 -477.5v-6h-719v4q0 63 -100.5 99t-288.5 36q-208 0 -298.5 -61t-90.5 -216v-16q0 -140 90 -199t293 -59q288 0 401 74h-401v268h1114v-852h-356
l-68 274q-23 -47 -84 -95.5t-152 -91.5t-222.5 -70t-276.5 -27z" />
    <glyph glyph-name="Gcommaaccent.stack" horiz-adv-x="2326" 
d="M1106 51q-554 0 -809.5 189.5t-255.5 609.5v55q0 774 1114 774q543 0 826.5 -183t283.5 -501v-6h-719v4q0 69 -104.5 113.5t-290.5 44.5q-204 0 -293.5 -66t-89.5 -235v-19q0 -150 90 -214t293 -64q141 0 240 17t163 63h-403v287h1114v-859h-356l-68 277q-23 -47 -84 -96
t-152 -92.5t-222.5 -71t-276.5 -27.5zM1278 0h-311l28 41h320z" />
    <glyph glyph-name="Hcircumflex.stack" horiz-adv-x="2265" 
d="M1243 1618l-110 37l-111 -37h-358l124 51h689l125 -51h-359zM1470 0v537h-675v-537h-723v1608h723v-465h675v465h723v-1608h-723z" />
    <glyph glyph-name="Igrave.stack" 
d="M72 1618v61l723 -24v-37h-723zM72 0v1608h723v-1608h-723z" />
    <glyph glyph-name="Iacute.stack" 
d="M795 1618h-723v37l723 24v-61zM72 0v1608h723v-1608h-723z" />
    <glyph glyph-name="Icircumflex.stack" 
d="M545 1618l-111 37l-110 -37h-252l125 51h473l125 -51h-250zM72 0v1608h723v-1608h-723z" />
    <glyph glyph-name="Itilde.stack" 
d="M612 1618q-75 0 -165 5t-134 5q-49 0 -49 -10h-192q0 51 182 51q73 0 163.5 -5t135.5 -5q49 0 49 10h193q0 -51 -183 -51zM72 0v1608h723v-1608h-723z" />
    <glyph glyph-name="Idieresis.stack" 
d="M72 1622v41h319v-41h-319zM795 1622h-320v41h320v-41zM72 0v1608h723v-1608h-723z" />
    <glyph glyph-name="Imacron.stack" 
d="M795 1622h-723v41h723v-41zM72 0v1608h723v-1608h-723z" />
    <glyph glyph-name="Ibreve.stack" 
d="M432 1645q165 0 168 24h195q0 -16 -30 -27t-112.5 -17.5t-220.5 -6.5t-220 6.5t-112 17t-30 27.5h194q3 -24 168 -24zM72 0v1608h723v-1608h-723z" />
    <glyph glyph-name="Idotaccent.stack" 
d="M72 0v1608h243q5 32 32 47.5t87 15.5t87 -15.5t32 -47.5h242v-1608h-723z" />
    <glyph glyph-name="Iogonek.stack" 
d="M72 61v1608h723v-1608h-242q-72 -17 -88 -23t-16 -15q0 -11 22 -11q25 0 25 8v5h196v-5q0 -26 -262 -26q-135 0 -177 4.5t-42 21.5q0 29 201 41h-340z" />
    <glyph glyph-name="Jcircumflex.stack" horiz-adv-x="1378" 
d="M1057 1618l-111 37l-110 -37h-252l125 51h473l125 -51h-250zM20 0v625h185q193 0 286 105.5t93 322.5v555h723v-670q0 -248 -57.5 -426t-175 -291.5t-290.5 -167t-411 -53.5h-353z" />
    <glyph glyph-name="Jcircumflex.ss01" horiz-adv-x="2357" 
d="M1999 1737l-80 47l-80 -47h-291l121 127h500l121 -127h-291zM1559 1669h722v-668q0 -517 -277 -764t-833 -247q-527 0 -817.5 230.5t-290.5 678.5v102h719v-77q0 -178 94 -249t298 -71q207 0 296 92t89 324v649z" />
    <glyph glyph-name="Jcircumflex.ss01.stack" horiz-adv-x="2357" 
d="M2032 1618l-111 37l-111 -37h-251l124 51h474l124 -51h-249zM1559 1608h722v-643q0 -499 -277 -737t-833 -238q-346 0 -593.5 102t-381 304.5t-133.5 492.5v98h719v-76q0 -171 94 -239t298 -68q207 0 296 89.5t89 312.5v602z" />
    <glyph glyph-name="Kcommaaccent.stack" horiz-adv-x="2357" 
d="M72 61v1608h723v-604l678 604h849l-895 -795l910 -813h-864l-678 617v-617h-723zM1157 0h-311l28 41h320z" />
    <glyph glyph-name="Lacute.stack" horiz-adv-x="1818" 
d="M795 1618h-723v37l723 24v-61zM72 0v1608h723v-963h1003v-645h-1726z" />
    <glyph glyph-name="Lcommaaccent.stack" horiz-adv-x="1818" 
d="M72 61v1608h723v-962h1003v-646h-1726zM1057 0h-312l29 41h320z" />
    <glyph glyph-name="Nacute.stack" horiz-adv-x="2267" 
d="M1606 1618h-934v37l934 24v-61zM1567 0l-830 711v-711h-665v1608h628l830 -699v699h665v-1608h-628z" />
    <glyph glyph-name="Ncaron.stack" horiz-adv-x="2267" 
d="M1249 1669h359l-125 -51h-688l-125 51h358l111 -37zM1567 0l-830 711v-711h-665v1608h628l830 -699v699h665v-1608h-628z" />
    <glyph glyph-name="Ntilde.stack" horiz-adv-x="2267" 
d="M1606 1669q0 -51 -236 -51q-95 0 -211.5 5t-173.5 5q-63 0 -63 -10h-250q0 51 235 51q95 0 211.5 -5t173.5 -5q64 0 64 10h250zM1567 0l-830 711v-711h-665v1608h628l830 -699v699h665v-1608h-628z" />
    <glyph glyph-name="Ncommaaccent.stack" horiz-adv-x="2267" 
d="M1567 61l-830 711v-711h-665v1608h628l830 -698v698h665v-1608h-628zM1262 0h-312l29 41h319z" />
    <glyph glyph-name="Ograve.stack" horiz-adv-x="2301" 
d="M690 1618v61l934 -24v-37h-934zM2261 750q0 -370 -271 -565t-833 -195q-1116 0 -1116 760v98q0 760 1116 760q562 0 833 -195t271 -565v-98zM1534 807q0 120 -85 170.5t-298 50.5t-298 -50.5t-85 -170.5v-16q0 -120 85.5 -171t297.5 -51t297.5 51t85.5 171v16z" />
    <glyph glyph-name="Oacute.stack" horiz-adv-x="2301" 
d="M1624 1618h-934v37l934 24v-61zM2261 750q0 -370 -271 -565t-833 -195q-1116 0 -1116 760v98q0 760 1116 760q562 0 833 -195t271 -565v-98zM1534 807q0 120 -85 170.5t-298 50.5t-298 -50.5t-85 -170.5v-16q0 -120 85.5 -171t297.5 -51t297.5 51t85.5 171v16z" />
    <glyph glyph-name="Ocircumflex.stack" horiz-adv-x="2301" 
d="M1268 1618l-111 37l-110 -37h-359l125 51h688l125 -51h-358zM2261 750q0 -370 -271 -565t-833 -195q-1116 0 -1116 760v98q0 760 1116 760q562 0 833 -195t271 -565v-98zM1534 807q0 120 -85 170.5t-298 50.5t-298 -50.5t-85 -170.5v-16q0 -120 85.5 -171t297.5 -51
t297.5 51t85.5 171v16z" />
    <glyph glyph-name="Otilde.stack" horiz-adv-x="2301" 
d="M1624 1669q0 -51 -235 -51q-95 0 -211.5 5t-173.5 5q-64 0 -64 -10h-250q0 51 236 51q95 0 211.5 -5t173.5 -5q63 0 63 10h250zM2261 750q0 -370 -271 -565t-833 -195q-1116 0 -1116 760v98q0 760 1116 760q562 0 833 -195t271 -565v-98zM1534 807q0 120 -85 170.5
t-298 50.5t-298 -50.5t-85 -170.5v-16q0 -120 85.5 -171t297.5 -51t297.5 51t85.5 171v16z" />
    <glyph glyph-name="Odieresis.stack" horiz-adv-x="2301" 
d="M690 1622v41h424v-41h-424zM1624 1622h-424v41h424v-41zM2261 750q0 -370 -271 -565t-833 -195q-1116 0 -1116 760v98q0 760 1116 760q562 0 833 -195t271 -565v-98zM1534 807q0 120 -85 170.5t-298 50.5t-298 -50.5t-85 -170.5v-16q0 -120 85.5 -171t297.5 -51t297.5 51
t85.5 171v16z" />
    <glyph glyph-name="Omacron.stack" horiz-adv-x="2301" 
d="M690 1622v41h934v-41h-934zM2261 750q0 -370 -271 -565t-833 -195q-1116 0 -1116 760v98q0 760 1116 760q562 0 833 -195t271 -565v-98zM1534 807q0 120 -85 170.5t-298 50.5t-298 -50.5t-85 -170.5v-16q0 -120 85.5 -171t297.5 -51t297.5 51t85.5 171v16z" />
    <glyph glyph-name="Obreve.stack" horiz-adv-x="2301" 
d="M1376 1669h250q0 -16 -39 -27t-145 -17.5t-285 -6.5t-285 6.5t-145 17.5t-39 27h250q7 -24 219 -24t219 24zM41 848q0 760 1116 760q562 0 833 -195t271 -565v-98q0 -370 -271 -565t-833 -195q-1116 0 -1116 760v98zM1534 791v16q0 120 -85 170.5t-298 50.5t-298 -50.5
t-85 -170.5v-16q0 -120 85.5 -171t297.5 -51t297.5 51t85.5 171z" />
    <glyph glyph-name="Ohungarumlaut.stack" horiz-adv-x="2301" 
d="M1094 1618h-254l100 51h309zM1446 1618h-254l100 51h310zM2261 750q0 -370 -271 -565t-833 -195q-1116 0 -1116 760v98q0 760 1116 760q562 0 833 -195t271 -565v-98zM1534 807q0 120 -85 170.5t-298 50.5t-298 -50.5t-85 -170.5v-16q0 -120 85.5 -171t297.5 -51
t297.5 51t85.5 171v16z" />
    <glyph glyph-name="Oslashacute.stack" horiz-adv-x="2310" 
d="M1624 1618h-934v37l934 24v-61zM41 0l258 195q-258 192 -258 555v98q0 760 1116 760q463 0 729 -133l176 133h176l-251 -193q274 -190 274 -567v-98q0 -370 -271 -565t-833 -195q-490 0 -762 145l-180 -135h-174zM768 791q0 -104 63 -156l498 381q-70 12 -178 12
q-213 0 -298 -50.5t-85 -170.5v-16zM1534 807q0 116 -80 168l-510 -389q94 -17 207 -17q212 0 297.5 51t85.5 171v16z" />
    <glyph glyph-name="Racute.stack" horiz-adv-x="2146" 
d="M1561 1618h-934v37l934 24v-61zM1354 0l-197 395h-45h-317v-395h-723v1608h1077q342 0 551.5 -67t301 -197t91.5 -336v-41q0 -155 -61.5 -265.5t-192.5 -181.5l287 -520h-772zM1167 1114h-372v-258h372q103 0 151 30.5t48 98.5v6q0 70 -47 96.5t-152 26.5z" />
    <glyph glyph-name="Rcaron.stack" horiz-adv-x="2146" 
d="M1204 1669h359l-125 -51h-688l-125 51h358l111 -37zM1354 0l-197 395h-45h-317v-395h-723v1608h1077q342 0 551.5 -67t301 -197t91.5 -336v-41q0 -155 -61.5 -265.5t-192.5 -181.5l287 -520h-772zM1167 1114h-372v-258h372q103 0 151 30.5t48 98.5v6q0 70 -47 96.5
t-152 26.5z" />
    <glyph glyph-name="Rcommaaccent.stack" horiz-adv-x="2146" 
d="M1354 61l-197 396h-45h-317v-396h-723v1608h1077q342 0 551.5 -67t301 -197t91.5 -336v-41q0 -155 -61.5 -265t-192.5 -181l287 -521h-772zM1167 1176h-372v-258h372q103 0 151 30.5t48 98.5v8q0 68 -47 94.5t-152 26.5zM1217 0h-312l29 41h319z" />
    <glyph glyph-name="Racute.ss02" horiz-adv-x="2148" 
d="M1290 1737h-385l82 127h459zM72 1669h1073q342 0 551.5 -63.5t301 -186.5t91.5 -319v-39q0 -149 -62 -255.5t-208 -178.5q74 -23 125.5 -62.5t80 -93t40.5 -111t12 -127.5v-233h-723v219q0 103 -60 146t-204 43h-295v-408h-723v1669zM1163 1200h-368v-315h368
q103 0 151 36.5t48 118.5v13q0 83 -47 115t-152 32z" />
    <glyph glyph-name="Rcaron.ss02" horiz-adv-x="2148" 
d="M1143 1864h293l-93 -127h-499l-92 127h292l50 -45zM72 1669h1073q342 0 551.5 -63.5t301 -186.5t91.5 -319v-39q0 -149 -62 -255.5t-208 -178.5q74 -23 125.5 -62.5t80 -93t40.5 -111t12 -127.5v-233h-723v219q0 103 -60 146t-204 43h-295v-408h-723v1669zM1163 1200
h-368v-315h368q103 0 151 36.5t48 118.5v13q0 83 -47 115t-152 32z" />
    <glyph glyph-name="Rcommaaccent.ss02" horiz-adv-x="2148" 
d="M72 1669h1073q342 0 551.5 -63.5t301 -186.5t91.5 -319v-39q0 -149 -62 -255.5t-208 -178.5q74 -23 125.5 -62.5t80 -93t40.5 -111t12 -127.5v-233h-723v219q0 103 -60 146t-204 43h-295v-408h-723v1669zM1163 1200h-368v-315h368q103 0 151 36.5t48 118.5v13
q0 83 -47 115t-152 32zM1190 -205h-293l158 53h-172v115h463v-117z" />
    <glyph glyph-name="Racute.ss02.stack" horiz-adv-x="2148" 
d="M1561 1618h-934v37l934 24v-61zM72 1608h1073q342 0 551.5 -61.5t301 -180t91.5 -307.5v-37q0 -144 -62 -246.5t-208 -171.5q142 -43 200 -141t58 -238v-225h-723v211q0 100 -59.5 141t-204.5 41h-295v-393h-723v1608zM1163 1155h-368v-303h368q103 0 151 35t48 114v13
q0 80 -46.5 110.5t-152.5 30.5z" />
    <glyph glyph-name="Rcaron.ss02.stack" horiz-adv-x="2148" 
d="M1204 1669h359l-125 -51h-688l-125 51h358l111 -37zM72 1608h1073q342 0 551.5 -61.5t301 -180t91.5 -307.5v-37q0 -144 -62 -246.5t-208 -171.5q142 -43 200 -141t58 -238v-225h-723v211q0 100 -59.5 141t-204.5 41h-295v-393h-723v1608zM1163 1155h-368v-303h368
q103 0 151 35t48 114v13q0 80 -46.5 110.5t-152.5 30.5z" />
    <glyph glyph-name="Rcommaaccent.ss02.stack" horiz-adv-x="2148" 
d="M72 1669h1073q342 0 551.5 -61.5t301 -180t91.5 -307.5v-37q0 -143 -61.5 -244.5t-206.5 -172.5q74 -22 125.5 -60.5t79 -89.5t39.5 -106.5t12 -122.5v-226h-723v211q0 100 -59.5 141.5t-204.5 41.5h-295v-394h-723v1608zM1163 1217h-368v-304h368q102 0 150.5 35.5
t48.5 114.5v12q0 80 -47 111t-152 31zM1217 0h-312l29 41h319z" />
    <glyph glyph-name="Racute.ss03" horiz-adv-x="2150" 
d="M1290 1737h-385l82 127h459zM72 1669h1073q342 0 551.5 -63.5t301 -186.5t91.5 -319v-39q0 -145 -62.5 -252t-209.5 -182q74 -24 125.5 -62.5t80 -89t40.5 -105.5t12 -122v-23q0 -88 11 -133t54 -92h-723q-29 26 -47 73.5t-18 104.5v23q0 124 -59.5 165.5t-205.5 41.5
h-292v-408h-723v1669zM1163 1200h-368v-315h368q103 0 151 36.5t48 118.5v13q0 83 -47 115t-152 32z" />
    <glyph glyph-name="Rcaron.ss03" horiz-adv-x="2150" 
d="M1143 1864h293l-93 -127h-499l-92 127h292l50 -45zM72 1669h1073q342 0 551.5 -63.5t301 -186.5t91.5 -319v-39q0 -145 -62.5 -252t-209.5 -182q74 -24 125.5 -62.5t80 -89t40.5 -105.5t12 -122v-23q0 -88 11 -133t54 -92h-723q-29 26 -47 73.5t-18 104.5v23
q0 124 -59.5 165.5t-205.5 41.5h-292v-408h-723v1669zM1163 1200h-368v-315h368q103 0 151 36.5t48 118.5v13q0 83 -47 115t-152 32z" />
    <glyph glyph-name="Rcommaaccent.ss03" horiz-adv-x="2150" 
d="M72 1669h1073q342 0 551.5 -63.5t301 -186.5t91.5 -319v-39q0 -145 -62.5 -252t-209.5 -182q74 -24 125.5 -62.5t80 -89t40.5 -105.5t12 -122v-23q0 -88 11 -133t54 -92h-723q-29 26 -47 73.5t-18 104.5v23q0 124 -59.5 165.5t-205.5 41.5h-292v-408h-723v1669z
M1163 1200h-368v-315h368q103 0 151 36.5t48 118.5v13q0 83 -47 115t-152 32zM1190 -205h-293l158 53h-172v115h463v-117z" />
    <glyph glyph-name="Racute.ss03.stack" horiz-adv-x="2150" 
d="M1561 1618h-934v37l934 24v-61zM72 1608h1073q342 0 551.5 -61.5t301 -180t91.5 -307.5v-37q0 -140 -62.5 -244t-209.5 -176q143 -43 200.5 -135t57.5 -227v-23q0 -85 11 -128t54 -89h-723q-29 24 -47 70.5t-18 101.5v21q0 119 -59.5 159.5t-205.5 40.5h-292v-393h-723
v1608zM1163 1155h-368v-303h368q103 0 151 35t48 114v13q0 80 -46.5 110.5t-152.5 30.5z" />
    <glyph glyph-name="Rcaron.ss03.stack" horiz-adv-x="2150" 
d="M1204 1669h359l-125 -51h-688l-125 51h358l111 -37zM72 1608h1073q342 0 551.5 -61.5t301 -180t91.5 -307.5v-37q0 -140 -62.5 -244t-209.5 -176q143 -43 200.5 -135t57.5 -227v-23q0 -85 11 -128t54 -89h-723q-29 24 -47 70.5t-18 101.5v21q0 119 -59.5 159.5
t-205.5 40.5h-292v-393h-723v1608zM1163 1155h-368v-303h368q103 0 151 35t48 114v13q0 80 -46.5 110.5t-152.5 30.5z" />
    <glyph glyph-name="Rcommaaccent.ss03.stack" horiz-adv-x="2150" 
d="M72 1669h1073q342 0 551.5 -61.5t301 -180t91.5 -307.5v-37q0 -138 -62.5 -241.5t-207.5 -175.5q73 -23 124.5 -60t79.5 -86t40 -102t12 -117v-22q0 -85 11 -128.5t54 -89.5h-723q-29 26 -47 71.5t-18 100.5v23q0 118 -60 158.5t-205 40.5h-292v-394h-723v1608z
M1163 1217h-368v-304h368q102 0 150.5 35.5t48.5 114.5v12q0 80 -47 111t-152 31zM1217 0h-312l29 41h319z" />
    <glyph glyph-name="Sacute.stack" horiz-adv-x="2265" 
d="M1589 1618h-934v37l934 24v-61zM643 504q0 -26 30.5 -42t120 -26t246.5 -10q119 0 201.5 3t128.5 7.5t71 13t31.5 16t6.5 19.5v4q0 21 -25.5 31t-130 16.5t-317.5 6.5q-279 0 -467.5 29t-304 92.5t-165 156.5t-49.5 228v16q0 273 265.5 408t836.5 135q537 0 809.5 -139
t272.5 -394v-16h-602v2q0 104 -439 104q-112 0 -189.5 -3.5t-118.5 -9t-62.5 -14.5t-26 -16.5t-4.5 -19.5v-2q0 -18 31 -27.5t138 -15.5t314 -6q520 0 760 -123.5t240 -382.5v-17q0 -136 -60 -234.5t-192.5 -167.5t-348.5 -102.5t-522 -33.5q-546 0 -813.5 117t-267.5 372
v27h602v-2z" />
    <glyph glyph-name="Scircumflex.stack" horiz-adv-x="2265" 
d="M1233 1618l-111 37l-110 -37h-359l125 51h688l125 -51h-358zM643 504q0 -26 30.5 -42t120 -26t246.5 -10q119 0 201.5 3t128.5 7.5t71 13t31.5 16t6.5 19.5v4q0 21 -25.5 31t-130 16.5t-317.5 6.5q-279 0 -467.5 29t-304 92.5t-165 156.5t-49.5 228v16q0 273 265.5 408
t836.5 135q537 0 809.5 -139t272.5 -394v-16h-602v2q0 104 -439 104q-112 0 -189.5 -3.5t-118.5 -9t-62.5 -14.5t-26 -16.5t-4.5 -19.5v-2q0 -18 31 -27.5t138 -15.5t314 -6q520 0 760 -123.5t240 -382.5v-17q0 -136 -60 -234.5t-192.5 -167.5t-348.5 -102.5t-522 -33.5
q-546 0 -813.5 117t-267.5 372v27h602v-2z" />
    <glyph glyph-name="Scaron.stack" horiz-adv-x="2265" 
d="M1233 1669h358l-125 -51h-688l-125 51h359l110 -37zM643 504q0 -26 30.5 -42t120 -26t246.5 -10q119 0 201.5 3t128.5 7.5t71 13t31.5 16t6.5 19.5v4q0 21 -25.5 31t-130 16.5t-317.5 6.5q-279 0 -467.5 29t-304 92.5t-165 156.5t-49.5 228v16q0 273 265.5 408t836.5 135
q537 0 809.5 -139t272.5 -394v-16h-602v2q0 104 -439 104q-112 0 -189.5 -3.5t-118.5 -9t-62.5 -14.5t-26 -16.5t-4.5 -19.5v-2q0 -18 31 -27.5t138 -15.5t314 -6q520 0 760 -123.5t240 -382.5v-17q0 -136 -60 -234.5t-192.5 -167.5t-348.5 -102.5t-522 -33.5
q-546 0 -813.5 117t-267.5 372v27h602v-2z" />
    <glyph glyph-name="Scedilla.stack" horiz-adv-x="2265" 
d="M643 569q0 -19 17 -32.5t59.5 -25t122.5 -17t198 -5.5t201.5 3.5t129 8.5t70.5 14t31.5 16.5t6.5 19.5v4q0 13 -7.5 20t-33 14.5t-77 11t-138 5.5t-217.5 2q-279 0 -467.5 29t-304 93t-165 157t-49.5 229v17q0 274 265.5 410t836.5 136q538 0 810 -139.5t272 -396.5v-17
h-602v2q0 107 -439 107q-112 0 -189.5 -4t-118.5 -9t-62.5 -15t-26 -17.5t-4.5 -20.5v-2q0 -18 31 -27.5t138 -15.5t314 -6q521 0 760.5 -124t239.5 -384v-16q0 -168 -89.5 -280t-296 -178.5t-540.5 -80.5l-6 -55h-342l26 53q-481 12 -718.5 131.5t-237.5 360.5v26h602v-2z
" />
    <glyph glyph-name="Scommaaccent.stack" horiz-adv-x="2265" 
d="M643 569q0 -19 17 -32.5t59.5 -25t122.5 -17t198 -5.5t201.5 3.5t129 8.5t70.5 14t31.5 16.5t6.5 19.5v4q0 13 -7.5 20t-33 14.5t-77 11t-138 5.5t-217.5 2q-279 0 -467.5 29t-304 93t-165 157t-49.5 229v17q0 274 265.5 410t836.5 136q538 0 810 -139.5t272 -396.5v-17
h-602v2q0 107 -439 107q-112 0 -189.5 -4t-118.5 -9t-62.5 -15t-26 -17.5t-4.5 -20.5v-2q0 -18 31 -27.5t138 -15.5t314 -6q521 0 760.5 -124t239.5 -384v-16q0 -137 -60 -236.5t-192.5 -169t-348.5 -103.5t-522 -34q-544 0 -812.5 119t-268.5 375v26h602v-2zM1245 0h-311
l29 41h319z" />
    <glyph glyph-name="Tcaron.stack" horiz-adv-x="1921" 
d="M1071 1669h359l-125 -51h-689l-124 51h358l111 -37zM1890 1006h-567v-1006h-723v1006h-569v602h1859v-602z" />
    <glyph glyph-name="Tcommaaccent.stack" horiz-adv-x="1921" 
d="M1890 1067h-567v-1006h-723v1006h-569v602h1859v-602zM1083 0h-311l29 41h319z" />
    <glyph glyph-name="Ugrave.stack" horiz-adv-x="2265" 
d="M666 1618v61l933 -24v-37h-933zM1470 1608h723v-553q0 -205 -23 -359t-75.5 -274.5t-132.5 -201t-200.5 -133t-273 -75t-355.5 -22.5t-355.5 23t-273 75t-201 133t-133 201.5t-75.5 274.5t-23 358v553h723v-500q0 -196 36.5 -306.5t107.5 -154t194 -43.5q92 0 153 23
t103.5 80.5t61.5 155t19 245.5v500z" />
    <glyph glyph-name="Uacute.stack" horiz-adv-x="2265" 
d="M1599 1618h-933v37l933 24v-61zM1470 1608h723v-553q0 -205 -23 -359t-75.5 -274.5t-132.5 -201t-200.5 -133t-273 -75t-355.5 -22.5t-355.5 23t-273 75t-201 133t-133 201.5t-75.5 274.5t-23 358v553h723v-500q0 -196 36.5 -306.5t107.5 -154t194 -43.5q92 0 153 23
t103.5 80.5t61.5 155t19 245.5v500z" />
    <glyph glyph-name="Ucircumflex.stack" horiz-adv-x="2265" 
d="M1243 1618l-110 37l-111 -37h-358l124 51h689l125 -51h-359zM1470 1608h723v-553q0 -205 -23 -359t-75.5 -274.5t-132.5 -201t-200.5 -133t-273 -75t-355.5 -22.5t-355.5 23t-273 75t-201 133t-133 201.5t-75.5 274.5t-23 358v553h723v-500q0 -196 36.5 -306.5
t107.5 -154t194 -43.5q92 0 153 23t103.5 80.5t61.5 155t19 245.5v500z" />
    <glyph glyph-name="Utilde.stack" horiz-adv-x="2265" 
d="M1599 1669q0 -51 -235 -51q-95 0 -211.5 5t-173.5 5q-64 0 -64 -10h-249q0 51 235 51q95 0 211.5 -5t173.5 -5q64 0 64 10h249zM1470 1608h723v-553q0 -205 -23 -359t-75.5 -274.5t-132.5 -201t-200.5 -133t-273 -75t-355.5 -22.5t-355.5 23t-273 75t-201 133t-133 201.5
t-75.5 274.5t-23 358v553h723v-500q0 -196 36.5 -306.5t107.5 -154t194 -43.5q92 0 153 23t103.5 80.5t61.5 155t19 245.5v500z" />
    <glyph glyph-name="Udieresis.stack" horiz-adv-x="2265" 
d="M666 1622v41h424v-41h-424zM1599 1622h-423v41h423v-41zM1470 1608h723v-553q0 -205 -23 -359t-75.5 -274.5t-132.5 -201t-200.5 -133t-273 -75t-355.5 -22.5t-355.5 23t-273 75t-201 133t-133 201.5t-75.5 274.5t-23 358v553h723v-500q0 -196 36.5 -306.5t107.5 -154
t194 -43.5q92 0 153 23t103.5 80.5t61.5 155t19 245.5v500z" />
    <glyph glyph-name="Umacron.stack" horiz-adv-x="2265" 
d="M666 1622v41h933v-41h-933zM1470 1608h723v-553q0 -205 -23 -359t-75.5 -274.5t-132.5 -201t-200.5 -133t-273 -75t-355.5 -22.5t-355.5 23t-273 75t-201 133t-133 201.5t-75.5 274.5t-23 358v553h723v-500q0 -196 36.5 -306.5t107.5 -154t194 -43.5q92 0 153 23
t103.5 80.5t61.5 155t19 245.5v500z" />
    <glyph glyph-name="Ubreve.stack" horiz-adv-x="2265" 
d="M1133 1645q212 0 219 24h250q0 -16 -39 -27t-145 -17.5t-285 -6.5t-285 6.5t-145 17.5t-39 27h249q7 -24 220 -24zM1470 1608h723v-553q0 -205 -23 -359t-75.5 -274.5t-132.5 -201t-200.5 -133t-273 -75t-355.5 -22.5t-355.5 23t-273 75t-201 133t-133 201.5t-75.5 274.5
t-23 358v553h723v-500q0 -196 36.5 -306.5t107.5 -154t194 -43.5q92 0 153 23t103.5 80.5t61.5 155t19 245.5v500z" />
    <glyph glyph-name="Uring.stack" horiz-adv-x="2265" 
d="M1133 1559q-33 0 -51.5 14.5t-18.5 40.5t19 41.5t51 15.5t50.5 -15.5t18.5 -41.5t-18.5 -40.5t-50.5 -14.5zM1133 1649q-20 0 -30.5 -9.5t-10.5 -25.5q0 -33 41 -33t41 33q0 16 -10.5 25.5t-30.5 9.5zM1470 1608h723v-553q0 -205 -23 -359t-75.5 -274.5t-132.5 -201
t-200.5 -133t-273 -75t-355.5 -22.5t-355.5 23t-273 75t-201 133t-133 201.5t-75.5 274.5t-23 358v553h723v-500q0 -196 36.5 -306.5t107.5 -154t194 -43.5q92 0 153 23t103.5 80.5t61.5 155t19 245.5v500z" />
    <glyph glyph-name="Uhungarumlaut.stack" horiz-adv-x="2265" 
d="M1069 1618h-254l100 51h310zM1421 1618h-254l101 51h309zM1470 1608h723v-553q0 -205 -23 -359t-75.5 -274.5t-132.5 -201t-200.5 -133t-273 -75t-355.5 -22.5t-355.5 23t-273 75t-201 133t-133 201.5t-75.5 274.5t-23 358v553h723v-500q0 -196 36.5 -306.5t107.5 -154
t194 -43.5q92 0 153 23t103.5 80.5t61.5 155t19 245.5v500z" />
    <glyph glyph-name="Uogonek.stack" horiz-adv-x="2265" 
d="M1470 1669h723v-553q0 -197 -21 -346.5t-69 -268.5t-122 -200t-184 -136t-250.5 -81t-325.5 -31q-43 -12 -54.5 -17t-11.5 -13q0 -11 23 -11q24 0 24 8v5h197v-5q0 -26 -262 -26q-135 0 -177 4.5t-42 21.5q0 21 102 33q-270 10 -448 68.5t-291.5 186.5t-161 322
t-47.5 486v553h723v-504q0 -196 36.5 -306.5t107.5 -153.5t194 -43q92 0 153 23t103.5 80.5t61.5 154.5t19 245v504z" />
    <glyph glyph-name="Wgrave.stack" horiz-adv-x="3315" 
d="M1262 1618v61l868 -24v-37h-868zM451 0l-435 1608h764l191 -795l291 795h868l268 -723l168 723h733l-440 -1608h-858l-340 948l-352 -948h-858z" />
    <glyph glyph-name="Wacute.stack" horiz-adv-x="3315" 
d="M2130 1618h-868v37l868 24v-61zM451 0l-435 1608h764l191 -795l291 795h868l268 -723l168 723h733l-440 -1608h-858l-340 948l-352 -948h-858z" />
    <glyph glyph-name="Wcircumflex.stack" horiz-adv-x="3315" 
d="M1802 1618l-110 37l-111 -37h-319l124 51h617l125 -51h-326zM451 0l-435 1608h764l191 -795l291 795h868l268 -723l168 723h733l-440 -1608h-858l-340 948l-352 -948h-858z" />
    <glyph glyph-name="Wdieresis.stack" horiz-adv-x="3315" 
d="M1262 1622v41h393v-41h-393zM2130 1622h-395v41h395v-41zM451 0l-435 1608h764l191 -795l291 795h868l268 -723l168 723h733l-440 -1608h-858l-340 948l-352 -948h-858z" />
    <glyph glyph-name="Ygrave.stack" horiz-adv-x="2185" 
d="M627 1618v61l934 -24v-37h-934zM727 600l-727 1008h793l297 -447l299 447h796l-735 -1012v-596h-723v600z" />
    <glyph glyph-name="Yacute.stack" horiz-adv-x="2185" 
d="M1561 1618h-934v37l934 24v-61zM727 600l-727 1008h793l297 -447l299 447h796l-735 -1012v-596h-723v600z" />
    <glyph glyph-name="Ycircumflex.stack" horiz-adv-x="2185" 
d="M1204 1618l-110 37l-111 -37h-358l125 51h688l125 -51h-359zM727 600l-727 1008h793l297 -447l299 447h796l-735 -1012v-596h-723v600z" />
    <glyph glyph-name="Ydieresis.stack" horiz-adv-x="2185" 
d="M627 1622v41h424v-41h-424zM1561 1622h-424v41h424v-41zM727 600l-727 1008h793l297 -447l299 447h796l-735 -1012v-596h-723v600z" />
    <glyph glyph-name="Zacute.stack" horiz-adv-x="2113" 
d="M1524 1618h-934v37l934 24v-61zM45 0v492l922 591h-885v525h1966v-492l-862 -588h882v-528h-2023z" />
    <glyph glyph-name="Zcaron.stack" horiz-adv-x="2113" 
d="M1167 1669h359l-125 -51h-688l-125 51h358l111 -37zM45 0v492l922 591h-885v525h1966v-492l-862 -588h882v-528h-2023z" />
    <glyph glyph-name="Zdotaccent.stack" horiz-adv-x="2113" 
d="M45 0v492l922 591h-885v525h856q5 32 32 47.5t87 15.5t87 -15.5t32 -47.5h872v-492l-862 -588h882v-528h-2023z" />
    <glyph glyph-name="r.ss04" horiz-adv-x="1929" 
d="M795 1475v-725q13 394 134 564.5t384 170.5q202 0 321.5 -72.5t176.5 -236t57 -443.5v-227h-723v135q0 114 -38 161.5t-134 47.5q-92 0 -135 -50t-43 -171v-629h-723v1475h723z" />
    <glyph glyph-name="racute.ss04" horiz-adv-x="1929" 
d="M1159 1542h-385l82 127h459zM795 1475v-725q13 394 134 564.5t384 170.5q202 0 321.5 -72.5t176.5 -236t57 -443.5v-227h-723v135q0 114 -38 161.5t-134 47.5q-92 0 -135 -50t-43 -171v-629h-723v1475h723z" />
    <glyph glyph-name="rcaron.ss04" horiz-adv-x="1929" 
d="M1012 1669h293l-93 -127h-499l-92 127h292l50 -45zM795 1475v-725q13 394 134 564.5t384 170.5q202 0 321.5 -72.5t176.5 -236t57 -443.5v-227h-723v135q0 114 -38 161.5t-134 47.5q-92 0 -135 -50t-43 -171v-629h-723v1475h723z" />
    <glyph glyph-name="rcommaaccent.ss04" horiz-adv-x="1929" 
d="M795 1475v-725q13 394 134 564.5t384 170.5q202 0 321.5 -72.5t176.5 -236t57 -443.5v-227h-723v135q0 114 -38 161.5t-134 47.5q-92 0 -135 -50t-43 -171v-629h-723v1475h723zM512 -205h-293l158 53h-172v115h463v-117z" />
    <glyph glyph-name="ygrave.ss05" horiz-adv-x="2252" 
d="M930 1542l-156 127h459l82 -127h-385zM969 -102l57 272h-549l-371 1305h725l240 -1102l4 12l342 1090h746l-557 -1577h-637z" />
    <glyph glyph-name="yacute.ss05" horiz-adv-x="2252" 
d="M1321 1542h-385l82 127h459zM969 -102l57 272h-549l-371 1305h725l240 -1102l4 12l342 1090h746l-557 -1577h-637z" />
    <glyph glyph-name="ycircumflex.ss05" horiz-adv-x="2252" 
d="M1204 1542l-80 47l-80 -47h-290l120 127h500l121 -127h-291zM969 -102l57 272h-549l-371 1305h725l240 -1102l4 12l342 1090h746l-557 -1577h-637z" />
    <glyph glyph-name="ydieresis.ss05" horiz-adv-x="2252" 
d="M739 1522v170h340v-170h-340zM1509 1522h-340v170h340v-170zM969 -102l57 272h-549l-371 1305h725l240 -1102l4 12l342 1090h746l-557 -1577h-637z" />
    <glyph glyph-name="hyphen.cap" horiz-adv-x="684" 
d="M674 639h-664v389h664v-389z" />
    <glyph glyph-name="exclamdown.cap" horiz-adv-x="753" 
d="M96 1669h557v-541h-557v541zM633 903l49 -903h-610l49 903h512z" />
    <glyph glyph-name="questiondown.cap" horiz-adv-x="2000" 
d="M772 1669h555v-541h-555v541zM1950 590q0 -600 -1008 -600q-470 0 -680.5 120t-210.5 363v6q0 103 41 178.5t106 117t144 69.5t158 44t144 31.5t106 41.5t41 65v4h526v-10q0 -90 -26 -159t-68 -109t-96 -69t-110 -42t-110 -24t-96 -18t-68 -22t-26 -38v-7
q0 -38 55.5 -54.5t210.5 -16.5q179 0 254.5 32.5t75.5 110.5v17h637v-31z" />
    <glyph glyph-name="guilsinglleft.cap" horiz-adv-x="575" 
d="M20 834l173 518h362l-176 -518l176 -519h-362z" />
    <glyph glyph-name="guilsinglright.cap" horiz-adv-x="575" 
d="M555 834l-172 -519h-363l175 519l-175 518h363z" />
    <glyph glyph-name="guillemotleft.cap" horiz-adv-x="1017" 
d="M20 834l173 518h362l-176 -518l176 -519h-362zM463 834l172 518h362l-176 -518l176 -519h-362z" />
    <glyph glyph-name="guillemotright.cap" horiz-adv-x="1017" 
d="M555 834l-172 -519h-363l175 519l-175 518h363zM997 834l-172 -519h-362l174 519l-174 518h362z" />
    <glyph glyph-name="endash.cap" horiz-adv-x="1273" 
d="M1253 725h-1233v217h1233v-217z" />
    <glyph glyph-name="emdash.cap" horiz-adv-x="2564" 
d="M2544 725h-2524v217h2524v-217z" />
    <glyph glyph-name="periodcentered.cap" horiz-adv-x="616" 
d="M586 563h-555v541h555v-541z" />
    <glyph glyph-name="parenleft.cap" horiz-adv-x="772" 
d="M360 1669h392q-246 -394 -246 -835q0 -440 246 -834h-392q-125 194 -191.5 391.5t-66.5 442.5q0 246 66.5 443.5t191.5 391.5z" />
    <glyph glyph-name="parenright.cap" horiz-adv-x="772" 
d="M412 1669q125 -194 191.5 -391t66.5 -442q0 -247 -66.5 -444.5t-191.5 -391.5h-392q246 394 246 836q0 439 -246 833h392z" />
    <glyph glyph-name="bracketleft.cap" horiz-adv-x="772" 
d="M123 0v1669h618v-184h-217v-1301h217v-184h-618z" />
    <glyph glyph-name="bracketright.cap" horiz-adv-x="772" 
d="M31 0v184h217v1301h-217v184h618v-1669h-618z" />
    <glyph glyph-name="braceleft.cap" horiz-adv-x="772" 
d="M61 743v185q62 4 82.5 24.5t20.5 73.5v471q0 102 38 137t156 35h375v-184h-102q-36 0 -50 -21.5t-14 -77.5v-387q0 -43 -33 -90.5t-98 -72.5q65 -25 98 -73t33 -91v-389q0 -56 14 -77.5t50 -21.5h102v-184h-375q-118 0 -156 35t-38 137v473q0 53 -20.5 73.5t-82.5 24.5z
" />
    <glyph glyph-name="braceright.cap" horiz-adv-x="772" 
d="M711 741q-62 -4 -82.5 -24.5t-20.5 -73.5v-471q0 -102 -38 -137t-156 -35h-375v184h102q36 0 50 21.5t14 77.5v387q0 43 33 91t98 73q-65 25 -98 72.5t-33 90.5v389q0 56 -14 77.5t-50 21.5h-102v184h375q118 0 156 -35t38 -137v-473q0 -53 20.5 -73.5t82.5 -24.5v-185z
" />
    <glyph glyph-name="baht" horiz-adv-x="2103" 
d="M72 0v1669h903v103h184v-103h367q270 0 392 -95t122 -286v-16q0 -307 -490 -350q272 -22 403.5 -131.5t131.5 -280.5v-16q0 -119 -31.5 -203t-94.5 -141t-171.5 -90t-247.5 -46.5t-338 -13.5h-43v-102h-184v102h-903zM795 1239v-211h180v211h-180zM1171 1239h-12v-211h12
q82 0 120 24t38 78v11q0 52 -37.5 75t-120.5 23zM795 662v-211h180v211h-180zM1171 662h-12v-211h12q82 0 120 24t38 78v10q0 52 -38 75.5t-120 23.5z" />
    <glyph glyph-name="rupee" horiz-adv-x="2142" 
d="M717 0l-191 582h-28v-582h-426v1669h514q259 0 381.5 -132t122.5 -404v-37q0 -164 -42 -272t-133 -167l232 -657h-430zM2101 389q0 -216 -113.5 -307.5t-371.5 -91.5q-126 0 -213.5 21t-149.5 69.5t-91 130t-29 201.5v108h403v-76q0 -75 19.5 -105t66.5 -30q40 0 58 22.5
t18 84.5v37q0 48 -37.5 74.5t-169.5 70.5q-110 36 -176 70t-108.5 84.5t-58 114.5t-15.5 163v51q0 214 114 309t369 95q261 0 373 -98.5t112 -337.5v-93h-403v68q0 79 -19.5 108t-64.5 29q-44 0 -61 -20.5t-17 -83.5v-15q0 -38 12 -58t53.5 -40t133.5 -47q141 -40 217.5 -90
t112.5 -131t36 -213v-74zM664 1116q0 92 -31.5 124t-134.5 32v-342q103 0 134.5 32t31.5 123v31z" />
    <glyph glyph-name="bitcoin" horiz-adv-x="2103" 
d="M72 0v1669h733v103h184v-103h82v103h184v-103h271q270 0 392 -95t122 -286v-16q0 -307 -490 -350q272 -22 403.5 -131.5t131.5 -280.5v-16q0 -116 -29.5 -198.5t-89 -139.5t-161 -90.5t-233 -48.5t-317.5 -17v-102h-184v102h-82v-102h-184v102h-733zM1171 1239h-376v-211
h376q82 0 120 24t38 78v11q0 52 -37.5 75t-120.5 23zM1171 662h-376v-211h376q82 0 120 24t38 78v10q0 52 -38 75.5t-120 23.5z" />
    <glyph glyph-name="zero.opencirc" horiz-adv-x="1961" 
d="M25 831v7q0 201 54.5 354.5t168.5 263.5t298 166.5t435 56.5t435 -56.5t298 -166.5t168.5 -263.5t54.5 -354.5v-7q0 -201 -54.5 -354.5t-168.5 -263.5t-298 -166.5t-435 -56.5t-435 56.5t-298 166.5t-168.5 263.5t-54.5 354.5zM137 831q0 -377 202.5 -553t641.5 -176
q437 0 640.5 176t203.5 553v7q0 377 -203.5 553t-640.5 176q-439 0 -641.5 -176t-202.5 -553v-7zM455 827v17q0 207 130.5 323.5t395.5 116.5t395.5 -116.5t130.5 -323.5v-17q0 -207 -130.5 -323.5t-395.5 -116.5t-395.5 116.5t-130.5 323.5zM788 831q0 -78 45 -113.5
t148 -35.5t148 35.5t45 113.5v11q0 76 -45 111.5t-148 35.5t-148 -35.5t-45 -111.5v-11z" />
    <glyph glyph-name="zero.closecirc" horiz-adv-x="1961" 
d="M25 831v7q0 201 54.5 354.5t168.5 263.5t298 166.5t435 56.5t435 -56.5t298 -166.5t168.5 -263.5t54.5 -354.5v-7q0 -201 -54.5 -354.5t-168.5 -263.5t-298 -166.5t-435 -56.5t-435 56.5t-298 166.5t-168.5 263.5t-54.5 354.5zM455 827q0 -207 130.5 -323.5t395.5 -116.5
t395.5 116.5t130.5 323.5v17q0 207 -130.5 323.5t-395.5 116.5t-395.5 -116.5t-130.5 -323.5v-17zM788 831v11q0 76 45 111.5t148 35.5t148 -35.5t45 -111.5v-11q0 -78 -45 -113.5t-148 -35.5t-148 35.5t-45 113.5z" />
    <glyph glyph-name="arrowupleft" horiz-adv-x="1884" 
d="M233 549v897l31 29h897l451 -451l-619 23l725 -725l-332 -330l-722 723l20 -617z" />
    <glyph glyph-name="arrowupright" horiz-adv-x="1884" 
d="M1200 98l21 617l-723 -723l-332 330l725 725l-619 -23l451 451h897l31 -29v-897z" />
    <glyph glyph-name="arrowdownleft" horiz-adv-x="1884" 
d="M233 926l451 450l-20 -616l722 723l332 -330l-725 -725l619 23l-451 -451h-897l-31 29v897z" />
    <glyph glyph-name="arrowdownright" horiz-adv-x="1884" 
d="M1651 29l-31 -29h-897l-451 451l619 -23l-725 725l332 330l723 -723l-21 616l451 -450v-897z" />
    <glyph glyph-name="whitesquare" horiz-adv-x="1234" 
d="M270 289v694h693v-694h-693zM498 518h237v238h-237v-238z" />
    <glyph glyph-name="whitediamond" horiz-adv-x="1234" 
d="M616 147l-489 490l489 489l490 -489zM616 469l166 168l-166 166l-165 -166z" />
    <glyph glyph-name="whitecircle" horiz-adv-x="1234" 
d="M616 274q-157 0 -259.5 103t-102.5 260q0 155 102.5 257.5t259.5 102.5q155 0 258 -102.5t103 -257.5q0 -157 -103 -260t-258 -103zM616 489q60 0 101 42t41 106q0 63 -41 104t-101 41q-62 0 -102.5 -41t-40.5 -104q0 -64 40.5 -106t102.5 -42z" />
    <glyph glyph-name="whiteleftpointingsmalltriangle" horiz-adv-x="1234" 
d="M926 147l-797 490l797 489v-979zM696 522v228l-178 -113z" />
    <glyph glyph-name="whiterightpointingsmalltriangle" horiz-adv-x="1234" 
d="M309 147v979l797 -489zM541 522l176 115l-176 113v-228z" />
    <glyph glyph-name="whiteuppointingsmalltriangle" horiz-adv-x="1234" 
d="M127 334l489 796l490 -796h-979zM502 543h229l-115 176z" />
    <glyph glyph-name="whitedownpointingsmalltriangle" horiz-adv-x="1234" 
d="M127 1108h979l-490 -797zM502 899l114 -178l115 178h-229z" />
    <glyph glyph-name="blacksquare" horiz-adv-x="1234" 
d="M270 289v694h693v-694h-693z" />
    <glyph glyph-name="blackdiamond" horiz-adv-x="1234" 
d="M616 147l-489 490l489 489l490 -489z" />
    <glyph glyph-name="blackcircle" horiz-adv-x="1234" 
d="M616 274q-157 0 -259.5 103t-102.5 260q0 155 102.5 257.5t259.5 102.5q155 0 258 -102.5t103 -257.5q0 -157 -103 -260t-258 -103z" />
    <glyph glyph-name="blackleftpointingtriangle" horiz-adv-x="1615" 
d="M63 698l1311 707v-1405z" />
    <glyph glyph-name="blackrightpointingtriangle" horiz-adv-x="1615" 
d="M242 0v1405l1308 -707z" />
    <glyph glyph-name="blackuppointingtriangle" horiz-adv-x="1615" 
d="M803 1405l706 -1405h-1405z" />
    <glyph glyph-name="blackdownpointingtriangle" horiz-adv-x="1615" 
d="M821 -2l-717 1407h1405z" />
    <glyph glyph-name="smalltriangleleftsld" horiz-adv-x="1234" 
d="M926 147l-797 490l797 489v-979z" />
    <glyph glyph-name="smalltrianglerightsld" horiz-adv-x="1234" 
d="M309 147v979l797 -489z" />
    <glyph glyph-name="smalltrianglesld" horiz-adv-x="1234" 
d="M127 334l489 796l490 -796h-979z" />
    <glyph glyph-name="smalltriangleinvsld" horiz-adv-x="1234" 
d="M127 1108h979l-490 -797z" />
    <glyph glyph-name="whiteleftpointingtriangle" horiz-adv-x="1615" 
d="M63 698l1311 707v-1405zM551 698l563 -276v565z" />
    <glyph glyph-name="whiterightpointingtriangle" horiz-adv-x="1615" 
d="M1550 698l-1308 -698v1405zM1065 698l-565 289v-565z" />
    <glyph glyph-name="whiteuppointingtriangle" horiz-adv-x="1615" 
d="M803 1405l706 -1405h-1405zM803 885l-277 -609h568z" />
    <glyph glyph-name="whitedownpointingtriangle" horiz-adv-x="1615" 
d="M803 0l-699 1405h1405zM803 520l291 608h-568z" />
    <glyph glyph-name="chevronleft" horiz-adv-x="1615" 
d="M1356 0h-369l-858 809l858 815h369l-852 -815z" />
    <glyph glyph-name="chevronright" horiz-adv-x="1615" 
d="M1397 809l-856 -809h-369l850 809l-850 815h369z" />
    <glyph glyph-name="chevronup" horiz-adv-x="1615" 
d="M805 1403l770 -858v-369l-770 850l-766 -850v369z" />
    <glyph glyph-name="chevrondown" horiz-adv-x="1615" 
d="M805 176l-766 858v369l766 -852l770 852v-369z" />
    <glyph glyph-name="heartsuitwhite" horiz-adv-x="2142" 
d="M1071 1427q130 252 463 252q143 0 252.5 -42t177.5 -118.5t102.5 -179t34.5 -227.5v-35q0 -127 -27 -230.5t-73.5 -174.5t-107.5 -127.5t-131.5 -97.5t-143 -76.5t-144.5 -72t-133 -76t-111 -96t-77 -126.5h-164q-27 70 -77 126.5t-111 96t-133 76t-144.5 72t-143 76.5
t-131.5 97.5t-107.5 127.5t-73.5 174.5t-27 230.5v35q0 125 34.5 227.5t102.5 179t177.5 118.5t252.5 42q333 0 463 -252z" />
    </font>
</defs>
</svg>
