<?xml version="1.0" standalone="no"?>
<!DOCTYPE svg PUBLIC "-//W3C//DTD SVG 1.1//EN" "http://www.w3.org/Graphics/SVG/1.1/DTD/svg11.dtd" >
<svg xmlns="http://www.w3.org/2000/svg" xmlns:xlink="http://www.w3.org/1999/xlink" version="1.1">
<metadata>
Created by FontForge 20170731 at Wed Oct 13 16:18:56 2021
 By Aleksey,,,
Copyright 2018 Production Systems SAS - All rights reserved - End-User License Agreement:  http://www.productiontype.com/license
</metadata>
<defs>
<font id="MediaSansExtraCondensed-BlackItalic" horiz-adv-x="446" >
  <font-face 
    font-family="MediaSans ExtraCondensed Black"
    font-weight="900"
    font-style="italic"
    font-stretch="extra-condensed"
    units-per-em="2048"
    panose-1="2 0 0 0 0 0 0 0 0 0"
    ascent="1843"
    descent="-205"
    x-height="1475"
    cap-height="1669"
    bbox="-354 -205 1931 1991"
    underline-thickness="79"
    underline-position="-201"
    slope="-10"
    unicode-range="U+0020-FB02"
  />
<missing-glyph horiz-adv-x="1024" 
d="M113 0v1536h798v-1536h-798zM512 831l307 639h-614zM174 127l307 641l-307 641v-1282zM850 127v1282l-307 -641zM205 66h614l-307 639z" />
    <glyph glyph-name="fi" unicode="fi" horiz-adv-x="509" 
d="M102 1268l27 155h31l8 41q21 116 70.5 160.5t164.5 44.5h39l-26 -158h-8q-22 0 -33 -9t-15 -32l-8 -47h45l-26 -155h-45l-224 -1268h-192l223 1268h-31zM436 1503l29 166h194l-28 -166h-195zM172 0l258 1475h195l-258 -1475h-195z" />
    <glyph glyph-name="fl" unicode="fl" horiz-adv-x="509" 
d="M102 1268l27 155h31l8 41q21 116 70.5 160.5t164.5 44.5h39l-26 -158h-8q-22 0 -33 -9t-15 -32l-8 -47h45l-26 -155h-45l-224 -1268h-192l223 1268h-31zM172 0l293 1669h194l-292 -1669h-195z" />
    <glyph glyph-name=".notdef" horiz-adv-x="1024" 
d="M113 0v1536h798v-1536h-798zM512 831l307 639h-614zM174 127l307 641l-307 641v-1282zM850 127v1282l-307 -641zM205 66h614l-307 639z" />
    <glyph glyph-name=".null" horiz-adv-x="0" 
 />
    <glyph glyph-name="nonmarkingreturn" horiz-adv-x="682" 
 />
    <glyph glyph-name="space" unicode=" " horiz-adv-x="163" 
 />
    <glyph glyph-name="exclam" unicode="!" horiz-adv-x="237" 
d="M-23 297l209 1372h193l-277 -1372h-125zM88 0h-197l33 195h197z" />
    <glyph glyph-name="quotedbl" unicode="&#x22;" horiz-adv-x="387" 
d="M244 1321h-88l8 227l20 121h154l-21 -121zM436 1321h-88l8 227l21 121h153l-20 -121z" />
    <glyph glyph-name="numbersign" unicode="#" horiz-adv-x="509" 
d="M432 657l-18 -104h-84l-142 -553h-77l141 553h-109l-141 -553h-78l142 553h-66l18 104h74l109 424h-78l18 105h86l123 483h78l-123 -483h109l123 483h77l-122 -483h65l-18 -105h-74l-109 -424h76zM170 657h109l108 424h-108z" />
    <glyph glyph-name="dollar" unicode="$" horiz-adv-x="444" 
d="M61 965q0 42 74 460q18 104 49 160t72.5 75t110.5 19h6l16 93h33l-16 -95q78 -6 116.5 -45t38.5 -121q0 -42 -80 -495h-174q76 428 76 440q0 23 -12 25l-92 -531q28 -32 63 -67q47 -50 64.5 -85.5t17.5 -80.5q0 -33 -78 -473q-18 -104 -48.5 -160t-72 -75t-110.5 -19h-6
l-17 -92h-33l17 94q-78 6 -117 45t-39 121q0 42 80 495h174q-76 -428 -76 -440q0 -22 13 -25l94 539q-49 63 -55 70q-54 65 -71.5 96.5t-17.5 71.5zM242 1012q0 -14 8 -27l88 498q-16 -2 -23 -35q-73 -412 -73 -436zM240 657q0 14 -9 29l-88 -500q16 2 23 35q74 417 74 436z
" />
    <glyph glyph-name="percent" unicode="%" horiz-adv-x="544" 
d="M178 965q-55 0 -79.5 21t-24.5 67q0 19 82 483q14 81 40.5 112t90.5 31q55 0 79.5 -21t24.5 -67q0 -19 -82 -483q-14 -81 -40.5 -112t-90.5 -31zM627 1669h59l-733 -1669h-59zM276 1569q-8 0 -12 -21q-82 -464 -82 -467q0 -6 6 -6q10 0 13 21q82 464 82 467q0 6 -7 6z
M295 -4q-55 0 -80 21t-25 67q0 19 82 483q14 81 40.5 112.5t90.5 31.5q55 0 80 -21t25 -67q0 -20 -82 -484q-14 -81 -40.5 -112t-90.5 -31zM393 600q-9 0 -12 -20q-82 -464 -82 -467q0 -7 6 -7q9 0 12 21q82 464 82 467q0 6 -6 6z" />
    <glyph glyph-name="ampersand" unicode="&#x26;" horiz-adv-x="458" 
d="M100 -10q-94 0 -137 37t-43 127q0 35 14.5 126.5t75.5 438.5q16 90 33.5 131.5t67.5 89.5q-23 88 -23 131q0 36 55 350q27 150 75 204t161 54q94 0 142 -40.5t48 -133.5q0 -45 -32 -225q-23 -128 -50.5 -192.5t-85.5 -108.5l-106 -84l-51 -39v-154l28 162h195l-107 -608
q-17 -91 -34 -133l14 -123h-68l-6 49q-59 -59 -166 -59zM344 1462l-63 -372q23 21 29.5 36t15.5 66q49 277 49 283q0 10 -13 10q-15 0 -18 -23zM115 203q0 -19 16 -19q22 0 27 31l30 176l2 242q-75 -416 -75 -430z" />
    <glyph glyph-name="quotesingle" unicode="'" horiz-adv-x="194" 
d="M244 1321h-88l8 227l20 121h154l-21 -121z" />
    <glyph glyph-name="parenleft" unicode="(" horiz-adv-x="256" 
d="M326 1669h75q-163 -420 -245 -885q-84 -484 -66 -886h-76q-11 295 -1.5 490.5t44.5 395.5t94 394t175 491z" />
    <glyph glyph-name="parenright" unicode=")" horiz-adv-x="256" 
d="M258 1669q11 -295 1.5 -491t-44.5 -396q-35 -201 -94 -394.5t-174 -489.5h-76q77 198 142.5 432.5t103.5 451.5q81 465 65 887h76z" />
    <glyph glyph-name="asterisk" unicode="*" horiz-adv-x="356" 
d="M344 1368l-35 107l-69 -107l-66 55l100 82l-112 17l43 88l92 -58l4 117h88l-39 -117l115 58l12 -88l-123 -17l74 -82z" />
    <glyph glyph-name="plus" unicode="+" horiz-adv-x="258" 
d="M164 690h-84l12 76h-78l17 84h75l15 78h84l-15 -78h78l-16 -84h-76z" />
    <glyph glyph-name="comma" unicode="," horiz-adv-x="233" 
d="M-2 -102h-139l88 102h-58l35 195h199l-35 -195z" />
    <glyph glyph-name="hyphen" unicode="-" horiz-adv-x="270" 
d="M250 721h-232l27 156h231z" />
    <glyph glyph-name="period" unicode="." horiz-adv-x="233" 
d="M88 0h-199l35 195h199z" />
    <glyph glyph-name="slash" unicode="/" horiz-adv-x="321" 
d="M395 1669h80l-514 -1669h-80z" />
    <glyph glyph-name="zero" unicode="0" 
d="M115 -10q-97 0 -146 37.5t-49 119.5q0 25 9 85.5t55.5 330.5t150.5 862q18 103 49 159t73 75.5t110 19.5q97 0 145.5 -37.5t48.5 -119.5q0 -25 -9 -85.5t-55.5 -330.5t-150.5 -862q-18 -103 -48.5 -159t-72.5 -75.5t-110 -19.5zM354 1485q-14 0 -18 -23
q-221 -1255 -221 -1267q0 -11 12 -11q14 0 18 23q222 1261 222 1268q0 10 -13 10z" />
    <glyph glyph-name="one" unicode="1" horiz-adv-x="268" 
d="M125 0h-195l248 1413l-59 -33l35 193l190 96h74z" />
    <glyph glyph-name="two" unicode="2" 
d="M311 1157q54 309 54 316q0 12 -13 12q-12 0 -16 -23l-55 -319h-195l49 282q18 105 49 161t72.5 74.5t110.5 18.5q98 0 146 -38t48 -130q0 -38 -43 -280q-14 -83 -74 -236.5t-335 -799.5h227l-33 -195h-418l31 182q271 641 329 785t66 190z" />
    <glyph glyph-name="three" unicode="3" horiz-adv-x="442" 
d="M-84 160q0 44 68 428h194q-67 -377 -67 -391q0 -13 12 -13t16 23q94 535 94 549q0 10 -3 13t-11 3h-117l35 195h113q13 0 20 9t13 42q77 436 77 455q0 12 -12 12t-16 -23l-64 -362h-194l57 325q18 105 49 161t72 74.5t110 18.5q98 0 146.5 -38t48.5 -130q0 -42 -76 -471
q-14 -81 -43 -111.5t-110 -37.5q54 -9 77 -35t23 -76q0 -48 -86 -536q-18 -104 -48.5 -160t-72 -75t-110.5 -19q-98 0 -146.5 38.5t-48.5 131.5z" />
    <glyph glyph-name="four" unicode="4" horiz-adv-x="477" 
d="M104 0l68 385h-219l22 131l285 1153h332l-191 -1089h39l-32 -195h-41l-68 -385h-195zM172 580h35l180 1028z" />
    <glyph glyph-name="five" unicode="5" horiz-adv-x="442" 
d="M342 244q-18 -104 -48.5 -160t-72 -75t-110.5 -19q-98 0 -146.5 38.5t-48.5 131.5q0 48 74 467h194q-73 -412 -73 -430q0 -13 12 -13t16 23q119 673 119 682q0 10 -8 10q-11 0 -17.5 -21.5t-23.5 -113.5h-170l160 905h385l-35 -194h-215l-107 -607q23 128 58 179t92 51
q44 0 65 -26.5t21 -86.5q0 -34 -20 -158t-101 -583z" />
    <glyph glyph-name="six" unicode="6" 
d="M561 1511q0 -37 -51 -327h-195q50 285 50 289q0 12 -13 12q-12 0 -16 -23l-100 -563q21 103 54 151t87 48q46 0 68 -26.5t22 -90.5q0 -52 -121 -737q-18 -104 -48.5 -160t-72 -75t-110.5 -19q-98 0 -146.5 37t-48.5 125q0 52 215 1273q18 103 49 159t73 75.5t110 19.5
q98 0 146 -38t48 -130zM252 899q-15 0 -19 -22q-118 -668 -118 -682q0 -11 10 -11q14 0 18 23q119 674 119 682q0 10 -10 10z" />
    <glyph glyph-name="seven" unicode="7" horiz-adv-x="380" 
d="M123 0h-193q41 233 81.5 425t86.5 360t70 251.5t77.5 244t63.5 192.5h-172l35 196h365l-31 -172q-17 -53 -69 -212t-78 -246.5t-70.5 -251t-84.5 -356t-81 -431.5z" />
    <glyph glyph-name="eight" unicode="8" 
d="M-80 158q0 41 74 458q24 139 56.5 191.5t111.5 62.5q-90 31 -90 146q0 50 63 409q18 103 49 159t73 75.5t110 19.5q98 0 146 -38t48 -130q0 -42 -63 -401q-23 -125 -61 -180.5t-105 -67.5q46 -15 68 -50t22 -97q0 -40 -76 -471q-18 -103 -48.5 -159t-72.5 -75.5
t-110 -19.5q-98 0 -146.5 38t-48.5 130zM279 1051q14 0 18 22q70 395 70 402q0 10 -13 10q-14 0 -18 -23q-70 -395 -70 -401q0 -10 13 -10zM127 184q12 0 16 23q90 510 90 524q0 10 -12 10t-16 -22q-90 -510 -90 -524q0 -11 12 -11z" />
    <glyph glyph-name="nine" unicode="9" 
d="M-80 158q0 37 51 327h195q-49 -279 -49 -288q0 -13 12 -13t16 23l101 563q-21 -103 -54 -151t-88 -48q-46 0 -68 26.5t-22 90.5q0 52 121 737q18 104 49 160t72.5 75t110.5 19q98 0 146 -36.5t48 -124.5q0 -53 -215 -1274q-18 -103 -48.5 -159t-72.5 -75.5t-110 -19.5
q-98 0 -146.5 38t-48.5 130zM229 770q15 0 19 23q119 674 119 682q0 10 -11 10q-14 0 -18 -23q-119 -674 -119 -682q0 -10 10 -10z" />
    <glyph glyph-name="colon" unicode=":" horiz-adv-x="233" 
d="M221 760h-198l34 194h199zM88 0h-199l35 195h199z" />
    <glyph glyph-name="semicolon" unicode=";" horiz-adv-x="233" 
d="M221 760h-198l34 194h199zM-2 -102h-139l88 102h-58l35 195h199l-35 -195z" />
    <glyph glyph-name="less" unicode="&#x3c;" horiz-adv-x="258" 
d="M23 797l4 24l133 94h125l-158 -110l121 -103h-119z" />
    <glyph glyph-name="equal" unicode="=" horiz-adv-x="258" 
d="M266 842h-237l14 84h238zM240 692h-238l14 84h238z" />
    <glyph glyph-name="greater" unicode="&#x3e;" horiz-adv-x="258" 
d="M260 821l-4 -24l-133 -95h-125l158 111l-121 102h119z" />
    <glyph glyph-name="question" unicode="?" horiz-adv-x="468" 
d="M152 1421q28 158 72 208t163 50q103 0 148 -33t45 -122q0 -51 -70 -439q-14 -79 -37 -135.5t-48 -83.5t-52.5 -50.5t-50.5 -39t-41.5 -45t-26.5 -72.5l-64 -362h-145l66 373q14 78 36.5 129.5t46 77.5t47 47.5t43 57t29.5 89.5q70 395 70 402q0 12 -12 12q-14 0 -19 -23
l-73 -422h-195zM166 0h-199l33 195h199z" />
    <glyph glyph-name="at" unicode="@" horiz-adv-x="638" 
d="M399 1071l35 207h146q-162 -916 -162 -938q0 -27 22 -27q19 0 27.5 15t17.5 67q67 381 98 567t36.5 229t5.5 71q0 89 -44.5 123t-148.5 34q-69 0 -112 -13.5t-74.5 -50.5t-50 -93.5t-35.5 -151.5q-102 -581 -125 -721t-23 -180q0 -84 46 -119t149 -35q108 0 159 28.5
t74 102.5h64q-33 -110 -97 -153t-202 -43q-132 0 -196 53t-64 166q0 45 22 185t123 712q15 85 31.5 142t42 105.5t61.5 75.5t87 41.5t122 14.5q137 0 198.5 -53.5t61.5 -167.5q0 -31 -5.5 -76.5t-35.5 -224t-96 -551.5q-20 -110 -59.5 -152.5t-110.5 -42.5q-56 0 -83.5 26
t-27.5 93q0 28 11 96q-23 -127 -49.5 -171t-79.5 -44q-70 0 -70 84q0 21 6 64t34 206.5t89 511.5q22 124 45 163.5t76 39.5q50 0 64.5 -44t-3.5 -171zM389 1135q-7 0 -11.5 -5.5t-10.5 -26t-13 -59.5q-110 -621 -110 -657q0 -18 10 -18q7 0 11.5 5t10.5 25.5t13 59.5
q110 621 110 657q0 19 -10 19z" />
    <glyph glyph-name="A" unicode="A" horiz-adv-x="399" 
d="M86 0l82 483h-25l-86 -483h-182l340 1669h299l-248 -1669h-180zM336 1552l-156 -872h23l149 872h-16z" />
    <glyph glyph-name="B" unicode="B" 
d="M375 1669q103 0 144.5 -32t41.5 -117q0 -63 -65 -428q-15 -91 -53.5 -136t-114.5 -55q57 -9 80.5 -36.5t23.5 -84.5q0 -41 -82 -506q-29 -166 -80.5 -220t-179.5 -54h-205l293 1669h197zM287 1018q75 424 75 440q0 17 -16 17h-6l-90 -502h8q21 0 29 45zM225 778h-8
l-104 -583h8q21 0 29 45q90 512 90 524q0 14 -15 14z" />
    <glyph glyph-name="C" unicode="C" 
d="M-80 147q0 25 9 85.5t55.5 330.5t150.5 862q18 103 49 159t73 75.5t110 19.5q97 0 145.5 -37.5t48.5 -119.5q0 -46 -100 -625h-195q101 573 101 576q0 12 -13 12q-14 0 -18 -23q-221 -1255 -221 -1265q0 -13 12 -13q14 0 18 23q57 327 107 608h194q-14 -81 -47.5 -272.5
t-52.5 -298.5q-18 -103 -48.5 -159t-72.5 -75.5t-110 -19.5q-97 0 -146 37.5t-49 119.5z" />
    <glyph glyph-name="D" unicode="D" 
d="M352 1669q106 0 156.5 -39t50.5 -119q0 -17 -3.5 -44t-24 -151t-63 -366t-122.5 -696q-28 -156 -76 -205t-170 -49h-215l293 1669h174zM147 225q215 1219 215 1231q0 19 -14 19h-10l-225 -1280h10q19 0 24 30z" />
    <glyph glyph-name="E" unicode="E" horiz-adv-x="360" 
d="M254 195l-33 -195h-336l293 1669h336l-35 -194h-139l-88 -500h141l-33 -195h-143l-104 -585h141z" />
    <glyph glyph-name="F" unicode="F" horiz-adv-x="360" 
d="M360 780h-143l-137 -780h-195l293 1669h336l-35 -194h-139l-88 -500h141z" />
    <glyph glyph-name="G" unicode="G" horiz-adv-x="448" 
d="M145 207l72 411h-14l35 197h208l-143 -815h-55l-6 172q-16 -108 -56.5 -145t-113.5 -37q-81 0 -116.5 34.5t-35.5 122.5q0 25 9 85.5t55.5 330.5t150.5 862q18 103 49 159t73 75.5t110 19.5q97 0 145.5 -37.5t48.5 -119.5q0 -46 -100 -625h-195q101 573 101 576
q0 12 -13 12q-14 0 -18 -23q-221 -1255 -221 -1267q0 -11 12 -11q14 0 18 23z" />
    <glyph glyph-name="H" unicode="H" 
d="M109 0l137 786h-29l-137 -786h-195l293 1669h195l-121 -688h29l120 688h195l-293 -1669h-194z" />
    <glyph glyph-name="I" unicode="I" horiz-adv-x="223" 
d="M-115 0l293 1669h195l-293 -1669h-195z" />
    <glyph glyph-name="J" unicode="J" horiz-adv-x="262" 
d="M-121 0l37 217h16q30 0 35 33l250 1419h195l-256 -1450q-20 -116 -80.5 -167.5t-163.5 -51.5h-33z" />
    <glyph glyph-name="K" unicode="K" horiz-adv-x="454" 
d="M-115 0l293 1669h195l-127 -729l174 729h194l-204 -835l-88 -834h-195l84 741l-131 -741h-195z" />
    <glyph glyph-name="L" unicode="L" horiz-adv-x="378" 
d="M-115 0l293 1669h195l-260 -1474h161l-32 -195h-357z" />
    <glyph glyph-name="M" unicode="M" horiz-adv-x="649" 
d="M135 0l137 1139l-200 -1139h-187l293 1669h264l-92 -784l185 784h264l-293 -1669h-187l201 1139l-264 -1139h-121z" />
    <glyph glyph-name="N" unicode="N" horiz-adv-x="448" 
d="M141 0l70 872l-152 -872h-174l293 1669h164l-82 -930l164 930h174l-293 -1669h-164z" />
    <glyph glyph-name="O" unicode="O" 
d="M115 -10q-97 0 -146 37.5t-49 119.5q0 25 9 85.5t55.5 330.5t150.5 862q18 103 49 159t73 75.5t110 19.5q97 0 145.5 -37.5t48.5 -119.5q0 -25 -9 -85.5t-55.5 -330.5t-150.5 -862q-18 -103 -48.5 -159t-72.5 -75.5t-110 -19.5zM127 184q14 0 18 23q222 1261 222 1266
q0 12 -13 12q-14 0 -18 -23q-221 -1255 -221 -1265q0 -13 12 -13z" />
    <glyph glyph-name="P" unicode="P" horiz-adv-x="450" 
d="M356 1669q109 0 158 -40t49 -134q0 -38 -94 -577q-16 -88 -34.5 -141t-49.5 -83t-68.5 -39.5t-99.5 -9.5h-24l-113 -645h-195l293 1669h178zM350 1475h-10l-113 -633h13q20 0 28 45q99 563 99 567q0 21 -17 21z" />
    <glyph glyph-name="Q" unicode="Q" 
d="M96 -102l17 92q-96 0 -144.5 37.5t-48.5 119.5q0 25 9 85.5t55.5 330.5t150.5 862q18 103 49 159t73 75.5t110 19.5q97 0 145.5 -37.5t48.5 -119.5q0 -25 -9 -85.5t-55.5 -330.5t-150.5 -862q-29 -169 -96 -213h49l-23 -133h-180zM127 184q14 0 18 23q222 1261 222 1266
q0 12 -13 12q-14 0 -18 -23q-221 -1255 -221 -1265q0 -13 12 -13z" />
    <glyph glyph-name="R" unicode="R" horiz-adv-x="450" 
d="M135 0l80 727h-8l-127 -727h-195l293 1669h178q109 0 158 -40t49 -134q0 -39 -80 -496q-26 -159 -86 -219l-80 -780h-182zM350 1475h-10l-98 -551h12q13 0 18.5 9t10.5 36q84 477 84 485q0 21 -17 21z" />
    <glyph glyph-name="S" unicode="S" horiz-adv-x="444" 
d="M61 965q0 42 74 460q18 104 49 160t72.5 75t110.5 19q98 0 146 -38t48 -130q0 -42 -80 -495h-194q78 442 78 454q0 15 -11 15q-14 0 -18 -23q-76 -429 -76 -450q0 -20 15 -43.5t67 -85.5q47 -58 64.5 -90.5t17.5 -75.5q0 -31 -78 -473q-18 -104 -48.5 -160t-72 -75
t-110.5 -19q-98 0 -146.5 38.5t-48.5 131.5q0 46 80 499h195q-80 -453 -80 -462q0 -13 10 -13q14 0 18 23q80 455 80 471q0 19 -14 41.5t-59 77.5q-54 65 -71.5 96.5t-17.5 71.5z" />
    <glyph glyph-name="T" unicode="T" horiz-adv-x="440" 
d="M559 1475h-113l-258 -1475h-194l258 1475h-113l35 194h420z" />
    <glyph glyph-name="U" unicode="U" 
d="M373 1669l-258 -1462q-4 -23 10 -23t18 23l258 1462h195l-250 -1425q-18 -105 -49 -161t-72 -74.5t-110 -18.5q-118 0 -165 57t-22 197l250 1425h195z" />
    <glyph glyph-name="V" unicode="V" horiz-adv-x="399" 
d="M350 1669l-262 -1552h6l285 1552h180l-338 -1669h-299l246 1669h182z" />
    <glyph glyph-name="W" unicode="W" horiz-adv-x="632" 
d="M-78 0l246 1669h182l-190 -1100l235 1100h170l-153 -1102l200 1102h181l-336 -1669h-240l141 977l-200 -977h-236z" />
    <glyph glyph-name="X" unicode="X" horiz-adv-x="419" 
d="M106 0l103 733l-152 -733h-182l203 827l90 842h180l-104 -737l155 737h183l-205 -829l-90 -840h-181z" />
    <glyph glyph-name="Y" unicode="Y" horiz-adv-x="423" 
d="M82 557l96 1112h172l-90 -647h6l135 647h172l-297 -1112l-96 -557h-194z" />
    <glyph glyph-name="Z" unicode="Z" horiz-adv-x="329" 
d="M-115 0l21 117l350 1358h-104l34 194h293l-20 -117l-350 -1357h110l-33 -195h-301z" />
    <glyph glyph-name="bracketleft" unicode="[" horiz-adv-x="256" 
d="M-94 -102l311 1771h189l-11 -59h-90l-291 -1653h90l-10 -59h-188z" />
    <glyph glyph-name="backslash" unicode="\" horiz-adv-x="321" 
d="M254 1669l-72 -1669h-80l72 1669h80z" />
    <glyph glyph-name="bracketright" unicode="]" horiz-adv-x="256" 
d="M-133 -102l10 59h90l291 1653h-90l10 59h187l-312 -1771h-186z" />
    <glyph glyph-name="asciicircum" unicode="^" horiz-adv-x="258" 
d="M276 1649h25l74 -117l-21 -125l-78 137l-135 -137l21 125z" />
    <glyph glyph-name="underscore" unicode="_" horiz-adv-x="696" 
d="M516 -162h-655l14 80h655z" />
    <glyph glyph-name="grave" unicode="`" horiz-adv-x="512" 
d="M367 1507l-68 127h211l-2 -127h-141z" />
    <glyph glyph-name="a" unicode="a" 
d="M109 0l32 197q-21 -117 -54 -162t-87 -45q-48 0 -69 23t-21 83q0 22 9 82t49.5 294.5t131.5 752.5q28 156 58.5 208t95.5 52q55 0 76.5 -48t1.5 -171l35 209h194l-258 -1475h-194zM317 1286q-13 0 -20 -43q-182 -1033 -182 -1042q0 -13 12 -13q13 0 20 43
q183 1039 183 1043q0 12 -13 12z" />
    <glyph glyph-name="b" unicode="b" 
d="M305 1278q21 117 54 162t87 45q48 0 69.5 -23.5t21.5 -83.5q0 -30 -28.5 -197.5t-162.5 -930.5q-28 -157 -58.5 -208.5t-94.5 -51.5q-55 0 -76.5 48t-1.5 171l-33 -209h-195l293 1669h195zM129 188q14 0 21 43q182 1033 182 1043q0 12 -13 12t-20 -43
q-182 -1033 -182 -1042q0 -13 12 -13z" />
    <glyph glyph-name="c" unicode="c" 
d="M446 817h-194q80 453 80 461q0 12 -13 12q-12 0 -16 -22q-186 -1058 -186 -1071t12 -13t16 23q51 282 80 463h195q-3 -20 -74 -426q-18 -105 -49 -161t-72 -74.5t-110 -18.5q-97 0 -146 37.5t-49 119.5q0 21 7 70.5t47.5 286t127.5 727.5q18 105 49 161t72.5 74.5
t110.5 18.5q96 0 145 -37.5t49 -120.5q0 -37 -82 -510z" />
    <glyph glyph-name="d" unicode="d" 
d="M332 1266l69 403h195l-293 -1669h-194l32 197q-21 -117 -54 -162t-87 -45q-48 0 -69 23t-21 83q0 22 9 82t49.5 294.5t131.5 752.5q28 156 58.5 208t95.5 52q55 0 76.5 -48t1.5 -171zM317 1286q-13 0 -20 -43q-182 -1033 -182 -1042q0 -13 12 -13q13 0 20 43
q183 1039 183 1043q0 12 -13 12z" />
    <glyph glyph-name="e" unicode="e" 
d="M528 1327q0 -52 -108 -657h-221q-82 -466 -82 -473q0 -13 12 -13t16 23q44 239 68 385h195q-37 -203 -62 -348q-18 -105 -49 -161t-72 -74.5t-110 -18.5q-97 0 -146 37.5t-49 119.5q0 21 7 70.5t47.5 286t127.5 727.5q18 105 49 161t72.5 74.5t110.5 18.5q96 0 145 -37.5
t49 -120.5zM303 1268q-16 -91 -41.5 -235t-30.5 -169h29q72 408 72 414q0 12 -13 12q-12 0 -16 -22z" />
    <glyph glyph-name="f" unicode="f" horiz-adv-x="286" 
d="M102 1268l27 155h31l8 41q21 116 70.5 160.5t164.5 44.5h39l-26 -158h-8q-22 0 -33 -9t-15 -32l-8 -47h45l-26 -155h-45l-224 -1268h-192l223 1268h-31z" />
    <glyph glyph-name="g" unicode="g" 
d="M326 137q-26 -144 -77 -197t-161 -53q-119 0 -161 52.5t-21 181.5l2 12h194l-4 -24q-5 -27 11 -27q13 0 18 27l47 272q-21 -117 -54 -162t-87 -45q-67 0 -82.5 51.5t10.5 208.5l139 791q28 155 59 207.5t95 52.5q55 0 77.5 -48.5t0.5 -170.5l35 209h194zM317 1286
q-13 0 -20 -43l-145 -827q-7 -43 8 -43q13 0 20 43l146 827q7 43 -9 43z" />
    <glyph glyph-name="h" unicode="h" 
d="M375 1669l-70 -391q21 117 54 162t87 45q67 0 83 -54.5t-11 -211.5l-215 -1219h-194l219 1243q7 43 -9 43q-13 0 -20 -43l-219 -1243h-195l295 1669h195z" />
    <glyph glyph-name="i" unicode="i" horiz-adv-x="223" 
d="M150 1503l28 166h195l-29 -166h-194zM-115 0l258 1475h195l-258 -1475h-195z" />
    <glyph glyph-name="j" unicode="j" horiz-adv-x="245" 
d="M172 1503l29 166h194l-28 -166h-195zM119 102q-22 -118 -74 -161t-168 -43h-16l26 155h7q11 0 17 5.5t9 21.5l246 1395h194z" />
    <glyph glyph-name="k" unicode="k" horiz-adv-x="462" 
d="M-115 0l293 1669h195l-133 -758l153 564h195l-209 -709l-51 -766h-193l45 578l-100 -578h-195z" />
    <glyph glyph-name="l" unicode="l" horiz-adv-x="223" 
d="M-115 0l293 1669h195l-293 -1669h-195z" />
    <glyph glyph-name="m" unicode="m" horiz-adv-x="669" 
d="M80 0h-195l260 1475h195l-35 -197q21 117 54 162t87 45q60 0 78.5 -43.5t3.5 -159.5q21 111 55.5 157t86.5 46q67 0 82.5 -54.5t-11.5 -211.5l-215 -1219h-194l219 1243q7 43 -8 43q-14 0 -21 -43l-219 -1243h-194l219 1243q7 43 -9 43q-13 0 -20 -43z" />
    <glyph glyph-name="n" unicode="n" 
d="M340 1475l-35 -197q21 117 54 162t87 45q67 0 83 -54.5t-11 -211.5l-215 -1219h-194l219 1243q7 43 -9 43q-13 0 -20 -43l-219 -1243h-195l260 1475h195z" />
    <glyph glyph-name="o" unicode="o" 
d="M115 -10q-97 0 -146 37.5t-49 119.5q0 21 7 70.5t47.5 286t127.5 727.5q18 105 49 161t72.5 74.5t110.5 18.5q96 0 145 -37.5t49 -120.5q0 -21 -7 -71t-47.5 -284.5t-127.5 -727.5q-18 -105 -49 -161t-72 -74.5t-110 -18.5zM129 184q12 0 16 23q187 1064 187 1071
q0 12 -13 12q-12 0 -16 -22q-186 -1058 -186 -1071t12 -13z" />
    <glyph glyph-name="p" unicode="p" 
d="M305 1278q21 117 54 162t87 45q48 0 69.5 -23.5t21.5 -83.5q0 -30 -28.5 -197.5t-162.5 -930.5q-28 -157 -58.5 -208.5t-94.5 -51.5q-55 0 -76.5 48t-1.5 171l-54 -311h-194l276 1577h195zM129 188q14 0 21 43q182 1033 182 1043q0 12 -13 12t-20 -43
q-182 -1033 -182 -1042q0 -13 12 -13z" />
    <glyph glyph-name="q" unicode="q" 
d="M141 197q-21 -117 -54 -162t-87 -45q-48 0 -69 23t-21 83q0 22 9 82t49.5 294.5t131.5 752.5q28 156 58.5 208t95.5 52q55 0 76.5 -48t1.5 -171l6 37q72 40 109 77.5t65 94.5h49l-276 -1577h-195zM317 1286q-13 0 -20 -43q-182 -1033 -182 -1042q0 -13 12 -13q13 0 20 43
q183 1039 183 1043q0 12 -13 12z" />
    <glyph glyph-name="r" unicode="r" horiz-adv-x="348" 
d="M287 1184q31 175 65.5 238t91.5 63q15 0 27 -2l-41 -238q-124 37 -147 -84l-203 -1161h-195l258 1475h195z" />
    <glyph glyph-name="s" unicode="s" 
d="M115 197q0 -13 10 -13q14 0 18 23q66 367 66 379q0 25 -15 49.5t-61 77.5q-50 58 -68 90.5t-18 79.5q0 30 55 348q18 105 49 161t72.5 74.5t110.5 18.5q96 0 145 -37.5t49 -120.5q0 -33 -61 -397h-195q60 340 60 348q0 12 -10 12q-15 0 -19 -22q-59 -330 -59 -348
q0 -25 14 -46.5t61 -76.5q52 -60 70.5 -92.5t18.5 -79.5q0 -24 -62 -381q-18 -105 -49 -161t-72 -74.5t-110 -18.5q-98 0 -146.5 38t-48.5 130q0 36 66 407h194q-65 -357 -65 -368z" />
    <glyph glyph-name="t" unicode="t" horiz-adv-x="276" 
d="M100 0h-194l231 1319h-26l26 156h29l29 167h194l-29 -167h37l-26 -156h-39z" />
    <glyph glyph-name="u" unicode="u" 
d="M106 0l35 197q-21 -117 -54 -162t-87 -45q-67 0 -83 54.5t11 211.5l215 1219h195l-219 -1244q-7 -43 8 -43q13 0 20 43l220 1244h194l-260 -1475h-195z" />
    <glyph glyph-name="v" unicode="v" horiz-adv-x="428" 
d="M360 1475h193l-317 -1475h-302l199 1475h195l-213 -1301h4z" />
    <glyph glyph-name="w" unicode="w" horiz-adv-x="653" 
d="M-76 0l211 1475h182l-167 -990l221 990h168l-119 -961l176 961h180l-303 -1475h-242l123 883l-192 -883h-238z" />
    <glyph glyph-name="x" unicode="x" horiz-adv-x="430" 
d="M100 0l95 618l-121 -618h-193l176 743l80 732h193l-97 -631l127 631h191l-176 -746l-82 -729h-193z" />
    <glyph glyph-name="y" unicode="y" horiz-adv-x="450" 
d="M266 240q-26 -107 -54.5 -173.5t-69 -104t-86.5 -51t-115 -13.5l32 186h37q29 0 41 37l12 43h-75l155 1311h193l-176 -1084h4l207 1084h194z" />
    <glyph glyph-name="z" unicode="z" horiz-adv-x="319" 
d="M-115 0l21 117l311 1163h-100l33 195h284l-18 -115l-314 -1165h107l-33 -195h-291z" />
    <glyph glyph-name="braceleft" unicode="{" horiz-adv-x="256" 
d="M14 754l13 61q37 1 55 25.5t27 79.5l100 577q19 101 57.5 136.5t134.5 35.5h5l-11 -59h-12q-32 0 -48.5 -21.5t-25.5 -77.5l-100 -563q-21 -126 -109 -164q73 -36 52 -163l-101 -566q-9 -56 0.5 -77t40.5 -21h12l-10 -59h-4q-96 0 -123 36t-8 136l100 579q11 52 1.5 78
t-46.5 27z" />
    <glyph glyph-name="bar" unicode="|" horiz-adv-x="165" 
d="M223 1772h84l-330 -1874h-83z" />
    <glyph glyph-name="braceright" unicode="}" horiz-adv-x="256" 
d="M244 754q-37 -1 -55 -25.5t-27 -79.5l-101 -579q-19 -101 -57.5 -136.5t-132.5 -35.5h-4l10 59h10q32 0 48.5 21t25.5 77l100 566q21 126 111 163q-74 35 -53 164l100 563q9 56 -0.5 77.5t-40.5 21.5h-10l10 59h4q95 0 121.5 -36t7.5 -136l-100 -577q-11 -52 -1.5 -78
t46.5 -27z" />
    <glyph glyph-name="asciitilde" unicode="~" horiz-adv-x="258" 
d="M190 752q-20 0 -45.5 11t-35.5 11q-15 0 -21 -20h-76q10 60 29 86t51 26q20 0 46 -11t36 -11q18 0 21 20h75q-10 -60 -29 -86t-51 -26z" />
    <glyph glyph-name="nbspace" unicode="&#xa0;" horiz-adv-x="163" 
 />
    <glyph glyph-name="exclamdown" unicode="&#xa1;" horiz-adv-x="237" 
d="M346 1475l-33 -195h-196l33 195h196zM133 1178h125l-190 -1280h-193z" />
    <glyph glyph-name="cent" unicode="&#xa2;" horiz-adv-x="468" 
d="M246 637h176l-51 -297q-26 -153 -74.5 -205.5t-157.5 -52.5h-2l-14 -82h-35l14 84q-78 6 -115.5 41.5t-37.5 105.5q0 32 22.5 169.5t128.5 738.5q27 150 73 202t159 52l14 82h35l-14 -84q151 -9 151 -160q0 -47 -51 -338h-176q51 290 51 299q0 13 -8 18l-164 -944
q12 5 20 51zM127 283q0 -14 8 -17l164 942q-12 -5 -20 -47q-152 -860 -152 -878z" />
    <glyph glyph-name="sterling" unicode="&#xa3;" horiz-adv-x="448" 
d="M360 778h-133l-102 -583h201l-33 -195h-395l137 778h-25l21 119h24l92 528q28 152 76 203t162 51q91 0 135.5 -35.5t44.5 -111.5q0 -31 -13 -112t-69 -400h-182q78 442 78 453q0 12 -12 12q-14 0 -19 -23l-100 -565h133z" />
    <glyph glyph-name="currency" unicode="&#xa4;" horiz-adv-x="258" 
d="M59 686l-49 59l37 31q-2 4 -2 15q0 23 12 47l-26 30l69 60l29 -33q16 4 27 4q10 0 26 -4l37 33l49 -60l-37 -30q2 -4 2 -15q0 -23 -12 -47l27 -31l-70 -59l-28 33q-16 -4 -27 -4t-27 4zM135 776q15 0 25 10t10 27q0 25 -27 25q-15 0 -24.5 -10t-9.5 -27q0 -25 26 -25z
" />
    <glyph glyph-name="yen" unicode="&#xa5;" horiz-adv-x="438" 
d="M383 680h-78l-119 -680h-194l119 680h-78l20 119h78l14 78h-77l20 118h72l26 674h170l-61 -475h6l107 475h172l-213 -674h71l-20 -118h-78l-14 -78h77z" />
    <glyph glyph-name="brokenbar" unicode="&#xa6;" horiz-adv-x="165" 
d="M223 1772h84l-149 -850h-84zM43 748h84l-150 -850h-83z" />
    <glyph glyph-name="section" unicode="&#xa7;" horiz-adv-x="444" 
d="M371 416q0 -27 -43 -271q-27 -151 -73.5 -204.5t-162.5 -53.5q-96 0 -144 35.5t-48 120.5q0 50 49 319h194q-45 -256 -45 -264q0 -16 13 -16q12 0 16 22q45 256 45 271q0 17 -13 40.5t-57 86.5q-54 77 -73 116t-19 74q0 19 15 107q17 97 43.5 136t91.5 64
q-41 61 -54.5 92t-13.5 60q0 26 43 270q27 151 73.5 204.5t162.5 53.5q96 0 144 -35t48 -120q0 -51 -49 -320h-195q46 262 46 264q0 17 -13 17q-12 0 -16 -23q-45 -256 -45 -270q0 -17 13 -41t56 -86q54 -77 73.5 -116.5t19.5 -74.5q0 -19 -15 -106q-17 -97 -44 -136.5
t-91 -64.5q41 -61 54.5 -91.5t13.5 -59.5zM201 752q0 -31 28 -76q16 16 19 41q14 82 14 98q0 29 -29 76q-15 -15 -18 -41q-14 -82 -14 -98z" />
    <glyph glyph-name="dieresis" unicode="&#xa8;" horiz-adv-x="512" 
d="M246 1513l24 142h127l-24 -142h-127zM541 1513h-127l24 142h127z" />
    <glyph glyph-name="copyright" unicode="&#xa9;" horiz-adv-x="690" 
d="M231 -10q-155 0 -222.5 59t-67.5 187q0 37 6 88t42.5 269.5t114.5 659.5q21 120 46.5 195t70 130t110.5 78t165 23q155 0 222.5 -58.5t67.5 -186.5q0 -37 -6 -88t-42.5 -270.5t-114.5 -659.5q-21 -120 -46.5 -195t-70 -130t-110.5 -78t-165 -23zM489 1606
q-79 0 -127.5 -14.5t-83.5 -56.5t-55 -105t-39 -173q-117 -663 -142.5 -821t-25.5 -205q0 -92 52.5 -130t169.5 -38q79 0 127.5 14.5t83.5 56.5t55 105t39 173q117 663 142.5 821t25.5 205q0 92 -52.5 130t-169.5 38zM289 350l63 369h144l-60 -338q-21 -120 -57.5 -157.5
t-116.5 -37.5q-72 0 -106.5 28.5t-34.5 96.5q0 28 166 967q21 117 58.5 156t115.5 39q74 0 108.5 -27t34.5 -88q0 -27 -67 -410h-144q64 366 64 369q0 8 -8 8q-10 0 -13 -18q-168 -952 -168 -967q0 -8 8 -8q10 0 13 18z" />
    <glyph glyph-name="ordfeminine" unicode="&#xaa;" horiz-adv-x="290" 
d="M221 1098q-15 -78 -33.5 -104.5t-54.5 -26.5q-31 0 -44 13t-13 46q0 28 41 260q5 30 15.5 50t28 30.5t33 15.5t41 11t41.5 12q25 145 25 151q0 11 -8 11q-12 0 -17 -21l-18 -102h-113l15 82q17 94 47 123.5t104 29.5q56 0 80.5 -18.5t24.5 -69.5q0 -22 -105 -620h-112z
M199 1098q0 -8 8 -8q13 0 18 28q4 24 17 98t18 105q-16 -8 -22 -15t-9 -24q-30 -168 -30 -184zM287 836h-248l18 98h248z" />
    <glyph glyph-name="guillemotleft" unicode="&#xab;" horiz-adv-x="366" 
d="M27 799l174 475h104l-186 -496l18 -454h-94zM166 799l174 475h104l-186 -496l18 -454h-94z" />
    <glyph glyph-name="logicalnot" unicode="&#xac;" horiz-adv-x="258" 
d="M236 670h-84l16 96h-154l17 84h237z" />
    <glyph glyph-name="registered" unicode="&#xae;" horiz-adv-x="339" 
d="M322 1679q137 0 137 -114q0 -34 -47 -301q-20 -112 -52.5 -154.5t-117.5 -42.5q-138 0 -138 115q0 29 48 301q20 112 52.5 154t117.5 42zM319 1642q-66 0 -90.5 -30t-42.5 -127q-45 -256 -45 -297q0 -45 24 -64.5t79 -19.5q66 0 90.5 30.5t42.5 127.5q45 256 45 297
q0 45 -24 64t-79 19zM260 1165l16 168h-2h-4l-28 -168h-84l75 432h76q46 0 68 -14.5t22 -50.5q0 -26 -10 -82q-13 -65 -31 -86l-14 -199h-84zM307 1513h-4l-16 -96h4q9 0 12 21q10 57 10 69q0 6 -6 6z" />
    <glyph glyph-name="macron" unicode="&#xaf;" horiz-adv-x="512" 
d="M236 1516l20 110h315l-20 -110h-315z" />
    <glyph glyph-name="degree" unicode="&#xb0;" horiz-adv-x="192" 
d="M160 1581q0 44 24.5 71t71.5 27q39 0 59.5 -20t20.5 -53q0 -44 -24.5 -71.5t-71.5 -27.5q-39 0 -59.5 20.5t-20.5 53.5zM295 1602q0 36 -43 36q-25 0 -38 -15t-13 -38q0 -37 43 -37q25 0 38 15.5t13 38.5z" />
    <glyph glyph-name="plusminus" unicode="&#xb1;" horiz-adv-x="258" 
d="M229 637h-237l16 84h78l10 65h-78l15 84h78l14 78h84l-14 -78h75l-14 -84h-76l-10 -65h76z" />
    <glyph glyph-name="twosuperior" unicode="&#xb2;" horiz-adv-x="258" 
d="M268 1481q15 81 15 82q0 6 -7 6q-9 0 -12 -21l-16 -92h-107l15 80q14 82 41 112.5t92 30.5q54 0 78 -21t24 -67q0 -20 -14 -102q-8 -43 -32.5 -98t-151.5 -314h110l-18 -108h-230l15 78q133 273 163 339.5t35 94.5z" />
    <glyph glyph-name="threesuperior" unicode="&#xb3;" horiz-adv-x="264" 
d="M180 965q-57 0 -81.5 19.5t-24.5 68.5q0 23 18 127h107q-15 -86 -15 -95q0 -10 9 -10t14 29q31 173 31 180q0 8 -7 8h-51l17 92h45q6 0 10 10.5t10 43.5q21 123 21 125q0 6 -7 6q-9 0 -12 -21l-16 -88h-107l15 76q14 81 42 112t93 31q52 0 76 -20.5t24 -63.5
q0 -21 -29 -184q-6 -29 -20.5 -42.5t-44.5 -16.5q49 -8 49 -47q0 -20 -31 -193q-15 -87 -42.5 -117t-92.5 -30z" />
    <glyph glyph-name="acute" unicode="&#xb4;" horiz-adv-x="512" 
d="M416 1507h-142l43 127h211z" />
    <glyph glyph-name="mu" unicode="&#xb5;" 
d="M561 1475l-260 -1475h-195l33 182q-19 -102 -55 -151l-23 -133h-194l276 1577h195l-221 -1256q-5 -31 10 -31q13 0 20 43l220 1244h194z" />
    <glyph glyph-name="paragraph" unicode="&#xb6;" horiz-adv-x="479" 
d="M524 1669h82l-311 -1771h-82zM283 965h-19q-90 0 -128 35t-38 124q0 64 29 224q23 131 53 198.5t77.5 95t129.5 27.5h100l-311 -1771h-82z" />
    <glyph glyph-name="periodcentered" unicode="&#xb7;" horiz-adv-x="233" 
d="M211 702h-199l35 195h199z" />
    <glyph glyph-name="cedilla" unicode="&#xb8;" horiz-adv-x="512" 
d="M84 -205q-90 0 -90 55q0 13 4 25h72q-2 -4 -2 -8q0 -14 20 -14q31 0 31 41q0 16 -19 16q-18 0 -26 -14h-51l73 104h51l-71 -100q27 34 44.5 45.5t41.5 11.5t34.5 -9.5t10.5 -33.5q0 -55 -26 -87t-97 -32z" />
    <glyph glyph-name="onesuperior" unicode="&#xb9;" horiz-adv-x="182" 
d="M209 969h-107l103 575l-64 -37l19 103l116 59h56z" />
    <glyph glyph-name="ordmasculine" unicode="&#xba;" horiz-adv-x="290" 
d="M197 963q-59 0 -87 22.5t-28 75.5q0 24 78 465q15 89 44 121t97 32q59 0 87 -22.5t28 -75.5q0 -24 -78 -465q-15 -89 -44 -121t-97 -32zM291 1567q-11 0 -15 -21q-79 -447 -79 -461q0 -10 10 -10q11 0 14 21q80 453 80 460q0 11 -10 11zM287 836h-248l18 98h248z" />
    <glyph glyph-name="guillemotright" unicode="&#xbb;" horiz-adv-x="366" 
d="M221 799l-174 -475h-104l186 495l-18 455h94zM360 799l-174 -475h-104l186 495l-18 455h94z" />
    <glyph glyph-name="onequarter" unicode="&#xbc;" horiz-adv-x="520" 
d="M238 969h-107l102 575l-63 -37l18 103l117 59h55zM610 1669h60l-733 -1669h-60zM162 158l12 59l123 483h63l-100 -456h23l79 456h107l-80 -456h29l-17 -86h-26l-29 -158h-106l28 158h-106z" />
    <glyph glyph-name="onehalf" unicode="&#xbd;" horiz-adv-x="528" 
d="M238 969h-107l102 575l-63 -37l18 103l117 59h55zM610 1669h60l-733 -1669h-60zM369 512q14 76 14 82t-6 6q-9 0 -12 -20l-17 -93h-106l14 80q14 82 41.5 113t91.5 31q54 0 78.5 -21t24.5 -67q0 -15 -15 -103q-7 -42 -31 -95.5t-153 -315.5h110l-18 -109h-229l14 78
q136 278 165 342.5t34 91.5z" />
    <glyph glyph-name="threequarters" unicode="&#xbe;" horiz-adv-x="552" 
d="M180 965q-57 0 -81.5 19.5t-24.5 68.5q0 23 18 127h107q-15 -86 -15 -95q0 -10 9 -10t14 29q31 173 31 180q0 8 -7 8h-51l17 92h45q6 0 10 10.5t10 43.5q21 123 21 125q0 6 -7 6q-9 0 -12 -21l-16 -88h-107l15 76q14 81 42 112t93 31q52 0 76 -20.5t24 -63.5
q0 -21 -29 -184q-6 -29 -20.5 -42.5t-44.5 -16.5q49 -8 49 -47q0 -20 -31 -193q-15 -87 -42.5 -117t-92.5 -30zM643 1669h59l-733 -1669h-59zM195 158l12 59l123 483h63l-100 -456h22l80 456h107l-80 -456h29l-17 -86h-26l-29 -158h-107l29 158h-106z" />
    <glyph glyph-name="questiondown" unicode="&#xbf;" horiz-adv-x="468" 
d="M305 1475h199l-33 -195h-199zM168 455q-64 -360 -64 -361q0 -12 13 -12t18 22l66 381h194l-59 -340q-28 -158 -72.5 -208t-163.5 -50q-102 0 -147 33.5t-45 122.5q0 52 61 397q14 79 37 135.5t48 83.5t52.5 50.5t50.5 39t41.5 45t26.5 72.5l56 312h145l-57 -322
q-14 -78 -36 -130.5t-46 -79t-47 -49t-42.5 -57t-29.5 -85.5z" />
    <glyph glyph-name="Agrave" unicode="&#xc0;" horiz-adv-x="399" 
d="M299 1702l-68 127h211l-2 -127h-141zM86 0l82 483h-25l-86 -483h-182l340 1669h299l-248 -1669h-180zM336 1552l-156 -872h23l149 872h-16z" />
    <glyph glyph-name="Aacute" unicode="&#xc1;" horiz-adv-x="399" 
d="M440 1702h-141l43 127h211zM86 0l82 483h-25l-86 -483h-182l340 1669h299l-248 -1669h-180zM336 1552l-156 -872h23l149 872h-16z" />
    <glyph glyph-name="Acircumflex" unicode="&#xc2;" horiz-adv-x="399" 
d="M408 1702l-27 59l-47 -59h-154l105 127h217l59 -127h-153zM86 0l82 483h-25l-86 -483h-182l340 1669h299l-248 -1669h-180zM336 1552l-156 -872h23l149 872h-16z" />
    <glyph glyph-name="Atilde" unicode="&#xc3;" horiz-adv-x="399" 
d="M563 1829q-23 -129 -108 -129q-31 0 -66 11t-53 11q-22 0 -27 -20h-108q23 129 108 129q31 0 67 -10.5t54 -10.5q22 0 25 19h108zM86 0l82 483h-25l-86 -483h-182l340 1669h299l-248 -1669h-180zM336 1552l-156 -872h23l149 872h-16z" />
    <glyph glyph-name="Adieresis" unicode="&#xc4;" horiz-adv-x="399" 
d="M225 1708l25 141h127l-25 -141h-127zM520 1708h-127l25 141h127zM86 0l82 483h-25l-86 -483h-182l340 1669h299l-248 -1669h-180zM336 1552l-156 -872h23l149 872h-16z" />
    <glyph glyph-name="Aring" unicode="&#xc5;" horiz-adv-x="399" 
d="M86 0l82 483h-25l-86 -483h-182l340 1669h82q-18 21 -18 51q0 46 27.5 78.5t78.5 32.5q40 0 65 -22.5t25 -59.5q0 -48 -29 -80h68l-248 -1669h-180zM371 1679q29 0 46 19t17 47q0 21 -13.5 33t-37.5 12q-30 0 -47 -19t-17 -47q0 -21 14 -33t38 -12zM336 1552l-156 -872
h23l149 872h-16z" />
    <glyph glyph-name="AE" unicode="&#xc6;" horiz-adv-x="575" 
d="M100 0l86 492h-22l-90 -492h-195l336 1669h514l-35 -194h-141l-88 -500h143l-33 -195h-143l-104 -585h141l-33 -195h-336zM346 1475l-145 -789h20l137 789h-12z" />
    <glyph glyph-name="Ccedilla" unicode="&#xc7;" 
d="M-80 147q0 25 9 85.5t55.5 330.5t150.5 862q18 103 49 159t73 75.5t110 19.5q97 0 145.5 -37.5t48.5 -119.5q0 -46 -100 -625h-195q101 573 101 576q0 12 -13 12q-14 0 -18 -23q-221 -1255 -221 -1265q0 -13 12 -13q14 0 18 23q57 327 107 608h194q-14 -81 -47.5 -272.5
t-52.5 -298.5q-18 -103 -48.5 -159t-72.5 -75.5t-110 -19.5l-64 -90q27 34 44.5 45.5t41.5 11.5t34.5 -9.5t10.5 -33.5q0 -55 -26 -87t-97 -32q-90 0 -90 55q0 13 4 25h72q-2 -4 -2 -8q0 -14 20 -14q31 0 31 41q0 16 -18 16q-19 0 -27 -14h-51l68 96q-146 19 -146 155z" />
    <glyph glyph-name="Egrave" unicode="&#xc8;" horiz-adv-x="360" 
d="M281 1702l-68 127h211l-2 -127h-141zM254 195l-33 -195h-336l293 1669h336l-35 -194h-139l-88 -500h141l-33 -195h-143l-104 -585h141z" />
    <glyph glyph-name="Eacute" unicode="&#xc9;" horiz-adv-x="360" 
d="M422 1702h-141l43 127h211zM254 195l-33 -195h-336l293 1669h336l-35 -194h-139l-88 -500h141l-33 -195h-143l-104 -585h141z" />
    <glyph glyph-name="Ecircumflex" unicode="&#xca;" horiz-adv-x="360" 
d="M389 1702l-27 59l-47 -59h-153l104 127h217l60 -127h-154zM254 195l-33 -195h-336l293 1669h336l-35 -194h-139l-88 -500h141l-33 -195h-143l-104 -585h141z" />
    <glyph glyph-name="Edieresis" unicode="&#xcb;" horiz-adv-x="360" 
d="M207 1708l24 141h127l-24 -141h-127zM502 1708h-127l24 141h127zM254 195l-33 -195h-336l293 1669h336l-35 -194h-139l-88 -500h141l-33 -195h-143l-104 -585h141z" />
    <glyph glyph-name="Igrave" unicode="&#xcc;" horiz-adv-x="223" 
d="M209 1702l-68 127h211l-2 -127h-141zM-115 0l293 1669h195l-293 -1669h-195z" />
    <glyph glyph-name="Iacute" unicode="&#xcd;" horiz-adv-x="223" 
d="M350 1702h-141l43 127h211zM-115 0l293 1669h195l-293 -1669h-195z" />
    <glyph glyph-name="Icircumflex" unicode="&#xce;" horiz-adv-x="223" 
d="M317 1702l-26 59l-47 -59h-154l105 127h217l59 -127h-154zM-115 0l293 1669h195l-293 -1669h-195z" />
    <glyph glyph-name="Idieresis" unicode="&#xcf;" horiz-adv-x="223" 
d="M135 1708l25 141h127l-25 -141h-127zM430 1708h-127l25 141h127zM-115 0l293 1669h195l-293 -1669h-195z" />
    <glyph glyph-name="Eth" unicode="&#xd0;" 
d="M352 1669q106 0 156.5 -39t50.5 -119q0 -17 -3.5 -44t-24 -151t-63 -366t-122.5 -696q-28 -156 -76 -205t-170 -49h-215l135 766h-14l25 137h12l135 766h174zM147 225q215 1219 215 1231q0 19 -14 19h-10l-100 -572h14l-25 -137h-14l-100 -571h10q19 0 24 30z" />
    <glyph glyph-name="Ntilde" unicode="&#xd1;" horiz-adv-x="448" 
d="M590 1829q-23 -129 -109 -129q-31 0 -66 11t-53 11q-21 0 -26 -20h-109q23 129 109 129q30 0 66 -10.5t55 -10.5q21 0 24 19h109zM141 0l70 872l-152 -872h-174l293 1669h164l-82 -930l164 930h174l-293 -1669h-164z" />
    <glyph glyph-name="Ograve" unicode="&#xd2;" 
d="M322 1702l-68 127h211l-2 -127h-141zM115 -10q-97 0 -146 37.5t-49 119.5q0 25 9 85.5t55.5 330.5t150.5 862q18 103 49 159t73 75.5t110 19.5q97 0 145.5 -37.5t48.5 -119.5q0 -25 -9 -85.5t-55.5 -330.5t-150.5 -862q-18 -103 -48.5 -159t-72.5 -75.5t-110 -19.5z
M127 184q14 0 18 23q222 1261 222 1266q0 12 -13 12q-14 0 -18 -23q-221 -1255 -221 -1265q0 -13 12 -13z" />
    <glyph glyph-name="Oacute" unicode="&#xd3;" 
d="M463 1702h-141l43 127h210zM115 -10q-97 0 -146 37.5t-49 119.5q0 25 9 85.5t55.5 330.5t150.5 862q18 103 49 159t73 75.5t110 19.5q97 0 145.5 -37.5t48.5 -119.5q0 -25 -9 -85.5t-55.5 -330.5t-150.5 -862q-18 -103 -48.5 -159t-72.5 -75.5t-110 -19.5zM127 184
q14 0 18 23q222 1261 222 1266q0 12 -13 12q-14 0 -18 -23q-221 -1255 -221 -1265q0 -13 12 -13z" />
    <glyph glyph-name="Ocircumflex" unicode="&#xd4;" 
d="M430 1702l-27 59l-47 -59h-153l104 127h217l60 -127h-154zM115 -10q-97 0 -146 37.5t-49 119.5q0 25 9 85.5t55.5 330.5t150.5 862q18 103 49 159t73 75.5t110 19.5q97 0 145.5 -37.5t48.5 -119.5q0 -25 -9 -85.5t-55.5 -330.5t-150.5 -862q-18 -103 -48.5 -159
t-72.5 -75.5t-110 -19.5zM127 184q14 0 18 23q222 1261 222 1266q0 12 -13 12q-14 0 -18 -23q-221 -1255 -221 -1265q0 -13 12 -13z" />
    <glyph glyph-name="Otilde" unicode="&#xd5;" 
d="M586 1829q-23 -129 -109 -129q-31 0 -66 11t-53 11q-21 0 -26 -20h-109q23 129 109 129q30 0 66 -10.5t55 -10.5q21 0 24 19h109zM115 -10q-97 0 -146 37.5t-49 119.5q0 25 9 85.5t55.5 330.5t150.5 862q18 103 49 159t73 75.5t110 19.5q97 0 145.5 -37.5t48.5 -119.5
q0 -25 -9 -85.5t-55.5 -330.5t-150.5 -862q-18 -103 -48.5 -159t-72.5 -75.5t-110 -19.5zM127 184q14 0 18 23q222 1261 222 1266q0 12 -13 12q-14 0 -18 -23q-221 -1255 -221 -1265q0 -13 12 -13z" />
    <glyph glyph-name="Odieresis" unicode="&#xd6;" 
d="M248 1708l24 141h127l-24 -141h-127zM543 1708h-127l24 141h127zM115 -10q-97 0 -146 37.5t-49 119.5q0 25 9 85.5t55.5 330.5t150.5 862q18 103 49 159t73 75.5t110 19.5q97 0 145.5 -37.5t48.5 -119.5q0 -25 -9 -85.5t-55.5 -330.5t-150.5 -862q-18 -103 -48.5 -159
t-72.5 -75.5t-110 -19.5zM127 184q14 0 18 23q222 1261 222 1266q0 12 -13 12q-14 0 -18 -23q-221 -1255 -221 -1265q0 -13 12 -13z" />
    <glyph glyph-name="multiply" unicode="&#xd7;" horiz-adv-x="258" 
d="M59 688l-49 60l74 63l-49 63l65 54l50 -62l71 62l49 -60l-73 -63l49 -64l-66 -53l-49 62z" />
    <glyph glyph-name="Oslash" unicode="&#xd8;" 
d="M-115 0l39 100q-4 28 -4 47q0 25 9 85.5t55.5 330.5t150.5 862q18 103 49 159t73 75.5t110 19.5q134 0 176 -73l26 63h27l-41 -100q6 -21 6 -47q0 -25 -9 -85.5t-55.5 -330.5t-150.5 -862q-18 -103 -48.5 -159t-72.5 -75.5t-110 -19.5q-137 0 -176 76l-27 -66h-27z
M336 1462q-60 -343 -98 -557l84 307q45 254 45 261q0 12 -13 12q-14 0 -18 -23zM127 184q14 0 18 23q30 172 73.5 417t57.5 328l-88 -329q-73 -412 -73 -426q0 -13 12 -13z" />
    <glyph glyph-name="Ugrave" unicode="&#xd9;" 
d="M322 1702l-68 127h211l-2 -127h-141zM373 1669l-258 -1462q-4 -23 10 -23t18 23l258 1462h195l-250 -1425q-18 -105 -49 -161t-72 -74.5t-110 -18.5q-118 0 -165 57t-22 197l250 1425h195z" />
    <glyph glyph-name="Uacute" unicode="&#xda;" 
d="M463 1702h-141l43 127h210zM373 1669l-258 -1462q-4 -23 10 -23t18 23l258 1462h195l-250 -1425q-18 -105 -49 -161t-72 -74.5t-110 -18.5q-118 0 -165 57t-22 197l250 1425h195z" />
    <glyph glyph-name="Ucircumflex" unicode="&#xdb;" 
d="M430 1702l-27 59l-47 -59h-153l104 127h217l60 -127h-154zM373 1669l-258 -1462q-4 -23 10 -23t18 23l258 1462h195l-250 -1425q-18 -105 -49 -161t-72 -74.5t-110 -18.5q-118 0 -165 57t-22 197l250 1425h195z" />
    <glyph glyph-name="Udieresis" unicode="&#xdc;" 
d="M248 1708l24 141h127l-24 -141h-127zM543 1708h-127l24 141h127zM373 1669l-258 -1462q-4 -23 10 -23t18 23l258 1462h195l-250 -1425q-18 -105 -49 -161t-72 -74.5t-110 -18.5q-118 0 -165 57t-22 197l250 1425h195z" />
    <glyph glyph-name="Yacute" unicode="&#xdd;" horiz-adv-x="423" 
d="M453 1702h-142l43 127h211zM82 557l96 1112h172l-90 -647h6l135 647h172l-297 -1112l-96 -557h-194z" />
    <glyph glyph-name="Thorn" unicode="&#xde;" horiz-adv-x="450" 
d="M178 1669h195l-35 -194q99 -3 144.5 -44t45.5 -131q0 -38 -94 -577q-21 -117 -51 -175t-74.5 -77.5t-126.5 -19.5h-22l-80 -451h-195zM315 1280h-10l-112 -633h12q20 0 28 45q99 563 99 568q0 20 -17 20z" />
    <glyph glyph-name="germandbls" unicode="&#xdf;" horiz-adv-x="458" 
d="M338 1464l-258 -1464h-195l256 1454q22 124 72.5 174.5t159.5 50.5q194 0 194 -145q0 -43 -45 -299q-14 -75 -42.5 -108t-90.5 -42q49 -9 70.5 -33.5t21.5 -70.5q0 -26 -17.5 -130.5t-101.5 -578.5q-29 -165 -80.5 -218.5t-179.5 -53.5l33 197q12 0 17.5 9t11.5 42
q123 696 123 704q0 11 -13 11h-8l33 196h4q7 0 10 4.5t6 20.5q52 297 52 311t-11 14q-10 0 -13.5 -8t-8.5 -37z" />
    <glyph glyph-name="agrave" unicode="&#xe0;" 
d="M287 1507l-68 127h211l-2 -127h-141zM109 0l32 197q-21 -117 -54 -162t-87 -45q-48 0 -69 23t-21 83q0 22 9 82t49.5 294.5t131.5 752.5q28 156 58.5 208t95.5 52q55 0 76.5 -48t1.5 -171l35 209h194l-258 -1475h-194zM317 1286q-13 0 -20 -43q-182 -1033 -182 -1042
q0 -13 12 -13q13 0 20 43q183 1039 183 1043q0 12 -13 12z" />
    <glyph glyph-name="aacute" unicode="&#xe1;" 
d="M428 1507h-141l43 127h211zM109 0l32 197q-21 -117 -54 -162t-87 -45q-48 0 -69 23t-21 83q0 22 9 82t49.5 294.5t131.5 752.5q28 156 58.5 208t95.5 52q55 0 76.5 -48t1.5 -171l35 209h194l-258 -1475h-194zM317 1286q-13 0 -20 -43q-182 -1033 -182 -1042q0 -13 12 -13
q13 0 20 43q183 1039 183 1043q0 12 -13 12z" />
    <glyph glyph-name="acircumflex" unicode="&#xe2;" 
d="M395 1507l-26 60l-47 -60h-154l104 127h217l60 -127h-154zM109 0l32 197q-21 -117 -54 -162t-87 -45q-48 0 -69 23t-21 83q0 22 9 82t49.5 294.5t131.5 752.5q28 156 58.5 208t95.5 52q55 0 76.5 -48t1.5 -171l35 209h194l-258 -1475h-194zM317 1286q-13 0 -20 -43
q-182 -1033 -182 -1042q0 -13 12 -13q13 0 20 43q183 1039 183 1043q0 12 -13 12z" />
    <glyph glyph-name="atilde" unicode="&#xe3;" 
d="M551 1634q-23 -129 -109 -129q-30 0 -65 11.5t-53 11.5q-22 0 -27 -21h-109q23 129 109 129q31 0 67 -10t54 -10q12 0 17.5 4t6.5 14h109zM109 0l32 197q-21 -117 -54 -162t-87 -45q-48 0 -69 23t-21 83q0 22 9 82t49.5 294.5t131.5 752.5q28 156 58.5 208t95.5 52
q55 0 76.5 -48t1.5 -171l35 209h194l-258 -1475h-194zM317 1286q-13 0 -20 -43q-182 -1033 -182 -1042q0 -13 12 -13q13 0 20 43q183 1039 183 1043q0 12 -13 12z" />
    <glyph glyph-name="adieresis" unicode="&#xe4;" 
d="M213 1513l25 142h127l-25 -142h-127zM508 1513h-127l25 142h126zM109 0l32 197q-21 -117 -54 -162t-87 -45q-48 0 -69 23t-21 83q0 22 9 82t49.5 294.5t131.5 752.5q28 156 58.5 208t95.5 52q55 0 76.5 -48t1.5 -171l35 209h194l-258 -1475h-194zM317 1286q-13 0 -20 -43
q-182 -1033 -182 -1042q0 -13 12 -13q13 0 20 43q183 1039 183 1043q0 12 -13 12z" />
    <glyph glyph-name="aring" unicode="&#xe5;" 
d="M109 0l32 197q-21 -117 -54 -162t-87 -45q-48 0 -69 23t-21 83q0 22 9 82t49.5 294.5t131.5 752.5q28 156 58.5 208t95.5 52q17 0 25 -2q-13 19 -13 43q0 46 28 78t79 32q40 0 65 -22.5t25 -59.5q0 -47 -29 -79h127l-258 -1475h-194zM358 1485q30 0 47 19t17 46
q0 21 -13.5 33t-37.5 12q-30 0 -47 -19t-17 -46q0 -21 13.5 -33t37.5 -12zM356 1444q-12 0 -32 4q30 -52 8 -182l30 178h-6zM317 1286q-13 0 -20 -43q-182 -1033 -182 -1042q0 -13 12 -13q13 0 20 43q183 1039 183 1043q0 12 -13 12z" />
    <glyph glyph-name="ae" unicode="&#xe6;" horiz-adv-x="667" 
d="M561 1475l-35 -189q23 119 52.5 159t78.5 40t72 -27t23 -90q0 -51 -111 -698h-221q-82 -466 -82 -473q0 -13 12 -13q13 0 17 23q43 240 67 385h195q-24 -146 -64 -365q-25 -142 -55.5 -189.5t-87.5 -47.5q-59 0 -80 49t-6 160l-33 -199h-194l32 197q-21 -117 -54 -162
t-87 -45q-48 0 -69 23t-21 83q0 22 9 82t49.5 294.5t131.5 752.5q28 156 58.5 208t95.5 52q55 0 76.5 -48t1.5 -171l35 209h194zM524 1268q-22 -129 -71 -404h28q72 408 72 414q0 12 -12 12q-13 0 -17 -22zM317 1286q-13 0 -20 -43q-182 -1033 -182 -1042q0 -13 12 -13
q13 0 20 43q183 1039 183 1043q0 12 -13 12z" />
    <glyph glyph-name="ccedilla" unicode="&#xe7;" 
d="M59 -205q-90 0 -90 55q0 13 4 25h72q-2 -4 -2 -8q0 -14 20 -14q31 0 31 41q0 16 -18 16q-19 0 -27 -14h-51l68 96q-146 19 -146 155q0 21 7 70.5t47.5 286t127.5 727.5q18 105 49 161t72.5 74.5t110.5 18.5q96 0 145 -37.5t49 -120.5q0 -37 -82 -510h-194q80 453 80 461
q0 12 -13 12q-12 0 -16 -22q-186 -1058 -186 -1071t12 -13t16 23q51 282 80 463h195q-3 -20 -74 -426q-18 -105 -49 -161t-72 -74.5t-110 -18.5l-64 -90q27 34 44.5 45.5t41.5 11.5t34.5 -9.5t10.5 -33.5q0 -55 -26 -87t-97 -32z" />
    <glyph glyph-name="egrave" unicode="&#xe8;" 
d="M287 1507l-68 127h211l-2 -127h-141zM528 1327q0 -52 -108 -657h-221q-82 -466 -82 -473q0 -13 12 -13t16 23q44 239 68 385h195q-37 -203 -62 -348q-18 -105 -49 -161t-72 -74.5t-110 -18.5q-97 0 -146 37.5t-49 119.5q0 21 7 70.5t47.5 286t127.5 727.5q18 105 49 161
t72.5 74.5t110.5 18.5q96 0 145 -37.5t49 -120.5zM303 1268q-16 -91 -41.5 -235t-30.5 -169h29q72 408 72 414q0 12 -13 12q-12 0 -16 -22z" />
    <glyph glyph-name="eacute" unicode="&#xe9;" 
d="M428 1507h-141l43 127h211zM528 1327q0 -52 -108 -657h-221q-82 -466 -82 -473q0 -13 12 -13t16 23q44 239 68 385h195q-37 -203 -62 -348q-18 -105 -49 -161t-72 -74.5t-110 -18.5q-97 0 -146 37.5t-49 119.5q0 21 7 70.5t47.5 286t127.5 727.5q18 105 49 161t72.5 74.5
t110.5 18.5q96 0 145 -37.5t49 -120.5zM303 1268q-16 -91 -41.5 -235t-30.5 -169h29q72 408 72 414q0 12 -13 12q-12 0 -16 -22z" />
    <glyph glyph-name="ecircumflex" unicode="&#xea;" 
d="M395 1507l-26 60l-47 -60h-154l104 127h217l60 -127h-154zM528 1327q0 -52 -108 -657h-221q-82 -466 -82 -473q0 -13 12 -13t16 23q44 239 68 385h195q-37 -203 -62 -348q-18 -105 -49 -161t-72 -74.5t-110 -18.5q-97 0 -146 37.5t-49 119.5q0 21 7 70.5t47.5 286
t127.5 727.5q18 105 49 161t72.5 74.5t110.5 18.5q96 0 145 -37.5t49 -120.5zM303 1268q-16 -91 -41.5 -235t-30.5 -169h29q72 408 72 414q0 12 -13 12q-12 0 -16 -22z" />
    <glyph glyph-name="edieresis" unicode="&#xeb;" 
d="M213 1513l25 142h127l-25 -142h-127zM508 1513h-127l25 142h126zM528 1327q0 -52 -108 -657h-221q-82 -466 -82 -473q0 -13 12 -13t16 23q44 239 68 385h195q-37 -203 -62 -348q-18 -105 -49 -161t-72 -74.5t-110 -18.5q-97 0 -146 37.5t-49 119.5q0 21 7 70.5t47.5 286
t127.5 727.5q18 105 49 161t72.5 74.5t110.5 18.5q96 0 145 -37.5t49 -120.5zM303 1268q-16 -91 -41.5 -235t-30.5 -169h29q72 408 72 414q0 12 -13 12q-12 0 -16 -22z" />
    <glyph glyph-name="igrave" unicode="&#xec;" horiz-adv-x="223" 
d="M174 1507l-68 127h211l-2 -127h-141zM-115 0l258 1475h195l-258 -1475h-195z" />
    <glyph glyph-name="iacute" unicode="&#xed;" horiz-adv-x="223" 
d="M315 1507h-141l43 127h211zM-115 0l258 1475h195l-258 -1475h-195z" />
    <glyph glyph-name="icircumflex" unicode="&#xee;" horiz-adv-x="223" 
d="M283 1507l-27 60l-47 -60h-154l105 127h217l59 -127h-153zM-115 0l258 1475h195l-258 -1475h-195z" />
    <glyph glyph-name="idieresis" unicode="&#xef;" horiz-adv-x="223" 
d="M100 1513l25 142h127l-25 -142h-127zM395 1513h-127l25 142h127zM-115 0l258 1475h195l-258 -1475h-195z" />
    <glyph glyph-name="eth" unicode="&#xf0;" 
d="M346 244q-18 -103 -48.5 -159t-72.5 -75.5t-110 -19.5q-97 0 -146 37.5t-49 119.5q0 57 158 951q28 157 58.5 208.5t94.5 51.5q30 0 47.5 -7t32 -29t14 -63.5t-7.5 -109.5q43 244 43 274q0 19 -2 25l-57 -51h-86l84 78h-117l76 194h64q114 0 163 -24l27 24h88l-68 -61
q25 -39 25 -105q0 -24 -8 -80t-55.5 -335.5t-147.5 -843.5zM299 1163q-9 0 -13 -6t-7 -24q-164 -928 -164 -936q0 -13 12 -13q15 0 20 31q164 928 164 936q0 12 -12 12z" />
    <glyph glyph-name="ntilde" unicode="&#xf1;" 
d="M557 1634q-23 -129 -108 -129q-30 0 -65.5 11.5t-53.5 11.5q-22 0 -27 -21h-108q23 129 108 129q31 0 67 -10t54 -10q22 0 25 18h108zM340 1475l-35 -197q21 117 54 162t87 45q67 0 83 -54.5t-11 -211.5l-215 -1219h-194l219 1243q7 43 -9 43q-13 0 -20 -43l-219 -1243
h-195l260 1475h195z" />
    <glyph glyph-name="ograve" unicode="&#xf2;" 
d="M287 1507l-68 127h211l-2 -127h-141zM115 -10q-97 0 -146 37.5t-49 119.5q0 21 7 70.5t47.5 286t127.5 727.5q18 105 49 161t72.5 74.5t110.5 18.5q96 0 145 -37.5t49 -120.5q0 -21 -7 -71t-47.5 -284.5t-127.5 -727.5q-18 -105 -49 -161t-72 -74.5t-110 -18.5zM129 184
q12 0 16 23q187 1064 187 1071q0 12 -13 12q-12 0 -16 -22q-186 -1058 -186 -1071t12 -13z" />
    <glyph glyph-name="oacute" unicode="&#xf3;" 
d="M428 1507h-141l43 127h211zM115 -10q-97 0 -146 37.5t-49 119.5q0 21 7 70.5t47.5 286t127.5 727.5q18 105 49 161t72.5 74.5t110.5 18.5q96 0 145 -37.5t49 -120.5q0 -21 -7 -71t-47.5 -284.5t-127.5 -727.5q-18 -105 -49 -161t-72 -74.5t-110 -18.5zM129 184
q12 0 16 23q187 1064 187 1071q0 12 -13 12q-12 0 -16 -22q-186 -1058 -186 -1071t12 -13z" />
    <glyph glyph-name="ocircumflex" unicode="&#xf4;" 
d="M395 1507l-26 60l-47 -60h-154l104 127h217l60 -127h-154zM115 -10q-97 0 -146 37.5t-49 119.5q0 21 7 70.5t47.5 286t127.5 727.5q18 105 49 161t72.5 74.5t110.5 18.5q96 0 145 -37.5t49 -120.5q0 -21 -7 -71t-47.5 -284.5t-127.5 -727.5q-18 -105 -49 -161t-72 -74.5
t-110 -18.5zM129 184q12 0 16 23q187 1064 187 1071q0 12 -13 12q-12 0 -16 -22q-186 -1058 -186 -1071t12 -13z" />
    <glyph glyph-name="otilde" unicode="&#xf5;" 
d="M551 1634q-23 -129 -109 -129q-30 0 -65 11.5t-53 11.5q-22 0 -27 -21h-109q23 129 109 129q31 0 67 -10t54 -10q12 0 17.5 4t6.5 14h109zM115 -10q-97 0 -146 37.5t-49 119.5q0 21 7 70.5t47.5 286t127.5 727.5q18 105 49 161t72.5 74.5t110.5 18.5q96 0 145 -37.5
t49 -120.5q0 -21 -7 -71t-47.5 -284.5t-127.5 -727.5q-18 -105 -49 -161t-72 -74.5t-110 -18.5zM129 184q12 0 16 23q187 1064 187 1071q0 12 -13 12q-12 0 -16 -22q-186 -1058 -186 -1071t12 -13z" />
    <glyph glyph-name="odieresis" unicode="&#xf6;" 
d="M213 1513l25 142h127l-25 -142h-127zM508 1513h-127l25 142h126zM115 -10q-97 0 -146 37.5t-49 119.5q0 21 7 70.5t47.5 286t127.5 727.5q18 105 49 161t72.5 74.5t110.5 18.5q96 0 145 -37.5t49 -120.5q0 -21 -7 -71t-47.5 -284.5t-127.5 -727.5q-18 -105 -49 -161
t-72 -74.5t-110 -18.5zM129 184q12 0 16 23q187 1064 187 1071q0 12 -13 12q-12 0 -16 -22q-186 -1058 -186 -1071t12 -13z" />
    <glyph glyph-name="divide" unicode="&#xf7;" horiz-adv-x="258" 
d="M195 881h-80l14 75h80zM252 766h-238l17 84h237zM156 659h-80l14 76h80z" />
    <glyph glyph-name="oslash" unicode="&#xf8;" 
d="M-115 0l39 100q-4 28 -4 47q0 21 7 70.5t47.5 286t127.5 727.5q18 105 49 161t72.5 74.5t110.5 18.5q133 0 174 -72l27 62h26l-39 -97q6 -21 6 -51q0 -21 -7 -71t-47.5 -284.5t-127.5 -727.5q-18 -105 -49 -161t-72 -74.5t-110 -18.5q-134 0 -176 73l-27 -63h-27z
M303 1268q-39 -224 -84 -473l76 258q37 211 37 225q0 12 -13 12q-12 0 -16 -22zM129 184q12 0 16 23q96 539 109 610l-80 -276q-57 -326 -57 -344q0 -13 12 -13z" />
    <glyph glyph-name="ugrave" unicode="&#xf9;" 
d="M285 1507l-68 127h211l-2 -127h-141zM106 0l35 197q-21 -117 -54 -162t-87 -45q-67 0 -83 54.5t11 211.5l215 1219h195l-219 -1244q-7 -43 8 -43q13 0 20 43l220 1244h194l-260 -1475h-195z" />
    <glyph glyph-name="uacute" unicode="&#xfa;" 
d="M426 1507h-141l43 127h211zM106 0l35 197q-21 -117 -54 -162t-87 -45q-67 0 -83 54.5t11 211.5l215 1219h195l-219 -1244q-7 -43 8 -43q13 0 20 43l220 1244h194l-260 -1475h-195z" />
    <glyph glyph-name="ucircumflex" unicode="&#xfb;" 
d="M393 1507l-26 60l-48 -60h-153l104 127h217l60 -127h-154zM106 0l35 197q-21 -117 -54 -162t-87 -45q-67 0 -83 54.5t11 211.5l215 1219h195l-219 -1244q-7 -43 8 -43q13 0 20 43l220 1244h194l-260 -1475h-195z" />
    <glyph glyph-name="udieresis" unicode="&#xfc;" 
d="M211 1513l25 142h126l-24 -142h-127zM506 1513h-127l24 142h127zM106 0l35 197q-21 -117 -54 -162t-87 -45q-67 0 -83 54.5t11 211.5l215 1219h195l-219 -1244q-7 -43 8 -43q13 0 20 43l220 1244h194l-260 -1475h-195z" />
    <glyph glyph-name="yacute" unicode="&#xfd;" horiz-adv-x="450" 
d="M430 1507h-141l43 127h211zM266 240q-26 -107 -54.5 -173.5t-69 -104t-86.5 -51t-115 -13.5l32 186h37q29 0 41 37l12 43h-75l155 1311h193l-176 -1084h4l207 1084h194z" />
    <glyph glyph-name="thorn" unicode="&#xfe;" 
d="M305 1278q21 117 54 162t87 45q48 0 69.5 -23.5t21.5 -83.5q0 -30 -28.5 -197.5t-162.5 -930.5q-28 -157 -58.5 -208.5t-94.5 -51.5q-55 0 -76.5 48t-1.5 171l-54 -311h-194l311 1771h195zM129 188q14 0 21 43q182 1033 182 1043q0 12 -13 12t-20 -43
q-182 -1033 -182 -1042q0 -13 12 -13z" />
    <glyph glyph-name="ydieresis" unicode="&#xff;" horiz-adv-x="450" 
d="M215 1513l25 142h127l-25 -142h-127zM510 1513h-127l25 142h127zM266 240q-26 -107 -54.5 -173.5t-69 -104t-86.5 -51t-115 -13.5l32 186h37q29 0 41 37l12 43h-75l155 1311h193l-176 -1084h4l207 1084h194z" />
    <glyph glyph-name="Amacron" unicode="&#x100;" horiz-adv-x="399" 
d="M215 1710l21 111h315l-21 -111h-315zM86 0l82 483h-25l-86 -483h-182l340 1669h299l-248 -1669h-180zM336 1552l-156 -872h23l149 872h-16z" />
    <glyph glyph-name="amacron" unicode="&#x101;" 
d="M203 1516l20 110h316l-21 -110h-315zM109 0l32 197q-21 -117 -54 -162t-87 -45q-48 0 -69 23t-21 83q0 22 9 82t49.5 294.5t131.5 752.5q28 156 58.5 208t95.5 52q55 0 76.5 -48t1.5 -171l35 209h194l-258 -1475h-194zM317 1286q-13 0 -20 -43q-182 -1033 -182 -1042
q0 -13 12 -13q13 0 20 43q183 1039 183 1043q0 12 -13 12z" />
    <glyph glyph-name="Abreve" unicode="&#x102;" horiz-adv-x="399" 
d="M387 1794q65 0 76 35h104q-29 -129 -196 -129q-85 0 -121 30.5t-31 98.5h105q0 -19 14.5 -27t48.5 -8zM86 0l82 483h-25l-86 -483h-182l340 1669h299l-248 -1669h-180zM336 1552l-156 -872h23l149 872h-16z" />
    <glyph glyph-name="abreve" unicode="&#x103;" 
d="M375 1599q65 0 76 35h104q-29 -129 -197 -129q-84 0 -120 30.5t-31 98.5h104q0 -35 64 -35zM109 0l32 197q-21 -117 -54 -162t-87 -45q-48 0 -69 23t-21 83q0 22 9 82t49.5 294.5t131.5 752.5q28 156 58.5 208t95.5 52q55 0 76.5 -48t1.5 -171l35 209h194l-258 -1475
h-194zM317 1286q-13 0 -20 -43q-182 -1033 -182 -1042q0 -13 12 -13q13 0 20 43q183 1039 183 1043q0 12 -13 12z" />
    <glyph glyph-name="Aogonek" unicode="&#x104;" horiz-adv-x="399" 
d="M86 0l82 483h-25l-86 -483h-182l340 1669h299l-248 -1669h-63q-56 -67 -56 -127q0 -20 21 -20q27 0 27 36v2h63v-2q0 -44 -29 -69t-86 -25q-94 0 -94 60q0 24 10 44.5t21.5 32.5t34 33t35.5 35h-64zM336 1552l-156 -872h23l149 872h-16z" />
    <glyph glyph-name="aogonek" unicode="&#x105;" 
d="M109 0l32 197q-21 -117 -54 -162t-87 -45q-48 0 -69 23t-21 83q0 22 9 82t49.5 294.5t131.5 752.5q28 156 58.5 208t95.5 52q55 0 76.5 -48t1.5 -171l35 209h194l-258 -1475h-76q-55 -66 -55 -127q0 -20 21 -20q26 0 26 36v2h64v-2q0 -44 -29 -69t-86 -25q-94 0 -94 60
q0 24 9.5 44.5t21 32.5t34.5 33.5t35 34.5h-65zM317 1286q-13 0 -20 -43q-182 -1033 -182 -1042q0 -13 12 -13q13 0 20 43q183 1039 183 1043q0 12 -13 12z" />
    <glyph glyph-name="Cacute" unicode="&#x106;" 
d="M463 1702h-141l43 127h210zM-80 147q0 25 9 85.5t55.5 330.5t150.5 862q18 103 49 159t73 75.5t110 19.5q97 0 145.5 -37.5t48.5 -119.5q0 -46 -100 -625h-195q101 573 101 576q0 12 -13 12q-14 0 -18 -23q-221 -1255 -221 -1265q0 -13 12 -13q14 0 18 23q57 327 107 608
h194q-14 -81 -47.5 -272.5t-52.5 -298.5q-18 -103 -48.5 -159t-72.5 -75.5t-110 -19.5q-97 0 -146 37.5t-49 119.5z" />
    <glyph glyph-name="cacute" unicode="&#x107;" 
d="M428 1507h-141l43 127h211zM446 817h-194q80 453 80 461q0 12 -13 12q-12 0 -16 -22q-186 -1058 -186 -1071t12 -13t16 23q51 282 80 463h195q-3 -20 -74 -426q-18 -105 -49 -161t-72 -74.5t-110 -18.5q-97 0 -146 37.5t-49 119.5q0 21 7 70.5t47.5 286t127.5 727.5
q18 105 49 161t72.5 74.5t110.5 18.5q96 0 145 -37.5t49 -120.5q0 -37 -82 -510z" />
    <glyph glyph-name="Ccircumflex" unicode="&#x108;" 
d="M430 1702l-27 59l-47 -59h-153l104 127h217l60 -127h-154zM-80 147q0 25 9 85.5t55.5 330.5t150.5 862q18 103 49 159t73 75.5t110 19.5q97 0 145.5 -37.5t48.5 -119.5q0 -46 -100 -625h-195q101 573 101 576q0 12 -13 12q-14 0 -18 -23q-221 -1255 -221 -1265
q0 -13 12 -13q14 0 18 23q57 327 107 608h194q-14 -81 -47.5 -272.5t-52.5 -298.5q-18 -103 -48.5 -159t-72.5 -75.5t-110 -19.5q-97 0 -146 37.5t-49 119.5z" />
    <glyph glyph-name="ccircumflex" unicode="&#x109;" 
d="M395 1507l-26 60l-47 -60h-154l104 127h217l60 -127h-154zM446 817h-194q80 453 80 461q0 12 -13 12q-12 0 -16 -22q-186 -1058 -186 -1071t12 -13t16 23q51 282 80 463h195q-3 -20 -74 -426q-18 -105 -49 -161t-72 -74.5t-110 -18.5q-97 0 -146 37.5t-49 119.5
q0 21 7 70.5t47.5 286t127.5 727.5q18 105 49 161t72.5 74.5t110.5 18.5q96 0 145 -37.5t49 -120.5q0 -37 -82 -510z" />
    <glyph glyph-name="Cdotaccent" unicode="&#x10a;" 
d="M418 1858q32 0 51.5 -17.5t19.5 -48.5q0 -34 -23.5 -62t-68.5 -28q-33 0 -52 17.5t-19 47.5q0 34 23.5 62.5t68.5 28.5zM-80 147q0 25 9 85.5t55.5 330.5t150.5 862q18 103 49 159t73 75.5t110 19.5q97 0 145.5 -37.5t48.5 -119.5q0 -46 -100 -625h-195q101 573 101 576
q0 12 -13 12q-14 0 -18 -23q-221 -1255 -221 -1265q0 -13 12 -13q14 0 18 23q57 327 107 608h194q-14 -81 -47.5 -272.5t-52.5 -298.5q-18 -103 -48.5 -159t-72.5 -75.5t-110 -19.5q-97 0 -146 37.5t-49 119.5z" />
    <glyph glyph-name="cdotaccent" unicode="&#x10b;" 
d="M383 1663q33 0 52.5 -18t19.5 -48q0 -34 -24 -62t-69 -28q-32 0 -51.5 17.5t-19.5 48.5q0 34 23.5 62t68.5 28zM446 817h-194q80 453 80 461q0 12 -13 12q-12 0 -16 -22q-186 -1058 -186 -1071t12 -13t16 23q51 282 80 463h195q-3 -20 -74 -426q-18 -105 -49 -161
t-72 -74.5t-110 -18.5q-97 0 -146 37.5t-49 119.5q0 21 7 70.5t47.5 286t127.5 727.5q18 105 49 161t72.5 74.5t110.5 18.5q96 0 145 -37.5t49 -120.5q0 -37 -82 -510z" />
    <glyph glyph-name="Ccaron" unicode="&#x10c;" 
d="M453 1829h153l-104 -127h-217l-60 127h154l27 -60zM-80 147q0 25 9 85.5t55.5 330.5t150.5 862q18 103 49 159t73 75.5t110 19.5q97 0 145.5 -37.5t48.5 -119.5q0 -46 -100 -625h-195q101 573 101 576q0 12 -13 12q-14 0 -18 -23q-221 -1255 -221 -1265q0 -13 12 -13
q14 0 18 23q57 327 107 608h194q-14 -81 -47.5 -272.5t-52.5 -298.5q-18 -103 -48.5 -159t-72.5 -75.5t-110 -19.5q-97 0 -146 37.5t-49 119.5z" />
    <glyph glyph-name="ccaron" unicode="&#x10d;" 
d="M418 1634h153l-104 -127h-217l-60 127h154l27 -59zM446 817h-194q80 453 80 461q0 12 -13 12q-12 0 -16 -22q-186 -1058 -186 -1071t12 -13t16 23q51 282 80 463h195q-3 -20 -74 -426q-18 -105 -49 -161t-72 -74.5t-110 -18.5q-97 0 -146 37.5t-49 119.5q0 21 7 70.5
t47.5 286t127.5 727.5q18 105 49 161t72.5 74.5t110.5 18.5q96 0 145 -37.5t49 -120.5q0 -37 -82 -510z" />
    <glyph glyph-name="Dcaron" unicode="&#x10e;" 
d="M455 1829h153l-104 -127h-217l-60 127h154l27 -60zM352 1669q106 0 156.5 -39t50.5 -119q0 -17 -3.5 -44t-24 -151t-63 -366t-122.5 -696q-28 -156 -76 -205t-170 -49h-215l293 1669h174zM147 225q215 1219 215 1231q0 19 -14 19h-10l-225 -1280h10q19 0 24 30z" />
    <glyph glyph-name="dcaron" unicode="&#x10f;" 
d="M332 1266l69 403h195l-293 -1669h-194l32 197q-21 -117 -54 -162t-87 -45q-48 0 -69 23t-21 83q0 22 9 82t49.5 294.5t131.5 752.5q28 156 58.5 208t95.5 52q55 0 76.5 -48t1.5 -171zM700 1505h-104l29 164h176zM317 1286q-13 0 -20 -43q-182 -1033 -182 -1042
q0 -13 12 -13q13 0 20 43q183 1039 183 1043q0 12 -13 12z" />
    <glyph glyph-name="Dcroat" unicode="&#x110;" 
d="M352 1669q106 0 156.5 -39t50.5 -119q0 -17 -3.5 -44t-24 -151t-63 -366t-122.5 -696q-28 -156 -76 -205t-170 -49h-215l135 766h-14l25 137h12l135 766h174zM147 225q215 1219 215 1231q0 19 -14 19h-10l-100 -572h14l-25 -137h-14l-100 -571h10q19 0 24 30z" />
    <glyph glyph-name="dcroat" unicode="&#x111;" 
d="M332 1266l47 270h-78l14 80h78l8 53h195l-293 -1669h-194l32 197q-21 -117 -54 -162t-87 -45q-48 0 -69 23t-21 83q0 22 9 82t49.5 294.5t131.5 752.5q28 156 58.5 208t95.5 52q55 0 76.5 -48t1.5 -171zM317 1286q-13 0 -20 -43q-182 -1033 -182 -1042q0 -13 12 -13
q13 0 20 43q183 1039 183 1043q0 12 -13 12z" />
    <glyph glyph-name="Emacron" unicode="&#x112;" horiz-adv-x="360" 
d="M197 1710l20 111h315l-20 -111h-315zM254 195l-33 -195h-336l293 1669h336l-35 -194h-139l-88 -500h141l-33 -195h-143l-104 -585h141z" />
    <glyph glyph-name="emacron" unicode="&#x113;" 
d="M203 1516l20 110h316l-21 -110h-315zM528 1327q0 -52 -108 -657h-221q-82 -466 -82 -473q0 -13 12 -13t16 23q44 239 68 385h195q-37 -203 -62 -348q-18 -105 -49 -161t-72 -74.5t-110 -18.5q-97 0 -146 37.5t-49 119.5q0 21 7 70.5t47.5 286t127.5 727.5q18 105 49 161
t72.5 74.5t110.5 18.5q96 0 145 -37.5t49 -120.5zM303 1268q-16 -91 -41.5 -235t-30.5 -169h29q72 408 72 414q0 12 -13 12q-12 0 -16 -22z" />
    <glyph glyph-name="Ebreve" unicode="&#x114;" horiz-adv-x="360" 
d="M369 1794q64 0 75 35h105q-29 -129 -197 -129q-84 0 -120 30.5t-31 98.5h104q0 -35 64 -35zM254 195l-33 -195h-336l293 1669h336l-35 -194h-139l-88 -500h141l-33 -195h-143l-104 -585h141z" />
    <glyph glyph-name="ebreve" unicode="&#x115;" 
d="M375 1599q65 0 76 35h104q-29 -129 -197 -129q-84 0 -120 30.5t-31 98.5h104q0 -35 64 -35zM528 1327q0 -52 -108 -657h-221q-82 -466 -82 -473q0 -13 12 -13t16 23q44 239 68 385h195q-37 -203 -62 -348q-18 -105 -49 -161t-72 -74.5t-110 -18.5q-97 0 -146 37.5
t-49 119.5q0 21 7 70.5t47.5 286t127.5 727.5q18 105 49 161t72.5 74.5t110.5 18.5q96 0 145 -37.5t49 -120.5zM303 1268q-16 -91 -41.5 -235t-30.5 -169h29q72 408 72 414q0 12 -13 12q-12 0 -16 -22z" />
    <glyph glyph-name="Edotaccent" unicode="&#x116;" horiz-adv-x="360" 
d="M377 1858q33 0 52.5 -18t19.5 -48q0 -34 -24 -62t-69 -28q-33 0 -52 17.5t-19 47.5q0 34 23.5 62.5t68.5 28.5zM254 195l-33 -195h-336l293 1669h336l-35 -194h-139l-88 -500h141l-33 -195h-143l-104 -585h141z" />
    <glyph glyph-name="edotaccent" unicode="&#x117;" 
d="M383 1663q33 0 52.5 -18t19.5 -48q0 -34 -24 -62t-69 -28q-32 0 -51.5 17.5t-19.5 48.5q0 34 23.5 62t68.5 28zM528 1327q0 -52 -108 -657h-221q-82 -466 -82 -473q0 -13 12 -13t16 23q44 239 68 385h195q-37 -203 -62 -348q-18 -105 -49 -161t-72 -74.5t-110 -18.5
q-97 0 -146 37.5t-49 119.5q0 21 7 70.5t47.5 286t127.5 727.5q18 105 49 161t72.5 74.5t110.5 18.5q96 0 145 -37.5t49 -120.5zM303 1268q-16 -91 -41.5 -235t-30.5 -169h29q72 408 72 414q0 12 -13 12q-12 0 -16 -22z" />
    <glyph glyph-name="Eogonek" unicode="&#x118;" horiz-adv-x="360" 
d="M145 0q-55 -66 -55 -127q0 -20 21 -20q26 0 26 36v2h64v-2q0 -44 -29 -69t-86 -25q-94 0 -94 60q0 24 9.5 44.5t21 32.5t34.5 33.5t35 34.5h-207l293 1669h336l-35 -194h-139l-88 -500h141l-33 -195h-143l-104 -585h141l-33 -195h-76z" />
    <glyph glyph-name="eogonek" unicode="&#x119;" 
d="M346 244q-12 -73 -35 -127.5t-46 -83t-44.5 -51t-35 -46.5t-13.5 -55q0 -28 21 -28q26 0 26 36v2h64v-2q0 -44 -29 -69t-86 -25q-51 0 -72.5 15t-21.5 49q0 27 14.5 51t46 52.5t35.5 33.5q-27 -6 -55 -6q-97 0 -146 37.5t-49 119.5q0 21 7 70.5t47.5 286t127.5 727.5
q18 105 49 161t72.5 74.5t110.5 18.5q96 0 145 -37.5t49 -120.5q0 -52 -108 -657h-221q-82 -466 -82 -473q0 -13 12 -13t16 23q44 239 68 385h195q-37 -203 -62 -348zM303 1268q-16 -91 -41.5 -235t-30.5 -169h29q72 408 72 414q0 12 -13 12q-12 0 -16 -22z" />
    <glyph glyph-name="Ecaron" unicode="&#x11a;" horiz-adv-x="360" 
d="M412 1829h153l-104 -127h-217l-60 127h154l27 -60zM254 195l-33 -195h-336l293 1669h336l-35 -194h-139l-88 -500h141l-33 -195h-143l-104 -585h141z" />
    <glyph glyph-name="ecaron" unicode="&#x11b;" 
d="M418 1634h153l-104 -127h-217l-60 127h154l27 -59zM528 1327q0 -52 -108 -657h-221q-82 -466 -82 -473q0 -13 12 -13t16 23q44 239 68 385h195q-37 -203 -62 -348q-18 -105 -49 -161t-72 -74.5t-110 -18.5q-97 0 -146 37.5t-49 119.5q0 21 7 70.5t47.5 286t127.5 727.5
q18 105 49 161t72.5 74.5t110.5 18.5q96 0 145 -37.5t49 -120.5zM303 1268q-16 -91 -41.5 -235t-30.5 -169h29q72 408 72 414q0 12 -13 12q-12 0 -16 -22z" />
    <glyph glyph-name="Gcircumflex" unicode="&#x11c;" horiz-adv-x="448" 
d="M432 1702l-26 59l-48 -59h-153l104 127h217l60 -127h-154zM145 207l72 411h-14l35 197h208l-143 -815h-55l-6 172q-16 -108 -56.5 -145t-113.5 -37q-81 0 -116.5 34.5t-35.5 122.5q0 25 9 85.5t55.5 330.5t150.5 862q18 103 49 159t73 75.5t110 19.5q97 0 145.5 -37.5
t48.5 -119.5q0 -46 -100 -625h-195q101 573 101 576q0 12 -13 12q-14 0 -18 -23q-221 -1255 -221 -1267q0 -11 12 -11q14 0 18 23z" />
    <glyph glyph-name="gcircumflex" unicode="&#x11d;" 
d="M395 1507l-26 60l-47 -60h-154l104 127h217l60 -127h-154zM326 137q-26 -144 -77 -197t-161 -53q-119 0 -161 52.5t-21 181.5l2 12h194l-4 -24q-5 -27 11 -27q13 0 18 27l47 272q-21 -117 -54 -162t-87 -45q-67 0 -82.5 51.5t10.5 208.5l139 791q28 155 59 207.5t95 52.5
q55 0 77.5 -48.5t0.5 -170.5l35 209h194zM317 1286q-13 0 -20 -43l-145 -827q-7 -43 8 -43q13 0 20 43l146 827q7 43 -9 43z" />
    <glyph glyph-name="Gbreve" unicode="&#x11e;" horiz-adv-x="448" 
d="M412 1794q64 0 75 35h105q-29 -129 -197 -129q-84 0 -120 30.5t-31 98.5h104q0 -35 64 -35zM145 207l72 411h-14l35 197h208l-143 -815h-55l-6 172q-16 -108 -56.5 -145t-113.5 -37q-81 0 -116.5 34.5t-35.5 122.5q0 25 9 85.5t55.5 330.5t150.5 862q18 103 49 159
t73 75.5t110 19.5q97 0 145.5 -37.5t48.5 -119.5q0 -46 -100 -625h-195q101 573 101 576q0 12 -13 12q-14 0 -18 -23q-221 -1255 -221 -1267q0 -11 12 -11q14 0 18 23z" />
    <glyph glyph-name="gbreve" unicode="&#x11f;" 
d="M375 1599q65 0 76 35h104q-29 -129 -197 -129q-84 0 -120 30.5t-31 98.5h104q0 -35 64 -35zM326 137q-26 -144 -77 -197t-161 -53q-119 0 -161 52.5t-21 181.5l2 12h194l-4 -24q-5 -27 11 -27q13 0 18 27l47 272q-21 -117 -54 -162t-87 -45q-67 0 -82.5 51.5t10.5 208.5
l139 791q28 155 59 207.5t95 52.5q55 0 77.5 -48.5t0.5 -170.5l35 209h194zM317 1286q-13 0 -20 -43l-145 -827q-7 -43 8 -43q13 0 20 43l146 827q7 43 -9 43z" />
    <glyph glyph-name="Gdotaccent" unicode="&#x120;" horiz-adv-x="448" 
d="M420 1858q33 0 52.5 -18t19.5 -48q0 -34 -24 -62t-69 -28q-33 0 -52 17.5t-19 47.5q0 34 23.5 62.5t68.5 28.5zM145 207l72 411h-14l35 197h208l-143 -815h-55l-6 172q-16 -108 -56.5 -145t-113.5 -37q-81 0 -116.5 34.5t-35.5 122.5q0 25 9 85.5t55.5 330.5t150.5 862
q18 103 49 159t73 75.5t110 19.5q97 0 145.5 -37.5t48.5 -119.5q0 -46 -100 -625h-195q101 573 101 576q0 12 -13 12q-14 0 -18 -23q-221 -1255 -221 -1267q0 -11 12 -11q14 0 18 23z" />
    <glyph glyph-name="gdotaccent" unicode="&#x121;" 
d="M383 1663q33 0 52.5 -18t19.5 -48q0 -34 -24 -62t-69 -28q-32 0 -51.5 17.5t-19.5 48.5q0 34 23.5 62t68.5 28zM326 137q-26 -144 -77 -197t-161 -53q-119 0 -161 52.5t-21 181.5l2 12h194l-4 -24q-5 -27 11 -27q13 0 18 27l47 272q-21 -117 -54 -162t-87 -45
q-67 0 -82.5 51.5t10.5 208.5l139 791q28 155 59 207.5t95 52.5q55 0 77.5 -48.5t0.5 -170.5l35 209h194zM317 1286q-13 0 -20 -43l-145 -827q-7 -43 8 -43q13 0 20 43l146 827q7 43 -9 43z" />
    <glyph glyph-name="Gcommaaccent" unicode="&#x122;" horiz-adv-x="448" 
d="M145 207l72 411h-14l35 197h208l-143 -815h-55l-6 172q-16 -108 -56.5 -145t-113.5 -37q-81 0 -116.5 34.5t-35.5 122.5q0 25 9 85.5t55.5 330.5t150.5 862q18 103 49 159t73 75.5t110 19.5q97 0 145.5 -37.5t48.5 -119.5q0 -46 -100 -625h-195q101 573 101 576
q0 12 -13 12q-14 0 -18 -23q-221 -1255 -221 -1267q0 -11 12 -11q14 0 18 23zM61 -205h-92l62 60h-47l18 108h135l-18 -108z" />
    <glyph glyph-name="gcommaaccent" unicode="&#x123;" 
d="M360 1667h99l-58 -51h45l-18 -96h-141l18 96zM326 137q-26 -144 -77 -197t-161 -53q-119 0 -161 52.5t-21 181.5l2 12h194l-4 -24q-5 -27 11 -27q13 0 18 27l47 272q-21 -117 -54 -162t-87 -45q-67 0 -82.5 51.5t10.5 208.5l139 791q28 155 59 207.5t95 52.5
q55 0 77.5 -48.5t0.5 -170.5l35 209h194zM317 1286q-13 0 -20 -43l-145 -827q-7 -43 8 -43q13 0 20 43l146 827q7 43 -9 43z" />
    <glyph glyph-name="Hcircumflex" unicode="&#x124;" 
d="M430 1702l-27 59l-47 -59h-153l104 127h217l60 -127h-154zM109 0l137 786h-29l-137 -786h-195l293 1669h195l-121 -688h29l120 688h195l-293 -1669h-194z" />
    <glyph glyph-name="hcircumflex" unicode="&#x125;" 
d="M434 1702l-26 59l-48 -59h-153l104 127h217l60 -127h-154zM375 1669l-70 -391q21 117 54 162t87 45q67 0 83 -54.5t-11 -211.5l-215 -1219h-194l219 1243q7 43 -9 43q-13 0 -20 -43l-219 -1243h-195l295 1669h195z" />
    <glyph glyph-name="Hbar" unicode="&#x126;" 
d="M109 0l137 786h-29l-137 -786h-195l224 1278h-19l23 137h20l45 254h195l-45 -254h28l45 254h195l-45 -254h22l-22 -137h-25l-223 -1278h-194zM252 981h29l51 297h-29z" />
    <glyph glyph-name="hbar" unicode="&#x127;" 
d="M375 1669l-10 -53h77l-14 -80h-78l-45 -258q21 117 54 162t87 45q67 0 83 -54.5t-11 -211.5l-215 -1219h-194l219 1243q7 43 -9 43q-13 0 -20 -43l-219 -1243h-195l295 1669h195z" />
    <glyph glyph-name="Itilde" unicode="&#x128;" horiz-adv-x="223" 
d="M473 1829q-23 -129 -108 -129q-31 0 -66 11t-53 11q-22 0 -27 -20h-108q23 129 108 129q31 0 67 -10.5t54 -10.5q22 0 25 19h108zM-115 0l293 1669h195l-293 -1669h-195z" />
    <glyph glyph-name="itilde" unicode="&#x129;" horiz-adv-x="223" 
d="M438 1634q-23 -129 -108 -129q-30 0 -65 11.5t-54 11.5q-22 0 -27 -21h-108q23 129 108 129q31 0 66.5 -10t54.5 -10q22 0 25 18h108zM-115 0l258 1475h195l-258 -1475h-195z" />
    <glyph glyph-name="Imacron" unicode="&#x12a;" horiz-adv-x="223" 
d="M125 1710l20 111h316l-21 -111h-315zM-115 0l293 1669h195l-293 -1669h-195z" />
    <glyph glyph-name="imacron" unicode="&#x12b;" horiz-adv-x="223" 
d="M90 1516l21 110h315l-20 -110h-316zM-115 0l258 1475h195l-258 -1475h-195z" />
    <glyph glyph-name="Ibreve" unicode="&#x12c;" horiz-adv-x="223" 
d="M297 1794q65 0 76 35h104q-29 -129 -196 -129q-85 0 -121 30.5t-31 98.5h104q0 -35 64 -35zM-115 0l293 1669h195l-293 -1669h-195z" />
    <glyph glyph-name="ibreve" unicode="&#x12d;" horiz-adv-x="223" 
d="M262 1599q65 0 76 35h104q-29 -129 -196 -129q-85 0 -121 30.5t-31 98.5h105q0 -19 14.5 -27t48.5 -8zM-115 0l258 1475h195l-258 -1475h-195z" />
    <glyph glyph-name="Iogonek" unicode="&#x12e;" horiz-adv-x="223" 
d="M12 0q-55 -66 -55 -127q0 -20 20 -20q27 0 27 36v2h64v-2q0 -44 -29 -69t-86 -25q-94 0 -94 60q0 24 9.5 44.5t21 32.5t34.5 33.5t35 34.5h-74l293 1669h195l-293 -1669h-68z" />
    <glyph glyph-name="iogonek" unicode="&#x12f;" horiz-adv-x="223" 
d="M150 1503l28 166h195l-29 -166h-194zM12 0q-55 -66 -55 -127q0 -20 20 -20q27 0 27 36v2h64v-2q0 -44 -29 -69t-86 -25q-94 0 -94 60q0 24 9.5 44.5t21 32.5t34.5 33.5t35 34.5h-74l258 1475h195l-258 -1475h-68z" />
    <glyph glyph-name="Idotaccent" unicode="&#x130;" horiz-adv-x="223" 
d="M305 1858q33 0 52.5 -18t19.5 -48q0 -34 -23.5 -62t-68.5 -28q-33 0 -52.5 17.5t-19.5 47.5q0 34 23.5 62.5t68.5 28.5zM-115 0l293 1669h195l-293 -1669h-195z" />
    <glyph glyph-name="dotlessi" unicode="&#x131;" horiz-adv-x="223" 
d="M-115 0l258 1475h195l-258 -1475h-195z" />
    <glyph glyph-name="IJ" unicode="&#x132;" horiz-adv-x="485" 
d="M-115 0l293 1669h195l-293 -1669h-195zM102 0l37 217h17q29 0 34 33l250 1419h195l-256 -1450q-20 -116 -80.5 -167.5t-163.5 -51.5h-33z" />
    <glyph glyph-name="ij" unicode="&#x133;" horiz-adv-x="468" 
d="M150 1503l28 166h195l-29 -166h-194zM395 1503l29 166h194l-28 -166h-195zM-115 0l258 1475h195l-258 -1475h-195zM342 102q-22 -118 -74 -161t-168 -43h-16l27 155h6q11 0 17 5.5t9 21.5l246 1395h195z" />
    <glyph glyph-name="Jcircumflex" unicode="&#x134;" horiz-adv-x="262" 
d="M356 1702l-26 59l-47 -59h-154l104 127h218l59 -127h-154zM-121 0l37 217h16q30 0 35 33l250 1419h195l-256 -1450q-20 -116 -80.5 -167.5t-163.5 -51.5h-33z" />
    <glyph glyph-name="jcircumflex" unicode="&#x135;" horiz-adv-x="245" 
d="M305 1507l-26 60l-48 -60h-153l104 127h217l60 -127h-154zM119 102q-22 -118 -74 -161t-168 -43h-16l26 155h7q11 0 17 5.5t9 21.5l246 1395h194z" />
    <glyph glyph-name="Kcommaaccent" unicode="&#x136;" horiz-adv-x="454" 
d="M-115 0l293 1669h195l-127 -729l174 729h194l-204 -835l-88 -834h-195l84 741l-131 -741h-195zM86 -205h-92l61 60h-47l19 108h135l-19 -108z" />
    <glyph glyph-name="kcommaaccent" unicode="&#x137;" horiz-adv-x="462" 
d="M-115 0l293 1669h195l-133 -758l153 564h195l-209 -709l-51 -766h-193l45 578l-100 -578h-195zM92 -205h-92l61 60h-47l19 108h135l-18 -108z" />
    <glyph glyph-name="Lacute" unicode="&#x139;" horiz-adv-x="378" 
d="M350 1702h-141l43 127h211zM-115 0l293 1669h195l-260 -1474h161l-32 -195h-357z" />
    <glyph glyph-name="lacute" unicode="&#x13a;" horiz-adv-x="223" 
d="M350 1702h-141l43 127h211zM-115 0l293 1669h195l-293 -1669h-195z" />
    <glyph glyph-name="Lcommaaccent" unicode="&#x13b;" horiz-adv-x="378" 
d="M-115 0l293 1669h195l-260 -1474h161l-32 -195h-357zM53 -205h-92l62 60h-48l19 108h135l-18 -108z" />
    <glyph glyph-name="lcommaaccent" unicode="&#x13c;" horiz-adv-x="223" 
d="M-115 0l293 1669h195l-293 -1669h-195zM-33 -205h-92l62 60h-48l19 108h135l-18 -108z" />
    <glyph glyph-name="Lcaron" unicode="&#x13d;" horiz-adv-x="378" 
d="M-115 0l293 1669h195l-260 -1474h161l-32 -195h-357zM485 1505h-104l29 164h176z" />
    <glyph glyph-name="lcaron" unicode="&#x13e;" horiz-adv-x="223" 
d="M-115 0l293 1669h195l-293 -1669h-195zM477 1505h-104l28 164h177z" />
    <glyph glyph-name="Ldot" unicode="&#x13f;" horiz-adv-x="378" 
d="M-115 0l293 1669h195l-260 -1474h161l-32 -195h-357zM342 991q33 0 52.5 -17.5t19.5 -47.5q0 -34 -23.5 -62t-68.5 -28q-33 0 -52.5 17.5t-19.5 47.5q0 34 23.5 62t68.5 28z" />
    <glyph glyph-name="ldot" unicode="&#x140;" horiz-adv-x="223" 
d="M-115 0l293 1669h195l-293 -1669h-195zM319 883q33 0 52.5 -18t19.5 -48q0 -34 -23.5 -62t-68.5 -28q-33 0 -52.5 18t-19.5 48q0 34 23.5 62t68.5 28z" />
    <glyph glyph-name="Lslash" unicode="&#x141;" horiz-adv-x="378" 
d="M-115 0l293 1669h195l-121 -688l53 37l-24 -144l-56 -36l-112 -643h161l-32 -195h-357z" />
    <glyph glyph-name="lslash" unicode="&#x142;" horiz-adv-x="223" 
d="M-115 0l199 1130l-16 -12l16 101l16 12l78 438h195l-58 -323l21 16l-19 -100l-18 -15l-219 -1247h-195z" />
    <glyph glyph-name="Nacute" unicode="&#x143;" horiz-adv-x="448" 
d="M467 1702h-141l43 127h211zM141 0l70 872l-152 -872h-174l293 1669h164l-82 -930l164 930h174l-293 -1669h-164z" />
    <glyph glyph-name="nacute" unicode="&#x144;" 
d="M434 1507h-141l43 127h211zM340 1475l-35 -197q21 117 54 162t87 45q67 0 83 -54.5t-11 -211.5l-215 -1219h-194l219 1243q7 43 -9 43q-13 0 -20 -43l-219 -1243h-195l260 1475h195z" />
    <glyph glyph-name="Ncommaaccent" unicode="&#x145;" horiz-adv-x="448" 
d="M141 0l70 872l-152 -872h-174l293 1669h164l-82 -930l164 930h174l-293 -1669h-164zM84 -205h-92l61 60h-47l19 108h135l-19 -108z" />
    <glyph glyph-name="ncommaaccent" unicode="&#x146;" 
d="M340 1475l-35 -197q21 117 54 162t87 45q67 0 83 -54.5t-11 -211.5l-215 -1219h-194l219 1243q7 43 -9 43q-13 0 -20 -43l-219 -1243h-195l260 1475h195zM86 -205h-92l61 60h-47l19 108h135l-19 -108z" />
    <glyph glyph-name="Ncaron" unicode="&#x147;" horiz-adv-x="448" 
d="M457 1829h153l-104 -127h-217l-60 127h154l27 -60zM141 0l70 872l-152 -872h-174l293 1669h164l-82 -930l164 930h174l-293 -1669h-164z" />
    <glyph glyph-name="ncaron" unicode="&#x148;" 
d="M424 1634h154l-105 -127h-217l-59 127h153l27 -59zM340 1475l-35 -197q21 117 54 162t87 45q67 0 83 -54.5t-11 -211.5l-215 -1219h-194l219 1243q7 43 -9 43q-13 0 -20 -43l-219 -1243h-195l260 1475h195z" />
    <glyph glyph-name="Eng" unicode="&#x14a;" horiz-adv-x="448" 
d="M324 115q-20 -116 -68 -166.5t-139 -50.5h-43l26 157h11q37 0 51 78l6 33l47 731l-156 -897h-174l293 1669h164l-57 -795l139 795h174z" />
    <glyph glyph-name="eng" unicode="&#x14b;" 
d="M322 102q-22 -119 -66 -161.5t-145 -42.5h-33l26 155h5q9 0 14 27l205 1163q7 43 -9 43q-13 0 -20 -43l-219 -1243h-195l260 1475h195l-35 -197q21 117 54 162t87 45q67 0 83 -54.5t-11 -211.5z" />
    <glyph glyph-name="Omacron" unicode="&#x14c;" 
d="M238 1710l20 111h315l-20 -111h-315zM115 -10q-97 0 -146 37.5t-49 119.5q0 25 9 85.5t55.5 330.5t150.5 862q18 103 49 159t73 75.5t110 19.5q97 0 145.5 -37.5t48.5 -119.5q0 -25 -9 -85.5t-55.5 -330.5t-150.5 -862q-18 -103 -48.5 -159t-72.5 -75.5t-110 -19.5z
M127 184q14 0 18 23q222 1261 222 1266q0 12 -13 12q-14 0 -18 -23q-221 -1255 -221 -1265q0 -13 12 -13z" />
    <glyph glyph-name="omacron" unicode="&#x14d;" 
d="M203 1516l20 110h316l-21 -110h-315zM115 -10q-97 0 -146 37.5t-49 119.5q0 21 7 70.5t47.5 286t127.5 727.5q18 105 49 161t72.5 74.5t110.5 18.5q96 0 145 -37.5t49 -120.5q0 -21 -7 -71t-47.5 -284.5t-127.5 -727.5q-18 -105 -49 -161t-72 -74.5t-110 -18.5zM129 184
q12 0 16 23q187 1064 187 1071q0 12 -13 12q-12 0 -16 -22q-186 -1058 -186 -1071t12 -13z" />
    <glyph glyph-name="Obreve" unicode="&#x14e;" 
d="M410 1794q64 0 75 35h105q-29 -129 -197 -129q-84 0 -120 30.5t-31 98.5h104q0 -35 64 -35zM115 -10q-97 0 -146 37.5t-49 119.5q0 25 9 85.5t55.5 330.5t150.5 862q18 103 49 159t73 75.5t110 19.5q97 0 145.5 -37.5t48.5 -119.5q0 -25 -9 -85.5t-55.5 -330.5
t-150.5 -862q-18 -103 -48.5 -159t-72.5 -75.5t-110 -19.5zM127 184q14 0 18 23q222 1261 222 1266q0 12 -13 12q-14 0 -18 -23q-221 -1255 -221 -1265q0 -13 12 -13z" />
    <glyph glyph-name="obreve" unicode="&#x14f;" 
d="M375 1599q65 0 76 35h104q-29 -129 -197 -129q-84 0 -120 30.5t-31 98.5h104q0 -35 64 -35zM115 -10q-97 0 -146 37.5t-49 119.5q0 21 7 70.5t47.5 286t127.5 727.5q18 105 49 161t72.5 74.5t110.5 18.5q96 0 145 -37.5t49 -120.5q0 -21 -7 -71t-47.5 -284.5
t-127.5 -727.5q-18 -105 -49 -161t-72 -74.5t-110 -18.5zM129 184q12 0 16 23q187 1064 187 1071q0 12 -13 12q-12 0 -16 -22q-186 -1058 -186 -1071t12 -13z" />
    <glyph glyph-name="Ohungarumlaut" unicode="&#x150;" 
d="M369 1702h-72l31 127h112zM492 1702h-72l33 127h112zM115 -10q-97 0 -146 37.5t-49 119.5q0 25 9 85.5t55.5 330.5t150.5 862q18 103 49 159t73 75.5t110 19.5q97 0 145.5 -37.5t48.5 -119.5q0 -25 -9 -85.5t-55.5 -330.5t-150.5 -862q-18 -103 -48.5 -159t-72.5 -75.5
t-110 -19.5zM127 184q14 0 18 23q222 1261 222 1266q0 12 -13 12q-14 0 -18 -23q-221 -1255 -221 -1265q0 -13 12 -13z" />
    <glyph glyph-name="ohungarumlaut" unicode="&#x151;" 
d="M334 1507h-72l31 127h113zM457 1507h-72l33 127h112zM115 -10q-97 0 -146 37.5t-49 119.5q0 21 7 70.5t47.5 286t127.5 727.5q18 105 49 161t72.5 74.5t110.5 18.5q96 0 145 -37.5t49 -120.5q0 -21 -7 -71t-47.5 -284.5t-127.5 -727.5q-18 -105 -49 -161t-72 -74.5
t-110 -18.5zM129 184q12 0 16 23q187 1064 187 1071q0 12 -13 12q-12 0 -16 -22q-186 -1058 -186 -1071t12 -13z" />
    <glyph glyph-name="OE" unicode="&#x152;" horiz-adv-x="583" 
d="M127 0q-106 0 -156.5 39t-50.5 119q0 17 3.5 44t24 151t63 366t122.5 696q28 156 76 205t170 49h358l-35 -194h-141l-88 -500h143l-32 -195h-144l-104 -585h141l-33 -195h-317zM131 195h10l226 1280h-11q-19 0 -24 -31q-215 -1219 -215 -1231q0 -18 14 -18z" />
    <glyph glyph-name="oe" unicode="&#x153;" horiz-adv-x="669" 
d="M569 244q-18 -105 -49 -161t-72 -74.5t-110 -18.5q-65 0 -109 26q-48 -26 -114 -26q-97 0 -146 37.5t-49 119.5q0 21 7 70.5t47.5 286t127.5 727.5q18 105 49 161t72.5 74.5t110.5 18.5q63 0 108 -31q42 31 121 31q189 0 189 -158q0 -46 -109 -657h-221
q-82 -466 -82 -473q0 -13 12 -13q13 0 17 23q34 185 67 385h195q-37 -203 -62 -348zM129 184q12 0 16 23q187 1064 187 1071q0 12 -13 12q-12 0 -16 -22q-186 -1058 -186 -1071t12 -13zM555 1278q0 12 -12 12q-13 0 -17 -22q-22 -129 -71 -404h28q72 408 72 414z" />
    <glyph glyph-name="Racute" unicode="&#x154;" horiz-adv-x="450" 
d="M457 1702h-142l43 127h211zM135 0l80 727h-8l-127 -727h-195l293 1669h178q109 0 158 -40t49 -134q0 -39 -80 -496q-26 -159 -86 -219l-80 -780h-182zM350 1475h-10l-98 -551h12q13 0 18.5 9t10.5 36q84 477 84 485q0 21 -17 21z" />
    <glyph glyph-name="racute" unicode="&#x155;" horiz-adv-x="348" 
d="M393 1507h-141l43 127h211zM287 1184q31 175 65.5 238t91.5 63q15 0 27 -2l-41 -238q-124 37 -147 -84l-203 -1161h-195l258 1475h195z" />
    <glyph glyph-name="Rcommaaccent" unicode="&#x156;" horiz-adv-x="450" 
d="M135 0l80 727h-8l-127 -727h-195l293 1669h178q109 0 158 -40t49 -134q0 -39 -80 -496q-26 -159 -86 -219l-80 -780h-182zM350 1475h-10l-98 -551h12q13 0 18.5 9t10.5 36q84 477 84 485q0 21 -17 21zM100 -205h-92l62 60h-47l18 108h135l-18 -108z" />
    <glyph glyph-name="rcommaaccent" unicode="&#x157;" horiz-adv-x="348" 
d="M287 1184q31 175 65.5 238t91.5 63q15 0 27 -2l-41 -238q-124 37 -147 -84l-203 -1161h-195l258 1475h195zM-29 -205h-92l62 60h-47l18 108h135l-18 -108z" />
    <glyph glyph-name="Rcaron" unicode="&#x158;" horiz-adv-x="450" 
d="M446 1829h154l-104 -127h-217l-60 127h154l26 -60zM135 0l80 727h-8l-127 -727h-195l293 1669h178q109 0 158 -40t49 -134q0 -39 -80 -496q-26 -159 -86 -219l-80 -780h-182zM350 1475h-10l-98 -551h12q13 0 18.5 9t10.5 36q84 477 84 485q0 21 -17 21z" />
    <glyph glyph-name="rcaron" unicode="&#x159;" horiz-adv-x="348" 
d="M383 1634h154l-105 -127h-217l-59 127h153l27 -59zM287 1184q31 175 65.5 238t91.5 63q15 0 27 -2l-41 -238q-124 37 -147 -84l-203 -1161h-195l258 1475h195z" />
    <glyph glyph-name="Sacute" unicode="&#x15a;" horiz-adv-x="444" 
d="M463 1702h-141l43 127h210zM61 965q0 42 74 460q18 104 49 160t72.5 75t110.5 19q98 0 146 -38t48 -130q0 -42 -80 -495h-194q78 442 78 454q0 15 -11 15q-14 0 -18 -23q-76 -429 -76 -450q0 -20 15 -43.5t67 -85.5q47 -58 64.5 -90.5t17.5 -75.5q0 -31 -78 -473
q-18 -104 -48.5 -160t-72 -75t-110.5 -19q-98 0 -146.5 38.5t-48.5 131.5q0 46 80 499h195q-80 -453 -80 -462q0 -13 10 -13q14 0 18 23q80 455 80 471q0 19 -14 41.5t-59 77.5q-54 65 -71.5 96.5t-17.5 71.5z" />
    <glyph glyph-name="sacute" unicode="&#x15b;" 
d="M428 1507h-141l43 127h211zM115 197q0 -13 10 -13q14 0 18 23q66 367 66 379q0 25 -15 49.5t-61 77.5q-50 58 -68 90.5t-18 79.5q0 30 55 348q18 105 49 161t72.5 74.5t110.5 18.5q96 0 145 -37.5t49 -120.5q0 -33 -61 -397h-195q60 340 60 348q0 12 -10 12
q-15 0 -19 -22q-59 -330 -59 -348q0 -25 14 -46.5t61 -76.5q52 -60 70.5 -92.5t18.5 -79.5q0 -24 -62 -381q-18 -105 -49 -161t-72 -74.5t-110 -18.5q-98 0 -146.5 38t-48.5 130q0 36 66 407h194q-65 -357 -65 -368z" />
    <glyph glyph-name="Scircumflex" unicode="&#x15c;" horiz-adv-x="444" 
d="M430 1702l-27 59l-47 -59h-153l104 127h217l60 -127h-154zM61 965q0 42 74 460q18 104 49 160t72.5 75t110.5 19q98 0 146 -38t48 -130q0 -42 -80 -495h-194q78 442 78 454q0 15 -11 15q-14 0 -18 -23q-76 -429 -76 -450q0 -20 15 -43.5t67 -85.5q47 -58 64.5 -90.5
t17.5 -75.5q0 -31 -78 -473q-18 -104 -48.5 -160t-72 -75t-110.5 -19q-98 0 -146.5 38.5t-48.5 131.5q0 46 80 499h195q-80 -453 -80 -462q0 -13 10 -13q14 0 18 23q80 455 80 471q0 19 -14 41.5t-59 77.5q-54 65 -71.5 96.5t-17.5 71.5z" />
    <glyph glyph-name="scircumflex" unicode="&#x15d;" 
d="M395 1507l-26 60l-47 -60h-154l104 127h217l60 -127h-154zM115 197q0 -13 10 -13q14 0 18 23q66 367 66 379q0 25 -15 49.5t-61 77.5q-50 58 -68 90.5t-18 79.5q0 30 55 348q18 105 49 161t72.5 74.5t110.5 18.5q96 0 145 -37.5t49 -120.5q0 -33 -61 -397h-195
q60 340 60 348q0 12 -10 12q-15 0 -19 -22q-59 -330 -59 -348q0 -25 14 -46.5t61 -76.5q52 -60 70.5 -92.5t18.5 -79.5q0 -24 -62 -381q-18 -105 -49 -161t-72 -74.5t-110 -18.5q-98 0 -146.5 38t-48.5 130q0 36 66 407h194q-65 -357 -65 -368z" />
    <glyph glyph-name="Scedilla" unicode="&#x15e;" horiz-adv-x="444" 
d="M70 -205q-90 0 -90 55q0 13 4 25h71q-2 -4 -2 -8q0 -14 21 -14q30 0 30 41q0 16 -18 16q-19 0 -27 -14h-51l68 96q-78 6 -117 45.5t-39 122.5q0 46 80 499h195q-80 -453 -80 -462q0 -13 10 -13q14 0 18 23q80 455 80 471q0 19 -14 41.5t-59 77.5q-54 65 -71.5 96.5
t-17.5 71.5q0 42 74 460q18 104 49 160t72.5 75t110.5 19q98 0 146 -38t48 -130q0 -42 -80 -495h-194q78 442 78 454q0 15 -11 15q-14 0 -18 -23q-76 -429 -76 -450q0 -20 15 -43.5t67 -85.5q47 -58 64.5 -90.5t17.5 -75.5q0 -31 -78 -473q-17 -101 -46.5 -156.5t-69.5 -76
t-105 -21.5l-64 -90q27 34 44.5 45.5t41.5 11.5t35 -9.5t11 -33.5q0 -55 -26 -87t-97 -32z" />
    <glyph glyph-name="scedilla" unicode="&#x15f;" 
d="M59 -205q-90 0 -90 55q0 13 4 25h72q-2 -4 -2 -8q0 -14 20 -14q31 0 31 41q0 16 -18 16q-19 0 -27 -14h-51l68 96q-73 8 -109.5 47t-36.5 119q0 36 66 407h194q-65 -357 -65 -368q0 -13 10 -13q14 0 18 23q66 367 66 379q0 25 -15 49.5t-61 77.5q-50 58 -68 90.5
t-18 79.5q0 30 55 348q18 105 49 161t72.5 74.5t110.5 18.5q96 0 145 -37.5t49 -120.5q0 -33 -61 -397h-195q60 340 60 348q0 12 -10 12q-15 0 -19 -22q-59 -330 -59 -348q0 -25 14 -46.5t61 -76.5q52 -60 70.5 -92.5t18.5 -79.5q0 -24 -62 -381q-18 -105 -49 -161
t-72 -74.5t-110 -18.5l-64 -90q27 34 44.5 45.5t41.5 11.5t34.5 -9.5t10.5 -33.5q0 -55 -26 -87t-97 -32z" />
    <glyph glyph-name="Scaron" unicode="&#x160;" horiz-adv-x="444" 
d="M453 1829h153l-104 -127h-217l-60 127h154l27 -60zM61 965q0 42 74 460q18 104 49 160t72.5 75t110.5 19q98 0 146 -38t48 -130q0 -42 -80 -495h-194q78 442 78 454q0 15 -11 15q-14 0 -18 -23q-76 -429 -76 -450q0 -20 15 -43.5t67 -85.5q47 -58 64.5 -90.5t17.5 -75.5
q0 -31 -78 -473q-18 -104 -48.5 -160t-72 -75t-110.5 -19q-98 0 -146.5 38.5t-48.5 131.5q0 46 80 499h195q-80 -453 -80 -462q0 -13 10 -13q14 0 18 23q80 455 80 471q0 19 -14 41.5t-59 77.5q-54 65 -71.5 96.5t-17.5 71.5z" />
    <glyph glyph-name="scaron" unicode="&#x161;" 
d="M418 1634h153l-104 -127h-217l-60 127h154l27 -59zM115 197q0 -13 10 -13q14 0 18 23q66 367 66 379q0 25 -15 49.5t-61 77.5q-50 58 -68 90.5t-18 79.5q0 30 55 348q18 105 49 161t72.5 74.5t110.5 18.5q96 0 145 -37.5t49 -120.5q0 -33 -61 -397h-195q60 340 60 348
q0 12 -10 12q-15 0 -19 -22q-59 -330 -59 -348q0 -25 14 -46.5t61 -76.5q52 -60 70.5 -92.5t18.5 -79.5q0 -24 -62 -381q-18 -105 -49 -161t-72 -74.5t-110 -18.5q-98 0 -146.5 38t-48.5 130q0 36 66 407h194q-65 -357 -65 -368z" />
    <glyph glyph-name="Tcaron" unicode="&#x164;" horiz-adv-x="440" 
d="M451 1829h153l-104 -127h-217l-60 127h154l26 -60zM559 1475h-113l-258 -1475h-194l258 1475h-113l35 194h420z" />
    <glyph glyph-name="tcaron" unicode="&#x165;" horiz-adv-x="276" 
d="M498 1507h-105l29 164h176zM100 0h-194l231 1319h-26l26 156h29l29 167h194l-29 -167h37l-26 -156h-39z" />
    <glyph glyph-name="Tbar" unicode="&#x166;" horiz-adv-x="440" 
d="M410 829h-76l-146 -829h-194l145 829h-73l24 138h74l88 508h-113l35 194h420l-35 -194h-113l-88 -508h76z" />
    <glyph glyph-name="tbar" unicode="&#x167;" horiz-adv-x="276" 
d="M100 0h-194l162 915h-21l14 80h19l57 324h-26l26 156h29l29 167h194l-29 -167h37l-26 -156h-39l-58 -324h29l-14 -80h-27z" />
    <glyph glyph-name="Utilde" unicode="&#x168;" 
d="M586 1829q-23 -129 -109 -129q-31 0 -66 11t-53 11q-21 0 -26 -20h-109q23 129 109 129q30 0 66 -10.5t55 -10.5q21 0 24 19h109zM373 1669l-258 -1462q-4 -23 10 -23t18 23l258 1462h195l-250 -1425q-18 -105 -49 -161t-72 -74.5t-110 -18.5q-118 0 -165 57t-22 197
l250 1425h195z" />
    <glyph glyph-name="utilde" unicode="&#x169;" 
d="M549 1634q-23 -129 -109 -129q-30 0 -65 11.5t-53 11.5q-22 0 -27 -21h-109q23 129 109 129q31 0 67 -10t54 -10q12 0 17.5 4t6.5 14h109zM106 0l35 197q-21 -117 -54 -162t-87 -45q-67 0 -83 54.5t11 211.5l215 1219h195l-219 -1244q-7 -43 8 -43q13 0 20 43l220 1244
h194l-260 -1475h-195z" />
    <glyph glyph-name="Umacron" unicode="&#x16a;" 
d="M238 1710l20 111h315l-20 -111h-315zM373 1669l-258 -1462q-4 -23 10 -23t18 23l258 1462h195l-250 -1425q-18 -105 -49 -161t-72 -74.5t-110 -18.5q-118 0 -165 57t-22 197l250 1425h195z" />
    <glyph glyph-name="umacron" unicode="&#x16b;" 
d="M201 1516l20 110h316l-21 -110h-315zM106 0l35 197q-21 -117 -54 -162t-87 -45q-67 0 -83 54.5t11 211.5l215 1219h195l-219 -1244q-7 -43 8 -43q13 0 20 43l220 1244h194l-260 -1475h-195z" />
    <glyph glyph-name="Ubreve" unicode="&#x16c;" 
d="M410 1794q64 0 75 35h105q-29 -129 -197 -129q-84 0 -120 30.5t-31 98.5h104q0 -35 64 -35zM373 1669l-258 -1462q-4 -23 10 -23t18 23l258 1462h195l-250 -1425q-18 -105 -49 -161t-72 -74.5t-110 -18.5q-118 0 -165 57t-22 197l250 1425h195z" />
    <glyph glyph-name="ubreve" unicode="&#x16d;" 
d="M373 1599q65 0 76 35h104q-29 -129 -197 -129q-84 0 -120 30.5t-31 98.5h104q0 -35 64 -35zM106 0l35 197q-21 -117 -54 -162t-87 -45q-67 0 -83 54.5t11 211.5l215 1219h195l-219 -1244q-7 -43 8 -43q13 0 20 43l220 1244h194l-260 -1475h-195z" />
    <glyph glyph-name="Uring" unicode="&#x16e;" 
d="M346 244q-18 -105 -49 -161t-72 -74.5t-110 -18.5q-118 0 -165 57t-22 197l250 1425h141q-18 21 -18 51q0 46 28 78.5t79 32.5q40 0 65 -22.5t25 -59.5q0 -48 -29 -80h127zM393 1679q30 0 47 19t17 47q0 21 -13.5 33t-37.5 12q-30 0 -47 -19t-17 -47q0 -21 13.5 -33
t37.5 -12zM391 1638q-16 0 -22 2l-254 -1433q-4 -23 10 -23t18 23l252 1431h-4z" />
    <glyph glyph-name="uring" unicode="&#x16f;" 
d="M106 0l35 197q-21 -117 -54 -162t-87 -45q-67 0 -83 54.5t11 211.5l215 1219h140q-19 22 -19 51q0 46 28 78t79 32q40 0 65 -22.5t25 -59.5q0 -47 -29 -79h129l-260 -1475h-195zM356 1485q30 0 47 19t17 46q0 21 -13.5 33t-37.5 12q-30 0 -47 -19t-17 -46q0 -21 13.5 -33
t37.5 -12zM354 1444q-14 0 -20 2l-215 -1215q-7 -43 8 -43q13 0 20 43l213 1213h-6z" />
    <glyph glyph-name="Uhungarumlaut" unicode="&#x170;" 
d="M369 1702h-72l31 127h112zM492 1702h-72l33 127h112zM373 1669l-258 -1462q-4 -23 10 -23t18 23l258 1462h195l-250 -1425q-18 -105 -49 -161t-72 -74.5t-110 -18.5q-118 0 -165 57t-22 197l250 1425h195z" />
    <glyph glyph-name="uhungarumlaut" unicode="&#x171;" 
d="M332 1507h-72l31 127h112zM455 1507h-72l33 127h112zM106 0l35 197q-21 -117 -54 -162t-87 -45q-67 0 -83 54.5t11 211.5l215 1219h195l-219 -1244q-7 -43 8 -43q13 0 20 43l220 1244h194l-260 -1475h-195z" />
    <glyph glyph-name="Uogonek" unicode="&#x172;" 
d="M373 1669l-258 -1462q-4 -23 10 -23t18 23l258 1462h195l-250 -1425q-25 -147 -73.5 -199t-143.5 -55q-47 -61 -47 -117q0 -20 20 -20q27 0 27 36v2h64v-2q0 -44 -29 -69t-86 -25q-94 0 -94 60q0 31 11 51.5t42.5 49.5t38.5 36q-96 8 -133.5 66t-14.5 186l250 1425h195z
" />
    <glyph glyph-name="uogonek" unicode="&#x173;" 
d="M106 0l35 197q-21 -117 -54 -162t-87 -45q-67 0 -83 54.5t11 211.5l215 1219h195l-219 -1244q-7 -43 8 -43q13 0 20 43l220 1244h194l-260 -1475h-74q-55 -66 -55 -127q0 -20 21 -20q26 0 26 36v2h64v-2q0 -44 -29 -69t-86 -25q-94 0 -94 60q0 24 9.5 44.5t21 32.5
t34.5 33.5t35 34.5h-68z" />
    <glyph glyph-name="Wcircumflex" unicode="&#x174;" horiz-adv-x="632" 
d="M524 1702l-26 59l-47 -59h-154l104 127h217l60 -127h-154zM-78 0l246 1669h182l-190 -1100l235 1100h170l-153 -1102l200 1102h181l-336 -1669h-240l141 977l-200 -977h-236z" />
    <glyph glyph-name="wcircumflex" unicode="&#x175;" horiz-adv-x="653" 
d="M498 1507l-27 60l-47 -60h-154l105 127h217l59 -127h-153zM-76 0l211 1475h182l-167 -990l221 990h168l-119 -961l176 961h180l-303 -1475h-242l123 883l-192 -883h-238z" />
    <glyph glyph-name="Ycircumflex" unicode="&#x176;" horiz-adv-x="423" 
d="M420 1702l-27 59l-47 -59h-153l104 127h217l59 -127h-153zM82 557l96 1112h172l-90 -647h6l135 647h172l-297 -1112l-96 -557h-194z" />
    <glyph glyph-name="ycircumflex" unicode="&#x177;" horiz-adv-x="450" 
d="M397 1507l-26 60l-47 -60h-154l104 127h218l59 -127h-154zM266 240q-26 -107 -54.5 -173.5t-69 -104t-86.5 -51t-115 -13.5l32 186h37q29 0 41 37l12 43h-75l155 1311h193l-176 -1084h4l207 1084h194z" />
    <glyph glyph-name="Ydieresis" unicode="&#x178;" horiz-adv-x="423" 
d="M238 1708l24 141h127l-24 -141h-127zM532 1708h-126l24 141h127zM82 557l96 1112h172l-90 -647h6l135 647h172l-297 -1112l-96 -557h-194z" />
    <glyph glyph-name="Zacute" unicode="&#x179;" horiz-adv-x="329" 
d="M414 1702h-142l43 127h211zM-115 0l21 117l350 1358h-104l34 194h293l-20 -117l-350 -1357h110l-33 -195h-301z" />
    <glyph glyph-name="zacute" unicode="&#x17a;" horiz-adv-x="319" 
d="M367 1507h-142l43 127h211zM-115 0l21 117l311 1163h-100l33 195h284l-18 -115l-314 -1165h107l-33 -195h-291z" />
    <glyph glyph-name="Zdotaccent" unicode="&#x17b;" horiz-adv-x="329" 
d="M369 1858q32 0 51.5 -17.5t19.5 -48.5q0 -34 -23.5 -62t-68.5 -28q-33 0 -52.5 17.5t-19.5 47.5q0 34 24 62.5t69 28.5zM-115 0l21 117l350 1358h-104l34 194h293l-20 -117l-350 -1357h110l-33 -195h-301z" />
    <glyph glyph-name="zdotaccent" unicode="&#x17c;" horiz-adv-x="319" 
d="M322 1663q32 0 51.5 -17.5t19.5 -48.5q0 -34 -23.5 -62t-68.5 -28q-33 0 -52.5 18t-19.5 48q0 34 24 62t69 28zM-115 0l21 117l311 1163h-100l33 195h284l-18 -115l-314 -1165h107l-33 -195h-291z" />
    <glyph glyph-name="Zcaron" unicode="&#x17d;" horiz-adv-x="329" 
d="M403 1829h154l-104 -127h-217l-60 127h154l26 -60zM-115 0l21 117l350 1358h-104l34 194h293l-20 -117l-350 -1357h110l-33 -195h-301z" />
    <glyph glyph-name="zcaron" unicode="&#x17e;" horiz-adv-x="319" 
d="M356 1634h154l-104 -127h-218l-59 127h154l26 -59zM-115 0l21 117l311 1163h-100l33 195h284l-18 -115l-314 -1165h107l-33 -195h-291z" />
    <glyph glyph-name="Schwa" unicode="&#x18f;" 
d="M346 244q-18 -103 -48.5 -159t-72.5 -75.5t-110 -19.5q-97 0 -146 37.5t-49 119.5q0 59 117 721h225q105 602 105 605q0 12 -13 12q-14 0 -18 -23q-19 -104 -48.5 -273t-41.5 -239h-195q14 79 44 249.5t40 225.5q18 103 49 159t73 75.5t110 19.5q97 0 145.5 -37.5
t48.5 -119.5q0 -25 -9 -85.5t-55.5 -330.5t-150.5 -862zM115 197q0 -13 12 -13q14 0 18 23q22 119 82 467h-28q-84 -473 -84 -477z" />
    <glyph glyph-name="florin" unicode="&#x192;" horiz-adv-x="448" 
d="M360 778h-133l-153 -880h-195l156 880h-25l21 119h24l92 528q28 152 76 203t162 51q91 0 135.5 -35.5t44.5 -111.5q0 -31 -13 -112t-69 -400h-182q78 442 78 453q0 12 -12 12q-14 0 -19 -23l-98 -565h131z" />
    <glyph glyph-name="Aringacute" unicode="&#x1fa;" horiz-adv-x="399" 
d="M463 1864h-141l43 127h210zM86 0l82 483h-25l-86 -483h-182l340 1669h82q-18 21 -18 51q0 46 27.5 78.5t78.5 32.5q40 0 65 -22.5t25 -59.5q0 -48 -29 -80h68l-248 -1669h-180zM371 1679q29 0 46 19t17 47q0 21 -13.5 33t-37.5 12q-30 0 -47 -19t-17 -47q0 -21 14 -33
t38 -12zM336 1552l-156 -872h23l149 872h-16z" />
    <glyph glyph-name="aringacute" unicode="&#x1fb;" 
d="M451 1671h-142l43 127h211zM109 0l32 197q-21 -117 -54 -162t-87 -45q-48 0 -69 23t-21 83q0 22 9 82t49.5 294.5t131.5 752.5q28 156 58.5 208t95.5 52q17 0 25 -2q-13 19 -13 43q0 46 28 78t79 32q40 0 65 -22.5t25 -59.5q0 -47 -29 -79h127l-258 -1475h-194zM358 1485
q30 0 47 19t17 46q0 21 -13.5 33t-37.5 12q-30 0 -47 -19t-17 -46q0 -21 13.5 -33t37.5 -12zM356 1444q-12 0 -32 4q30 -52 8 -182l30 178h-6zM317 1286q-13 0 -20 -43q-182 -1033 -182 -1042q0 -13 12 -13q13 0 20 43q183 1039 183 1043q0 12 -13 12z" />
    <glyph glyph-name="AEacute" unicode="&#x1fc;" horiz-adv-x="575" 
d="M565 1702h-141l43 127h211zM100 0l86 492h-22l-90 -492h-195l336 1669h514l-35 -194h-141l-88 -500h143l-33 -195h-143l-104 -585h141l-33 -195h-336zM346 1475l-145 -789h20l137 789h-12z" />
    <glyph glyph-name="aeacute" unicode="&#x1fd;" horiz-adv-x="667" 
d="M539 1507h-142l43 127h211zM561 1475l-35 -189q23 119 52.5 159t78.5 40t72 -27t23 -90q0 -51 -111 -698h-221q-82 -466 -82 -473q0 -13 12 -13q13 0 17 23q43 240 67 385h195q-24 -146 -64 -365q-25 -142 -55.5 -189.5t-87.5 -47.5q-59 0 -80 49t-6 160l-33 -199h-194
l32 197q-21 -117 -54 -162t-87 -45q-48 0 -69 23t-21 83q0 22 9 82t49.5 294.5t131.5 752.5q28 156 58.5 208t95.5 52q55 0 76.5 -48t1.5 -171l35 209h194zM524 1268q-22 -129 -71 -404h28q72 408 72 414q0 12 -12 12q-13 0 -17 -22zM317 1286q-13 0 -20 -43
q-182 -1033 -182 -1042q0 -13 12 -13q13 0 20 43q183 1039 183 1043q0 12 -13 12z" />
    <glyph glyph-name="Oslashacute" unicode="&#x1fe;" 
d="M463 1702h-141l43 127h210zM-115 0l39 100q-4 28 -4 47q0 25 9 85.5t55.5 330.5t150.5 862q18 103 49 159t73 75.5t110 19.5q134 0 176 -73l26 63h27l-41 -100q6 -21 6 -47q0 -25 -9 -85.5t-55.5 -330.5t-150.5 -862q-18 -103 -48.5 -159t-72.5 -75.5t-110 -19.5
q-137 0 -176 76l-27 -66h-27zM336 1462q-60 -343 -98 -557l84 307q45 254 45 261q0 12 -13 12q-14 0 -18 -23zM127 184q14 0 18 23q30 172 73.5 417t57.5 328l-88 -329q-73 -412 -73 -426q0 -13 12 -13z" />
    <glyph glyph-name="oslashacute" unicode="&#x1ff;" 
d="M428 1507h-141l43 127h211zM-115 0l39 100q-4 28 -4 47q0 21 7 70.5t47.5 286t127.5 727.5q18 105 49 161t72.5 74.5t110.5 18.5q133 0 174 -72l27 62h26l-39 -97q6 -21 6 -51q0 -21 -7 -71t-47.5 -284.5t-127.5 -727.5q-18 -105 -49 -161t-72 -74.5t-110 -18.5
q-134 0 -176 73l-27 -63h-27zM303 1268q-39 -224 -84 -473l76 258q37 211 37 225q0 12 -13 12q-12 0 -16 -22zM129 184q12 0 16 23q96 539 109 610l-80 -276q-57 -326 -57 -344q0 -13 12 -13z" />
    <glyph glyph-name="Scommaaccent" unicode="&#x218;" horiz-adv-x="444" 
d="M61 965q0 42 74 460q18 104 49 160t72.5 75t110.5 19q98 0 146 -38t48 -130q0 -42 -80 -495h-194q78 442 78 454q0 15 -11 15q-14 0 -18 -23q-76 -429 -76 -450q0 -20 15 -43.5t67 -85.5q47 -58 64.5 -90.5t17.5 -75.5q0 -31 -78 -473q-18 -104 -48.5 -160t-72 -75
t-110.5 -19q-98 0 -146.5 38.5t-48.5 131.5q0 46 80 499h195q-80 -453 -80 -462q0 -13 10 -13q14 0 18 23q80 455 80 471q0 19 -14 41.5t-59 77.5q-54 65 -71.5 96.5t-17.5 71.5zM90 -205h-92l61 60h-47l19 108h135l-19 -108z" />
    <glyph glyph-name="scommaaccent" unicode="&#x219;" 
d="M115 197q0 -13 10 -13q14 0 18 23q66 367 66 379q0 25 -15 49.5t-61 77.5q-50 58 -68 90.5t-18 79.5q0 30 55 348q18 105 49 161t72.5 74.5t110.5 18.5q96 0 145 -37.5t49 -120.5q0 -33 -61 -397h-195q60 340 60 348q0 12 -10 12q-15 0 -19 -22q-59 -330 -59 -348
q0 -25 14 -46.5t61 -76.5q52 -60 70.5 -92.5t18.5 -79.5q0 -24 -62 -381q-18 -105 -49 -161t-72 -74.5t-110 -18.5q-98 0 -146.5 38t-48.5 130q0 36 66 407h194q-65 -357 -65 -368zM80 -205h-92l61 60h-47l18 108h136l-19 -108z" />
    <glyph glyph-name="Tcommaaccent" unicode="&#x21a;" horiz-adv-x="440" 
d="M559 1475h-113l-258 -1475h-194l258 1475h-113l35 194h420zM76 -205h-92l61 60h-47l18 108h136l-19 -108z" />
    <glyph glyph-name="tcommaaccent" unicode="&#x21b;" horiz-adv-x="276" 
d="M100 0h-194l231 1319h-26l26 156h29l29 167h194l-29 -167h37l-26 -156h-39zM0 -205h-92l61 60h-47l19 108h135l-19 -108z" />
    <glyph glyph-name="dotlessj" unicode="&#x237;" horiz-adv-x="245" 
d="M119 102q-22 -118 -74 -161t-168 -43h-16l26 155h7q11 0 17 5.5t9 21.5l246 1395h194z" />
    <glyph glyph-name="schwa" unicode="&#x259;" 
d="M-80 147q0 47 109 658h221q82 466 82 473q0 12 -13 12q-12 0 -16 -22q-34 -185 -67 -385h-195q11 59 33.5 189t27.5 159q18 105 49 161t72.5 74.5t110.5 18.5q96 0 145 -37.5t49 -120.5q0 -21 -7 -71t-47.5 -284.5t-127.5 -727.5q-18 -105 -49 -161t-72 -74.5t-110 -18.5
q-97 0 -146 37.5t-49 119.5zM117 197q0 -13 12 -13t16 23q16 91 41.5 232t30.5 171h-29q-71 -402 -71 -413z" />
    <glyph glyph-name="circumflex" unicode="&#x2c6;" horiz-adv-x="512" 
d="M428 1507l-27 60l-47 -60h-153l104 127h217l60 -127h-154z" />
    <glyph glyph-name="caron" unicode="&#x2c7;" horiz-adv-x="512" 
d="M451 1634h153l-104 -127h-217l-60 127h154l26 -59z" />
    <glyph glyph-name="breve" unicode="&#x2d8;" horiz-adv-x="512" 
d="M408 1599q64 0 75 35h105q-29 -129 -197 -129q-84 0 -120 30.5t-31 98.5h104q0 -35 64 -35z" />
    <glyph glyph-name="dotaccent" unicode="&#x2d9;" horiz-adv-x="512" 
d="M418 1663q32 0 51.5 -17.5t19.5 -48.5q0 -34 -23.5 -62t-68.5 -28q-32 0 -51.5 17.5t-19.5 48.5q0 34 23.5 62t68.5 28z" />
    <glyph glyph-name="ring" unicode="&#x2da;" horiz-adv-x="512" 
d="M391 1444q-40 0 -65 22.5t-25 59.5q0 46 28 78t79 32q40 0 65 -22.5t25 -59.5q0 -46 -28 -78t-79 -32zM393 1485q30 0 47 19t17 46q0 21 -13.5 33t-37.5 12q-30 0 -47 -19t-17 -46q0 -21 13.5 -33t37.5 -12z" />
    <glyph glyph-name="ogonek" unicode="&#x2db;" horiz-adv-x="512" 
d="M160 0q-56 -67 -56 -127q0 -20 21 -20q27 0 27 36v2h63v-2q0 -44 -29 -69t-86 -25q-94 0 -94 60q0 24 9.5 44.5t21 32.5t34.5 33.5t35 34.5h54z" />
    <glyph glyph-name="tilde" unicode="&#x2dc;" horiz-adv-x="512" 
d="M584 1634q-23 -129 -109 -129q-30 0 -65 11.5t-54 11.5q-21 0 -26 -21h-109q23 129 109 129q30 0 66 -10t55 -10q12 0 17.5 4t6.5 14h109z" />
    <glyph glyph-name="hungarumlaut" unicode="&#x2dd;" horiz-adv-x="512" 
d="M340 1507h-72l31 127h113zM463 1507h-72l33 127h113z" />
    <glyph glyph-name="pi" unicode="&#x3c0;" horiz-adv-x="499" 
d="M-115 0l265 1288q-16 -2 -52 -14l31 174q69 27 147 27h338l-30 -179h-21l-233 -1114q-3 -26 18 -26h6l-26 -156h-17q-111 0 -152.5 49t-19.5 156l230 1091h-25l-264 -1296h-195z" />
    <glyph glyph-name="Wgrave" unicode="&#x1e80;" horiz-adv-x="632" 
d="M416 1702l-68 127h211l-2 -127h-141zM-78 0l246 1669h182l-190 -1100l235 1100h170l-153 -1102l200 1102h181l-336 -1669h-240l141 977l-200 -977h-236z" />
    <glyph glyph-name="wgrave" unicode="&#x1e81;" horiz-adv-x="653" 
d="M389 1507l-67 127h210l-2 -127h-141zM-76 0l211 1475h182l-167 -990l221 990h168l-119 -961l176 961h180l-303 -1475h-242l123 883l-192 -883h-238z" />
    <glyph glyph-name="Wacute" unicode="&#x1e82;" horiz-adv-x="632" 
d="M557 1702h-141l43 127h211zM-78 0l246 1669h182l-190 -1100l235 1100h170l-153 -1102l200 1102h181l-336 -1669h-240l141 977l-200 -977h-236z" />
    <glyph glyph-name="wacute" unicode="&#x1e83;" horiz-adv-x="653" 
d="M530 1507h-141l43 127h211zM-76 0l211 1475h182l-167 -990l221 990h168l-119 -961l176 961h180l-303 -1475h-242l123 883l-192 -883h-238z" />
    <glyph glyph-name="Wdieresis" unicode="&#x1e84;" horiz-adv-x="632" 
d="M342 1708l25 141h127l-25 -141h-127zM637 1708h-127l25 141h127zM-78 0l246 1669h182l-190 -1100l235 1100h170l-153 -1102l200 1102h181l-336 -1669h-240l141 977l-200 -977h-236z" />
    <glyph glyph-name="wdieresis" unicode="&#x1e85;" horiz-adv-x="653" 
d="M315 1513l25 142h127l-25 -142h-127zM610 1513h-127l25 142h127zM-76 0l211 1475h182l-167 -990l221 990h168l-119 -961l176 961h180l-303 -1475h-242l123 883l-192 -883h-238z" />
    <glyph glyph-name="Ygrave" unicode="&#x1ef2;" horiz-adv-x="423" 
d="M311 1702l-67 127h211l-2 -127h-142zM82 557l96 1112h172l-90 -647h6l135 647h172l-297 -1112l-96 -557h-194z" />
    <glyph glyph-name="ygrave" unicode="&#x1ef3;" horiz-adv-x="450" 
d="M289 1507l-68 127h211l-2 -127h-141zM266 240q-26 -107 -54.5 -173.5t-69 -104t-86.5 -51t-115 -13.5l32 186h37q29 0 41 37l12 43h-75l155 1311h193l-176 -1084h4l207 1084h194z" />
    <glyph glyph-name="thinspace" unicode="&#x2009;" horiz-adv-x="81" 
 />
    <glyph glyph-name="endash" unicode="&#x2013;" horiz-adv-x="696" 
d="M680 760h-655l14 80h655z" />
    <glyph glyph-name="emdash" unicode="&#x2014;" horiz-adv-x="1392" 
d="M1376 760h-1351l14 80h1352z" />
    <glyph glyph-name="quoteleft" unicode="&#x2018;" horiz-adv-x="237" 
d="M266 1669h111l-98 -194h69l-33 -193h-200l32 193z" />
    <glyph glyph-name="quoteright" unicode="&#x2019;" horiz-adv-x="237" 
d="M231 1284h-112l100 195h-69l32 190h201l-33 -190z" />
    <glyph glyph-name="quotesinglbase" unicode="&#x201a;" horiz-adv-x="237" 
d="M-29 -193h-112l100 193h-70l33 193h201l-33 -193z" />
    <glyph glyph-name="quotedblleft" unicode="&#x201c;" horiz-adv-x="473" 
d="M266 1669h111l-98 -194h69l-33 -193h-200l32 193zM504 1669h110l-98 -194h70l-33 -193h-201l33 193z" />
    <glyph glyph-name="quotedblright" unicode="&#x201d;" horiz-adv-x="473" 
d="M231 1284h-112l100 195h-69l32 190h201l-33 -190zM469 1284h-113l101 195h-70l33 190h201l-33 -190z" />
    <glyph glyph-name="quotedblbase" unicode="&#x201e;" horiz-adv-x="473" 
d="M-29 -193h-112l100 193h-70l33 193h201l-33 -193zM209 -193h-113l101 193h-70l33 193h200l-32 -193z" />
    <glyph glyph-name="dagger" unicode="&#x2020;" horiz-adv-x="290" 
d="M418 1573l-12 -72h-82l-62 -344h-86l62 344h-82l12 72h82l16 96h86l-16 -96h82z" />
    <glyph glyph-name="daggerdbl" unicode="&#x2021;" horiz-adv-x="290" 
d="M375 1325l-15 -72h-81l-17 -96h-86l17 96h-82l14 72h80l33 176h-82l12 72h82l16 96h86l-16 -96h82l-12 -72h-82l-33 -176h84z" />
    <glyph glyph-name="bullet" unicode="&#x2022;" horiz-adv-x="411" 
d="M178 573q-85 0 -120 27.5t-35 97.5q0 43 10 101q23 132 69.5 178.5t155.5 46.5q86 0 121 -27.5t35 -97.5q0 -36 -11 -100q-23 -132 -69.5 -179t-155.5 -47z" />
    <glyph glyph-name="ellipsis" unicode="&#x2026;" horiz-adv-x="702" 
d="M88 0h-199l35 195h199zM322 0h-199l35 195h198zM557 0h-199l35 195h199z" />
    <glyph glyph-name="perthousand" unicode="&#x2030;" horiz-adv-x="802" 
d="M178 965q-55 0 -79.5 21t-24.5 67q0 19 82 483q14 81 40.5 112t90.5 31q55 0 79.5 -21t24.5 -67q0 -19 -82 -483q-14 -81 -40.5 -112t-90.5 -31zM627 1669h59l-733 -1669h-59zM276 1569q-8 0 -12 -21q-82 -464 -82 -467q0 -6 6 -6q10 0 13 21q82 464 82 467q0 6 -7 6z
M295 -4q-55 0 -80 21t-25 67q0 19 82 483q14 81 40.5 112.5t90.5 31.5q55 0 80 -21t25 -67q0 -20 -82 -484q-14 -81 -40.5 -112t-90.5 -31zM553 -4q-55 0 -79.5 21t-24.5 67q0 24 81 483q14 81 41 112.5t91 31.5q55 0 79.5 -21t24.5 -67q0 -20 -82 -484q-14 -81 -40.5 -112
t-90.5 -31zM393 600q-9 0 -12 -20q-82 -464 -82 -467q0 -7 6 -7q9 0 12 21q82 464 82 467q0 6 -6 6zM651 600q-9 0 -12 -20q-82 -464 -82 -467q0 -7 6 -7q9 0 12 21q82 464 82 467q0 6 -6 6z" />
    <glyph glyph-name="guilsinglleft" unicode="&#x2039;" horiz-adv-x="227" 
d="M27 799l174 475h104l-186 -496l18 -454h-94z" />
    <glyph glyph-name="guilsinglright" unicode="&#x203a;" horiz-adv-x="227" 
d="M221 799l-174 -475h-104l186 495l-18 455h94z" />
    <glyph glyph-name="fraction" unicode="&#x2044;" horiz-adv-x="49" 
d="M379 1669h59l-733 -1669h-59z" />
    <glyph glyph-name="zerosuperior" unicode="&#x2070;" horiz-adv-x="258" 
d="M178 965q-55 0 -79.5 21t-24.5 67q0 19 82 483q14 81 40.5 112t90.5 31q55 0 79.5 -21t24.5 -67q0 -19 -82 -483q-14 -81 -40.5 -112t-90.5 -31zM276 1569q-8 0 -12 -21q-82 -464 -82 -467q0 -6 6 -6q10 0 13 21q82 464 82 467q0 6 -7 6z" />
    <glyph glyph-name="foursuperior" unicode="&#x2074;" horiz-adv-x="268" 
d="M160 969l28 157h-106l12 60l123 483h64l-101 -457h23l80 457h106l-80 -457h29l-16 -86h-27l-29 -157h-106z" />
    <glyph glyph-name="fivesuperior" unicode="&#x2075;" horiz-adv-x="243" 
d="M346 1401q0 -40 -45 -295q-15 -83 -43.5 -112t-87.5 -29q-54 0 -78 21t-24 71q0 33 18 137h107q-19 -110 -19 -115q0 -8 6 -8q8 0 10 12q43 244 43 254q0 9 -6 9t-8 -9t-12 -67h-94l69 399h213l-18 -106h-119l-43 -238q13 75 31.5 102t52.5 27q47 0 47 -53z" />
    <glyph glyph-name="sixsuperior" unicode="&#x2076;" horiz-adv-x="245" 
d="M258 1548l-47 -268q12 55 28 76.5t44 21.5q27 0 39 -13.5t12 -49.5q0 -32 -31 -207q-14 -81 -40.5 -112t-90.5 -31q-55 0 -79.5 21t-24.5 67q0 20 82 483q14 81 40.5 112t90.5 31q55 0 79.5 -21t24.5 -67q0 -29 -27 -166h-106q24 124 24 138q0 6 -6 6q-8 0 -12 -21z
M182 1071q9 0 11 12q30 168 30 181q0 6 -6 6q-7 0 -10 -13q-31 -174 -31 -180t6 -6z" />
    <glyph glyph-name="sevensuperior" unicode="&#x2077;" horiz-adv-x="208" 
d="M180 969h-106q16 94 33 171t38.5 145.5t31.5 99.5t36.5 98.5t30.5 77.5h-94l18 108h201l-17 -94q-8 -23 -32 -85.5t-36.5 -99t-32.5 -102.5t-37 -144t-34 -175z" />
    <glyph glyph-name="eightsuperior" unicode="&#x2078;" horiz-adv-x="245" 
d="M279 1679q55 0 80.5 -19t25.5 -61q0 -19 -18 -124q-12 -73 -29.5 -102.5t-56.5 -35.5q45 -15 45 -71q0 -25 -23 -160q-14 -79 -42 -110t-89 -31q-53 0 -77.5 19.5t-24.5 64.5q0 36 20 153q12 72 30.5 101.5t57.5 35.5q-47 14 -47 74q0 16 19 125q14 84 42.5 112.5
t86.5 28.5zM238 1384q7 0 10 13q28 158 28 168q0 8 -6 8q-8 0 -10 -12q-29 -163 -29 -168q0 -9 7 -9zM182 1071q9 0 11 12q30 166 30 179q0 8 -6 8q-7 0 -10 -13q-31 -172 -31 -178q0 -8 6 -8z" />
    <glyph glyph-name="ninesuperior" unicode="&#x2079;" horiz-adv-x="245" 
d="M150 1536q14 81 40.5 112t90.5 31q55 0 79.5 -21t24.5 -67q0 -20 -82 -483q-14 -81 -40.5 -112t-90.5 -31q-55 0 -79.5 21t-24.5 67q0 34 26 166h107q-25 -129 -25 -138q0 -6 6 -6q10 0 13 21l47 268q-12 -55 -28 -76.5t-44 -21.5q-27 0 -39 13.5t-12 49.5q0 32 31 207z
M276 1567q0 6 -6 6q-8 0 -10 -12q-31 -174 -31 -181q0 -6 7 -6q8 0 10 12q30 168 30 181z" />
    <glyph glyph-name="zeroinferior" unicode="&#x2080;" horiz-adv-x="258" 
d="M8 -4q-55 0 -79.5 21t-24.5 67q0 19 82 483q14 81 40.5 112.5t90.5 31.5q55 0 79.5 -21t24.5 -67q0 -20 -82 -484q-14 -81 -40.5 -112t-90.5 -31zM106 600q-9 0 -12 -20q-82 -464 -82 -467q0 -7 6 -7q10 0 13 21q82 464 82 467q0 6 -7 6z" />
    <glyph glyph-name="oneinferior" unicode="&#x2081;" horiz-adv-x="182" 
d="M39 0h-107l103 575l-64 -36l19 102l116 59h56z" />
    <glyph glyph-name="twoinferior" unicode="&#x2082;" horiz-adv-x="258" 
d="M98 512q15 81 15 82q0 6 -7 6q-9 0 -12 -20l-16 -93h-107l15 80q14 82 41.5 113t91.5 31q54 0 78 -21t24 -67q0 -21 -14 -103q-7 -42 -31 -95.5t-153 -315.5h110l-18 -109h-230l15 78q133 273 163 339.5t35 94.5z" />
    <glyph glyph-name="threeinferior" unicode="&#x2083;" horiz-adv-x="264" 
d="M10 -4q-57 0 -81.5 19.5t-24.5 68.5q0 23 18 127h107q-15 -86 -15 -94q0 -11 9 -11t14 29q31 173 31 180q0 9 -7 9h-51l17 92h45q11 0 20 53q21 123 21 125q0 6 -7 6q-9 0 -12 -20l-16 -88h-107l15 75q14 81 42 112.5t93 31.5q52 0 76 -20.5t24 -63.5q0 -27 -28 -185
q-6 -28 -21 -42t-45 -17q49 -8 49 -47q0 -20 -31 -193q-15 -87 -42.5 -117t-92.5 -30z" />
    <glyph glyph-name="fourinferior" unicode="&#x2084;" horiz-adv-x="268" 
d="M-10 0l28 158h-106l12 59l123 483h64l-101 -456h23l80 456h106l-80 -456h29l-16 -86h-27l-29 -158h-106z" />
    <glyph glyph-name="fiveinferior" unicode="&#x2085;" horiz-adv-x="243" 
d="M176 432q0 -40 -45 -295q-15 -83 -43.5 -112t-87.5 -29q-54 0 -78 21t-24 71q0 33 18 137h107q-19 -110 -19 -114q0 -9 6 -9q7 0 10 13q43 244 43 254q0 8 -6 8t-8 -9t-12 -67h-94l69 399h213l-18 -106h-119l-43 -238q13 75 31.5 102t52.5 27q47 0 47 -53z" />
    <glyph glyph-name="sixinferior" unicode="&#x2086;" horiz-adv-x="245" 
d="M88 580l-47 -269q12 55 28 77t44 22q27 0 39 -14t12 -50q0 -32 -31 -207q-14 -81 -40.5 -112t-90.5 -31q-55 0 -79.5 21t-24.5 67q0 20 82 483q14 81 40.5 112.5t90.5 31.5q55 0 79.5 -21t24.5 -67q0 -29 -27 -166h-106q24 124 24 137q0 6 -6 6q-9 0 -12 -20zM12 102
q8 0 11 13q30 168 30 180q0 6 -6 6q-8 0 -10 -12q-31 -174 -31 -180q0 -7 6 -7z" />
    <glyph glyph-name="seveninferior" unicode="&#x2087;" horiz-adv-x="208" 
d="M10 0h-106q16 94 33 171t38.5 145.5t31.5 99.5t36.5 98.5t30.5 77.5h-94l18 108h201l-17 -94q-8 -23 -32 -85.5t-36.5 -99t-32.5 -102.5t-37 -144t-34 -175z" />
    <glyph glyph-name="eightinferior" unicode="&#x2088;" horiz-adv-x="245" 
d="M109 711q55 0 80.5 -19t25.5 -61q0 -20 -18 -125q-12 -73 -29.5 -102t-56.5 -35q45 -15 45 -72q0 -25 -23 -160q-14 -79 -42 -110t-89 -31q-53 0 -77.5 19.5t-24.5 64.5q0 36 20 153q12 72 30.5 102t57.5 36q-47 14 -47 73q0 16 19 125q14 85 42.5 113.5t86.5 28.5z
M68 416q8 0 10 12q28 158 28 168q0 8 -6 8q-8 0 -10 -12q-29 -163 -29 -168q0 -8 7 -8zM12 102q8 0 11 13q30 166 30 178q0 8 -6 8q-8 0 -10 -12q-31 -172 -31 -178q0 -9 6 -9z" />
    <glyph glyph-name="nineinferior" unicode="&#x2089;" horiz-adv-x="245" 
d="M-20 567q14 81 40.5 112.5t90.5 31.5q55 0 79.5 -21t24.5 -67q0 -21 -82 -484q-14 -81 -40.5 -112t-90.5 -31q-55 0 -79.5 21t-24.5 67q0 34 26 166h107q-25 -129 -25 -137q0 -7 6 -7q10 0 13 21l47 268q-12 -55 -28 -76.5t-44 -21.5q-27 0 -39 13.5t-12 49.5
q0 32 31 207zM106 598q0 6 -6 6q-8 0 -10 -12q-31 -174 -31 -180t7 -6q8 0 10 12q30 168 30 180z" />
    <glyph glyph-name="lira" unicode="&#x20a4;" horiz-adv-x="448" 
d="M397 989l-149 -100l-123 -694h16q15 0 19 22l78 442h182l-70 -401q-28 -156 -79.5 -207t-176.5 -51h-196l135 772l-31 -20l25 141l30 22l19 105l-31 -23l27 142l28 20l90 510h195l-70 -391l150 100l-25 -143l-149 -102l-19 -101l150 101z" />
    <glyph glyph-name="Euro" unicode="&#x20ac;" horiz-adv-x="448" 
d="M342 680h-125q-84 -475 -84 -483q0 -11 12 -11q8 0 13 4.5t8 18.5l67 385h177l-64 -361q-26 -144 -72.5 -193.5t-146.5 -49.5q-95 0 -138.5 34.5t-43.5 110.5q0 39 86 545h-39l20 119h39q9 37 15 78h-39l20 118h39q40 221 78 441q25 141 72 192t155 51q90 0 132 -35.5
t42 -113.5q0 -56 -69 -445h-177q66 371 66 383q0 15 -12 15q-15 0 -19 -23q-18 -106 -48 -273.5t-34 -191.5h125l-20 -118h-125q-5 -24 -14 -78h124z" />
    <glyph glyph-name="indianrupee" unicode="&#x20b9;" horiz-adv-x="409" 
d="M57 0l-37 768l27 156h127q21 0 29 45q19 103 30 172h-147l20 119h148q33 188 33 196q0 19 -17 19h-127l35 194h381l-20 -119h-80q22 -25 22 -73q0 -29 -32 -217h38l-20 -119h-39q-6 -42 -25 -142q-15 -83 -28 -128.5t-35.5 -80t-54.5 -47.5t-84 -16l37 -727h-181z" />
    <glyph glyph-name="litre" unicode="&#x2113;" horiz-adv-x="262" 
d="M111 182q-3 -26 18 -26h27l-27 -156h-37q-110 0 -150.5 48.5t-21.5 156.5l258 1464h195z" />
    <glyph glyph-name="numero" unicode="&#x2116;" horiz-adv-x="743" 
d="M649 963q-59 0 -86.5 22.5t-27.5 75.5q0 29 77 465q15 89 44.5 121t97.5 32q59 0 86.5 -22.5t27.5 -75.5q0 -29 -77 -465q-15 -89 -44.5 -121t-97.5 -32zM743 1567q-11 0 -14 -21q-80 -453 -80 -461q0 -10 10 -10q11 0 15 21q80 453 80 460q0 11 -11 11zM141 0l54 778
l-136 -778h-174l258 1475h164l-63 -830l145 830h174l-258 -1475h-164zM739 836h-247l18 98h248z" />
    <glyph glyph-name="uni2117" unicode="&#x2117;" horiz-adv-x="690" 
d="M231 -10q-155 0 -222.5 59t-67.5 187q0 37 6 88t42.5 269.5t114.5 659.5q21 120 46.5 195t70 130t110.5 78t165 23q155 0 222.5 -58.5t67.5 -186.5q0 -37 -6 -88t-42.5 -270.5t-114.5 -659.5q-21 -120 -46.5 -195t-70 -130t-110.5 -78t-165 -23zM489 1606
q-79 0 -127.5 -14.5t-83.5 -56.5t-55 -105t-39 -173q-117 -663 -142.5 -821t-25.5 -205q0 -92 52.5 -130t169.5 -38q79 0 127.5 14.5t83.5 56.5t55 105t39 173q117 663 142.5 821t25.5 205q0 92 -52.5 130t-169.5 38zM360 672h-41l-83 -482h-144l225 1278h140q88 0 130 -28
t42 -99q0 -35 -74 -450q-23 -128 -60.5 -173.5t-134.5 -45.5zM467 1305h-35l-82 -465h35q10 0 16 18t17 80q59 337 59 352t-10 15z" />
    <glyph glyph-name="servicemark" unicode="&#x2120;" horiz-adv-x="307" 
d="M236 1376q-5 -29 -17.5 -43t-42.5 -14q-45 0 -45 35q0 10 16 102h46q-9 -52 -14 -80l-1 -6q0 -6 4 -6q6 0 8 12q5 29 9 51l5 27.5t1 7.5q0 7 -21 33q-20 25 -20 43q0 12 12 82q5 29 17.5 43t42.5 14q45 0 45 -35l-17 -98h-45q14 82 14 84q0 4 -4 4q-6 0 -8 -12
q-12 -63 -12 -70q0 -8 18 -30t21.5 -29t3.5 -16q0 -5 -16 -99zM305 1327l21 236l-41 -236h-45l59 342h63l-18 -178l45 178h62l-60 -342h-45l41 236l-59 -236h-23z" />
    <glyph glyph-name="trademark" unicode="&#x2122;" horiz-adv-x="299" 
d="M190 1327h-47l52 295h-29l8 47h102l-8 -47h-26zM297 1327l20 236l-41 -236h-45l60 342h63l-18 -178l45 178h61l-59 -342h-45l41 236l-60 -236h-22z" />
    <glyph glyph-name="Omega" unicode="&#x2126;" 
d="M561 1522q0 -34 -25 -182.5t-157 -899.5q-10 -60 -31 -105t-49.5 -72t-55 -42t-59.5 -26h152l-33 -195h-203l33 188q10 14 17 48q217 1232 217 1237q0 12 -13 12q-14 0 -18 -23q-219 -1249 -219 -1261q0 -9 4 -13l-33 -188h-203l33 195h152q-115 42 -115 159
q0 36 26 191.5t154 879.5q18 103 49 159t73 75.5t110 19.5q97 0 145.5 -37.5t48.5 -119.5z" />
    <glyph glyph-name="estimated" unicode="&#x212e;" horiz-adv-x="1708" 
d="M324 788v-520q84 -92 222 -148.5t308 -56.5q121 0 233 36.5t199 99t152.5 142t105.5 169.5h80q-92 -227 -300.5 -373.5t-469.5 -146.5q-245 0 -434.5 104.5t-294.5 296.5t-105 443q0 186 65 345t177.5 268t265.5 170.5t326 61.5q181 0 337.5 -67t264.5 -181t170 -269
t62 -328q0 -8 -1 -22.5t-1 -23.5h-1362zM324 862h1077v508q-80 101 -224.5 166.5t-322.5 65.5q-159 0 -304 -61.5t-226 -154.5v-524z" />
    <glyph glyph-name="arrowleft" unicode="&#x2190;" horiz-adv-x="419" 
d="M31 729v16l125 224h127l-99 -170h205v-125h-203l97 -168h-127z" />
    <glyph glyph-name="arrowup" unicode="&#x2191;" horiz-adv-x="419" 
d="M379 737l-109 105v-391h-123v389l-106 -103v152l162 135h14l162 -135v-152z" />
    <glyph glyph-name="arrowright" unicode="&#x2192;" horiz-adv-x="419" 
d="M389 729l-125 -223h-127l96 168h-202v125h205l-99 170h127l125 -224v-16z" />
    <glyph glyph-name="arrowdown" unicode="&#x2193;" horiz-adv-x="419" 
d="M379 586l-162 -135h-14l-162 135v151l106 -102v389h123v-391l109 104v-151z" />
    <glyph glyph-name="arrowleftright" unicode="&#x2194;" horiz-adv-x="542" 
d="M31 729v16l84 224h114l-63 -170h211l-64 170h115l84 -224v-16l-84 -223h-115l64 168h-211l63 -168h-114z" />
    <glyph glyph-name="uni21A9" unicode="&#x21a9;" horiz-adv-x="419" 
d="M31 729v16l84 224h114l-63 -170h98v258h125v-383h-223l63 -168h-114z" />
    <glyph glyph-name="uni21AA" unicode="&#x21aa;" horiz-adv-x="419" 
d="M418 729l-84 -223h-115l64 168h-224v383h125v-258h99l-64 170h115l84 -224v-16z" />
    <glyph glyph-name="partialdiff" unicode="&#x2202;" 
d="M344 244q-18 -103 -48.5 -159t-72.5 -75.5t-110 -19.5q-97 0 -146 37.5t-49 119.5q0 45 182 1078q28 159 56.5 209.5t93.5 50.5q60 0 81.5 -50t2.5 -175q33 207 33 223q0 17 -7 23.5t-24 6.5h-49l26 156h88q76 0 120 -31t44 -96q0 -16 -3.5 -41t-24.5 -151.5t-65 -379
t-128 -726.5zM322 1286q-16 0 -21 -29q-188 -1051 -188 -1060q0 -13 12 -13q8 0 12.5 5.5t7.5 23.5q189 1057 189 1061q0 12 -12 12z" />
    <glyph glyph-name="Delta" unicode="&#x2206;" horiz-adv-x="399" 
d="M514 1669l-248 -1669h-391l340 1669h299zM336 1552l-244 -1357h27l233 1357h-16z" />
    <glyph glyph-name="product" unicode="&#x220f;" 
d="M90 -102l277 1577h-29l-277 -1577h-194l311 1771h418l-311 -1771h-195z" />
    <glyph glyph-name="summation" unicode="&#x2211;" horiz-adv-x="360" 
d="M-133 -102l37 208l313 728l-70 655l31 180h336l-35 -194h-139l45 -557l-35 -197l-254 -627h142l-35 -196h-336z" />
    <glyph glyph-name="minus" unicode="&#x2212;" horiz-adv-x="258" 
d="M252 766h-238l17 84h237z" />
    <glyph glyph-name="radical" unicode="&#x221a;" horiz-adv-x="428" 
d="M408 1669h192l-364 -1669h-302l164 1270h195l-178 -1096h4z" />
    <glyph glyph-name="infinity" unicode="&#x221e;" horiz-adv-x="258" 
d="M106 889q36 0 54 -21q19 13 45 13q29 0 45 -15t16 -41q0 -38 -22.5 -63t-63.5 -25q-28 0 -43 15q-26 -23 -61 -23q-64 0 -64 64q0 37 25 66.5t69 29.5zM96 831q-22 0 -22 -26q0 -19 14 -19q11 0 17 8.5t6 18.5q0 18 -15 18zM188 788q9 0 15 7.5t6 19.5q0 14 -12 14
q-21 0 -21 -26q0 -15 12 -15z" />
    <glyph glyph-name="integral" unicode="&#x222b;" horiz-adv-x="245" 
d="M119 102q-19 -105 -71.5 -154.5t-149.5 -49.5h-37l26 155h7q11 0 17 5.5t9 21.5l246 1384q18 108 62 156.5t139 48.5h57l-27 -156h-6q-8 0 -12 -1t-8 -7t-6 -18z" />
    <glyph glyph-name="approxequal" unicode="&#x2248;" horiz-adv-x="258" 
d="M205 825q-20 0 -46 11.5t-36 11.5q-15 0 -21 -21h-75q11 60 29 86.5t50 26.5q20 0 46 -11t36 -11q18 0 21 20h76q-11 -60 -29.5 -86.5t-50.5 -26.5zM178 678q-20 0 -46 11t-36 11q-14 0 -20 -20h-76q11 60 29.5 86.5t50.5 26.5q20 0 46 -11.5t36 -11.5q17 0 20 21h76
q-11 -60 -29.5 -86.5t-50.5 -26.5z" />
    <glyph glyph-name="notequal" unicode="&#x2260;" horiz-adv-x="258" 
d="M66 662h-62l23 30h-25l14 84h74l49 66h-110l14 84h160l22 30h62l-23 -30h17l-15 -84h-65l-49 -66h102l-14 -84h-152z" />
    <glyph glyph-name="lessequal" unicode="&#x2264;" horiz-adv-x="258" 
d="M29 829l4 25l125 94h125l-150 -108l113 -105h-117zM227 618h-237l14 84h238z" />
    <glyph glyph-name="greaterequal" unicode="&#x2265;" horiz-adv-x="258" 
d="M266 854l-4 -25l-125 -94h-125l150 109l-113 104h117zM-10 618l14 84h238l-15 -84h-237z" />
    <glyph glyph-name="uni2295" unicode="&#x2295;" horiz-adv-x="1615" 
d="M807 -23q-205 0 -370.5 93.5t-259 259.5t-93.5 372q0 205 93.5 370.5t259 259t370.5 93.5q206 0 372 -93.5t259.5 -259t93.5 -370.5q0 -206 -93.5 -372t-259.5 -259.5t-372 -93.5zM807 1300q-254 0 -417 -164t-163 -434q0 -271 163 -435.5t417 -164.5t418 164.5
t164 435.5q0 134 -44 247t-121.5 189.5t-184.5 119t-232 42.5zM412 639v125h327v344h135v-344h330v-125h-330v-344h-135v344h-327z" />
    <glyph glyph-name="uni2296" unicode="&#x2296;" horiz-adv-x="1615" 
d="M807 -23q-205 0 -370.5 93.5t-259 259.5t-93.5 372q0 205 93.5 370.5t259 259t370.5 93.5q206 0 372 -93.5t259.5 -259t93.5 -370.5q0 -206 -93.5 -372t-259.5 -259.5t-372 -93.5zM807 1300q-254 0 -417 -164t-163 -434q0 -271 163 -435.5t417 -164.5t418 164.5
t164 435.5q0 134 -44 247t-121.5 189.5t-184.5 119t-232 42.5zM412 639v125h792v-125h-792z" />
    <glyph glyph-name="uni2297" unicode="&#x2297;" horiz-adv-x="1615" 
d="M807 -23q-205 0 -370.5 93.5t-259 259.5t-93.5 372q0 205 93.5 370.5t259 259t370.5 93.5q206 0 372 -93.5t259.5 -259t93.5 -370.5q0 -206 -93.5 -372t-259.5 -259.5t-372 -93.5zM807 1300q-254 0 -417 -164t-163 -434q0 -271 163 -435.5t417 -164.5t418 164.5
t164 435.5q0 134 -44 247t-121.5 189.5t-184.5 119t-232 42.5zM569 377l-86 88l236 235l-242 244l88 90l244 -243l235 235l89 -86l-236 -235l242 -244l-90 -90l-242 243z" />
    <glyph glyph-name="uni2298" unicode="&#x2298;" horiz-adv-x="1615" 
d="M807 -23q-205 0 -370.5 93.5t-259 259.5t-93.5 372q0 205 93.5 370.5t259 259t370.5 93.5q206 0 372 -93.5t259.5 -259t93.5 -370.5q0 -206 -93.5 -372t-259.5 -259.5t-372 -93.5zM227 702q0 -219 109 -372l846 846q-155 124 -375 124q-254 0 -417 -164t-163 -434z
M807 102q254 0 418 164.5t164 435.5q0 218 -111 373l-846 -846q152 -127 375 -127z" />
    <glyph glyph-name="uni23CF" unicode="&#x23cf;" horiz-adv-x="1974" 
d="M987 1303l705 -705h-1409zM283 397h1409v-264h-1409v264z" />
    <glyph glyph-name="uni23E9" unicode="&#x23e9;" horiz-adv-x="1974" 
d="M1792 705l-705 -705v1409zM1034 705l-704 -705v1409z" />
    <glyph glyph-name="uni23EA" unicode="&#x23ea;" horiz-adv-x="1974" 
d="M182 705l705 704v-1409zM942 705l705 704v-1409z" />
    <glyph glyph-name="uni23EB" unicode="&#x23eb;" horiz-adv-x="1974" 
d="M987 1464l705 -704h-1409zM987 705l705 -705h-1409z" />
    <glyph glyph-name="uni23EC" unicode="&#x23ec;" horiz-adv-x="1974" 
d="M987 715l-704 704h1409zM987 -43l-704 702h1409z" />
    <glyph glyph-name="uni23ED" unicode="&#x23ed;" horiz-adv-x="1974" 
d="M1876 0h-266v1409h266v-1409zM803 705l-705 -705v1409zM1563 705l-705 -705v1409z" />
    <glyph glyph-name="uni23EE" unicode="&#x23ee;" horiz-adv-x="1974" 
d="M98 0v1409h267v-1409h-267zM1171 705l705 704v-1409zM412 705l704 704v-1409z" />
    <glyph glyph-name="uni23EF" unicode="&#x23ef;" horiz-adv-x="1974" 
d="M979 705l-705 -705v1409zM1032 0v1409h266v-1409h-266zM1436 0v1409h266v-1409h-266z" />
    <glyph glyph-name="uni23F8" unicode="&#x23f8;" horiz-adv-x="1974" 
d="M496 0v1409h354v-1409h-354zM1126 0v1409h355v-1409h-355z" />
    <glyph glyph-name="uni23F9" unicode="&#x23f9;" horiz-adv-x="1974" 
d="M1692 0h-1409v1409h1409v-1409z" />
    <glyph glyph-name="uni23FA" unicode="&#x23fa;" horiz-adv-x="1974" 
d="M987 115q-125 0 -234.5 47t-186.5 126.5t-121 188t-44 228.5q0 163 75 297.5t209.5 213t301.5 78.5t301.5 -78.5t209.5 -213t75 -297.5q0 -120 -44 -228.5t-121 -188t-186.5 -126.5t-234.5 -47z" />
    <glyph glyph-name="lozenge" unicode="&#x25ca;" horiz-adv-x="561" 
d="M412 1669h67l64 -833l-357 -836h-67l-66 836zM166 836l33 -570l229 570l-31 567z" />
    <glyph glyph-name="uni25D0" unicode="&#x25d0;" horiz-adv-x="2084" 
d="M1042 -23q-206 0 -372 93.5t-259.5 259.5t-93.5 372q0 205 93.5 370.5t259.5 259t372 93.5q205 0 370.5 -93.5t259 -259t93.5 -370.5q0 -206 -93.5 -372t-259 -259.5t-370.5 -93.5zM1042 102q252 0 416 168t164 432q0 173 -75 310.5t-207.5 214t-297.5 76.5v-1201z" />
    <glyph glyph-name="uni25D1" unicode="&#x25d1;" horiz-adv-x="2084" 
d="M1042 1425q205 0 370.5 -93.5t259 -259t93.5 -370.5q0 -206 -93.5 -372t-259 -259.5t-370.5 -93.5q-206 0 -372 93.5t-259.5 259.5t-93.5 372q0 205 93.5 370.5t259.5 259t372 93.5zM1042 1303q-124 0 -231.5 -45t-184.5 -123.5t-121 -190.5t-44 -242q0 -174 75.5 -311.5
t207.5 -213t298 -75.5v1201z" />
    <glyph glyph-name="uni25D2" unicode="&#x25d2;" horiz-adv-x="2084" 
d="M1765 702q0 -206 -93.5 -372t-259 -259.5t-370.5 -93.5q-206 0 -372 93.5t-259.5 259.5t-93.5 372q0 205 93.5 370.5t259.5 259t372 93.5q205 0 370.5 -93.5t259 -259t93.5 -370.5zM1628 705q0 131 -45 242.5t-123.5 188t-186 119.5t-231.5 43q-166 0 -299 -73.5
t-209.5 -209t-76.5 -310.5h1171z" />
    <glyph glyph-name="uni25D3" unicode="&#x25d3;" horiz-adv-x="2084" 
d="M1765 702q0 -206 -93.5 -372t-259 -259.5t-370.5 -93.5q-206 0 -372 93.5t-259.5 259.5t-93.5 372q0 205 93.5 370.5t259.5 259t372 93.5q205 0 370.5 -93.5t259 -259t93.5 -370.5zM1628 700h-1171q0 -176 76.5 -312t209.5 -209t299 -73q165 0 298.5 73t210.5 209.5
t77 311.5z" />
    <glyph glyph-name="uni25D4" unicode="&#x25d4;" horiz-adv-x="2084" 
d="M1765 702q0 -206 -93.5 -372t-259 -259.5t-370.5 -93.5q-206 0 -372 93.5t-259.5 259.5t-93.5 372q0 205 93.5 370.5t259.5 259t372 93.5q205 0 370.5 -93.5t259 -259t93.5 -370.5zM1042 1298v-596h584q0 171 -76.5 307.5t-210 212.5t-297.5 76z" />
    <glyph glyph-name="uni25D5" unicode="&#x25d5;" horiz-adv-x="2084" 
d="M317 702q0 205 93.5 370.5t259.5 259t372 93.5q205 0 370.5 -93.5t259 -259t93.5 -370.5q0 -206 -93.5 -372t-259 -259.5t-370.5 -93.5q-206 0 -372 93.5t-259.5 259.5t-93.5 372zM1042 1298q-250 0 -416.5 -168.5t-166.5 -427.5h583v596z" />
    <glyph glyph-name="uni25E7" unicode="&#x25e7;" horiz-adv-x="2084" 
d="M338 0v1409h1409v-1409h-1409zM1042 127h570v1155h-570v-1155z" />
    <glyph glyph-name="uni25E8" unicode="&#x25e8;" horiz-adv-x="2084" 
d="M1747 0h-1409v1409h1409v-1409zM1042 127v1155h-569v-1155h569z" />
    <glyph glyph-name="uni2610" unicode="&#x2610;" horiz-adv-x="1536" 
d="M154 0v1229h1228v-1229h-1228zM281 123h974v983h-974v-983z" />
    <glyph glyph-name="uni2611" unicode="&#x2611;" horiz-adv-x="1536" 
d="M154 0v1229h1228v-1229h-1228zM281 123h974v983h-974v-983zM821 283h-125l-266 481h131l195 -358l229 567h125z" />
    <glyph glyph-name="uni2612" unicode="&#x2612;" horiz-adv-x="1536" 
d="M154 0v1229h1228v-1229h-1228zM281 123h974v983h-974v-983zM535 938l233 -240l233 240l82 -80l-235 -242l235 -243l-82 -80l-233 239l-233 -239l-82 80l235 243l-235 242z" />
    <glyph glyph-name="heart" unicode="&#x2665;" horiz-adv-x="409" 
d="M246 1135q16 82 88 82q59 0 82.5 -39.5t23.5 -157.5v-41q0 -102 -14.5 -174.5t-37.5 -118.5t-47.5 -88t-49.5 -112.5t-39 -163.5h-12q-14 93 -39 163.5t-50 112.5t-48 88t-37.5 118.5t-14.5 174.5v41q0 118 24 157.5t83 39.5q72 0 88 -82zM246 682q4 23 19 61t26.5 85.5
t11.5 109.5v37q0 45 -27 45q-22 0 -28 -35h-4q-6 35 -29 35q-27 0 -27 -45v-37q0 -62 11.5 -109.5t27 -85.5t19.5 -61z" />
    <glyph glyph-name="uni2690" unicode="&#x2690;" horiz-adv-x="1134" 
d="M158 1409h129v-90h30q82 0 144.5 -15t103 -37t82 -44t104.5 -37t146 -15h135v-663h-129q-97 0 -171.5 15t-121 36t-89.5 42.5t-101 36.5t-131 15h-2v-653h-129v1409zM874 637h29v407h-29q-85 0 -148.5 15t-103.5 36.5t-79 43t-97 36.5t-135 15h-24v-408h24q72 0 128 -15
t96 -36t81.5 -42.5t107 -36.5t150.5 -15z" />
    <glyph glyph-name="uni2691" unicode="&#x2691;" horiz-adv-x="1134" 
d="M158 1409h129v-90h30q82 0 144.5 -15t103 -37t82 -44t104.5 -37t146 -15h135v-663h-147q-92 0 -162.5 15t-114.5 36t-84.5 42.5t-95 36.5t-123.5 15h-18v-653h-129v1409z" />
    <glyph glyph-name="uni26AA" unicode="&#x26aa;" horiz-adv-x="653" 
d="M133 248v1173q0 154 43 206t166 52t166 -52t43 -206v-1173q0 -154 -43 -206t-166 -52t-166 52t-43 206zM166 254q0 -100 15.5 -148.5t51 -65.5t109.5 -17t109.5 17t51 65.5t15.5 148.5v1161q0 100 -15.5 148.5t-51 66t-109.5 17.5t-109.5 -17.5t-51 -66t-15.5 -148.5
v-1161z" />
    <glyph glyph-name="uni26AB" unicode="&#x26ab;" horiz-adv-x="653" 
d="M133 248v1173q0 154 43 206t166 52t166 -52t43 -206v-1173q0 -154 -43 -206t-166 -52t-166 52t-43 206z" />
    <glyph glyph-name="uni2713" unicode="&#x2713;" horiz-adv-x="1536" 
d="M821 246h-125l-303 545h133l230 -420l264 649h125z" />
    <glyph glyph-name="uni2717" unicode="&#x2717;" horiz-adv-x="1536" 
d="M498 973l268 -275l268 275l84 -80l-270 -277l270 -276l-84 -80l-268 275l-268 -275l-82 80l270 276l-270 277z" />
    <glyph glyph-name="uni2780" unicode="&#x2780;" horiz-adv-x="653" 
d="M133 248v1173q0 154 43 206t166 52t166 -52t43 -206v-1173q0 -154 -43 -206t-166 -52t-166 52t-43 206zM166 254q0 -100 15.5 -148.5t51 -65.5t109.5 -17t109.5 17t51 65.5t15.5 148.5v1161q0 100 -15.5 148.5t-51 66t-109.5 17.5t-109.5 -17.5t-51 -66t-15.5 -148.5
v-1161zM399 115h-106v1310l-55 -34v102l106 59h55v-1437z" />
    <glyph glyph-name="uni2781" unicode="&#x2781;" horiz-adv-x="651" 
d="M133 248v1173q0 154 43 206t166 52t166 -52t43 -206v-1173q0 -154 -43 -206t-166 -52t-166 52t-43 206zM166 254q0 -100 15.5 -148.5t51 -65.5t109.5 -17t109.5 17t51 65.5t15.5 148.5v1161q0 100 -15.5 148.5t-51 66t-109.5 17.5t-109.5 -17.5t-51 -66t-15.5 -148.5
v-1161zM350 1180v252q0 20 -8 20t-8 -20v-277h-107v264q0 82 23 113t92 31t92 -31t23 -113v-231q0 -31 -5 -82.5t-28.5 -250t-77.5 -632.5h111v-108h-230v78q123 933 123 987z" />
    <glyph glyph-name="uni2782" unicode="&#x2782;" horiz-adv-x="653" 
d="M133 248v1173q0 154 43 206t166 52t166 -52t43 -206v-1173q0 -154 -43 -206t-166 -52t-166 52t-43 206zM166 254q0 -100 15.5 -148.5t51 -65.5t109.5 -17t109.5 17t51 65.5t15.5 148.5v1161q0 100 -15.5 148.5t-51 66t-109.5 17.5t-109.5 -17.5t-51 -66t-15.5 -148.5
v-1161zM344 111q-72 0 -95.5 31t-23.5 116v252h107v-260q0 -18 2.5 -23.5t9.5 -5.5q10 0 10 29v502q0 35 -2 45t-8 10h-51v92h45q10 0 10 55v478q0 20 -8 20t-8 -20v-273h-107v260q0 82 23 113t92 31t92 -31t23 -113v-493q0 -29 -12.5 -43t-41.5 -19q34 -4 47 -23.5
t13 -62.5v-520q0 -85 -23.5 -116t-93.5 -31z" />
    <glyph glyph-name="uni2783" unicode="&#x2783;" horiz-adv-x="653" 
d="M133 248v1173q0 154 43 206t166 52t166 -52t43 -206v-1173q0 -154 -43 -206t-166 -52t-166 52t-43 206zM166 254q0 -100 15.5 -148.5t51 -65.5t109.5 -17t109.5 17t51 65.5t15.5 148.5v1161q0 100 -15.5 148.5t-51 66t-109.5 17.5t-109.5 -17.5t-51 -66t-15.5 -148.5
v-1161zM328 115v264h-105v59l43 1114h168v-1087h29v-86h-29v-264h-106zM303 465h25v1024z" />
    <glyph glyph-name="uni2784" unicode="&#x2784;" horiz-adv-x="653" 
d="M133 248v1173q0 154 43 206t166 52t166 -52t43 -206v-1173q0 -154 -43 -206t-166 -52t-166 52t-43 206zM166 254q0 -100 15.5 -148.5t51 -65.5t109.5 -17t109.5 17t51 65.5t15.5 148.5v1161q0 100 -15.5 148.5t-51 66t-109.5 17.5t-109.5 -17.5t-51 -66t-15.5 -148.5
v-1161zM457 866v-614q0 -85 -24 -113t-91 -28q-68 0 -91.5 28t-23.5 113v293h107v-316q0 -12 8 -12t8 12v639q0 33 -8 33q-6 0 -7 -11t-1 -65h-94v727h213v-106h-119v-567q0 76 13 103.5t46 27.5q38 0 51 -29.5t13 -114.5z" />
    <glyph glyph-name="uni2785" unicode="&#x2785;" horiz-adv-x="651" 
d="M133 248v1173q0 154 43 206t166 52t166 -52t43 -206v-1173q0 -154 -43 -206t-166 -52t-166 52t-43 206zM166 254q0 -100 15.5 -148.5t51 -65.5t109.5 -17t109.5 17t51 65.5t15.5 148.5v1161q0 100 -15.5 148.5t-51 66t-109.5 17.5t-109.5 -17.5t-51 -66t-15.5 -148.5
v-1161zM342 111q-68 0 -91.5 28.5t-23.5 112.5v1169q0 84 23.5 113t91.5 29q67 0 91 -29t24 -113v-317h-107v340q0 12 -8 12t-8 -12v-621q0 76 13 103.5t46 27.5q38 0 51 -28.5t13 -114.5v-559q0 -84 -24 -112.5t-91 -28.5zM342 846q-8 0 -8 -27v-590q0 -12 8 -12t8 12v600
q0 17 -8 17z" />
    <glyph glyph-name="uni2786" unicode="&#x2786;" horiz-adv-x="651" 
d="M133 248v1173q0 154 43 206t166 52t166 -52t43 -206v-1173q0 -154 -43 -206t-166 -52t-166 52t-43 206zM166 254q0 -100 15.5 -148.5t51 -65.5t109.5 -17t109.5 17t51 65.5t15.5 148.5v1161q0 100 -15.5 148.5t-51 66t-109.5 17.5t-109.5 -17.5t-51 -66t-15.5 -148.5
v-1161zM377 115h-107q0 629 14 870t52 459h-94v108h200v-94q-39 -225 -52 -463.5t-13 -879.5z" />
    <glyph glyph-name="uni2787" unicode="&#x2787;" horiz-adv-x="651" 
d="M133 248v1173q0 154 43 206t166 52t166 -52t43 -206v-1173q0 -154 -43 -206t-166 -52t-166 52t-43 206zM166 254q0 -100 15.5 -148.5t51 -65.5t109.5 -17t109.5 17t51 65.5t15.5 148.5v1161q0 100 -15.5 148.5t-51 66t-109.5 17.5t-109.5 -17.5t-51 -66t-15.5 -148.5
v-1161zM342 1563q67 0 91 -29t24 -113v-432q0 -66 -14.5 -97t-49.5 -40q36 -9 50 -39t14 -96v-465q0 -84 -24 -112.5t-91 -28.5q-68 0 -91.5 28.5t-23.5 112.5v465q0 66 14 96t50 39q-36 9 -50 39.5t-14 97.5v432q0 84 23.5 113t91.5 29zM342 899q8 0 8 14v531q0 12 -8 12
t-8 -12v-531q0 -14 8 -14zM342 217q8 0 8 12v543q0 12 -8 12t-8 -12v-543q0 -12 8 -12z" />
    <glyph glyph-name="uni2788" unicode="&#x2788;" horiz-adv-x="651" 
d="M133 248v1173q0 154 43 206t166 52t166 -52t43 -206v-1173q0 -154 -43 -206t-166 -52t-166 52t-43 206zM166 254q0 -100 15.5 -148.5t51 -65.5t109.5 -17t109.5 17t51 65.5t15.5 148.5v1161q0 100 -15.5 148.5t-51 66t-109.5 17.5t-109.5 -17.5t-51 -66t-15.5 -148.5
v-1161zM342 1563q68 0 91.5 -29t23.5 -113v-1169q0 -84 -23.5 -112.5t-91.5 -28.5q-67 0 -91 28.5t-24 112.5v317h107v-340q0 -12 8 -12t8 12v621q0 -76 -13 -103.5t-46 -27.5q-38 0 -51 28.5t-13 114.5v559q0 84 24 113t91 29zM342 827q8 0 8 27v590q0 12 -8 12t-8 -12
v-600q0 -17 8 -17z" />
    <glyph glyph-name="uni2789" unicode="&#x2789;" horiz-adv-x="651" 
d="M133 248v1173q0 154 43 206t166 52t166 -52t43 -206v-1173q0 -154 -43 -206t-166 -52t-166 52t-43 206zM166 254q0 -100 15.5 -148.5t51 -65.5t109.5 -17t109.5 17t51 65.5t15.5 148.5v1161q0 100 -15.5 148.5t-51 66t-109.5 17.5t-109.5 -17.5t-51 -66t-15.5 -148.5
v-1161zM295 254v1165q0 82 20 113t80 31q61 0 82 -31t21 -113v-1165q0 -82 -21 -112.5t-82 -30.5q-60 0 -80 30.5t-20 112.5zM281 115h-95v1437h95v-1437zM389 242q0 -21 6 -21q8 0 8 21v1190q0 20 -8 20q-6 0 -6 -20v-1190z" />
    <glyph glyph-name="uni278A" unicode="&#x278a;" horiz-adv-x="653" 
d="M133 248v1173q0 154 43 206t166 52t166 -52t43 -206v-1173q0 -154 -43 -206t-166 -52t-166 52t-43 206zM399 115v1437h-55l-106 -59v-102l55 34v-1310h106z" />
    <glyph glyph-name="uni278B" unicode="&#x278b;" horiz-adv-x="651" 
d="M133 248v1173q0 154 43 206t166 52t166 -52t43 -206v-1173q0 -154 -43 -206t-166 -52t-166 52t-43 206zM350 1180q0 -54 -123 -987v-78h230v108h-111q54 434 77.5 632.5t28.5 250t5 82.5v231q0 82 -23 113t-92 31t-92 -31t-23 -113v-264h107v277q0 20 8 20t8 -20v-252z
" />
    <glyph glyph-name="uni278C" unicode="&#x278c;" horiz-adv-x="653" 
d="M133 248v1173q0 154 43 206t166 52t166 -52t43 -206v-1173q0 -154 -43 -206t-166 -52t-166 52t-43 206zM344 111q70 0 93.5 31t23.5 116v520q0 43 -13 62.5t-47 23.5q29 5 41.5 19t12.5 43v493q0 82 -23 113t-92 31t-92 -31t-23 -113v-260h107v273q0 20 8 20t8 -20v-478
q0 -55 -10 -55h-45v-92h51q6 0 8 -10t2 -45v-502q0 -29 -10 -29q-7 0 -9.5 5.5t-2.5 23.5v260h-107v-252q0 -85 23.5 -116t95.5 -31z" />
    <glyph glyph-name="uni278D" unicode="&#x278d;" horiz-adv-x="653" 
d="M133 248v1173q0 154 43 206t166 52t166 -52t43 -206v-1173q0 -154 -43 -206t-166 -52t-166 52t-43 206zM328 115h106v264h29v86h-29v1087h-168l-43 -1114v-59h105v-264zM303 465l25 1024v-1024h-25z" />
    <glyph glyph-name="uni278E" unicode="&#x278e;" horiz-adv-x="653" 
d="M133 248v1173q0 154 43 206t166 52t166 -52t43 -206v-1173q0 -154 -43 -206t-166 -52t-166 52t-43 206zM457 866q0 85 -13 114.5t-51 29.5q-33 0 -46 -27.5t-13 -103.5v567h119v106h-213v-727h94q0 54 1 65t7 11q8 0 8 -33v-639q0 -12 -8 -12t-8 12v316h-107v-293
q0 -85 23.5 -113t91.5 -28q67 0 91 28t24 113v614z" />
    <glyph glyph-name="uni278F" unicode="&#x278f;" horiz-adv-x="651" 
d="M133 248v1173q0 154 43 206t166 52t166 -52t43 -206v-1173q0 -154 -43 -206t-166 -52t-166 52t-43 206zM342 111q67 0 91 28.5t24 112.5v559q0 86 -13 114.5t-51 28.5q-33 0 -46 -27.5t-13 -103.5v621q0 12 8 12t8 -12v-340h107v317q0 84 -24 113t-91 29q-68 0 -91.5 -29
t-23.5 -113v-1169q0 -84 23.5 -112.5t91.5 -28.5zM342 846q8 0 8 -17v-600q0 -12 -8 -12t-8 12v590q0 27 8 27z" />
    <glyph glyph-name="uni2790" unicode="&#x2790;" horiz-adv-x="651" 
d="M133 248v1173q0 154 43 206t166 52t166 -52t43 -206v-1173q0 -154 -43 -206t-166 -52t-166 52t-43 206zM377 115q0 641 13 879.5t52 463.5v94h-200v-108h94q-38 -218 -52 -459t-14 -870h107z" />
    <glyph glyph-name="uni2791" unicode="&#x2791;" horiz-adv-x="651" 
d="M133 248v1173q0 154 43 206t166 52t166 -52t43 -206v-1173q0 -154 -43 -206t-166 -52t-166 52t-43 206zM342 1563q-68 0 -91.5 -29t-23.5 -113v-432q0 -67 14 -97.5t50 -39.5q-36 -9 -50 -39t-14 -96v-465q0 -84 23.5 -112.5t91.5 -28.5q67 0 91 28.5t24 112.5v465
q0 66 -14 96t-50 39q35 9 49.5 40t14.5 97v432q0 84 -24 113t-91 29zM342 899q-8 0 -8 14v531q0 12 8 12t8 -12v-531q0 -14 -8 -14zM342 217q-8 0 -8 12v543q0 12 8 12t8 -12v-543q0 -12 -8 -12z" />
    <glyph glyph-name="uni2792" unicode="&#x2792;" horiz-adv-x="651" 
d="M133 248v1173q0 154 43 206t166 52t166 -52t43 -206v-1173q0 -154 -43 -206t-166 -52t-166 52t-43 206zM342 1563q-67 0 -91 -29t-24 -113v-559q0 -86 13 -114.5t51 -28.5q33 0 46 27.5t13 103.5v-621q0 -12 -8 -12t-8 12v340h-107v-317q0 -84 24 -112.5t91 -28.5
q68 0 91.5 28.5t23.5 112.5v1169q0 84 -23.5 113t-91.5 29zM342 827q-8 0 -8 17v600q0 12 8 12t8 -12v-590q0 -27 -8 -27z" />
    <glyph glyph-name="uni2793" unicode="&#x2793;" horiz-adv-x="651" 
d="M133 248v1173q0 154 43 206t166 52t166 -52t43 -206v-1173q0 -154 -43 -206t-166 -52t-166 52t-43 206zM295 254q0 -82 20 -112.5t80 -30.5q61 0 82 30.5t21 112.5v1165q0 82 -21 113t-82 31q-60 0 -80 -31t-20 -113v-1165zM281 115v1437h-95v-1437h95zM389 242v1190
q0 20 6 20q8 0 8 -20v-1190q0 -21 -8 -21q-6 0 -6 21z" />
    <glyph glyph-name="uni2913" unicode="&#x2913;" horiz-adv-x="1579" 
d="M1237 733l-446 -524l-449 524h172l209 -268v944h133v-946l209 270h172zM340 0v127h899v-127h-899z" />
    <glyph glyph-name="uni29B6" unicode="&#x29b6;" horiz-adv-x="1615" 
d="M807 -23q-205 0 -370.5 93.5t-259 259.5t-93.5 372q0 205 93.5 370.5t259 259t370.5 93.5q206 0 372 -93.5t259.5 -259t93.5 -370.5q0 -206 -93.5 -372t-259.5 -259.5t-372 -93.5zM1389 702q0 251 -143.5 411.5t-371.5 182.5v-1190q229 22 372 183t143 413zM227 702
q0 -252 142 -413t370 -183v1190q-228 -22 -370 -182.5t-142 -411.5z" />
    <glyph glyph-name="uni29B8" unicode="&#x29b8;" horiz-adv-x="1615" 
d="M807 -23q-205 0 -370.5 93.5t-259 259.5t-93.5 372q0 205 93.5 370.5t259 259t370.5 93.5q206 0 372 -93.5t259.5 -259t93.5 -370.5q0 -206 -93.5 -372t-259.5 -259.5t-372 -93.5zM807 1300q-221 0 -373 -124l844 -846q111 155 111 372q0 134 -44 247t-121.5 189.5
t-184.5 119t-232 42.5zM227 702q0 -271 163 -435.5t417 -164.5q222 0 377 127l-846 844q-111 -152 -111 -371z" />
    <glyph glyph-name="uni29BF" unicode="&#x29bf;" horiz-adv-x="1615" 
d="M807 -23q-205 0 -370.5 93.5t-259 259.5t-93.5 372q0 205 93.5 370.5t259 259t370.5 93.5q206 0 372 -93.5t259.5 -259t93.5 -370.5q0 -206 -93.5 -372t-259.5 -259.5t-372 -93.5zM807 1300q-254 0 -417 -164t-163 -434q0 -271 163 -435.5t417 -164.5t418 164.5
t164 435.5q0 134 -44 247t-121.5 189.5t-184.5 119t-232 42.5zM807 424q-120 0 -199.5 79t-79.5 199t79.5 199.5t199.5 79.5t199 -79.5t79 -199.5t-79 -199t-199 -79z" />
    <glyph glyph-name="uni2B12" unicode="&#x2b12;" horiz-adv-x="2084" 
d="M338 1409h1409v-1409h-1409v1409zM473 705v-578h1139v578h-1139z" />
    <glyph glyph-name="uni2B13" unicode="&#x2b13;" horiz-adv-x="2084" 
d="M338 0v1409h1409v-1409h-1409zM473 705h1139v577h-1139v-577z" />
    <glyph glyph-name="uni2B14" unicode="&#x2b14;" horiz-adv-x="2084" 
d="M338 0v1409h1409v-1409h-1409zM504 1282l1108 -1110v1110h-1108z" />
    <glyph glyph-name="uni2B15" unicode="&#x2b15;" horiz-adv-x="2084" 
d="M1747 1409v-1409h-1409v1409h1409zM473 1237v-1110h1108z" />
    <glyph glyph-name="uni2B16" unicode="&#x2b16;" horiz-adv-x="2084" 
d="M154 705l888 888l889 -888l-889 -889zM1761 705l-702 706v-1415z" />
    <glyph glyph-name="uni2B17" unicode="&#x2b17;" horiz-adv-x="2084" 
d="M1931 705l-889 -889l-888 889l888 888zM324 705l702 -709v1415z" />
    <glyph glyph-name="uni2B18" unicode="&#x2b18;" horiz-adv-x="2084" 
d="M1042 1593l889 -888l-889 -889l-888 889zM1042 -14l707 702h-1415z" />
    <glyph glyph-name="uni2B19" unicode="&#x2b19;" horiz-adv-x="2084" 
d="M1042 -184l-888 889l888 888l889 -888zM1042 1423l-708 -702h1415z" />
    <glyph glyph-name="J.ss01" unicode="&#xe000;" 
d="M-72 244l101 571h194l-108 -608q-4 -23 10 -23t18 23l258 1462h195l-250 -1425q-18 -105 -49 -161t-72 -74.5t-110 -18.5q-118 0 -165 57t-22 197z" />
    <glyph glyph-name="R.ss02" unicode="&#xe001;" horiz-adv-x="448" 
d="M483 1014q-20 -122 -80 -160q31 -28 31 -80q0 -42 -129 -774h-194q125 709 125 733q0 19 -17 19h-8l-131 -752h-195l293 1669h197q186 0 186 -162q0 -34 -12.5 -112.5t-65.5 -380.5zM346 1475h-8l-94 -537h8q13 0 20.5 13.5t14.5 54.5q78 441 78 452q0 17 -19 17z" />
    <glyph glyph-name="R.ss03" unicode="&#xe002;" horiz-adv-x="450" 
d="M178 1669h197q186 0 186 -162q0 -34 -12.5 -112.5t-65.5 -380.5q-20 -122 -80 -160q31 -28 31 -80q0 -36 -74 -455q-30 -173 -36 -319h-195q6 146 37 315q70 395 70 418q0 19 -17 19h-8l-131 -752h-195zM252 938q13 0 20.5 13.5t14.5 54.5q78 441 78 452q0 17 -19 17h-8
l-94 -537h8z" />
    <glyph glyph-name="caronSlovak" unicode="&#xe003;" horiz-adv-x="512" 
d="M397 1505h-104l29 164h176z" />
    <glyph glyph-name="commaaccent" unicode="&#xe004;" horiz-adv-x="512" 
d="M113 -205h-93l62 60h-47l18 108h135l-18 -108z" />
    <glyph glyph-name="commaaccent.alt" unicode="&#xe005;" horiz-adv-x="512" 
d="M393 1667h99l-58 -51h45l-18 -96h-142l19 96z" />
    <glyph glyph-name="idotaccent" unicode="&#xe009;" horiz-adv-x="223" 
d="M270 1663q33 0 52.5 -18t19.5 -48q0 -34 -23.5 -62t-68.5 -28q-33 0 -52.5 18t-19.5 48q0 34 23.5 62t68.5 28zM-115 0l258 1475h195l-258 -1475h-195z" />
    <glyph glyph-name="two.ss05" unicode="&#xe00a;" 
d="M365 1473q0 12 -13 12q-12 0 -16 -23l-70 -401h-194l63 364q18 105 49 161t72.5 74.5t110.5 18.5q98 0 146 -38t48 -130q0 -42 -63 -401q-20 -111 -50.5 -164.5t-107.5 -118.5l-102 -86q-22 -20 -31.5 -40t-16.5 -62l-75 -444h221l-33 -195h-416l109 637
q17 99 46.5 151.5t102.5 114.5l111 94q32 25 45 101q64 366 64 375z" />
    <glyph glyph-name="y.ss05" unicode="&#xe00b;" horiz-adv-x="419" 
d="M18 -102l17 102h-84l186 1475h195l-197 -1176h2l219 1176h183l-353 -1577h-168z" />
    <glyph glyph-name="zero.slash" unicode="&#xe00c;" 
d="M-115 0l39 100q-4 28 -4 47q0 25 9 85.5t55.5 330.5t150.5 862q18 103 49 159t73 75.5t110 19.5q134 0 176 -73l26 63h27l-41 -100q6 -21 6 -47q0 -25 -9 -85.5t-55.5 -330.5t-150.5 -862q-18 -103 -48.5 -159t-72.5 -75.5t-110 -19.5q-137 0 -176 76l-27 -66h-27z
M354 1485q-14 0 -18 -23q-60 -343 -98 -557l84 307q45 254 45 263q0 10 -13 10zM115 195q0 -11 12 -11q14 0 18 23q26 151 70.5 400.5t60.5 344.5l-88 -329q-73 -414 -73 -428z" />
    <glyph glyph-name="CR" horiz-adv-x="512" 
 />
    <glyph glyph-name="Q.stack" 
d="M113 0l10 61q-193 0 -193 158q0 25 8.5 83t52.5 311t144 812q18 103 49 159t73 75.5t110 19.5q97 0 145.5 -37.5t48.5 -119.5q0 -25 -8.5 -82.5t-53 -312.5t-143.5 -812q-20 -125 -71 -182h30l-22 -133h-180zM354 1485q-14 0 -18 -23q-211 -1184 -211 -1194q0 -12 12 -12
q15 0 19 23q211 1184 211 1194q0 12 -13 12z" />
    <glyph glyph-name="Agrave.stack" horiz-adv-x="399" 
d="M207 1618l10 61l295 -24l-6 -37h-299zM86 0l80 463h-25l-84 -463h-182l330 1608h299l-238 -1608h-180zM326 1495l-150 -836h23l143 836h-16z" />
    <glyph glyph-name="Aacute.stack" horiz-adv-x="399" 
d="M506 1618h-299l6 37l303 24zM86 0l80 463h-25l-84 -463h-182l330 1608h299l-238 -1608h-180zM326 1495l-150 -836h23l143 836h-16z" />
    <glyph glyph-name="Acircumflex.stack" horiz-adv-x="399" 
d="M391 1618l-29 37l-40 -37h-115l47 51h221l31 -51h-115zM86 0l80 463h-25l-84 -463h-182l330 1608h299l-238 -1608h-180zM326 1495l-150 -836h23l143 836h-16z" />
    <glyph glyph-name="Atilde.stack" horiz-adv-x="399" 
d="M514 1669q-9 -51 -84 -51q-30 0 -66 5t-55 5q-22 0 -22 -10h-80q9 51 82 51q32 0 68.5 -5t54.5 -5q22 0 22 10h80zM86 0l80 463h-25l-84 -463h-182l330 1608h299l-238 -1608h-180zM326 1495l-150 -836h23l143 836h-16z" />
    <glyph glyph-name="Adieresis.stack" horiz-adv-x="399" 
d="M207 1622l8 41h127l-8 -41h-127zM506 1622h-125l8 41h125zM86 0l80 463h-25l-84 -463h-182l330 1608h299l-238 -1608h-180zM326 1495l-150 -836h23l143 836h-16z" />
    <glyph glyph-name="Amacron.stack" horiz-adv-x="399" 
d="M186 1622l9 41h340l-9 -41h-340zM86 0l80 463h-25l-84 -463h-182l330 1608h299l-238 -1608h-180zM326 1495l-150 -836h23l143 836h-16z" />
    <glyph glyph-name="Abreve.stack" horiz-adv-x="399" 
d="M360 1645q60 0 74 24h80q-6 -25 -40.5 -37t-117.5 -12t-112 12t-29 37h80q1 -7 4 -11t18.5 -8.5t42.5 -4.5zM86 0l80 463h-25l-84 -463h-182l330 1608h299l-238 -1608h-180zM326 1495l-150 -836h23l143 836h-16z" />
    <glyph glyph-name="Aring.stack" horiz-adv-x="399" 
d="M86 0l80 463h-25l-84 -463h-182l330 1608h78q2 30 22.5 46.5t56.5 16.5q29 0 45.5 -12.5t16.5 -34.5q0 -12 -2 -16h82l-238 -1608h-180zM311 1610v-2h82q0 2 2 12q0 29 -37 29q-22 0 -34.5 -11.5t-12.5 -27.5zM326 1495l-150 -836h23l143 836h-16z" />
    <glyph glyph-name="Aringacute.stack" horiz-adv-x="399" 
d="M207 1618l6 37l303 24l-10 -61h-299zM266 0h-180l78 463h-25l-82 -463h-182l318 1546h81q2 30 23 47t57 17q29 0 45.5 -12.5t16.5 -34.5q0 -13 -2 -17h78zM350 1587q-22 0 -34.5 -11.5t-12.5 -27.5v-2h82q0 3 2 13q0 28 -37 28zM313 1434l-137 -775h23l131 775h-17z" />
    <glyph glyph-name="Aogonek.stack" horiz-adv-x="399" 
d="M96 61l80 465h-22l-84 -465h-183l328 1608h299l-238 -1608h-59q-27 -11 -36 -17t-9 -15q0 -11 23 -11q24 0 24 13v2h74v-4q0 -9 -10.5 -16.5t-38 -13t-68.5 -5.5q-121 0 -121 24q0 10 16.5 17.5t47 15t39.5 10.5h-62zM338 1556l-150 -835h23l143 835h-16z" />
    <glyph glyph-name="AEacute.stack" horiz-adv-x="575" 
d="M670 1618h-418l6 37l422 24zM100 0l82 471h-20l-88 -471h-195l326 1608h514l-35 -195h-141l-82 -471h143l-35 -192h-143l-98 -555h141l-33 -195h-336zM336 1413l-139 -747h20l131 747h-12z" />
    <glyph glyph-name="Cacute.stack" 
d="M588 1618h-418l6 37l422 24zM121 1354q18 103 48.5 159t72.5 75.5t110 19.5q195 0 195 -158q0 -43 -94 -592h-195q94 535 94 543q0 12 -12 12q-14 0 -18 -22q-209 -1185 -209 -1194q0 -13 12 -13q14 0 18 23q22 128 57 319.5t46 253.5h194q-11 -62 -42.5 -240.5
t-51.5 -295.5q-18 -103 -48.5 -159t-72.5 -75.5t-110 -19.5q-97 0 -146 37.5t-49 119.5q0 25 7 76t53 320.5t141 810.5z" />
    <glyph glyph-name="Ccircumflex.stack" 
d="M422 1618l-37 37l-49 -37h-143l57 51h274l41 -51h-143zM121 1354q18 103 48.5 159t72.5 75.5t110 19.5q195 0 195 -158q0 -43 -94 -592h-195q94 535 94 543q0 12 -12 12q-14 0 -18 -22q-209 -1185 -209 -1194q0 -13 12 -13q14 0 18 23q22 128 57 319.5t46 253.5h194
q-11 -62 -42.5 -240.5t-51.5 -295.5q-18 -103 -48.5 -159t-72.5 -75.5t-110 -19.5q-97 0 -146 37.5t-49 119.5q0 25 7 76t53 320.5t141 810.5z" />
    <glyph glyph-name="Ccaron.stack" 
d="M430 1669h143l-57 -51h-274l-41 51h143l37 -37zM121 1354q18 103 48.5 159t72.5 75.5t110 19.5q195 0 195 -158q0 -43 -94 -592h-195q94 535 94 543q0 12 -12 12q-14 0 -18 -22q-209 -1185 -209 -1194q0 -13 12 -13q14 0 18 23q22 128 57 319.5t46 253.5h194
q-11 -62 -42.5 -240.5t-51.5 -295.5q-18 -103 -48.5 -159t-72.5 -75.5t-110 -19.5q-97 0 -146 37.5t-49 119.5q0 25 7 76t53 320.5t141 810.5z" />
    <glyph glyph-name="Cdotaccent.stack" 
d="M121 1354q23 130 64 185.5t112 64.5q7 31 31.5 49t58.5 18q31 0 50.5 -17t19.5 -46q0 -11 -2 -15q92 -35 92 -143q0 -43 -94 -592h-195q94 535 94 543q0 12 -12 12q-14 0 -18 -22q-209 -1185 -209 -1194q0 -13 12 -13q14 0 18 23q22 128 57 319.5t46 253.5h194
q-11 -62 -42.5 -240.5t-51.5 -295.5q-18 -103 -48.5 -159t-72.5 -75.5t-110 -19.5q-97 0 -146 37.5t-49 119.5q0 25 7 76t53 320.5t141 810.5z" />
    <glyph glyph-name="Ccedilla.stack" 
d="M135 1425q18 103 49 159t73 75.5t110 19.5q97 0 145.5 -37.5t48.5 -119.5q0 -36 -96 -596h-195q64 364 93 525q4 21 4 22q0 12 -13 12q-14 0 -18 -23q-215 -1195 -215 -1204q0 -12 12 -12q16 0 19 20q22 124 56 318t46 262h195q-18 -102 -95 -535q-21 -120 -57.5 -177
t-97.5 -75l-17 -59h-188l37 63q-103 27 -103 146q0 25 7.5 76.5t54.5 322.5t145 817z" />
    <glyph glyph-name="Dcaron.stack" 
d="M432 1669h143l-57 -51h-274l-41 51h143l37 -37zM342 1608q106 0 156.5 -39t50.5 -119q0 -17 -3 -40.5t-23.5 -147.5t-59.5 -343.5t-117 -664.5q-28 -156 -76 -205t-170 -49h-215l283 1608h174zM147 225q205 1161 205 1170q0 18 -14 18h-10l-215 -1218h10q19 0 24 30z" />
    <glyph glyph-name="Egrave.stack" horiz-adv-x="360" 
d="M170 1618l10 61l332 -24l-6 -37h-336zM254 195l-33 -195h-336l283 1608h336l-35 -195h-141l-84 -471h145l-35 -194h-143l-98 -553h141z" />
    <glyph glyph-name="Eacute.stack" horiz-adv-x="360" 
d="M506 1618h-336l6 37l340 24zM254 195l-33 -195h-336l283 1608h336l-35 -195h-141l-84 -471h145l-35 -194h-143l-98 -553h141z" />
    <glyph glyph-name="Ecircumflex.stack" horiz-adv-x="360" 
d="M377 1618l-33 37l-45 -37h-129l53 51h246l37 -51h-129zM254 195l-33 -195h-336l283 1608h336l-35 -195h-141l-84 -471h145l-35 -194h-143l-98 -553h141z" />
    <glyph glyph-name="Ecaron.stack" horiz-adv-x="360" 
d="M385 1669h129l-53 -51h-246l-37 51h129l33 -37zM254 195l-33 -195h-336l283 1608h336l-35 -195h-141l-84 -471h145l-35 -194h-143l-98 -553h141z" />
    <glyph glyph-name="Edieresis.stack" horiz-adv-x="360" 
d="M170 1622l8 41h144l-9 -41h-143zM506 1622h-141l8 41h141zM254 195l-33 -195h-336l283 1608h336l-35 -195h-141l-84 -471h145l-35 -194h-143l-98 -553h141z" />
    <glyph glyph-name="Emacron.stack" horiz-adv-x="360" 
d="M170 1622l8 41h336l-8 -41h-336zM254 195l-33 -195h-336l283 1608h336l-35 -195h-141l-84 -471h145l-35 -194h-143l-98 -553h141z" />
    <glyph glyph-name="Ebreve.stack" horiz-adv-x="360" 
d="M338 1645q72 0 84 24h92q-8 -25 -46 -37t-134 -12q-64 0 -100.5 6t-48.5 16t-13 27h92q2 -7 4.5 -10.5t20 -8.5t49.5 -5zM254 195l-33 -195h-336l283 1608h336l-35 -195h-141l-84 -471h145l-35 -194h-143l-98 -553h141z" />
    <glyph glyph-name="Edotaccent.stack" horiz-adv-x="360" 
d="M254 195l-33 -195h-336l283 1608h90q8 29 31 46t57 17q31 0 50.5 -17t19.5 -46h88l-35 -195h-141l-84 -471h145l-35 -194h-143l-98 -553h141z" />
    <glyph glyph-name="Eogonek.stack" horiz-adv-x="360" 
d="M150 61q-28 -11 -37 -17t-9 -15q0 -11 23 -11q25 0 25 13v2h73v-4q0 -9 -10 -16.5t-37.5 -13t-68.5 -5.5q-121 0 -121 24q0 10 16 17.5t47 15t39 10.5h-194l282 1608h336l-35 -194h-141l-84 -474h145l-34 -194h-144l-98 -551h143l-35 -195h-81z" />
    <glyph glyph-name="Gcircumflex.stack" horiz-adv-x="448" 
d="M424 1618l-37 37l-49 -37h-143l57 51h274l41 -51h-143zM324 1391q-209 -1186 -209 -1196q0 -11 12 -11q14 0 18 23l66 377h-14l34 196h209l-137 -780h-55l-6 172q-16 -108 -56.5 -145t-113.5 -37q-81 0 -116.5 34.5t-35.5 122.5q0 24 8.5 81t52.5 313t142 813
q18 103 48.5 159t72.5 75.5t110 19.5q195 0 195 -158q0 -46 -96 -592h-195q96 535 96 543q0 12 -12 12q-14 0 -18 -22z" />
    <glyph glyph-name="Gbreve.stack" horiz-adv-x="448" 
d="M385 1645q76 0 88 24h96q-8 -25 -48 -37t-140 -12q-68 0 -106.5 6t-51.5 16t-14 27h96q4 -8 6 -11t21 -8t53 -5zM324 1391q-209 -1186 -209 -1196q0 -11 12 -11q14 0 18 23l66 377h-14l34 196h209l-137 -780h-55l-6 172q-16 -108 -56.5 -145t-113.5 -37
q-81 0 -116.5 34.5t-35.5 122.5q0 24 8.5 81t52.5 313t142 813q18 103 48.5 159t72.5 75.5t110 19.5q195 0 195 -158q0 -46 -96 -592h-195q96 535 96 543q0 12 -12 12q-14 0 -18 -22z" />
    <glyph glyph-name="Gdotaccent.stack" horiz-adv-x="448" 
d="M324 1391q-209 -1186 -209 -1196q0 -11 12 -11q14 0 18 23l66 377h-14l34 196h209l-137 -780h-55l-6 172q-16 -108 -56.5 -145t-113.5 -37q-81 0 -116.5 34.5t-35.5 122.5q0 24 8.5 81t52.5 313t142 813q23 129 63 184t111 66q8 31 31.5 49t58.5 18q31 0 50.5 -17
t19.5 -46q0 -11 -2 -15q94 -31 94 -143q0 -46 -96 -592h-195q96 535 96 543q0 12 -12 12q-14 0 -18 -22z" />
    <glyph glyph-name="Gcommaaccent.stack" horiz-adv-x="448" 
d="M338 1462q-215 -1197 -215 -1206q0 -10 12 -10q15 0 19 22l67 381h-14l35 197h209l-140 -785h-55l-6 172q-16 -108 -56.5 -145t-113.5 -37q-81 0 -116.5 35t-35.5 123q0 24 9 84.5t54 315.5t146 816q18 103 49 159t73 75.5t110 19.5q97 0 145.5 -37.5t48.5 -119.5
q0 -44 -100 -596h-195q77 430 100 540q1 6 1 7q0 12 -13 12q-14 0 -18 -23zM176 0h-168l15 41h176z" />
    <glyph glyph-name="Hcircumflex.stack" 
d="M422 1618l-37 37l-49 -37h-143l57 51h274l41 -51h-143zM109 0l133 754h-29l-133 -754h-195l283 1608h194l-116 -660h28l117 660h195l-283 -1608h-194z" />
    <glyph glyph-name="Igrave.stack" horiz-adv-x="223" 
d="M170 1618l10 61l191 -24l-6 -37h-195zM-115 0l283 1608h194l-282 -1608h-195z" />
    <glyph glyph-name="Iacute.stack" horiz-adv-x="223" 
d="M365 1618h-195l6 37l199 24zM-115 0l283 1608h194l-282 -1608h-195z" />
    <glyph glyph-name="Icircumflex.stack" horiz-adv-x="223" 
d="M291 1618l-17 37l-28 -37h-76l35 51h143l17 -51h-74zM-115 0l283 1608h194l-282 -1608h-195z" />
    <glyph glyph-name="Itilde.stack" horiz-adv-x="223" 
d="M317 1618q-21 0 -44 5t-35 5q-17 0 -17 -10h-51q9 51 57 51q20 0 43 -5t35 -5q17 0 17 10h51q-9 -51 -56 -51zM-115 0l283 1608h194l-282 -1608h-195z" />
    <glyph glyph-name="Idieresis.stack" horiz-adv-x="223" 
d="M170 1622l8 41h84l-8 -41h-84zM365 1622h-82l8 41h82zM-115 0l283 1608h194l-282 -1608h-195z" />
    <glyph glyph-name="Imacron.stack" horiz-adv-x="223" 
d="M373 1622h-213l8 41h213zM-115 0l283 1608h194l-282 -1608h-195z" />
    <glyph glyph-name="Ibreve.stack" horiz-adv-x="223" 
d="M272 1645q44 0 50 24h51q-5 -25 -28 -37t-77 -12q-55 0 -72.5 11.5t-17.5 37.5h51q0 -1 1.5 -5.5t3.5 -6.5t6 -5.5t12 -5t20 -1.5zM-115 0l283 1608h194l-282 -1608h-195z" />
    <glyph glyph-name="Idotaccent.stack" horiz-adv-x="223" 
d="M-115 0l283 1608h16q8 29 31 46t57 17q31 0 50.5 -17t19.5 -46h20l-282 -1608h-195z" />
    <glyph glyph-name="Iogonek.stack" horiz-adv-x="223" 
d="M27 61q-27 -11 -36 -17t-9 -15q0 -11 22 -11q25 0 25 13v2h73v-4q0 -9 -10 -16.5t-37.5 -13t-68.5 -5.5q-121 0 -121 24q0 10 16 17.5t47 15t39 10.5h-71l282 1608h195l-283 -1608h-63z" />
    <glyph glyph-name="Jcircumflex.stack" horiz-adv-x="262" 
d="M330 1618l-17 37l-28 -37h-76l35 51h143l16 -51h-73zM-121 0l37 217h16q30 0 35 33l240 1358h194l-245 -1389q-20 -116 -80.5 -167.5t-163.5 -51.5h-33z" />
    <glyph glyph-name="Jcircumflex.ss01" 
d="M541 1702l-27 59l-47 -59h-154l105 127h217l59 -127h-153zM-72 244l101 571h194l-108 -608q-4 -23 10 -23t18 23l258 1462h195l-250 -1425q-18 -105 -49 -161t-72 -74.5t-110 -18.5q-118 0 -165 57t-22 197z" />
    <glyph glyph-name="Jcircumflex.ss01.stack" 
d="M514 1618l-16 37l-29 -37h-76l35 51h143l17 -51h-74zM-72 244l101 571h194l-108 -608q-4 -23 10 -23t18 23l248 1401h195l-240 -1364q-18 -105 -49 -161t-72 -74.5t-110 -18.5q-118 0 -165 57t-22 197z" />
    <glyph glyph-name="Kcommaaccent.stack" horiz-adv-x="454" 
d="M-104 61l282 1608h195l-125 -715l172 715h194l-196 -801l-86 -807h-195l82 730l-129 -730h-194zM180 0h-168l15 41h176z" />
    <glyph glyph-name="Lacute.stack" horiz-adv-x="378" 
d="M365 1618h-195l6 37l199 24zM-115 0l283 1608h194l-249 -1413h161l-32 -195h-357z" />
    <glyph glyph-name="Lcommaaccent.stack" horiz-adv-x="378" 
d="M-104 61l282 1608h195l-248 -1413h162l-35 -195h-356zM147 0h-167l14 41h176z" />
    <glyph glyph-name="Nacute.stack" horiz-adv-x="448" 
d="M592 1618h-418l6 37l422 24zM141 0l66 840l-148 -840h-174l283 1608h164l-76 -895l158 895h174l-283 -1608h-164z" />
    <glyph glyph-name="Ncaron.stack" horiz-adv-x="448" 
d="M434 1669h144l-58 -51h-274l-41 51h143l37 -37zM141 0l66 840l-148 -840h-174l283 1608h164l-76 -895l158 895h174l-283 -1608h-164z" />
    <glyph glyph-name="Ntilde.stack" horiz-adv-x="448" 
d="M571 1669q-9 -51 -98 -51q-38 0 -81.5 5t-65.5 5q-27 0 -27 -10h-96q9 51 98 51q38 0 82 -5t66 -5q26 0 26 10h96zM141 0l66 840l-148 -840h-174l283 1608h164l-76 -895l158 895h174l-283 -1608h-164z" />
    <glyph glyph-name="Ncommaaccent.stack" horiz-adv-x="448" 
d="M152 61l67 840l-149 -840h-174l282 1608h164l-76 -895l158 895h174l-283 -1608h-163zM178 0h-168l15 41h176z" />
    <glyph glyph-name="Ograve.stack" 
d="M170 1618l10 61l414 -24l-6 -37h-418zM356 1608q195 0 195 -158q0 -25 -8.5 -83t-52.5 -311t-144 -812q-18 -103 -48.5 -159t-72.5 -75.5t-110 -19.5q-97 0 -146 37.5t-49 119.5q0 25 8.5 82.5t53 312.5t143.5 812q18 103 48.5 159t72.5 75.5t110 19.5zM344 1413
q-14 0 -18 -22q-211 -1184 -211 -1194q0 -13 12 -13q14 0 18 23q211 1184 211 1194q0 12 -12 12z" />
    <glyph glyph-name="Oacute.stack" 
d="M588 1618h-418l6 37l422 24zM356 1608q195 0 195 -158q0 -25 -8.5 -83t-52.5 -311t-144 -812q-18 -103 -48.5 -159t-72.5 -75.5t-110 -19.5q-97 0 -146 37.5t-49 119.5q0 25 8.5 82.5t53 312.5t143.5 812q18 103 48.5 159t72.5 75.5t110 19.5zM344 1413q-14 0 -18 -22
q-211 -1184 -211 -1194q0 -13 12 -13q14 0 18 23q211 1184 211 1194q0 12 -12 12z" />
    <glyph glyph-name="Ocircumflex.stack" 
d="M422 1618l-37 37l-49 -37h-143l57 51h274l41 -51h-143zM356 1608q195 0 195 -158q0 -25 -8.5 -83t-52.5 -311t-144 -812q-18 -103 -48.5 -159t-72.5 -75.5t-110 -19.5q-97 0 -146 37.5t-49 119.5q0 25 8.5 82.5t53 312.5t143.5 812q18 103 48.5 159t72.5 75.5t110 19.5z
M344 1413q-14 0 -18 -22q-211 -1184 -211 -1194q0 -13 12 -13q14 0 18 23q211 1184 211 1194q0 12 -12 12z" />
    <glyph glyph-name="Otilde.stack" 
d="M567 1669q-9 -51 -98 -51q-38 0 -81.5 5t-65.5 5q-27 0 -27 -10h-96q9 51 98 51q38 0 81.5 -5t65.5 -5q27 0 27 10h96zM356 1608q195 0 195 -158q0 -25 -8.5 -83t-52.5 -311t-144 -812q-18 -103 -48.5 -159t-72.5 -75.5t-110 -19.5q-97 0 -146 37.5t-49 119.5
q0 25 8.5 82.5t53 312.5t143.5 812q18 103 48.5 159t72.5 75.5t110 19.5zM344 1413q-14 0 -18 -22q-211 -1184 -211 -1194q0 -13 12 -13q14 0 18 23q211 1184 211 1194q0 12 -12 12z" />
    <glyph glyph-name="Odieresis.stack" 
d="M170 1622l8 41h178l-8 -41h-178zM588 1622h-176l8 41h176zM356 1608q195 0 195 -158q0 -25 -8.5 -83t-52.5 -311t-144 -812q-18 -103 -48.5 -159t-72.5 -75.5t-110 -19.5q-97 0 -146 37.5t-49 119.5q0 25 8.5 82.5t53 312.5t143.5 812q18 103 48.5 159t72.5 75.5
t110 19.5zM344 1413q-14 0 -18 -22q-211 -1184 -211 -1194q0 -13 12 -13q14 0 18 23q211 1184 211 1194q0 12 -12 12z" />
    <glyph glyph-name="Omacron.stack" 
d="M170 1622l8 41h418l-8 -41h-418zM356 1608q195 0 195 -158q0 -25 -8.5 -83t-52.5 -311t-144 -812q-18 -103 -48.5 -159t-72.5 -75.5t-110 -19.5q-97 0 -146 37.5t-49 119.5q0 25 8.5 82.5t53 312.5t143.5 812q18 103 48.5 159t72.5 75.5t110 19.5zM344 1413
q-14 0 -18 -22q-211 -1184 -211 -1194q0 -13 12 -13q14 0 18 23q211 1184 211 1194q0 12 -12 12z" />
    <glyph glyph-name="Obreve.stack" 
d="M471 1669h96q-8 -25 -48 -37t-140 -12q-68 0 -106.5 6t-51.5 16t-14 27h96q4 -8 6 -11t21 -8t53 -5q76 0 88 24zM356 1608q195 0 195 -158q0 -25 -8.5 -83t-52.5 -311t-144 -812q-18 -103 -48.5 -159t-72.5 -75.5t-110 -19.5q-97 0 -146 37.5t-49 119.5q0 25 8.5 82.5
t53 312.5t143.5 812q18 103 48.5 159t72.5 75.5t110 19.5zM344 1413q-14 0 -18 -22q-211 -1184 -211 -1194q0 -13 12 -13q14 0 18 23q211 1184 211 1194q0 12 -12 12z" />
    <glyph glyph-name="Ohungarumlaut.stack" 
d="M360 1618h-77l20 51h111zM483 1618h-77l20 51h113zM356 1608q195 0 195 -158q0 -25 -8.5 -83t-52.5 -311t-144 -812q-18 -103 -48.5 -159t-72.5 -75.5t-110 -19.5q-97 0 -146 37.5t-49 119.5q0 25 8.5 82.5t53 312.5t143.5 812q18 103 48.5 159t72.5 75.5t110 19.5z
M344 1413q-14 0 -18 -22q-211 -1184 -211 -1194q0 -13 12 -13q14 0 18 23q211 1184 211 1194q0 12 -12 12z" />
    <glyph glyph-name="Oslashacute.stack" 
d="M588 1618h-418l6 37l422 24zM-115 0l41 98q-6 21 -6 49q0 25 8.5 82.5t53 312.5t143.5 812q18 103 48.5 159t72.5 75.5t110 19.5q131 0 174 -72l27 61h27l-39 -94q6 -24 6 -53q0 -25 -8.5 -83t-52.5 -311t-144 -812q-18 -103 -48.5 -159t-72.5 -75.5t-110 -19.5
q-134 0 -176 73l-27 -63h-27zM344 1413q-14 0 -18 -22q-12 -68 -45.5 -250.5t-47.5 -263.5l84 301q39 217 39 223q0 12 -12 12zM115 197q0 -13 12 -13q14 0 18 23q112 631 129 727l-86 -320q-73 -404 -73 -417z" />
    <glyph glyph-name="Racute.stack" horiz-adv-x="450" 
d="M582 1618h-418l6 37l422 24zM135 0l76 698h-8l-123 -698h-195l283 1608h178q109 0 158 -40t49 -134q0 -39 -74 -463q-26 -159 -86 -219l-76 -752h-182zM340 1413h-10l-92 -518h12q13 0 18.5 9t10.5 36q77 438 77 453q0 20 -16 20z" />
    <glyph glyph-name="Rcaron.stack" horiz-adv-x="450" 
d="M424 1669h143l-57 -51h-274l-41 51h143l37 -37zM135 0l76 698h-8l-123 -698h-195l283 1608h178q109 0 158 -40t49 -134q0 -39 -74 -463q-26 -159 -86 -219l-76 -752h-182zM340 1413h-10l-92 -518h12q13 0 18.5 9t10.5 36q77 438 77 453q0 20 -16 20z" />
    <glyph glyph-name="Rcommaaccent.stack" horiz-adv-x="450" 
d="M145 61l76 699h-8l-123 -699h-194l282 1608h178q109 0 158 -40t49 -134q0 -39 -74 -463q-26 -159 -86 -219l-75 -752h-183zM350 1475h-10l-92 -519h12q13 0 18.5 9t10.5 36q78 444 78 453q0 21 -17 21zM195 0h-168l14 41h176z" />
    <glyph glyph-name="Racute.ss02" horiz-adv-x="448" 
d="M457 1702h-142l43 127h211zM483 1014q-20 -122 -80 -160q31 -28 31 -80q0 -42 -129 -774h-194q125 709 125 733q0 19 -17 19h-8l-131 -752h-195l293 1669h197q186 0 186 -162q0 -34 -12.5 -112.5t-65.5 -380.5zM346 1475h-8l-94 -537h8q13 0 20.5 13.5t14.5 54.5
q78 441 78 452q0 17 -19 17z" />
    <glyph glyph-name="Rcaron.ss02" horiz-adv-x="448" 
d="M446 1829h154l-104 -127h-217l-60 127h154l26 -60zM483 1014q-20 -122 -80 -160q31 -28 31 -80q0 -42 -129 -774h-194q125 709 125 733q0 19 -17 19h-8l-131 -752h-195l293 1669h197q186 0 186 -162q0 -34 -12.5 -112.5t-65.5 -380.5zM346 1475h-8l-94 -537h8
q13 0 20.5 13.5t14.5 54.5q78 441 78 452q0 17 -19 17z" />
    <glyph glyph-name="Rcommaaccent.ss02" horiz-adv-x="448" 
d="M483 1014q-20 -122 -80 -160q31 -28 31 -80q0 -42 -129 -774h-194q125 709 125 733q0 19 -17 19h-8l-131 -752h-195l293 1669h197q186 0 186 -162q0 -34 -12.5 -112.5t-65.5 -380.5zM346 1475h-8l-94 -537h8q13 0 20.5 13.5t14.5 54.5q78 441 78 452q0 17 -19 17z
M100 -205h-92l62 60h-47l18 108h135l-18 -108z" />
    <glyph glyph-name="Racute.ss02.stack" horiz-adv-x="448" 
d="M582 1618h-418l6 37l422 24zM477 981q-20 -122 -80 -160q31 -28 31 -80q0 -42 -123 -741h-194q118 670 118 700q0 19 -16 19h-6l-127 -719h-195l283 1608h197q186 0 186 -162q0 -34 -12 -110t-62 -355zM336 1413h-8l-88 -508h6q13 0 20.5 13.5t14.5 54.5q73 407 73 424
q0 16 -18 16z" />
    <glyph glyph-name="Rcaron.ss02.stack" horiz-adv-x="448" 
d="M424 1669h143l-57 -51h-274l-41 51h143l37 -37zM477 981q-20 -122 -80 -160q31 -28 31 -80q0 -42 -123 -741h-194q118 670 118 700q0 19 -16 19h-6l-127 -719h-195l283 1608h197q186 0 186 -162q0 -34 -12 -110t-62 -355zM336 1413h-8l-88 -508h6q13 0 20.5 13.5
t14.5 54.5q73 407 73 424q0 16 -18 16z" />
    <glyph glyph-name="Rcommaaccent.ss02.stack" horiz-adv-x="448" 
d="M487 1042q-11 -65 -29 -102t-50 -57q30 -27 30 -80q0 -43 -123 -742h-194q119 676 119 701q0 18 -17 18h-6l-127 -719h-194l282 1608h197q186 0 186 -162q0 -34 -12 -110t-62 -355zM346 1475h-8l-88 -508h6q13 0 20.5 13t14.5 54q74 412 74 424q0 17 -19 17zM195 0h-168
l14 41h176z" />
    <glyph glyph-name="Racute.ss03" horiz-adv-x="450" 
d="M457 1702h-142l43 127h211zM178 1669h197q186 0 186 -162q0 -34 -12.5 -112.5t-65.5 -380.5q-20 -122 -80 -160q31 -28 31 -80q0 -36 -74 -455q-30 -173 -36 -319h-195q6 146 37 315q70 395 70 418q0 19 -17 19h-8l-131 -752h-195zM252 938q13 0 20.5 13.5t14.5 54.5
q78 441 78 452q0 17 -19 17h-8l-94 -537h8z" />
    <glyph glyph-name="Rcaron.ss03" horiz-adv-x="450" 
d="M446 1829h154l-104 -127h-217l-60 127h154l26 -60zM178 1669h197q186 0 186 -162q0 -34 -12.5 -112.5t-65.5 -380.5q-20 -122 -80 -160q31 -28 31 -80q0 -36 -74 -455q-30 -173 -36 -319h-195q6 146 37 315q70 395 70 418q0 19 -17 19h-8l-131 -752h-195zM252 938
q13 0 20.5 13.5t14.5 54.5q78 441 78 452q0 17 -19 17h-8l-94 -537h8z" />
    <glyph glyph-name="Rcommaaccent.ss03" horiz-adv-x="450" 
d="M178 1669h197q186 0 186 -162q0 -34 -12.5 -112.5t-65.5 -380.5q-20 -122 -80 -160q31 -28 31 -80q0 -36 -74 -455q-30 -173 -36 -319h-195q6 146 37 315q70 395 70 418q0 19 -17 19h-8l-131 -752h-195zM252 938q13 0 20.5 13.5t14.5 54.5q78 441 78 452q0 17 -19 17h-8
l-94 -537h8zM100 -205h-92l62 60h-47l18 108h135l-18 -108z" />
    <glyph glyph-name="Racute.ss03.stack" horiz-adv-x="450" 
d="M582 1618h-418l6 37l422 24zM168 1608h197q186 0 186 -162q0 -34 -11.5 -109t-60.5 -354q-20 -122 -80 -160q31 -28 31 -80q0 -36 -70 -424q-30 -173 -36 -319h-195q6 146 37 315q65 359 65 387q0 19 -16 19h-8l-127 -721h-195zM248 907q13 0 20.5 13.5t14.5 54.5
q71 405 71 422q0 16 -18 16h-8l-88 -506h8z" />
    <glyph glyph-name="Rcaron.ss03.stack" horiz-adv-x="450" 
d="M424 1669h143l-57 -51h-274l-41 51h143l37 -37zM168 1608h197q186 0 186 -162q0 -34 -11.5 -109t-60.5 -354q-20 -122 -80 -160q31 -28 31 -80q0 -36 -70 -424q-30 -173 -36 -319h-195q6 146 37 315q65 359 65 387q0 19 -16 19h-8l-127 -721h-195zM248 907
q13 0 20.5 13.5t14.5 54.5q71 405 71 422q0 16 -18 16h-8l-88 -506h8z" />
    <glyph glyph-name="Rcommaaccent.ss03.stack" horiz-adv-x="450" 
d="M178 1669h197q186 0 186 -162q0 -34 -11.5 -109t-60.5 -354q-11 -65 -29 -102t-50 -57q30 -27 30 -80q0 -41 -69 -424q-31 -180 -37 -320h-195q6 147 37 316q66 365 66 387q0 18 -17 18h-8l-127 -721h-194zM258 969q13 0 20.5 13t14.5 54q72 410 72 422q0 17 -19 17h-8
l-88 -506h8zM195 0h-168l14 41h176z" />
    <glyph glyph-name="Sacute.stack" horiz-adv-x="444" 
d="M588 1618h-418l6 37l422 24zM123 1354q18 104 48.5 160t72 75t110.5 19q98 0 146.5 -38t48.5 -130q0 -32 -76 -467h-194q73 408 73 426q0 14 -10 14q-14 0 -18 -22q-70 -394 -70 -410q0 -20 15 -43.5t67 -85.5q47 -58 64.5 -90.5t17.5 -75.5q0 -30 -72 -442
q-18 -104 -48.5 -160t-72 -75t-110.5 -19q-98 0 -146.5 38.5t-48.5 131.5q0 44 76 471h194q-75 -418 -75 -434q0 -13 10 -13q14 0 18 23q74 425 74 440q0 19 -14 40.5t-60 78.5q-53 64 -70.5 95.5t-17.5 72.5q0 31 68 420z" />
    <glyph glyph-name="Scircumflex.stack" horiz-adv-x="444" 
d="M422 1618l-37 37l-49 -37h-143l57 51h274l41 -51h-143zM123 1354q18 104 48.5 160t72 75t110.5 19q98 0 146.5 -38t48.5 -130q0 -32 -76 -467h-194q73 408 73 426q0 14 -10 14q-14 0 -18 -22q-70 -394 -70 -410q0 -20 15 -43.5t67 -85.5q47 -58 64.5 -90.5t17.5 -75.5
q0 -30 -72 -442q-18 -104 -48.5 -160t-72 -75t-110.5 -19q-98 0 -146.5 38.5t-48.5 131.5q0 44 76 471h194q-75 -418 -75 -434q0 -13 10 -13q14 0 18 23q74 425 74 440q0 19 -14 40.5t-60 78.5q-53 64 -70.5 95.5t-17.5 72.5q0 31 68 420z" />
    <glyph glyph-name="Scaron.stack" horiz-adv-x="444" 
d="M430 1669h143l-57 -51h-274l-41 51h143l37 -37zM123 1354q18 104 48.5 160t72 75t110.5 19q98 0 146.5 -38t48.5 -130q0 -32 -76 -467h-194q73 408 73 426q0 14 -10 14q-14 0 -18 -22q-70 -394 -70 -410q0 -20 15 -43.5t67 -85.5q47 -58 64.5 -90.5t17.5 -75.5
q0 -30 -72 -442q-18 -104 -48.5 -160t-72 -75t-110.5 -19q-98 0 -146.5 38.5t-48.5 131.5q0 44 76 471h194q-75 -418 -75 -434q0 -13 10 -13q14 0 18 23q74 425 74 440q0 19 -14 40.5t-60 78.5q-53 64 -70.5 95.5t-17.5 72.5q0 31 68 420z" />
    <glyph glyph-name="Scedilla.stack" horiz-adv-x="444" 
d="M137 1425q18 104 49 160t72.5 75t110.5 19q98 0 146 -38t48 -130q0 -24 -78 -471h-194q76 425 76 430q0 15 -11 15q-14 0 -18 -23q-72 -406 -72 -420q0 -20 15 -43.5t67 -85.5q48 -59 65 -90.5t17 -74.5q0 -31 -72 -443q-21 -123 -58.5 -178.5t-100.5 -69.5l-17 -57h-188
l37 63q-99 31 -99 158q0 48 76 475h195q-76 -424 -76 -438q0 -12 10 -12q15 0 19 22q73 420 73 441q0 19 -13.5 40.5t-59.5 77.5q-53 64 -70.5 95.5t-17.5 72.5q0 36 69 430z" />
    <glyph glyph-name="Scommaaccent.stack" horiz-adv-x="444" 
d="M137 1425q18 104 49 160t72.5 75t110.5 19q98 0 146 -38t48 -130q0 -24 -78 -471h-194q76 425 76 430q0 15 -11 15q-14 0 -18 -23q-72 -406 -72 -420q0 -20 15 -43.5t67 -85.5q48 -59 65 -90.5t17 -74.5q0 -31 -72 -443q-18 -104 -48.5 -160t-72 -75t-110.5 -19
q-98 0 -146.5 38.5t-48.5 131.5q0 48 76 475h195q-76 -424 -76 -438q0 -12 10 -12q15 0 19 22q73 420 73 441q0 19 -13.5 40.5t-59.5 77.5q-53 64 -70.5 95.5t-17.5 72.5q0 36 69 430zM174 0h-168l14 41h177z" />
    <glyph glyph-name="Tcaron.stack" horiz-adv-x="440" 
d="M428 1669h143l-57 -51h-274l-41 51h143l37 -37zM549 1413h-113l-248 -1413h-194l248 1413h-113l35 195h420z" />
    <glyph glyph-name="Tcommaaccent.stack" horiz-adv-x="440" 
d="M559 1475h-113l-247 -1414h-195l248 1414h-113l35 194h420zM170 0h-168l14 41h177z" />
    <glyph glyph-name="Ugrave.stack" 
d="M170 1618l10 61l414 -24l-6 -37h-418zM586 1608l-240 -1364q-18 -105 -49 -161t-72 -74.5t-110 -18.5q-118 0 -165 57t-22 197l240 1364h194l-247 -1401q-4 -23 10 -23t18 23l248 1401h195z" />
    <glyph glyph-name="Uacute.stack" 
d="M588 1618h-418l6 37l422 24zM586 1608l-240 -1364q-18 -105 -49 -161t-72 -74.5t-110 -18.5q-118 0 -165 57t-22 197l240 1364h194l-247 -1401q-4 -23 10 -23t18 23l248 1401h195z" />
    <glyph glyph-name="Ucircumflex.stack" 
d="M422 1618l-37 37l-49 -37h-143l57 51h274l41 -51h-143zM586 1608l-240 -1364q-18 -105 -49 -161t-72 -74.5t-110 -18.5q-118 0 -165 57t-22 197l240 1364h194l-247 -1401q-4 -23 10 -23t18 23l248 1401h195z" />
    <glyph glyph-name="Utilde.stack" 
d="M567 1669q-9 -51 -98 -51q-38 0 -81.5 5t-65.5 5q-27 0 -27 -10h-96q9 51 98 51q38 0 81.5 -5t65.5 -5q27 0 27 10h96zM586 1608l-240 -1364q-18 -105 -49 -161t-72 -74.5t-110 -18.5q-118 0 -165 57t-22 197l240 1364h194l-247 -1401q-4 -23 10 -23t18 23l248 1401h195z
" />
    <glyph glyph-name="Udieresis.stack" 
d="M170 1622l8 41h178l-8 -41h-178zM588 1622h-176l8 41h176zM586 1608l-240 -1364q-18 -105 -49 -161t-72 -74.5t-110 -18.5q-118 0 -165 57t-22 197l240 1364h194l-247 -1401q-4 -23 10 -23t18 23l248 1401h195z" />
    <glyph glyph-name="Umacron.stack" 
d="M170 1622l8 41h418l-8 -41h-418zM586 1608l-240 -1364q-18 -105 -49 -161t-72 -74.5t-110 -18.5q-118 0 -165 57t-22 197l240 1364h194l-247 -1401q-4 -23 10 -23t18 23l248 1401h195z" />
    <glyph glyph-name="Ubreve.stack" 
d="M383 1645q76 0 88 24h96q-8 -25 -48 -37t-140 -12q-68 0 -106.5 6t-51.5 16t-14 27h96q4 -8 6 -11t21 -8t53 -5zM586 1608l-240 -1364q-18 -105 -49 -161t-72 -74.5t-110 -18.5q-118 0 -165 57t-22 197l240 1364h194l-247 -1401q-4 -23 10 -23t18 23l248 1401h195z" />
    <glyph glyph-name="Uring.stack" 
d="M586 1608l-240 -1364q-18 -105 -49 -161t-72 -74.5t-110 -18.5q-118 0 -165 57t-22 197l240 1364h166q-2 4 -2 12q0 22 14.5 36.5t38.5 14.5q19 0 31 -10.5t12 -28.5q0 -15 -6 -24h164zM383 1647q-25 0 -25 -25q0 -16 19 -16q24 0 24 24q0 17 -18 17zM115 207
q-4 -23 10 -23t18 23l244 1376l-12 -2q-13 0 -17 2z" />
    <glyph glyph-name="Uhungarumlaut.stack" 
d="M360 1618h-77l20 51h111zM483 1618h-77l20 51h113zM586 1608l-240 -1364q-18 -105 -49 -161t-72 -74.5t-110 -18.5q-118 0 -165 57t-22 197l240 1364h194l-247 -1401q-4 -23 10 -23t18 23l248 1401h195z" />
    <glyph glyph-name="Uogonek.stack" 
d="M401 1669h195l-240 -1364q-18 -105 -49 -161t-72 -74.5t-110 -18.5h-2q-23 -11 -23 -22t23 -11q24 0 24 13v2h74v-4q0 -9 -10.5 -16.5t-38 -13t-68.5 -5.5q-120 0 -120 24q0 4 2.5 7t7.5 6.5t10 5.5t14.5 5t15 4.5l16.5 4.5t16 4q-85 12 -117.5 70.5t-9.5 179.5l239 1364
h195l-248 -1401q-4 -22 10 -22q15 0 19 22z" />
    <glyph glyph-name="Wgrave.stack" horiz-adv-x="632" 
d="M264 1618l10 61l414 -24l-6 -37h-418zM-78 0l236 1608h182l-182 -1059l227 1059h170l-145 -1059l192 1059h180l-325 -1608h-240l135 940l-194 -940h-236z" />
    <glyph glyph-name="Wacute.stack" horiz-adv-x="632" 
d="M682 1618h-418l6 37l422 24zM-78 0l236 1608h182l-182 -1059l227 1059h170l-145 -1059l192 1059h180l-325 -1608h-240l135 940l-194 -940h-236z" />
    <glyph glyph-name="Wcircumflex.stack" horiz-adv-x="632" 
d="M516 1618l-37 37l-49 -37h-143l57 51h274l41 -51h-143zM-78 0l236 1608h182l-182 -1059l227 1059h170l-145 -1059l192 1059h180l-325 -1608h-240l135 940l-194 -940h-236z" />
    <glyph glyph-name="Wdieresis.stack" horiz-adv-x="632" 
d="M264 1622l8 41h179l-9 -41h-178zM682 1622h-176l8 41h176zM-78 0l236 1608h182l-182 -1059l227 1059h170l-145 -1059l192 1059h180l-325 -1608h-240l135 940l-194 -940h-236z" />
    <glyph glyph-name="Ygrave.stack" horiz-adv-x="423" 
d="M170 1618l10 61l391 -24l-6 -37h-395zM80 537l88 1071h172l-88 -623h6l133 623h172l-289 -1071l-94 -537h-194z" />
    <glyph glyph-name="Yacute.stack" horiz-adv-x="423" 
d="M565 1618h-395l6 37l399 24zM80 537l88 1071h172l-88 -623h6l133 623h172l-289 -1071l-94 -537h-194z" />
    <glyph glyph-name="Ycircumflex.stack" horiz-adv-x="423" 
d="M412 1618l-37 37l-49 -37h-144l58 51h274l41 -51h-143zM80 537l88 1071h172l-88 -623h6l133 623h172l-289 -1071l-94 -537h-194z" />
    <glyph glyph-name="Ydieresis.stack" horiz-adv-x="423" 
d="M160 1622l8 41h178l-8 -41h-178zM578 1622h-177l9 41h176zM80 537l88 1071h172l-88 -623h6l133 623h172l-289 -1071l-94 -537h-194z" />
    <glyph glyph-name="Zacute.stack" horiz-adv-x="329" 
d="M471 1618h-293l6 37l297 24zM-115 0l21 117l340 1296h-105l35 195h293l-20 -117l-340 -1296h110l-33 -195h-301z" />
    <glyph glyph-name="Zcaron.stack" horiz-adv-x="329" 
d="M367 1669h112l-47 -51h-215l-31 51h113l29 -37zM-115 0l21 117l340 1296h-105l35 195h293l-20 -117l-340 -1296h110l-33 -195h-301z" />
    <glyph glyph-name="Zdotaccent.stack" horiz-adv-x="329" 
d="M-115 0l21 117l340 1296h-105l35 195h74q8 29 31 46t57 17q31 0 50.5 -17t19.5 -46h61l-20 -117l-340 -1296h110l-33 -195h-301z" />
    <glyph glyph-name="r.ss04" 
d="M80 0h-195l260 1475h195l-35 -197q21 117 54 162t87 45q67 0 83 -54.5t-11 -211.5l-78 -443h-194l82 467q7 43 -9 43q-13 0 -20 -43z" />
    <glyph glyph-name="racute.ss04" 
d="M434 1507h-141l43 127h211zM80 0h-195l260 1475h195l-35 -197q21 117 54 162t87 45q67 0 83 -54.5t-11 -211.5l-78 -443h-194l82 467q7 43 -9 43q-13 0 -20 -43z" />
    <glyph glyph-name="rcaron.ss04" 
d="M424 1634h154l-105 -127h-217l-59 127h153l27 -59zM80 0h-195l260 1475h195l-35 -197q21 117 54 162t87 45q67 0 83 -54.5t-11 -211.5l-78 -443h-194l82 467q7 43 -9 43q-13 0 -20 -43z" />
    <glyph glyph-name="rcommaaccent.ss04" 
d="M80 0h-195l260 1475h195l-35 -197q21 117 54 162t87 45q67 0 83 -54.5t-11 -211.5l-78 -443h-194l82 467q7 43 -9 43q-13 0 -20 -43zM-29 -205h-92l62 60h-47l18 108h135l-18 -108z" />
    <glyph glyph-name="ygrave.ss05" horiz-adv-x="419" 
d="M279 1507l-68 127h211l-2 -127h-141zM18 -102l17 102h-84l186 1475h195l-197 -1176h2l219 1176h183l-353 -1577h-168z" />
    <glyph glyph-name="yacute.ss05" horiz-adv-x="419" 
d="M420 1507h-141l43 127h210zM18 -102l17 102h-84l186 1475h195l-197 -1176h2l219 1176h183l-353 -1577h-168z" />
    <glyph glyph-name="ycircumflex.ss05" horiz-adv-x="419" 
d="M387 1507l-27 60l-47 -60h-153l104 127h217l60 -127h-154zM18 -102l17 102h-84l186 1475h195l-197 -1176h2l219 1176h183l-353 -1577h-168z" />
    <glyph glyph-name="ydieresis.ss05" horiz-adv-x="419" 
d="M205 1513l24 142h127l-24 -142h-127zM500 1513h-127l24 142h127zM18 -102l17 102h-84l186 1475h195l-197 -1176h2l219 1176h183l-353 -1577h-168z" />
    <glyph glyph-name="hyphen.cap" horiz-adv-x="270" 
d="M254 756h-231l26 155h232z" />
    <glyph glyph-name="exclamdown.cap" horiz-adv-x="237" 
d="M184 1669h197l-35 -194h-196zM295 1372l-209 -1372h-192l276 1372h125z" />
    <glyph glyph-name="questiondown.cap" horiz-adv-x="468" 
d="M348 1669h199l-33 -194h-199zM362 248q-28 -158 -72 -208t-163 -50q-103 0 -148 33t-45 122q0 51 70 439q14 79 37 135.5t48 83.5t52.5 50.5t50.5 39t41.5 45t26.5 72.5l64 362h145l-66 -373q-14 -78 -36.5 -129.5t-46 -77.5t-47 -47.5t-43 -57t-29.5 -89.5
q-70 -395 -70 -401q0 -13 12 -13q14 0 19 23l74 422h194z" />
    <glyph glyph-name="guilsinglleft.cap" horiz-adv-x="227" 
d="M27 834l174 475h104l-186 -496l18 -455h-94z" />
    <glyph glyph-name="guilsinglright.cap" horiz-adv-x="227" 
d="M221 834l-174 -476h-104l186 496l-18 455h94z" />
    <glyph glyph-name="guillemotleft.cap" horiz-adv-x="366" 
d="M27 834l174 475h104l-186 -496l18 -455h-94zM166 834l174 475h104l-186 -496l18 -455h-94z" />
    <glyph glyph-name="guillemotright.cap" horiz-adv-x="366" 
d="M221 834l-174 -476h-104l186 496l-18 455h94zM360 834l-174 -476h-104l186 496l-18 455h94z" />
    <glyph glyph-name="endash.cap" horiz-adv-x="696" 
d="M680 795h-655l14 79h655z" />
    <glyph glyph-name="emdash.cap" horiz-adv-x="1392" 
d="M1376 795h-1351l14 79h1352z" />
    <glyph glyph-name="periodcentered.cap" horiz-adv-x="233" 
d="M215 737h-199l35 195h199z" />
    <glyph glyph-name="parenleft.cap" horiz-adv-x="256" 
d="M326 1669h75q-158 -392 -237 -833q-77 -450 -55 -836h-76q-14 279 -6.5 463t39.5 373q34 189 90.5 371t169.5 462z" />
    <glyph glyph-name="parenright.cap" horiz-adv-x="256" 
d="M258 1669q14 -279 6.5 -463t-41.5 -372q-32 -189 -88.5 -371.5t-169.5 -462.5h-76q75 187 138 408.5t98 425.5q79 444 57 835h76z" />
    <glyph glyph-name="bracketleft.cap" horiz-adv-x="256" 
d="M-76 0l293 1669h189l-11 -59h-90l-272 -1551h90l-10 -59h-189z" />
    <glyph glyph-name="bracketright.cap" horiz-adv-x="256" 
d="M-115 0l11 59h90l272 1551h-90l10 59h187l-293 -1669h-187z" />
    <glyph glyph-name="braceleft.cap" horiz-adv-x="256" 
d="M25 805l10 61q37 1 55 25.5t27 79.5l92 526q19 101 57.5 136.5t134.5 35.5h5l-11 -59h-12q-32 0 -48.5 -21.5t-25.5 -77.5l-90 -512q-25 -128 -110 -163q76 -37 51 -164l-90 -514q-9 -56 0.5 -77.5t40.5 -21.5h12l-10 -59h-4q-96 0 -123.5 36t-10.5 136l95 528
q11 52 1.5 78t-46.5 27z" />
    <glyph glyph-name="braceright.cap" horiz-adv-x="256" 
d="M254 805q-37 -1 -55 -25.5t-27 -79.5l-94 -528q-17 -101 -56 -136.5t-133 -35.5h-4l11 59h10q32 0 48.5 21.5t25.5 77.5l90 514q25 129 110 164q-75 37 -51 163l90 512q9 56 -0.5 77.5t-40.5 21.5h-10l10 59h4q95 0 121.5 -36t7.5 -136l-92 -526q-11 -52 -1.5 -78
t46.5 -27z" />
    <glyph glyph-name="baht" 
d="M389 1772h33l-19 -103q87 -5 122.5 -37.5t35.5 -111.5q0 -63 -65 -428q-15 -91 -53.5 -136t-114.5 -55q57 -9 80.5 -36.5t23.5 -84.5q0 -41 -82 -506q-28 -160 -76 -215.5t-163 -58.5l-19 -102h-33l19 102h-193l293 1669h193zM319 1475l-90 -502h19l88 502h-17zM307 1018
q76 430 76 440q0 17 -14 17l-88 -502q11 2 16.5 11t9.5 34zM197 778l-105 -583h21l102 583h-18zM260 764q0 14 -12 14l-103 -583q17 3 25 45q90 512 90 524z" />
    <glyph glyph-name="rupee" horiz-adv-x="538" 
d="M37 0l90 729h-4l-127 -729h-111l293 1669h62q89 0 122 -24.5t33 -90.5q0 -56 -88 -555q-17 -97 -31 -145t-38 -76l-97 -778h-104zM266 1516h-4l-110 -633h4q11 0 16.5 9.5t9.5 35.5q99 563 99 571q0 17 -15 17zM420 141q-17 -94 -45.5 -122.5t-98.5 -28.5
q-57 0 -82.5 20.5t-25.5 73.5q0 30 84 506h110q-81 -459 -81 -475q0 -11 10 -11q11 0 14 15q76 430 76 452q0 33 -37 103q-43 79 -43 145q0 53 82 516q17 93 44.5 121.5t94.5 28.5q58 0 85.5 -20.5t27.5 -67.5q0 -35 -90 -547h-111q88 500 88 510t-10 10q-12 0 -14 -14
q-86 -486 -86 -508q0 -21 8 -40.5t31 -64.5q43 -82 43 -139q0 -45 -74 -463z" />
    <glyph glyph-name="bitcoin" 
d="M375 1669h16l19 103h32l-18 -105q74 -6 105.5 -39.5t31.5 -107.5q0 -63 -65 -428q-15 -91 -53.5 -136t-114.5 -55q57 -9 80.5 -36.5t23.5 -84.5q0 -41 -82 -506q-26 -153 -71.5 -209.5t-147.5 -62.5l-18 -104h-33l18 102h-8h-20l-19 -102h-33l19 102h-152l293 1669h152
l18 103h33l-19 -103h13zM307 1018q76 430 76 440q0 17 -16 17h-48l-90 -502h50q20 0 28 45zM246 778h-49l-105 -583h49q21 0 29 45q90 512 90 524q0 9 -3 11.5t-11 2.5z" />
    <glyph glyph-name="zero.opencirc" horiz-adv-x="651" 
d="M133 248v1173q0 154 43 206t166 52t166 -52t43 -206v-1173q0 -154 -43 -206t-166 -52t-166 52t-43 206zM166 254q0 -100 15.5 -148.5t51 -65.5t109.5 -17t109.5 17t51 65.5t15.5 148.5v1161q0 100 -15.5 148.5t-51 66t-109.5 17.5t-109.5 -17.5t-51 -66t-15.5 -148.5
v-1161zM227 254v1165q0 82 23 113t92 31t92 -31t23 -113v-1165q0 -82 -23 -112.5t-92 -30.5t-92 30.5t-23 112.5zM334 242q0 -21 8 -21t8 21v1190q0 20 -8 20t-8 -20v-1190z" />
    <glyph glyph-name="zero.closecirc" horiz-adv-x="651" 
d="M133 248v1173q0 154 43 206t166 52t166 -52t43 -206v-1173q0 -154 -43 -206t-166 -52t-166 52t-43 206zM227 254q0 -82 23 -112.5t92 -30.5t92 30.5t23 112.5v1165q0 82 -23 113t-92 31t-92 -31t-23 -113v-1165zM334 242v1190q0 20 8 20t8 -20v-1190q0 -21 -8 -21t-8 21z
" />
    <glyph glyph-name="arrowupleft" horiz-adv-x="514" 
d="M31 725v211l10 10h209l98 -96l-143 6l278 -278l-86 -86l-276 276l6 -139z" />
    <glyph glyph-name="arrowupright" horiz-adv-x="514" 
d="M387 629l6 139l-276 -276l-86 86l278 278l-143 -6l98 96h209l10 -10v-211z" />
    <glyph glyph-name="arrowdownleft" horiz-adv-x="514" 
d="M31 713l96 96l-6 -139l276 276l86 -86l-278 -278l143 6l-98 -96h-209l-10 10v211z" />
    <glyph glyph-name="arrowdownright" horiz-adv-x="514" 
d="M469 502l-10 -10h-209l-98 96l143 -6l-279 278l86 86l277 -276l-6 139l96 -96v-211z" />
    <glyph glyph-name="whitesquare" horiz-adv-x="1234" 
d="M270 289v694h693v-694h-693zM465 483h303v308h-303v-308z" />
    <glyph glyph-name="whitediamond" horiz-adv-x="1234" 
d="M616 147l-489 490l489 489l490 -489zM616 420l215 217l-215 215l-215 -215z" />
    <glyph glyph-name="whitecircle" horiz-adv-x="1234" 
d="M616 274q-157 0 -259.5 103t-102.5 260q0 155 102.5 257.5t259.5 102.5q155 0 258 -102.5t103 -257.5q0 -157 -103 -260t-258 -103zM616 457q74 0 123 51t49 129q0 76 -49 127t-123 51q-75 0 -124.5 -50.5t-49.5 -127.5q0 -78 49.5 -129t124.5 -51z" />
    <glyph glyph-name="whiteleftpointingsmalltriangle" horiz-adv-x="1234" 
d="M926 147l-797 490l797 489v-979zM729 467v338l-268 -168z" />
    <glyph glyph-name="whiterightpointingsmalltriangle" horiz-adv-x="1234" 
d="M309 147v979l797 -489zM508 467l266 170l-266 168v-338z" />
    <glyph glyph-name="whiteuppointingsmalltriangle" horiz-adv-x="1234" 
d="M127 334l489 796l490 -796h-979zM449 512h337l-170 268z" />
    <glyph glyph-name="whitedownpointingsmalltriangle" horiz-adv-x="1234" 
d="M127 1108h979l-490 -797zM446 930l170 -271l168 271h-338z" />
    <glyph glyph-name="blacksquare" horiz-adv-x="1234" 
d="M270 289v694h693v-694h-693z" />
    <glyph glyph-name="blackdiamond" horiz-adv-x="1234" 
d="M616 147l-489 490l489 489l490 -489z" />
    <glyph glyph-name="blackcircle" horiz-adv-x="1234" 
d="M616 274q-157 0 -259.5 103t-102.5 260q0 155 102.5 257.5t259.5 102.5q155 0 258 -102.5t103 -257.5q0 -157 -103 -260t-258 -103z" />
    <glyph glyph-name="blackleftpointingtriangle" horiz-adv-x="1615" 
d="M63 698l1311 707v-1405z" />
    <glyph glyph-name="blackrightpointingtriangle" horiz-adv-x="1615" 
d="M242 0v1405l1308 -707z" />
    <glyph glyph-name="blackuppointingtriangle" horiz-adv-x="1615" 
d="M700 1405l707 -1405h-1405z" />
    <glyph glyph-name="blackdownpointingtriangle" horiz-adv-x="1615" 
d="M903 -2l-717 1407h1405z" />
    <glyph glyph-name="smalltriangleleftsld" horiz-adv-x="1234" 
d="M926 147l-797 490l797 489v-979z" />
    <glyph glyph-name="smalltrianglerightsld" horiz-adv-x="1234" 
d="M309 147v979l797 -489z" />
    <glyph glyph-name="smalltrianglesld" horiz-adv-x="1234" 
d="M127 334l489 796l490 -796h-979z" />
    <glyph glyph-name="smalltriangleinvsld" horiz-adv-x="1234" 
d="M127 1108h979l-490 -797z" />
    <glyph glyph-name="whiteleftpointingtriangle" horiz-adv-x="1615" 
d="M63 698l1311 707v-1405zM479 698l674 -340v693z" />
    <glyph glyph-name="whiterightpointingtriangle" horiz-adv-x="1615" 
d="M1550 698l-1308 -698v1405zM1137 698l-676 353v-693z" />
    <glyph glyph-name="whiteuppointingtriangle" horiz-adv-x="1615" 
d="M721 1405l706 -1405h-1404zM721 963l-340 -730h694z" />
    <glyph glyph-name="whitedownpointingtriangle" horiz-adv-x="1615" 
d="M885 0l-699 1405h1405zM885 442l354 729h-694z" />
    <glyph glyph-name="chevronleft" horiz-adv-x="1615" 
d="M1323 0h-311l-858 809l858 815h311l-852 -815z" />
    <glyph glyph-name="chevronright" horiz-adv-x="1615" 
d="M1391 809l-859 -809h-311l850 809l-850 815h311z" />
    <glyph glyph-name="chevronup" horiz-adv-x="1615" 
d="M743 1403l770 -858v-314l-770 850l-766 -850v314z" />
    <glyph glyph-name="chevrondown" horiz-adv-x="1615" 
d="M887 231l-766 859v313l766 -852l770 852v-313z" />
    <glyph glyph-name="heartsuitwhite" horiz-adv-x="409" 
d="M246 1135q16 82 88 82q59 0 82.5 -39.5t23.5 -157.5v-41q0 -102 -14.5 -174.5t-37.5 -118.5t-47.5 -88t-49.5 -112.5t-39 -163.5h-12q-14 93 -39 163.5t-50 112.5t-48 88t-37.5 118.5t-14.5 174.5v41q0 118 24 157.5t83 39.5q72 0 88 -82z" />
    </font>
</defs>
</svg>
