<?xml version="1.0" standalone="no"?>
<!DOCTYPE svg PUBLIC "-//W3C//DTD SVG 1.1//EN" "http://www.w3.org/Graphics/SVG/1.1/DTD/svg11.dtd" >
<svg xmlns="http://www.w3.org/2000/svg" xmlns:xlink="http://www.w3.org/1999/xlink" version="1.1">
<metadata>
Created by FontForge 20170731 at Wed Oct 13 16:18:55 2021
 By Aleksey,,,
Copyright 2018 Production Systems SAS - All rights reserved - End-User License Agreement:  http://www.productiontype.com/license
</metadata>
<defs>
<font id="MediaSansCondensed-Regular" horiz-adv-x="405" >
  <font-face 
    font-family="Media Sans Condensed"
    font-weight="400"
    font-stretch="condensed"
    units-per-em="2048"
    panose-1="2 0 0 0 0 0 0 0 0 0"
    ascent="1843"
    descent="-205"
    x-height="1475"
    cap-height="1669"
    bbox="-205 -205 1931 2005"
    underline-thickness="59"
    underline-position="-181"
    unicode-range="U+0020-FB02"
  />
<missing-glyph horiz-adv-x="1024" 
d="M113 0v1536h798v-1536h-798zM512 831l307 639h-614zM174 127l307 641l-307 641v-1282zM850 127v1282l-307 -641zM205 66h614l-307 639z" />
    <glyph glyph-name="fi" unicode="fi" horiz-adv-x="454" 
d="M4 1350v125h35v34q0 79 41 119.5t117 40.5h65v-123h-39q-28 0 -28 -33v-38h63v-125h-63v-1350h-156v1350h-35zM283 1522v129h155v-129h-155zM283 0v1475h155v-1475h-155z" />
    <glyph glyph-name="fl" unicode="fl" horiz-adv-x="454" 
d="M4 1350v125h35v34q0 79 41 119.5t117 40.5h65v-123h-39q-28 0 -28 -33v-38h63v-125h-63v-1350h-156v1350h-35zM283 0v1669h155v-1669h-155z" />
    <glyph glyph-name=".notdef" horiz-adv-x="1024" 
d="M113 0v1536h798v-1536h-798zM512 831l307 639h-614zM174 127l307 641l-307 641v-1282zM850 127v1282l-307 -641zM205 66h614l-307 639z" />
    <glyph glyph-name=".null" horiz-adv-x="0" 
 />
    <glyph glyph-name="nonmarkingreturn" horiz-adv-x="682" 
 />
    <glyph glyph-name="space" unicode=" " horiz-adv-x="139" 
 />
    <glyph glyph-name="exclam" unicode="!" horiz-adv-x="204" 
d="M49 410l-29 1259h162l-28 -1259h-105zM188 0h-172v176h172v-176z" />
    <glyph glyph-name="quotedbl" unicode="&#x22;" horiz-adv-x="319" 
d="M115 1241h-70l-25 266v162h119v-162zM274 1241h-69l-25 266v162h119v-162z" />
    <glyph glyph-name="numbersign" unicode="#" horiz-adv-x="468" 
d="M420 643v-70h-84l-45 -573h-72l45 573h-104l-45 -573h-72l45 573h-68v70h74l35 453h-80v69h86l39 504h72l-39 -504h104l39 504h72l-39 -504h66v-69h-72l-35 -453h78zM166 643h104l35 453h-104z" />
    <glyph glyph-name="dollar" unicode="$" 
d="M186 1772h31v-93q100 -3 136 -49.5t36 -169.5v-448h-156v469q0 33 -16 41v-615q8 -7 25 -18q100 -74 123.5 -114.5t23.5 -131.5v-434q0 -123 -36 -169.5t-136 -49.5v-92h-31v92q-99 3 -134.5 49t-35.5 170v371h156v-392q0 -30 14 -38v559q-3 2 -12.5 8.5t-15.5 11.5
q-97 71 -119.5 110t-22.5 134v487q0 124 35.5 170t134.5 49v93zM172 995q0 -40 14 -59v584q-14 -8 -14 -39v-486zM233 188v426q0 48 -16 66v-533q16 8 16 41z" />
    <glyph glyph-name="percent" unicode="%" horiz-adv-x="497" 
d="M33 1071v502q0 58 20.5 82t75.5 24t75.5 -24t20.5 -82v-502q0 -58 -20.5 -82t-75.5 -24t-75.5 24t-20.5 82zM420 1669h57l-399 -1669h-58zM117 1092q0 -41 12 -41t12 41v460q0 41 -12 41t-12 -41v-460zM270 102v502q0 58 21 82.5t76 24.5t75.5 -24.5t20.5 -82.5v-502
q0 -58 -20.5 -82t-75.5 -24t-76 24.5t-21 81.5zM354 123q0 -41 13 -41q12 0 12 41v461q0 41 -12 41q-13 0 -13 -41v-461z" />
    <glyph glyph-name="ampersand" unicode="&#x26;" horiz-adv-x="436" 
d="M215 1679q59 0 93.5 -11.5t56 -44.5t29 -85.5t7.5 -142.5v-4q0 -76 -0.5 -109t-6 -79.5t-13 -66.5t-28 -57t-43.5 -65.5t-66 -79.5l80 -379q-2 25 -5.5 57t-5.5 50t-2 24v209h111v-453q0 -132 -27 -225l45 -217h-133l-10 45q-48 -55 -127 -55q-154 0 -154 178v467
q0 137 12.5 189t69.5 126q-44 184 -52 265q-5 48 -5 94v24q0 144 17.5 218.5t53 101t103.5 26.5zM188 1292q0 -88 27 -221q24 46 29.5 87.5t5.5 133.5v68q0 104 -5.5 133t-25.5 29q-12 0 -18.5 -12t-9.5 -47t-3 -103v-68zM154 270q0 -75 16 -101t53 -26q29 0 45 33l-114 524
v-430z" />
    <glyph glyph-name="quotesingle" unicode="'" horiz-adv-x="159" 
d="M115 1241h-70l-25 266v162h119v-162z" />
    <glyph glyph-name="parenleft" unicode="(" horiz-adv-x="231" 
d="M160 1669h71q-98 -448 -98 -885q0 -438 98 -886h-71q-66 284 -92.5 482t-26.5 404q0 205 26.5 403.5t92.5 481.5z" />
    <glyph glyph-name="parenright" unicode=")" horiz-adv-x="231" 
d="M72 1669q65 -282 91.5 -481t26.5 -406q0 -206 -26.5 -404t-91.5 -480h-72q98 448 98 884q0 439 -98 887h72z" />
    <glyph glyph-name="asterisk" unicode="*" horiz-adv-x="346" 
d="M229 1370l-55 105l-45 -105l-78 57l82 80l-110 17l28 90l96 -60l-10 115h86l-18 -115l102 60l25 -90l-117 -17l88 -80z" />
    <glyph glyph-name="plus" unicode="+" horiz-adv-x="552" 
d="M317 573h-79v195h-197v80h197v196h79v-196h195v-80h-195v-195z" />
    <glyph glyph-name="comma" unicode="," horiz-adv-x="204" 
d="M117 -102h-125l71 102h-47v176h172v-176z" />
    <glyph glyph-name="hyphen" unicode="-" horiz-adv-x="290" 
d="M270 729h-250v141h250v-141z" />
    <glyph glyph-name="period" unicode="." horiz-adv-x="204" 
d="M188 0h-172v176h172v-176z" />
    <glyph glyph-name="slash" unicode="/" horiz-adv-x="364" 
d="M293 1669h65l-286 -1669h-66z" />
    <glyph glyph-name="zero" unicode="0" 
d="M203 1679q109 0 147.5 -45.5t38.5 -173.5v-1251q0 -128 -38.5 -173.5t-147.5 -45.5t-148 46t-39 173v1251q0 127 39 173t148 46zM203 1524q-16 0 -23.5 -21t-7.5 -82v-1173q0 -61 7.5 -82t23.5 -21t23 21t7 82v1173q0 61 -7 82t-23 21z" />
    <glyph glyph-name="one" unicode="1" horiz-adv-x="245" 
d="M229 0h-155v1475l-70 -35v149l143 80h82v-1669z" />
    <glyph glyph-name="two" unicode="2" 
d="M233 1139v282q0 61 -7 82t-23 21t-23.5 -21t-7.5 -82v-260h-156v299q0 127 39 173t148 46t147.5 -45.5t38.5 -173.5v-266q0 -75 -31 -223.5t-188 -814.5h219v-156h-373v156q155 663 186 804t31 179z" />
    <glyph glyph-name="three" unicode="3" horiz-adv-x="403" 
d="M203 -10q-109 0 -148 46t-39 173v299h156v-260q0 -61 7.5 -82t23.5 -21t23 21t7 82v436q0 63 -7 83.5t-25 20.5h-109v156h94q16 0 23.5 21t7.5 82v374q0 43 -2.5 66.5t-7 31t-12.5 7.5q-14 0 -18.5 -20.5t-4.5 -84.5v-260h-156v299q0 127 38 173t143 46q102 0 139 -46
t37 -173v-452q0 -62 -27.5 -90.5t-97.5 -34.5q79 -6 110 -42t31 -118v-514q0 -128 -38.5 -173.5t-147.5 -45.5z" />
    <glyph glyph-name="four" unicode="4" horiz-adv-x="446" 
d="M225 0v432h-219v119l103 1118h272v-1081h59v-156h-59v-432h-156zM166 588h59v870z" />
    <glyph glyph-name="five" unicode="5" 
d="M389 846v-637q0 -128 -38.5 -173.5t-147.5 -45.5t-148 46t-39 173v299h156v-260q0 -61 7.5 -82t23.5 -21t23 21t7 82v559q0 64 -6 84t-24 20q-16 0 -23.5 -21t-7.5 -83h-154v862h369v-156h-215v-667q0 125 25 173t86 48q60 0 83 -47t23 -174z" />
    <glyph glyph-name="six" unicode="6" 
d="M203 -10q-109 0 -148 46t-39 173v1251q0 127 39 173t148 46t147.5 -45.5t38.5 -173.5v-299h-156v260q0 61 -7 82t-23 21t-23.5 -21t-7.5 -82v-575q0 125 24.5 173t82.5 48q63 0 86.5 -47t23.5 -174v-637q0 -128 -38.5 -173.5t-147.5 -45.5zM203 911q-16 0 -23.5 -21
t-7.5 -83v-559q0 -61 7.5 -82t23.5 -21t23 21t7 82v559q0 64 -6 84t-24 20z" />
    <glyph glyph-name="seven" unicode="7" horiz-adv-x="387" 
d="M223 0h-153q0 192 8.5 370.5t17 293.5t30.5 265.5t31.5 207t38 203t33.5 173.5h-223v156h375v-133q-11 -62 -35.5 -190t-37.5 -200.5t-31.5 -208.5t-28.5 -257t-17.5 -299.5t-7.5 -380.5z" />
    <glyph glyph-name="eight" unicode="8" horiz-adv-x="417" 
d="M209 1679q111 0 151.5 -46t40.5 -173v-403q0 -92 -24 -137t-82 -60q59 -13 82.5 -57.5t23.5 -136.5v-457q0 -127 -40.5 -173t-151.5 -46t-152 46t-41 173v457q0 92 24 136.5t83 57.5q-58 15 -82.5 60.5t-24.5 136.5v403q0 127 41 173t152 46zM209 950q21 0 29 20.5
t8 84.5v366q0 64 -8 84.5t-29 20.5t-29 -20.5t-8 -84.5v-366q0 -64 8 -84.5t29 -20.5zM209 143q21 0 29 20.5t8 84.5v420q0 64 -8 84t-29 20t-29 -20t-8 -84v-420q0 -64 8 -84.5t29 -20.5z" />
    <glyph glyph-name="nine" unicode="9" 
d="M203 1679q109 0 147.5 -45.5t38.5 -173.5v-1251q0 -128 -38.5 -173.5t-147.5 -45.5t-148 46t-39 173v299h156v-260q0 -61 7.5 -82t23.5 -21t23 21t7 82v575q0 -125 -24 -173t-82 -48q-63 0 -87 47t-24 174v637q0 127 39 173t148 46zM203 758q16 0 23 21t7 83v559
q0 61 -7 82t-23 21t-23.5 -21t-7.5 -82v-559q0 -64 6.5 -84t24.5 -20z" />
    <glyph glyph-name="colon" unicode=":" horiz-adv-x="204" 
d="M188 745h-172v177h172v-177zM188 0h-172v176h172v-176z" />
    <glyph glyph-name="semicolon" unicode=";" horiz-adv-x="204" 
d="M188 745h-172v177h172v-177zM117 -102h-125l71 102h-47v176h172v-176z" />
    <glyph glyph-name="less" unicode="&#x3c;" horiz-adv-x="552" 
d="M41 795v28l334 221h157l-362 -235l362 -236h-157z" />
    <glyph glyph-name="equal" unicode="=" horiz-adv-x="552" 
d="M512 911h-471v80h471v-80zM512 625h-471v80h471v-80z" />
    <glyph glyph-name="greater" unicode="&#x3e;" horiz-adv-x="552" 
d="M512 795l-334 -222h-158l363 236l-363 235h158l334 -221v-28z" />
    <glyph glyph-name="question" unicode="?" 
d="M16 1460q0 127 39 173t148 46q108 0 147 -46t39 -173v-467q0 -66 -16.5 -113t-40.5 -73t-48 -48t-40.5 -52.5t-16.5 -71.5v-225h-135v237q0 54 14.5 94.5t35 66t41.5 49.5t35.5 59.5t14.5 82.5v422q0 63 -6 83t-24 20q-16 0 -23.5 -21t-7.5 -82v-409h-156v448zM246 0
h-172v176h172v-176z" />
    <glyph glyph-name="at" unicode="@" horiz-adv-x="602" 
d="M322 1126v152h110v-893q0 -55 9.5 -72.5t31.5 -17.5q23 0 32 17.5t9 72.5v705q0 199 -44.5 269.5t-168.5 70.5q-125 0 -169 -70.5t-44 -269.5v-705q0 -199 44 -269.5t169 -70.5q45 0 73 4t55 18t43.5 43t25.5 76h61q-15 -105 -78 -150.5t-180 -45.5q-157 0 -216.5 91.5
t-59.5 305.5v700q0 214 59.5 306t216.5 92t217 -92t60 -306v-684q0 -101 -31 -143.5t-96 -42.5q-62 0 -95.5 36t-33.5 122q0 -89 -18 -123.5t-60 -34.5q-44 0 -61 34t-17 124v751q0 92 17 126t61 34q42 0 60 -35t18 -125zM322 401v699q0 45 -5 60.5t-18 15.5q-23 0 -23 -76
v-699q0 -71 23 -71q13 0 18 14.5t5 56.5z" />
    <glyph glyph-name="A" unicode="A" horiz-adv-x="366" 
d="M207 0l-8 524h-31l-8 -524h-154l45 1669h264l45 -1669h-153zM180 1466l-10 -786h27l-11 786h-6z" />
    <glyph glyph-name="B" unicode="B" 
d="M16 0v1669h174q107 0 146 -46t39 -173v-442q0 -59 -22 -88t-97 -37q79 -7 106 -42.5t27 -113.5v-508q0 -127 -39 -173t-147 -46h-187zM188 1513h-16v-569h16q16 0 23.5 21t7.5 82v362q0 62 -7.5 83t-23.5 21zM203 788h-31v-632h31q18 0 24 19.5t6 82.5v426q0 64 -6 84
t-24 20z" />
    <glyph glyph-name="C" unicode="C" 
d="M233 750h156v-541q0 -127 -39 -173t-147 -46q-109 0 -148 46t-39 173v1251q0 127 39 173t148 46q108 0 147 -46t39 -173v-504h-156v465q0 63 -6 83t-24 20q-16 0 -23.5 -21t-7.5 -82v-1173q0 -61 7.5 -82t23.5 -21q18 0 24 20t6 83v502z" />
    <glyph glyph-name="D" unicode="D" 
d="M16 0v1669h187q108 0 147 -46t39 -173v-1231q0 -127 -39 -173t-147 -46h-187zM203 1513h-31v-1357h31q18 0 24 19.5t6 82.5v1151q0 64 -6 84t-24 20z" />
    <glyph glyph-name="E" unicode="E" horiz-adv-x="342" 
d="M326 156v-156h-310v1669h310v-156h-154v-557h154v-155h-154v-645h154z" />
    <glyph glyph-name="F" unicode="F" horiz-adv-x="342" 
d="M326 801h-154v-801h-156v1669h310v-156h-154v-557h154v-155z" />
    <glyph glyph-name="G" unicode="G" 
d="M174 -10q-90 0 -124 45.5t-34 173.5v1251q0 127 39 173t148 46q108 0 147 -46t39 -173v-477h-156v438q0 63 -6 83t-24 20q-16 0 -23.5 -21t-7.5 -82v-1173q0 -61 7.5 -82t23.5 -21q18 0 24 20t6 83v428h-38v155h194v-831h-47l-27 131q-6 -77 -36 -109t-105 -32z" />
    <glyph glyph-name="H" unicode="H" 
d="M233 0v805h-61v-805h-156v1669h156v-708h61v708h156v-1669h-156z" />
    <glyph glyph-name="I" unicode="I" horiz-adv-x="188" 
d="M16 0v1669h156v-1669h-156z" />
    <glyph glyph-name="J" unicode="J" horiz-adv-x="270" 
d="M6 0v170h33q59 0 59 70v1429h156v-1485q0 -97 -43.5 -140.5t-132.5 -43.5h-72z" />
    <glyph glyph-name="K" unicode="K" horiz-adv-x="403" 
d="M16 0v1669h156v-782l72 782h153l-82 -827l82 -842h-153l-72 797v-797h-156z" />
    <glyph glyph-name="L" unicode="L" horiz-adv-x="335" 
d="M16 0v1669h156v-1513h154v-156h-310z" />
    <glyph glyph-name="M" unicode="M" horiz-adv-x="569" 
d="M238 0l-74 1137v-1137h-148v1669h211l58 -821l59 821h209v-1669h-147v1137l-74 -1137h-94z" />
    <glyph glyph-name="N" unicode="N" horiz-adv-x="403" 
d="M266 0l-110 967v-967h-140v1669h119l113 -1038v1038h139v-1669h-121z" />
    <glyph glyph-name="O" unicode="O" 
d="M389 209q0 -128 -38.5 -173.5t-147.5 -45.5t-148 46t-39 173v1251q0 127 39 173t148 46t147.5 -45.5t38.5 -173.5v-1251zM233 1421q0 61 -7 82t-23 21t-23.5 -21t-7.5 -82v-1173q0 -61 7.5 -82t23.5 -21t23 21t7 82v1173z" />
    <glyph glyph-name="P" unicode="P" 
d="M203 604h-31v-604h-156v1669h187q108 0 147 -46t39 -173v-627q0 -127 -39 -173t-147 -46zM203 1513h-31v-753h31q18 0 24 19.5t6 82.5v547q0 64 -6 84t-24 20z" />
    <glyph glyph-name="Q" unicode="Q" 
d="M233 -102v92h-30q-109 0 -148 46t-39 173v1251q0 127 39 173t148 46q108 0 147 -46t39 -173v-1251q0 -90 -19.5 -137t-66.5 -66h86v-108h-156zM233 1421q0 63 -6 83t-24 20q-16 0 -23.5 -21t-7.5 -82v-1173q0 -61 7.5 -82t23.5 -21q18 0 24 20t6 83v1173z" />
    <glyph glyph-name="R" unicode="R" horiz-adv-x="403" 
d="M250 0l-53 750h-25v-750h-156v1669h187q108 0 147 -46t39 -173v-543q0 -99 -51 -133l65 -774h-153zM203 1513h-31v-608h31q18 0 24 20t6 83v401q0 64 -6 84t-24 20z" />
    <glyph glyph-name="S" unicode="S" 
d="M172 248q0 -61 7.5 -82t23.5 -21q18 0 24 20t6 83v424q0 44 -11.5 61.5t-63.5 52.5q-65 44 -93.5 74t-38.5 66t-10 104v430q0 127 39 173t148 46q108 0 147 -46t39 -173v-432h-156v393q0 63 -6 83t-24 20q-16 0 -23.5 -21t-7.5 -82v-385q0 -36 10 -53t60 -53
q55 -40 78.5 -59.5t42 -48.5t22.5 -57t4 -81v-475q0 -127 -39 -173t-147 -46q-109 0 -148 46t-39 173v469h156v-430z" />
    <glyph glyph-name="T" unicode="T" horiz-adv-x="319" 
d="M313 1513h-75v-1513h-156v1513h-76v156h307v-156z" />
    <glyph glyph-name="U" unicode="U" 
d="M233 1669h156v-1460q0 -127 -39 -173t-147 -46q-109 0 -148 46t-39 173v1460h156v-1421q0 -61 7.5 -82t23.5 -21q18 0 24 20t6 83v1421z" />
    <glyph glyph-name="V" unicode="V" horiz-adv-x="366" 
d="M160 1669l20 -1466h6l21 1466h153l-45 -1669h-264l-45 1669h154z" />
    <glyph glyph-name="W" unicode="W" horiz-adv-x="571" 
d="M59 0l-53 1669h146l18 -1079l47 1079h135l49 -1081l19 1081h145l-53 -1669h-188l-37 993l-41 -993h-187z" />
    <glyph glyph-name="X" unicode="X" horiz-adv-x="366" 
d="M207 0l-25 729l-22 -729h-154l45 836l-45 833h154l22 -729l25 729h153l-45 -833l45 -836h-153z" />
    <glyph glyph-name="Y" unicode="Y" horiz-adv-x="366" 
d="M106 496l-100 1173h139l37 -754h2l37 754h139l-100 -1173v-496h-154v496z" />
    <glyph glyph-name="Z" unicode="Z" horiz-adv-x="382" 
d="M6 0v92l207 1424h-193v153h357v-92l-207 -1421h207v-156h-371z" />
    <glyph glyph-name="bracketleft" unicode="[" horiz-adv-x="266" 
d="M84 -102v1771h182v-61h-92v-1649h92v-61h-182z" />
    <glyph glyph-name="backslash" unicode="\" horiz-adv-x="364" 
d="M72 1669l286 -1669h-65l-287 1669h66z" />
    <glyph glyph-name="bracketright" unicode="]" horiz-adv-x="266" 
d="M0 -102v61h92v1649h-92v61h182v-1771h-182z" />
    <glyph glyph-name="asciicircum" unicode="^" horiz-adv-x="552" 
d="M262 1659h29l221 -334v-158l-236 363l-235 -363v158z" />
    <glyph glyph-name="underscore" unicode="_" horiz-adv-x="716" 
d="M696 -152h-676v60h676v-60z" />
    <glyph glyph-name="grave" unicode="`" horiz-adv-x="512" 
d="M242 1522l-99 127h201l25 -127h-127z" />
    <glyph glyph-name="a" unicode="a" 
d="M172 1225v-254h-156v293q0 128 39 174.5t148 46.5q108 0 147 -46.5t39 -174.5v-1264h-156v209q0 -125 -24 -172t-82 -47q-65 0 -88 46t-23 173v475q0 49 11.5 84.5t29.5 53t43 29.5t47 16t47 10.5t39 15.5v332q0 63 -7 83.5t-23 20.5t-23.5 -21t-7.5 -83zM172 248
q0 -61 7.5 -82t23.5 -21q18 0 24 20t6 83v540q-1 0 -9 -4.5t-10.5 -5.5t-9.5 -6t-10 -8.5t-8.5 -10.5t-7.5 -13.5t-4 -16.5t-2 -21v-454z" />
    <glyph glyph-name="b" unicode="b" 
d="M172 1669v-405q0 125 24.5 173t82.5 48q64 0 87 -46.5t23 -174.5v-1055q0 -128 -23 -173.5t-87 -45.5q-58 0 -82.5 47t-24.5 172v-209h-156v1669h156zM172 1225v-977q0 -61 7.5 -82t23.5 -21q18 0 24 20t6 83v977q0 64 -6 84t-24 20q-16 0 -23.5 -21t-7.5 -83z" />
    <glyph glyph-name="c" unicode="c" 
d="M233 670h156v-459q0 -128 -39 -174.5t-147 -46.5q-109 0 -148 46.5t-39 174.5v1053q0 128 39 174.5t148 46.5q108 0 147 -46.5t39 -174.5v-447h-156v408q0 63 -7 83.5t-23 20.5t-23.5 -21t-7.5 -83v-975q0 -62 7.5 -83.5t23.5 -21.5t23 21t7 84v420z" />
    <glyph glyph-name="d" unicode="d" 
d="M233 1264v405h156v-1669h-156v209q0 -125 -24 -172t-82 -47q-65 0 -88 46t-23 173v1055q0 128 23.5 174.5t87.5 46.5q58 0 82 -48t24 -173zM233 1225q0 64 -6 84t-24 20q-16 0 -23.5 -21t-7.5 -83v-977q0 -61 7.5 -82t23.5 -21q18 0 24 20t6 83v977z" />
    <glyph glyph-name="e" unicode="e" 
d="M389 690h-217v-440q0 -62 7.5 -83.5t23.5 -21.5t23 21t7 84v295h156v-334q0 -128 -39 -174.5t-147 -46.5q-109 0 -148 46.5t-39 174.5v1053q0 128 39 174.5t148 46.5q108 0 147 -46.5t39 -174.5v-574zM172 1225v-379h61v379q0 63 -7 83.5t-23 20.5t-23.5 -21t-7.5 -83z
" />
    <glyph glyph-name="f" unicode="f" horiz-adv-x="266" 
d="M4 1350v125h35v34q0 79 41 119.5t117 40.5h65v-123h-39q-28 0 -28 -33v-38h63v-125h-63v-1350h-156v1350h-35z" />
    <glyph glyph-name="g" unicode="g" 
d="M233 1475h156v-1446q0 -74 -44.5 -108t-141.5 -34t-142 34.5t-45 107.5v90h156v-70q0 -30 7 -41.5t24 -11.5q19 0 24.5 10t5.5 43v322q0 -125 -24 -172t-82 -47q-65 0 -88 46t-23 173v895q0 127 23 173t88 46q58 0 82 -47t24 -172v209zM233 1227q0 64 -6 84t-24 20
q-16 0 -23.5 -21t-7.5 -83v-817q0 -61 7.5 -82t23.5 -21q18 0 24 20t6 83v817z" />
    <glyph glyph-name="h" unicode="h" 
d="M389 0h-156v1225q0 64 -6 84t-24 20q-16 0 -23.5 -21t-7.5 -83v-1225h-156v1669h156v-405q0 125 24.5 173t82.5 48q64 0 87 -46.5t23 -174.5v-1264z" />
    <glyph glyph-name="i" unicode="i" horiz-adv-x="188" 
d="M16 1522v129h156v-129h-156zM16 0v1475h156v-1475h-156z" />
    <glyph glyph-name="j" unicode="j" horiz-adv-x="208" 
d="M37 1522v129h156v-129h-156zM193 59q0 -80 -41.5 -120.5t-116.5 -40.5h-39v122h10q14 0 22.5 9t8.5 24v1422h156v-1416z" />
    <glyph glyph-name="k" unicode="k" horiz-adv-x="397" 
d="M16 0v1669h156v-807l64 613h161l-84 -719l84 -756h-161l-64 623v-623h-156z" />
    <glyph glyph-name="l" unicode="l" horiz-adv-x="188" 
d="M16 0v1669h156v-1669h-156z" />
    <glyph glyph-name="m" unicode="m" horiz-adv-x="622" 
d="M389 0h-156v1225q0 64 -6 84t-24 20q-16 0 -23.5 -21t-7.5 -83v-1225h-156v1475h156v-211q0 125 24.5 173t82.5 48q64 0 87 -46.5t23 -174.5q0 125 24.5 173t82.5 48q64 0 87 -46.5t23 -174.5v-1264h-155v1225q0 64 -6.5 84t-24.5 20q-16 0 -23.5 -21t-7.5 -83v-1225z
" />
    <glyph glyph-name="n" unicode="n" 
d="M389 0h-156v1225q0 64 -6 84t-24 20q-16 0 -23.5 -21t-7.5 -83v-1225h-156v1475h156v-211q0 125 24.5 173t82.5 48q64 0 87 -46.5t23 -174.5v-1264z" />
    <glyph glyph-name="o" unicode="o" 
d="M203 1485q108 0 147 -46.5t39 -174.5v-1053q0 -128 -39 -174.5t-147 -46.5q-109 0 -148 46.5t-39 174.5v1053q0 128 39 174.5t148 46.5zM203 145q16 0 23 21t7 84v975q0 63 -7 83.5t-23 20.5t-23.5 -21t-7.5 -83v-975q0 -62 7.5 -83.5t23.5 -21.5z" />
    <glyph glyph-name="p" unicode="p" 
d="M172 1475v-211q0 125 24.5 173t82.5 48q64 0 87 -46.5t23 -174.5v-1055q0 -128 -23 -173.5t-87 -45.5q-58 0 -82.5 47t-24.5 172v-311h-156v1577h156zM172 1225v-977q0 -61 7.5 -82t23.5 -21q18 0 24 20t6 83v977q0 64 -6 84t-24 20q-16 0 -23.5 -21t-7.5 -83z" />
    <glyph glyph-name="q" unicode="q" 
d="M233 1343q53 31 78 60t39 72h39v-1577h-156v311q0 -125 -24 -172t-82 -47q-65 0 -88 46t-23 173v1055q0 128 23.5 174.5t87.5 46.5q58 0 82 -48t24 -173v79zM233 1225q0 64 -6 84t-24 20q-16 0 -23.5 -21t-7.5 -83v-977q0 -61 7.5 -82t23.5 -21q18 0 24 20t6 83v977z" />
    <glyph glyph-name="r" unicode="r" horiz-adv-x="311" 
d="M172 1266q0 125 24.5 172t82.5 47q16 0 22 -2v-189q-27 5 -56 8t-51 -16t-22 -59v-1227h-156v1475h156v-209z" />
    <glyph glyph-name="s" unicode="s" 
d="M389 211q0 -128 -39 -174.5t-147 -46.5q-109 0 -148 46.5t-39 174.5v377h156v-338q0 -62 7.5 -83.5t23.5 -21.5t23 21t7 84v315q0 44 -13.5 62t-76.5 63q-80 57 -103.5 100t-23.5 132v342q0 128 39 174.5t148 46.5q108 0 147 -46.5t39 -174.5v-367h-156v328q0 63 -7 83.5
t-23 20.5t-23.5 -21t-7.5 -83v-297q0 -37 11 -54t61 -53q68 -50 95 -78.5t38.5 -64.5t11.5 -103v-364z" />
    <glyph glyph-name="t" unicode="t" horiz-adv-x="239" 
d="M190 0h-155v1352h-31v123h31v167h155v-167h46v-123h-46v-1352z" />
    <glyph glyph-name="u" unicode="u" 
d="M233 0v211q0 -125 -24 -173t-82 -48q-64 0 -87.5 46.5t-23.5 174.5v1264h156v-1225q0 -64 6.5 -84.5t24.5 -20.5q16 0 23 21t7 84v1225h156v-1475h-156z" />
    <glyph glyph-name="v" unicode="v" horiz-adv-x="366" 
d="M207 1475h153l-45 -1475h-264l-45 1475h154l24 -1295z" />
    <glyph glyph-name="w" unicode="w" horiz-adv-x="567" 
d="M57 0l-53 1475h146l18 -961l47 961h135l49 -934l19 934h145l-53 -1475h-188l-37 885l-41 -885h-187z" />
    <glyph glyph-name="x" unicode="x" horiz-adv-x="366" 
d="M207 0l-25 651l-22 -651h-154l45 739l-45 736h154l22 -652l25 652h153l-45 -736l45 -739h-153z" />
    <glyph glyph-name="y" unicode="y" horiz-adv-x="370" 
d="M291 166q-9 -145 -59.5 -206.5t-155.5 -61.5v147h22q17 0 23.5 6.5t7.5 26.5l4 37h-57l-76 1360h154l22 -1229l39 1229h156z" />
    <glyph glyph-name="z" unicode="z" horiz-adv-x="352" 
d="M6 0v92l184 1227h-170v156h326v-95l-184 -1224h184v-156h-340z" />
    <glyph glyph-name="braceleft" unicode="{" horiz-adv-x="266" 
d="M41 754v61q40 3 54 26.5t14 78.5v577q0 101 31 136.5t122 35.5h4v-61h-10q-31 0 -44 -21.5t-13 -77.5v-561q0 -124 -86 -164q86 -40 86 -163v-564q0 -56 13 -77t44 -21h10v-61h-4q-91 0 -122 35.5t-31 136.5v579q0 55 -14 78.5t-54 26.5z" />
    <glyph glyph-name="bar" unicode="|" horiz-adv-x="151" 
d="M41 1772h70v-1874h-70v1874z" />
    <glyph glyph-name="braceright" unicode="}" horiz-adv-x="266" 
d="M225 754q-40 -3 -53.5 -26.5t-13.5 -78.5v-579q0 -101 -31.5 -136.5t-122.5 -35.5h-4v61h10q32 0 45 21t13 77v564q0 123 86 163q-86 40 -86 164v561q0 56 -13.5 77.5t-44.5 21.5h-10v61h4q91 0 122.5 -35.5t31.5 -136.5v-577q0 -55 13.5 -78.5t53.5 -26.5v-61z" />
    <glyph glyph-name="asciitilde" unicode="~" horiz-adv-x="552" 
d="M379 731q-49 0 -119.5 35t-93.5 35q-30 0 -41.5 -15.5t-11.5 -44.5h-80q0 71 35 107.5t98 36.5q49 0 119.5 -35t93.5 -35q33 0 44 14.5t11 44.5h78q0 -71 -35 -107t-98 -36z" />
    <glyph glyph-name="nbspace" unicode="&#xa0;" horiz-adv-x="139" 
 />
    <glyph glyph-name="exclamdown" unicode="&#xa1;" horiz-adv-x="204" 
d="M188 1475v-177h-172v177h172zM49 1065h105l28 -1167h-162z" />
    <glyph glyph-name="cent" unicode="&#xa2;" 
d="M233 723h156v-422q0 -123 -36 -169.5t-136 -49.5v-82h-31v82q-99 3 -134.5 49t-35.5 170v873q0 124 35.5 170t134.5 49v82h31v-82q100 -3 136 -49.5t36 -169.5v-304h-156v324q0 33 -16 41v-995q16 8 16 41v442zM172 281q0 -31 14 -39v991q-14 -8 -14 -39v-913z" />
    <glyph glyph-name="sterling" unicode="&#xa3;" 
d="M315 788h-131v-632h187v-156h-342v788h-27v101h27v571q0 128 37.5 173.5t142.5 45.5q104 0 142 -46t38 -173v-217h-156v178q0 63 -5 83t-19 20q-9 0 -14 -7.5t-8 -30.5t-3 -65v-532h131v-101z" />
    <glyph glyph-name="currency" unicode="&#xa4;" horiz-adv-x="552" 
d="M276 637q-51 0 -90 22l-75 -75l-58 57l74 74q-23 44 -23 94t23 94l-74 74l58 57l75 -76q41 23 90 23q51 0 95 -23l73 74l58 -57l-76 -76q23 -41 23 -90t-23 -90l76 -76l-58 -57l-73 73q-42 -22 -95 -22zM276 713q44 0 70.5 26t26.5 70t-26.5 70t-70.5 26t-70 -26t-26 -70
t26 -70t70 -26z" />
    <glyph glyph-name="yen" unicode="&#xa5;" horiz-adv-x="356" 
d="M336 676h-80v-676h-156v676h-77v100h77v125h-77v100h75l-98 668h141l37 -426h2l37 426h139l-98 -668h78v-100h-80v-125h80v-100z" />
    <glyph glyph-name="brokenbar" unicode="&#xa6;" horiz-adv-x="151" 
d="M41 1772h70v-850h-70v850zM41 748h70v-850h-70v850z" />
    <glyph glyph-name="section" unicode="&#xa7;" horiz-adv-x="403" 
d="M387 106q0 -128 -38.5 -173.5t-147.5 -45.5t-148 46t-39 173v367h156v-328q0 -61 7.5 -81.5t23.5 -20.5t23 20.5t7 81.5v306q0 44 -10 59t-65 55q-91 66 -115.5 105.5t-24.5 122.5v14q0 106 35 147q-22 28 -28.5 60t-6.5 92v354q0 127 39 173t148 46t147.5 -45.5
t38.5 -173.5v-366h-156v327q0 61 -7 82t-23 21t-23.5 -21t-7.5 -82v-305q0 -43 10.5 -59.5t65.5 -55.5q91 -66 115 -107.5t24 -133.5v-15q0 -94 -35 -135q22 -28 28.5 -58.5t6.5 -90.5v-355zM170 813q0 -35 9.5 -49.5t53.5 -48.5v26v13q0 35 -9.5 49.5t-53.5 48.5v-29v-10z
" />
    <glyph glyph-name="dieresis" unicode="&#xa8;" horiz-adv-x="512" 
d="M102 1524v145h134v-145h-134zM410 1524h-134v145h134v-145z" />
    <glyph glyph-name="copyright" unicode="&#xa9;" horiz-adv-x="657" 
d="M641 1231v-793q0 -241 -67 -344.5t-244 -103.5q-178 0 -246 103.5t-68 344.5v793q0 241 68 344.5t246 103.5q177 0 244 -103.5t67 -344.5zM569 436v797q0 153 -22 233t-72 112t-145 32q-97 0 -147.5 -32t-72.5 -112t-22 -233v-797q0 -153 22 -233t72.5 -112t147.5 -32
q95 0 145 32t72 112t22 233zM350 463v342h125v-375q0 -107 -31.5 -146.5t-119.5 -39.5q-87 0 -118.5 39.5t-31.5 146.5v840q0 106 31.5 145t118.5 39q89 0 120 -38.5t31 -145.5v-373h-125v340q0 36 -3.5 55.5t-8.5 26t-14 6.5q-13 0 -19 -18t-6 -70v-774q0 -52 6 -69t19 -17
q9 0 14 5.5t8.5 25t3.5 55.5z" />
    <glyph glyph-name="ordfeminine" unicode="&#xaa;" horiz-adv-x="251" 
d="M139 1399v135q0 49 -16 49q-17 0 -17 -49v-98h-92v127q0 63 23 89.5t86 26.5t85.5 -26t22.5 -90v-592h-92v100q0 -59 -13 -81.5t-42 -22.5q-41 0 -54.5 21t-13.5 83v227q0 35 15 55t33 25.5t42 10.5t33 10zM125 1061q8 0 11 9.5t3 39.5v217q-10 -5 -13.5 -7t-9 -11.5
t-5.5 -22.5v-176q0 -30 3 -39.5t11 -9.5zM231 840h-204v80h204v-80z" />
    <glyph glyph-name="guillemotleft" unicode="&#xab;" horiz-adv-x="327" 
d="M12 799l92 479h89l-95 -479l95 -480h-89zM135 799l92 479h88l-94 -479l94 -480h-88z" />
    <glyph glyph-name="logicalnot" unicode="&#xac;" horiz-adv-x="552" 
d="M512 573h-80v195h-391v80h471v-275z" />
    <glyph glyph-name="registered" unicode="&#xae;" horiz-adv-x="360" 
d="M180 991q-88 0 -121.5 45.5t-33.5 147.5v303q0 102 33.5 147t121.5 45t122 -45t34 -147v-303q0 -102 -34 -147.5t-122 -45.5zM180 1642q-71 0 -96 -32t-25 -123v-303q0 -91 25.5 -123.5t95.5 -32.5t95.5 32.5t25.5 123.5v303q0 91 -25 123t-96 32zM201 1104l-23 207h-10
v-207h-66v483h76q46 0 66 -22.5t20 -79.5v-82q0 -63 -26 -80l26 -219h-63zM186 1522h-18v-156h20q11 0 11 47v62q0 47 -13 47z" />
    <glyph glyph-name="macron" unicode="&#xaf;" horiz-adv-x="512" 
d="M113 1530v112h286v-112h-286z" />
    <glyph glyph-name="degree" unicode="&#xb0;" horiz-adv-x="282" 
d="M141 1438q-55 0 -88 33t-33 88t32.5 87.5t88.5 32.5t88.5 -32.5t32.5 -87.5t-33 -88t-88 -33zM141 1630q-34 0 -52.5 -18.5t-18.5 -52.5t18.5 -53t52.5 -19t53 19t19 53t-19 52.5t-53 18.5z" />
    <glyph glyph-name="plusminus" unicode="&#xb1;" horiz-adv-x="552" 
d="M317 573h195v-79h-471v79h197v195h-197v80h197v196h79v-196h195v-80h-195v-195z" />
    <glyph glyph-name="twosuperior" unicode="&#xb2;" horiz-adv-x="233" 
d="M129 1442v110q0 41 -12 41q-13 0 -13 -41v-94h-84v115q0 57 21 81.5t76 24.5t75.5 -24t20.5 -82v-117q0 -31 -94 -401h90v-86h-180v65q100 373 100 408z" />
    <glyph glyph-name="threesuperior" unicode="&#xb3;" horiz-adv-x="239" 
d="M121 965q-55 0 -75.5 24t-20.5 82v109h84v-88q0 -41 12 -41t12 41v155q0 28 -2.5 36.5t-11.5 8.5h-45v86h41q16 0 16 43v138q0 21 -2 27.5t-8 6.5q-10 0 -10 -34v-101h-84v117q0 56 20 80t74 24t74 -24t20 -80v-182q0 -24 -11 -35.5t-40 -14.5q31 -6 42 -21.5t11 -49.5
v-201q0 -58 -20.5 -82t-75.5 -24z" />
    <glyph glyph-name="acute" unicode="&#xb4;" horiz-adv-x="512" 
d="M270 1522h-127l25 127h201z" />
    <glyph glyph-name="mu" unicode="&#xb5;" 
d="M16 -102v1577h156v-1225q0 -64 6.5 -84.5t24.5 -20.5q16 0 23 21t7 84v1225h156v-1475h-156v211q0 -185 -61 -215v-98h-156z" />
    <glyph glyph-name="paragraph" unicode="&#xb6;" horiz-adv-x="403" 
d="M293 1669h80v-1771h-80v1771zM170 1006h-12q-82 0 -111 64t-29 243v51q0 178 29 241.5t111 63.5h92v-1771h-80v1108z" />
    <glyph glyph-name="periodcentered" unicode="&#xb7;" horiz-adv-x="204" 
d="M188 711h-172v176h172v-176z" />
    <glyph glyph-name="cedilla" unicode="&#xb8;" horiz-adv-x="512" 
d="M244 -205q-105 0 -105 68v12h80v-4q0 -18 23 -18q24 0 24 28q0 29 -22 29q-15 0 -23 -14h-59l61 104h58l-56 -96q24 34 37 43.5t33 9.5q33 0 46 -17.5t13 -62.5q0 -47 -23.5 -64.5t-86.5 -17.5z" />
    <glyph glyph-name="onesuperior" unicode="&#xb9;" horiz-adv-x="184" 
d="M164 969h-86v600l-68 -43v88l96 55h58v-700z" />
    <glyph glyph-name="ordmasculine" unicode="&#xba;" horiz-adv-x="251" 
d="M125 1679q63 0 85.5 -26t22.5 -90v-484q0 -64 -22.5 -90t-85.5 -26t-86 26.5t-23 89.5v484q0 63 23 89.5t86 26.5zM125 1059q16 0 16 49v426q0 49 -16 49t-16 -49v-426q0 -49 16 -49zM231 840h-204v80h204v-80z" />
    <glyph glyph-name="guillemotright" unicode="&#xbb;" horiz-adv-x="327" 
d="M193 799l-93 -480h-88l94 480l-94 479h88zM315 799l-92 -480h-88l94 480l-94 479h88z" />
    <glyph glyph-name="onequarter" unicode="&#xbc;" horiz-adv-x="487" 
d="M174 969h-86v600l-68 -43v88l97 55h57v-700zM410 1669h57l-399 -1669h-58zM240 172v59l51 469h135v-452h20v-76h-20v-172h-78v172h-108zM319 248h29v370z" />
    <glyph glyph-name="onehalf" unicode="&#xbd;" horiz-adv-x="487" 
d="M174 969h-86v600l-68 -43v88l97 55h57v-700zM410 1669h57l-399 -1669h-58zM379 473v111q0 41 -12 41q-13 0 -13 -41v-95h-84v115q0 58 21 82.5t76 24.5t75.5 -24.5t20.5 -82.5v-117q0 -31 -94 -401h90v-86h-180v66q100 373 100 407z" />
    <glyph glyph-name="threequarters" unicode="&#xbe;" horiz-adv-x="501" 
d="M131 965q-55 0 -75.5 24t-20.5 82v109h84v-88q0 -41 12 -41t12 41v155q0 28 -2.5 36.5t-11.5 8.5h-45v86h41q16 0 16 43v138q0 21 -2 27.5t-8 6.5q-10 0 -10 -34v-101h-84v117q0 56 20 80t74 24t74 -24t20 -80v-182q0 -24 -11 -35.5t-40 -14.5q31 -6 42 -21.5t11 -49.5
v-201q0 -58 -20.5 -82t-75.5 -24zM424 1669h57l-399 -1669h-57zM254 172v59l51 469h135v-452h21v-76h-21v-172h-78v172h-108zM334 248h28v370z" />
    <glyph glyph-name="questiondown" unicode="&#xbf;" 
d="M160 1475h172v-177h-172v177zM389 90q0 -118 -39 -160.5t-147 -42.5q-109 0 -148 42.5t-39 160.5v434q0 52 12 91.5t30 62t39 43.5t39 36.5t30 41t12 57.5v223h135v-233q0 -50 -14.5 -87.5t-35.5 -61t-41.5 -46t-35 -55.5t-14.5 -76v-395q0 -56 7.5 -75t23.5 -19
q18 0 24 18t6 76v383h156v-418z" />
    <glyph glyph-name="Agrave" unicode="&#xc0;" horiz-adv-x="366" 
d="M121 1716l-98 127h200l25 -127h-127zM207 0l-8 524h-31l-8 -524h-154l45 1669h264l45 -1669h-153zM180 1466l-10 -786h27l-11 786h-6z" />
    <glyph glyph-name="Aacute" unicode="&#xc1;" horiz-adv-x="366" 
d="M248 1716h-127l24 127h201zM207 0l-8 524h-31l-8 -524h-154l45 1669h264l45 -1669h-153zM180 1466l-10 -786h27l-11 786h-6z" />
    <glyph glyph-name="Acircumflex" unicode="&#xc2;" horiz-adv-x="366" 
d="M215 1716l-31 58l-30 -58h-148l78 127h201l77 -127h-147zM207 0l-8 524h-31l-8 -524h-154l45 1669h264l45 -1669h-153zM180 1466l-10 -786h27l-11 786h-6z" />
    <glyph glyph-name="Atilde" unicode="&#xc3;" horiz-adv-x="366" 
d="M352 1843q0 -129 -100 -129q-25 0 -57 14.5t-48 14.5q-26 0 -26 -27h-105q0 61 24.5 95t74.5 34q31 0 63.5 -14t42.5 -14q25 0 25 26h106zM207 0l-8 524h-31l-8 -524h-154l45 1669h264l45 -1669h-153zM180 1466l-10 -786h27l-11 786h-6z" />
    <glyph glyph-name="Adieresis" unicode="&#xc4;" horiz-adv-x="366" 
d="M31 1718v146h133v-146h-133zM338 1718h-133v146h133v-146zM207 0l-8 524h-31l-8 -524h-154l45 1669h264l45 -1669h-153zM180 1466l-10 -786h27l-11 786h-6z" />
    <glyph glyph-name="Aring" unicode="&#xc5;" horiz-adv-x="366" 
d="M207 0l-8 524h-31l-8 -524h-154l45 1669h49q-22 28 -22 72q0 49 28 77.5t78 28.5t78.5 -28.5t28.5 -77.5q0 -42 -23 -72h47l45 -1669h-153zM184 1679q28 0 45 17t17 45t-17 44.5t-45 16.5t-44.5 -16.5t-16.5 -44.5t16.5 -45t44.5 -17zM180 1466l-10 -786h27l-11 786h-6z
" />
    <glyph glyph-name="AE" unicode="&#xc6;" horiz-adv-x="532" 
d="M6 0l66 1669h444v-156h-156v-557h156v-155h-156v-645h156v-156h-309v524h-33l-14 -524h-154zM201 1466l-23 -786h29v786h-6z" />
    <glyph glyph-name="Ccedilla" unicode="&#xc7;" 
d="M201 -205q-105 0 -105 68v12h80v-4q0 -18 23 -18q24 0 24 28q0 29 -22 29q-15 0 -23 -14h-59l55 94q-92 6 -125 53t-33 166v1251q0 127 39 173t148 46q108 0 147 -46t39 -173v-504h-156v465q0 63 -6 83t-24 20q-16 0 -23.5 -21t-7.5 -82v-1173q0 -61 7.5 -82t23.5 -21
q18 0 24 20t6 83v502h156v-541q0 -119 -34 -166t-124 -53l-49 -86q24 34 37 43.5t33 9.5q33 0 46 -17.5t13 -62.5q0 -47 -23.5 -64.5t-86.5 -17.5z" />
    <glyph glyph-name="Egrave" unicode="&#xc8;" horiz-adv-x="342" 
d="M109 1716l-99 127h201l25 -127h-127zM326 156v-156h-310v1669h310v-156h-154v-557h154v-155h-154v-645h154z" />
    <glyph glyph-name="Eacute" unicode="&#xc9;" horiz-adv-x="342" 
d="M236 1716h-127l24 127h201zM326 156v-156h-310v1669h310v-156h-154v-557h154v-155h-154v-645h154z" />
    <glyph glyph-name="Ecircumflex" unicode="&#xca;" horiz-adv-x="342" 
d="M203 1716l-31 58l-31 -58h-147l78 127h200l78 -127h-147zM326 156v-156h-310v1669h310v-156h-154v-557h154v-155h-154v-645h154z" />
    <glyph glyph-name="Edieresis" unicode="&#xcb;" horiz-adv-x="342" 
d="M18 1718v146h134v-146h-134zM326 1718h-133v146h133v-146zM326 156v-156h-310v1669h310v-156h-154v-557h154v-155h-154v-645h154z" />
    <glyph glyph-name="Igrave" unicode="&#xcc;" horiz-adv-x="188" 
d="M31 1716l-99 127h201l25 -127h-127zM16 0v1669h156v-1669h-156z" />
    <glyph glyph-name="Iacute" unicode="&#xcd;" horiz-adv-x="188" 
d="M158 1716h-127l24 127h201zM16 0v1669h156v-1669h-156z" />
    <glyph glyph-name="Icircumflex" unicode="&#xce;" horiz-adv-x="188" 
d="M125 1716l-31 58l-31 -58h-147l78 127h201l77 -127h-147zM16 0v1669h156v-1669h-156z" />
    <glyph glyph-name="Idieresis" unicode="&#xcf;" horiz-adv-x="188" 
d="M-59 1718v146h133v-146h-133zM248 1718h-133v146h133v-146zM16 0v1669h156v-1669h-156z" />
    <glyph glyph-name="Eth" unicode="&#xd0;" 
d="M16 0v782h-16v103h16v784h187q108 0 147 -46t39 -173v-1231q0 -127 -39 -173t-147 -46h-187zM203 782h-31v-626h31q18 0 24 19.5t6 82.5v1151q0 64 -6 84t-24 20h-31v-628h31v-103z" />
    <glyph glyph-name="Ntilde" unicode="&#xd1;" horiz-adv-x="403" 
d="M379 1843q0 -129 -100 -129q-25 0 -57 14.5t-48 14.5q-27 0 -27 -27h-104q0 129 98 129q31 0 64 -14t43 -14q24 0 24 26h107zM266 0l-110 967v-967h-140v1669h119l113 -1038v1038h139v-1669h-121z" />
    <glyph glyph-name="Ograve" unicode="&#xd2;" 
d="M139 1716l-98 127h201l24 -127h-127zM389 209q0 -128 -38.5 -173.5t-147.5 -45.5t-148 46t-39 173v1251q0 127 39 173t148 46t147.5 -45.5t38.5 -173.5v-1251zM233 1421q0 61 -7 82t-23 21t-23.5 -21t-7.5 -82v-1173q0 -61 7.5 -82t23.5 -21t23 21t7 82v1173z" />
    <glyph glyph-name="Oacute" unicode="&#xd3;" 
d="M266 1716h-127l25 127h201zM389 209q0 -128 -38.5 -173.5t-147.5 -45.5t-148 46t-39 173v1251q0 127 39 173t148 46t147.5 -45.5t38.5 -173.5v-1251zM233 1421q0 61 -7 82t-23 21t-23.5 -21t-7.5 -82v-1173q0 -61 7.5 -82t23.5 -21t23 21t7 82v1173z" />
    <glyph glyph-name="Ocircumflex" unicode="&#xd4;" 
d="M233 1716l-30 58l-31 -58h-147l77 127h201l78 -127h-148zM389 209q0 -128 -38.5 -173.5t-147.5 -45.5t-148 46t-39 173v1251q0 127 39 173t148 46t147.5 -45.5t38.5 -173.5v-1251zM233 1421q0 61 -7 82t-23 21t-23.5 -21t-7.5 -82v-1173q0 -61 7.5 -82t23.5 -21t23 21
t7 82v1173z" />
    <glyph glyph-name="Otilde" unicode="&#xd5;" 
d="M371 1843q0 -61 -25.5 -95t-75.5 -34q-25 0 -56.5 14.5t-47.5 14.5q-27 0 -27 -27h-104q0 129 98 129q31 0 64 -14t43 -14q24 0 24 26h107zM389 209q0 -128 -38.5 -173.5t-147.5 -45.5t-148 46t-39 173v1251q0 127 39 173t148 46t147.5 -45.5t38.5 -173.5v-1251z
M233 1421q0 61 -7 82t-23 21t-23.5 -21t-7.5 -82v-1173q0 -61 7.5 -82t23.5 -21t23 21t7 82v1173z" />
    <glyph glyph-name="Odieresis" unicode="&#xd6;" 
d="M49 1718v146h133v-146h-133zM356 1718h-133v146h133v-146zM389 209q0 -128 -38.5 -173.5t-147.5 -45.5t-148 46t-39 173v1251q0 127 39 173t148 46t147.5 -45.5t38.5 -173.5v-1251zM233 1421q0 61 -7 82t-23 21t-23.5 -21t-7.5 -82v-1173q0 -61 7.5 -82t23.5 -21t23 21
t7 82v1173z" />
    <glyph glyph-name="multiply" unicode="&#xd7;" horiz-adv-x="552" 
d="M111 584l-58 57l168 168l-168 168l58 57l168 -168l165 166l58 -57l-166 -166l166 -166l-58 -57l-165 166z" />
    <glyph glyph-name="Oslash" unicode="&#xd8;" 
d="M16 0l17 78q-17 44 -17 131v1251q0 127 39 173t148 46q114 0 153 -53l9 43h24l-14 -80q14 -46 14 -129v-1251q0 -127 -39 -173t-147 -46q-115 0 -154 53l-8 -43h-25zM203 1524q-16 0 -23.5 -21t-7.5 -82v-708l61 510v198q0 63 -6 83t-24 20zM172 248q0 -61 7.5 -82
t23.5 -21q18 0 24 20t6 83v741l-61 -524v-217z" />
    <glyph glyph-name="Ugrave" unicode="&#xd9;" 
d="M139 1716l-98 127h201l24 -127h-127zM233 1669h156v-1460q0 -127 -39 -173t-147 -46q-109 0 -148 46t-39 173v1460h156v-1421q0 -61 7.5 -82t23.5 -21q18 0 24 20t6 83v1421z" />
    <glyph glyph-name="Uacute" unicode="&#xda;" 
d="M266 1716h-127l25 127h201zM233 1669h156v-1460q0 -127 -39 -173t-147 -46q-109 0 -148 46t-39 173v1460h156v-1421q0 -61 7.5 -82t23.5 -21q18 0 24 20t6 83v1421z" />
    <glyph glyph-name="Ucircumflex" unicode="&#xdb;" 
d="M233 1716l-30 58l-31 -58h-147l77 127h201l78 -127h-148zM233 1669h156v-1460q0 -127 -39 -173t-147 -46q-109 0 -148 46t-39 173v1460h156v-1421q0 -61 7.5 -82t23.5 -21q18 0 24 20t6 83v1421z" />
    <glyph glyph-name="Udieresis" unicode="&#xdc;" 
d="M49 1718v146h133v-146h-133zM356 1718h-133v146h133v-146zM233 1669h156v-1460q0 -127 -39 -173t-147 -46q-109 0 -148 46t-39 173v1460h156v-1421q0 -61 7.5 -82t23.5 -21q18 0 24 20t6 83v1421z" />
    <glyph glyph-name="Yacute" unicode="&#xdd;" horiz-adv-x="366" 
d="M248 1716h-127l24 127h201zM106 496l-100 1173h139l37 -754h2l37 754h139l-100 -1173v-496h-154v496z" />
    <glyph glyph-name="Thorn" unicode="&#xde;" 
d="M16 1669h156v-194h31q107 0 146.5 -46.5t39.5 -173.5v-639q0 -127 -39 -173t-147 -46h-31v-397h-156v1669zM203 1319h-31v-766h31q18 0 24 19.5t6 82.5v559q0 64 -6 84.5t-24 20.5z" />
    <glyph glyph-name="germandbls" unicode="&#xdf;" horiz-adv-x="403" 
d="M371 1468v-262q0 -63 -23.5 -91t-87.5 -34q74 -6 100.5 -41t26.5 -118v-703q0 -127 -40.5 -173t-149.5 -46v154q19 0 26.5 20.5t7.5 83.5v625q0 69 -4 86.5t-24 17.5h-8v156h8q9 0 11.5 18.5t2.5 83.5v205q0 45 -5.5 60.5t-16.5 15.5q-23 0 -23 -76v-1450h-156v1468
q0 122 37.5 166.5t141.5 44.5q102 0 139 -44.5t37 -166.5z" />
    <glyph glyph-name="agrave" unicode="&#xe0;" 
d="M139 1522l-98 127h201l24 -127h-127zM172 1225v-254h-156v293q0 128 39 174.5t148 46.5q108 0 147 -46.5t39 -174.5v-1264h-156v209q0 -125 -24 -172t-82 -47q-65 0 -88 46t-23 173v475q0 49 11.5 84.5t29.5 53t43 29.5t47 16t47 10.5t39 15.5v332q0 63 -7 83.5t-23 20.5
t-23.5 -21t-7.5 -83zM172 248q0 -61 7.5 -82t23.5 -21q18 0 24 20t6 83v540q-1 0 -9 -4.5t-10.5 -5.5t-9.5 -6t-10 -8.5t-8.5 -10.5t-7.5 -13.5t-4 -16.5t-2 -21v-454z" />
    <glyph glyph-name="aacute" unicode="&#xe1;" 
d="M266 1522h-127l25 127h201zM172 1225v-254h-156v293q0 128 39 174.5t148 46.5q108 0 147 -46.5t39 -174.5v-1264h-156v209q0 -125 -24 -172t-82 -47q-65 0 -88 46t-23 173v475q0 49 11.5 84.5t29.5 53t43 29.5t47 16t47 10.5t39 15.5v332q0 63 -7 83.5t-23 20.5
t-23.5 -21t-7.5 -83zM172 248q0 -61 7.5 -82t23.5 -21q18 0 24 20t6 83v540q-1 0 -9 -4.5t-10.5 -5.5t-9.5 -6t-10 -8.5t-8.5 -10.5t-7.5 -13.5t-4 -16.5t-2 -21v-454z" />
    <glyph glyph-name="acircumflex" unicode="&#xe2;" 
d="M233 1522l-30 57l-31 -57h-147l77 127h201l78 -127h-148zM172 1225v-254h-156v293q0 128 39 174.5t148 46.5q108 0 147 -46.5t39 -174.5v-1264h-156v209q0 -125 -24 -172t-82 -47q-65 0 -88 46t-23 173v475q0 49 11.5 84.5t29.5 53t43 29.5t47 16t47 10.5t39 15.5v332
q0 63 -7 83.5t-23 20.5t-23.5 -21t-7.5 -83zM172 248q0 -61 7.5 -82t23.5 -21q18 0 24 20t6 83v540q-1 0 -9 -4.5t-10.5 -5.5t-9.5 -6t-10 -8.5t-8.5 -10.5t-7.5 -13.5t-4 -16.5t-2 -21v-454z" />
    <glyph glyph-name="atilde" unicode="&#xe3;" 
d="M371 1649q0 -61 -25.5 -95t-75.5 -34q-25 0 -56.5 14t-47.5 14q-27 0 -27 -26h-104q0 129 98 129q31 0 64 -14.5t43 -14.5q24 0 24 27h107zM172 1225v-254h-156v293q0 128 39 174.5t148 46.5q108 0 147 -46.5t39 -174.5v-1264h-156v209q0 -125 -24 -172t-82 -47
q-65 0 -88 46t-23 173v475q0 49 11.5 84.5t29.5 53t43 29.5t47 16t47 10.5t39 15.5v332q0 63 -7 83.5t-23 20.5t-23.5 -21t-7.5 -83zM172 248q0 -61 7.5 -82t23.5 -21q18 0 24 20t6 83v540q-1 0 -9 -4.5t-10.5 -5.5t-9.5 -6t-10 -8.5t-8.5 -10.5t-7.5 -13.5t-4 -16.5t-2 -21
v-454z" />
    <glyph glyph-name="adieresis" unicode="&#xe4;" 
d="M49 1524v145h133v-145h-133zM356 1524h-133v145h133v-145zM172 1225v-254h-156v293q0 128 39 174.5t148 46.5q108 0 147 -46.5t39 -174.5v-1264h-156v209q0 -125 -24 -172t-82 -47q-65 0 -88 46t-23 173v475q0 49 11.5 84.5t29.5 53t43 29.5t47 16t47 10.5t39 15.5v332
q0 63 -7 83.5t-23 20.5t-23.5 -21t-7.5 -83zM172 248q0 -61 7.5 -82t23.5 -21q18 0 24 20t6 83v540q-1 0 -9 -4.5t-10.5 -5.5t-9.5 -6t-10 -8.5t-8.5 -10.5t-7.5 -13.5t-4 -16.5t-2 -21v-454z" />
    <glyph glyph-name="aring" unicode="&#xe5;" 
d="M172 1225v-254h-156v293q0 100 22.5 148t80.5 65q-23 26 -23 69q0 50 29 78.5t78 28.5t77.5 -28.5t28.5 -78.5q0 -44 -22 -69q58 -17 80 -65t22 -148v-1264h-156v209q0 -125 -24 -172t-82 -47q-65 0 -88 46t-23 173v475q0 49 11.5 84.5t29.5 53t43 29.5t47 16t47 10.5
t39 15.5v332q0 63 -7 83.5t-23 20.5t-23.5 -21t-7.5 -83zM203 1485q28 0 44.5 16.5t16.5 44.5t-16.5 45t-44.5 17t-45 -17t-17 -45t17 -44.5t45 -16.5zM172 248q0 -61 7.5 -82t23.5 -21q18 0 24 20t6 83v540q-1 0 -9 -4.5t-10.5 -5.5t-9.5 -6t-10 -8.5t-8.5 -10.5
t-7.5 -13.5t-4 -16.5t-2 -21v-454z" />
    <glyph glyph-name="ae" unicode="&#xe6;" horiz-adv-x="622" 
d="M606 211q0 -128 -39 -174.5t-147 -46.5q-102 0 -142.5 39.5t-44.5 146.5q-4 -105 -28 -145.5t-78 -40.5q-65 0 -88 46t-23 173v434q0 49 11.5 84.5t29.5 53t43 29.5t47 16t47 10.5t39 15.5v373q0 64 -6 84t-24 20q-16 0 -23.5 -21t-7.5 -83v-254h-156v293q0 128 39 174.5
t148 46.5q45 0 106 -27q63 27 111 27q108 0 147 -46.5t39 -174.5v-574h-217v-440q0 -62 7.5 -83.5t23.5 -21.5t23.5 21.5t7.5 83.5v295h155v-334zM389 1225v-379h62v379q0 62 -7.5 83t-23.5 21t-23.5 -21t-7.5 -83zM172 248q0 -61 7.5 -82t23.5 -21q18 0 24 20t6 83v500
q-1 0 -9 -4.5t-10.5 -5.5t-9.5 -6t-10 -8.5t-8.5 -10.5t-7.5 -13.5t-4 -16.5t-2 -21v-414z" />
    <glyph glyph-name="ccedilla" unicode="&#xe7;" 
d="M201 -205q-105 0 -105 68v12h80v-4q0 -18 23 -18q24 0 24 28q0 29 -22 29q-15 0 -23 -14h-59l55 94q-91 6 -124.5 53.5t-33.5 167.5v1053q0 128 39 174.5t148 46.5q108 0 147 -46.5t39 -174.5v-447h-156v408q0 63 -7 83.5t-23 20.5t-23.5 -21t-7.5 -83v-975
q0 -62 7.5 -83.5t23.5 -21.5t23 21t7 84v420h156v-459q0 -120 -33.5 -167.5t-124.5 -53.5l-49 -86q24 34 37 43.5t33 9.5q33 0 46 -17.5t13 -62.5q0 -47 -23.5 -64.5t-86.5 -17.5z" />
    <glyph glyph-name="egrave" unicode="&#xe8;" 
d="M139 1522l-98 127h201l24 -127h-127zM389 690h-217v-440q0 -62 7.5 -83.5t23.5 -21.5t23 21t7 84v295h156v-334q0 -128 -39 -174.5t-147 -46.5q-109 0 -148 46.5t-39 174.5v1053q0 128 39 174.5t148 46.5q108 0 147 -46.5t39 -174.5v-574zM172 1225v-379h61v379
q0 63 -7 83.5t-23 20.5t-23.5 -21t-7.5 -83z" />
    <glyph glyph-name="eacute" unicode="&#xe9;" 
d="M266 1522h-127l25 127h201zM389 690h-217v-440q0 -62 7.5 -83.5t23.5 -21.5t23 21t7 84v295h156v-334q0 -128 -39 -174.5t-147 -46.5q-109 0 -148 46.5t-39 174.5v1053q0 128 39 174.5t148 46.5q108 0 147 -46.5t39 -174.5v-574zM172 1225v-379h61v379q0 63 -7 83.5
t-23 20.5t-23.5 -21t-7.5 -83z" />
    <glyph glyph-name="ecircumflex" unicode="&#xea;" 
d="M233 1522l-30 57l-31 -57h-147l77 127h201l78 -127h-148zM389 690h-217v-440q0 -62 7.5 -83.5t23.5 -21.5t23 21t7 84v295h156v-334q0 -128 -39 -174.5t-147 -46.5q-109 0 -148 46.5t-39 174.5v1053q0 128 39 174.5t148 46.5q108 0 147 -46.5t39 -174.5v-574zM172 1225
v-379h61v379q0 63 -7 83.5t-23 20.5t-23.5 -21t-7.5 -83z" />
    <glyph glyph-name="edieresis" unicode="&#xeb;" 
d="M49 1524v145h133v-145h-133zM356 1524h-133v145h133v-145zM389 690h-217v-440q0 -62 7.5 -83.5t23.5 -21.5t23 21t7 84v295h156v-334q0 -128 -39 -174.5t-147 -46.5q-109 0 -148 46.5t-39 174.5v1053q0 128 39 174.5t148 46.5q108 0 147 -46.5t39 -174.5v-574zM172 1225
v-379h61v379q0 63 -7 83.5t-23 20.5t-23.5 -21t-7.5 -83z" />
    <glyph glyph-name="igrave" unicode="&#xec;" horiz-adv-x="188" 
d="M31 1522l-99 127h201l25 -127h-127zM16 0v1475h156v-1475h-156z" />
    <glyph glyph-name="iacute" unicode="&#xed;" horiz-adv-x="188" 
d="M158 1522h-127l24 127h201zM16 0v1475h156v-1475h-156z" />
    <glyph glyph-name="icircumflex" unicode="&#xee;" horiz-adv-x="188" 
d="M125 1522l-31 57l-31 -57h-147l78 127h201l77 -127h-147zM16 0v1475h156v-1475h-156z" />
    <glyph glyph-name="idieresis" unicode="&#xef;" horiz-adv-x="188" 
d="M-59 1524v145h133v-145h-133zM248 1524h-133v145h133v-145zM16 0v1475h156v-1475h-156z" />
    <glyph glyph-name="eth" unicode="&#xf0;" 
d="M233 1411q0 50 -12 74l-18 -23h-60l43 49q-6 2 -24 2h-56l41 156h56q73 0 108 -18l17 18h59l-39 -43q41 -44 41 -176v-1239q0 -128 -39 -174.5t-147 -46.5q-109 0 -148 46.5t-39 174.5v1003q0 128 23.5 175t87.5 47q58 0 82 -48.5t24 -173.5v197zM203 145q16 0 23 21
t7 84v926q0 62 -7 83t-23 21q-18 0 -24.5 -20t-6.5 -84v-926q0 -62 7.5 -83.5t23.5 -21.5z" />
    <glyph glyph-name="ntilde" unicode="&#xf1;" 
d="M373 1649q0 -61 -25.5 -95t-75.5 -34q-25 0 -56.5 14t-47.5 14q-27 0 -27 -26h-104q0 129 98 129q31 0 64 -14.5t43 -14.5q24 0 24 27h107zM389 0h-156v1225q0 64 -6 84t-24 20q-16 0 -23.5 -21t-7.5 -83v-1225h-156v1475h156v-211q0 125 24.5 173t82.5 48q64 0 87 -46.5
t23 -174.5v-1264z" />
    <glyph glyph-name="ograve" unicode="&#xf2;" 
d="M139 1522l-98 127h201l24 -127h-127zM203 1485q108 0 147 -46.5t39 -174.5v-1053q0 -128 -39 -174.5t-147 -46.5q-109 0 -148 46.5t-39 174.5v1053q0 128 39 174.5t148 46.5zM203 145q16 0 23 21t7 84v975q0 63 -7 83.5t-23 20.5t-23.5 -21t-7.5 -83v-975
q0 -62 7.5 -83.5t23.5 -21.5z" />
    <glyph glyph-name="oacute" unicode="&#xf3;" 
d="M266 1522h-127l25 127h201zM203 1485q108 0 147 -46.5t39 -174.5v-1053q0 -128 -39 -174.5t-147 -46.5q-109 0 -148 46.5t-39 174.5v1053q0 128 39 174.5t148 46.5zM203 145q16 0 23 21t7 84v975q0 63 -7 83.5t-23 20.5t-23.5 -21t-7.5 -83v-975q0 -62 7.5 -83.5
t23.5 -21.5z" />
    <glyph glyph-name="ocircumflex" unicode="&#xf4;" 
d="M233 1522l-30 57l-31 -57h-147l77 127h201l78 -127h-148zM203 1485q108 0 147 -46.5t39 -174.5v-1053q0 -128 -39 -174.5t-147 -46.5q-109 0 -148 46.5t-39 174.5v1053q0 128 39 174.5t148 46.5zM203 145q16 0 23 21t7 84v975q0 63 -7 83.5t-23 20.5t-23.5 -21t-7.5 -83
v-975q0 -62 7.5 -83.5t23.5 -21.5z" />
    <glyph glyph-name="otilde" unicode="&#xf5;" 
d="M371 1649q0 -61 -25.5 -95t-75.5 -34q-25 0 -56.5 14t-47.5 14q-27 0 -27 -26h-104q0 129 98 129q31 0 64 -14.5t43 -14.5q24 0 24 27h107zM203 1485q108 0 147 -46.5t39 -174.5v-1053q0 -128 -39 -174.5t-147 -46.5q-109 0 -148 46.5t-39 174.5v1053q0 128 39 174.5
t148 46.5zM203 145q16 0 23 21t7 84v975q0 63 -7 83.5t-23 20.5t-23.5 -21t-7.5 -83v-975q0 -62 7.5 -83.5t23.5 -21.5z" />
    <glyph glyph-name="odieresis" unicode="&#xf6;" 
d="M49 1524v145h133v-145h-133zM356 1524h-133v145h133v-145zM203 1485q108 0 147 -46.5t39 -174.5v-1053q0 -128 -39 -174.5t-147 -46.5q-109 0 -148 46.5t-39 174.5v1053q0 128 39 174.5t148 46.5zM203 145q16 0 23 21t7 84v975q0 63 -7 83.5t-23 20.5t-23.5 -21t-7.5 -83
v-975q0 -62 7.5 -83.5t23.5 -21.5z" />
    <glyph glyph-name="divide" unicode="&#xf7;" horiz-adv-x="552" 
d="M348 942h-125v117h125v-117zM512 768h-471v80h471v-80zM348 555h-125v117h125v-117z" />
    <glyph glyph-name="oslash" unicode="&#xf8;" 
d="M16 0l17 78q-17 47 -17 133v1053q0 128 39 174.5t148 46.5q81 0 121 -25l2 15h63l-16 -78q16 -44 16 -133v-1053q0 -128 -39 -174.5t-147 -46.5q-81 0 -121 22l-2 -12h-64zM172 1225v-539l61 426v113q0 63 -7 83.5t-23 20.5t-23.5 -21t-7.5 -83zM203 145q16 0 23 21t7 84
v487l-61 -399v-88q0 -62 7.5 -83.5t23.5 -21.5z" />
    <glyph glyph-name="ugrave" unicode="&#xf9;" 
d="M141 1522l-98 127h201l24 -127h-127zM233 0v211q0 -125 -24 -173t-82 -48q-64 0 -87.5 46.5t-23.5 174.5v1264h156v-1225q0 -64 6.5 -84.5t24.5 -20.5q16 0 23 21t7 84v1225h156v-1475h-156z" />
    <glyph glyph-name="uacute" unicode="&#xfa;" 
d="M268 1522h-127l25 127h201zM233 0v211q0 -125 -24 -173t-82 -48q-64 0 -87.5 46.5t-23.5 174.5v1264h156v-1225q0 -64 6.5 -84.5t24.5 -20.5q16 0 23 21t7 84v1225h156v-1475h-156z" />
    <glyph glyph-name="ucircumflex" unicode="&#xfb;" 
d="M236 1522l-31 57l-31 -57h-147l77 127h201l78 -127h-147zM233 0v211q0 -125 -24 -173t-82 -48q-64 0 -87.5 46.5t-23.5 174.5v1264h156v-1225q0 -64 6.5 -84.5t24.5 -20.5q16 0 23 21t7 84v1225h156v-1475h-156z" />
    <glyph glyph-name="udieresis" unicode="&#xfc;" 
d="M51 1524v145h133v-145h-133zM358 1524h-133v145h133v-145zM233 0v211q0 -125 -24 -173t-82 -48q-64 0 -87.5 46.5t-23.5 174.5v1264h156v-1225q0 -64 6.5 -84.5t24.5 -20.5q16 0 23 21t7 84v1225h156v-1475h-156z" />
    <glyph glyph-name="yacute" unicode="&#xfd;" horiz-adv-x="370" 
d="M250 1522h-127l24 127h201zM291 166q-9 -145 -59.5 -206.5t-155.5 -61.5v147h22q17 0 23.5 6.5t7.5 26.5l4 37h-57l-76 1360h154l22 -1229l39 1229h156z" />
    <glyph glyph-name="thorn" unicode="&#xfe;" 
d="M172 1264q0 125 24.5 173t82.5 48q64 0 87 -46.5t23 -174.5v-1055q0 -128 -23 -173.5t-87 -45.5q-58 0 -82.5 47t-24.5 172v-311h-156v1771h156v-405zM172 248q0 -61 7.5 -82t23.5 -21q18 0 24 20t6 83v977q0 64 -6 84t-24 20q-16 0 -23.5 -21t-7.5 -83v-977z" />
    <glyph glyph-name="ydieresis" unicode="&#xff;" horiz-adv-x="370" 
d="M33 1524v145h133v-145h-133zM340 1524h-133v145h133v-145zM291 166q-9 -145 -59.5 -206.5t-155.5 -61.5v147h22q17 0 23.5 6.5t7.5 26.5l4 37h-57l-76 1360h154l22 -1229l39 1229h156z" />
    <glyph glyph-name="Amacron" unicode="&#x100;" horiz-adv-x="366" 
d="M41 1724v113h287v-113h-287zM207 0l-8 524h-31l-8 -524h-154l45 1669h264l45 -1669h-153zM180 1466l-10 -786h27l-11 786h-6z" />
    <glyph glyph-name="amacron" unicode="&#x101;" 
d="M59 1530v112h287v-112h-287zM172 1225v-254h-156v293q0 128 39 174.5t148 46.5q108 0 147 -46.5t39 -174.5v-1264h-156v209q0 -125 -24 -172t-82 -47q-65 0 -88 46t-23 173v475q0 49 11.5 84.5t29.5 53t43 29.5t47 16t47 10.5t39 15.5v332q0 63 -7 83.5t-23 20.5
t-23.5 -21t-7.5 -83zM172 248q0 -61 7.5 -82t23.5 -21q18 0 24 20t6 83v540q-1 0 -9 -4.5t-10.5 -5.5t-9.5 -6t-10 -8.5t-8.5 -10.5t-7.5 -13.5t-4 -16.5t-2 -21v-454z" />
    <glyph glyph-name="Abreve" unicode="&#x102;" horiz-adv-x="366" 
d="M184 1790q22 0 30.5 12t8.5 41h119q-9 -72 -44.5 -100.5t-113.5 -28.5t-113 28.5t-44 100.5h118q0 -29 8.5 -41t30.5 -12zM207 0l-8 524h-31l-8 -524h-154l45 1669h264l45 -1669h-153zM180 1466l-10 -786h27l-11 786h-6z" />
    <glyph glyph-name="abreve" unicode="&#x103;" 
d="M203 1595q22 0 30.5 12.5t8.5 41.5h118q-9 -72 -44 -100.5t-113 -28.5t-113.5 28.5t-44.5 100.5h119q0 -29 8.5 -41.5t30.5 -12.5zM172 1225v-254h-156v293q0 128 39 174.5t148 46.5q108 0 147 -46.5t39 -174.5v-1264h-156v209q0 -125 -24 -172t-82 -47q-65 0 -88 46
t-23 173v475q0 49 11.5 84.5t29.5 53t43 29.5t47 16t47 10.5t39 15.5v332q0 63 -7 83.5t-23 20.5t-23.5 -21t-7.5 -83zM172 248q0 -61 7.5 -82t23.5 -21q18 0 24 20t6 83v540q-1 0 -9 -4.5t-10.5 -5.5t-9.5 -6t-10 -8.5t-8.5 -10.5t-7.5 -13.5t-4 -16.5t-2 -21v-454z" />
    <glyph glyph-name="Aogonek" unicode="&#x104;" horiz-adv-x="366" 
d="M266 0q-39 -49 -39 -109q0 -21 5.5 -29.5t19.5 -8.5q22 0 22 18v4h74v-16q0 -30 -27 -47t-79 -17q-60 0 -84.5 18.5t-24.5 59.5q0 33 17.5 60.5t56.5 66.5l-8 524h-31l-8 -524h-154l45 1669h264l45 -1669h-94zM180 1466l-10 -786h27l-11 786h-6z" />
    <glyph glyph-name="aogonek" unicode="&#x105;" 
d="M305 0q-39 -49 -39 -109q0 -21 5.5 -29.5t19.5 -8.5q22 0 22 18v4h74v-16q0 -30 -27 -47t-79 -17q-60 0 -84.5 18.5t-24.5 59.5q0 33 17.5 60.5t56.5 66.5h-13v209q0 -125 -24 -172t-82 -47q-65 0 -88 46t-23 173v475q0 49 11.5 84.5t29.5 53t43 29.5t47 16t47 10.5
t39 15.5v332q0 63 -7 83.5t-23 20.5t-23.5 -21t-7.5 -83v-254h-156v293q0 128 39 174.5t148 46.5q108 0 147 -46.5t39 -174.5v-1264h-84zM172 248q0 -61 7.5 -82t23.5 -21q18 0 24 20t6 83v540q-1 0 -9 -4.5t-10.5 -5.5t-9.5 -6t-10 -8.5t-8.5 -10.5t-7.5 -13.5t-4 -16.5
t-2 -21v-454z" />
    <glyph glyph-name="Cacute" unicode="&#x106;" 
d="M268 1716h-127l25 127h201zM233 750h156v-541q0 -127 -39 -173t-147 -46q-109 0 -148 46t-39 173v1251q0 127 39 173t148 46q108 0 147 -46t39 -173v-504h-156v465q0 63 -6 83t-24 20q-16 0 -23.5 -21t-7.5 -82v-1173q0 -61 7.5 -82t23.5 -21q18 0 24 20t6 83v502z" />
    <glyph glyph-name="cacute" unicode="&#x107;" 
d="M268 1522h-127l25 127h201zM233 670h156v-459q0 -128 -39 -174.5t-147 -46.5q-109 0 -148 46.5t-39 174.5v1053q0 128 39 174.5t148 46.5q108 0 147 -46.5t39 -174.5v-447h-156v408q0 63 -7 83.5t-23 20.5t-23.5 -21t-7.5 -83v-975q0 -62 7.5 -83.5t23.5 -21.5t23 21
t7 84v420z" />
    <glyph glyph-name="Ccircumflex" unicode="&#x108;" 
d="M236 1716l-31 58l-31 -58h-147l77 127h201l78 -127h-147zM233 750h156v-541q0 -127 -39 -173t-147 -46q-109 0 -148 46t-39 173v1251q0 127 39 173t148 46q108 0 147 -46t39 -173v-504h-156v465q0 63 -6 83t-24 20q-16 0 -23.5 -21t-7.5 -82v-1173q0 -61 7.5 -82
t23.5 -21q18 0 24 20t6 83v502z" />
    <glyph glyph-name="ccircumflex" unicode="&#x109;" 
d="M236 1522l-31 57l-31 -57h-147l77 127h201l78 -127h-147zM233 670h156v-459q0 -128 -39 -174.5t-147 -46.5q-109 0 -148 46.5t-39 174.5v1053q0 128 39 174.5t148 46.5q108 0 147 -46.5t39 -174.5v-447h-156v408q0 63 -7 83.5t-23 20.5t-23.5 -21t-7.5 -83v-975
q0 -62 7.5 -83.5t23.5 -21.5t23 21t7 84v420z" />
    <glyph glyph-name="Cdotaccent" unicode="&#x10a;" 
d="M205 1716q-36 0 -58 21t-22 57t22 57t58 21t58 -21t22 -57t-22 -57t-58 -21zM233 750h156v-541q0 -127 -39 -173t-147 -46q-109 0 -148 46t-39 173v1251q0 127 39 173t148 46q108 0 147 -46t39 -173v-504h-156v465q0 63 -6 83t-24 20q-16 0 -23.5 -21t-7.5 -82v-1173
q0 -61 7.5 -82t23.5 -21q18 0 24 20t6 83v502z" />
    <glyph glyph-name="cdotaccent" unicode="&#x10b;" 
d="M205 1522q-36 0 -58 20.5t-22 56.5t22 57t58 21t58 -21t22 -57t-22 -56.5t-58 -20.5zM233 670h156v-459q0 -128 -39 -174.5t-147 -46.5q-109 0 -148 46.5t-39 174.5v1053q0 128 39 174.5t148 46.5q108 0 147 -46.5t39 -174.5v-447h-156v408q0 63 -7 83.5t-23 20.5
t-23.5 -21t-7.5 -83v-975q0 -62 7.5 -83.5t23.5 -21.5t23 21t7 84v420z" />
    <glyph glyph-name="Ccaron" unicode="&#x10c;" 
d="M236 1843h147l-78 -127h-201l-77 127h147l31 -57zM233 750h156v-541q0 -127 -39 -173t-147 -46q-109 0 -148 46t-39 173v1251q0 127 39 173t148 46q108 0 147 -46t39 -173v-504h-156v465q0 63 -6 83t-24 20q-16 0 -23.5 -21t-7.5 -82v-1173q0 -61 7.5 -82t23.5 -21
q18 0 24 20t6 83v502z" />
    <glyph glyph-name="ccaron" unicode="&#x10d;" 
d="M236 1649h147l-78 -127h-201l-77 127h147l31 -58zM233 670h156v-459q0 -128 -39 -174.5t-147 -46.5q-109 0 -148 46.5t-39 174.5v1053q0 128 39 174.5t148 46.5q108 0 147 -46.5t39 -174.5v-447h-156v408q0 63 -7 83.5t-23 20.5t-23.5 -21t-7.5 -83v-975q0 -62 7.5 -83.5
t23.5 -21.5t23 21t7 84v420z" />
    <glyph glyph-name="Dcaron" unicode="&#x10e;" 
d="M236 1843h147l-78 -127h-201l-77 127h147l31 -57zM16 0v1669h187q108 0 147 -46t39 -173v-1231q0 -127 -39 -173t-147 -46h-187zM203 1513h-31v-1357h31q18 0 24 19.5t6 82.5v1151q0 64 -6 84t-24 20z" />
    <glyph glyph-name="dcaron" unicode="&#x10f;" 
d="M233 1264v405h156v-1669h-156v209q0 -125 -24 -172t-82 -47q-65 0 -88 46t-23 173v1055q0 128 23.5 174.5t87.5 46.5q58 0 82 -48t24 -173zM508 1505h-86v164h160zM233 1225q0 64 -6 84t-24 20q-16 0 -23.5 -21t-7.5 -83v-977q0 -61 7.5 -82t23.5 -21q18 0 24 20t6 83
v977z" />
    <glyph glyph-name="Dcroat" unicode="&#x110;" 
d="M16 0v782h-16v103h16v784h187q108 0 147 -46t39 -173v-1231q0 -127 -39 -173t-147 -46h-187zM203 782h-31v-626h31q18 0 24 19.5t6 82.5v1151q0 64 -6 84t-24 20h-31v-628h31v-103z" />
    <glyph glyph-name="dcroat" unicode="&#x111;" 
d="M233 1264v290h-75v62h75v53h156v-1669h-156v209q0 -125 -24 -172t-82 -47q-65 0 -88 46t-23 173v1055q0 128 23.5 174.5t87.5 46.5q58 0 82 -48t24 -173zM233 1225q0 64 -6 84t-24 20q-16 0 -23.5 -21t-7.5 -83v-977q0 -61 7.5 -82t23.5 -21q18 0 24 20t6 83v977z" />
    <glyph glyph-name="Emacron" unicode="&#x112;" horiz-adv-x="342" 
d="M29 1724v113h286v-113h-286zM326 156v-156h-310v1669h310v-156h-154v-557h154v-155h-154v-645h154z" />
    <glyph glyph-name="emacron" unicode="&#x113;" 
d="M59 1530v112h287v-112h-287zM389 690h-217v-440q0 -62 7.5 -83.5t23.5 -21.5t23 21t7 84v295h156v-334q0 -128 -39 -174.5t-147 -46.5q-109 0 -148 46.5t-39 174.5v1053q0 128 39 174.5t148 46.5q108 0 147 -46.5t39 -174.5v-574zM172 1225v-379h61v379q0 63 -7 83.5
t-23 20.5t-23.5 -21t-7.5 -83z" />
    <glyph glyph-name="Ebreve" unicode="&#x114;" horiz-adv-x="342" 
d="M172 1790q22 0 30.5 12t8.5 41h119q-9 -72 -44.5 -100.5t-113.5 -28.5t-113.5 28.5t-44.5 100.5h119q0 -29 8.5 -41t30.5 -12zM326 156v-156h-310v1669h310v-156h-154v-557h154v-155h-154v-645h154z" />
    <glyph glyph-name="ebreve" unicode="&#x115;" 
d="M203 1595q22 0 30.5 12.5t8.5 41.5h118q-9 -72 -44 -100.5t-113 -28.5t-113.5 28.5t-44.5 100.5h119q0 -29 8.5 -41.5t30.5 -12.5zM389 690h-217v-440q0 -62 7.5 -83.5t23.5 -21.5t23 21t7 84v295h156v-334q0 -128 -39 -174.5t-147 -46.5q-109 0 -148 46.5t-39 174.5
v1053q0 128 39 174.5t148 46.5q108 0 147 -46.5t39 -174.5v-574zM172 1225v-379h61v379q0 63 -7 83.5t-23 20.5t-23.5 -21t-7.5 -83z" />
    <glyph glyph-name="Edotaccent" unicode="&#x116;" horiz-adv-x="342" 
d="M172 1716q-36 0 -58 21t-22 57t22 57t58 21t58 -21t22 -57t-22 -57t-58 -21zM326 156v-156h-310v1669h310v-156h-154v-557h154v-155h-154v-645h154z" />
    <glyph glyph-name="edotaccent" unicode="&#x117;" 
d="M203 1522q-36 0 -58 20.5t-22 56.5t22 57t58 21t58 -21t22 -57t-22 -56.5t-58 -20.5zM389 690h-217v-440q0 -62 7.5 -83.5t23.5 -21.5t23 21t7 84v295h156v-334q0 -128 -39 -174.5t-147 -46.5q-109 0 -148 46.5t-39 174.5v1053q0 128 39 174.5t148 46.5q108 0 147 -46.5
t39 -174.5v-574zM172 1225v-379h61v379q0 63 -7 83.5t-23 20.5t-23.5 -21t-7.5 -83z" />
    <glyph glyph-name="Eogonek" unicode="&#x118;" horiz-adv-x="342" 
d="M244 0q-39 -49 -39 -109q0 -22 5 -30t19 -8q23 0 23 18v4h74v-16q0 -30 -27.5 -47t-79.5 -17q-60 0 -84 18.5t-24 59.5q0 33 17 60.5t56 66.5h-168v1669h310v-156h-154v-557h154v-155h-154v-645h154v-156h-82z" />
    <glyph glyph-name="eogonek" unicode="&#x119;" 
d="M389 190q0 -60 -12.5 -101.5t-30.5 -62t-35.5 -37t-30 -40.5t-12.5 -58q0 -21 5.5 -29.5t19.5 -8.5q22 0 22 18v4h74v-16q0 -30 -27 -47t-79 -17q-59 0 -84 17.5t-25 52.5q0 70 90 131q-30 -6 -61 -6q-109 0 -148 46.5t-39 174.5v1053q0 128 39 174.5t148 46.5
q108 0 147 -46.5t39 -174.5v-574h-217v-440q0 -62 7.5 -83.5t23.5 -21.5t23 21t7 84v295h156v-355zM172 1225v-379h61v379q0 63 -7 83.5t-23 20.5t-23.5 -21t-7.5 -83z" />
    <glyph glyph-name="Ecaron" unicode="&#x11a;" horiz-adv-x="342" 
d="M203 1843h147l-78 -127h-200l-78 127h147l31 -57zM326 156v-156h-310v1669h310v-156h-154v-557h154v-155h-154v-645h154z" />
    <glyph glyph-name="ecaron" unicode="&#x11b;" 
d="M233 1649h148l-78 -127h-201l-77 127h147l31 -58zM389 690h-217v-440q0 -62 7.5 -83.5t23.5 -21.5t23 21t7 84v295h156v-334q0 -128 -39 -174.5t-147 -46.5q-109 0 -148 46.5t-39 174.5v1053q0 128 39 174.5t148 46.5q108 0 147 -46.5t39 -174.5v-574zM172 1225v-379h61
v379q0 63 -7 83.5t-23 20.5t-23.5 -21t-7.5 -83z" />
    <glyph glyph-name="Gcircumflex" unicode="&#x11c;" 
d="M236 1716l-31 58l-31 -58h-147l77 127h201l78 -127h-147zM174 -10q-90 0 -124 45.5t-34 173.5v1251q0 127 39 173t148 46q108 0 147 -46t39 -173v-477h-156v438q0 63 -6 83t-24 20q-16 0 -23.5 -21t-7.5 -82v-1173q0 -61 7.5 -82t23.5 -21q18 0 24 20t6 83v428h-38v155
h194v-831h-47l-27 131q-6 -77 -36 -109t-105 -32z" />
    <glyph glyph-name="gcircumflex" unicode="&#x11d;" 
d="M233 1522l-30 57l-31 -57h-147l77 127h201l78 -127h-148zM233 1475h156v-1446q0 -74 -44.5 -108t-141.5 -34t-142 34.5t-45 107.5v90h156v-70q0 -30 7 -41.5t24 -11.5q19 0 24.5 10t5.5 43v322q0 -125 -24 -172t-82 -47q-65 0 -88 46t-23 173v895q0 127 23 173t88 46
q58 0 82 -47t24 -172v209zM233 1227q0 64 -6 84t-24 20q-16 0 -23.5 -21t-7.5 -83v-817q0 -61 7.5 -82t23.5 -21q18 0 24 20t6 83v817z" />
    <glyph glyph-name="Gbreve" unicode="&#x11e;" 
d="M205 1790q22 0 30.5 12t8.5 41h118q-9 -72 -44 -100.5t-113 -28.5t-113.5 28.5t-44.5 100.5h119q0 -29 8.5 -41t30.5 -12zM174 -10q-90 0 -124 45.5t-34 173.5v1251q0 127 39 173t148 46q108 0 147 -46t39 -173v-477h-156v438q0 63 -6 83t-24 20q-16 0 -23.5 -21
t-7.5 -82v-1173q0 -61 7.5 -82t23.5 -21q18 0 24 20t6 83v428h-38v155h194v-831h-47l-27 131q-6 -77 -36 -109t-105 -32z" />
    <glyph glyph-name="gbreve" unicode="&#x11f;" 
d="M203 1595q22 0 30.5 12.5t8.5 41.5h118q-9 -72 -44 -100.5t-113 -28.5t-113.5 28.5t-44.5 100.5h119q0 -29 8.5 -41.5t30.5 -12.5zM233 1475h156v-1446q0 -74 -44.5 -108t-141.5 -34t-142 34.5t-45 107.5v90h156v-70q0 -30 7 -41.5t24 -11.5q19 0 24.5 10t5.5 43v322
q0 -125 -24 -172t-82 -47q-65 0 -88 46t-23 173v895q0 127 23 173t88 46q58 0 82 -47t24 -172v209zM233 1227q0 64 -6 84t-24 20q-16 0 -23.5 -21t-7.5 -83v-817q0 -61 7.5 -82t23.5 -21q18 0 24 20t6 83v817z" />
    <glyph glyph-name="Gdotaccent" unicode="&#x120;" 
d="M205 1716q-36 0 -58 21t-22 57t22 57t58 21t58 -21t22 -57t-22 -57t-58 -21zM174 -10q-90 0 -124 45.5t-34 173.5v1251q0 127 39 173t148 46q108 0 147 -46t39 -173v-477h-156v438q0 63 -6 83t-24 20q-16 0 -23.5 -21t-7.5 -82v-1173q0 -61 7.5 -82t23.5 -21q18 0 24 20
t6 83v428h-38v155h194v-831h-47l-27 131q-6 -77 -36 -109t-105 -32z" />
    <glyph glyph-name="gdotaccent" unicode="&#x121;" 
d="M203 1522q-36 0 -58 20.5t-22 56.5t22 57t58 21t58 -21t22 -57t-22 -56.5t-58 -20.5zM233 1475h156v-1446q0 -74 -44.5 -108t-141.5 -34t-142 34.5t-45 107.5v90h156v-70q0 -30 7 -41.5t24 -11.5q19 0 24.5 10t5.5 43v322q0 -125 -24 -172t-82 -47q-65 0 -88 46t-23 173
v895q0 127 23 173t88 46q58 0 82 -47t24 -172v209zM233 1227q0 64 -6 84t-24 20q-16 0 -23.5 -21t-7.5 -83v-817q0 -61 7.5 -82t23.5 -21q18 0 24 20t6 83v817z" />
    <glyph glyph-name="Gcommaaccent" unicode="&#x122;" 
d="M174 -10q-90 0 -124 45.5t-34 173.5v1251q0 127 39 173t148 46q108 0 147 -46t39 -173v-477h-156v438q0 63 -6 83t-24 20q-16 0 -23.5 -21t-7.5 -82v-1173q0 -61 7.5 -82t23.5 -21q18 0 24 20t6 83v428h-38v155h194v-831h-47l-27 131q-6 -77 -36 -109t-105 -32zM201 -205
h-86l55 60h-51v108h135v-108z" />
    <glyph glyph-name="gcommaaccent" unicode="&#x123;" 
d="M186 1667h84l-55 -51h51v-96h-133v96zM233 1475h156v-1446q0 -74 -44.5 -108t-141.5 -34t-142 34.5t-45 107.5v90h156v-70q0 -30 7 -41.5t24 -11.5q19 0 24.5 10t5.5 43v322q0 -125 -24 -172t-82 -47q-65 0 -88 46t-23 173v895q0 127 23 173t88 46q58 0 82 -47t24 -172
v209zM233 1227q0 64 -6 84t-24 20q-16 0 -23.5 -21t-7.5 -83v-817q0 -61 7.5 -82t23.5 -21q18 0 24 20t6 83v817z" />
    <glyph glyph-name="Hcircumflex" unicode="&#x124;" 
d="M236 1716l-31 58l-31 -58h-147l77 127h201l78 -127h-147zM233 0v805h-61v-805h-156v1669h156v-708h61v708h156v-1669h-156z" />
    <glyph glyph-name="hcircumflex" unicode="&#x125;" 
d="M242 1716l-31 58l-31 -58h-147l78 127h200l78 -127h-147zM389 0h-156v1225q0 64 -6 84t-24 20q-16 0 -23.5 -21t-7.5 -83v-1225h-156v1669h156v-405q0 125 24.5 173t82.5 48q64 0 87 -46.5t23 -174.5v-1264z" />
    <glyph glyph-name="Hbar" unicode="&#x126;" 
d="M233 0v805h-61v-805h-156v1296h-16v103h16v270h156v-270h61v270h156v-270h17v-103h-17v-1296h-156zM172 961h61v335h-61v-335z" />
    <glyph glyph-name="hbar" unicode="&#x127;" 
d="M389 0h-156v1225q0 64 -6 84t-24 20q-16 0 -23.5 -21t-7.5 -83v-1225h-156v1669h156v-53h78v-62h-78v-290q0 125 24.5 173t82.5 48q64 0 87 -46.5t23 -174.5v-1264z" />
    <glyph glyph-name="Itilde" unicode="&#x128;" horiz-adv-x="188" 
d="M262 1843q0 -129 -100 -129q-25 0 -57 14.5t-48 14.5q-26 0 -26 -27h-105q0 61 24.5 95t74.5 34q31 0 63.5 -14t42.5 -14q25 0 25 26h106zM16 0v1669h156v-1669h-156z" />
    <glyph glyph-name="itilde" unicode="&#x129;" horiz-adv-x="188" 
d="M262 1649q0 -129 -100 -129q-25 0 -57 14t-48 14q-26 0 -26 -26h-105q0 61 24.5 95t74.5 34q31 0 63.5 -14.5t42.5 -14.5q25 0 25 27h106zM16 0v1475h156v-1475h-156z" />
    <glyph glyph-name="Imacron" unicode="&#x12a;" horiz-adv-x="188" 
d="M-49 1724v113h287v-113h-287zM16 0v1669h156v-1669h-156z" />
    <glyph glyph-name="imacron" unicode="&#x12b;" horiz-adv-x="188" 
d="M-49 1530v112h287v-112h-287zM16 0v1475h156v-1475h-156z" />
    <glyph glyph-name="Ibreve" unicode="&#x12c;" horiz-adv-x="188" 
d="M94 1790q22 0 30.5 12t8.5 41h119q-9 -72 -44.5 -100.5t-113.5 -28.5t-113 28.5t-44 100.5h118q0 -29 8.5 -41t30.5 -12zM16 0v1669h156v-1669h-156z" />
    <glyph glyph-name="ibreve" unicode="&#x12d;" horiz-adv-x="188" 
d="M94 1595q22 0 30.5 12.5t8.5 41.5h119q-9 -72 -44.5 -100.5t-113.5 -28.5t-113 28.5t-44 100.5h118q0 -29 8.5 -41.5t30.5 -12.5zM16 0v1475h156v-1475h-156z" />
    <glyph glyph-name="Iogonek" unicode="&#x12e;" horiz-adv-x="188" 
d="M16 0v1669h156v-1669h-43q-39 -49 -39 -109q0 -21 5.5 -29.5t19.5 -8.5q22 0 22 18v4h74v-16q0 -30 -27.5 -47t-79.5 -17q-60 0 -84 18.5t-24 59.5q0 33 17.5 60.5t56.5 66.5h-54z" />
    <glyph glyph-name="iogonek" unicode="&#x12f;" horiz-adv-x="188" 
d="M16 1522v129h156v-129h-156zM16 0v1475h156v-1475h-43q-39 -49 -39 -109q0 -21 5.5 -29.5t19.5 -8.5q22 0 22 18v4h74v-16q0 -30 -27.5 -47t-79.5 -17q-60 0 -84 18.5t-24 59.5q0 33 17.5 60.5t56.5 66.5h-54z" />
    <glyph glyph-name="Idotaccent" unicode="&#x130;" horiz-adv-x="188" 
d="M94 1716q-36 0 -58 21t-22 57t22 57t58 21t58 -21t22 -57t-22 -57t-58 -21zM16 0v1669h156v-1669h-156z" />
    <glyph glyph-name="dotlessi" unicode="&#x131;" horiz-adv-x="188" 
d="M16 0v1475h156v-1475h-156z" />
    <glyph glyph-name="IJ" unicode="&#x132;" horiz-adv-x="458" 
d="M16 0v1669h156v-1669h-156zM195 0v170h32q60 0 60 70v1429h155v-1485q0 -97 -43.5 -140.5t-132.5 -43.5h-71z" />
    <glyph glyph-name="ij" unicode="&#x133;" horiz-adv-x="397" 
d="M16 1522v129h156v-129h-156zM225 1522v129h156v-129h-156zM16 0v1475h156v-1475h-156zM381 59q0 -80 -41.5 -120.5t-116.5 -40.5h-39v122h11q14 0 22 9t8 24v1422h156v-1416z" />
    <glyph glyph-name="Jcircumflex" unicode="&#x134;" horiz-adv-x="270" 
d="M207 1716l-31 58l-31 -58h-147l78 127h200l78 -127h-147zM6 0v170h33q59 0 59 70v1429h156v-1485q0 -97 -43.5 -140.5t-132.5 -43.5h-72z" />
    <glyph glyph-name="jcircumflex" unicode="&#x135;" horiz-adv-x="208" 
d="M145 1522l-30 57l-31 -57h-147l77 127h201l78 -127h-148zM193 49q0 -80 -41.5 -121t-116.5 -41h-39v123h10q14 0 22.5 9t8.5 24v1432h156v-1426z" />
    <glyph glyph-name="Kcommaaccent" unicode="&#x136;" horiz-adv-x="403" 
d="M16 0v1669h156v-782l72 782h153l-82 -827l82 -842h-153l-72 797v-797h-156zM219 -205h-86l55 60h-51v108h135v-108z" />
    <glyph glyph-name="kcommaaccent" unicode="&#x137;" horiz-adv-x="397" 
d="M16 0v1669h156v-807l64 613h161l-84 -719l84 -756h-161l-64 623v-623h-156zM219 -205h-86l55 60h-51v108h135v-108z" />
    <glyph glyph-name="Lacute" unicode="&#x139;" horiz-adv-x="335" 
d="M158 1716h-127l24 127h201zM16 0v1669h156v-1513h154v-156h-310z" />
    <glyph glyph-name="lacute" unicode="&#x13a;" horiz-adv-x="188" 
d="M158 1716h-127l24 127h201zM16 0v1669h156v-1669h-156z" />
    <glyph glyph-name="Lcommaaccent" unicode="&#x13b;" horiz-adv-x="335" 
d="M16 0v1669h156v-1513h154v-156h-310zM188 -205h-86l56 60h-52v108h136v-108z" />
    <glyph glyph-name="lcommaaccent" unicode="&#x13c;" horiz-adv-x="188" 
d="M16 0v1669h156v-1669h-156zM111 -205h-86l55 60h-51v108h135v-108z" />
    <glyph glyph-name="Lcaron" unicode="&#x13d;" horiz-adv-x="335" 
d="M16 0v1669h156v-1513h154v-156h-310zM289 1505h-86v164h159z" />
    <glyph glyph-name="lcaron" unicode="&#x13e;" horiz-adv-x="188" 
d="M16 0v1669h156v-1669h-156zM291 1505h-86v164h160z" />
    <glyph glyph-name="Ldot" unicode="&#x13f;" horiz-adv-x="335" 
d="M16 0v1669h156v-1513h154v-156h-310zM262 850q-36 0 -58 21t-22 57t22 57t58 21t58 -21t22 -57t-22 -57t-58 -21z" />
    <glyph glyph-name="ldot" unicode="&#x140;" horiz-adv-x="188" 
d="M16 0v1669h156v-1669h-156zM264 741q-36 0 -58 21t-22 57t22 57t58 21t58 -21t22 -57t-22 -57t-58 -21z" />
    <glyph glyph-name="Lslash" unicode="&#x141;" horiz-adv-x="335" 
d="M16 0v1669h156v-733l72 57v-100l-72 -57v-680h154v-156h-310z" />
    <glyph glyph-name="lslash" unicode="&#x142;" horiz-adv-x="188" 
d="M16 0v1147l-20 -17v101l20 16v422h156v-323l21 16v-100l-21 -17v-1245h-156z" />
    <glyph glyph-name="Nacute" unicode="&#x143;" horiz-adv-x="403" 
d="M274 1716h-127l25 127h201zM266 0l-110 967v-967h-140v1669h119l113 -1038v1038h139v-1669h-121z" />
    <glyph glyph-name="nacute" unicode="&#x144;" 
d="M268 1522h-127l25 127h201zM389 0h-156v1225q0 64 -6 84t-24 20q-16 0 -23.5 -21t-7.5 -83v-1225h-156v1475h156v-211q0 125 24.5 173t82.5 48q64 0 87 -46.5t23 -174.5v-1264z" />
    <glyph glyph-name="Ncommaaccent" unicode="&#x145;" horiz-adv-x="403" 
d="M266 0l-110 967v-967h-140v1669h119l113 -1038v1038h139v-1669h-121zM227 -205h-86l56 60h-52v108h136v-108z" />
    <glyph glyph-name="ncommaaccent" unicode="&#x146;" 
d="M389 0h-156v1225q0 64 -6 84t-24 20q-16 0 -23.5 -21t-7.5 -83v-1225h-156v1475h156v-211q0 125 24.5 173t82.5 48q64 0 87 -46.5t23 -174.5v-1264zM221 -205h-86l55 60h-51v108h135v-108z" />
    <glyph glyph-name="Ncaron" unicode="&#x147;" horiz-adv-x="403" 
d="M242 1843h147l-78 -127h-200l-78 127h147l31 -57zM266 0l-110 967v-967h-140v1669h119l113 -1038v1038h139v-1669h-121z" />
    <glyph glyph-name="ncaron" unicode="&#x148;" 
d="M236 1649h147l-78 -127h-201l-77 127h147l31 -58zM389 0h-156v1225q0 64 -6 84t-24 20q-16 0 -23.5 -21t-7.5 -83v-1225h-156v1475h156v-211q0 125 24.5 173t82.5 48q64 0 87 -46.5t23 -174.5v-1264z" />
    <glyph glyph-name="Eng" unicode="&#x14a;" horiz-adv-x="403" 
d="M387 82q0 -101 -32 -142.5t-91 -41.5h-51v170h23q30 0 30 69v6l-110 815v-958h-140v1669h119l113 -887v887h139v-1587z" />
    <glyph glyph-name="eng" unicode="&#x14b;" 
d="M199 -102v122h4q14 0 22 9t8 24v1172q0 64 -6 84t-24 20q-16 0 -23.5 -21t-7.5 -83v-1225h-156v1475h156v-211q0 125 24.5 173t82.5 48q64 0 87 -46.5t23 -174.5v-1205q0 -80 -41.5 -120.5t-118.5 -40.5h-30z" />
    <glyph glyph-name="Omacron" unicode="&#x14c;" 
d="M59 1724v113h287v-113h-287zM389 209q0 -128 -38.5 -173.5t-147.5 -45.5t-148 46t-39 173v1251q0 127 39 173t148 46t147.5 -45.5t38.5 -173.5v-1251zM233 1421q0 61 -7 82t-23 21t-23.5 -21t-7.5 -82v-1173q0 -61 7.5 -82t23.5 -21t23 21t7 82v1173z" />
    <glyph glyph-name="omacron" unicode="&#x14d;" 
d="M59 1530v112h287v-112h-287zM203 1485q108 0 147 -46.5t39 -174.5v-1053q0 -128 -39 -174.5t-147 -46.5q-109 0 -148 46.5t-39 174.5v1053q0 128 39 174.5t148 46.5zM203 145q16 0 23 21t7 84v975q0 63 -7 83.5t-23 20.5t-23.5 -21t-7.5 -83v-975q0 -62 7.5 -83.5
t23.5 -21.5z" />
    <glyph glyph-name="Obreve" unicode="&#x14e;" 
d="M203 1790q22 0 30.5 12t8.5 41h118q-9 -72 -44 -100.5t-113 -28.5t-113.5 28.5t-44.5 100.5h119q0 -29 8.5 -41t30.5 -12zM389 209q0 -128 -38.5 -173.5t-147.5 -45.5t-148 46t-39 173v1251q0 127 39 173t148 46t147.5 -45.5t38.5 -173.5v-1251zM233 1421q0 61 -7 82
t-23 21t-23.5 -21t-7.5 -82v-1173q0 -61 7.5 -82t23.5 -21t23 21t7 82v1173z" />
    <glyph glyph-name="obreve" unicode="&#x14f;" 
d="M203 1595q22 0 30.5 12.5t8.5 41.5h118q-9 -72 -44 -100.5t-113 -28.5t-113.5 28.5t-44.5 100.5h119q0 -29 8.5 -41.5t30.5 -12.5zM203 1485q108 0 147 -46.5t39 -174.5v-1053q0 -128 -39 -174.5t-147 -46.5q-109 0 -148 46.5t-39 174.5v1053q0 128 39 174.5t148 46.5z
M203 145q16 0 23 21t7 84v975q0 63 -7 83.5t-23 20.5t-23.5 -21t-7.5 -83v-975q0 -62 7.5 -83.5t23.5 -21.5z" />
    <glyph glyph-name="Ohungarumlaut" unicode="&#x150;" 
d="M176 1716h-70l13 127h110zM299 1716h-70l15 127h110zM389 209q0 -128 -38.5 -173.5t-147.5 -45.5t-148 46t-39 173v1251q0 127 39 173t148 46t147.5 -45.5t38.5 -173.5v-1251zM233 1421q0 61 -7 82t-23 21t-23.5 -21t-7.5 -82v-1173q0 -61 7.5 -82t23.5 -21t23 21t7 82
v1173z" />
    <glyph glyph-name="ohungarumlaut" unicode="&#x151;" 
d="M176 1522h-70l13 127h110zM299 1522h-70l15 127h110zM203 1485q108 0 147 -46.5t39 -174.5v-1053q0 -128 -39 -174.5t-147 -46.5q-109 0 -148 46.5t-39 174.5v1053q0 128 39 174.5t148 46.5zM203 145q16 0 23 21t7 84v975q0 63 -7 83.5t-23 20.5t-23.5 -21t-7.5 -83v-975
q0 -62 7.5 -83.5t23.5 -21.5z" />
    <glyph glyph-name="OE" unicode="&#x152;" horiz-adv-x="559" 
d="M203 0q-108 0 -147.5 46t-39.5 173v1231q0 127 39.5 173t147.5 46h340v-156h-154v-557h154v-155h-154v-645h154v-156h-340zM203 156h30v1357h-30q-18 0 -24.5 -20t-6.5 -82v-1151q0 -64 6.5 -84t24.5 -20z" />
    <glyph glyph-name="oe" unicode="&#x153;" horiz-adv-x="622" 
d="M606 690h-217v-440q0 -62 7.5 -83.5t23.5 -21.5t23.5 21.5t7.5 83.5v295h155v-334q0 -128 -39 -174.5t-147 -46.5q-54 0 -109 28q-55 -28 -108 -28q-109 0 -148 46.5t-39 174.5v1053q0 128 39 174.5t148 46.5q40 0 108 -29q68 29 109 29q108 0 147 -46.5t39 -174.5v-574z
M389 1225v-379h62v379q0 62 -7.5 83t-23.5 21t-23.5 -21t-7.5 -83zM203 145q16 0 23 21t7 84v975q0 63 -7 83.5t-23 20.5t-23.5 -21t-7.5 -83v-975q0 -62 7.5 -83.5t23.5 -21.5z" />
    <glyph glyph-name="Racute" unicode="&#x154;" horiz-adv-x="403" 
d="M274 1716h-127l25 127h201zM250 0l-53 750h-25v-750h-156v1669h187q108 0 147 -46t39 -173v-543q0 -99 -51 -133l65 -774h-153zM203 1513h-31v-608h31q18 0 24 20t6 83v401q0 64 -6 84t-24 20z" />
    <glyph glyph-name="racute" unicode="&#x155;" horiz-adv-x="311" 
d="M227 1522h-127l25 127h201zM172 1266q0 125 24.5 172t82.5 47q16 0 22 -2v-189q-27 5 -56 8t-51 -16t-22 -59v-1227h-156v1475h156v-209z" />
    <glyph glyph-name="Rcommaaccent" unicode="&#x156;" horiz-adv-x="403" 
d="M250 0l-53 750h-25v-750h-156v1669h187q108 0 147 -46t39 -173v-543q0 -99 -51 -133l65 -774h-153zM203 1513h-31v-608h31q18 0 24 20t6 83v401q0 64 -6 84t-24 20zM227 -205h-86l56 60h-52v108h136v-108z" />
    <glyph glyph-name="rcommaaccent" unicode="&#x157;" horiz-adv-x="311" 
d="M172 1266q0 125 24.5 172t82.5 47q16 0 22 -2v-189q-27 5 -56 8t-51 -16t-22 -59v-1227h-156v1475h156v-209zM111 -205h-86l55 60h-51v108h135v-108z" />
    <glyph glyph-name="Rcaron" unicode="&#x158;" horiz-adv-x="403" 
d="M242 1843h147l-78 -127h-200l-78 127h147l31 -57zM250 0l-53 750h-25v-750h-156v1669h187q108 0 147 -46t39 -173v-543q0 -99 -51 -133l65 -774h-153zM203 1513h-31v-608h31q18 0 24 20t6 83v401q0 64 -6 84t-24 20z" />
    <glyph glyph-name="rcaron" unicode="&#x159;" horiz-adv-x="311" 
d="M195 1649h147l-78 -127h-201l-77 127h147l31 -58zM172 1266q0 125 24.5 172t82.5 47q16 0 22 -2v-189q-27 5 -56 8t-51 -16t-22 -59v-1227h-156v1475h156v-209z" />
    <glyph glyph-name="Sacute" unicode="&#x15a;" 
d="M268 1716h-127l25 127h201zM172 248q0 -61 7.5 -82t23.5 -21q18 0 24 20t6 83v424q0 44 -11.5 61.5t-63.5 52.5q-65 44 -93.5 74t-38.5 66t-10 104v430q0 127 39 173t148 46q108 0 147 -46t39 -173v-432h-156v393q0 63 -6 83t-24 20q-16 0 -23.5 -21t-7.5 -82v-385
q0 -36 10 -53t60 -53q55 -40 78.5 -59.5t42 -48.5t22.5 -57t4 -81v-475q0 -127 -39 -173t-147 -46q-109 0 -148 46t-39 173v469h156v-430z" />
    <glyph glyph-name="sacute" unicode="&#x15b;" 
d="M268 1522h-127l25 127h201zM389 211q0 -128 -39 -174.5t-147 -46.5q-109 0 -148 46.5t-39 174.5v377h156v-338q0 -62 7.5 -83.5t23.5 -21.5t23 21t7 84v315q0 44 -13.5 62t-76.5 63q-80 57 -103.5 100t-23.5 132v342q0 128 39 174.5t148 46.5q108 0 147 -46.5t39 -174.5
v-367h-156v328q0 63 -7 83.5t-23 20.5t-23.5 -21t-7.5 -83v-297q0 -37 11 -54t61 -53q68 -50 95 -78.5t38.5 -64.5t11.5 -103v-364z" />
    <glyph glyph-name="Scircumflex" unicode="&#x15c;" 
d="M236 1716l-31 58l-31 -58h-147l77 127h201l78 -127h-147zM172 248q0 -61 7.5 -82t23.5 -21q18 0 24 20t6 83v424q0 44 -11.5 61.5t-63.5 52.5q-65 44 -93.5 74t-38.5 66t-10 104v430q0 127 39 173t148 46q108 0 147 -46t39 -173v-432h-156v393q0 63 -6 83t-24 20
q-16 0 -23.5 -21t-7.5 -82v-385q0 -36 10 -53t60 -53q55 -40 78.5 -59.5t42 -48.5t22.5 -57t4 -81v-475q0 -127 -39 -173t-147 -46q-109 0 -148 46t-39 173v469h156v-430z" />
    <glyph glyph-name="scircumflex" unicode="&#x15d;" 
d="M236 1522l-31 57l-31 -57h-147l77 127h201l78 -127h-147zM389 211q0 -128 -39 -174.5t-147 -46.5q-109 0 -148 46.5t-39 174.5v377h156v-338q0 -62 7.5 -83.5t23.5 -21.5t23 21t7 84v315q0 44 -13.5 62t-76.5 63q-80 57 -103.5 100t-23.5 132v342q0 128 39 174.5
t148 46.5q108 0 147 -46.5t39 -174.5v-367h-156v328q0 63 -7 83.5t-23 20.5t-23.5 -21t-7.5 -83v-297q0 -37 11 -54t61 -53q68 -50 95 -78.5t38.5 -64.5t11.5 -103v-364z" />
    <glyph glyph-name="Scedilla" unicode="&#x15e;" 
d="M201 -205q-105 0 -105 68v12h80v-4q0 -18 23 -18q24 0 24 28q0 29 -22 29q-15 0 -23 -14h-59l55 94q-92 6 -125 53t-33 166v469h156v-430q0 -61 7.5 -82t23.5 -21q18 0 24 20t6 83v424q0 44 -11.5 61.5t-63.5 52.5q-65 44 -93.5 74t-38.5 66t-10 104v430q0 127 39 173
t148 46q108 0 147 -46t39 -173v-432h-156v393q0 63 -6 83t-24 20q-16 0 -23.5 -21t-7.5 -82v-385q0 -36 10 -53t60 -53q55 -40 78.5 -59.5t42 -48.5t22.5 -57t4 -81v-475q0 -119 -34 -166t-124 -53l-49 -86q24 34 37 43.5t33 9.5q33 0 46 -17.5t13 -62.5q0 -47 -23.5 -64.5
t-86.5 -17.5z" />
    <glyph glyph-name="scedilla" unicode="&#x15f;" 
d="M201 -205q-105 0 -105 68v12h80v-4q0 -18 23 -18q24 0 24 28q0 29 -22 29q-15 0 -23 -14h-59l55 94q-91 6 -124.5 53.5t-33.5 167.5v377h156v-338q0 -62 7.5 -83.5t23.5 -21.5t23 21t7 84v315q0 44 -13.5 62t-76.5 63q-80 57 -103.5 100t-23.5 132v342q0 128 39 174.5
t148 46.5q108 0 147 -46.5t39 -174.5v-367h-156v328q0 63 -7 83.5t-23 20.5t-23.5 -21t-7.5 -83v-297q0 -37 11 -54t61 -53q68 -50 95 -78.5t38.5 -64.5t11.5 -103v-364q0 -120 -33.5 -167.5t-124.5 -53.5l-49 -86q24 34 37 43.5t33 9.5q33 0 46 -17.5t13 -62.5
q0 -47 -23.5 -64.5t-86.5 -17.5z" />
    <glyph glyph-name="Scaron" unicode="&#x160;" 
d="M236 1843h147l-78 -127h-201l-77 127h147l31 -57zM172 248q0 -61 7.5 -82t23.5 -21q18 0 24 20t6 83v424q0 44 -11.5 61.5t-63.5 52.5q-65 44 -93.5 74t-38.5 66t-10 104v430q0 127 39 173t148 46q108 0 147 -46t39 -173v-432h-156v393q0 63 -6 83t-24 20
q-16 0 -23.5 -21t-7.5 -82v-385q0 -36 10 -53t60 -53q55 -40 78.5 -59.5t42 -48.5t22.5 -57t4 -81v-475q0 -127 -39 -173t-147 -46q-109 0 -148 46t-39 173v469h156v-430z" />
    <glyph glyph-name="scaron" unicode="&#x161;" 
d="M236 1649h147l-78 -127h-201l-77 127h147l31 -58zM389 211q0 -128 -39 -174.5t-147 -46.5q-109 0 -148 46.5t-39 174.5v377h156v-338q0 -62 7.5 -83.5t23.5 -21.5t23 21t7 84v315q0 44 -13.5 62t-76.5 63q-80 57 -103.5 100t-23.5 132v342q0 128 39 174.5t148 46.5
q108 0 147 -46.5t39 -174.5v-367h-156v328q0 63 -7 83.5t-23 20.5t-23.5 -21t-7.5 -83v-297q0 -37 11 -54t61 -53q68 -50 95 -78.5t38.5 -64.5t11.5 -103v-364z" />
    <glyph glyph-name="Tcaron" unicode="&#x164;" horiz-adv-x="319" 
d="M190 1843h148l-78 -127h-201l-77 127h147l31 -57zM313 1513h-75v-1513h-156v1513h-76v156h307v-156z" />
    <glyph glyph-name="tcaron" unicode="&#x165;" horiz-adv-x="239" 
d="M309 1507h-86v164h160zM190 0h-155v1352h-31v123h31v167h155v-167h46v-123h-46v-1352z" />
    <glyph glyph-name="Tbar" unicode="&#x166;" horiz-adv-x="319" 
d="M279 846h-41v-846h-156v846h-41v102h41v565h-76v156h307v-156h-75v-565h41v-102z" />
    <glyph glyph-name="tbar" unicode="&#x167;" horiz-adv-x="239" 
d="M190 0h-155v926h-31v59h31v367h-31v123h31v167h155v-167h46v-123h-46v-367h33v-59h-33v-926z" />
    <glyph glyph-name="Utilde" unicode="&#x168;" 
d="M371 1843q0 -61 -25.5 -95t-75.5 -34q-25 0 -56.5 14.5t-47.5 14.5q-27 0 -27 -27h-104q0 129 98 129q31 0 64 -14t43 -14q24 0 24 26h107zM233 1669h156v-1460q0 -127 -39 -173t-147 -46q-109 0 -148 46t-39 173v1460h156v-1421q0 -61 7.5 -82t23.5 -21q18 0 24 20t6 83
v1421z" />
    <glyph glyph-name="utilde" unicode="&#x169;" 
d="M373 1649q0 -61 -25.5 -95t-75.5 -34q-25 0 -56.5 14t-47.5 14q-27 0 -27 -26h-104q0 129 98 129q31 0 64 -14.5t43 -14.5q24 0 24 27h107zM233 0v211q0 -125 -24 -173t-82 -48q-64 0 -87.5 46.5t-23.5 174.5v1264h156v-1225q0 -64 6.5 -84.5t24.5 -20.5q16 0 23 21t7 84
v1225h156v-1475h-156z" />
    <glyph glyph-name="Umacron" unicode="&#x16a;" 
d="M59 1724v113h287v-113h-287zM233 1669h156v-1460q0 -127 -39 -173t-147 -46q-109 0 -148 46t-39 173v1460h156v-1421q0 -61 7.5 -82t23.5 -21q18 0 24 20t6 83v1421z" />
    <glyph glyph-name="umacron" unicode="&#x16b;" 
d="M61 1530v112h287v-112h-287zM233 0v211q0 -125 -24 -173t-82 -48q-64 0 -87.5 46.5t-23.5 174.5v1264h156v-1225q0 -64 6.5 -84.5t24.5 -20.5q16 0 23 21t7 84v1225h156v-1475h-156z" />
    <glyph glyph-name="Ubreve" unicode="&#x16c;" 
d="M203 1790q22 0 30.5 12t8.5 41h118q-9 -72 -44 -100.5t-113 -28.5t-113.5 28.5t-44.5 100.5h119q0 -29 8.5 -41t30.5 -12zM233 1669h156v-1460q0 -127 -39 -173t-147 -46q-109 0 -148 46t-39 173v1460h156v-1421q0 -61 7.5 -82t23.5 -21q18 0 24 20t6 83v1421z" />
    <glyph glyph-name="ubreve" unicode="&#x16d;" 
d="M205 1595q22 0 30.5 12.5t8.5 41.5h118q-9 -72 -44 -100.5t-113 -28.5t-113.5 28.5t-44.5 100.5h119q0 -29 8.5 -41.5t30.5 -12.5zM233 0v211q0 -125 -24 -173t-82 -48q-64 0 -87.5 46.5t-23.5 174.5v1264h156v-1225q0 -64 6.5 -84.5t24.5 -20.5q16 0 23 21t7 84v1225
h156v-1475h-156z" />
    <glyph glyph-name="Uring" unicode="&#x16e;" 
d="M389 209q0 -127 -39 -173t-147 -46q-109 0 -148 46t-39 173v1460h103q-23 30 -23 72q0 49 28.5 77.5t78.5 28.5q49 0 77.5 -28.5t28.5 -77.5q0 -44 -22 -72h102v-1460zM203 1679q28 0 44.5 17t16.5 45t-16.5 44.5t-44.5 16.5t-45 -16.5t-17 -44.5t17 -45t45 -17z
M203 1634q-11 0 -31 4v-1390q0 -61 7.5 -82t23.5 -21q18 0 24 20t6 83v1390q-20 -4 -30 -4z" />
    <glyph glyph-name="uring" unicode="&#x16f;" 
d="M233 0v211q0 -125 -24 -173t-82 -48q-64 0 -87.5 46.5t-23.5 174.5v1264h105q-23 30 -23 71q0 50 29 78.5t78 28.5t77.5 -28.5t28.5 -78.5q0 -43 -22 -71h100v-1475h-156zM205 1485q28 0 44.5 16.5t16.5 44.5t-16.5 45t-44.5 17t-45 -17t-17 -45t17 -44.5t45 -16.5z
M205 1440q-13 0 -33 4v-1194q0 -64 6.5 -84.5t24.5 -20.5q16 0 23 21t7 84v1192q-8 -2 -28 -2z" />
    <glyph glyph-name="Uhungarumlaut" unicode="&#x170;" 
d="M176 1716h-70l13 127h110zM299 1716h-70l15 127h110zM233 1669h156v-1460q0 -127 -39 -173t-147 -46q-109 0 -148 46t-39 173v1460h156v-1421q0 -61 7.5 -82t23.5 -21q18 0 24 20t6 83v1421z" />
    <glyph glyph-name="uhungarumlaut" unicode="&#x171;" 
d="M178 1522h-69l12 127h110zM301 1522h-70l15 127h110zM233 0v211q0 -125 -24 -173t-82 -48q-64 0 -87.5 46.5t-23.5 174.5v1264h156v-1225q0 -64 6.5 -84.5t24.5 -20.5q16 0 23 21t7 84v1225h156v-1475h-156z" />
    <glyph glyph-name="Uogonek" unicode="&#x172;" 
d="M233 1669h156v-1460q0 -119 -33.5 -166t-122.5 -53q-32 -41 -32 -99q0 -22 5 -30t19 -8q23 0 23 18v4h74v-16q0 -30 -27.5 -47t-79.5 -17q-60 0 -84.5 18.5t-24.5 59.5q0 32 16 58.5t48 58.5q-89 6 -121.5 53t-32.5 166v1460h156v-1421q0 -61 7.5 -82t23.5 -21
q18 0 24 20t6 83v1421z" />
    <glyph glyph-name="uogonek" unicode="&#x173;" 
d="M233 0v211q0 -125 -24 -173t-82 -48q-64 0 -87.5 46.5t-23.5 174.5v1264h156v-1225q0 -64 6.5 -84.5t24.5 -20.5q16 0 23 21t7 84v1225h156v-1475h-84q-39 -49 -39 -109q0 -21 5.5 -29.5t19.5 -8.5q22 0 22 18v4h74v-16q0 -30 -27 -47t-79 -17q-60 0 -84.5 18.5
t-24.5 59.5q0 33 17.5 60.5t56.5 66.5h-13z" />
    <glyph glyph-name="Wcircumflex" unicode="&#x174;" horiz-adv-x="571" 
d="M317 1716l-30 58l-31 -58h-147l77 127h201l78 -127h-148zM59 0l-53 1669h146l18 -1079l47 1079h135l49 -1081l19 1081h145l-53 -1669h-188l-37 993l-41 -993h-187z" />
    <glyph glyph-name="wcircumflex" unicode="&#x175;" horiz-adv-x="567" 
d="M315 1522l-30 57l-31 -57h-148l78 127h201l78 -127h-148zM57 0l-53 1475h146l18 -961l47 961h135l49 -934l19 934h145l-53 -1475h-188l-37 885l-41 -885h-187z" />
    <glyph glyph-name="Ycircumflex" unicode="&#x176;" horiz-adv-x="366" 
d="M215 1716l-31 58l-30 -58h-148l78 127h201l77 -127h-147zM106 496l-100 1173h139l37 -754h2l37 754h139l-100 -1173v-496h-154v496z" />
    <glyph glyph-name="ycircumflex" unicode="&#x177;" horiz-adv-x="370" 
d="M217 1522l-31 57l-30 -57h-148l78 127h201l78 -127h-148zM291 166q-9 -145 -59.5 -206.5t-155.5 -61.5v147h22q17 0 23.5 6.5t7.5 26.5l4 37h-57l-76 1360h154l22 -1229l39 1229h156z" />
    <glyph glyph-name="Ydieresis" unicode="&#x178;" horiz-adv-x="366" 
d="M31 1718v146h133v-146h-133zM338 1718h-133v146h133v-146zM106 496l-100 1173h139l37 -754h2l37 754h139l-100 -1173v-496h-154v496z" />
    <glyph glyph-name="Zacute" unicode="&#x179;" horiz-adv-x="382" 
d="M256 1716h-127l25 127h200zM6 0v92l207 1424h-193v153h357v-92l-207 -1421h207v-156h-371z" />
    <glyph glyph-name="zacute" unicode="&#x17a;" horiz-adv-x="352" 
d="M240 1522h-127l24 127h201zM6 0v92l184 1227h-170v156h326v-95l-184 -1224h184v-156h-340z" />
    <glyph glyph-name="Zdotaccent" unicode="&#x17b;" horiz-adv-x="382" 
d="M193 1716q-36 0 -58 21t-22 57t22 57t58 21t57.5 -21t21.5 -57t-21.5 -57t-57.5 -21zM6 0v92l207 1424h-193v153h357v-92l-207 -1421h207v-156h-371z" />
    <glyph glyph-name="zdotaccent" unicode="&#x17c;" horiz-adv-x="352" 
d="M176 1522q-36 0 -58 20.5t-22 56.5t22 57t58 21t58 -21t22 -57t-22 -56.5t-58 -20.5zM6 0v92l184 1227h-170v156h326v-95l-184 -1224h184v-156h-340z" />
    <glyph glyph-name="Zcaron" unicode="&#x17d;" horiz-adv-x="382" 
d="M223 1843h148l-78 -127h-201l-78 127h148l31 -57zM6 0v92l207 1424h-193v153h357v-92l-207 -1421h207v-156h-371z" />
    <glyph glyph-name="zcaron" unicode="&#x17e;" horiz-adv-x="352" 
d="M207 1649h147l-78 -127h-200l-78 127h147l31 -58zM6 0v92l184 1227h-170v156h326v-95l-184 -1224h184v-156h-340z" />
    <glyph glyph-name="Schwa" unicode="&#x18f;" 
d="M389 209q0 -127 -39 -173t-147 -46q-109 0 -148 46t-39 173v637h217v575q0 63 -6 83t-24 20q-16 0 -23.5 -21t-7.5 -82v-379h-156v418q0 127 39 173t148 46q108 0 147 -46t39 -173v-1251zM172 248q0 -61 7.5 -82t23.5 -21q18 0 24 20t6 83v442h-61v-442z" />
    <glyph glyph-name="florin" unicode="&#x192;" 
d="M315 788h-131v-890h-155v890h-27v101h27v571q0 128 37.5 173.5t142.5 45.5q104 0 142 -46t38 -173v-217h-156v178q0 63 -5 83t-19 20q-9 0 -14 -7.5t-8 -30.5t-3 -65v-532h131v-101z" />
    <glyph glyph-name="Aringacute" unicode="&#x1fa;" horiz-adv-x="366" 
d="M244 1878h-127l24 127h201zM207 0l-8 524h-31l-8 -524h-154l45 1669h49q-22 28 -22 72q0 49 28 77.5t78 28.5t78.5 -28.5t28.5 -77.5q0 -42 -23 -72h47l45 -1669h-153zM184 1679q28 0 45 17t17 45t-17 44.5t-45 16.5t-44.5 -16.5t-16.5 -44.5t16.5 -45t44.5 -17z
M180 1466l-10 -786h27l-11 786h-6z" />
    <glyph glyph-name="aringacute" unicode="&#x1fb;" 
d="M262 1683h-127l25 127h200zM172 1225v-254h-156v293q0 100 22.5 148t80.5 65q-23 26 -23 69q0 50 29 78.5t78 28.5t77.5 -28.5t28.5 -78.5q0 -44 -22 -69q58 -17 80 -65t22 -148v-1264h-156v209q0 -125 -24 -172t-82 -47q-65 0 -88 46t-23 173v475q0 49 11.5 84.5
t29.5 53t43 29.5t47 16t47 10.5t39 15.5v332q0 63 -7 83.5t-23 20.5t-23.5 -21t-7.5 -83zM203 1485q28 0 44.5 16.5t16.5 44.5t-16.5 45t-44.5 17t-45 -17t-17 -45t17 -44.5t45 -16.5zM172 248q0 -61 7.5 -82t23.5 -21q18 0 24 20t6 83v540q-1 0 -9 -4.5t-10.5 -5.5t-9.5 -6
t-10 -8.5t-8.5 -10.5t-7.5 -13.5t-4 -16.5t-2 -21v-454z" />
    <glyph glyph-name="AEacute" unicode="&#x1fc;" horiz-adv-x="532" 
d="M346 1716h-127l25 127h200zM6 0l66 1669h444v-156h-156v-557h156v-155h-156v-645h156v-156h-309v524h-33l-14 -524h-154zM201 1466l-23 -786h29v786h-6z" />
    <glyph glyph-name="aeacute" unicode="&#x1fd;" horiz-adv-x="622" 
d="M373 1522h-127l24 127h201zM606 211q0 -128 -39 -174.5t-147 -46.5q-102 0 -142.5 39.5t-44.5 146.5q-4 -105 -28 -145.5t-78 -40.5q-65 0 -88 46t-23 173v434q0 49 11.5 84.5t29.5 53t43 29.5t47 16t47 10.5t39 15.5v373q0 64 -6 84t-24 20q-16 0 -23.5 -21t-7.5 -83
v-254h-156v293q0 128 39 174.5t148 46.5q45 0 106 -27q63 27 111 27q108 0 147 -46.5t39 -174.5v-574h-217v-440q0 -62 7.5 -83.5t23.5 -21.5t23.5 21.5t7.5 83.5v295h155v-334zM389 1225v-379h62v379q0 62 -7.5 83t-23.5 21t-23.5 -21t-7.5 -83zM172 248q0 -61 7.5 -82
t23.5 -21q18 0 24 20t6 83v500q-1 0 -9 -4.5t-10.5 -5.5t-9.5 -6t-10 -8.5t-8.5 -10.5t-7.5 -13.5t-4 -16.5t-2 -21v-414z" />
    <glyph glyph-name="Oslashacute" unicode="&#x1fe;" 
d="M266 1716h-127l25 127h201zM16 0l17 78q-17 44 -17 131v1251q0 127 39 173t148 46q114 0 153 -53l9 43h24l-14 -80q14 -46 14 -129v-1251q0 -127 -39 -173t-147 -46q-115 0 -154 53l-8 -43h-25zM203 1524q-16 0 -23.5 -21t-7.5 -82v-708l61 510v198q0 63 -6 83t-24 20z
M172 248q0 -61 7.5 -82t23.5 -21q18 0 24 20t6 83v741l-61 -524v-217z" />
    <glyph glyph-name="oslashacute" unicode="&#x1ff;" 
d="M266 1522h-127l25 127h201zM16 0l17 78q-17 47 -17 133v1053q0 128 39 174.5t148 46.5q81 0 121 -25l2 15h63l-16 -78q16 -44 16 -133v-1053q0 -128 -39 -174.5t-147 -46.5q-81 0 -121 22l-2 -12h-64zM172 1225v-539l61 426v113q0 63 -7 83.5t-23 20.5t-23.5 -21
t-7.5 -83zM203 145q16 0 23 21t7 84v487l-61 -399v-88q0 -62 7.5 -83.5t23.5 -21.5z" />
    <glyph glyph-name="Scommaaccent" unicode="&#x218;" 
d="M172 248q0 -61 7.5 -82t23.5 -21q18 0 24 20t6 83v424q0 44 -11.5 61.5t-63.5 52.5q-65 44 -93.5 74t-38.5 66t-10 104v430q0 127 39 173t148 46q108 0 147 -46t39 -173v-432h-156v393q0 63 -6 83t-24 20q-16 0 -23.5 -21t-7.5 -82v-385q0 -36 10 -53t60 -53
q55 -40 78.5 -59.5t42 -48.5t22.5 -57t4 -81v-475q0 -127 -39 -173t-147 -46q-109 0 -148 46t-39 173v469h156v-430zM221 -205h-86l55 60h-51v108h135v-108z" />
    <glyph glyph-name="scommaaccent" unicode="&#x219;" 
d="M389 211q0 -128 -39 -174.5t-147 -46.5q-109 0 -148 46.5t-39 174.5v377h156v-338q0 -62 7.5 -83.5t23.5 -21.5t23 21t7 84v315q0 44 -13.5 62t-76.5 63q-80 57 -103.5 100t-23.5 132v342q0 128 39 174.5t148 46.5q108 0 147 -46.5t39 -174.5v-367h-156v328q0 63 -7 83.5
t-23 20.5t-23.5 -21t-7.5 -83v-297q0 -37 11 -54t61 -53q68 -50 95 -78.5t38.5 -64.5t11.5 -103v-364zM221 -205h-86l55 60h-51v108h135v-108z" />
    <glyph glyph-name="Tcommaaccent" unicode="&#x21a;" horiz-adv-x="319" 
d="M313 1513h-75v-1513h-156v1513h-76v156h307v-156zM176 -205h-86l55 60h-51v108h135v-108z" />
    <glyph glyph-name="tcommaaccent" unicode="&#x21b;" horiz-adv-x="239" 
d="M190 0h-155v1352h-31v123h31v167h155v-167h46v-123h-46v-1352zM129 -205h-86l55 60h-51v108h135v-108z" />
    <glyph glyph-name="dotlessj" unicode="&#x237;" horiz-adv-x="208" 
d="M193 49q0 -80 -41.5 -121t-116.5 -41h-39v123h10q14 0 22.5 9t8.5 24v1432h156v-1426z" />
    <glyph glyph-name="schwa" unicode="&#x259;" 
d="M16 784h217v441q0 63 -7 83.5t-23 20.5t-23.5 -21t-7.5 -83v-295h-156v334q0 128 39 174.5t148 46.5q108 0 147 -46.5t39 -174.5v-1053q0 -128 -39 -174.5t-147 -46.5q-109 0 -148 46.5t-39 174.5v573zM172 250q0 -62 7.5 -83.5t23.5 -21.5t23 21t7 84v379h-61v-379z" />
    <glyph glyph-name="circumflex" unicode="&#x2c6;" horiz-adv-x="512" 
d="M287 1522l-31 57l-31 -57h-147l78 127h200l78 -127h-147z" />
    <glyph glyph-name="caron" unicode="&#x2c7;" horiz-adv-x="512" 
d="M287 1649h147l-78 -127h-200l-78 127h147l31 -58z" />
    <glyph glyph-name="breve" unicode="&#x2d8;" horiz-adv-x="512" 
d="M256 1595q22 0 30.5 12.5t8.5 41.5h119q-9 -72 -44.5 -100.5t-113.5 -28.5t-113.5 28.5t-44.5 100.5h119q0 -29 8.5 -41.5t30.5 -12.5z" />
    <glyph glyph-name="dotaccent" unicode="&#x2d9;" horiz-adv-x="512" 
d="M258 1522q-36 0 -58 20.5t-22 56.5t22 57t58 21t58 -21t22 -57t-22 -56.5t-58 -20.5z" />
    <glyph glyph-name="ring" unicode="&#x2da;" horiz-adv-x="512" 
d="M258 1440q-50 0 -78 28t-28 78t28.5 78.5t77.5 28.5q50 0 78.5 -28.5t28.5 -78.5q0 -49 -28.5 -77.5t-78.5 -28.5zM258 1485q28 0 44.5 16.5t16.5 44.5t-16.5 45t-44.5 17t-44.5 -17t-16.5 -45t16.5 -44.5t44.5 -16.5z" />
    <glyph glyph-name="ogonek" unicode="&#x2db;" horiz-adv-x="512" 
d="M293 0q-39 -49 -39 -109q0 -21 5.5 -29.5t19.5 -8.5q22 0 22 18v4h74v-16q0 -30 -27.5 -47t-79.5 -17q-60 0 -84 18.5t-24 59.5q0 33 17 60.5t56 66.5h60z" />
    <glyph glyph-name="tilde" unicode="&#x2dc;" horiz-adv-x="512" 
d="M424 1649q0 -129 -100 -129q-25 0 -57 14t-48 14q-26 0 -26 -26h-105q0 129 98 129q31 0 64 -14.5t43 -14.5q24 0 24 27h107z" />
    <glyph glyph-name="hungarumlaut" unicode="&#x2dd;" horiz-adv-x="512" 
d="M203 1522h-70l12 127h111zM326 1522h-70l14 127h111z" />
    <glyph glyph-name="pi" unicode="&#x3c0;" horiz-adv-x="464" 
d="M35 0l20 1348q-31 -3 -51 -11v121q42 17 150 17h307v-123h-37l-16 -1196q0 -15 8 -24t22 -9h11v-123h-39q-75 0 -117 41t-41 121l16 1190h-57l-21 -1352h-155z" />
    <glyph glyph-name="Wgrave" unicode="&#x1e80;" horiz-adv-x="571" 
d="M223 1716l-98 127h201l24 -127h-127zM59 0l-53 1669h146l18 -1079l47 1079h135l49 -1081l19 1081h145l-53 -1669h-188l-37 993l-41 -993h-187z" />
    <glyph glyph-name="wgrave" unicode="&#x1e81;" horiz-adv-x="567" 
d="M221 1522l-98 127h201l24 -127h-127zM57 0l-53 1475h146l18 -961l47 961h135l49 -934l19 934h145l-53 -1475h-188l-37 885l-41 -885h-187z" />
    <glyph glyph-name="Wacute" unicode="&#x1e82;" horiz-adv-x="571" 
d="M350 1716h-127l25 127h201zM59 0l-53 1669h146l18 -1079l47 1079h135l49 -1081l19 1081h145l-53 -1669h-188l-37 993l-41 -993h-187z" />
    <glyph glyph-name="wacute" unicode="&#x1e83;" horiz-adv-x="567" 
d="M348 1522h-127l25 127h200zM57 0l-53 1475h146l18 -961l47 961h135l49 -934l19 934h145l-53 -1475h-188l-37 885l-41 -885h-187z" />
    <glyph glyph-name="Wdieresis" unicode="&#x1e84;" horiz-adv-x="571" 
d="M133 1718v146h133v-146h-133zM440 1718h-133v146h133v-146zM59 0l-53 1669h146l18 -1079l47 1079h135l49 -1081l19 1081h145l-53 -1669h-188l-37 993l-41 -993h-187z" />
    <glyph glyph-name="wdieresis" unicode="&#x1e85;" horiz-adv-x="567" 
d="M131 1524v145h133v-145h-133zM438 1524h-133v145h133v-145zM57 0l-53 1475h146l18 -961l47 961h135l49 -934l19 934h145l-53 -1475h-188l-37 885l-41 -885h-187z" />
    <glyph glyph-name="Ygrave" unicode="&#x1ef2;" horiz-adv-x="366" 
d="M121 1716l-98 127h200l25 -127h-127zM106 496l-100 1173h139l37 -754h2l37 754h139l-100 -1173v-496h-154v496z" />
    <glyph glyph-name="ygrave" unicode="&#x1ef3;" horiz-adv-x="370" 
d="M123 1522l-98 127h200l25 -127h-127zM291 166q-9 -145 -59.5 -206.5t-155.5 -61.5v147h22q17 0 23.5 6.5t7.5 26.5l4 37h-57l-76 1360h154l22 -1229l39 1229h156z" />
    <glyph glyph-name="thinspace" unicode="&#x2009;" horiz-adv-x="69" 
 />
    <glyph glyph-name="endash" unicode="&#x2013;" horiz-adv-x="716" 
d="M696 770h-676v59h676v-59z" />
    <glyph glyph-name="emdash" unicode="&#x2014;" horiz-adv-x="1433" 
d="M1413 770h-1393v59h1393v-59z" />
    <glyph glyph-name="quoteleft" unicode="&#x2018;" horiz-adv-x="210" 
d="M94 1669h88l-59 -194h72v-170h-179v170z" />
    <glyph glyph-name="quoteright" unicode="&#x2019;" horiz-adv-x="210" 
d="M117 1305h-88l59 194h-72v170h179v-170z" />
    <glyph glyph-name="quotesinglbase" unicode="&#x201a;" horiz-adv-x="210" 
d="M117 -195h-88l59 195h-72v170h179v-170z" />
    <glyph glyph-name="quotedblleft" unicode="&#x201c;" horiz-adv-x="421" 
d="M94 1669h88l-59 -194h72v-170h-179v170zM305 1669h88l-59 -194h72v-170h-179v170z" />
    <glyph glyph-name="quotedblright" unicode="&#x201d;" horiz-adv-x="421" 
d="M117 1305h-88l59 194h-72v170h179v-170zM328 1305h-88l59 194h-72v170h179v-170z" />
    <glyph glyph-name="quotedblbase" unicode="&#x201e;" horiz-adv-x="421" 
d="M117 -195h-88l59 195h-72v170h179v-170zM328 -195h-88l59 195h-72v170h179v-170z" />
    <glyph glyph-name="dagger" unicode="&#x2020;" horiz-adv-x="348" 
d="M324 1483v-66h-109v-438h-82v438h-108v66h108v186h82v-186h109z" />
    <glyph glyph-name="daggerdbl" unicode="&#x2021;" horiz-adv-x="348" 
d="M324 1239v-65h-109v-195h-82v195h-108v65h108v178h-108v66h108v186h82v-186h109v-66h-109v-178h109z" />
    <glyph glyph-name="bullet" unicode="&#x2022;" horiz-adv-x="362" 
d="M182 600q-96 0 -127.5 42.5t-31.5 156.5t31.5 156t127.5 42t128 -42.5t32 -155.5q0 -114 -32 -156.5t-128 -42.5z" />
    <glyph glyph-name="ellipsis" unicode="&#x2026;" horiz-adv-x="614" 
d="M188 0h-172v176h172v-176zM393 0h-172v176h172v-176zM598 0h-172v176h172v-176z" />
    <glyph glyph-name="perthousand" unicode="&#x2030;" horiz-adv-x="716" 
d="M33 1071v502q0 58 20.5 82t75.5 24t75.5 -24t20.5 -82v-502q0 -58 -20.5 -82t-75.5 -24t-75.5 24t-20.5 82zM420 1669h57l-399 -1669h-58zM117 1092q0 -41 12 -41t12 41v460q0 41 -12 41t-12 -41v-460zM270 102v502q0 58 21 82.5t76 24.5t75.5 -24.5t20.5 -82.5v-502
q0 -58 -20.5 -82t-75.5 -24t-76 24.5t-21 81.5zM504 102v502q0 58 20.5 82.5t75.5 24.5t75.5 -24.5t20.5 -82.5v-502q0 -58 -20.5 -82t-75.5 -24t-75.5 24t-20.5 82zM354 123q0 -41 13 -41q12 0 12 41v461q0 41 -12 41q-13 0 -13 -41v-461zM588 123q0 -41 12 -41t12 41v461
q0 41 -12 41t-12 -41v-461z" />
    <glyph glyph-name="guilsinglleft" unicode="&#x2039;" horiz-adv-x="204" 
d="M12 799l92 479h89l-95 -479l95 -480h-89z" />
    <glyph glyph-name="guilsinglright" unicode="&#x203a;" horiz-adv-x="204" 
d="M193 799l-93 -480h-88l94 480l-94 479h88z" />
    <glyph glyph-name="fraction" unicode="&#x2044;" horiz-adv-x="45" 
d="M195 1669h57l-399 -1669h-58z" />
    <glyph glyph-name="zerosuperior" unicode="&#x2070;" horiz-adv-x="233" 
d="M20 1071v502q0 57 21 81.5t76 24.5t75.5 -24t20.5 -82v-502q0 -58 -20.5 -82t-75.5 -24t-76 24.5t-21 81.5zM104 1092q0 -41 13 -41q12 0 12 41v460q0 41 -12 41q-13 0 -13 -41v-460z" />
    <glyph glyph-name="foursuperior" unicode="&#x2074;" horiz-adv-x="247" 
d="M129 969v172h-109v59l52 469h135v-452h20v-76h-20v-172h-78zM100 1217h29v370z" />
    <glyph glyph-name="fivesuperior" unicode="&#x2075;" horiz-adv-x="208" 
d="M201 1325v-246q0 -66 -20 -90t-77 -24t-76.5 24t-19.5 90v111h84v-96q0 -47 12 -47q13 0 13 47v211q0 34 -2.5 44.5t-10.5 10.5q-6 0 -8 -10t-2 -45h-84v364h191v-80h-107v-264q0 67 10.5 91t40.5 24q31 0 43.5 -25t12.5 -90z" />
    <glyph glyph-name="sixsuperior" unicode="&#x2076;" horiz-adv-x="208" 
d="M104 965q-57 0 -76.5 23t-19.5 89v490q0 66 19.5 89t76.5 23t77 -23t20 -89v-111h-84v90q0 33 -2.5 43t-10.5 10t-10 -9.5t-2 -43.5v-252q0 66 11 90.5t40 24.5q33 0 45.5 -25t12.5 -90v-217q0 -66 -20 -89t-77 -23zM104 1327q-8 0 -10 -9.5t-2 -43.5v-176q0 -34 2 -44
t10 -10t10.5 10.5t2.5 43.5v176q0 35 -2 44t-11 9z" />
    <glyph glyph-name="sevensuperior" unicode="&#x2077;" horiz-adv-x="200" 
d="M115 969h-78q0 68 2.5 128.5t8 114.5t10 91.5t14.5 85.5t15 69t17 70t15 61h-115v80h193v-70q-2 -10 -25.5 -111t-30.5 -142.5t-16.5 -148.5t-9.5 -228z" />
    <glyph glyph-name="eightsuperior" unicode="&#x2078;" horiz-adv-x="215" 
d="M109 1679q58 0 79 -23.5t21 -88.5v-125q0 -47 -13 -71.5t-42 -31.5q30 -6 42.5 -29t12.5 -71v-162q0 -65 -21 -88.5t-79 -23.5t-79.5 23.5t-21.5 88.5v162q0 48 12.5 71t42.5 29q-29 7 -42 31.5t-13 71.5v125q0 65 21.5 88.5t79.5 23.5zM109 1386q10 0 13 10t3 44v106
q0 34 -3 43.5t-13 9.5q-11 0 -14 -10t-3 -43v-106q0 -34 3 -44t14 -10zM109 1042q10 0 13 10.5t3 45.5v143q0 34 -3 43.5t-13 9.5q-11 0 -14 -10t-3 -43v-143q0 -34 3.5 -45t13.5 -11z" />
    <glyph glyph-name="ninesuperior" unicode="&#x2079;" horiz-adv-x="208" 
d="M104 1679q57 0 77 -23t20 -89v-490q0 -66 -20 -89t-77 -23t-76.5 23t-19.5 89v111h84v-90q0 -34 2 -44t10 -10t10.5 10.5t2.5 43.5v252q0 -66 -11 -90.5t-40 -24.5q-33 0 -45.5 25t-12.5 90v217q0 66 19.5 89t76.5 23zM104 1317q8 0 10.5 10t2.5 43v176q0 33 -2.5 43
t-10.5 10t-10 -9.5t-2 -43.5v-176q0 -36 1.5 -44.5t10.5 -8.5z" />
    <glyph glyph-name="zeroinferior" unicode="&#x2080;" horiz-adv-x="233" 
d="M20 102v502q0 58 21 82.5t76 24.5t75.5 -24.5t20.5 -82.5v-502q0 -58 -20.5 -82t-75.5 -24t-76 24.5t-21 81.5zM104 123q0 -41 13 -41q12 0 12 41v461q0 41 -12 41q-13 0 -13 -41v-461z" />
    <glyph glyph-name="oneinferior" unicode="&#x2081;" horiz-adv-x="184" 
d="M164 0h-86v600l-68 -43v88l96 55h58v-700z" />
    <glyph glyph-name="twoinferior" unicode="&#x2082;" horiz-adv-x="233" 
d="M129 473v111q0 41 -12 41q-13 0 -13 -41v-95h-84v115q0 58 21 82.5t76 24.5t75.5 -24.5t20.5 -82.5v-117q0 -31 -94 -401h90v-86h-180v66q100 373 100 407z" />
    <glyph glyph-name="threeinferior" unicode="&#x2083;" horiz-adv-x="239" 
d="M121 -4q-55 0 -75.5 24t-20.5 82v109h84v-88q0 -41 12 -41t12 41v156q0 28 -2.5 36.5t-11.5 8.5h-45v86h41q16 0 16 43v137q0 35 -10 35t-10 -35v-101h-84v117q0 56 20 80.5t74 24.5t74 -24.5t20 -80.5v-182q0 -24 -11 -35t-40 -14q31 -6 42 -22t11 -50v-201
q0 -58 -20.5 -82t-75.5 -24z" />
    <glyph glyph-name="fourinferior" unicode="&#x2084;" horiz-adv-x="247" 
d="M129 0v172h-109v59l52 469h135v-452h20v-76h-20v-172h-78zM100 248h29v370z" />
    <glyph glyph-name="fiveinferior" unicode="&#x2085;" horiz-adv-x="208" 
d="M201 356v-245q0 -66 -20 -90.5t-77 -24.5q-56 0 -76 24t-20 91v110h84v-96q0 -47 12 -47q13 0 13 47v211q0 34 -2.5 44.5t-10.5 10.5q-6 0 -8 -10t-2 -45h-84v364h191v-79h-107v-265q0 67 10.5 91t40.5 24q31 0 43.5 -25t12.5 -90z" />
    <glyph glyph-name="sixinferior" unicode="&#x2086;" horiz-adv-x="208" 
d="M104 -4q-57 0 -76.5 23.5t-19.5 89.5v489q0 66 19.5 89.5t76.5 23.5t77 -23.5t20 -89.5v-111h-84v91q0 33 -2.5 43t-10.5 10t-10 -9.5t-2 -43.5v-252q0 66 11 90t40 24q33 0 45.5 -24.5t12.5 -89.5v-217q0 -66 -20 -89.5t-77 -23.5zM104 358q-8 0 -10 -9.5t-2 -43.5v-176
q0 -34 2 -43.5t10 -9.5t10.5 10t2.5 43v176q0 35 -2 44t-11 9z" />
    <glyph glyph-name="seveninferior" unicode="&#x2087;" horiz-adv-x="200" 
d="M115 0h-78q0 68 2.5 128t8 114.5t10 92t15 86.5t14.5 69t16.5 70t15.5 61h-115v79h193v-69q-6 -27 -21.5 -92t-23 -104.5t-18 -107t-15 -148.5t-4.5 -179z" />
    <glyph glyph-name="eightinferior" unicode="&#x2088;" horiz-adv-x="215" 
d="M109 711q57 0 78.5 -23.5t21.5 -89.5v-125q0 -47 -13 -70.5t-42 -31.5q30 -6 42.5 -29.5t12.5 -71.5v-161q0 -66 -21.5 -89.5t-78.5 -23.5q-58 0 -79.5 24t-21.5 89v161q0 48 12.5 71.5t42.5 29.5q-29 8 -42 31.5t-13 70.5v125q0 65 21.5 89t79.5 24zM109 418
q10 0 13 9.5t3 43.5v107q0 34 -3 43.5t-13 9.5q-11 0 -14 -10t-3 -43v-107q0 -33 3 -43t14 -10zM109 74q10 0 13 10.5t3 44.5v143q0 34 -3 44t-13 10q-11 0 -14 -10t-3 -44v-143q0 -34 3.5 -44.5t13.5 -10.5z" />
    <glyph glyph-name="nineinferior" unicode="&#x2089;" horiz-adv-x="208" 
d="M104 711q57 0 77 -23.5t20 -89.5v-489q0 -66 -20 -89.5t-77 -23.5t-76.5 23.5t-19.5 89.5v110h84v-90q0 -34 2 -43.5t10 -9.5t10.5 10t2.5 43v252q0 -66 -11 -90.5t-40 -24.5q-33 0 -45.5 25t-12.5 90v217q0 66 19.5 89.5t76.5 23.5zM104 348q8 0 10.5 10t2.5 43v177
q0 33 -2.5 43t-10.5 10t-10 -9.5t-2 -43.5v-177q0 -36 1.5 -44.5t10.5 -8.5z" />
    <glyph glyph-name="lira" unicode="&#x20a4;" 
d="M315 829l-131 -106v-567h25q14 0 19 19.5t5 82.5v209h156v-248q0 -127 -38 -173t-142 -46h-180v623l-27 -21v127l27 23v116l-27 -20v127l27 22v672h155v-573l131 106v-127l-131 -106v-119l131 106v-127z" />
    <glyph glyph-name="Euro" unicode="&#x20ac;" 
d="M315 676h-131v-428q0 -42 3 -65t8 -30.5t14 -7.5q14 0 19 20t5 83v219h156v-258q0 -127 -38 -173t-142 -46q-105 0 -142.5 45.5t-37.5 173.5v467h-27v100h27v125h-27v100h27v459q0 128 37.5 173.5t142.5 45.5q104 0 142 -46t38 -173v-258h-156v219q0 63 -5 83t-19 20
q-9 0 -14 -7.5t-8 -30.5t-3 -65v-420h131v-100h-131v-125h131v-100z" />
    <glyph glyph-name="indianrupee" unicode="&#x20b9;" horiz-adv-x="288" 
d="M121 0l-105 791v114h58q18 0 24 20t6 83v141h-88v100h88v160q0 64 -6 84t-24 20h-58v156h271v-100h-51q24 -35 24 -119v-201h27v-100h-27v-242q0 -68 -21 -102.5t-73 -46.5l108 -758h-153z" />
    <glyph glyph-name="litre" unicode="&#x2113;" horiz-adv-x="217" 
d="M172 156q0 -33 31 -33h10v-123h-39q-86 0 -122 29t-36 108v1532h156v-1513z" />
    <glyph glyph-name="numero" unicode="&#x2116;" horiz-adv-x="661" 
d="M535 1679q63 0 85.5 -26t22.5 -90v-484q0 -64 -22.5 -90t-85.5 -26t-86 26.5t-23 89.5v484q0 63 23 89.5t86 26.5zM535 1059q16 0 16 49v426q0 49 -16 49q-17 0 -17 -49v-426q0 -49 17 -49zM266 0l-110 844v-844h-140v1475h119l113 -910v910h139v-1475h-121zM641 840
h-205v80h205v-80z" />
    <glyph glyph-name="uni2117" unicode="&#x2117;" horiz-adv-x="657" 
d="M641 1231v-793q0 -241 -67 -344.5t-244 -103.5q-178 0 -246 103.5t-68 344.5v793q0 241 68 344.5t246 103.5q177 0 244 -103.5t67 -344.5zM569 436v797q0 153 -22 233t-72 112t-145 32q-97 0 -147.5 -32t-72.5 -112t-22 -233v-797q0 -153 22 -233t72.5 -112t147.5 -32
q95 0 145 32t72 112t22 233zM356 649h-43v-399h-123v1198h166q75 0 102 -34t27 -126v-479q0 -92 -27 -126t-102 -34zM342 1323h-29v-549h29q12 0 16 15t4 59v401q0 45 -4 59.5t-16 14.5z" />
    <glyph glyph-name="servicemark" unicode="&#x2120;" horiz-adv-x="380" 
d="M154 1360q0 -78 -62 -78q-63 0 -63 78v57h49v-39q0 -47 14 -47q12 0 12 39v43q0 17 -5 26t-27 29q-28 25 -35.5 38t-7.5 40v53q0 78 61 78q64 0 64 -78v-47h-50v29q0 47 -14 47q-12 0 -12 -39v-30q0 -17 5.5 -26.5t27.5 -29.5q28 -25 35.5 -38t7.5 -40v-65zM244 1292
l-25 258v-258h-49v377h72l18 -184l23 184h69v-377h-49v258l-24 -258h-35z" />
    <glyph glyph-name="trademark" unicode="&#x2122;" horiz-adv-x="362" 
d="M111 1292h-54v322h-28v55h110v-55h-28v-322zM225 1292l-24 258v-258h-49v377h71l19 -184l22 184h70v-377h-49v258l-25 -258h-35z" />
    <glyph glyph-name="Omega" unicode="&#x2126;" 
d="M203 1524q-16 0 -23.5 -21t-7.5 -82v-1151q0 -100 14 -114v-156h-170v156h156q-91 0 -123.5 46t-32.5 173v1085q0 127 39 173t148 46t147.5 -45.5t38.5 -173.5v-1085q0 -127 -32.5 -173t-123.5 -46h156v-156h-170v156q14 14 14 114v1151q0 61 -7 82t-23 21z" />
    <glyph glyph-name="estimated" unicode="&#x212e;" horiz-adv-x="1708" 
d="M324 788v-520q84 -92 222 -148.5t308 -56.5q121 0 233 36.5t199 99t152.5 142t105.5 169.5h80q-92 -227 -300.5 -373.5t-469.5 -146.5q-245 0 -434.5 104.5t-294.5 296.5t-105 443q0 186 65 345t177.5 268t265.5 170.5t326 61.5q181 0 337.5 -67t264.5 -181t170 -269
t62 -328q0 -8 -1 -22.5t-1 -23.5h-1362zM324 862h1077v508q-80 101 -224.5 166.5t-322.5 65.5q-159 0 -304 -61.5t-226 -154.5v-524z" />
    <glyph glyph-name="arrowleft" unicode="&#x2190;" horiz-adv-x="634" 
d="M20 721v33l170 313h177l-144 -252h391v-156h-391l144 -251h-177z" />
    <glyph glyph-name="arrowup" unicode="&#x2191;" horiz-adv-x="634" 
d="M614 721l-219 219v-653h-155v653l-220 -219v205l281 262h33l280 -262v-205z" />
    <glyph glyph-name="arrowright" unicode="&#x2192;" horiz-adv-x="634" 
d="M614 721l-170 -313h-176l144 251h-392v156h392l-144 252h176l170 -313v-33z" />
    <glyph glyph-name="arrowdown" unicode="&#x2193;" horiz-adv-x="634" 
d="M614 549l-280 -262h-33l-281 262v205l220 -219v653h155v-653l219 219v-205z" />
    <glyph glyph-name="arrowleftright" unicode="&#x2194;" horiz-adv-x="761" 
d="M10 721v33l150 313h176l-131 -252h352l-131 252h176l150 -313v-33l-150 -313h-176l131 251h-352l131 -251h-176z" />
    <glyph glyph-name="uni21A9" unicode="&#x21a9;" horiz-adv-x="634" 
d="M20 721v33l170 313h177l-144 -252h236v383h155v-539h-391l144 -251h-177z" />
    <glyph glyph-name="uni21AA" unicode="&#x21aa;" horiz-adv-x="634" 
d="M614 721l-170 -313h-176l144 251h-392v539h156v-383h236l-144 252h176l170 -313v-33z" />
    <glyph glyph-name="partialdiff" unicode="&#x2202;" 
d="M233 1214v197q0 58 -14.5 80t-56.5 22h-35v156h76q109 0 147.5 -45.5t38.5 -173.5v-1241q0 -128 -38.5 -173.5t-147.5 -45.5t-148 46t-39 173v1005q0 128 23.5 175t87.5 47q58 0 82 -48.5t24 -173.5zM233 248v928q0 62 -7 83t-23 21q-18 0 -24.5 -20t-6.5 -84v-928
q0 -61 7.5 -82t23.5 -21t23 21t7 82z" />
    <glyph glyph-name="Delta" unicode="&#x2206;" horiz-adv-x="366" 
d="M315 1669l45 -1669h-354l45 1669h264zM180 1466l-18 -1310h43l-19 1310h-6z" />
    <glyph glyph-name="product" unicode="&#x220f;" 
d="M233 -102v1615h-61v-1615h-156v1771h373v-1771h-156z" />
    <glyph glyph-name="summation" unicode="&#x2211;" horiz-adv-x="382" 
d="M6 -102v112l162 813l-162 733v113h371v-156h-209l147 -665v-49l-145 -746h207v-155h-371z" />
    <glyph glyph-name="minus" unicode="&#x2212;" horiz-adv-x="552" 
d="M512 768h-471v80h471v-80z" />
    <glyph glyph-name="radical" unicode="&#x221a;" horiz-adv-x="366" 
d="M213 1669h154l-52 -1669h-264l-43 1270h154l22 -1102z" />
    <glyph glyph-name="infinity" unicode="&#x221e;" horiz-adv-x="552" 
d="M162 961q83 0 125 -58q40 49 110 49q64 0 104 -40t40 -103q0 -64 -39.5 -102.5t-104.5 -38.5q-72 0 -110 47q-42 -58 -125 -58q-68 0 -109 41.5t-41 110.5t41 110.5t109 41.5zM168 881q-32 0 -51 -20t-19 -52q0 -34 19 -53t51 -19q35 0 55.5 19t20.5 53q0 33 -20.5 52.5
t-55.5 19.5zM391 868q-29 0 -46 -15.5t-17 -43.5t17 -44.5t46 -16.5t46.5 16.5t17.5 44.5t-17.5 43.5t-46.5 15.5z" />
    <glyph glyph-name="integral" unicode="&#x222b;" horiz-adv-x="229" 
d="M193 59q0 -80 -41.5 -120.5t-116.5 -40.5h-39v122h10q14 0 22.5 9t8.5 24v1456q0 79 41 119.5t117 40.5h34v-123h-8q-28 0 -28 -33v-1454z" />
    <glyph glyph-name="approxequal" unicode="&#x2248;" horiz-adv-x="552" 
d="M379 860q-49 0 -119.5 35t-93.5 35q-30 0 -41.5 -15.5t-11.5 -44.5h-80q0 71 35 107.5t98 36.5q49 0 119.5 -35t93.5 -35q33 0 44 15t11 45h78q0 -71 -35 -107.5t-98 -36.5zM379 602q-49 0 -119.5 35t-93.5 35q-30 0 -41.5 -15.5t-11.5 -44.5h-80q0 71 35 107.5t98 36.5
q49 0 119.5 -35t93.5 -35q33 0 44 14.5t11 44.5h78q0 -71 -35 -107t-98 -36z" />
    <glyph glyph-name="notequal" unicode="&#x2260;" horiz-adv-x="552" 
d="M121 573h-80l43 52h-43v80h109l172 206h-281v80h346l45 53h80l-45 -53h45v-80h-111l-172 -206h283v-80h-348z" />
    <glyph glyph-name="lessequal" unicode="&#x2264;" horiz-adv-x="552" 
d="M41 815v29l313 200h158l-332 -215l332 -215h-158zM512 494h-471v79h471v-79z" />
    <glyph glyph-name="greaterequal" unicode="&#x2265;" horiz-adv-x="552" 
d="M512 815l-313 -201h-158l332 215l-332 215h158l313 -200v-29zM41 494v79h471v-79h-471z" />
    <glyph glyph-name="uni2295" unicode="&#x2295;" horiz-adv-x="1615" 
d="M807 -23q-205 0 -370.5 93.5t-259 259.5t-93.5 372q0 205 93.5 370.5t259 259t370.5 93.5q206 0 372 -93.5t259.5 -259t93.5 -370.5q0 -206 -93.5 -372t-259.5 -259.5t-372 -93.5zM807 1300q-254 0 -417 -164t-163 -434q0 -271 163 -435.5t417 -164.5t418 164.5
t164 435.5q0 134 -44 247t-121.5 189.5t-184.5 119t-232 42.5zM412 639v125h327v344h135v-344h330v-125h-330v-344h-135v344h-327z" />
    <glyph glyph-name="uni2296" unicode="&#x2296;" horiz-adv-x="1615" 
d="M807 -23q-205 0 -370.5 93.5t-259 259.5t-93.5 372q0 205 93.5 370.5t259 259t370.5 93.5q206 0 372 -93.5t259.5 -259t93.5 -370.5q0 -206 -93.5 -372t-259.5 -259.5t-372 -93.5zM807 1300q-254 0 -417 -164t-163 -434q0 -271 163 -435.5t417 -164.5t418 164.5
t164 435.5q0 134 -44 247t-121.5 189.5t-184.5 119t-232 42.5zM412 639v125h792v-125h-792z" />
    <glyph glyph-name="uni2297" unicode="&#x2297;" horiz-adv-x="1615" 
d="M807 -23q-205 0 -370.5 93.5t-259 259.5t-93.5 372q0 205 93.5 370.5t259 259t370.5 93.5q206 0 372 -93.5t259.5 -259t93.5 -370.5q0 -206 -93.5 -372t-259.5 -259.5t-372 -93.5zM807 1300q-254 0 -417 -164t-163 -434q0 -271 163 -435.5t417 -164.5t418 164.5
t164 435.5q0 134 -44 247t-121.5 189.5t-184.5 119t-232 42.5zM569 377l-86 88l236 235l-242 244l88 90l244 -243l235 235l89 -86l-236 -235l242 -244l-90 -90l-242 243z" />
    <glyph glyph-name="uni2298" unicode="&#x2298;" horiz-adv-x="1615" 
d="M807 -23q-205 0 -370.5 93.5t-259 259.5t-93.5 372q0 205 93.5 370.5t259 259t370.5 93.5q206 0 372 -93.5t259.5 -259t93.5 -370.5q0 -206 -93.5 -372t-259.5 -259.5t-372 -93.5zM227 702q0 -219 109 -372l846 846q-155 124 -375 124q-254 0 -417 -164t-163 -434z
M807 102q254 0 418 164.5t164 435.5q0 218 -111 373l-846 -846q152 -127 375 -127z" />
    <glyph glyph-name="uni23CF" unicode="&#x23cf;" horiz-adv-x="1925" 
d="M961 1270l704 -705h-1409zM256 375h1409v-219h-1409v219z" />
    <glyph glyph-name="uni23E9" unicode="&#x23e9;" horiz-adv-x="1925" 
d="M1765 705l-702 -705v1409zM1008 705l-705 -705v1409z" />
    <glyph glyph-name="uni23EA" unicode="&#x23ea;" horiz-adv-x="1925" 
d="M156 705l704 704v-1409zM915 705l705 704v-1409z" />
    <glyph glyph-name="uni23EB" unicode="&#x23eb;" horiz-adv-x="1925" 
d="M961 1464l704 -704h-1409zM961 705l704 -705h-1409z" />
    <glyph glyph-name="uni23EC" unicode="&#x23ec;" horiz-adv-x="1925" 
d="M961 715l-705 704h1409zM961 -43l-705 702h1409z" />
    <glyph glyph-name="uni23ED" unicode="&#x23ed;" horiz-adv-x="1925" 
d="M1825 0h-221v1409h221v-1409zM803 705l-705 -705v1409zM1563 705l-705 -705v1409z" />
    <glyph glyph-name="uni23EE" unicode="&#x23ee;" horiz-adv-x="1925" 
d="M98 0v1409h221v-1409h-221zM1120 705l705 704v-1409zM362 705l705 704v-1409z" />
    <glyph glyph-name="uni23EF" unicode="&#x23ef;" horiz-adv-x="1925" 
d="M993 705l-704 -705v1409zM1055 0v1409h217v-1409h-217zM1413 0v1409h221v-1409h-221z" />
    <glyph glyph-name="uni23F8" unicode="&#x23f8;" horiz-adv-x="1925" 
d="M504 0v1409h309v-1409h-309zM1110 0v1409h309v-1409h-309z" />
    <glyph glyph-name="uni23F9" unicode="&#x23f9;" horiz-adv-x="1925" 
d="M1665 0h-1409v1409h1409v-1409z" />
    <glyph glyph-name="uni23FA" unicode="&#x23fa;" horiz-adv-x="1925" 
d="M961 115q-125 0 -234.5 47t-186.5 126.5t-121 188t-44 228.5q0 163 75 297.5t209.5 213t301.5 78.5q125 0 234.5 -46t186 -125t120.5 -187.5t44 -230.5q0 -120 -44 -228.5t-120.5 -188t-186 -126.5t-234.5 -47z" />
    <glyph glyph-name="lozenge" unicode="&#x25ca;" horiz-adv-x="552" 
d="M41 836l221 833h29l221 -833l-221 -836h-29zM139 836l137 -570l138 570l-138 567z" />
    <glyph glyph-name="uni25D0" unicode="&#x25d0;" horiz-adv-x="2084" 
d="M1042 -23q-206 0 -372 93.5t-259.5 259.5t-93.5 372q0 205 93.5 370.5t259.5 259t372 93.5q205 0 370.5 -93.5t259 -259t93.5 -370.5q0 -206 -93.5 -372t-259 -259.5t-370.5 -93.5zM1042 102q252 0 416 168t164 432q0 173 -75 310.5t-207.5 214t-297.5 76.5v-1201z" />
    <glyph glyph-name="uni25D1" unicode="&#x25d1;" horiz-adv-x="2084" 
d="M1042 1425q205 0 370.5 -93.5t259 -259t93.5 -370.5q0 -206 -93.5 -372t-259 -259.5t-370.5 -93.5q-206 0 -372 93.5t-259.5 259.5t-93.5 372q0 205 93.5 370.5t259.5 259t372 93.5zM1042 1303q-124 0 -231.5 -45t-184.5 -123.5t-121 -190.5t-44 -242q0 -174 75.5 -311.5
t207.5 -213t298 -75.5v1201z" />
    <glyph glyph-name="uni25D2" unicode="&#x25d2;" horiz-adv-x="2084" 
d="M1765 702q0 -206 -93.5 -372t-259 -259.5t-370.5 -93.5q-206 0 -372 93.5t-259.5 259.5t-93.5 372q0 205 93.5 370.5t259.5 259t372 93.5q205 0 370.5 -93.5t259 -259t93.5 -370.5zM1628 705q0 131 -45 242.5t-123.5 188t-186 119.5t-231.5 43q-166 0 -299 -73.5
t-209.5 -209t-76.5 -310.5h1171z" />
    <glyph glyph-name="uni25D3" unicode="&#x25d3;" horiz-adv-x="2084" 
d="M1765 702q0 -206 -93.5 -372t-259 -259.5t-370.5 -93.5q-206 0 -372 93.5t-259.5 259.5t-93.5 372q0 205 93.5 370.5t259.5 259t372 93.5q205 0 370.5 -93.5t259 -259t93.5 -370.5zM1628 700h-1171q0 -176 76.5 -312t209.5 -209t299 -73q165 0 298.5 73t210.5 209.5
t77 311.5z" />
    <glyph glyph-name="uni25D4" unicode="&#x25d4;" horiz-adv-x="2084" 
d="M1765 702q0 -206 -93.5 -372t-259 -259.5t-370.5 -93.5q-206 0 -372 93.5t-259.5 259.5t-93.5 372q0 205 93.5 370.5t259.5 259t372 93.5q205 0 370.5 -93.5t259 -259t93.5 -370.5zM1042 1298v-596h584q0 171 -76.5 307.5t-210 212.5t-297.5 76z" />
    <glyph glyph-name="uni25D5" unicode="&#x25d5;" horiz-adv-x="2084" 
d="M317 702q0 205 93.5 370.5t259.5 259t372 93.5q205 0 370.5 -93.5t259 -259t93.5 -370.5q0 -206 -93.5 -372t-259 -259.5t-370.5 -93.5q-206 0 -372 93.5t-259.5 259.5t-93.5 372zM1042 1298q-250 0 -416.5 -168.5t-166.5 -427.5h583v596z" />
    <glyph glyph-name="uni25E7" unicode="&#x25e7;" horiz-adv-x="2084" 
d="M338 0v1409h1409v-1409h-1409zM1042 127h570v1155h-570v-1155z" />
    <glyph glyph-name="uni25E8" unicode="&#x25e8;" horiz-adv-x="2084" 
d="M1747 0h-1409v1409h1409v-1409zM1042 127v1155h-569v-1155h569z" />
    <glyph glyph-name="uni2610" unicode="&#x2610;" horiz-adv-x="1536" 
d="M154 0v1229h1228v-1229h-1228zM281 123h974v983h-974v-983z" />
    <glyph glyph-name="uni2611" unicode="&#x2611;" horiz-adv-x="1536" 
d="M154 0v1229h1228v-1229h-1228zM281 123h974v983h-974v-983zM821 283h-125l-266 481h131l195 -358l229 567h125z" />
    <glyph glyph-name="uni2612" unicode="&#x2612;" horiz-adv-x="1536" 
d="M154 0v1229h1228v-1229h-1228zM281 123h974v983h-974v-983zM535 938l233 -240l233 240l82 -80l-235 -242l235 -243l-82 -80l-233 239l-233 -239l-82 80l235 243l-235 242z" />
    <glyph glyph-name="heart" unicode="&#x2665;" horiz-adv-x="409" 
d="M205 1135q16 82 88 82q59 0 82.5 -39.5t23.5 -157.5v-41q0 -102 -14.5 -174.5t-37.5 -118.5t-47.5 -88t-49.5 -112.5t-39 -163.5h-12q-14 93 -39 163.5t-50 112.5t-48 88t-37.5 118.5t-14.5 174.5v41q0 118 24 157.5t83 39.5q72 0 88 -82zM205 606q6 29 30.5 83.5t42 122
t17.5 153.5v71q0 37 -10 53.5t-33 16.5q-34 0 -43 -53h-8q-9 53 -43 53q-23 0 -33 -16.5t-10 -53.5v-71q0 -86 17.5 -153.5t42 -122t30.5 -83.5z" />
    <glyph glyph-name="uni2690" unicode="&#x2690;" horiz-adv-x="1134" 
d="M158 1409h129v-90h30q82 0 144.5 -15t103 -37t82 -44t104.5 -37t146 -15h135v-663h-129q-97 0 -171.5 15t-121 36t-89.5 42.5t-101 36.5t-131 15h-2v-653h-129v1409zM874 637h29v407h-29q-85 0 -148.5 15t-103.5 36.5t-79 43t-97 36.5t-135 15h-24v-408h24q72 0 128 -15
t96 -36t81.5 -42.5t107 -36.5t150.5 -15z" />
    <glyph glyph-name="uni2691" unicode="&#x2691;" horiz-adv-x="1134" 
d="M158 1409h129v-90h30q82 0 144.5 -15t103 -37t82 -44t104.5 -37t146 -15h135v-663h-147q-92 0 -162.5 15t-114.5 36t-84.5 42.5t-95 36.5t-123.5 15h-18v-653h-129v1409z" />
    <glyph glyph-name="uni26AA" unicode="&#x26aa;" 
d="M16 209v1251q0 127 39 173t148 46t147.5 -45.5t38.5 -173.5v-1251q0 -128 -38.5 -173.5t-147.5 -45.5t-148 46t-39 173zM47 209q0 -115 31 -152t125 -37t124.5 37t30.5 152v1251q0 115 -30.5 152t-124.5 37t-125 -37t-31 -152v-1251z" />
    <glyph glyph-name="uni26AB" unicode="&#x26ab;" 
d="M16 209v1251q0 127 39 173t148 46t147.5 -45.5t38.5 -173.5v-1251q0 -128 -38.5 -173.5t-147.5 -45.5t-148 46t-39 173z" />
    <glyph glyph-name="uni2713" unicode="&#x2713;" horiz-adv-x="1536" 
d="M821 246h-125l-303 545h133l230 -420l264 649h125z" />
    <glyph glyph-name="uni2717" unicode="&#x2717;" horiz-adv-x="1536" 
d="M498 973l268 -275l268 275l84 -80l-270 -277l270 -276l-84 -80l-268 275l-268 -275l-82 80l270 276l-270 277z" />
    <glyph glyph-name="uni2780" unicode="&#x2780;" 
d="M16 209v1251q0 127 39 173t148 46t147.5 -45.5t38.5 -173.5v-1251q0 -128 -38.5 -173.5t-147.5 -45.5t-148 46t-39 173zM47 209q0 -115 31 -152t125 -37t124.5 37t30.5 152v1251q0 115 -30.5 152t-124.5 37t-125 -37t-31 -152v-1251zM264 115h-86v1335l-67 -41v88l96 55
h57v-1437z" />
    <glyph glyph-name="uni2781" unicode="&#x2781;" 
d="M16 209v1251q0 127 39 173t148 46t147.5 -45.5t38.5 -173.5v-1251q0 -128 -38.5 -173.5t-147.5 -45.5t-148 46t-39 173zM47 209q0 -115 31 -152t125 -37t124.5 37t30.5 152v1251q0 115 -30.5 152t-124.5 37t-125 -37t-31 -152v-1251zM215 1141v295q0 41 -12 41
q-13 0 -13 -41v-279h-84v299q0 58 21 82.5t76 24.5t75.5 -24.5t20.5 -82.5v-301q0 -19 -94 -954h90v-86h-180v65q100 949 100 961z" />
    <glyph glyph-name="uni2782" unicode="&#x2782;" horiz-adv-x="407" 
d="M16 209v1251q0 127 39 173t148 46t147.5 -45.5t38.5 -173.5v-1251q0 -128 -38.5 -173.5t-147.5 -45.5t-148 46t-39 173zM47 209q0 -115 31 -152t125 -37t124.5 37t30.5 152v1251q0 115 -30.5 152t-124.5 37t-125 -37t-31 -152v-1251zM205 111q-55 0 -75.5 24t-20.5 82
v313h84v-292q0 -41 12 -41t12 41v516q0 53 -18 53h-41v86h41q6 0 9 3t5 15t2 35v496q0 35 -10 35t-10 -35v-285h-84v301q0 56 20 80.5t74 24.5t74 -24.5t20 -80.5v-551q0 -24 -11 -35t-40 -14q31 -6 42 -22.5t11 -49.5v-569q0 -58 -20.5 -82t-75.5 -24z" />
    <glyph glyph-name="uni2783" unicode="&#x2783;" horiz-adv-x="407" 
d="M16 209v1251q0 127 39 173t148 46t147.5 -45.5t38.5 -173.5v-1251q0 -128 -38.5 -173.5t-147.5 -45.5t-148 46t-39 173zM47 209q0 -115 31 -152t125 -37t124.5 37t30.5 152v1251q0 115 -30.5 152t-124.5 37t-125 -37t-31 -152v-1251zM209 115v274h-109v60l52 1103h135
v-1087h20v-76h-20v-274h-78zM180 465h29v1005z" />
    <glyph glyph-name="uni2784" unicode="&#x2784;" 
d="M16 209v1251q0 127 39 173t148 46t147.5 -45.5t38.5 -173.5v-1251q0 -128 -38.5 -173.5t-147.5 -45.5t-148 46t-39 173zM47 209q0 -115 31 -152t125 -37t124.5 37t30.5 152v1251q0 115 -30.5 152t-124.5 37t-125 -37t-31 -152v-1251zM299 942v-717q0 -66 -19.5 -90
t-76.5 -24t-77 24t-20 90v275h84v-260q0 -47 13 -47q12 0 12 47v704q0 33 -10 33q-4 0 -6 -1.5t-3.5 -9t-2 -22t-0.5 -43.5h-84v651h190v-79h-106v-531q0 67 10.5 91t40.5 24q31 0 43 -24.5t12 -90.5z" />
    <glyph glyph-name="uni2785" unicode="&#x2785;" 
d="M16 209v1251q0 127 39 173t148 46t147.5 -45.5t38.5 -173.5v-1251q0 -128 -38.5 -173.5t-147.5 -45.5t-148 46t-39 173zM47 209q0 -115 31 -152t125 -37t124.5 37t30.5 152v1251q0 115 -30.5 152t-124.5 37t-125 -37t-31 -152v-1251zM203 111q-57 0 -77 23t-20 89v1227
q0 66 20 89.5t77 23.5t76.5 -23.5t19.5 -89.5v-356h-84v336q0 34 -2 43.5t-10 9.5t-10.5 -10t-2.5 -43v-580q0 66 11.5 90.5t40.5 24.5q32 0 44.5 -24.5t12.5 -90.5v-627q0 -66 -19.5 -89t-76.5 -23zM203 883q-8 0 -10.5 -10.5t-2.5 -43.5v-585q0 -33 2.5 -43.5t10.5 -10.5
q7 0 9.5 10t2.5 44v585q0 36 -1.5 45t-10.5 9z" />
    <glyph glyph-name="uni2786" unicode="&#x2786;" 
d="M16 209v1251q0 127 39 173t148 46t147.5 -45.5t38.5 -173.5v-1251q0 -128 -38.5 -173.5t-147.5 -45.5t-148 46t-39 173zM47 209q0 -115 31 -152t125 -37t124.5 37t30.5 152v1251q0 115 -30.5 152t-124.5 37t-125 -37t-31 -152v-1251zM217 115h-78q0 583 15 861t67 497
h-115v79h193v-69q-53 -245 -67.5 -510.5t-14.5 -857.5z" />
    <glyph glyph-name="uni2787" unicode="&#x2787;" horiz-adv-x="407" 
d="M16 209v1251q0 127 39 173t148 46t147.5 -45.5t38.5 -173.5v-1251q0 -128 -38.5 -173.5t-147.5 -45.5t-148 46t-39 173zM47 209q0 -115 31 -152t125 -37t124.5 37t30.5 152v1251q0 115 -30.5 152t-124.5 37t-125 -37t-31 -152v-1251zM205 1563q57 0 78.5 -23.5
t21.5 -89.5v-494q0 -47 -13 -70.5t-42 -31.5q30 -7 42.5 -30.5t12.5 -69.5v-531q0 -65 -21 -88.5t-79 -23.5t-79.5 23.5t-21.5 88.5v529q0 48 12.5 71.5t43.5 30.5q-56 14 -56 102v494q0 65 21.5 89t79.5 24zM205 901q10 0 13 9.5t3 43.5v476q0 34 -3 43.5t-13 9.5
q-11 0 -14 -10t-3 -43v-476q0 -33 3 -43t14 -10zM205 188q10 0 13 10.5t3 45.5v512q0 34 -3 43.5t-13 9.5q-11 0 -14 -10t-3 -43v-512q0 -34 3.5 -45t13.5 -11z" />
    <glyph glyph-name="uni2788" unicode="&#x2788;" 
d="M16 209v1251q0 127 39 173t148 46t147.5 -45.5t38.5 -173.5v-1251q0 -128 -38.5 -173.5t-147.5 -45.5t-148 46t-39 173zM47 209q0 -115 31 -152t125 -37t124.5 37t30.5 152v1251q0 115 -30.5 152t-124.5 37t-125 -37t-31 -152v-1251zM203 1563q57 0 76.5 -23.5
t19.5 -89.5v-1227q0 -66 -19.5 -89t-76.5 -23t-77 23t-20 89v357h84v-336q0 -33 2.5 -43.5t10.5 -10.5q7 0 9.5 10t2.5 44v579q0 -66 -11 -90t-40 -24q-33 0 -45.5 24.5t-12.5 89.5v627q0 66 20 89.5t77 23.5zM203 791q8 0 10 9.5t2 43.5v586q0 34 -2 43.5t-10 9.5
t-10.5 -10t-2.5 -43v-586q0 -35 2 -44t11 -9z" />
    <glyph glyph-name="uni2789" unicode="&#x2789;" 
d="M16 209v1251q0 127 39 173t148 46t147.5 -45.5t38.5 -173.5v-1251q0 -128 -38.5 -173.5t-147.5 -45.5t-148 46t-39 173zM47 209q0 -115 31 -152t125 -37t124.5 37t30.5 152v1251q0 115 -30.5 152t-124.5 37t-125 -37t-31 -152v-1251zM168 215v1239q0 58 17 82.5t63 24.5
q45 0 62.5 -25t17.5 -82v-1239q0 -57 -17.5 -81.5t-62.5 -24.5q-46 0 -63 24.5t-17 81.5zM147 115h-71v1335h-13v88l35 14h49v-1437zM238 236q0 -41 10 -41t10 41v1198q0 41 -10 41t-10 -41v-1198z" />
    <glyph glyph-name="uni278A" unicode="&#x278a;" 
d="M16 209v1251q0 127 39 173t148 46t147.5 -45.5t38.5 -173.5v-1251q0 -128 -38.5 -173.5t-147.5 -45.5t-148 46t-39 173zM264 115v1437h-57l-96 -55v-88l67 41v-1335h86z" />
    <glyph glyph-name="uni278B" unicode="&#x278b;" 
d="M16 209v1251q0 127 39 173t148 46t147.5 -45.5t38.5 -173.5v-1251q0 -128 -38.5 -173.5t-147.5 -45.5t-148 46t-39 173zM215 1141q0 -12 -100 -961v-65h180v86h-90q94 935 94 954v301q0 58 -20.5 82.5t-75.5 24.5t-76 -24.5t-21 -82.5v-299h84v279q0 41 13 41
q12 0 12 -41v-295z" />
    <glyph glyph-name="uni278C" unicode="&#x278c;" horiz-adv-x="407" 
d="M16 209v1251q0 127 39 173t148 46t147.5 -45.5t38.5 -173.5v-1251q0 -128 -38.5 -173.5t-147.5 -45.5t-148 46t-39 173zM205 111q55 0 75.5 24t20.5 82v569q0 33 -11 49.5t-42 22.5q29 3 40 14t11 35v551q0 56 -20 80.5t-74 24.5t-74 -24.5t-20 -80.5v-301h84v285
q0 35 10 35t10 -35v-496q0 -23 -2 -35t-5 -15t-9 -3h-41v-86h41q18 0 18 -53v-516q0 -41 -12 -41t-12 41v292h-84v-313q0 -58 20.5 -82t75.5 -24z" />
    <glyph glyph-name="uni278D" unicode="&#x278d;" horiz-adv-x="407" 
d="M16 209v1251q0 127 39 173t148 46t147.5 -45.5t38.5 -173.5v-1251q0 -128 -38.5 -173.5t-147.5 -45.5t-148 46t-39 173zM209 115h78v274h20v76h-20v1087h-135l-52 -1103v-60h109v-274zM180 465l29 1005v-1005h-29z" />
    <glyph glyph-name="uni278E" unicode="&#x278e;" 
d="M16 209v1251q0 127 39 173t148 46t147.5 -45.5t38.5 -173.5v-1251q0 -128 -38.5 -173.5t-147.5 -45.5t-148 46t-39 173zM299 942q0 66 -12 90.5t-43 24.5q-30 0 -40.5 -24t-10.5 -91v531h106v79h-190v-651h84q0 29 0.5 43.5t2 22t3.5 9t6 1.5q10 0 10 -33v-704
q0 -47 -12 -47q-13 0 -13 47v260h-84v-275q0 -66 20 -90t77 -24t76.5 24t19.5 90v717z" />
    <glyph glyph-name="uni278F" unicode="&#x278f;" 
d="M16 209v1251q0 127 39 173t148 46t147.5 -45.5t38.5 -173.5v-1251q0 -128 -38.5 -173.5t-147.5 -45.5t-148 46t-39 173zM203 111q57 0 76.5 23t19.5 89v627q0 66 -12.5 90.5t-44.5 24.5q-29 0 -40.5 -24.5t-11.5 -90.5v580q0 33 2.5 43t10.5 10t10 -9.5t2 -43.5v-336h84
v356q0 66 -19.5 89.5t-76.5 23.5t-77 -23.5t-20 -89.5v-1227q0 -66 20 -89t77 -23zM203 883q9 0 10.5 -9t1.5 -45v-585q0 -34 -2.5 -44t-9.5 -10q-8 0 -10.5 10.5t-2.5 43.5v585q0 33 2.5 43.5t10.5 10.5z" />
    <glyph glyph-name="uni2790" unicode="&#x2790;" 
d="M16 209v1251q0 127 39 173t148 46t147.5 -45.5t38.5 -173.5v-1251q0 -128 -38.5 -173.5t-147.5 -45.5t-148 46t-39 173zM217 115q0 592 14.5 857.5t67.5 510.5v69h-193v-79h115q-52 -219 -67 -497t-15 -861h78z" />
    <glyph glyph-name="uni2791" unicode="&#x2791;" horiz-adv-x="407" 
d="M16 209v1251q0 127 39 173t148 46t147.5 -45.5t38.5 -173.5v-1251q0 -128 -38.5 -173.5t-147.5 -45.5t-148 46t-39 173zM205 1563q-58 0 -79.5 -24t-21.5 -89v-494q0 -88 56 -102q-31 -7 -43.5 -30.5t-12.5 -71.5v-529q0 -65 21.5 -88.5t79.5 -23.5t79 23.5t21 88.5v531
q0 46 -12.5 69.5t-42.5 30.5q29 8 42 31.5t13 70.5v494q0 66 -21.5 89.5t-78.5 23.5zM205 901q-11 0 -14 10t-3 43v476q0 33 3 43t14 10q10 0 13 -9.5t3 -43.5v-476q0 -34 -3 -43.5t-13 -9.5zM205 188q-10 0 -13.5 11t-3.5 45v512q0 33 3 43t14 10q10 0 13 -9.5t3 -43.5
v-512q0 -35 -3 -45.5t-13 -10.5z" />
    <glyph glyph-name="uni2792" unicode="&#x2792;" 
d="M16 209v1251q0 127 39 173t148 46t147.5 -45.5t38.5 -173.5v-1251q0 -128 -38.5 -173.5t-147.5 -45.5t-148 46t-39 173zM203 1563q-57 0 -77 -23.5t-20 -89.5v-627q0 -65 12.5 -89.5t45.5 -24.5q29 0 40 24t11 90v-579q0 -34 -2.5 -44t-9.5 -10q-8 0 -10.5 10.5
t-2.5 43.5v336h-84v-357q0 -66 20 -89t77 -23t76.5 23t19.5 89v1227q0 66 -19.5 89.5t-76.5 23.5zM203 791q-9 0 -11 9t-2 44v586q0 33 2.5 43t10.5 10t10 -9.5t2 -43.5v-586q0 -34 -2 -43.5t-10 -9.5z" />
    <glyph glyph-name="uni2793" unicode="&#x2793;" 
d="M16 209v1251q0 127 39 173t148 46t147.5 -45.5t38.5 -173.5v-1251q0 -128 -38.5 -173.5t-147.5 -45.5t-148 46t-39 173zM168 215q0 -57 17 -81.5t63 -24.5q45 0 62.5 24.5t17.5 81.5v1239q0 57 -17.5 82t-62.5 25q-46 0 -63 -24.5t-17 -82.5v-1239zM147 115v1437h-49
l-35 -14v-88h13v-1335h71zM238 236v1198q0 41 10 41t10 -41v-1198q0 -41 -10 -41t-10 41z" />
    <glyph glyph-name="uni2913" unicode="&#x2913;" horiz-adv-x="1579" 
d="M1237 733l-446 -524l-449 524h172l209 -268v944h133v-946l209 270h172zM340 0v127h899v-127h-899z" />
    <glyph glyph-name="uni29B6" unicode="&#x29b6;" horiz-adv-x="1615" 
d="M807 -23q-205 0 -370.5 93.5t-259 259.5t-93.5 372q0 205 93.5 370.5t259 259t370.5 93.5q206 0 372 -93.5t259.5 -259t93.5 -370.5q0 -206 -93.5 -372t-259.5 -259.5t-372 -93.5zM1389 702q0 251 -143.5 411.5t-371.5 182.5v-1190q229 22 372 183t143 413zM227 702
q0 -252 142 -413t370 -183v1190q-228 -22 -370 -182.5t-142 -411.5z" />
    <glyph glyph-name="uni29B8" unicode="&#x29b8;" horiz-adv-x="1615" 
d="M807 -23q-205 0 -370.5 93.5t-259 259.5t-93.5 372q0 205 93.5 370.5t259 259t370.5 93.5q206 0 372 -93.5t259.5 -259t93.5 -370.5q0 -206 -93.5 -372t-259.5 -259.5t-372 -93.5zM807 1300q-221 0 -373 -124l844 -846q111 155 111 372q0 134 -44 247t-121.5 189.5
t-184.5 119t-232 42.5zM227 702q0 -271 163 -435.5t417 -164.5q222 0 377 127l-846 844q-111 -152 -111 -371z" />
    <glyph glyph-name="uni29BF" unicode="&#x29bf;" horiz-adv-x="1615" 
d="M807 -23q-205 0 -370.5 93.5t-259 259.5t-93.5 372q0 205 93.5 370.5t259 259t370.5 93.5q206 0 372 -93.5t259.5 -259t93.5 -370.5q0 -206 -93.5 -372t-259.5 -259.5t-372 -93.5zM807 1300q-254 0 -417 -164t-163 -434q0 -271 163 -435.5t417 -164.5t418 164.5
t164 435.5q0 134 -44 247t-121.5 189.5t-184.5 119t-232 42.5zM807 424q-120 0 -199.5 79t-79.5 199t79.5 199.5t199.5 79.5t199 -79.5t79 -199.5t-79 -199t-199 -79z" />
    <glyph glyph-name="uni2B12" unicode="&#x2b12;" horiz-adv-x="2084" 
d="M338 1409h1409v-1409h-1409v1409zM473 705v-578h1139v578h-1139z" />
    <glyph glyph-name="uni2B13" unicode="&#x2b13;" horiz-adv-x="2084" 
d="M338 0v1409h1409v-1409h-1409zM473 705h1139v577h-1139v-577z" />
    <glyph glyph-name="uni2B14" unicode="&#x2b14;" horiz-adv-x="2084" 
d="M338 0v1409h1409v-1409h-1409zM504 1282l1108 -1110v1110h-1108z" />
    <glyph glyph-name="uni2B15" unicode="&#x2b15;" horiz-adv-x="2084" 
d="M1747 1409v-1409h-1409v1409h1409zM473 1237v-1110h1108z" />
    <glyph glyph-name="uni2B16" unicode="&#x2b16;" horiz-adv-x="2084" 
d="M154 705l888 888l889 -888l-889 -889zM1761 705l-702 706v-1415z" />
    <glyph glyph-name="uni2B17" unicode="&#x2b17;" horiz-adv-x="2084" 
d="M1931 705l-889 -889l-888 889l888 888zM324 705l702 -709v1415z" />
    <glyph glyph-name="uni2B18" unicode="&#x2b18;" horiz-adv-x="2084" 
d="M1042 1593l889 -888l-889 -889l-888 889zM1042 -14l707 702h-1415z" />
    <glyph glyph-name="uni2B19" unicode="&#x2b19;" horiz-adv-x="2084" 
d="M1042 -184l-888 889l888 888l889 -888zM1042 1423l-708 -702h1415z" />
    <glyph glyph-name="J.ss01" unicode="&#xe000;" 
d="M233 1669h156v-1460q0 -128 -38.5 -173.5t-147.5 -45.5t-148 46t-39 173v418h156v-379q0 -61 7.5 -82t23.5 -21t23 21t7 82v1421z" />
    <glyph glyph-name="R.ss02" unicode="&#xe001;" horiz-adv-x="403" 
d="M389 0h-156v670q0 63 -6 83.5t-24 20.5h-31v-774h-156v1669h187q108 0 147 -46t39 -173v-481q0 -98 -47 -129q47 -31 47 -131v-709zM203 1513h-31v-608h31q18 0 24 20t6 83v401q0 64 -6 84t-24 20z" />
    <glyph glyph-name="R.ss03" unicode="&#xe002;" horiz-adv-x="403" 
d="M389 1450v-481q0 -98 -47 -129q47 -31 47 -131v-459q0 -138 14 -250h-153q-17 136 -17 244v426q0 63 -6 83.5t-24 20.5h-31v-774h-156v1669h187q108 0 147 -46t39 -173zM203 1513h-31v-608h31q18 0 24 20t6 83v401q0 64 -6 84t-24 20z" />
    <glyph glyph-name="caronSlovak" unicode="&#xe003;" horiz-adv-x="512" 
d="M242 1505h-86v164h159z" />
    <glyph glyph-name="commaaccent" unicode="&#xe004;" horiz-adv-x="512" 
d="M272 -205h-86l56 60h-52v108h136v-108z" />
    <glyph glyph-name="commaaccent.alt" unicode="&#xe005;" horiz-adv-x="512" 
d="M240 1667h84l-56 -51h51v-96h-133v96z" />
    <glyph glyph-name="idotaccent" unicode="&#xe009;" horiz-adv-x="188" 
d="M94 1522q-36 0 -58 20.5t-22 56.5t22 57t58 21t58 -21t22 -57t-22 -56.5t-58 -20.5zM16 0v1475h156v-1475h-156z" />
    <glyph glyph-name="two.ss05" unicode="&#xe00a;" horiz-adv-x="403" 
d="M16 602q0 82 20.5 125t80.5 86l86 64q16 13 23 28.5t7 48.5v467q0 61 -7 82t-23 21q-18 0 -24.5 -20t-6.5 -83v-409h-156v448q0 127 39.5 173t147.5 46q107 0 145.5 -45.5t38.5 -173.5v-512q0 -89 -22 -132.5t-80 -84.5l-82 -59q-18 -12 -24.5 -29.5t-6.5 -52.5v-434h215
v-156h-371v602z" />
    <glyph glyph-name="y.ss05" unicode="&#xe00b;" horiz-adv-x="387" 
d="M139 -102l6 102h-84l-45 1475h154l4 -1088l43 1088h154l-97 -1577h-135z" />
    <glyph glyph-name="zero.slash" unicode="&#xe00c;" 
d="M16 0l17 78q-17 44 -17 131v1251q0 127 39 173t148 46q114 0 153 -53l9 43h24l-16 -78q16 -44 16 -131v-1251q0 -128 -38.5 -173.5t-147.5 -45.5q-115 0 -154 53l-8 -43h-25zM203 1524q-16 0 -23.5 -21t-7.5 -82v-708l61 510v198q0 61 -7 82t-23 21zM172 248
q0 -61 7.5 -82t23.5 -21t23 21t7 82v741l-61 -524v-217z" />
    <glyph glyph-name="CR" horiz-adv-x="512" 
 />
    <glyph glyph-name="Q.stack" 
d="M233 0v61h-30q-109 0 -148 46t-39 174v1179q0 127 39 173t148 46q108 0 147 -46t39 -173v-1179q0 -125 -41 -172h41v-109h-156zM233 1421q0 63 -6 83t-24 20q-16 0 -23.5 -21t-7.5 -82v-1102q0 -61 7.5 -81.5t23.5 -20.5q18 0 24 19.5t6 82.5v1102z" />
    <glyph glyph-name="Agrave.stack" horiz-adv-x="366" 
d="M51 1618v61l264 -24v-37h-264zM207 0l-8 520h-31l-8 -520h-154l45 1608h264l45 -1608h-153zM180 1413l-10 -737h27l-11 737h-6z" />
    <glyph glyph-name="Aacute.stack" horiz-adv-x="366" 
d="M315 1618h-264v37l264 24v-61zM207 0l-8 520h-31l-8 -520h-154l45 1608h264l45 -1608h-153zM180 1413l-10 -737h27l-11 737h-6z" />
    <glyph glyph-name="Acircumflex.stack" horiz-adv-x="366" 
d="M219 1618l-35 37l-34 -37h-99l39 51h186l39 -51h-96zM207 0l-8 520h-31l-8 -520h-154l45 1608h264l45 -1608h-153zM180 1413l-10 -737h27l-11 737h-6z" />
    <glyph glyph-name="Atilde.stack" horiz-adv-x="366" 
d="M315 1669q0 -51 -65 -51q-27 0 -60.5 5t-50.5 5q-16 0 -16 -10h-72q0 51 66 51q27 0 60 -5t50 -5t17 10h71zM360 0h-153l-8 520h-31l-8 -520h-154l45 1608h264zM180 1413l-10 -737h27l-11 737h-6z" />
    <glyph glyph-name="Adieresis.stack" horiz-adv-x="366" 
d="M51 1622v41h117v-41h-117zM315 1622h-116v41h116v-41zM207 0l-8 520h-31l-8 -520h-154l45 1608h264l45 -1608h-153zM180 1413l-10 -737h27l-11 737h-6z" />
    <glyph glyph-name="Amacron.stack" horiz-adv-x="366" 
d="M39 1622v41h291v-41h-291zM207 0l-8 520h-31l-8 -520h-154l45 1608h264l45 -1608h-153zM180 1413l-10 -737h27l-11 737h-6z" />
    <glyph glyph-name="Abreve.stack" horiz-adv-x="366" 
d="M184 1649q44 0 54 20h77q-3 -27 -30 -39t-101 -12q-75 0 -101.5 12t-31.5 39h80q5 -20 53 -20zM207 0l-8 520h-31l-8 -520h-154l45 1608h264l45 -1608h-153zM180 1413l-10 -737h27l-11 737h-6z" />
    <glyph glyph-name="Aring.stack" horiz-adv-x="366" 
d="M207 0l-8 520h-31l-8 -520h-154l45 1608h74v8q0 25 16 40t43 15q28 0 44 -15t16 -40v-8h71l45 -1608h-153zM184 1649q-34 0 -34 -33v-8h67l2 8q0 33 -35 33zM180 1413l-10 -737h27l-11 737h-6z" />
    <glyph glyph-name="Aringacute.stack" horiz-adv-x="366" 
d="M51 1618v37l264 24v-61h-264zM207 0l-8 520h-31l-8 -520h-154l45 1546h74v8q0 25 16 40.5t43 15.5t43.5 -15.5t16.5 -40.5v-8h71l45 -1546h-153zM184 1587q-34 0 -34 -33v-8h67l2 8q0 33 -35 33zM180 1352l-10 -676h27l-11 676h-6z" />
    <glyph glyph-name="Aogonek.stack" horiz-adv-x="366" 
d="M207 61l-8 504h-31l-8 -504h-154l45 1608h264l45 -1608h-49q-28 -16 -28 -30q0 -13 18 -13q16 0 16 13v2h58v-4q0 -35 -86 -35q-96 0 -96 29q0 10 11.5 16.5t32.5 12t29 9.5h-59zM180 1475l-10 -754h27l-11 754h-6z" />
    <glyph glyph-name="AEacute.stack" horiz-adv-x="532" 
d="M428 1618h-291v37l291 24v-61zM6 0l66 1608h444v-156h-156v-526h156v-156h-156v-614h156v-156h-309v504h-33l-14 -504h-154zM201 1413l-23 -754h29v754h-6z" />
    <glyph glyph-name="Cacute.stack" 
d="M350 1618h-291v37l291 24v-61zM233 717h156v-516q0 -123 -39 -167t-147 -44q-109 0 -148 44t-39 167v1198q0 122 39 165.5t148 43.5q107 0 146.5 -44t39.5 -165v-484h-156v439q0 61 -6 79.5t-24 18.5q-16 0 -23.5 -19.5t-7.5 -78.5v-1110q0 -58 7.5 -78.5t23.5 -20.5
q18 0 24 19.5t6 79.5v473z" />
    <glyph glyph-name="Ccircumflex.stack" 
d="M240 1618l-35 37l-35 -37h-117l39 51h225l39 -51h-116zM233 717h156v-516q0 -123 -39 -167t-147 -44q-109 0 -148 44t-39 167v1198q0 122 39 165.5t148 43.5q107 0 146.5 -44t39.5 -165v-484h-156v439q0 61 -6 79.5t-24 18.5q-16 0 -23.5 -19.5t-7.5 -78.5v-1110
q0 -58 7.5 -78.5t23.5 -20.5q18 0 24 19.5t6 79.5v473z" />
    <glyph glyph-name="Ccaron.stack" 
d="M240 1669h116l-39 -51h-225l-39 51h117l35 -37zM233 717h156v-516q0 -123 -39 -167t-147 -44q-109 0 -148 44t-39 167v1198q0 122 39 165.5t148 43.5q107 0 146.5 -44t39.5 -165v-484h-156v439q0 61 -6 79.5t-24 18.5q-16 0 -23.5 -19.5t-7.5 -78.5v-1110
q0 -58 7.5 -78.5t23.5 -20.5q18 0 24 19.5t6 79.5v473z" />
    <glyph glyph-name="Cdotaccent.stack" 
d="M233 717h156v-516q0 -123 -39 -167t-147 -44q-109 0 -148 44t-39 167v1198q0 104 27 149.5t98 55.5v4q0 30 17.5 46.5t46.5 16.5q28 0 45.5 -16.5t17.5 -46.5v-4q68 -12 94.5 -58t26.5 -147v-484h-156v439q0 61 -6 79.5t-24 18.5q-16 0 -23.5 -19.5t-7.5 -78.5v-1110
q0 -58 7.5 -78.5t23.5 -20.5q18 0 24 19.5t6 79.5v473z" />
    <glyph glyph-name="Ccedilla.stack" 
d="M233 784h156v-522q0 -98 -23.5 -145t-84.5 -60l-9 -57h-178l29 57q-60 13 -83.5 59.5t-23.5 145.5v1206q0 123 39 167t148 44q108 0 147 -44t39 -167v-485h-156v440q0 62 -6 81.5t-24 19.5q-16 0 -23.5 -20.5t-7.5 -80.5v-1116q0 -59 7.5 -78.5t23.5 -19.5q18 0 24 18.5
t6 79.5v477z" />
    <glyph glyph-name="Dcaron.stack" 
d="M240 1669h116l-39 -51h-225l-39 51h117l35 -37zM16 0v1608h187q108 0 147 -44t39 -167v-1186q0 -123 -39 -167t-147 -44h-187zM203 1452h-31v-1296h31q18 0 24 19t6 79v1098q0 62 -6 81t-24 19z" />
    <glyph glyph-name="Egrave.stack" horiz-adv-x="342" 
d="M16 1618v61l310 -24v-37h-310zM326 156v-156h-310v1608h310v-156h-154v-526h154v-158h-154v-612h154z" />
    <glyph glyph-name="Eacute.stack" horiz-adv-x="342" 
d="M326 1618h-310v37l310 24v-61zM326 156v-156h-310v1608h310v-156h-154v-526h154v-158h-154v-612h154z" />
    <glyph glyph-name="Ecircumflex.stack" horiz-adv-x="342" 
d="M207 1618l-35 37l-35 -37h-117l39 51h226l39 -51h-117zM326 156v-156h-310v1608h310v-156h-154v-526h154v-158h-154v-612h154z" />
    <glyph glyph-name="Ecaron.stack" horiz-adv-x="342" 
d="M207 1669h117l-39 -51h-226l-39 51h117l35 -37zM326 156v-156h-310v1608h310v-156h-154v-526h154v-158h-154v-612h154z" />
    <glyph glyph-name="Edieresis.stack" horiz-adv-x="342" 
d="M16 1622v41h140v-41h-140zM326 1622h-138v41h138v-41zM326 156v-156h-310v1608h310v-156h-154v-526h154v-158h-154v-612h154z" />
    <glyph glyph-name="Emacron.stack" horiz-adv-x="342" 
d="M16 1622v41h310v-41h-310zM326 156v-156h-310v1608h310v-156h-154v-526h154v-158h-154v-612h154z" />
    <glyph glyph-name="Ebreve.stack" horiz-adv-x="342" 
d="M172 1649q54 0 64 20h94q-5 -27 -37.5 -39t-120.5 -12t-120.5 12t-37.5 39h95q10 -20 63 -20zM326 156v-156h-310v1608h310v-156h-154v-526h154v-158h-154v-612h154z" />
    <glyph glyph-name="Edotaccent.stack" horiz-adv-x="342" 
d="M172 1671q29 0 46.5 -16.5t17.5 -46.5h90v-156h-154v-526h154v-158h-154v-612h154v-156h-310v1608h93q0 30 17.5 46.5t45.5 16.5z" />
    <glyph glyph-name="Eogonek.stack" horiz-adv-x="342" 
d="M262 61q-29 -16 -29 -30q0 -13 19 -13q16 0 16 13v2h58v-4q0 -35 -86 -35q-97 0 -97 29q0 10 11.5 16.5t33 12t29.5 9.5h-201v1608h310v-156h-154v-528h154v-156h-154v-612h154v-156h-64z" />
    <glyph glyph-name="Gcircumflex.stack" 
d="M240 1618l-35 37l-35 -37h-117l39 51h225l39 -51h-116zM174 -10q-90 0 -124 44t-34 167v1198q0 122 39 165.5t148 43.5q107 0 146.5 -44t39.5 -165v-457h-156v412q0 61 -6 79.5t-24 18.5q-16 0 -23.5 -19.5t-7.5 -78.5v-1110q0 -58 7.5 -78.5t23.5 -20.5q18 0 24 19.5
t6 79.5v397h-38v156h194v-797h-47l-27 125q-6 -74 -36 -104.5t-105 -30.5z" />
    <glyph glyph-name="Gbreve.stack" 
d="M205 1649q53 0 63 20h94q-5 -27 -37 -39t-120 -12t-120.5 12t-37.5 39h94q10 -20 64 -20zM174 -10q-90 0 -124 44t-34 167v1198q0 122 39 165.5t148 43.5q107 0 146.5 -44t39.5 -165v-457h-156v412q0 61 -6 79.5t-24 18.5q-16 0 -23.5 -19.5t-7.5 -78.5v-1110
q0 -58 7.5 -78.5t23.5 -20.5q18 0 24 19.5t6 79.5v397h-38v156h194v-797h-47l-27 125q-6 -74 -36 -104.5t-105 -30.5z" />
    <glyph glyph-name="Gdotaccent.stack" 
d="M174 -10q-90 0 -124 44t-34 167v1198q0 104 27 149.5t98 55.5v4q0 30 17.5 46.5t46.5 16.5q28 0 45.5 -16.5t17.5 -46.5v-4q68 -12 94.5 -58t26.5 -147v-457h-156v412q0 61 -6 79.5t-24 18.5q-16 0 -23.5 -19.5t-7.5 -78.5v-1110q0 -58 7.5 -78.5t23.5 -20.5
q18 0 24 19.5t6 79.5v397h-38v156h194v-797h-47l-27 125q-6 -74 -36 -104.5t-105 -30.5z" />
    <glyph glyph-name="Gcommaaccent.stack" 
d="M174 51q-90 0 -124 44t-34 167v1206q0 123 39 167t148 44q108 0 147 -44t39 -167v-460h-156v415q0 62 -6 81.5t-24 19.5q-16 0 -23.5 -20.5t-7.5 -80.5v-1116q0 -59 7.5 -78.5t23.5 -19.5q18 0 24 18.5t6 79.5v400h-38v155h194v-801h-47l-27 127q-6 -74 -36 -105.5
t-105 -31.5zM264 0h-168l10 41h177z" />
    <glyph glyph-name="Hcircumflex.stack" 
d="M240 1618l-35 37l-35 -37h-117l39 51h225l39 -51h-116zM233 0v772h-61v-772h-156v1608h156v-680h61v680h156v-1608h-156z" />
    <glyph glyph-name="Igrave.stack" horiz-adv-x="188" 
d="M16 1618v61l156 -24v-37h-156zM16 0v1608h156v-1608h-156z" />
    <glyph glyph-name="Iacute.stack" horiz-adv-x="188" 
d="M172 1618h-156v37l156 24v-61zM16 0v1608h156v-1608h-156z" />
    <glyph glyph-name="Icircumflex.stack" horiz-adv-x="188" 
d="M113 1618l-19 37l-18 -37h-60l21 51h115l20 -51h-59zM16 0v1608h156v-1608h-156z" />
    <glyph glyph-name="Itilde.stack" horiz-adv-x="188" 
d="M133 1618q-15 0 -34.5 5t-30.5 5q-9 0 -9 -10h-43q0 51 39 51q15 0 35 -5t31 -5q8 0 8 10h43q0 -51 -39 -51zM16 0v1608h156v-1608h-156z" />
    <glyph glyph-name="Idieresis.stack" horiz-adv-x="188" 
d="M16 1622v41h66v-41h-66zM172 1622h-66v41h66v-41zM16 0v1608h156v-1608h-156z" />
    <glyph glyph-name="Imacron.stack" horiz-adv-x="188" 
d="M184 1622h-180v41h180v-41zM16 0v1608h156v-1608h-156z" />
    <glyph glyph-name="Ibreve.stack" horiz-adv-x="188" 
d="M94 1649q26 0 31 20h47q-3 -27 -19 -39t-59 -12t-59.5 12t-18.5 39h47q5 -20 31 -20zM16 0v1608h156v-1608h-156z" />
    <glyph glyph-name="Idotaccent.stack" horiz-adv-x="188" 
d="M16 0v1608h15q0 30 17.5 46.5t45.5 16.5q29 0 46.5 -16.5t17.5 -46.5h14v-1608h-156z" />
    <glyph glyph-name="Iogonek.stack" horiz-adv-x="188" 
d="M16 61v1608h156v-1608h-53q-29 -16 -29 -30q0 -13 19 -13q16 0 16 13v2h57v-4q0 -35 -86 -35q-96 0 -96 29q0 10 11.5 16.5t33 12t29.5 9.5h-58z" />
    <glyph glyph-name="Jcircumflex.stack" horiz-adv-x="270" 
d="M195 1618l-19 37l-18 -37h-60l21 51h114l21 -51h-59zM6 0v170h33q59 0 59 70v1368h156v-1424q0 -97 -43.5 -140.5t-132.5 -43.5h-72z" />
    <glyph glyph-name="Jcircumflex.ss01" 
d="M342 1716l-31 58l-30 -58h-148l78 127h201l77 -127h-147zM233 1669h156v-1460q0 -128 -38.5 -173.5t-147.5 -45.5t-148 46t-39 173v418h156v-379q0 -61 7.5 -82t23.5 -21t23 21t7 82v1421z" />
    <glyph glyph-name="Jcircumflex.ss01.stack" 
d="M330 1618l-19 37l-18 -37h-60l21 51h115l20 -51h-59zM233 1608h156v-1399q0 -128 -38.5 -173.5t-147.5 -45.5t-148 46t-39 173v418h156v-379q0 -61 7.5 -82t23.5 -21t23 21t7 82v1360z" />
    <glyph glyph-name="Kcommaaccent.stack" horiz-adv-x="403" 
d="M16 61v1608h156v-754l72 754h153l-82 -797l82 -811h-153l-72 768v-768h-156zM283 0h-168l10 41h176z" />
    <glyph glyph-name="Lacute.stack" horiz-adv-x="335" 
d="M172 1618h-156v37l156 24v-61zM16 0v1608h156v-1452h154v-156h-310z" />
    <glyph glyph-name="Lcommaaccent.stack" horiz-adv-x="335" 
d="M16 61v1608h156v-1452h154v-156h-310zM252 0h-168l10 41h176z" />
    <glyph glyph-name="Nacute.stack" horiz-adv-x="403" 
d="M356 1618h-290v37l290 24v-61zM266 0l-110 932v-932h-140v1608h119l113 -1000v1000h139v-1608h-121z" />
    <glyph glyph-name="Ncaron.stack" horiz-adv-x="403" 
d="M246 1669h116l-38 -51h-226l-39 51h117l35 -37zM266 0l-110 932v-932h-140v1608h119l113 -1000v1000h139v-1608h-121z" />
    <glyph glyph-name="Ntilde.stack" horiz-adv-x="403" 
d="M362 1669q0 -51 -75 -51q-30 0 -68.5 5t-58.5 5q-19 0 -19 -10h-82q0 51 76 51q30 0 68.5 -5t58.5 -5q19 0 19 10h81zM266 0l-110 932v-932h-140v1608h119l113 -1000v1000h139v-1608h-121z" />
    <glyph glyph-name="Ncommaaccent.stack" horiz-adv-x="403" 
d="M266 61l-110 932v-932h-140v1608h119l113 -999v999h139v-1608h-121zM291 0h-168l10 41h176z" />
    <glyph glyph-name="Ograve.stack" 
d="M57 1618v61l291 -24v-37h-291zM389 201q0 -123 -38.5 -167t-147.5 -44t-148 44t-39 167v1198q0 122 39 165.5t148 43.5t147.5 -43.5t38.5 -165.5v-1198zM233 1354q0 60 -7 79t-23 19t-23.5 -19.5t-7.5 -78.5v-1110q0 -58 7.5 -78.5t23.5 -20.5t23 20.5t7 78.5v1110z" />
    <glyph glyph-name="Oacute.stack" 
d="M348 1618h-291v37l291 24v-61zM389 201q0 -123 -38.5 -167t-147.5 -44t-148 44t-39 167v1198q0 122 39 165.5t148 43.5t147.5 -43.5t38.5 -165.5v-1198zM233 1354q0 60 -7 79t-23 19t-23.5 -19.5t-7.5 -78.5v-1110q0 -58 7.5 -78.5t23.5 -20.5t23 20.5t7 78.5v1110z" />
    <glyph glyph-name="Ocircumflex.stack" 
d="M238 1618l-35 37l-35 -37h-117l39 51h225l39 -51h-116zM389 201q0 -123 -38.5 -167t-147.5 -44t-148 44t-39 167v1198q0 122 39 165.5t148 43.5t147.5 -43.5t38.5 -165.5v-1198zM233 1354q0 60 -7 79t-23 19t-23.5 -19.5t-7.5 -78.5v-1110q0 -58 7.5 -78.5t23.5 -20.5
t23 20.5t7 78.5v1110z" />
    <glyph glyph-name="Otilde.stack" 
d="M354 1669q0 -51 -75 -51q-30 0 -68.5 5t-58.5 5q-19 0 -19 -10h-82q0 51 76 51q30 0 68.5 -5t58.5 -5q18 0 18 10h82zM389 201q0 -123 -38.5 -167t-147.5 -44t-148 44t-39 167v1198q0 122 39 165.5t148 43.5t147.5 -43.5t38.5 -165.5v-1198zM233 1354q0 60 -7 79t-23 19
t-23.5 -19.5t-7.5 -78.5v-1110q0 -58 7.5 -78.5t23.5 -20.5t23 20.5t7 78.5v1110z" />
    <glyph glyph-name="Odieresis.stack" 
d="M57 1622v41h129v-41h-129zM348 1622h-129v41h129v-41zM389 201q0 -123 -38.5 -167t-147.5 -44t-148 44t-39 167v1198q0 122 39 165.5t148 43.5t147.5 -43.5t38.5 -165.5v-1198zM233 1354q0 60 -7 79t-23 19t-23.5 -19.5t-7.5 -78.5v-1110q0 -58 7.5 -78.5t23.5 -20.5
t23 20.5t7 78.5v1110z" />
    <glyph glyph-name="Omacron.stack" 
d="M57 1622v41h291v-41h-291zM389 201q0 -123 -38.5 -167t-147.5 -44t-148 44t-39 167v1198q0 122 39 165.5t148 43.5t147.5 -43.5t38.5 -165.5v-1198zM233 1354q0 60 -7 79t-23 19t-23.5 -19.5t-7.5 -78.5v-1110q0 -58 7.5 -78.5t23.5 -20.5t23 20.5t7 78.5v1110z" />
    <glyph glyph-name="Obreve.stack" 
d="M266 1669h94q-5 -27 -37 -39t-120 -12t-120.5 12t-37.5 39h94q10 -20 64 -20q53 0 63 20zM16 1399q0 122 39 165.5t148 43.5t147.5 -43.5t38.5 -165.5v-1198q0 -123 -38.5 -167t-147.5 -44t-148 44t-39 167v1198zM233 244v1110q0 60 -7 79t-23 19t-23.5 -19.5t-7.5 -78.5
v-1110q0 -58 7.5 -78.5t23.5 -20.5t23 20.5t7 78.5z" />
    <glyph glyph-name="Ohungarumlaut.stack" 
d="M180 1618h-78l11 51h112zM303 1618h-78l13 51h112zM389 201q0 -123 -38.5 -167t-147.5 -44t-148 44t-39 167v1198q0 122 39 165.5t148 43.5t147.5 -43.5t38.5 -165.5v-1198zM233 1354q0 60 -7 79t-23 19t-23.5 -19.5t-7.5 -78.5v-1110q0 -58 7.5 -78.5t23.5 -20.5
t23 20.5t7 78.5v1110z" />
    <glyph glyph-name="Oslashacute.stack" 
d="M348 1618h-291v37l291 24v-61zM16 0l17 74q-17 44 -17 127v1198q0 122 39 165.5t148 43.5q112 0 153 -52l9 41h24l-14 -75q14 -43 14 -123v-1198q0 -123 -38.5 -167t-147.5 -44q-61 0 -97 11.5t-57 39.5l-8 -41h-25zM233 1354q0 60 -7 79t-23 19t-23.5 -19.5t-7.5 -78.5
v-672l61 489v183zM172 244q0 -58 7.5 -78.5t23.5 -20.5t23 20.5t7 78.5v702l-61 -500v-202z" />
    <glyph glyph-name="Racute.stack" horiz-adv-x="403" 
d="M356 1618h-290v37l290 24v-61zM250 0l-53 721h-25v-721h-156v1608h187q108 0 147 -44t39 -167v-525q0 -95 -51 -127l65 -745h-153zM203 1452h-31v-575h31q18 0 24 18.5t6 79.5v377q0 62 -6 81t-24 19z" />
    <glyph glyph-name="Rcaron.stack" horiz-adv-x="403" 
d="M246 1669h116l-38 -51h-226l-39 51h117l35 -37zM250 0l-53 721h-25v-721h-156v1608h187q108 0 147 -44t39 -167v-525q0 -95 -51 -127l65 -745h-153zM203 1452h-31v-575h31q18 0 24 18.5t6 79.5v377q0 62 -6 81t-24 19z" />
    <glyph glyph-name="Rcommaaccent.stack" horiz-adv-x="403" 
d="M250 61l-53 721h-25v-721h-156v1608h187q108 0 147 -44t39 -167v-524q0 -95 -51 -127l65 -746h-153zM203 1513h-31v-575h31q18 0 24 19t6 79v377q0 62 -6 81t-24 19zM291 0h-168l10 41h176z" />
    <glyph glyph-name="Racute.ss02" horiz-adv-x="403" 
d="M274 1716h-127l25 127h201zM389 0h-156v670q0 63 -6 83.5t-24 20.5h-31v-774h-156v1669h187q108 0 147 -46t39 -173v-481q0 -98 -47 -129q47 -31 47 -131v-709zM203 1513h-31v-608h31q18 0 24 20t6 83v401q0 64 -6 84t-24 20z" />
    <glyph glyph-name="Rcaron.ss02" horiz-adv-x="403" 
d="M242 1843h147l-78 -127h-200l-78 127h147l31 -57zM389 0h-156v670q0 63 -6 83.5t-24 20.5h-31v-774h-156v1669h187q108 0 147 -46t39 -173v-481q0 -98 -47 -129q47 -31 47 -131v-709zM203 1513h-31v-608h31q18 0 24 20t6 83v401q0 64 -6 84t-24 20z" />
    <glyph glyph-name="Rcommaaccent.ss02" horiz-adv-x="403" 
d="M389 0h-156v670q0 63 -6 83.5t-24 20.5h-31v-774h-156v1669h187q108 0 147 -46t39 -173v-481q0 -98 -47 -129q47 -31 47 -131v-709zM203 1513h-31v-608h31q18 0 24 20t6 83v401q0 64 -6 84t-24 20zM227 -205h-86l56 60h-52v108h136v-108z" />
    <glyph glyph-name="Racute.ss02.stack" horiz-adv-x="403" 
d="M356 1618h-290v37l290 24v-61zM389 0h-156v643q0 60 -6 80t-24 20h-31v-743h-156v1608h187q108 0 147 -44t39 -167v-463q0 -50 -10.5 -79t-36.5 -46q47 -31 47 -127v-682zM203 1452h-31v-575h31q18 0 24 18.5t6 79.5v377q0 62 -6 81t-24 19z" />
    <glyph glyph-name="Rcaron.ss02.stack" horiz-adv-x="403" 
d="M246 1669h116l-38 -51h-226l-39 51h117l35 -37zM389 0h-156v643q0 60 -6 80t-24 20h-31v-743h-156v1608h187q108 0 147 -44t39 -167v-463q0 -50 -10.5 -79t-36.5 -46q47 -31 47 -127v-682zM203 1452h-31v-575h31q18 0 24 18.5t6 79.5v377q0 62 -6 81t-24 19z" />
    <glyph glyph-name="Rcommaaccent.ss02.stack" horiz-adv-x="403" 
d="M389 61h-156v644q0 62 -6 81t-24 19h-31v-744h-156v1608h187q108 0 147 -44t39 -167v-463q0 -50 -10.5 -79t-36.5 -46q47 -31 47 -127v-682zM203 1513h-31v-575h31q18 0 24 19t6 79v377q0 62 -6 81t-24 19zM291 0h-168l10 41h176z" />
    <glyph glyph-name="Racute.ss03" horiz-adv-x="403" 
d="M274 1716h-127l25 127h201zM389 1450v-481q0 -98 -47 -129q47 -31 47 -131v-459q0 -138 14 -250h-153q-17 136 -17 244v426q0 63 -6 83.5t-24 20.5h-31v-774h-156v1669h187q108 0 147 -46t39 -173zM203 1513h-31v-608h31q18 0 24 20t6 83v401q0 64 -6 84t-24 20z" />
    <glyph glyph-name="Rcaron.ss03" horiz-adv-x="403" 
d="M242 1843h147l-78 -127h-200l-78 127h147l31 -57zM389 1450v-481q0 -98 -47 -129q47 -31 47 -131v-459q0 -138 14 -250h-153q-17 136 -17 244v426q0 63 -6 83.5t-24 20.5h-31v-774h-156v1669h187q108 0 147 -46t39 -173zM203 1513h-31v-608h31q18 0 24 20t6 83v401
q0 64 -6 84t-24 20z" />
    <glyph glyph-name="Rcommaaccent.ss03" horiz-adv-x="403" 
d="M389 1450v-481q0 -98 -47 -129q47 -31 47 -131v-459q0 -138 14 -250h-153q-17 136 -17 244v426q0 63 -6 83.5t-24 20.5h-31v-774h-156v1669h187q108 0 147 -46t39 -173zM203 1513h-31v-608h31q18 0 24 20t6 83v401q0 64 -6 84t-24 20zM227 -205h-86l56 60h-52v108h136
v-108z" />
    <glyph glyph-name="Racute.ss03.stack" horiz-adv-x="403" 
d="M356 1618h-290v37l290 24v-61zM389 1397v-463q0 -50 -10.5 -79t-36.5 -46q47 -31 47 -127v-440q0 -133 14 -242h-153q-17 133 -17 236v407q0 60 -6 80t-24 20h-31v-743h-156v1608h187q108 0 147 -44t39 -167zM203 1452h-31v-575h31q18 0 24 18.5t6 79.5v377q0 62 -6 81
t-24 19z" />
    <glyph glyph-name="Rcaron.ss03.stack" horiz-adv-x="403" 
d="M246 1669h116l-38 -51h-226l-39 51h117l35 -37zM389 1397v-463q0 -50 -10.5 -79t-36.5 -46q47 -31 47 -127v-440q0 -133 14 -242h-153q-17 133 -17 236v407q0 60 -6 80t-24 20h-31v-743h-156v1608h187q108 0 147 -44t39 -167zM203 1452h-31v-575h31q18 0 24 18.5t6 79.5
v377q0 62 -6 81t-24 19z" />
    <glyph glyph-name="Rcommaaccent.ss03.stack" horiz-adv-x="403" 
d="M389 1458v-463q0 -50 -10.5 -79t-36.5 -46q47 -31 47 -127v-440q0 -133 14 -242h-153q-17 133 -17 236v408q0 62 -6 81t-24 19h-31v-744h-156v1608h187q108 0 147 -44t39 -167zM203 1513h-31v-575h31q18 0 24 19t6 79v377q0 62 -6 81t-24 19zM291 0h-168l10 41h176z" />
    <glyph glyph-name="Sacute.stack" 
d="M350 1618h-291v37l291 24v-61zM172 244q0 -58 7.5 -78.5t23.5 -20.5q18 0 24 19.5t6 79.5v399q0 43 -11.5 60.5t-63.5 50.5q-94 60 -118 99.5t-24 133.5v412q0 122 39 165.5t148 43.5q107 0 146.5 -44t39.5 -165v-414h-156v371q0 61 -6 79.5t-24 18.5q-16 0 -23.5 -19.5
t-7.5 -78.5v-365q0 -34 10 -49.5t60 -50.5q54 -38 78 -57t42.5 -46.5t22.5 -55t4 -77.5v-454q0 -123 -39 -167t-147 -44q-109 0 -148 44t-39 167v448h156v-405z" />
    <glyph glyph-name="Scircumflex.stack" 
d="M240 1618l-35 37l-35 -37h-117l39 51h225l39 -51h-116zM172 244q0 -58 7.5 -78.5t23.5 -20.5q18 0 24 19.5t6 79.5v399q0 43 -11.5 60.5t-63.5 50.5q-94 60 -118 99.5t-24 133.5v412q0 122 39 165.5t148 43.5q107 0 146.5 -44t39.5 -165v-414h-156v371q0 61 -6 79.5
t-24 18.5q-16 0 -23.5 -19.5t-7.5 -78.5v-365q0 -34 10 -49.5t60 -50.5q54 -38 78 -57t42.5 -46.5t22.5 -55t4 -77.5v-454q0 -123 -39 -167t-147 -44q-109 0 -148 44t-39 167v448h156v-405z" />
    <glyph glyph-name="Scaron.stack" 
d="M240 1669h116l-39 -51h-225l-39 51h117l35 -37zM172 244q0 -58 7.5 -78.5t23.5 -20.5q18 0 24 19.5t6 79.5v399q0 43 -11.5 60.5t-63.5 50.5q-94 60 -118 99.5t-24 133.5v412q0 122 39 165.5t148 43.5q107 0 146.5 -44t39.5 -165v-414h-156v371q0 61 -6 79.5t-24 18.5
q-16 0 -23.5 -19.5t-7.5 -78.5v-365q0 -34 10 -49.5t60 -50.5q54 -38 78 -57t42.5 -46.5t22.5 -55t4 -77.5v-454q0 -123 -39 -167t-147 -44q-109 0 -148 44t-39 167v448h156v-405z" />
    <glyph glyph-name="Scedilla.stack" 
d="M172 307q0 -59 7.5 -78.5t23.5 -19.5q18 0 24 18.5t6 79.5v402q0 43 -11.5 59.5t-63.5 50.5q-93 60 -117.5 101t-24.5 135v413q0 123 39 167t148 44q108 0 147 -44t39 -167v-415h-156v370q0 62 -6 81.5t-24 19.5q-16 0 -23.5 -20.5t-7.5 -80.5v-364q0 -35 10 -51.5
t60 -51.5q71 -50 97.5 -75.5t38 -59.5t11.5 -100v-459q0 -98 -23.5 -145t-84.5 -60l-9 -57h-178l29 57q-60 13 -83.5 59.5t-23.5 145.5v453h156v-408z" />
    <glyph glyph-name="Scommaaccent.stack" 
d="M172 307q0 -59 7.5 -78.5t23.5 -19.5q18 0 24 18.5t6 79.5v402q0 43 -11.5 59.5t-63.5 50.5q-93 60 -117.5 101t-24.5 135v413q0 123 39 167t148 44q108 0 147 -44t39 -167v-415h-156v370q0 62 -6 81.5t-24 19.5q-16 0 -23.5 -20.5t-7.5 -80.5v-364q0 -35 10 -51.5
t60 -51.5q71 -50 97.5 -75.5t38 -59.5t11.5 -100v-459q0 -123 -39 -167t-147 -44q-109 0 -148 44t-39 167v453h156v-408zM285 0h-168l10 41h176z" />
    <glyph glyph-name="Tcaron.stack" horiz-adv-x="319" 
d="M195 1669h116l-39 -51h-225l-39 51h117l35 -37zM313 1452h-75v-1452h-156v1452h-76v156h307v-156z" />
    <glyph glyph-name="Tcommaaccent.stack" horiz-adv-x="319" 
d="M313 1513h-75v-1452h-156v1452h-76v156h307v-156zM229 0h-168l11 41h176z" />
    <glyph glyph-name="Ugrave.stack" 
d="M57 1618v61l291 -24v-37h-291zM233 1608h156v-1399q0 -127 -39 -173t-147 -46q-109 0 -148 46t-39 173v1399h156v-1360q0 -61 7.5 -82t23.5 -21q18 0 24 20t6 83v1360z" />
    <glyph glyph-name="Uacute.stack" 
d="M348 1618h-291v37l291 24v-61zM233 1608h156v-1399q0 -127 -39 -173t-147 -46q-109 0 -148 46t-39 173v1399h156v-1360q0 -61 7.5 -82t23.5 -21q18 0 24 20t6 83v1360z" />
    <glyph glyph-name="Ucircumflex.stack" 
d="M238 1618l-35 37l-35 -37h-117l39 51h225l39 -51h-116zM233 1608h156v-1399q0 -127 -39 -173t-147 -46q-109 0 -148 46t-39 173v1399h156v-1360q0 -61 7.5 -82t23.5 -21q18 0 24 20t6 83v1360z" />
    <glyph glyph-name="Utilde.stack" 
d="M354 1669q0 -51 -75 -51q-30 0 -68.5 5t-58.5 5q-19 0 -19 -10h-82q0 51 76 51q30 0 68.5 -5t58.5 -5q18 0 18 10h82zM233 1608h156v-1399q0 -127 -39 -173t-147 -46q-109 0 -148 46t-39 173v1399h156v-1360q0 -61 7.5 -82t23.5 -21q18 0 24 20t6 83v1360z" />
    <glyph glyph-name="Udieresis.stack" 
d="M57 1622v41h129v-41h-129zM348 1622h-129v41h129v-41zM233 1608h156v-1399q0 -127 -39 -173t-147 -46q-109 0 -148 46t-39 173v1399h156v-1360q0 -61 7.5 -82t23.5 -21q18 0 24 20t6 83v1360z" />
    <glyph glyph-name="Umacron.stack" 
d="M57 1622v41h291v-41h-291zM233 1608h156v-1399q0 -127 -39 -173t-147 -46q-109 0 -148 46t-39 173v1399h156v-1360q0 -61 7.5 -82t23.5 -21q18 0 24 20t6 83v1360z" />
    <glyph glyph-name="Ubreve.stack" 
d="M203 1649q53 0 63 20h94q-5 -27 -37 -39t-120 -12t-120.5 12t-37.5 39h94q10 -20 64 -20zM233 1608h156v-1399q0 -127 -39 -173t-147 -46q-109 0 -148 46t-39 173v1399h156v-1360q0 -61 7.5 -82t23.5 -21q18 0 24 20t6 83v1360z" />
    <glyph glyph-name="Uring.stack" 
d="M389 209q0 -127 -39 -173t-147 -46q-109 0 -148 46t-39 173v1399h127v8q0 25 16 40t44 15q27 0 43 -15t16 -40v-8h127v-1399zM233 1608h3l2 8q0 33 -35 33t-35 -33v-8h4v-9q10 -14 31 -14q19 0 30 14v9zM203 1563q-19 0 -31 6v-1321q0 -61 7.5 -82t23.5 -21q18 0 24 20
t6 83v1321q-12 -6 -30 -6z" />
    <glyph glyph-name="Uhungarumlaut.stack" 
d="M180 1618h-78l11 51h112zM303 1618h-78l13 51h112zM233 1608h156v-1399q0 -127 -39 -173t-147 -46q-109 0 -148 46t-39 173v1399h156v-1360q0 -61 7.5 -82t23.5 -21q18 0 24 20t6 83v1360z" />
    <glyph glyph-name="Uogonek.stack" 
d="M233 1669h156v-1399q0 -118 -33 -165.5t-120 -51.5q-15 -13 -15 -22q0 -13 19 -13q16 0 16 13v2h57v-4q0 -35 -86 -35q-96 0 -96 29q0 16 45 28q-92 4 -126 51.5t-34 167.5v1399h156v-1360q0 -61 7.5 -81.5t23.5 -20.5q18 0 24 19.5t6 82.5v1360z" />
    <glyph glyph-name="Wgrave.stack" horiz-adv-x="571" 
d="M141 1618v61l291 -24v-37h-291zM59 0l-53 1608h146l18 -1039l47 1039h135l49 -1041l19 1041h145l-53 -1608h-188l-37 956l-41 -956h-187z" />
    <glyph glyph-name="Wacute.stack" horiz-adv-x="571" 
d="M432 1618h-291v37l291 24v-61zM59 0l-53 1608h146l18 -1039l47 1039h135l49 -1041l19 1041h145l-53 -1608h-188l-37 956l-41 -956h-187z" />
    <glyph glyph-name="Wcircumflex.stack" horiz-adv-x="571" 
d="M322 1618l-35 37l-35 -37h-117l39 51h225l39 -51h-116zM59 0l-53 1608h146l18 -1039l47 1039h135l49 -1041l19 1041h145l-53 -1608h-188l-37 956l-41 -956h-187z" />
    <glyph glyph-name="Wdieresis.stack" horiz-adv-x="571" 
d="M141 1622v41h129v-41h-129zM432 1622h-129v41h129v-41zM59 0l-53 1608h146l18 -1039l47 1039h135l49 -1041l19 1041h145l-53 -1608h-188l-37 956l-41 -956h-187z" />
    <glyph glyph-name="Ygrave.stack" horiz-adv-x="366" 
d="M39 1618v61l291 -24v-37h-291zM106 477l-100 1131h139l37 -725h2l37 725h139l-100 -1131v-477h-154v477z" />
    <glyph glyph-name="Yacute.stack" horiz-adv-x="366" 
d="M330 1618h-291v37l291 24v-61zM106 477l-100 1131h139l37 -725h2l37 725h139l-100 -1131v-477h-154v477z" />
    <glyph glyph-name="Ycircumflex.stack" horiz-adv-x="366" 
d="M219 1618l-35 37l-34 -37h-117l39 51h225l39 -51h-117zM106 477l-100 1131h139l37 -725h2l37 725h139l-100 -1131v-477h-154v477z" />
    <glyph glyph-name="Ydieresis.stack" horiz-adv-x="366" 
d="M39 1622v41h129v-41h-129zM330 1622h-129v41h129v-41zM106 477l-100 1131h139l37 -725h2l37 725h139l-100 -1131v-477h-154v477z" />
    <glyph glyph-name="Zacute.stack" horiz-adv-x="382" 
d="M338 1618h-291v37l291 24v-61zM6 0v94l207 1358h-193v156h357v-97l-207 -1355h207v-156h-371z" />
    <glyph glyph-name="Zcaron.stack" horiz-adv-x="382" 
d="M227 1669h117l-39 -51h-225l-39 51h117l35 -37zM6 0v94l207 1358h-193v156h357v-97l-207 -1355h207v-156h-371z" />
    <glyph glyph-name="Zdotaccent.stack" horiz-adv-x="382" 
d="M6 0v94l207 1358h-193v156h109q0 30 17.5 46.5t46.5 16.5q28 0 45.5 -16.5t17.5 -46.5h121v-97l-207 -1355h207v-156h-371z" />
    <glyph glyph-name="r.ss04" horiz-adv-x="397" 
d="M381 776h-156v465q0 53 -6 70.5t-20 17.5q-15 0 -21 -17.5t-6 -70.5v-1241h-156v1475h156v-199q0 119 22.5 164t77.5 45q61 0 85 -44.5t24 -164.5v-500z" />
    <glyph glyph-name="racute.ss04" horiz-adv-x="397" 
d="M270 1522h-127l25 127h201zM381 776h-156v465q0 53 -6 70.5t-20 17.5q-15 0 -21 -17.5t-6 -70.5v-1241h-156v1475h156v-199q0 119 22.5 164t77.5 45q61 0 85 -44.5t24 -164.5v-500z" />
    <glyph glyph-name="rcaron.ss04" horiz-adv-x="397" 
d="M238 1649h147l-78 -127h-201l-77 127h147l31 -58zM381 776h-156v465q0 53 -6 70.5t-20 17.5q-15 0 -21 -17.5t-6 -70.5v-1241h-156v1475h156v-199q0 119 22.5 164t77.5 45q61 0 85 -44.5t24 -164.5v-500z" />
    <glyph glyph-name="rcommaaccent.ss04" horiz-adv-x="397" 
d="M381 776h-156v465q0 53 -6 70.5t-20 17.5q-15 0 -21 -17.5t-6 -70.5v-1241h-156v1475h156v-199q0 119 22.5 164t77.5 45q61 0 85 -44.5t24 -164.5v-500zM111 -205h-86l55 60h-51v108h135v-108z" />
    <glyph glyph-name="ygrave.ss05" horiz-adv-x="387" 
d="M131 1522l-98 127h200l25 -127h-127zM139 -102l6 102h-84l-45 1475h154l4 -1088l43 1088h154l-97 -1577h-135z" />
    <glyph glyph-name="yacute.ss05" horiz-adv-x="387" 
d="M258 1522h-127l25 127h200zM139 -102l6 102h-84l-45 1475h154l4 -1088l43 1088h154l-97 -1577h-135z" />
    <glyph glyph-name="ycircumflex.ss05" horiz-adv-x="387" 
d="M225 1522l-30 57l-31 -57h-148l78 127h201l78 -127h-148zM139 -102l6 102h-84l-45 1475h154l4 -1088l43 1088h154l-97 -1577h-135z" />
    <glyph glyph-name="ydieresis.ss05" horiz-adv-x="387" 
d="M41 1524v145h133v-145h-133zM348 1524h-133v145h133v-145zM139 -102l6 102h-84l-45 1475h154l4 -1088l43 1088h154l-97 -1577h-135z" />
    <glyph glyph-name="hyphen.cap" horiz-adv-x="290" 
d="M270 764h-250v141h250v-141z" />
    <glyph glyph-name="exclamdown.cap" horiz-adv-x="204" 
d="M16 1669h172v-176h-172v176zM156 1260l28 -1260h-161l28 1260h105z" />
    <glyph glyph-name="questiondown.cap" 
d="M160 1669h172v-176h-172v176zM389 209q0 -128 -38.5 -173.5t-147.5 -45.5q-108 0 -147.5 46t-39.5 173v467q0 66 16.5 113t40.5 73t48 48t40.5 52.5t16.5 71.5v226h135v-238q0 -54 -14.5 -94.5t-35.5 -66t-41.5 -49.5t-35 -59.5t-14.5 -82.5v-422q0 -63 6.5 -83t24.5 -20
q16 0 23 21t7 82v409h156v-448z" />
    <glyph glyph-name="guilsinglleft.cap" horiz-adv-x="204" 
d="M12 834l92 479h89l-95 -479l95 -480h-89z" />
    <glyph glyph-name="guilsinglright.cap" horiz-adv-x="204" 
d="M193 834l-93 -480h-88l94 480l-94 479h88z" />
    <glyph glyph-name="guillemotleft.cap" horiz-adv-x="327" 
d="M12 834l92 479h89l-95 -479l95 -480h-89zM135 834l92 479h88l-94 -479l94 -480h-88z" />
    <glyph glyph-name="guillemotright.cap" horiz-adv-x="327" 
d="M193 834l-93 -480h-88l94 480l-94 479h88zM315 834l-92 -480h-88l94 480l-94 479h88z" />
    <glyph glyph-name="endash.cap" horiz-adv-x="716" 
d="M696 805h-676v59h676v-59z" />
    <glyph glyph-name="emdash.cap" horiz-adv-x="1433" 
d="M1413 805h-1393v59h1393v-59z" />
    <glyph glyph-name="periodcentered.cap" horiz-adv-x="204" 
d="M188 745h-172v177h172v-177z" />
    <glyph glyph-name="parenleft.cap" horiz-adv-x="231" 
d="M160 1669h71q-98 -421 -98 -833q0 -415 98 -836h-71q-66 266 -92.5 454t-26.5 382q0 193 26.5 380t92.5 453z" />
    <glyph glyph-name="parenright.cap" horiz-adv-x="231" 
d="M72 1669q65 -265 91.5 -452.5t26.5 -382.5q0 -194 -26.5 -382t-91.5 -452h-72q98 421 98 834q0 414 -98 835h72z" />
    <glyph glyph-name="bracketleft.cap" horiz-adv-x="266" 
d="M84 0v1669h182v-61h-92v-1547h92v-61h-182z" />
    <glyph glyph-name="bracketright.cap" horiz-adv-x="266" 
d="M0 0v61h92v1547h-92v61h182v-1669h-182z" />
    <glyph glyph-name="braceleft.cap" horiz-adv-x="266" 
d="M41 805v61q40 3 54 26.5t14 78.5v526q0 101 31 136.5t122 35.5h4v-61h-10q-31 0 -44 -21.5t-13 -77.5v-510q0 -123 -86 -163q86 -40 86 -164v-512q0 -56 13 -77.5t44 -21.5h10v-61h-4q-91 0 -122 35.5t-31 136.5v528q0 55 -14 78.5t-54 26.5z" />
    <glyph glyph-name="braceright.cap" horiz-adv-x="266" 
d="M225 805q-40 -3 -53.5 -26.5t-13.5 -78.5v-528q0 -101 -31.5 -136.5t-122.5 -35.5h-4v61h10q31 0 44.5 21.5t13.5 77.5v512q0 124 86 164q-86 40 -86 163v510q0 56 -13.5 77.5t-44.5 21.5h-10v61h4q91 0 122.5 -35.5t31.5 -136.5v-526q0 -55 13.5 -78.5t53.5 -26.5v-61z
" />
    <glyph glyph-name="baht" 
d="M16 0v1669h170v103h31v-103q92 -4 125 -51t33 -168v-442q0 -59 -22 -88t-97 -37q79 -7 106 -42.5t27 -113.5v-508q0 -123 -37 -169.5t-135 -49.5v-102h-31v102h-170zM172 1513v-569h14v569h-14zM233 1409q0 84 -16 100v-561q16 16 16 99v362zM172 788v-632h14v632h-14z
M233 684q0 89 -16 100v-624q16 11 16 98v426z" />
    <glyph glyph-name="rupee" horiz-adv-x="487" 
d="M147 0l-32 778h-11v-778h-94v1669h111q64 0 87 -33.5t23 -126.5v-616q0 -75 -30 -96l41 -797h-95zM121 1554h-17v-661h17q18 0 18 74v514q0 30 -2 46t-6 21.5t-10 5.5zM471 147q0 -91 -23.5 -124t-87.5 -33q-65 0 -87.5 32.5t-22.5 124.5v486h92v-465q0 -48 3.5 -61
t14.5 -13q7 0 10 4.5t5 21t2 48.5v459q0 33 -7.5 46.5t-45.5 45.5q-47 40 -60.5 70t-13.5 98v440q0 92 23 125t87 33q63 0 87 -33t24 -125v-469h-94v449q0 32 -2 48t-5 20.5t-10 4.5q-11 0 -14.5 -12.5t-3.5 -60.5v-426q0 -30 7 -43t42 -43q52 -46 66 -74.5t14 -95.5v-478z
" />
    <glyph glyph-name="bitcoin" 
d="M16 0v1669h142v103h30v-103h2h19v103h31v-105q77 -9 106 -56t29 -161v-442q0 -59 -22 -88t-97 -37q79 -7 106 -42.5t27 -113.5v-508q0 -117 -32 -164t-117 -53v-104h-31v102h-6h-15v-102h-30v102h-142zM188 1513h-16v-569h16q16 0 23.5 21t7.5 82v362q0 62 -7.5 83
t-23.5 21zM203 788h-31v-632h31q18 0 24 19.5t6 82.5v426q0 64 -6 84t-24 20z" />
    <glyph glyph-name="zero.opencirc" 
d="M16 209v1251q0 127 39 173t148 46t147.5 -45.5t38.5 -173.5v-1251q0 -128 -38.5 -173.5t-147.5 -45.5t-148 46t-39 173zM47 209q0 -115 31 -152t125 -37t124.5 37t30.5 152v1251q0 115 -30.5 152t-124.5 37t-125 -37t-31 -152v-1251zM106 217v1239q0 58 21 82.5t76 24.5
t75.5 -24.5t20.5 -82.5v-1239q0 -58 -20.5 -82t-75.5 -24t-76 24.5t-21 81.5zM190 238q0 -41 13 -41q12 0 12 41v1198q0 41 -12 41q-13 0 -13 -41v-1198z" />
    <glyph glyph-name="zero.closecirc" 
d="M16 209v1251q0 127 39 173t148 46t147.5 -45.5t38.5 -173.5v-1251q0 -128 -38.5 -173.5t-147.5 -45.5t-148 46t-39 173zM106 217q0 -57 21 -81.5t76 -24.5t75.5 24t20.5 82v1239q0 58 -20.5 82.5t-75.5 24.5t-76 -24.5t-21 -82.5v-1239zM190 238v1198q0 41 13 41
q12 0 12 -41v-1198q0 -41 -12 -41q-13 0 -13 41z" />
    <glyph glyph-name="arrowupleft" horiz-adv-x="755" 
d="M25 662v382l22 23h383l141 -141l-305 10l461 -463l-109 -108l-460 458l8 -303z" />
    <glyph glyph-name="arrowupright" horiz-adv-x="755" 
d="M590 520l8 303l-461 -458l-108 108l460 463l-305 -10l142 141h383l22 -23v-382z" />
    <glyph glyph-name="arrowdownleft" horiz-adv-x="755" 
d="M25 752l141 141l-8 -303l460 459l109 -109l-461 -463l305 10l-141 -141h-383l-22 23v383z" />
    <glyph glyph-name="arrowdownright" horiz-adv-x="755" 
d="M731 369l-22 -23h-383l-142 141l305 -10l-460 463l108 109l461 -459l-8 303l141 -141v-383z" />
    <glyph glyph-name="whitesquare" horiz-adv-x="1234" 
d="M270 289v694h693v-694h-693zM410 428h413v418h-413v-418z" />
    <glyph glyph-name="whitediamond" horiz-adv-x="1234" 
d="M616 147l-489 490l489 489l490 -489zM616 342l295 295l-295 293l-294 -293z" />
    <glyph glyph-name="whitecircle" horiz-adv-x="1234" 
d="M616 274q-157 0 -259.5 103t-102.5 260q0 155 102.5 257.5t259.5 102.5q155 0 258 -102.5t103 -257.5q0 -157 -103 -260t-258 -103zM616 406q96 0 160 65t64 166q0 99 -64 164t-160 65q-97 0 -161 -65t-64 -164q0 -101 64 -166t161 -65z" />
    <glyph glyph-name="whiteleftpointingsmalltriangle" horiz-adv-x="1234" 
d="M926 147l-797 490l797 489v-979zM784 377v516l-415 -256z" />
    <glyph glyph-name="whiterightpointingsmalltriangle" horiz-adv-x="1234" 
d="M309 147v979l797 -489zM453 377l413 260l-413 256v-516z" />
    <glyph glyph-name="whiteuppointingsmalltriangle" horiz-adv-x="1234" 
d="M127 334l489 796l490 -796h-979zM360 463h517l-261 418z" />
    <glyph glyph-name="whitedownpointingsmalltriangle" horiz-adv-x="1234" 
d="M127 1108h979l-490 -797zM358 979l258 -418l256 418h-514z" />
    <glyph glyph-name="blacksquare" horiz-adv-x="1234" 
d="M270 289v694h693v-694h-693z" />
    <glyph glyph-name="blackdiamond" horiz-adv-x="1234" 
d="M616 147l-489 490l489 489l490 -489z" />
    <glyph glyph-name="blackcircle" horiz-adv-x="1234" 
d="M616 274q-157 0 -259.5 103t-102.5 260q0 155 102.5 257.5t259.5 102.5q155 0 258 -102.5t103 -257.5q0 -157 -103 -260t-258 -103z" />
    <glyph glyph-name="blackleftpointingtriangle" horiz-adv-x="1615" 
d="M63 698l1311 707v-1405z" />
    <glyph glyph-name="blackrightpointingtriangle" horiz-adv-x="1615" 
d="M242 0v1405l1308 -707z" />
    <glyph glyph-name="blackuppointingtriangle" horiz-adv-x="1615" 
d="M803 1405l706 -1405h-1405z" />
    <glyph glyph-name="blackdownpointingtriangle" horiz-adv-x="1615" 
d="M821 -2l-717 1407h1405z" />
    <glyph glyph-name="smalltriangleleftsld" horiz-adv-x="1234" 
d="M926 147l-797 490l797 489v-979z" />
    <glyph glyph-name="smalltrianglerightsld" horiz-adv-x="1234" 
d="M309 147v979l797 -489z" />
    <glyph glyph-name="smalltrianglesld" horiz-adv-x="1234" 
d="M127 334l489 796l490 -796h-979z" />
    <glyph glyph-name="smalltriangleinvsld" horiz-adv-x="1234" 
d="M127 1108h979l-490 -797z" />
    <glyph glyph-name="whiteleftpointingtriangle" horiz-adv-x="1615" 
d="M63 698l1311 707v-1405zM362 698l857 -442v897z" />
    <glyph glyph-name="whiterightpointingtriangle" horiz-adv-x="1615" 
d="M1550 698l-1308 -698v1405zM1253 698l-856 455v-897z" />
    <glyph glyph-name="whiteuppointingtriangle" horiz-adv-x="1615" 
d="M803 1405l706 -1405h-1405zM803 1090l-441 -926h895z" />
    <glyph glyph-name="whitedownpointingtriangle" horiz-adv-x="1615" 
d="M803 0l-699 1405h1405zM803 315l454 924h-895z" />
    <glyph glyph-name="chevronleft" horiz-adv-x="1615" 
d="M1270 0h-221l-859 809l859 815h221l-850 -815z" />
    <glyph glyph-name="chevronright" horiz-adv-x="1615" 
d="M1378 809l-858 -809h-221l850 809l-850 815h221z" />
    <glyph glyph-name="chevronup" horiz-adv-x="1615" 
d="M805 1403l770 -858v-221l-770 850l-766 -850v221z" />
    <glyph glyph-name="chevrondown" horiz-adv-x="1615" 
d="M805 324l-766 856v223l766 -852l770 852v-223z" />
    <glyph glyph-name="heartsuitwhite" horiz-adv-x="409" 
d="M205 1135q16 82 88 82q59 0 82.5 -39.5t23.5 -157.5v-41q0 -102 -14.5 -174.5t-37.5 -118.5t-47.5 -88t-49.5 -112.5t-39 -163.5h-12q-14 93 -39 163.5t-50 112.5t-48 88t-37.5 118.5t-14.5 174.5v41q0 118 24 157.5t83 39.5q72 0 88 -82z" />
    </font>
</defs>
</svg>
